G04*
G04 #@! TF.GenerationSoftware,Altium Limited,Altium Designer,23.11.1 (41)*
G04*
G04 Layer_Color=8421504*
%FSLAX44Y44*%
%MOMM*%
G71*
G04*
G04 #@! TF.SameCoordinates,838A1BA1-0531-4938-89FD-2D76D54D1B47*
G04*
G04*
G04 #@! TF.FilePolarity,Positive*
G04*
G01*
G75*
%ADD30R,1.2400X1.4700*%
%ADD31R,1.2800X0.8000*%
%ADD32R,0.7300X1.2800*%
%ADD33R,0.8500X0.8500*%
%ADD34R,0.5000X1.0400*%
%ADD35R,1.3000X1.3000*%
%ADD36R,1.3000X1.3000*%
%ADD37R,1.3000X1.3000*%
%ADD38R,1.3000X1.3000*%
%ADD39R,2.7100X2.5750*%
%ADD40R,2.7100X2.5750*%
%ADD41R,3.1000X5.1600*%
G04:AMPARAMS|DCode=42|XSize=4.4mm|YSize=2.5mm|CornerRadius=0.625mm|HoleSize=0mm|Usage=FLASHONLY|Rotation=0.000|XOffset=0mm|YOffset=0mm|HoleType=Round|Shape=RoundedRectangle|*
%AMROUNDEDRECTD42*
21,1,4.4000,1.2500,0,0,0.0*
21,1,3.1500,2.5000,0,0,0.0*
1,1,1.2500,1.5750,-0.6250*
1,1,1.2500,-1.5750,-0.6250*
1,1,1.2500,-1.5750,0.6250*
1,1,1.2500,1.5750,0.6250*
%
%ADD42ROUNDEDRECTD42*%
G04:AMPARAMS|DCode=43|XSize=1.8034mm|YSize=1.1938mm|CornerRadius=0.203mm|HoleSize=0mm|Usage=FLASHONLY|Rotation=90.000|XOffset=0mm|YOffset=0mm|HoleType=Round|Shape=RoundedRectangle|*
%AMROUNDEDRECTD43*
21,1,1.8034,0.7879,0,0,90.0*
21,1,1.3975,1.1938,0,0,90.0*
1,1,0.4059,0.3940,0.6988*
1,1,0.4059,0.3940,-0.6988*
1,1,0.4059,-0.3940,-0.6988*
1,1,0.4059,-0.3940,0.6988*
%
%ADD43ROUNDEDRECTD43*%
G04:AMPARAMS|DCode=44|XSize=0.508mm|YSize=0.508mm|CornerRadius=0.1524mm|HoleSize=0mm|Usage=FLASHONLY|Rotation=0.000|XOffset=0mm|YOffset=0mm|HoleType=Round|Shape=RoundedRectangle|*
%AMROUNDEDRECTD44*
21,1,0.5080,0.2032,0,0,0.0*
21,1,0.2032,0.5080,0,0,0.0*
1,1,0.3048,0.1016,-0.1016*
1,1,0.3048,-0.1016,-0.1016*
1,1,0.3048,-0.1016,0.1016*
1,1,0.3048,0.1016,0.1016*
%
%ADD44ROUNDEDRECTD44*%
G04:AMPARAMS|DCode=45|XSize=0.508mm|YSize=0.508mm|CornerRadius=0.1524mm|HoleSize=0mm|Usage=FLASHONLY|Rotation=270.000|XOffset=0mm|YOffset=0mm|HoleType=Round|Shape=RoundedRectangle|*
%AMROUNDEDRECTD45*
21,1,0.5080,0.2032,0,0,270.0*
21,1,0.2032,0.5080,0,0,270.0*
1,1,0.3048,-0.1016,-0.1016*
1,1,0.3048,-0.1016,0.1016*
1,1,0.3048,0.1016,0.1016*
1,1,0.3048,0.1016,-0.1016*
%
%ADD45ROUNDEDRECTD45*%
G04:AMPARAMS|DCode=46|XSize=1.8034mm|YSize=1.1938mm|CornerRadius=0.203mm|HoleSize=0mm|Usage=FLASHONLY|Rotation=180.000|XOffset=0mm|YOffset=0mm|HoleType=Round|Shape=RoundedRectangle|*
%AMROUNDEDRECTD46*
21,1,1.8034,0.7879,0,0,180.0*
21,1,1.3975,1.1938,0,0,180.0*
1,1,0.4059,-0.6988,0.3940*
1,1,0.4059,0.6988,0.3940*
1,1,0.4059,0.6988,-0.3940*
1,1,0.4059,-0.6988,-0.3940*
%
%ADD46ROUNDEDRECTD46*%
G04:AMPARAMS|DCode=47|XSize=1mm|YSize=0.8mm|CornerRadius=0.2mm|HoleSize=0mm|Usage=FLASHONLY|Rotation=0.000|XOffset=0mm|YOffset=0mm|HoleType=Round|Shape=RoundedRectangle|*
%AMROUNDEDRECTD47*
21,1,1.0000,0.4000,0,0,0.0*
21,1,0.6000,0.8000,0,0,0.0*
1,1,0.4000,0.3000,-0.2000*
1,1,0.4000,-0.3000,-0.2000*
1,1,0.4000,-0.3000,0.2000*
1,1,0.4000,0.3000,0.2000*
%
%ADD47ROUNDEDRECTD47*%
G04:AMPARAMS|DCode=48|XSize=1.397mm|YSize=1.0922mm|CornerRadius=0.2021mm|HoleSize=0mm|Usage=FLASHONLY|Rotation=180.000|XOffset=0mm|YOffset=0mm|HoleType=Round|Shape=RoundedRectangle|*
%AMROUNDEDRECTD48*
21,1,1.3970,0.6881,0,0,180.0*
21,1,0.9929,1.0922,0,0,180.0*
1,1,0.4041,-0.4964,0.3440*
1,1,0.4041,0.4964,0.3440*
1,1,0.4041,0.4964,-0.3440*
1,1,0.4041,-0.4964,-0.3440*
%
%ADD48ROUNDEDRECTD48*%
%ADD49R,0.9000X0.5500*%
%ADD50R,0.5500X0.9000*%
G04:AMPARAMS|DCode=51|XSize=0.3mm|YSize=0.95mm|CornerRadius=0.0625mm|HoleSize=0mm|Usage=FLASHONLY|Rotation=90.000|XOffset=0mm|YOffset=0mm|HoleType=Round|Shape=RoundedRectangle|*
%AMROUNDEDRECTD51*
21,1,0.3000,0.8250,0,0,90.0*
21,1,0.1750,0.9500,0,0,90.0*
1,1,0.1250,0.4125,0.0875*
1,1,0.1250,0.4125,-0.0875*
1,1,0.1250,-0.4125,-0.0875*
1,1,0.1250,-0.4125,0.0875*
%
%ADD51ROUNDEDRECTD51*%
G04:AMPARAMS|DCode=52|XSize=0.3mm|YSize=0.95mm|CornerRadius=0.0625mm|HoleSize=0mm|Usage=FLASHONLY|Rotation=0.000|XOffset=0mm|YOffset=0mm|HoleType=Round|Shape=RoundedRectangle|*
%AMROUNDEDRECTD52*
21,1,0.3000,0.8250,0,0,0.0*
21,1,0.1750,0.9500,0,0,0.0*
1,1,0.1250,0.0875,-0.4125*
1,1,0.1250,-0.0875,-0.4125*
1,1,0.1250,-0.0875,0.4125*
1,1,0.1250,0.0875,0.4125*
%
%ADD52ROUNDEDRECTD52*%
G04:AMPARAMS|DCode=53|XSize=4.4mm|YSize=2.5mm|CornerRadius=0.625mm|HoleSize=0mm|Usage=FLASHONLY|Rotation=270.000|XOffset=0mm|YOffset=0mm|HoleType=Round|Shape=RoundedRectangle|*
%AMROUNDEDRECTD53*
21,1,4.4000,1.2500,0,0,270.0*
21,1,3.1500,2.5000,0,0,270.0*
1,1,1.2500,-0.6250,-1.5750*
1,1,1.2500,-0.6250,1.5750*
1,1,1.2500,0.6250,1.5750*
1,1,1.2500,0.6250,-1.5750*
%
%ADD53ROUNDEDRECTD53*%
%ADD54C,2.1590*%
%ADD55R,0.9500X0.5000*%
G04:AMPARAMS|DCode=56|XSize=2.26mm|YSize=2.16mm|CornerRadius=0.54mm|HoleSize=0mm|Usage=FLASHONLY|Rotation=180.000|XOffset=0mm|YOffset=0mm|HoleType=Round|Shape=RoundedRectangle|*
%AMROUNDEDRECTD56*
21,1,2.2600,1.0800,0,0,180.0*
21,1,1.1800,2.1600,0,0,180.0*
1,1,1.0800,-0.5900,0.5400*
1,1,1.0800,0.5900,0.5400*
1,1,1.0800,0.5900,-0.5400*
1,1,1.0800,-0.5900,-0.5400*
%
%ADD56ROUNDEDRECTD56*%
G04:AMPARAMS|DCode=57|XSize=0.24mm|YSize=0.6mm|CornerRadius=0.0492mm|HoleSize=0mm|Usage=FLASHONLY|Rotation=90.000|XOffset=0mm|YOffset=0mm|HoleType=Round|Shape=RoundedRectangle|*
%AMROUNDEDRECTD57*
21,1,0.2400,0.5016,0,0,90.0*
21,1,0.1416,0.6000,0,0,90.0*
1,1,0.0984,0.2508,0.0708*
1,1,0.0984,0.2508,-0.0708*
1,1,0.0984,-0.2508,-0.0708*
1,1,0.0984,-0.2508,0.0708*
%
%ADD57ROUNDEDRECTD57*%
G04:AMPARAMS|DCode=58|XSize=0.889mm|YSize=0.8636mm|CornerRadius=0.1511mm|HoleSize=0mm|Usage=FLASHONLY|Rotation=0.000|XOffset=0mm|YOffset=0mm|HoleType=Round|Shape=RoundedRectangle|*
%AMROUNDEDRECTD58*
21,1,0.8890,0.5613,0,0,0.0*
21,1,0.5867,0.8636,0,0,0.0*
1,1,0.3023,0.2934,-0.2807*
1,1,0.3023,-0.2934,-0.2807*
1,1,0.3023,-0.2934,0.2807*
1,1,0.3023,0.2934,0.2807*
%
%ADD58ROUNDEDRECTD58*%
%ADD59R,0.3048X0.4572*%
G04:AMPARAMS|DCode=60|XSize=1.397mm|YSize=1.0922mm|CornerRadius=0.2021mm|HoleSize=0mm|Usage=FLASHONLY|Rotation=270.000|XOffset=0mm|YOffset=0mm|HoleType=Round|Shape=RoundedRectangle|*
%AMROUNDEDRECTD60*
21,1,1.3970,0.6881,0,0,270.0*
21,1,0.9929,1.0922,0,0,270.0*
1,1,0.4041,-0.3440,-0.4964*
1,1,0.4041,-0.3440,0.4964*
1,1,0.4041,0.3440,0.4964*
1,1,0.4041,0.3440,-0.4964*
%
%ADD60ROUNDEDRECTD60*%
%ADD61C,0.4500*%
%ADD62O,0.4500X0.4500*%
G04:AMPARAMS|DCode=63|XSize=0.4mm|YSize=0.7mm|CornerRadius=0.1mm|HoleSize=0mm|Usage=FLASHONLY|Rotation=180.000|XOffset=0mm|YOffset=0mm|HoleType=Round|Shape=RoundedRectangle|*
%AMROUNDEDRECTD63*
21,1,0.4000,0.5000,0,0,180.0*
21,1,0.2000,0.7000,0,0,180.0*
1,1,0.2000,-0.1000,0.2500*
1,1,0.2000,0.1000,0.2500*
1,1,0.2000,0.1000,-0.2500*
1,1,0.2000,-0.1000,-0.2500*
%
%ADD63ROUNDEDRECTD63*%
%ADD64R,1.5000X1.9000*%
G04:AMPARAMS|DCode=65|XSize=0.9mm|YSize=0.25mm|CornerRadius=0.05mm|HoleSize=0mm|Usage=FLASHONLY|Rotation=180.000|XOffset=0mm|YOffset=0mm|HoleType=Round|Shape=RoundedRectangle|*
%AMROUNDEDRECTD65*
21,1,0.9000,0.1500,0,0,180.0*
21,1,0.8000,0.2500,0,0,180.0*
1,1,0.1000,-0.4000,0.0750*
1,1,0.1000,0.4000,0.0750*
1,1,0.1000,0.4000,-0.0750*
1,1,0.1000,-0.4000,-0.0750*
%
%ADD65ROUNDEDRECTD65*%
G04:AMPARAMS|DCode=66|XSize=0.889mm|YSize=0.8636mm|CornerRadius=0.1511mm|HoleSize=0mm|Usage=FLASHONLY|Rotation=90.000|XOffset=0mm|YOffset=0mm|HoleType=Round|Shape=RoundedRectangle|*
%AMROUNDEDRECTD66*
21,1,0.8890,0.5613,0,0,90.0*
21,1,0.5867,0.8636,0,0,90.0*
1,1,0.3023,0.2807,0.2934*
1,1,0.3023,0.2807,-0.2934*
1,1,0.3023,-0.2807,-0.2934*
1,1,0.3023,-0.2807,0.2934*
%
%ADD66ROUNDEDRECTD66*%
G04:AMPARAMS|DCode=67|XSize=1.55mm|YSize=3.45mm|CornerRadius=0.175mm|HoleSize=0mm|Usage=FLASHONLY|Rotation=0.000|XOffset=0mm|YOffset=0mm|HoleType=Round|Shape=RoundedRectangle|*
%AMROUNDEDRECTD67*
21,1,1.5500,3.1000,0,0,0.0*
21,1,1.2000,3.4500,0,0,0.0*
1,1,0.3500,0.6000,-1.5500*
1,1,0.3500,-0.6000,-1.5500*
1,1,0.3500,-0.6000,1.5500*
1,1,0.3500,0.6000,1.5500*
%
%ADD67ROUNDEDRECTD67*%
%ADD68R,1.3500X2.7000*%
%ADD69O,0.8000X0.2300*%
%ADD70O,0.2300X0.8000*%
%ADD71R,7.4000X7.4000*%
%ADD72O,0.4000X1.8000*%
%ADD73R,7.4000X7.4000*%
%ADD74R,1.3500X2.2000*%
%ADD75R,2.1000X2.1000*%
%ADD76O,0.2000X0.8000*%
%ADD77O,0.8000X0.2000*%
%ADD78O,0.8500X0.2800*%
%ADD79R,5.6000X5.6000*%
%ADD80O,0.2800X0.8500*%
%ADD81O,1.6000X0.3000*%
%ADD82O,2.9210X0.7620*%
%ADD83R,1.4000X1.2000*%
%ADD84R,1.4000X1.0000*%
G04:AMPARAMS|DCode=85|XSize=0.25mm|YSize=0.4mm|CornerRadius=0.05mm|HoleSize=0mm|Usage=FLASHONLY|Rotation=90.000|XOffset=0mm|YOffset=0mm|HoleType=Round|Shape=RoundedRectangle|*
%AMROUNDEDRECTD85*
21,1,0.2500,0.3000,0,0,90.0*
21,1,0.1500,0.4000,0,0,90.0*
1,1,0.1000,0.1500,0.0750*
1,1,0.1000,0.1500,-0.0750*
1,1,0.1000,-0.1500,-0.0750*
1,1,0.1000,-0.1500,0.0750*
%
%ADD85ROUNDEDRECTD85*%
%ADD86R,2.2500X2.7500*%
%ADD87R,2.7500X2.2500*%
%ADD88R,1.2800X0.5000*%
G04:AMPARAMS|DCode=89|XSize=1.55mm|YSize=3.45mm|CornerRadius=0.175mm|HoleSize=0mm|Usage=FLASHONLY|Rotation=270.000|XOffset=0mm|YOffset=0mm|HoleType=Round|Shape=RoundedRectangle|*
%AMROUNDEDRECTD89*
21,1,1.5500,3.1000,0,0,270.0*
21,1,1.2000,3.4500,0,0,270.0*
1,1,0.3500,-1.5500,-0.6000*
1,1,0.3500,-1.5500,0.6000*
1,1,0.3500,1.5500,0.6000*
1,1,0.3500,1.5500,-0.6000*
%
%ADD89ROUNDEDRECTD89*%
G04:AMPARAMS|DCode=90|XSize=3.4mm|YSize=3.4mm|CornerRadius=0mm|HoleSize=0mm|Usage=FLASHONLY|Rotation=180.000|XOffset=0mm|YOffset=0mm|HoleType=Round|Shape=RoundedRectangle|*
%AMROUNDEDRECTD90*
21,1,3.4000,3.4000,0,0,180.0*
21,1,3.4000,3.4000,0,0,180.0*
1,1,0.0000,-1.7000,1.7000*
1,1,0.0000,1.7000,1.7000*
1,1,0.0000,1.7000,-1.7000*
1,1,0.0000,-1.7000,-1.7000*
%
%ADD90ROUNDEDRECTD90*%
%ADD91R,0.2500X0.8000*%
%ADD92R,0.8000X0.2500*%
G04:AMPARAMS|DCode=93|XSize=0.6mm|YSize=0.8mm|CornerRadius=0.1375mm|HoleSize=0mm|Usage=FLASHONLY|Rotation=180.000|XOffset=0mm|YOffset=0mm|HoleType=Round|Shape=RoundedRectangle|*
%AMROUNDEDRECTD93*
21,1,0.6000,0.5250,0,0,180.0*
21,1,0.3250,0.8000,0,0,180.0*
1,1,0.2750,-0.1625,0.2625*
1,1,0.2750,0.1625,0.2625*
1,1,0.2750,0.1625,-0.2625*
1,1,0.2750,-0.1625,-0.2625*
%
%ADD93ROUNDEDRECTD93*%
G04:AMPARAMS|DCode=94|XSize=3.06mm|YSize=0.89mm|CornerRadius=0.2225mm|HoleSize=0mm|Usage=FLASHONLY|Rotation=180.000|XOffset=0mm|YOffset=0mm|HoleType=Round|Shape=RoundedRectangle|*
%AMROUNDEDRECTD94*
21,1,3.0600,0.4450,0,0,180.0*
21,1,2.6150,0.8900,0,0,180.0*
1,1,0.4450,-1.3075,0.2225*
1,1,0.4450,1.3075,0.2225*
1,1,0.4450,1.3075,-0.2225*
1,1,0.4450,-1.3075,-0.2225*
%
%ADD94ROUNDEDRECTD94*%
%ADD95R,2.1990X0.4590*%
G04:AMPARAMS|DCode=96|XSize=1.1mm|YSize=1.1mm|CornerRadius=0.13mm|HoleSize=0mm|Usage=FLASHONLY|Rotation=270.000|XOffset=0mm|YOffset=0mm|HoleType=Round|Shape=RoundedRectangle|*
%AMROUNDEDRECTD96*
21,1,1.1000,0.8400,0,0,270.0*
21,1,0.8400,1.1000,0,0,270.0*
1,1,0.2600,-0.4200,-0.4200*
1,1,0.2600,-0.4200,0.4200*
1,1,0.2600,0.4200,0.4200*
1,1,0.2600,0.4200,-0.4200*
%
%ADD96ROUNDEDRECTD96*%
G04:AMPARAMS|DCode=97|XSize=1.1mm|YSize=1.1mm|CornerRadius=0.25mm|HoleSize=0mm|Usage=FLASHONLY|Rotation=270.000|XOffset=0mm|YOffset=0mm|HoleType=Round|Shape=RoundedRectangle|*
%AMROUNDEDRECTD97*
21,1,1.1000,0.6000,0,0,270.0*
21,1,0.6000,1.1000,0,0,270.0*
1,1,0.5000,-0.3000,-0.3000*
1,1,0.5000,-0.3000,0.3000*
1,1,0.5000,0.3000,0.3000*
1,1,0.5000,0.3000,-0.3000*
%
%ADD97ROUNDEDRECTD97*%
%ADD98R,3.8100X4.2418*%
G36*
X685613Y1395180D02*
X687112Y1395179D01*
X687112Y1395179D01*
X687212Y1395180D01*
X687396Y1395104D01*
X687536Y1394963D01*
X687613Y1394780D01*
Y1394680D01*
X687613Y1392281D01*
X687613Y1392281D01*
X687613Y1392181D01*
X687537Y1391997D01*
X687396Y1391855D01*
X687212Y1391779D01*
X687112Y1391779D01*
X685612Y1391779D01*
X685612Y1391779D01*
X685512Y1391780D01*
X685329Y1391856D01*
X685188Y1391997D01*
X685112Y1392181D01*
X685112Y1392280D01*
X685112Y1394680D01*
X685112D01*
X685112Y1394779D01*
X685189Y1394963D01*
X685329Y1395104D01*
X685513Y1395180D01*
X685613Y1395180D01*
D02*
G37*
G36*
X680613D02*
X682112Y1395179D01*
X682112Y1395179D01*
X682212Y1395180D01*
X682396Y1395104D01*
X682536Y1394963D01*
X682613Y1394780D01*
Y1394680D01*
X682613Y1392281D01*
X682613Y1392281D01*
X682613Y1392181D01*
X682537Y1391997D01*
X682396Y1391855D01*
X682212Y1391779D01*
X682112Y1391779D01*
X680612Y1391779D01*
X680612Y1391779D01*
X680512Y1391780D01*
X680329Y1391856D01*
X680188Y1391997D01*
X680112Y1392181D01*
X680112Y1392280D01*
X680112Y1394680D01*
X680112D01*
X680112Y1394779D01*
X680189Y1394963D01*
X680329Y1395104D01*
X680513Y1395180D01*
X680613Y1395180D01*
D02*
G37*
G36*
X690361Y1389780D02*
X690560Y1389780D01*
X690928Y1389628D01*
X691209Y1389347D01*
X691361Y1388980D01*
X691361Y1388781D01*
X691362Y1380179D01*
X691362Y1380179D01*
X691361Y1379980D01*
X691209Y1379613D01*
X690928Y1379332D01*
X690561Y1379180D01*
X690363Y1379180D01*
X677362Y1379179D01*
X677362Y1379179D01*
X677163Y1379180D01*
X676796Y1379332D01*
X676514Y1379613D01*
X676362Y1379981D01*
X676362Y1380179D01*
X676362Y1388779D01*
Y1388779D01*
X676361Y1388978D01*
X676514Y1389346D01*
X676795Y1389628D01*
X677163Y1389780D01*
X677362Y1389780D01*
X690361Y1389780D01*
X690361Y1389780D01*
D02*
G37*
G36*
X690363Y1377180D02*
X690562Y1377180D01*
X690929Y1377028D01*
X691210Y1376746D01*
X691363Y1376379D01*
X691363Y1376180D01*
X691363Y1367580D01*
X691363Y1367580D01*
X691363Y1367381D01*
X691211Y1367013D01*
X690929Y1366732D01*
X690562Y1366579D01*
X690362Y1366580D01*
X677363Y1366579D01*
X677363Y1366579D01*
X677165Y1366579D01*
X676797Y1366731D01*
X676516Y1367012D01*
X676363Y1367379D01*
X676363Y1367578D01*
X676363Y1376180D01*
X676363D01*
X676363Y1376379D01*
X676515Y1376746D01*
X676796Y1377027D01*
X677163Y1377179D01*
X677362Y1377179D01*
X690363Y1377180D01*
X690363Y1377180D01*
D02*
G37*
G36*
X685613Y1364580D02*
X687113Y1364580D01*
X687113Y1364580D01*
X687212Y1364580D01*
X687396Y1364503D01*
X687536Y1364362D01*
X687612Y1364178D01*
X687613Y1364079D01*
X687612Y1361680D01*
X687612Y1361680D01*
X687612Y1361580D01*
X687536Y1361396D01*
X687395Y1361255D01*
X687212Y1361179D01*
X687112Y1361179D01*
X685613Y1361180D01*
X685612Y1361180D01*
X685513Y1361180D01*
X685329Y1361255D01*
X685188Y1361396D01*
X685112Y1361580D01*
Y1361679D01*
X685111Y1364079D01*
Y1364079D01*
X685111Y1364178D01*
X685188Y1364363D01*
X685329Y1364504D01*
X685513Y1364580D01*
X685613Y1364580D01*
D02*
G37*
G36*
X680613D02*
X682113Y1364580D01*
X682113Y1364580D01*
X682212Y1364580D01*
X682396Y1364503D01*
X682536Y1364362D01*
X682612Y1364178D01*
X682612Y1364079D01*
X682612Y1361680D01*
X682612Y1361680D01*
X682612Y1361580D01*
X682536Y1361396D01*
X682395Y1361255D01*
X682212Y1361179D01*
X682112Y1361179D01*
X680613Y1361180D01*
X680612Y1361180D01*
X680513Y1361180D01*
X680329Y1361255D01*
X680188Y1361396D01*
X680112Y1361580D01*
Y1361679D01*
X680111Y1364079D01*
Y1364079D01*
X680111Y1364178D01*
X680188Y1364363D01*
X680329Y1364504D01*
X680513Y1364580D01*
X680613Y1364580D01*
D02*
G37*
G36*
X1959119Y1148576D02*
X1946719D01*
Y1156376D01*
Y1157376D01*
X1951919Y1163276D01*
X1959119D01*
Y1148576D01*
D02*
G37*
G36*
X1399430Y483220D02*
X1390730D01*
Y491920D01*
X1399430D01*
Y483220D01*
D02*
G37*
G36*
X1388730D02*
X1380030D01*
Y491920D01*
X1388730D01*
Y483220D01*
D02*
G37*
G36*
X1378030D02*
X1369330D01*
Y491920D01*
X1378030D01*
Y483220D01*
D02*
G37*
G36*
X1399430Y472520D02*
X1390730D01*
Y481220D01*
X1399430D01*
Y472520D01*
D02*
G37*
G36*
X1388730D02*
X1380030D01*
Y481220D01*
X1388730D01*
Y472520D01*
D02*
G37*
G36*
X1378030D02*
X1369330D01*
Y481220D01*
X1378030D01*
Y472520D01*
D02*
G37*
G36*
X1399430Y461820D02*
X1390730D01*
Y470520D01*
X1399430D01*
Y461820D01*
D02*
G37*
G36*
X1388730D02*
X1380030D01*
Y470520D01*
X1388730D01*
Y461820D01*
D02*
G37*
G36*
X1378030D02*
X1369330D01*
Y470520D01*
X1378030D01*
Y461820D01*
D02*
G37*
D30*
X1952916Y1256870D02*
D03*
X1870917D02*
D03*
Y1155871D02*
D03*
D31*
X1917010Y1201977D02*
D03*
X1917016Y1212970D02*
D03*
X1932810Y1201977D02*
D03*
X1932816Y1212970D02*
D03*
Y1247770D02*
D03*
X1932810Y1236777D02*
D03*
X1917016Y1247770D02*
D03*
X1917010Y1236777D02*
D03*
D32*
X1890567Y1211679D02*
D03*
X1880266D02*
D03*
X1890567Y1227479D02*
D03*
X1880266D02*
D03*
D33*
X1914110Y1179127D02*
D03*
Y1167627D02*
D03*
D34*
X1892617Y1246979D02*
D03*
X1884617D02*
D03*
D35*
X781273Y1547080D02*
D03*
X1488810Y1412611D02*
D03*
D36*
X797273Y1547080D02*
D03*
X1683537Y1410293D02*
D03*
X1699536D02*
D03*
X1504810Y1412611D02*
D03*
X1821399Y1386027D02*
D03*
Y1403026D02*
D03*
X1804400D02*
D03*
Y1386027D02*
D03*
D37*
X797273Y1563080D02*
D03*
X1683537Y1426293D02*
D03*
X1699536D02*
D03*
X1504810Y1396611D02*
D03*
D38*
X781273Y1563080D02*
D03*
X1488810Y1396611D02*
D03*
D39*
X1594012Y1069117D02*
D03*
X1564911Y1096883D02*
D03*
X1623111D02*
D03*
D40*
Y1069123D02*
D03*
X1564911D02*
D03*
X1594012Y1096876D02*
D03*
D41*
X1779170Y750200D02*
D03*
D42*
X667166Y663755D02*
D03*
X751165D02*
D03*
Y431344D02*
D03*
X667166D02*
D03*
X751165Y315774D02*
D03*
X667166D02*
D03*
X667749Y547181D02*
D03*
X751749D02*
D03*
X1217063Y1759551D02*
D03*
X1301063D02*
D03*
X896864Y865037D02*
D03*
X812864D02*
D03*
X649140Y840110D02*
D03*
X565140D02*
D03*
X926016Y1884903D02*
D03*
X1010016D02*
D03*
X1494282Y890524D02*
D03*
X1410282D02*
D03*
X1578809Y1226536D02*
D03*
X1662809D02*
D03*
X1224743Y1568704D02*
D03*
X1308743D02*
D03*
D43*
X1419562Y1106960D02*
D03*
X1390606D02*
D03*
X807645Y1619364D02*
D03*
X778689D02*
D03*
X1830373Y1339193D02*
D03*
X1801417D02*
D03*
X1026838Y887608D02*
D03*
X1055794D02*
D03*
X1026584Y816234D02*
D03*
X1055540D02*
D03*
X1026838Y852048D02*
D03*
X1055794D02*
D03*
X744632Y1522658D02*
D03*
X715676D02*
D03*
X1419562Y1134460D02*
D03*
X1390606D02*
D03*
X1936285Y1282729D02*
D03*
X1907329D02*
D03*
X1936285Y1309148D02*
D03*
X1907329D02*
D03*
X3571630Y45856D02*
D03*
X3542674D02*
D03*
D44*
X1541940Y1410806D02*
D03*
Y1401916D02*
D03*
X1724406Y1833245D02*
D03*
Y1824355D02*
D03*
X2018665Y28575D02*
D03*
Y19685D02*
D03*
X1579372Y1413945D02*
D03*
Y1405055D02*
D03*
X1725927Y1103923D02*
D03*
Y1112813D02*
D03*
X1787259Y1231971D02*
D03*
Y1240861D02*
D03*
X668400Y1420694D02*
D03*
Y1429584D02*
D03*
X670730Y1031245D02*
D03*
Y1040135D02*
D03*
X1143974Y1187328D02*
D03*
Y1178438D02*
D03*
X1144186Y1026927D02*
D03*
Y1018037D02*
D03*
X1099101Y958465D02*
D03*
Y949575D02*
D03*
X963042Y736645D02*
D03*
Y727755D02*
D03*
X1444223Y1449047D02*
D03*
Y1457937D02*
D03*
X1903229Y1400088D02*
D03*
Y1408978D02*
D03*
X1853820Y1151631D02*
D03*
Y1160521D02*
D03*
X2729874Y54365D02*
D03*
Y45475D02*
D03*
X2661294Y54365D02*
D03*
Y45475D02*
D03*
X2587634Y54365D02*
D03*
Y45475D02*
D03*
X2516514Y54365D02*
D03*
Y45475D02*
D03*
X2445394Y54365D02*
D03*
Y45475D02*
D03*
X2374274Y54365D02*
D03*
Y45475D02*
D03*
X2303154Y54365D02*
D03*
Y45475D02*
D03*
X2232034Y54365D02*
D03*
Y45475D02*
D03*
X2160914Y54365D02*
D03*
Y45475D02*
D03*
X2089794Y54365D02*
D03*
Y45475D02*
D03*
X2018674Y54365D02*
D03*
Y45475D02*
D03*
X3395100Y54365D02*
D03*
Y45475D02*
D03*
X3323980Y54365D02*
D03*
Y45475D02*
D03*
X3265560Y54365D02*
D03*
Y45475D02*
D03*
X3207140Y54365D02*
D03*
Y45475D02*
D03*
X3148720Y54365D02*
D03*
Y45475D02*
D03*
X3090300Y54365D02*
D03*
Y45475D02*
D03*
X3032134Y54365D02*
D03*
Y45475D02*
D03*
X2915294Y54365D02*
D03*
Y45475D02*
D03*
X2856874Y54365D02*
D03*
Y45475D02*
D03*
X2803534Y54365D02*
D03*
Y45475D02*
D03*
X4441834D02*
D03*
Y54365D02*
D03*
X4370714Y45475D02*
D03*
Y54365D02*
D03*
X4299594Y45475D02*
D03*
Y54365D02*
D03*
X4228474Y45475D02*
D03*
Y54365D02*
D03*
X4157354Y45475D02*
D03*
Y54365D02*
D03*
X4086234Y45475D02*
D03*
Y54365D02*
D03*
X4020194Y45475D02*
D03*
Y54365D02*
D03*
X3949074Y45475D02*
D03*
Y54365D02*
D03*
X3890654Y45475D02*
D03*
Y54365D02*
D03*
X3832234Y45475D02*
D03*
Y54365D02*
D03*
X3774068Y45475D02*
D03*
Y54365D02*
D03*
X3715648Y45475D02*
D03*
Y54365D02*
D03*
X1423718Y783359D02*
D03*
Y774469D02*
D03*
X1410764Y656613D02*
D03*
Y665503D02*
D03*
Y774449D02*
D03*
Y783339D02*
D03*
X1424226Y665522D02*
D03*
Y656632D02*
D03*
X1071881Y1356827D02*
D03*
Y1365717D02*
D03*
Y1338031D02*
D03*
Y1346921D02*
D03*
X928625Y1422613D02*
D03*
Y1413723D02*
D03*
X1061975Y1394419D02*
D03*
Y1403309D02*
D03*
X1072135Y1394419D02*
D03*
Y1403309D02*
D03*
X1061975Y1375623D02*
D03*
Y1384513D02*
D03*
X1072135Y1375623D02*
D03*
Y1384513D02*
D03*
X1061975Y1338031D02*
D03*
Y1346921D02*
D03*
Y1356827D02*
D03*
Y1365717D02*
D03*
X939040Y1422864D02*
D03*
Y1413974D02*
D03*
X1062230Y1441155D02*
D03*
Y1432265D02*
D03*
X1061975Y1422356D02*
D03*
Y1413466D02*
D03*
X939040Y1351493D02*
D03*
Y1360383D02*
D03*
Y1370289D02*
D03*
Y1379179D02*
D03*
X939166Y1441663D02*
D03*
Y1432773D02*
D03*
X939040Y1389085D02*
D03*
Y1397975D02*
D03*
X1724290Y1755267D02*
D03*
Y1764157D02*
D03*
X1852422Y1809877D02*
D03*
Y1800987D02*
D03*
X1852422Y1782191D02*
D03*
Y1791081D02*
D03*
X1800858Y1609471D02*
D03*
Y1618361D02*
D03*
X1803398Y1525397D02*
D03*
Y1516507D02*
D03*
X1810766Y1602988D02*
D03*
Y1611878D02*
D03*
X1813306Y1523619D02*
D03*
Y1532509D02*
D03*
X1528999Y1554353D02*
D03*
Y1563243D02*
D03*
X1519091Y1554353D02*
D03*
Y1563243D02*
D03*
X1669542Y1736625D02*
D03*
Y1745515D02*
D03*
X1699076Y1736625D02*
D03*
Y1745515D02*
D03*
X1835390Y1612896D02*
D03*
Y1621786D02*
D03*
X1849256Y1583973D02*
D03*
Y1592863D02*
D03*
X1877963Y1592734D02*
D03*
Y1583844D02*
D03*
X1849256Y1551940D02*
D03*
Y1543050D02*
D03*
X1856994Y1522652D02*
D03*
Y1513762D02*
D03*
X1691913Y1520259D02*
D03*
Y1511369D02*
D03*
X1691861Y1616610D02*
D03*
Y1607720D02*
D03*
X1830103Y1733105D02*
D03*
Y1724215D02*
D03*
X1830107Y1828498D02*
D03*
Y1819608D02*
D03*
X1763417Y1739363D02*
D03*
Y1748253D02*
D03*
X1753491Y1734363D02*
D03*
Y1743253D02*
D03*
X1810900Y1838430D02*
D03*
Y1847320D02*
D03*
X1811485Y1742912D02*
D03*
Y1751802D02*
D03*
X1763163Y1849283D02*
D03*
Y1840394D02*
D03*
X1753237Y1854284D02*
D03*
Y1845394D02*
D03*
X1639784Y1702871D02*
D03*
Y1711761D02*
D03*
X1641132Y1886159D02*
D03*
Y1877269D02*
D03*
X1636498Y1865501D02*
D03*
Y1856611D02*
D03*
X1646498Y1865501D02*
D03*
Y1856611D02*
D03*
X1644909Y1721824D02*
D03*
Y1730714D02*
D03*
X1635001Y1721824D02*
D03*
Y1730714D02*
D03*
X1714500Y780415D02*
D03*
Y771525D02*
D03*
X1724660Y780415D02*
D03*
Y771525D02*
D03*
X1734820D02*
D03*
Y780415D02*
D03*
Y735965D02*
D03*
Y727075D02*
D03*
X1724660Y735965D02*
D03*
Y727075D02*
D03*
X1819910Y540385D02*
D03*
Y531495D02*
D03*
X1819910Y512445D02*
D03*
Y521335D02*
D03*
X1221740Y104775D02*
D03*
Y113665D02*
D03*
X1300480Y104775D02*
D03*
Y113665D02*
D03*
X1259840Y374015D02*
D03*
Y365125D02*
D03*
X1167130Y189230D02*
D03*
Y180340D02*
D03*
X1452880Y170815D02*
D03*
Y179705D02*
D03*
X1442720D02*
D03*
Y170815D02*
D03*
X1432560D02*
D03*
Y179705D02*
D03*
X1541780Y212725D02*
D03*
Y221615D02*
D03*
X1551940D02*
D03*
Y212725D02*
D03*
X1531620D02*
D03*
Y221615D02*
D03*
X1765300Y183515D02*
D03*
Y174625D02*
D03*
X1709420Y219075D02*
D03*
Y227965D02*
D03*
X1699260Y219075D02*
D03*
Y227965D02*
D03*
X1609090Y175895D02*
D03*
Y167005D02*
D03*
X1689100Y227965D02*
D03*
Y219075D02*
D03*
X1891030Y339725D02*
D03*
Y330835D02*
D03*
X1878330D02*
D03*
Y339725D02*
D03*
X1551940Y244475D02*
D03*
Y253365D02*
D03*
X1341120Y104775D02*
D03*
Y113665D02*
D03*
X1695450Y244475D02*
D03*
Y253365D02*
D03*
X1878330Y145415D02*
D03*
Y154305D02*
D03*
X1891030D02*
D03*
Y145415D02*
D03*
X1369060Y525145D02*
D03*
Y516255D02*
D03*
X1360170D02*
D03*
Y525145D02*
D03*
X1377950Y516255D02*
D03*
Y525145D02*
D03*
X1351280D02*
D03*
Y516255D02*
D03*
X1380490Y437515D02*
D03*
Y428625D02*
D03*
X1389380D02*
D03*
Y437515D02*
D03*
X1680210Y512445D02*
D03*
Y521335D02*
D03*
X1680210Y540385D02*
D03*
Y531495D02*
D03*
X1760117Y1373246D02*
D03*
Y1364356D02*
D03*
X1697990Y1067435D02*
D03*
Y1058545D02*
D03*
X674454Y76081D02*
D03*
Y84971D02*
D03*
X706007Y75977D02*
D03*
Y84867D02*
D03*
X615947Y75146D02*
D03*
Y84036D02*
D03*
X642851Y75417D02*
D03*
Y84307D02*
D03*
D45*
X1672209Y1839976D02*
D03*
X1681099D02*
D03*
X1703959Y1844192D02*
D03*
X1712849D02*
D03*
X791239Y1638344D02*
D03*
X782349D02*
D03*
X1849094Y1316642D02*
D03*
X1840204D02*
D03*
X1334770Y453628D02*
D03*
X1343660D02*
D03*
X677268Y1410786D02*
D03*
X668378D02*
D03*
X637075Y1044580D02*
D03*
X645965D02*
D03*
X541825Y939170D02*
D03*
X532935D02*
D03*
X612945Y939170D02*
D03*
X621835D02*
D03*
X647870Y939171D02*
D03*
X638980D02*
D03*
X565955Y939170D02*
D03*
X574845D02*
D03*
X333545Y976000D02*
D03*
X324655D02*
D03*
X333545Y988700D02*
D03*
X324655D02*
D03*
X333545Y937900D02*
D03*
X324655D02*
D03*
X333545Y925200D02*
D03*
X324655D02*
D03*
X333545Y963300D02*
D03*
X324655D02*
D03*
X324655Y950600D02*
D03*
X333545D02*
D03*
X333545Y1026800D02*
D03*
X324655D02*
D03*
X333545Y1052200D02*
D03*
X324655D02*
D03*
Y1039500D02*
D03*
X333545D02*
D03*
Y1077600D02*
D03*
X324655D02*
D03*
X333545Y1064900D02*
D03*
X324655D02*
D03*
X333545Y1014100D02*
D03*
X324655D02*
D03*
X333545Y1001400D02*
D03*
X324655D02*
D03*
X418635Y953140D02*
D03*
X409745D02*
D03*
X418635Y979810D02*
D03*
X409745D02*
D03*
X418635Y997590D02*
D03*
X409745D02*
D03*
X418635Y944250D02*
D03*
X409745D02*
D03*
Y1015370D02*
D03*
X418635D02*
D03*
Y1050930D02*
D03*
X409745D02*
D03*
X418635Y926470D02*
D03*
X409745D02*
D03*
X418828Y1086494D02*
D03*
X409938D02*
D03*
X409745Y1068710D02*
D03*
X418635D02*
D03*
X409745Y1033150D02*
D03*
X418635D02*
D03*
Y962030D02*
D03*
X409745D02*
D03*
X545635Y1044580D02*
D03*
X554525D02*
D03*
X564685D02*
D03*
X573575D02*
D03*
X892091Y1241684D02*
D03*
X883201D02*
D03*
X908193Y958453D02*
D03*
X917083D02*
D03*
X963042Y695878D02*
D03*
X954152D02*
D03*
X966599Y1333078D02*
D03*
X957709D02*
D03*
X741035Y1504424D02*
D03*
X732145D02*
D03*
X1212723Y1425702D02*
D03*
X1203833D02*
D03*
X1802739Y1452890D02*
D03*
X1793849D02*
D03*
X1821789D02*
D03*
X1812899D02*
D03*
X1865364Y1132276D02*
D03*
X1856474D02*
D03*
X1884414D02*
D03*
X1875524D02*
D03*
X1930029Y1137737D02*
D03*
X1938919D02*
D03*
X879928Y109107D02*
D03*
X888818D02*
D03*
X879928Y119267D02*
D03*
X888818D02*
D03*
X764104Y108599D02*
D03*
X772994D02*
D03*
X763850Y118759D02*
D03*
X772740D02*
D03*
X860370Y74309D02*
D03*
X869260D02*
D03*
X974924Y72531D02*
D03*
X983814D02*
D03*
X1048132Y1333078D02*
D03*
X1039242D02*
D03*
X1014104D02*
D03*
X1022994D02*
D03*
X976507D02*
D03*
X985397D02*
D03*
X1004196D02*
D03*
X995306D02*
D03*
X1736217Y1802384D02*
D03*
X1727327D02*
D03*
X1735963Y1782064D02*
D03*
X1727073D02*
D03*
X1866773Y1842890D02*
D03*
X1857883D02*
D03*
X1858137Y1832982D02*
D03*
X1867027D02*
D03*
X1890395Y1747012D02*
D03*
X1899285D02*
D03*
X1913192Y1801878D02*
D03*
X1904302D02*
D03*
X1913255Y1791970D02*
D03*
X1904365D02*
D03*
X1899285Y1756918D02*
D03*
X1890395D02*
D03*
X1858146Y1567434D02*
D03*
X1849256D02*
D03*
X1777619D02*
D03*
X1768729D02*
D03*
X1642926Y1555757D02*
D03*
X1651817D02*
D03*
X1528999Y1523492D02*
D03*
X1520109D02*
D03*
X1634744Y1508252D02*
D03*
X1625854D02*
D03*
X1634871Y1498344D02*
D03*
X1625981D02*
D03*
X1630045Y1632106D02*
D03*
X1621155D02*
D03*
X1586777Y1630469D02*
D03*
X1595667D02*
D03*
X1629791Y1622198D02*
D03*
X1620901D02*
D03*
X1343457Y1545844D02*
D03*
X1352346D02*
D03*
X1538351Y1622198D02*
D03*
X1547241D02*
D03*
X1537589Y1503521D02*
D03*
X1546479D02*
D03*
X1537589Y1493612D02*
D03*
X1546479D02*
D03*
X1826333Y1602988D02*
D03*
X1835223D02*
D03*
X1859165Y1592734D02*
D03*
X1868055D02*
D03*
X1859165Y1543050D02*
D03*
X1868055D02*
D03*
X1848104Y1532560D02*
D03*
X1856994D02*
D03*
X1827476D02*
D03*
X1836366D02*
D03*
X1721115Y1521405D02*
D03*
X1730005D02*
D03*
X1721115Y1510117D02*
D03*
X1730005D02*
D03*
X1701821Y1520715D02*
D03*
X1710712D02*
D03*
X1701821Y1510806D02*
D03*
X1710712D02*
D03*
X1721198Y1617502D02*
D03*
X1730088D02*
D03*
X1721063Y1606214D02*
D03*
X1729953D02*
D03*
X1701769Y1607166D02*
D03*
X1710659D02*
D03*
X1701769Y1617074D02*
D03*
X1710659D02*
D03*
X1791606Y1848844D02*
D03*
X1800497D02*
D03*
X1791606Y1837542D02*
D03*
X1800497D02*
D03*
X1820808Y1838407D02*
D03*
X1829698D02*
D03*
X1820808Y1848336D02*
D03*
X1829698D02*
D03*
X1586566Y1789580D02*
D03*
X1595456D02*
D03*
X1586506Y1769763D02*
D03*
X1595396D02*
D03*
X1586628Y1799488D02*
D03*
X1595518D02*
D03*
X1586506Y1779671D02*
D03*
X1595396D02*
D03*
X1586689Y1809397D02*
D03*
X1595580D02*
D03*
X1586628Y1819305D02*
D03*
X1595518D02*
D03*
X1791861Y1753200D02*
D03*
X1800751D02*
D03*
X1821393Y1752922D02*
D03*
X1830283D02*
D03*
X1791861Y1741903D02*
D03*
X1800750D02*
D03*
X1821470Y1743014D02*
D03*
X1830360D02*
D03*
X1566646Y1813920D02*
D03*
X1575536D02*
D03*
X1566584Y1794691D02*
D03*
X1575474D02*
D03*
X1566462Y1774508D02*
D03*
X1575352D02*
D03*
X782467Y1592177D02*
D03*
X773577D02*
D03*
X1838325Y736600D02*
D03*
X1829435D02*
D03*
Y748030D02*
D03*
X1838325D02*
D03*
X1772285Y807720D02*
D03*
X1781175D02*
D03*
X1835785Y800100D02*
D03*
X1826895D02*
D03*
X1838325Y698500D02*
D03*
X1829435D02*
D03*
X1772285Y693420D02*
D03*
X1781175D02*
D03*
X1148715Y180340D02*
D03*
X1157605D02*
D03*
X1784985Y265430D02*
D03*
X1776095D02*
D03*
X1543685Y306070D02*
D03*
X1552575D02*
D03*
X1543685Y293370D02*
D03*
X1552575D02*
D03*
X1543685Y281940D02*
D03*
X1552575D02*
D03*
X1543685Y266700D02*
D03*
X1552575D02*
D03*
X1687195Y306070D02*
D03*
X1696085D02*
D03*
X1687195Y293370D02*
D03*
X1696085D02*
D03*
X1687195Y280670D02*
D03*
X1696085D02*
D03*
X1687195Y267970D02*
D03*
X1696085D02*
D03*
X1467485Y462280D02*
D03*
X1476375D02*
D03*
X1402715Y525780D02*
D03*
X1393825D02*
D03*
X1345184Y480620D02*
D03*
X1336294D02*
D03*
Y489510D02*
D03*
X1345184D02*
D03*
X1430655Y501650D02*
D03*
X1421765D02*
D03*
X1336294Y471730D02*
D03*
X1345184D02*
D03*
X1653861Y1411806D02*
D03*
X1644971D02*
D03*
X1163955Y297180D02*
D03*
X1155065D02*
D03*
X1360118Y1757773D02*
D03*
X1351228D02*
D03*
D46*
X1858647Y1405097D02*
D03*
Y1434053D02*
D03*
X1885065Y1405354D02*
D03*
Y1434310D02*
D03*
X1196216Y726866D02*
D03*
Y697910D02*
D03*
X1272584Y1266438D02*
D03*
Y1237482D02*
D03*
X1560962Y1417339D02*
D03*
Y1388383D02*
D03*
X1836789Y1248311D02*
D03*
Y1277267D02*
D03*
X1808962Y1248351D02*
D03*
Y1277307D02*
D03*
X1462387Y1476479D02*
D03*
Y1447523D02*
D03*
X1494790Y461518D02*
D03*
Y432562D02*
D03*
X1449070Y461518D02*
D03*
Y432562D02*
D03*
X1741738Y1345813D02*
D03*
Y1374769D02*
D03*
X1715153Y1345739D02*
D03*
Y1374695D02*
D03*
X1706930Y1093922D02*
D03*
Y1122878D02*
D03*
D47*
X706052Y45497D02*
D03*
Y28997D02*
D03*
X674510Y44713D02*
D03*
Y28213D02*
D03*
X644374Y45440D02*
D03*
Y28940D02*
D03*
X614930Y46349D02*
D03*
Y29849D02*
D03*
D48*
X728282Y1405960D02*
D03*
Y1387926D02*
D03*
X1839329Y1213175D02*
D03*
Y1196157D02*
D03*
X704912Y1406846D02*
D03*
Y1423864D02*
D03*
X852069Y1161039D02*
D03*
Y1178057D02*
D03*
X1150451Y1139449D02*
D03*
Y1156467D02*
D03*
X1150536Y1069853D02*
D03*
Y1052835D02*
D03*
X1151044Y978667D02*
D03*
Y995685D02*
D03*
X1052510Y952077D02*
D03*
Y935059D02*
D03*
X1150451Y1204219D02*
D03*
Y1221237D02*
D03*
X1469390Y157861D02*
D03*
Y174879D02*
D03*
X1515110Y199771D02*
D03*
Y216789D02*
D03*
X1758950Y248031D02*
D03*
Y265049D02*
D03*
D49*
X1867669Y1206376D02*
D03*
Y1197376D02*
D03*
Y1188376D02*
D03*
Y1179376D02*
D03*
Y1170376D02*
D03*
Y1215376D02*
D03*
Y1224376D02*
D03*
Y1233376D02*
D03*
Y1242376D02*
D03*
X1956169D02*
D03*
Y1233376D02*
D03*
Y1224376D02*
D03*
Y1215376D02*
D03*
Y1170376D02*
D03*
Y1179376D02*
D03*
Y1188376D02*
D03*
Y1197376D02*
D03*
Y1206376D02*
D03*
D50*
X1911919Y1152126D02*
D03*
X1920919D02*
D03*
X1929919D02*
D03*
X1938919D02*
D03*
X1902919D02*
D03*
X1893919D02*
D03*
X1884919D02*
D03*
Y1260626D02*
D03*
X1893919D02*
D03*
X1902919D02*
D03*
X1938919D02*
D03*
X1929919D02*
D03*
X1920919D02*
D03*
X1911919D02*
D03*
D51*
X765273Y1548580D02*
D03*
Y1555081D02*
D03*
Y1561580D02*
D03*
Y1568080D02*
D03*
X813273D02*
D03*
Y1561580D02*
D03*
Y1555081D02*
D03*
Y1548580D02*
D03*
Y1542080D02*
D03*
X765273D02*
D03*
X1715536Y1405306D02*
D03*
Y1411806D02*
D03*
Y1418307D02*
D03*
Y1424806D02*
D03*
Y1431306D02*
D03*
X1667537Y1411806D02*
D03*
Y1405306D02*
D03*
Y1431306D02*
D03*
Y1424806D02*
D03*
Y1418307D02*
D03*
X1472810Y1417611D02*
D03*
Y1411111D02*
D03*
Y1404611D02*
D03*
Y1398111D02*
D03*
Y1391611D02*
D03*
X1520810Y1411111D02*
D03*
Y1417611D02*
D03*
Y1391611D02*
D03*
Y1398111D02*
D03*
Y1404611D02*
D03*
D52*
X789273Y1579080D02*
D03*
X795773D02*
D03*
X802272D02*
D03*
X776273D02*
D03*
X782772D02*
D03*
X802272Y1531080D02*
D03*
X795773D02*
D03*
X789273D02*
D03*
X782772D02*
D03*
X776273D02*
D03*
X1704536Y1394307D02*
D03*
Y1442307D02*
D03*
X1698036D02*
D03*
X1691537D02*
D03*
X1685037D02*
D03*
X1678536D02*
D03*
Y1394307D02*
D03*
X1685037D02*
D03*
X1691537D02*
D03*
X1698036D02*
D03*
X1483810Y1428611D02*
D03*
Y1380611D02*
D03*
X1490310D02*
D03*
X1496810D02*
D03*
X1503310D02*
D03*
X1509810D02*
D03*
Y1428611D02*
D03*
X1503310D02*
D03*
X1496810D02*
D03*
X1490310D02*
D03*
X1825898Y1370534D02*
D03*
X1819398D02*
D03*
X1812899D02*
D03*
X1806399D02*
D03*
X1799899D02*
D03*
Y1418534D02*
D03*
X1806399D02*
D03*
X1812899D02*
D03*
X1819398D02*
D03*
X1825898D02*
D03*
D53*
X1419310Y1553464D02*
D03*
Y1637464D02*
D03*
X1102822Y1803332D02*
D03*
Y1719333D02*
D03*
X1445171Y1856071D02*
D03*
Y1772071D02*
D03*
D54*
X1154560Y646348D02*
D03*
Y697148D02*
D03*
Y773348D02*
D03*
X995810Y646348D02*
D03*
Y697148D02*
D03*
Y671748D02*
D03*
Y747948D02*
D03*
Y722548D02*
D03*
X1027560Y773348D02*
D03*
X995810D02*
D03*
X1004109Y1674207D02*
D03*
Y1725007D02*
D03*
Y1801207D02*
D03*
X845359Y1674207D02*
D03*
Y1725007D02*
D03*
Y1699607D02*
D03*
Y1775807D02*
D03*
Y1750407D02*
D03*
X877109Y1801207D02*
D03*
X845359D02*
D03*
X1444334Y1175960D02*
D03*
X1349084D02*
D03*
X1507834Y1207710D02*
D03*
Y1175960D02*
D03*
Y1271210D02*
D03*
X1349084Y1302960D02*
D03*
X1507834Y1239460D02*
D03*
Y1302960D02*
D03*
X1317334Y1175960D02*
D03*
Y1271210D02*
D03*
Y1302960D02*
D03*
D55*
X781593Y1211907D02*
D03*
Y1202407D02*
D03*
Y1192907D02*
D03*
X807593D02*
D03*
Y1211907D02*
D03*
X1602358Y795904D02*
D03*
Y786404D02*
D03*
Y776905D02*
D03*
X1628358D02*
D03*
Y795904D02*
D03*
D56*
X1744000Y890500D02*
D03*
Y939500D02*
D03*
D57*
X669862Y1388180D02*
D03*
Y1383179D02*
D03*
Y1378180D02*
D03*
Y1373179D02*
D03*
Y1368180D02*
D03*
X697862Y1388180D02*
D03*
Y1383179D02*
D03*
Y1378180D02*
D03*
Y1373179D02*
D03*
Y1368180D02*
D03*
D58*
X646010Y1355704D02*
D03*
X631023D02*
D03*
X646136Y1373647D02*
D03*
X631151D02*
D03*
X646010Y1392219D02*
D03*
X631023D02*
D03*
X646010Y1410477D02*
D03*
X631023D02*
D03*
X1828012Y1438807D02*
D03*
X1813026D02*
D03*
D59*
X668378Y1401385D02*
D03*
X673966D02*
D03*
D60*
X555541Y921390D02*
D03*
X572559D02*
D03*
X613961Y921390D02*
D03*
X630979D02*
D03*
X320591Y1101730D02*
D03*
X337609D02*
D03*
X560621Y1062360D02*
D03*
X577639D02*
D03*
X972863Y952378D02*
D03*
X989881D02*
D03*
X876343Y949076D02*
D03*
X893361D02*
D03*
X1041951Y1248288D02*
D03*
X1058969D02*
D03*
X994575Y1248336D02*
D03*
X977557D02*
D03*
X2978667Y47380D02*
D03*
X2996701D02*
D03*
X3662181Y47888D02*
D03*
X3679199D02*
D03*
D61*
X653500Y1016001D02*
D03*
Y1008000D02*
D03*
Y976000D02*
D03*
X645500Y968000D02*
D03*
X637500Y1016001D02*
D03*
Y1008000D02*
D03*
Y968000D02*
D03*
X621500Y1008000D02*
D03*
X613500Y1016001D02*
D03*
Y968000D02*
D03*
X605500Y1016001D02*
D03*
X597500Y1008000D02*
D03*
Y976000D02*
D03*
Y968000D02*
D03*
X533500Y960000D02*
D03*
Y968000D02*
D03*
Y976000D02*
D03*
Y1008000D02*
D03*
Y1016001D02*
D03*
Y1024000D02*
D03*
X541500Y960000D02*
D03*
Y968000D02*
D03*
Y976000D02*
D03*
Y1008000D02*
D03*
Y1016001D02*
D03*
Y1024000D02*
D03*
X549500Y960000D02*
D03*
Y968000D02*
D03*
Y976000D02*
D03*
Y1008000D02*
D03*
Y1016001D02*
D03*
Y1024000D02*
D03*
X557500Y960000D02*
D03*
Y968000D02*
D03*
Y976000D02*
D03*
Y1008000D02*
D03*
Y1016001D02*
D03*
Y1024000D02*
D03*
X565500Y960000D02*
D03*
Y968000D02*
D03*
Y976000D02*
D03*
Y1008000D02*
D03*
Y1016001D02*
D03*
Y1024000D02*
D03*
X573500Y960000D02*
D03*
Y968000D02*
D03*
Y976000D02*
D03*
Y1008000D02*
D03*
Y1016001D02*
D03*
Y1024000D02*
D03*
X581500Y960000D02*
D03*
Y968000D02*
D03*
Y976000D02*
D03*
Y1008000D02*
D03*
Y1016001D02*
D03*
Y1024000D02*
D03*
X589500Y960000D02*
D03*
Y968000D02*
D03*
Y976000D02*
D03*
Y1008000D02*
D03*
Y1016001D02*
D03*
Y1024000D02*
D03*
X597500Y960000D02*
D03*
Y1016001D02*
D03*
Y1024000D02*
D03*
X605500Y960000D02*
D03*
Y968000D02*
D03*
Y976000D02*
D03*
Y1008000D02*
D03*
Y1024000D02*
D03*
X613500Y960000D02*
D03*
Y976000D02*
D03*
Y1008000D02*
D03*
Y1024000D02*
D03*
X621500Y960000D02*
D03*
Y968000D02*
D03*
Y976000D02*
D03*
Y1016001D02*
D03*
Y1024000D02*
D03*
X629500Y960000D02*
D03*
Y968000D02*
D03*
Y976000D02*
D03*
Y1008000D02*
D03*
Y1016001D02*
D03*
Y1024000D02*
D03*
X637500Y960000D02*
D03*
Y976000D02*
D03*
Y1024000D02*
D03*
X645500Y960000D02*
D03*
Y976000D02*
D03*
Y1008000D02*
D03*
Y1016001D02*
D03*
Y1024000D02*
D03*
X653500Y960000D02*
D03*
Y968000D02*
D03*
Y1024000D02*
D03*
X877510Y1225000D02*
D03*
Y1215000D02*
D03*
Y1195000D02*
D03*
Y1205000D02*
D03*
Y1185000D02*
D03*
Y1175000D02*
D03*
Y1155000D02*
D03*
Y1145000D02*
D03*
Y1135000D02*
D03*
Y1115000D02*
D03*
Y1125000D02*
D03*
Y1165000D02*
D03*
Y1095001D02*
D03*
Y1085001D02*
D03*
Y1075001D02*
D03*
Y1065001D02*
D03*
Y1045001D02*
D03*
Y995001D02*
D03*
Y1015001D02*
D03*
Y1025001D02*
D03*
Y1035001D02*
D03*
Y985001D02*
D03*
Y975000D02*
D03*
X887510Y1225000D02*
D03*
Y1215000D02*
D03*
Y1205000D02*
D03*
Y1195000D02*
D03*
Y1185000D02*
D03*
Y1175000D02*
D03*
Y1165000D02*
D03*
Y1155000D02*
D03*
Y1145000D02*
D03*
Y1135000D02*
D03*
Y1125000D02*
D03*
Y1115000D02*
D03*
Y1105001D02*
D03*
Y1095001D02*
D03*
Y1085001D02*
D03*
Y1075001D02*
D03*
Y1065001D02*
D03*
Y1055001D02*
D03*
Y1045001D02*
D03*
Y1035001D02*
D03*
Y1025001D02*
D03*
Y1015001D02*
D03*
Y995001D02*
D03*
Y985001D02*
D03*
Y975000D02*
D03*
X897510Y1225000D02*
D03*
Y1215000D02*
D03*
Y1205000D02*
D03*
Y1195000D02*
D03*
Y1185000D02*
D03*
Y1175000D02*
D03*
Y1165000D02*
D03*
Y1155000D02*
D03*
Y1145000D02*
D03*
Y1135000D02*
D03*
Y1125000D02*
D03*
Y1115000D02*
D03*
Y1105001D02*
D03*
Y1095001D02*
D03*
Y1085001D02*
D03*
Y1075001D02*
D03*
Y1065001D02*
D03*
Y1045001D02*
D03*
Y1035001D02*
D03*
Y1025001D02*
D03*
Y1015001D02*
D03*
Y1005001D02*
D03*
Y995001D02*
D03*
Y985001D02*
D03*
Y975000D02*
D03*
X907510Y1225000D02*
D03*
Y1215000D02*
D03*
Y1205000D02*
D03*
Y1195000D02*
D03*
Y1185000D02*
D03*
Y1175000D02*
D03*
Y1165000D02*
D03*
Y1155000D02*
D03*
Y1145000D02*
D03*
Y1135000D02*
D03*
Y1125000D02*
D03*
Y1115000D02*
D03*
Y1105001D02*
D03*
Y1095001D02*
D03*
Y1085001D02*
D03*
Y1075001D02*
D03*
Y1065001D02*
D03*
Y1055001D02*
D03*
Y1045001D02*
D03*
Y1035001D02*
D03*
Y1025001D02*
D03*
Y1015001D02*
D03*
Y1005001D02*
D03*
Y995001D02*
D03*
Y985001D02*
D03*
Y975000D02*
D03*
X917510Y1225000D02*
D03*
Y1215000D02*
D03*
Y1205000D02*
D03*
Y1195000D02*
D03*
Y1185000D02*
D03*
Y1175000D02*
D03*
Y1165000D02*
D03*
Y1155000D02*
D03*
Y1145000D02*
D03*
Y1135000D02*
D03*
Y1125000D02*
D03*
Y1115000D02*
D03*
Y1105001D02*
D03*
Y1095001D02*
D03*
Y1085001D02*
D03*
Y1075001D02*
D03*
Y1065001D02*
D03*
Y1055001D02*
D03*
Y1045001D02*
D03*
Y1035001D02*
D03*
Y1025001D02*
D03*
Y1015001D02*
D03*
Y1005001D02*
D03*
Y995001D02*
D03*
Y985001D02*
D03*
Y975000D02*
D03*
X927510Y1225000D02*
D03*
Y1215000D02*
D03*
Y1205000D02*
D03*
Y1195000D02*
D03*
Y1185000D02*
D03*
Y1175000D02*
D03*
Y1165000D02*
D03*
Y1155000D02*
D03*
Y1145000D02*
D03*
Y1135000D02*
D03*
Y1125000D02*
D03*
Y1115000D02*
D03*
Y1105001D02*
D03*
Y1095001D02*
D03*
Y1085001D02*
D03*
Y1075001D02*
D03*
Y1065001D02*
D03*
Y1055001D02*
D03*
Y1045001D02*
D03*
Y1035001D02*
D03*
Y1025001D02*
D03*
Y1015001D02*
D03*
Y1005001D02*
D03*
Y995001D02*
D03*
Y985001D02*
D03*
Y975000D02*
D03*
X937510Y1225000D02*
D03*
Y1215000D02*
D03*
Y1205000D02*
D03*
Y1195000D02*
D03*
Y1185000D02*
D03*
Y1175000D02*
D03*
Y1165000D02*
D03*
Y1155000D02*
D03*
Y1145000D02*
D03*
Y1135000D02*
D03*
Y1125000D02*
D03*
Y1115000D02*
D03*
Y1105001D02*
D03*
Y1095001D02*
D03*
Y1085001D02*
D03*
Y1075001D02*
D03*
Y1065001D02*
D03*
Y1055001D02*
D03*
Y1045001D02*
D03*
Y1035001D02*
D03*
Y1025001D02*
D03*
Y1015001D02*
D03*
Y1005001D02*
D03*
Y995001D02*
D03*
Y985001D02*
D03*
Y975000D02*
D03*
X947510Y1225000D02*
D03*
Y1215000D02*
D03*
Y1205000D02*
D03*
Y1195000D02*
D03*
Y1185000D02*
D03*
Y1175000D02*
D03*
Y1165000D02*
D03*
Y1155000D02*
D03*
Y1145000D02*
D03*
Y1135000D02*
D03*
Y1125000D02*
D03*
Y1115000D02*
D03*
Y1105001D02*
D03*
Y1095001D02*
D03*
Y1085001D02*
D03*
Y1075001D02*
D03*
Y1065001D02*
D03*
Y1055001D02*
D03*
Y1045001D02*
D03*
Y1035001D02*
D03*
Y1025001D02*
D03*
Y1015001D02*
D03*
Y1005001D02*
D03*
Y995001D02*
D03*
Y985001D02*
D03*
Y975000D02*
D03*
X957510Y1225000D02*
D03*
Y1215000D02*
D03*
Y1205000D02*
D03*
Y1195000D02*
D03*
Y1185000D02*
D03*
Y1175000D02*
D03*
Y1165000D02*
D03*
Y1155000D02*
D03*
Y1145000D02*
D03*
Y1135000D02*
D03*
Y1125000D02*
D03*
Y1115000D02*
D03*
Y1105001D02*
D03*
Y1095001D02*
D03*
Y1085001D02*
D03*
Y1075001D02*
D03*
Y1065001D02*
D03*
Y1055001D02*
D03*
Y1045001D02*
D03*
Y1035001D02*
D03*
Y1025001D02*
D03*
Y1015001D02*
D03*
Y1005001D02*
D03*
Y995001D02*
D03*
Y985001D02*
D03*
Y975000D02*
D03*
X967510Y1225000D02*
D03*
Y1215000D02*
D03*
Y1205000D02*
D03*
Y1195000D02*
D03*
Y1185000D02*
D03*
Y1175000D02*
D03*
Y1165000D02*
D03*
Y1155000D02*
D03*
Y1145000D02*
D03*
Y1135000D02*
D03*
Y1125000D02*
D03*
Y1115000D02*
D03*
Y1105001D02*
D03*
Y1095001D02*
D03*
Y1085001D02*
D03*
Y1075001D02*
D03*
Y1065001D02*
D03*
Y1055001D02*
D03*
Y1045001D02*
D03*
Y1035001D02*
D03*
Y1025001D02*
D03*
Y1015001D02*
D03*
Y1005001D02*
D03*
Y995001D02*
D03*
Y985001D02*
D03*
Y975000D02*
D03*
X977510Y1225000D02*
D03*
Y1215000D02*
D03*
Y1205000D02*
D03*
Y1195000D02*
D03*
Y1185000D02*
D03*
Y1175000D02*
D03*
Y1165000D02*
D03*
Y1155000D02*
D03*
Y1145000D02*
D03*
Y1135000D02*
D03*
Y1125000D02*
D03*
Y1115000D02*
D03*
Y1105001D02*
D03*
Y1095001D02*
D03*
Y1085001D02*
D03*
Y1075001D02*
D03*
Y1065001D02*
D03*
Y1055001D02*
D03*
Y1045001D02*
D03*
Y1035001D02*
D03*
Y1025001D02*
D03*
Y1015001D02*
D03*
Y1005001D02*
D03*
Y995001D02*
D03*
Y985001D02*
D03*
Y975000D02*
D03*
X987510Y1225000D02*
D03*
Y1215000D02*
D03*
Y1205000D02*
D03*
Y1195000D02*
D03*
Y1185000D02*
D03*
Y1175000D02*
D03*
Y1165000D02*
D03*
Y1155000D02*
D03*
Y1145000D02*
D03*
Y1135000D02*
D03*
Y1125000D02*
D03*
Y1115000D02*
D03*
Y1105001D02*
D03*
Y1095001D02*
D03*
Y1085001D02*
D03*
Y1075001D02*
D03*
Y1065001D02*
D03*
Y1055001D02*
D03*
Y1045001D02*
D03*
Y1035001D02*
D03*
Y1025001D02*
D03*
Y1015001D02*
D03*
Y1005001D02*
D03*
Y995001D02*
D03*
Y985001D02*
D03*
Y975000D02*
D03*
X997510Y1225000D02*
D03*
Y1215000D02*
D03*
Y1205000D02*
D03*
Y1195000D02*
D03*
Y1185000D02*
D03*
Y1175000D02*
D03*
Y1165000D02*
D03*
Y1155000D02*
D03*
Y1145000D02*
D03*
Y1135000D02*
D03*
Y1125000D02*
D03*
Y1115000D02*
D03*
Y1105001D02*
D03*
Y1095001D02*
D03*
Y1085001D02*
D03*
Y1075001D02*
D03*
Y1065001D02*
D03*
Y1055001D02*
D03*
Y1045001D02*
D03*
Y1035001D02*
D03*
Y1025001D02*
D03*
Y1015001D02*
D03*
Y1005001D02*
D03*
Y995001D02*
D03*
Y985001D02*
D03*
Y975000D02*
D03*
X1007510Y1225000D02*
D03*
Y1215000D02*
D03*
Y1205000D02*
D03*
Y1195000D02*
D03*
Y1185000D02*
D03*
Y1175000D02*
D03*
Y1165000D02*
D03*
Y1155000D02*
D03*
Y1145000D02*
D03*
Y1135000D02*
D03*
Y1125000D02*
D03*
Y1115000D02*
D03*
Y1105001D02*
D03*
Y1095001D02*
D03*
Y1085001D02*
D03*
Y1075001D02*
D03*
Y1065001D02*
D03*
Y1055001D02*
D03*
Y1045001D02*
D03*
Y1035001D02*
D03*
Y1025001D02*
D03*
Y1015001D02*
D03*
Y1005001D02*
D03*
Y995001D02*
D03*
Y985001D02*
D03*
Y975000D02*
D03*
X1017510Y1225000D02*
D03*
Y1215000D02*
D03*
Y1205000D02*
D03*
Y1195000D02*
D03*
Y1185000D02*
D03*
Y1175000D02*
D03*
Y1165000D02*
D03*
Y1155000D02*
D03*
Y1145000D02*
D03*
Y1135000D02*
D03*
Y1125000D02*
D03*
Y1115000D02*
D03*
Y1105001D02*
D03*
Y1095001D02*
D03*
Y1085001D02*
D03*
Y1075001D02*
D03*
Y1065001D02*
D03*
Y1055001D02*
D03*
Y1045001D02*
D03*
Y1035001D02*
D03*
Y1025001D02*
D03*
Y1015001D02*
D03*
Y1005001D02*
D03*
Y995001D02*
D03*
Y985001D02*
D03*
Y975000D02*
D03*
X1027510Y1225000D02*
D03*
Y1215000D02*
D03*
Y1205000D02*
D03*
Y1195000D02*
D03*
Y1185000D02*
D03*
Y1175000D02*
D03*
Y1165000D02*
D03*
Y1155000D02*
D03*
Y1145000D02*
D03*
Y1135000D02*
D03*
Y1125000D02*
D03*
Y1115000D02*
D03*
Y1105001D02*
D03*
Y1095001D02*
D03*
Y1085001D02*
D03*
Y1075001D02*
D03*
Y1065001D02*
D03*
Y1055001D02*
D03*
Y1045001D02*
D03*
Y1035001D02*
D03*
Y1025001D02*
D03*
Y1015001D02*
D03*
Y1005001D02*
D03*
Y995001D02*
D03*
Y985001D02*
D03*
Y975000D02*
D03*
X1037510Y1225000D02*
D03*
Y1215000D02*
D03*
Y1205000D02*
D03*
Y1195000D02*
D03*
Y1185000D02*
D03*
Y1175000D02*
D03*
Y1165000D02*
D03*
Y1155000D02*
D03*
Y1145000D02*
D03*
Y1135000D02*
D03*
Y1125000D02*
D03*
Y1115000D02*
D03*
Y1105001D02*
D03*
Y1095001D02*
D03*
Y1085001D02*
D03*
Y1075001D02*
D03*
Y1065001D02*
D03*
Y1055001D02*
D03*
Y1045001D02*
D03*
Y1035001D02*
D03*
Y1025001D02*
D03*
Y1015001D02*
D03*
Y1005001D02*
D03*
Y995001D02*
D03*
Y985001D02*
D03*
Y975000D02*
D03*
X1047510Y1225000D02*
D03*
Y1215000D02*
D03*
Y1205000D02*
D03*
Y1195000D02*
D03*
Y1185000D02*
D03*
Y1175000D02*
D03*
Y1165000D02*
D03*
Y1155000D02*
D03*
Y1145000D02*
D03*
Y1135000D02*
D03*
Y1125000D02*
D03*
Y1115000D02*
D03*
Y1105001D02*
D03*
Y1095001D02*
D03*
Y1085001D02*
D03*
Y1075001D02*
D03*
Y1065001D02*
D03*
Y1055001D02*
D03*
Y1045001D02*
D03*
Y1035001D02*
D03*
Y1025001D02*
D03*
Y1015001D02*
D03*
Y1005001D02*
D03*
Y995001D02*
D03*
Y985001D02*
D03*
Y975000D02*
D03*
X1057510Y1225000D02*
D03*
Y1215000D02*
D03*
Y1205000D02*
D03*
Y1195000D02*
D03*
Y1185000D02*
D03*
Y1175000D02*
D03*
Y1165000D02*
D03*
Y1155000D02*
D03*
Y1145000D02*
D03*
Y1135000D02*
D03*
Y1125000D02*
D03*
Y1115000D02*
D03*
Y1105001D02*
D03*
Y1095001D02*
D03*
Y1085001D02*
D03*
Y1075001D02*
D03*
Y1065001D02*
D03*
Y1055001D02*
D03*
Y1045001D02*
D03*
Y1035001D02*
D03*
Y1025001D02*
D03*
Y1015001D02*
D03*
Y1005001D02*
D03*
Y995001D02*
D03*
Y985001D02*
D03*
Y975000D02*
D03*
X1067510Y1225000D02*
D03*
Y1215000D02*
D03*
Y1205000D02*
D03*
Y1195000D02*
D03*
Y1185000D02*
D03*
Y1175000D02*
D03*
Y1165000D02*
D03*
Y1155000D02*
D03*
Y1145000D02*
D03*
Y1135000D02*
D03*
Y1125000D02*
D03*
Y1115000D02*
D03*
Y1105001D02*
D03*
Y1095001D02*
D03*
Y1085001D02*
D03*
Y1075001D02*
D03*
Y1065001D02*
D03*
Y1055001D02*
D03*
Y1045001D02*
D03*
Y1035001D02*
D03*
Y1025001D02*
D03*
Y1015001D02*
D03*
Y1005001D02*
D03*
Y995001D02*
D03*
Y985001D02*
D03*
Y975000D02*
D03*
X1077510Y1225000D02*
D03*
Y1215000D02*
D03*
Y1205000D02*
D03*
Y1195000D02*
D03*
Y1185000D02*
D03*
Y1175000D02*
D03*
Y1165000D02*
D03*
Y1155000D02*
D03*
Y1145000D02*
D03*
Y1135000D02*
D03*
Y1125000D02*
D03*
Y1115000D02*
D03*
Y1105001D02*
D03*
Y1095001D02*
D03*
Y1085001D02*
D03*
Y1075001D02*
D03*
Y1065001D02*
D03*
Y1055001D02*
D03*
Y1045001D02*
D03*
Y1035001D02*
D03*
Y1025001D02*
D03*
Y1015001D02*
D03*
Y1005001D02*
D03*
Y995001D02*
D03*
Y985001D02*
D03*
Y975000D02*
D03*
X1087510Y1225000D02*
D03*
Y1215000D02*
D03*
Y1205000D02*
D03*
Y1195000D02*
D03*
Y1185000D02*
D03*
Y1175000D02*
D03*
Y1165000D02*
D03*
Y1155000D02*
D03*
Y1145000D02*
D03*
Y1135000D02*
D03*
Y1125000D02*
D03*
Y1115000D02*
D03*
Y1105001D02*
D03*
Y1095001D02*
D03*
Y1085001D02*
D03*
Y1075001D02*
D03*
Y1065001D02*
D03*
Y1055001D02*
D03*
Y1045001D02*
D03*
Y1035001D02*
D03*
Y1025001D02*
D03*
Y1015001D02*
D03*
Y1005001D02*
D03*
Y995001D02*
D03*
Y985001D02*
D03*
Y975000D02*
D03*
X1097510Y1225000D02*
D03*
Y1215000D02*
D03*
Y1205000D02*
D03*
Y1195000D02*
D03*
Y1185000D02*
D03*
Y1175000D02*
D03*
Y1165000D02*
D03*
Y1155000D02*
D03*
Y1145000D02*
D03*
Y1135000D02*
D03*
Y1125000D02*
D03*
Y1115000D02*
D03*
Y1105001D02*
D03*
Y1095001D02*
D03*
Y1085001D02*
D03*
Y1075001D02*
D03*
Y1065001D02*
D03*
Y1055001D02*
D03*
Y1045001D02*
D03*
Y1035001D02*
D03*
Y1025001D02*
D03*
Y1015001D02*
D03*
Y1005001D02*
D03*
Y995001D02*
D03*
Y985001D02*
D03*
Y975000D02*
D03*
X1107510Y1225000D02*
D03*
Y1215000D02*
D03*
Y1205000D02*
D03*
Y1195000D02*
D03*
Y1185000D02*
D03*
Y1175000D02*
D03*
Y1165000D02*
D03*
Y1155000D02*
D03*
Y1145000D02*
D03*
Y1135000D02*
D03*
Y1125000D02*
D03*
Y1115000D02*
D03*
Y1105001D02*
D03*
Y1095001D02*
D03*
Y1085001D02*
D03*
Y1075001D02*
D03*
Y1065001D02*
D03*
Y1055001D02*
D03*
Y1045001D02*
D03*
Y1035001D02*
D03*
Y1025001D02*
D03*
Y1015001D02*
D03*
Y1005001D02*
D03*
Y995001D02*
D03*
Y985001D02*
D03*
Y975000D02*
D03*
X1117510Y1225000D02*
D03*
Y1215000D02*
D03*
Y1205000D02*
D03*
Y1195000D02*
D03*
Y1185000D02*
D03*
Y1175000D02*
D03*
Y1165000D02*
D03*
Y1155000D02*
D03*
Y1145000D02*
D03*
Y1135000D02*
D03*
Y1125000D02*
D03*
Y1115000D02*
D03*
Y1105001D02*
D03*
Y1095001D02*
D03*
Y1085001D02*
D03*
Y1075001D02*
D03*
Y1065001D02*
D03*
Y1055001D02*
D03*
Y1045001D02*
D03*
Y1035001D02*
D03*
Y1025001D02*
D03*
Y1015001D02*
D03*
Y1005001D02*
D03*
Y995001D02*
D03*
Y985001D02*
D03*
Y975000D02*
D03*
X1127510Y1225000D02*
D03*
Y1215000D02*
D03*
Y1205000D02*
D03*
Y1195000D02*
D03*
Y1185000D02*
D03*
Y1175000D02*
D03*
Y1165000D02*
D03*
Y1155000D02*
D03*
Y1145000D02*
D03*
Y1135000D02*
D03*
Y1125000D02*
D03*
Y1115000D02*
D03*
Y1105001D02*
D03*
Y1095001D02*
D03*
Y1085001D02*
D03*
Y1075001D02*
D03*
Y1065001D02*
D03*
Y1055001D02*
D03*
Y1045001D02*
D03*
Y1035001D02*
D03*
Y1025001D02*
D03*
Y1015001D02*
D03*
Y1005001D02*
D03*
Y995001D02*
D03*
Y985001D02*
D03*
Y975000D02*
D03*
X897510Y1055001D02*
D03*
X877510D02*
D03*
X887510Y1005001D02*
D03*
X877510D02*
D03*
D62*
Y1105001D02*
D03*
D63*
X1410764Y680486D02*
D03*
Y759486D02*
D03*
X1448864Y680486D02*
D03*
Y759486D02*
D03*
X1436164Y680486D02*
D03*
X1423464D02*
D03*
X1436164Y759486D02*
D03*
X1423464D02*
D03*
D64*
X1029972Y1474384D02*
D03*
X979172D02*
D03*
X1004572D02*
D03*
Y1516384D02*
D03*
X979172D02*
D03*
X1029972D02*
D03*
D65*
X1788899Y1407533D02*
D03*
X1836900D02*
D03*
X1788899Y1401033D02*
D03*
X1836900D02*
D03*
X1788899Y1381533D02*
D03*
X1836900D02*
D03*
X1788899Y1388033D02*
D03*
X1836900D02*
D03*
Y1394533D02*
D03*
X1788899D02*
D03*
D66*
X3602872Y50809D02*
D03*
Y35823D02*
D03*
X1629156Y1432941D02*
D03*
Y1417955D02*
D03*
X1728470Y1060323D02*
D03*
Y1045337D02*
D03*
D67*
X3468318Y36966D02*
D03*
X3508318D02*
D03*
X1626550Y435610D02*
D03*
X1586550D02*
D03*
D68*
X840365Y106027D02*
D03*
X800365Y38527D02*
D03*
Y106027D02*
D03*
X840365Y38527D02*
D03*
X1074045Y104757D02*
D03*
X1034045Y37257D02*
D03*
Y104757D02*
D03*
X1074045Y37257D02*
D03*
X952125Y38527D02*
D03*
X912125Y106027D02*
D03*
Y38527D02*
D03*
X952125Y106027D02*
D03*
D69*
X956130Y1432748D02*
D03*
Y1427748D02*
D03*
Y1422748D02*
D03*
Y1417748D02*
D03*
Y1412748D02*
D03*
Y1407748D02*
D03*
Y1402748D02*
D03*
Y1397748D02*
D03*
Y1392748D02*
D03*
Y1387748D02*
D03*
Y1382748D02*
D03*
Y1377748D02*
D03*
Y1372748D02*
D03*
Y1367748D02*
D03*
Y1362748D02*
D03*
Y1357748D02*
D03*
X1045630D02*
D03*
Y1362748D02*
D03*
Y1367748D02*
D03*
Y1372748D02*
D03*
Y1377748D02*
D03*
Y1382748D02*
D03*
Y1387748D02*
D03*
Y1392748D02*
D03*
Y1397748D02*
D03*
Y1402748D02*
D03*
Y1407748D02*
D03*
Y1412748D02*
D03*
Y1417748D02*
D03*
Y1422748D02*
D03*
Y1427748D02*
D03*
Y1432748D02*
D03*
X1541213Y1527734D02*
D03*
Y1532734D02*
D03*
Y1537734D02*
D03*
Y1542734D02*
D03*
Y1547734D02*
D03*
Y1552734D02*
D03*
Y1557734D02*
D03*
Y1562734D02*
D03*
Y1567734D02*
D03*
Y1572734D02*
D03*
Y1577734D02*
D03*
Y1582734D02*
D03*
Y1587734D02*
D03*
Y1592734D02*
D03*
Y1597734D02*
D03*
Y1602734D02*
D03*
X1630713D02*
D03*
Y1597734D02*
D03*
Y1592734D02*
D03*
Y1587734D02*
D03*
Y1582734D02*
D03*
Y1577734D02*
D03*
Y1572734D02*
D03*
Y1567734D02*
D03*
Y1562734D02*
D03*
Y1557734D02*
D03*
Y1552734D02*
D03*
Y1547734D02*
D03*
Y1542734D02*
D03*
Y1537734D02*
D03*
Y1532734D02*
D03*
Y1527734D02*
D03*
D70*
X963380Y1350498D02*
D03*
X968380D02*
D03*
X973380D02*
D03*
X978380D02*
D03*
X983380D02*
D03*
X988380D02*
D03*
X993380D02*
D03*
X998380D02*
D03*
X1003380D02*
D03*
X1008380D02*
D03*
X1013380D02*
D03*
X1018380D02*
D03*
X1023380D02*
D03*
X1028380D02*
D03*
X1033380D02*
D03*
X1038380D02*
D03*
Y1439998D02*
D03*
X1033380D02*
D03*
X1028380D02*
D03*
X1023380D02*
D03*
X1018380D02*
D03*
X1013380D02*
D03*
X1008380D02*
D03*
X1003380D02*
D03*
X998380D02*
D03*
X993380D02*
D03*
X988380D02*
D03*
X983380D02*
D03*
X978380D02*
D03*
X973380D02*
D03*
X968380D02*
D03*
X963380D02*
D03*
X1548463Y1609984D02*
D03*
X1553463D02*
D03*
X1558463D02*
D03*
X1563463D02*
D03*
X1568463D02*
D03*
X1573463D02*
D03*
X1578463D02*
D03*
X1583463D02*
D03*
X1588463D02*
D03*
X1593463D02*
D03*
X1598463D02*
D03*
X1603463D02*
D03*
X1608463D02*
D03*
X1613463D02*
D03*
X1618463D02*
D03*
X1623463D02*
D03*
Y1520484D02*
D03*
X1618463D02*
D03*
X1613463D02*
D03*
X1608463D02*
D03*
X1603463D02*
D03*
X1598463D02*
D03*
X1593463D02*
D03*
X1588463D02*
D03*
X1583463D02*
D03*
X1578463D02*
D03*
X1573463D02*
D03*
X1568463D02*
D03*
X1563463D02*
D03*
X1558463D02*
D03*
X1553463D02*
D03*
X1548463D02*
D03*
D71*
X1000880Y1395249D02*
D03*
D72*
X1888588Y1815768D02*
D03*
X1882088D02*
D03*
X1875588D02*
D03*
X1869088D02*
D03*
X1888588Y1774268D02*
D03*
X1882088D02*
D03*
X1875588D02*
D03*
X1869088D02*
D03*
D73*
X1585963Y1565234D02*
D03*
D74*
X2676398Y157604D02*
D03*
Y185804D02*
D03*
D75*
X1813293Y1567774D02*
D03*
D76*
X1825793Y1547274D02*
D03*
X1820793D02*
D03*
X1815793D02*
D03*
X1810792D02*
D03*
X1805793D02*
D03*
Y1588274D02*
D03*
X1810792D02*
D03*
X1815793D02*
D03*
X1820793D02*
D03*
X1825793D02*
D03*
X1800792D02*
D03*
Y1547274D02*
D03*
D77*
X1792792Y1560274D02*
D03*
Y1565274D02*
D03*
Y1570274D02*
D03*
Y1575274D02*
D03*
X1833793Y1580274D02*
D03*
Y1575274D02*
D03*
Y1570274D02*
D03*
Y1565274D02*
D03*
Y1560274D02*
D03*
Y1555274D02*
D03*
X1792792Y1580274D02*
D03*
Y1555274D02*
D03*
D78*
X1642327Y1810228D02*
D03*
Y1805229D02*
D03*
X1711826Y1820228D02*
D03*
Y1805229D02*
D03*
Y1800228D02*
D03*
Y1795229D02*
D03*
Y1790228D02*
D03*
Y1785228D02*
D03*
Y1780228D02*
D03*
Y1765228D02*
D03*
X1642327D02*
D03*
Y1770228D02*
D03*
Y1775228D02*
D03*
Y1780228D02*
D03*
Y1785228D02*
D03*
Y1790228D02*
D03*
Y1795229D02*
D03*
Y1800228D02*
D03*
Y1815229D02*
D03*
Y1820228D02*
D03*
X1711826Y1775228D02*
D03*
Y1770228D02*
D03*
Y1810228D02*
D03*
Y1815229D02*
D03*
D79*
X1677076Y1792728D02*
D03*
D80*
X1704576Y1757979D02*
D03*
X1699576D02*
D03*
X1694576D02*
D03*
X1689576D02*
D03*
X1684576D02*
D03*
X1679576D02*
D03*
X1674576D02*
D03*
X1669576D02*
D03*
X1664577D02*
D03*
X1659576D02*
D03*
X1654577D02*
D03*
X1649576D02*
D03*
Y1827478D02*
D03*
X1654577D02*
D03*
X1659576D02*
D03*
X1664577D02*
D03*
X1669576D02*
D03*
X1674576D02*
D03*
X1679576D02*
D03*
X1684576D02*
D03*
X1689576D02*
D03*
X1694576D02*
D03*
X1699576D02*
D03*
X1704576D02*
D03*
D81*
X1751170Y792450D02*
D03*
Y785950D02*
D03*
Y779450D02*
D03*
Y772950D02*
D03*
Y766450D02*
D03*
Y759950D02*
D03*
Y753450D02*
D03*
Y746950D02*
D03*
Y740450D02*
D03*
Y733950D02*
D03*
Y727450D02*
D03*
Y720950D02*
D03*
Y714450D02*
D03*
Y707950D02*
D03*
X1807170Y792450D02*
D03*
Y785950D02*
D03*
Y779450D02*
D03*
Y772950D02*
D03*
Y766450D02*
D03*
Y759950D02*
D03*
Y753450D02*
D03*
Y746950D02*
D03*
Y740450D02*
D03*
Y733950D02*
D03*
Y727450D02*
D03*
Y720950D02*
D03*
Y714450D02*
D03*
Y707950D02*
D03*
D82*
X1653540Y478790D02*
D03*
Y491490D02*
D03*
Y504190D02*
D03*
Y516890D02*
D03*
Y529590D02*
D03*
Y542290D02*
D03*
Y554990D02*
D03*
Y567690D02*
D03*
X1562100Y478790D02*
D03*
Y491490D02*
D03*
Y504190D02*
D03*
Y516890D02*
D03*
Y529590D02*
D03*
Y542290D02*
D03*
Y554990D02*
D03*
Y567690D02*
D03*
D83*
X1737790Y589260D02*
D03*
X1759790Y429280D02*
D03*
D84*
X1737790Y572060D02*
D03*
X1759790D02*
D03*
Y591260D02*
D03*
X1759790Y446480D02*
D03*
X1737790D02*
D03*
Y427280D02*
D03*
D85*
X1797920Y272970D02*
D03*
Y267970D02*
D03*
Y262970D02*
D03*
X1811420D02*
D03*
Y272970D02*
D03*
X1486770Y308690D02*
D03*
Y318690D02*
D03*
X1500270D02*
D03*
Y313690D02*
D03*
Y308690D02*
D03*
D86*
X1380480Y341030D02*
D03*
X1340480D02*
D03*
X1300480D02*
D03*
X1260480D02*
D03*
X1220480D02*
D03*
Y139030D02*
D03*
X1260480D02*
D03*
X1300480D02*
D03*
X1340480D02*
D03*
X1380480D02*
D03*
D87*
X1407730Y180030D02*
D03*
Y220030D02*
D03*
Y260030D02*
D03*
Y300030D02*
D03*
X1193230D02*
D03*
Y260030D02*
D03*
Y220030D02*
D03*
Y180030D02*
D03*
D88*
X1630930Y171450D02*
D03*
Y184150D02*
D03*
X1744730D02*
D03*
Y158750D02*
D03*
X1630930D02*
D03*
D89*
X1748790Y521650D02*
D03*
Y481650D02*
D03*
X1793000Y895000D02*
D03*
Y935000D02*
D03*
D90*
X1384380Y476870D02*
D03*
D91*
X1401880Y452369D02*
D03*
X1396880D02*
D03*
X1391880D02*
D03*
X1386880D02*
D03*
X1381879D02*
D03*
X1376880D02*
D03*
X1371879D02*
D03*
X1366880D02*
D03*
Y501370D02*
D03*
X1371879D02*
D03*
X1376880D02*
D03*
X1381879D02*
D03*
X1386880D02*
D03*
X1391880D02*
D03*
X1396880D02*
D03*
X1401880D02*
D03*
D92*
X1359879Y459370D02*
D03*
Y464369D02*
D03*
Y469370D02*
D03*
Y474369D02*
D03*
Y479370D02*
D03*
Y484370D02*
D03*
Y489370D02*
D03*
Y494370D02*
D03*
X1408880D02*
D03*
Y489370D02*
D03*
Y484370D02*
D03*
Y479370D02*
D03*
Y474369D02*
D03*
Y469370D02*
D03*
Y464369D02*
D03*
Y459370D02*
D03*
D93*
X1471290Y517020D02*
D03*
X1454790D02*
D03*
Y501520D02*
D03*
X1471290D02*
D03*
D94*
X1667050Y1121100D02*
D03*
Y1108400D02*
D03*
Y1095700D02*
D03*
Y1083000D02*
D03*
Y1070300D02*
D03*
Y1057600D02*
D03*
Y1044900D02*
D03*
D95*
X1575245Y267970D02*
D03*
Y255270D02*
D03*
Y242570D02*
D03*
Y229870D02*
D03*
Y280670D02*
D03*
Y293370D02*
D03*
Y306070D02*
D03*
Y318770D02*
D03*
X1665795D02*
D03*
Y306070D02*
D03*
Y293370D02*
D03*
Y280670D02*
D03*
Y229870D02*
D03*
Y242570D02*
D03*
Y255270D02*
D03*
Y267970D02*
D03*
D96*
X1672000Y894000D02*
D03*
D97*
X1700000D02*
D03*
D98*
X1626870Y880010D02*
D03*
Y943710D02*
D03*
M02*
