G04*
G04 #@! TF.GenerationSoftware,Altium Limited,Altium Designer,23.11.1 (41)*
G04*
G04 Layer_Physical_Order=3*
G04 Layer_Color=6736896*
%FSLAX44Y44*%
%MOMM*%
G71*
G04*
G04 #@! TF.SameCoordinates,838A1BA1-0531-4938-89FD-2D76D54D1B47*
G04*
G04*
G04 #@! TF.FilePolarity,Positive*
G04*
G01*
G75*
%ADD16C,0.1524*%
%ADD18C,0.0762*%
%ADD214C,0.1016*%
%ADD217C,6.2000*%
%ADD218C,2.2000*%
%ADD219C,3.8100*%
G04:AMPARAMS|DCode=220|XSize=1.524mm|YSize=1.524mm|CornerRadius=0mm|HoleSize=0mm|Usage=FLASHONLY|Rotation=90.000|XOffset=0mm|YOffset=0mm|HoleType=Round|Shape=Octagon|*
%AMOCTAGOND220*
4,1,8,0.3810,0.7620,-0.3810,0.7620,-0.7620,0.3810,-0.7620,-0.3810,-0.3810,-0.7620,0.3810,-0.7620,0.7620,-0.3810,0.7620,0.3810,0.3810,0.7620,0.0*
%
%ADD220OCTAGOND220*%

%ADD221C,1.5240*%
%ADD222C,3.0000*%
%ADD223C,1.6000*%
%ADD224C,0.6000*%
%ADD225R,1.9050X1.9050*%
%ADD226C,1.9050*%
%ADD227R,3.0000X3.0000*%
%ADD228C,0.3048*%
%ADD229C,0.5000*%
%ADD230C,0.5588*%
%ADD231C,0.5080*%
D16*
X763022Y1592177D02*
X795773D01*
X1629156Y1400463D02*
X1643181D01*
X1653861Y1411143D01*
Y1422400D01*
D18*
X1057510Y971984D02*
X1066081Y963414D01*
X1057510Y971984D02*
Y985001D01*
X1038709Y975000D02*
X1055376Y958334D01*
X1047510Y969791D02*
X1056428Y960874D01*
X1037510Y975000D02*
Y995001D01*
Y975000D02*
X1038709D01*
X1349360Y681077D02*
Y683631D01*
X1069577Y963414D02*
X1349360Y683631D01*
X1066081Y963414D02*
X1069577D01*
X1056428Y960874D02*
X1067807D01*
X1316665Y712016D01*
X1067510Y969792D02*
X1084801Y952500D01*
X1031797Y950714D02*
X1060725D01*
X1062495Y953254D02*
X1077656Y938093D01*
X1045665Y953254D02*
X1062495D01*
X1064266Y955794D02*
X1085997Y934063D01*
X1046717Y955794D02*
X1064266D01*
X1059462Y947666D02*
X1069544Y937584D01*
X1066036Y958334D02*
X1090959Y933411D01*
X1060725Y950714D02*
X1074608Y936831D01*
X1029835Y947666D02*
X1059462D01*
X1055376Y958334D02*
X1066036D01*
X1256867Y512032D02*
X1269095Y499804D01*
X1253203Y512032D02*
X1256867D01*
X1269095Y495965D02*
Y499804D01*
X1268916Y516156D02*
X1273768Y511303D01*
Y511239D02*
Y511303D01*
X1268916Y738533D02*
Y739445D01*
Y738533D02*
X1270674D01*
Y732691D02*
Y738533D01*
X1260198Y732691D02*
X1270674D01*
X1260198Y726849D02*
Y732691D01*
Y726849D02*
X1270674D01*
Y721007D02*
Y726849D01*
X1260198Y721007D02*
X1270674D01*
X1260198Y715165D02*
Y721007D01*
Y715165D02*
X1270674D01*
Y709323D02*
Y715165D01*
X1260198Y709323D02*
X1270674D01*
X1260198Y703481D02*
Y709323D01*
Y703481D02*
X1270674D01*
Y697639D02*
Y703481D01*
X1260198Y697639D02*
X1270674D01*
X1260198Y691797D02*
Y697639D01*
Y691797D02*
X1270674D01*
Y685955D02*
Y691797D01*
X1260198Y685955D02*
X1270674D01*
X1260198Y680113D02*
Y685955D01*
Y680113D02*
X1270674D01*
Y674271D02*
Y680113D01*
X1260198Y674271D02*
X1270674D01*
X1260198Y668429D02*
Y674271D01*
Y668429D02*
X1270674D01*
Y662587D02*
Y668429D01*
X1260198Y662587D02*
X1270674D01*
X1260198Y656745D02*
Y662587D01*
Y656745D02*
X1270674D01*
Y650903D02*
Y656745D01*
X1260198Y650903D02*
X1270674D01*
X1260198Y645061D02*
Y650903D01*
Y645061D02*
X1270674D01*
Y639219D02*
Y645061D01*
X1260198Y639219D02*
X1270674D01*
X1260198Y633377D02*
Y639219D01*
Y633377D02*
X1270674D01*
Y627535D02*
Y633377D01*
X1260198Y627535D02*
X1270674D01*
X1260198Y621693D02*
Y627535D01*
Y621693D02*
X1270674D01*
Y615851D02*
Y621693D01*
X1260198Y615851D02*
X1270674D01*
X1260198Y610009D02*
Y615851D01*
Y610009D02*
X1270674D01*
Y604167D02*
Y610009D01*
X1260198Y604167D02*
X1270674D01*
X1260198Y598325D02*
Y604167D01*
Y598325D02*
X1270674D01*
Y592483D02*
Y598325D01*
X1260198Y592483D02*
X1270674D01*
X1260198Y586641D02*
Y592483D01*
Y586641D02*
X1270674D01*
Y580799D02*
Y586641D01*
X1260198Y580799D02*
X1270674D01*
X1260198Y574957D02*
Y580799D01*
Y574957D02*
X1270674D01*
Y569115D02*
Y574957D01*
X1260198Y569115D02*
X1270674D01*
X1260198Y563273D02*
Y569115D01*
Y563273D02*
X1270674D01*
Y557431D02*
Y563273D01*
X1260198Y557431D02*
X1270674D01*
X1260198Y551589D02*
Y557431D01*
Y551589D02*
X1270674D01*
Y545747D02*
Y551589D01*
X1260198Y545747D02*
X1270674D01*
X1260198Y539905D02*
Y545747D01*
Y539905D02*
X1270674D01*
Y534063D02*
Y539905D01*
X1260198Y534063D02*
X1270674D01*
X1260198Y528221D02*
Y534063D01*
Y528221D02*
X1270674D01*
Y522379D02*
Y528221D01*
X1260198Y522379D02*
X1270674D01*
X1260198Y516537D02*
Y522379D01*
Y516537D02*
X1268916D01*
Y516156D02*
Y516537D01*
X1282348Y492477D02*
Y502659D01*
X1273768Y511239D02*
X1282348Y502659D01*
X1269822Y494620D02*
Y495238D01*
X1269095Y495965D02*
X1269822Y495238D01*
X1411219Y639014D02*
X1411489Y638744D01*
X1381889Y668344D02*
X1411219Y639014D01*
X1381889Y668344D02*
X1385259Y671715D01*
X1381128Y675846D02*
X1385259Y671715D01*
X1377758Y672475D02*
X1381128Y675846D01*
X1373627Y676606D02*
X1377758Y672475D01*
X1373627Y676606D02*
X1381579Y684558D01*
X1377448Y688689D02*
X1381579Y684558D01*
X1369496Y680737D02*
X1377448Y688689D01*
X1365365Y684868D02*
X1369496Y680737D01*
X1365365Y684868D02*
X1373317Y692820D01*
X1369186Y696951D02*
X1373317Y692820D01*
X1361234Y688999D02*
X1369186Y696951D01*
X1357103Y693130D02*
X1361234Y688999D01*
X1357103Y693130D02*
X1365055Y701082D01*
X1360925Y705213D02*
X1365055Y701082D01*
X1352972Y697261D02*
X1360925Y705213D01*
X1348841Y701392D02*
X1352972Y697261D01*
X1348841Y701392D02*
X1356794Y709344D01*
X1352663Y713475D02*
X1356794Y709344D01*
X1344711Y705523D02*
X1352663Y713475D01*
X1340580Y709654D02*
X1344711Y705523D01*
X1340580Y709654D02*
X1348532Y717606D01*
X1344401Y721737D02*
X1348532Y717606D01*
X1336449Y713785D02*
X1344401Y721737D01*
X1332318Y717915D02*
X1336449Y713785D01*
X1332318Y717915D02*
X1340270Y725868D01*
X1336139Y729999D02*
X1340270Y725868D01*
X1328187Y722046D02*
X1336139Y729999D01*
X1324056Y726177D02*
X1328187Y722046D01*
X1324056Y726177D02*
X1332008Y734129D01*
X1327877Y738260D02*
X1332008Y734129D01*
X1319925Y730308D02*
X1327877Y738260D01*
X1315794Y734439D02*
X1319925Y730308D01*
X1315794Y734439D02*
X1323746Y742391D01*
X1319615Y746522D02*
X1323746Y742391D01*
X1311663Y738570D02*
X1319615Y746522D01*
X1307532Y742701D02*
X1311663Y738570D01*
X1307532Y742701D02*
X1315484Y750653D01*
X1311353Y754784D02*
X1315484Y750653D01*
X1303401Y746832D02*
X1311353Y754784D01*
X1299270Y750963D02*
X1303401Y746832D01*
X1299270Y750963D02*
X1307223Y758915D01*
X1303092Y763046D02*
X1307223Y758915D01*
X1295139Y755094D02*
X1303092Y763046D01*
X1291009Y759225D02*
X1295139Y755094D01*
X1291009Y759225D02*
X1298961Y767177D01*
X1294830Y771308D02*
X1298961Y767177D01*
X1286878Y763356D02*
X1294830Y771308D01*
X1282747Y767486D02*
X1286878Y763356D01*
X1282747Y767486D02*
X1290699Y775439D01*
X1286568Y779570D02*
X1290699Y775439D01*
X1278616Y771617D02*
X1286568Y779570D01*
X1274485Y775748D02*
X1278616Y771617D01*
X1274485Y775748D02*
X1282437Y783700D01*
X1278306Y787831D02*
X1282437Y783700D01*
X1270354Y779879D02*
X1278306Y787831D01*
X1266223Y784010D02*
X1270354Y779879D01*
X1266223Y784010D02*
X1274175Y791962D01*
X1270044Y796093D02*
X1274175Y791962D01*
X1262092Y788141D02*
X1270044Y796093D01*
X1262092Y788141D02*
X1262092Y788141D01*
X1261823Y788411D02*
X1262092Y788141D01*
X1411489Y638744D02*
X1477621Y572613D01*
X941549Y631795D02*
Y952500D01*
X948879Y959830D01*
X938501Y630533D02*
Y959928D01*
X922309Y613664D02*
Y984973D01*
X948625Y629030D02*
Y952844D01*
X926309Y625483D02*
Y966286D01*
X929357Y626745D02*
Y961560D01*
X932405Y628008D02*
Y961016D01*
X948879Y959830D02*
X971141D01*
X935453Y629270D02*
Y960472D01*
X948625Y952844D02*
X952726Y956945D01*
X940944Y962370D02*
X970089D01*
X938501Y630533D02*
X1007098Y561936D01*
X918817Y988465D02*
X922309Y984973D01*
X938501Y959928D02*
X940944Y962370D01*
X941549Y631795D02*
X998305Y575040D01*
X929357Y961560D02*
X947510Y979713D01*
X922309Y613664D02*
X1121786Y414187D01*
X935453Y629270D02*
X1010511Y554212D01*
X926309Y625483D02*
X1031179Y520613D01*
X929357Y626745D02*
X1027187Y528916D01*
X932405Y628008D02*
X1015993Y544420D01*
X948625Y629030D02*
X991291Y586364D01*
X926309Y966286D02*
X937510Y977486D01*
X947510Y979713D02*
Y1025001D01*
X932405Y961016D02*
X946836Y975447D01*
X954172Y949040D02*
X959536Y954405D01*
X954172Y627794D02*
Y949040D01*
X952726Y956945D02*
X974454D01*
X935453Y960472D02*
X939892Y964910D01*
X1260562Y789672D02*
X1261823Y788411D01*
X1178560Y989330D02*
X1212850D01*
X1260562Y941618D01*
X1175316Y986087D02*
X1178560Y989330D01*
X1097956Y986087D02*
X1175316D01*
X1260562Y789672D02*
Y941618D01*
X1443318Y545632D02*
Y553769D01*
X1438648D02*
X1443318D01*
X1438648D02*
Y559611D01*
X1448561D01*
Y565453D01*
X1435571D02*
X1448561D01*
X1435571D02*
Y571295D01*
X1448561D01*
Y577137D01*
X1435571D02*
X1448561D01*
X1435571D02*
Y582979D01*
X1448561D01*
Y588821D01*
X1435571D02*
X1448561D01*
X1435571D02*
Y594663D01*
X1441107D01*
Y600505D01*
X1441107D01*
X1440726Y600886D02*
X1441107Y600505D01*
X1224559Y817053D02*
X1440726Y600886D01*
X1402715Y536808D02*
X1404106D01*
Y516890D02*
Y536808D01*
Y516890D02*
X1409948D01*
Y551169D01*
X1415790D01*
Y516890D02*
Y551169D01*
Y516890D02*
X1421632D01*
Y553783D01*
X1427474D01*
Y518541D02*
Y553783D01*
Y518541D02*
X1433316D01*
Y536808D01*
X1433697D01*
X1434494D01*
X1477621Y550829D02*
Y572613D01*
X1393239Y550074D02*
Y554151D01*
X1409314D01*
Y559992D01*
X1367839D02*
X1409314D01*
X1367839D02*
Y565835D01*
X1418639D01*
Y571676D01*
X1367839D02*
X1418639D01*
X1367839D02*
Y577519D01*
X1418639D01*
Y583360D01*
X1383291D02*
X1418639D01*
X1383291D02*
Y589202D01*
X1418639D01*
Y595045D01*
X1383291D02*
X1418639D01*
X1383291D02*
Y600886D01*
X1418639D01*
Y606729D01*
X1383291D02*
X1418639D01*
X1383291D02*
Y612570D01*
X1418639D01*
Y618413D01*
X1383291D02*
X1418639D01*
X1383291D02*
Y624254D01*
X1407205D01*
Y630097D01*
X1383291D02*
X1407205D01*
X1383291D02*
Y635938D01*
X1395521D01*
Y641780D01*
X1393239D02*
X1395521D01*
X1393239D02*
Y642162D01*
Y644063D01*
X1386098Y542934D02*
X1393239Y550074D01*
X1434494Y536808D02*
X1443318Y545632D01*
X1393962Y536808D02*
X1402715D01*
X1349360Y677214D02*
Y681077D01*
X1346778Y677214D02*
X1349360D01*
X1346778Y671372D02*
Y677214D01*
Y671372D02*
X1361620D01*
Y665530D02*
Y671372D01*
X1342585Y665530D02*
X1361620D01*
X1342585Y659688D02*
Y665530D01*
Y659688D02*
X1373304D01*
Y653846D02*
Y659688D01*
X1342585Y653846D02*
X1373304D01*
X1342585Y648004D02*
Y653846D01*
Y648004D02*
X1380242D01*
Y642162D02*
Y648004D01*
X1342585Y642162D02*
X1380242D01*
X1342585Y636320D02*
Y642162D01*
Y636320D02*
X1380242D01*
Y630478D02*
Y636320D01*
X1342585Y630478D02*
X1380242D01*
X1342585Y624636D02*
Y630478D01*
Y624636D02*
X1380242D01*
Y618794D02*
Y624636D01*
X1342585Y618794D02*
X1380242D01*
X1342585Y612952D02*
Y618794D01*
Y612952D02*
X1380242D01*
Y607110D02*
Y612952D01*
X1342585Y607110D02*
X1380242D01*
X1342585Y601268D02*
Y607110D01*
Y601268D02*
X1380242D01*
Y595426D02*
Y601268D01*
X1342585Y595426D02*
X1380242D01*
X1342585Y589584D02*
Y595426D01*
Y589584D02*
X1380242D01*
Y583742D02*
Y589584D01*
X1342585Y583742D02*
X1380242D01*
X1342585Y577900D02*
Y583742D01*
Y577900D02*
X1349360D01*
Y577519D02*
Y577900D01*
Y573862D02*
Y577519D01*
X1347236Y571737D02*
X1349360Y573862D01*
X1453424Y475210D02*
Y592498D01*
X1345334Y691968D02*
X1393239Y644063D01*
X1415094Y436880D02*
X1423670Y445456D01*
X1409379Y431165D02*
X1415094Y436880D01*
X1423670Y445456D02*
X1453424Y475210D01*
X1249758Y796165D02*
X1453424Y592498D01*
X1316665Y703427D02*
Y709719D01*
Y703427D02*
X1319064D01*
Y697585D02*
Y703427D01*
X1313008Y697585D02*
X1319064D01*
X1313008Y691743D02*
Y697585D01*
Y691743D02*
X1336938D01*
Y685901D02*
Y691743D01*
X1313008Y685901D02*
X1336938D01*
X1313008Y680059D02*
Y685901D01*
Y680059D02*
X1339279D01*
Y674217D02*
Y680059D01*
X1313008Y674217D02*
X1339279D01*
X1313008Y668375D02*
Y674217D01*
Y668375D02*
X1339279D01*
Y662533D02*
Y668375D01*
X1313008Y662533D02*
X1339279D01*
X1313008Y656691D02*
Y662533D01*
Y656691D02*
X1339279D01*
Y650849D02*
Y656691D01*
X1313008Y650849D02*
X1339279D01*
X1313008Y645007D02*
Y650849D01*
Y645007D02*
X1339279D01*
Y639165D02*
Y645007D01*
X1313008Y639165D02*
X1339279D01*
X1313008Y633323D02*
Y639165D01*
Y633323D02*
X1339279D01*
Y627481D02*
Y633323D01*
X1313008Y627481D02*
X1339279D01*
X1313008Y621639D02*
Y627481D01*
Y621639D02*
X1339279D01*
Y615797D02*
Y621639D01*
X1313008Y615797D02*
X1339279D01*
X1313008Y609955D02*
Y615797D01*
Y609955D02*
X1339279D01*
Y604113D02*
Y609955D01*
X1313008Y604113D02*
X1339279D01*
X1313008Y598271D02*
Y604113D01*
Y598271D02*
X1339279D01*
Y592429D02*
Y598271D01*
X1313008Y592429D02*
X1339279D01*
X1313008Y586587D02*
Y592429D01*
Y586587D02*
X1339279D01*
Y580745D02*
Y586587D01*
X1313008Y580745D02*
X1339279D01*
X1313008Y574903D02*
Y580745D01*
Y574903D02*
X1316665D01*
Y574522D02*
Y574903D01*
Y709719D02*
Y712016D01*
Y571115D02*
Y574522D01*
X1300573Y709719D02*
Y720131D01*
X1291747Y709719D02*
X1300573D01*
X1291747Y703877D02*
Y709719D01*
Y703877D02*
X1309960D01*
Y698035D02*
Y703877D01*
X1290877Y698035D02*
X1309960D01*
X1290877Y692193D02*
Y698035D01*
Y692193D02*
X1309960D01*
Y686351D02*
Y692193D01*
X1290877Y686351D02*
X1309960D01*
X1290877Y680509D02*
Y686351D01*
Y680509D02*
X1309960D01*
Y674667D02*
Y680509D01*
X1290877Y674667D02*
X1309960D01*
X1290877Y668825D02*
Y674667D01*
Y668825D02*
X1309960D01*
Y662983D02*
Y668825D01*
X1290877Y662983D02*
X1309960D01*
X1290877Y657141D02*
Y662983D01*
Y657141D02*
X1309960D01*
Y651299D02*
Y657141D01*
X1290877Y651299D02*
X1309960D01*
X1290877Y645457D02*
Y651299D01*
Y645457D02*
X1309960D01*
Y639615D02*
Y645457D01*
X1290877Y639615D02*
X1309960D01*
X1290877Y633773D02*
Y639615D01*
Y633773D02*
X1309960D01*
Y627931D02*
Y633773D01*
X1290877Y627931D02*
X1309960D01*
X1290877Y622089D02*
Y627931D01*
Y622089D02*
X1309960D01*
Y616247D02*
Y622089D01*
X1290877Y616247D02*
X1309960D01*
X1290877Y610405D02*
Y616247D01*
Y610405D02*
X1309960D01*
Y604563D02*
Y610405D01*
X1290877Y604563D02*
X1309960D01*
X1290877Y598721D02*
Y604563D01*
Y598721D02*
X1309960D01*
Y592879D02*
Y598721D01*
X1290877Y592879D02*
X1309960D01*
X1290877Y587037D02*
Y592879D01*
Y587037D02*
X1309960D01*
Y581195D02*
Y587037D01*
X1290877Y581195D02*
X1309960D01*
X1290877Y575353D02*
Y581195D01*
Y575353D02*
X1309960D01*
Y569511D02*
Y575353D01*
X1290877Y569511D02*
X1309960D01*
X1290877Y563669D02*
Y569511D01*
Y563669D02*
X1300573D01*
Y563288D02*
Y563669D01*
Y720131D02*
Y720746D01*
X1284932Y720413D02*
Y724093D01*
X1284442Y720413D02*
X1284932D01*
X1284442Y714570D02*
Y720413D01*
Y714570D02*
X1287829D01*
Y708728D02*
Y714570D01*
X1274308Y708728D02*
X1287829D01*
X1274308Y702887D02*
Y708728D01*
Y702887D02*
X1287829D01*
Y697045D02*
Y702887D01*
X1274308Y697045D02*
X1287829D01*
X1274308Y691202D02*
Y697045D01*
Y691202D02*
X1287829D01*
Y685360D02*
Y691202D01*
X1274308Y685360D02*
X1287829D01*
X1274308Y679519D02*
Y685360D01*
Y679519D02*
X1287829D01*
Y673677D02*
Y679519D01*
X1274308Y673677D02*
X1287829D01*
X1274308Y667834D02*
Y673677D01*
Y667834D02*
X1287829D01*
Y661992D02*
Y667834D01*
X1274308Y661992D02*
X1287829D01*
X1274308Y656151D02*
Y661992D01*
Y656151D02*
X1287829D01*
Y650309D02*
Y656151D01*
X1274308Y650309D02*
X1287829D01*
X1274308Y644466D02*
Y650309D01*
Y644466D02*
X1287829D01*
Y638624D02*
Y644466D01*
X1274308Y638624D02*
X1287829D01*
X1274308Y632783D02*
Y638624D01*
Y632783D02*
X1287829D01*
Y626940D02*
Y632783D01*
X1274308Y626940D02*
X1287829D01*
X1274308Y621099D02*
Y626940D01*
Y621099D02*
X1287829D01*
Y615257D02*
Y621099D01*
X1274308Y615257D02*
X1287829D01*
X1274308Y609414D02*
Y615257D01*
Y609414D02*
X1287829D01*
Y603573D02*
Y609414D01*
X1274308Y603573D02*
X1287829D01*
X1274308Y597730D02*
Y603573D01*
Y597730D02*
X1287829D01*
Y591889D02*
Y597730D01*
X1274308Y591889D02*
X1287829D01*
X1274308Y586046D02*
Y591889D01*
Y586046D02*
X1287829D01*
Y580205D02*
Y586046D01*
X1274308Y580205D02*
X1287829D01*
X1274308Y574362D02*
Y580205D01*
Y574362D02*
X1287829D01*
Y568521D02*
Y574362D01*
X1274308Y568521D02*
X1287829D01*
X1274308Y562678D02*
Y568521D01*
Y562678D02*
X1287829D01*
Y556837D02*
Y562678D01*
X1274308Y556837D02*
X1287829D01*
X1274308Y550994D02*
Y556837D01*
Y550994D02*
X1287829D01*
Y545153D02*
Y550994D01*
X1274308Y545153D02*
X1287829D01*
X1274308Y539310D02*
Y545153D01*
Y539310D02*
X1287829D01*
Y533469D02*
Y539310D01*
X1274308Y533469D02*
X1287829D01*
X1274308Y527626D02*
Y533469D01*
Y527626D02*
X1284932D01*
Y527245D02*
Y527626D01*
Y724093D02*
Y732076D01*
Y512506D02*
Y527245D01*
X1316665Y571115D02*
X1328980Y558800D01*
X1057510Y985001D02*
X1062510Y990001D01*
X1084801Y952500D02*
X1345334Y691968D01*
X1224290Y817322D02*
X1224559Y817053D01*
X1221311Y820301D02*
X1224290Y817322D01*
X1221311Y820301D02*
X1229971Y828960D01*
X1225840Y833091D02*
X1229971Y828960D01*
X1217181Y824432D02*
X1225840Y833091D01*
X1213050Y828563D02*
X1217181Y824432D01*
X1213050Y828563D02*
X1221709Y837222D01*
X1217578Y841353D02*
X1221709Y837222D01*
X1208919Y832693D02*
X1217578Y841353D01*
X1204788Y836824D02*
X1208919Y832693D01*
X1204788Y836824D02*
X1213447Y845484D01*
X1209316Y849615D02*
X1213447Y845484D01*
X1200657Y840955D02*
X1209316Y849615D01*
X1196526Y845086D02*
X1200657Y840955D01*
X1196526Y845086D02*
X1205185Y853746D01*
X1201054Y857877D02*
X1205185Y853746D01*
X1192395Y849217D02*
X1201054Y857877D01*
X1188264Y853348D02*
X1192395Y849217D01*
X1188264Y853348D02*
X1196924Y862007D01*
X1192793Y866138D02*
X1196924Y862007D01*
X1184133Y857479D02*
X1192793Y866138D01*
X1180002Y861610D02*
X1184133Y857479D01*
X1180002Y861610D02*
X1188662Y870269D01*
X1184531Y874400D02*
X1188662Y870269D01*
X1175871Y865741D02*
X1184531Y874400D01*
X1171740Y869872D02*
X1175871Y865741D01*
X1171740Y869872D02*
X1180400Y878531D01*
X1176269Y882662D02*
X1180400Y878531D01*
X1167609Y874003D02*
X1176269Y882662D01*
X1167609Y874003D02*
X1167609Y874003D01*
X1167340Y874272D02*
X1167609Y874003D01*
X1106326Y935286D02*
X1167340Y874272D01*
X1268916Y739445D02*
Y743071D01*
X1077656Y934331D02*
X1268916Y743071D01*
X1253203Y751935D02*
Y753120D01*
X1249259Y751935D02*
X1253203D01*
X1249259Y746093D02*
Y751935D01*
Y746093D02*
X1255011D01*
Y740251D02*
Y746093D01*
X1245870Y740251D02*
X1255011D01*
X1245870Y734409D02*
Y740251D01*
Y734409D02*
X1255011D01*
Y728567D02*
Y734409D01*
X1245870Y728567D02*
X1255011D01*
X1245870Y722725D02*
Y728567D01*
Y722725D02*
X1255011D01*
Y716883D02*
Y722725D01*
X1245870Y716883D02*
X1255011D01*
X1245870Y711041D02*
Y716883D01*
Y711041D02*
X1255011D01*
Y705199D02*
Y711041D01*
X1245870Y705199D02*
X1255011D01*
X1245870Y699357D02*
Y705199D01*
Y699357D02*
X1255011D01*
Y693515D02*
Y699357D01*
X1245870Y693515D02*
X1255011D01*
X1245870Y687673D02*
Y693515D01*
Y687673D02*
X1255011D01*
Y681831D02*
Y687673D01*
X1245870Y681831D02*
X1255011D01*
X1245870Y675989D02*
Y681831D01*
Y675989D02*
X1255011D01*
Y670147D02*
Y675989D01*
X1245870Y670147D02*
X1255011D01*
X1245870Y664305D02*
Y670147D01*
Y664305D02*
X1255011D01*
Y658463D02*
Y664305D01*
X1245870Y658463D02*
X1255011D01*
X1245870Y652621D02*
Y658463D01*
Y652621D02*
X1255011D01*
Y646779D02*
Y652621D01*
X1245870Y646779D02*
X1255011D01*
X1245870Y640937D02*
Y646779D01*
Y640937D02*
X1255011D01*
Y635095D02*
Y640937D01*
X1245870Y635095D02*
X1255011D01*
X1245870Y629253D02*
Y635095D01*
Y629253D02*
X1255011D01*
Y623411D02*
Y629253D01*
X1245870Y623411D02*
X1255011D01*
X1245870Y617569D02*
Y623411D01*
Y617569D02*
X1255011D01*
Y611727D02*
Y617569D01*
X1245870Y611727D02*
X1255011D01*
X1245870Y605885D02*
Y611727D01*
Y605885D02*
X1255011D01*
Y600043D02*
Y605885D01*
X1245870Y600043D02*
X1255011D01*
X1245870Y594201D02*
Y600043D01*
Y594201D02*
X1255011D01*
Y588359D02*
Y594201D01*
X1245870Y588359D02*
X1255011D01*
X1245870Y582517D02*
Y588359D01*
Y582517D02*
X1255011D01*
Y576675D02*
Y582517D01*
X1245870Y576675D02*
X1255011D01*
X1245870Y570833D02*
Y576675D01*
Y570833D02*
X1255011D01*
Y564991D02*
Y570833D01*
X1245870Y564991D02*
X1255011D01*
X1245870Y559149D02*
Y564991D01*
Y559149D02*
X1255011D01*
Y553307D02*
Y559149D01*
X1245870Y553307D02*
X1255011D01*
X1245870Y547465D02*
Y553307D01*
Y547465D02*
X1255011D01*
Y541623D02*
Y547465D01*
X1245870Y541623D02*
X1255011D01*
X1245870Y535781D02*
Y541623D01*
Y535781D02*
X1255011D01*
Y529939D02*
Y535781D01*
X1245870Y529939D02*
X1255011D01*
X1245870Y524097D02*
Y529939D01*
Y524097D02*
X1255011D01*
Y518255D02*
Y524097D01*
X1245870Y518255D02*
X1255011D01*
X1245870Y512413D02*
Y518255D01*
Y512413D02*
X1253203D01*
Y512032D02*
Y512413D01*
Y753120D02*
Y754473D01*
X1237978Y722390D02*
Y754473D01*
X1227589Y722390D02*
X1237978D01*
X1227589Y716548D02*
Y722390D01*
Y716548D02*
X1239497D01*
Y710706D02*
Y716548D01*
X1227007Y710706D02*
X1239497D01*
X1227007Y704864D02*
Y710706D01*
Y704864D02*
X1239497D01*
Y699022D02*
Y704864D01*
X1227007Y699022D02*
X1239497D01*
X1227007Y693180D02*
Y699022D01*
Y693180D02*
X1239497D01*
Y687338D02*
Y693180D01*
X1227007Y687338D02*
X1239497D01*
X1227007Y681496D02*
Y687338D01*
Y681496D02*
X1239497D01*
Y675654D02*
Y681496D01*
X1227007Y675654D02*
X1239497D01*
X1227007Y669812D02*
Y675654D01*
Y669812D02*
X1239497D01*
Y663970D02*
Y669812D01*
X1227007Y663970D02*
X1239497D01*
X1227007Y658128D02*
Y663970D01*
Y658128D02*
X1239497D01*
Y652286D02*
Y658128D01*
X1227007Y652286D02*
X1239497D01*
X1227007Y646444D02*
Y652286D01*
Y646444D02*
X1239497D01*
Y640602D02*
Y646444D01*
X1227007Y640602D02*
X1239497D01*
X1227007Y634760D02*
Y640602D01*
Y634760D02*
X1239497D01*
Y628918D02*
Y634760D01*
X1227007Y628918D02*
X1239497D01*
X1227007Y623076D02*
Y628918D01*
Y623076D02*
X1239497D01*
Y617234D02*
Y623076D01*
X1227007Y617234D02*
X1239497D01*
X1227007Y611392D02*
Y617234D01*
Y611392D02*
X1239497D01*
Y605550D02*
Y611392D01*
X1227007Y605550D02*
X1239497D01*
X1227007Y599708D02*
Y605550D01*
Y599708D02*
X1239497D01*
Y593866D02*
Y599708D01*
X1227007Y593866D02*
X1239497D01*
X1227007Y588024D02*
Y593866D01*
Y588024D02*
X1239497D01*
Y582182D02*
Y588024D01*
X1227007Y582182D02*
X1239497D01*
X1227007Y576340D02*
Y582182D01*
Y576340D02*
X1239497D01*
Y570498D02*
Y576340D01*
X1227007Y570498D02*
X1239497D01*
X1227007Y564656D02*
Y570498D01*
Y564656D02*
X1237978D01*
Y564275D02*
Y564656D01*
Y754473D02*
Y765388D01*
Y512313D02*
Y564275D01*
Y512313D02*
X1252837Y497455D01*
X1249758Y805263D02*
Y810946D01*
X1244341D02*
X1249758D01*
X1244341D02*
Y816787D01*
X1250297D01*
Y822629D01*
X1237269D02*
X1250297D01*
X1237269D02*
Y828472D01*
X1250297D01*
Y834314D01*
X1237269D02*
X1250297D01*
X1237269D02*
Y840155D01*
X1250297D01*
Y845997D01*
X1237269D02*
X1250297D01*
X1237269D02*
Y851840D01*
X1250297D01*
Y857682D01*
X1237269D02*
X1250297D01*
X1237269D02*
Y863523D01*
X1250297D01*
Y869365D01*
X1237269D02*
X1250297D01*
X1237269D02*
Y875208D01*
X1250297D01*
Y881049D01*
X1237269D02*
X1250297D01*
X1237269D02*
Y886891D01*
X1250297D01*
Y892734D01*
X1237269D02*
X1250297D01*
X1237269D02*
Y898576D01*
X1250297D01*
Y904417D01*
X1237269D02*
X1250297D01*
X1237269D02*
Y910259D01*
X1250297D01*
Y916102D01*
X1237269D02*
X1250297D01*
X1237269D02*
Y921944D01*
X1250297D01*
Y927785D01*
X1249758D02*
X1250297D01*
X1249758D02*
Y928167D01*
Y796165D02*
Y805263D01*
X1204058Y975000D02*
X1249758Y929301D01*
Y928167D02*
Y929301D01*
X1090959Y930360D02*
X1300573Y720746D01*
Y563288D02*
X1307512Y556349D01*
X1085997Y931011D02*
X1284932Y732076D01*
Y512506D02*
X1291065Y506373D01*
X1074608Y933068D02*
X1253203Y754473D01*
X1069544Y933822D02*
X1237978Y765388D01*
X1031179Y520613D02*
X1031449Y520343D01*
X1043312Y508480D01*
X1044118Y509285D01*
X1048249Y505154D01*
X1044921Y501826D02*
X1048249Y505154D01*
X1044921Y501826D02*
X1049052Y497696D01*
X1054355Y502999D01*
X1058486Y498868D01*
X1053183Y493565D02*
X1058486Y498868D01*
X1053183Y493565D02*
X1057314Y489434D01*
X1062617Y494737D01*
X1066748Y490606D01*
X1061445Y485303D02*
X1066748Y490606D01*
X1061445Y485303D02*
X1065575Y481172D01*
X1070879Y486475D01*
X1075010Y482345D01*
X1069706Y477041D02*
X1075010Y482345D01*
X1069706Y477041D02*
X1073837Y472910D01*
X1079141Y478214D01*
X1083272Y474083D01*
X1077968Y468779D02*
X1083272Y474083D01*
X1077968Y468779D02*
X1082099Y464648D01*
X1087403Y469952D01*
X1091534Y465821D01*
X1086230Y460517D02*
X1091534Y465821D01*
X1086230Y460517D02*
X1090361Y456386D01*
X1095665Y461690D01*
X1099796Y457559D01*
X1094492Y452255D02*
X1099796Y457559D01*
X1094492Y452255D02*
X1098623Y448125D01*
X1103926Y453428D01*
X1108057Y449297D01*
X1102754Y443994D02*
X1108057Y449297D01*
X1102754Y443994D02*
X1106885Y439863D01*
X1109407Y442385D01*
X1109407Y442385D01*
Y442385D02*
X1109677Y442115D01*
X1114378Y437414D01*
X1043153Y526035D02*
X1043422Y525766D01*
X1043830Y525357D01*
X1043217Y524744D02*
X1043830Y525357D01*
X1043217Y524744D02*
X1047348Y520613D01*
X1050029Y523294D01*
X1054160Y519163D01*
X1049654Y514657D02*
X1054160Y519163D01*
X1049654Y514657D02*
X1053785Y510526D01*
X1058291Y515032D01*
X1062422Y510901D01*
X1057916Y506395D02*
X1062422Y510901D01*
X1057916Y506395D02*
X1062047Y502265D01*
X1066553Y506770D01*
X1070684Y502639D01*
X1066178Y498134D02*
X1070684Y502639D01*
X1066178Y498134D02*
X1070309Y494003D01*
X1074815Y498508D01*
X1078945Y494377D01*
X1074440Y489872D02*
X1078945Y494377D01*
X1074440Y489872D02*
X1078571Y485741D01*
X1083076Y490247D01*
X1087207Y486116D01*
X1082702Y481610D02*
X1087207Y486116D01*
X1082702Y481610D02*
X1086833Y477479D01*
X1091338Y481985D01*
X1095469Y477854D01*
X1090964Y473348D02*
X1095469Y477854D01*
X1090964Y473348D02*
X1095095Y469217D01*
X1099600Y473723D01*
X1103731Y469592D01*
X1099225Y465086D02*
X1103731Y469592D01*
X1099225Y465086D02*
X1103356Y460955D01*
X1107862Y465461D01*
X1111993Y461330D01*
X1107487Y456824D02*
X1111993Y461330D01*
X1107487Y456824D02*
X1111618Y452694D01*
X1116124Y457199D01*
X1120255Y453068D01*
X1115749Y448563D02*
X1120255Y453068D01*
X1115749Y448563D02*
X1119880Y444432D01*
X1122318Y446870D01*
X1122318Y446870D01*
Y446870D02*
X1122587Y446600D01*
X1040272Y528916D02*
X1043153Y526035D01*
X1122587Y446600D02*
X1128641Y440547D01*
X1052569Y539075D02*
X1052838Y538805D01*
X1059671Y531973D01*
X1059651Y531953D02*
X1059671Y531973D01*
X1059651Y531953D02*
X1063782Y527822D01*
X1067945Y531986D01*
X1072076Y527855D01*
X1066079Y521857D02*
X1072076Y527855D01*
X1066079Y521857D02*
X1070210Y517726D01*
X1076207Y523724D01*
X1080338Y519593D01*
X1074340Y513595D02*
X1080338Y519593D01*
X1074340Y513595D02*
X1078471Y509464D01*
X1084469Y515462D01*
X1088600Y511331D01*
X1082602Y505334D02*
X1088600Y511331D01*
X1082602Y505334D02*
X1086733Y501203D01*
X1092731Y507200D01*
X1096862Y503069D01*
X1090864Y497072D02*
X1096862Y503069D01*
X1090864Y497072D02*
X1094995Y492941D01*
X1100993Y498938D01*
X1105124Y494807D01*
X1099126Y488810D02*
X1105124Y494807D01*
X1099126Y488810D02*
X1103257Y484679D01*
X1109254Y490676D01*
X1113385Y486546D01*
X1107388Y480548D02*
X1113385Y486546D01*
X1107388Y480548D02*
X1111519Y476417D01*
X1117516Y482415D01*
X1121647Y478284D01*
X1115650Y472286D02*
X1121647Y478284D01*
X1115650Y472286D02*
X1119781Y468155D01*
X1125778Y474153D01*
X1129909Y470022D01*
X1123911Y464024D02*
X1129909Y470022D01*
X1123911Y464024D02*
X1128042Y459893D01*
X1134040Y465891D01*
X1138171Y461760D01*
X1132173Y455762D02*
X1138171Y461760D01*
X1132173Y455762D02*
X1136304Y451632D01*
X1138158Y453485D01*
X1138158Y453485D01*
Y453485D02*
X1138428Y453216D01*
X1047223Y544420D02*
X1052569Y539075D01*
X1138428Y453216D02*
X1141109Y450535D01*
X1072462Y551393D02*
X1072731Y551124D01*
X1082301Y541554D01*
X1088222Y547475D01*
X1092352Y543344D01*
X1085099Y536090D02*
X1092352Y543344D01*
X1085099Y536090D02*
X1089230Y531959D01*
X1096753Y539483D01*
X1100884Y535352D01*
X1093361Y527828D02*
X1100884Y535352D01*
X1093361Y527828D02*
X1097492Y523698D01*
X1105015Y531221D01*
X1109146Y527090D01*
X1101622Y519567D02*
X1109146Y527090D01*
X1101622Y519567D02*
X1105753Y515436D01*
X1113277Y522959D01*
X1117408Y518828D01*
X1109884Y511305D02*
X1117408Y518828D01*
X1109884Y511305D02*
X1114015Y507174D01*
X1121539Y514697D01*
X1125670Y510566D01*
X1118146Y503043D02*
X1125670Y510566D01*
X1118146Y503043D02*
X1122277Y498912D01*
X1129800Y506436D01*
X1133931Y502305D01*
X1126408Y494781D02*
X1133931Y502305D01*
X1126408Y494781D02*
X1130539Y490650D01*
X1138062Y498174D01*
X1142193Y494043D01*
X1134670Y486519D02*
X1142193Y494043D01*
X1134670Y486519D02*
X1138801Y482388D01*
X1146324Y489912D01*
X1150455Y485781D01*
X1142932Y478257D02*
X1150455Y485781D01*
X1142932Y478257D02*
X1147063Y474127D01*
X1154586Y481650D01*
X1158717Y477519D01*
X1151193Y469996D02*
X1158717Y477519D01*
X1151193Y469996D02*
X1155324Y465865D01*
X1156657Y467198D01*
X1156657Y467198D01*
Y467198D02*
X1156927Y466928D01*
X1069642Y554212D02*
X1072462Y551393D01*
X1156927Y466928D02*
X1160748Y463107D01*
X1095205Y557445D02*
X1095475Y557176D01*
X1096346Y556304D01*
X1096106Y556063D02*
X1096346Y556304D01*
X1096106Y556063D02*
X1100237Y551932D01*
X1106566Y558262D01*
X1110697Y554131D01*
X1102678Y546112D02*
X1110697Y554131D01*
X1102678Y546112D02*
X1106809Y541981D01*
X1114828Y550000D01*
X1118959Y545869D01*
X1110940Y537850D02*
X1118959Y545869D01*
X1110940Y537850D02*
X1115071Y533719D01*
X1123090Y541738D01*
X1127221Y537607D01*
X1119202Y529589D02*
X1127221Y537607D01*
X1119202Y529589D02*
X1123333Y525457D01*
X1131352Y533477D01*
X1135483Y529346D01*
X1127464Y521327D02*
X1135483Y529346D01*
X1127464Y521327D02*
X1131595Y517196D01*
X1139614Y525215D01*
X1143745Y521084D01*
X1135726Y513065D02*
X1143745Y521084D01*
X1135726Y513065D02*
X1139856Y508934D01*
X1147876Y516953D01*
X1152007Y512822D01*
X1143987Y504803D02*
X1152007Y512822D01*
X1143987Y504803D02*
X1148118Y500672D01*
X1156137Y508691D01*
X1160268Y504560D01*
X1152249Y496541D02*
X1160268Y504560D01*
X1152249Y496541D02*
X1156380Y492410D01*
X1164399Y500429D01*
X1168530Y496298D01*
X1160511Y488279D02*
X1168530Y496298D01*
X1160511Y488279D02*
X1164642Y484148D01*
X1172661Y492167D01*
X1176792Y488036D01*
X1168773Y480018D02*
X1176792Y488036D01*
X1168773Y480018D02*
X1172904Y475886D01*
X1174834Y477817D01*
X1174834Y477817D01*
Y477817D02*
X1175103Y477547D01*
X1090715Y561936D02*
X1095205Y557445D01*
X1175103Y477547D02*
X1182138Y470512D01*
X1117424Y571182D02*
X1117694Y570913D01*
X1130330Y558276D01*
X1130529Y558475D01*
X1134660Y554344D01*
X1133690Y553374D02*
X1134660Y554344D01*
X1133690Y553374D02*
X1137821Y549244D01*
X1146691Y558113D01*
X1150822Y553982D01*
X1141952Y545113D02*
X1150822Y553982D01*
X1141952Y545113D02*
X1146083Y540982D01*
X1154953Y549851D01*
X1159084Y545720D01*
X1150214Y536851D02*
X1159084Y545720D01*
X1150214Y536851D02*
X1154345Y532720D01*
X1163215Y541590D01*
X1167346Y537459D01*
X1158476Y528589D02*
X1167346Y537459D01*
X1158476Y528589D02*
X1162607Y524458D01*
X1171477Y533328D01*
X1175608Y529197D01*
X1166738Y520327D02*
X1175608Y529197D01*
X1166738Y520327D02*
X1170869Y516196D01*
X1179738Y525066D01*
X1183869Y520935D01*
X1175000Y512065D02*
X1183869Y520935D01*
X1175000Y512065D02*
X1179131Y507934D01*
X1188000Y516804D01*
X1192131Y512673D01*
X1183261Y503803D02*
X1192131Y512673D01*
X1183261Y503803D02*
X1187392Y499673D01*
X1196262Y508542D01*
X1200393Y504411D01*
X1191523Y495542D02*
X1200393Y504411D01*
X1191523Y495542D02*
X1195654Y491411D01*
X1204524Y500280D01*
X1208655Y496150D01*
X1199785Y487280D02*
X1208655Y496150D01*
X1199785Y487280D02*
X1203916Y483149D01*
X1204687Y483920D01*
X1204687Y483920D01*
Y483920D02*
X1204956Y483650D01*
X1113567Y575040D02*
X1117425Y571182D01*
X1204956Y483650D02*
X1210788Y477818D01*
X1134118Y579673D02*
X1134387Y579403D01*
X1146095Y567695D01*
X1153823Y575424D01*
X1157954Y571293D01*
X1149432Y562771D02*
X1157954Y571293D01*
X1149432Y562771D02*
X1153563Y558639D01*
X1163581Y568658D01*
X1167712Y564527D01*
X1157694Y554509D02*
X1167712Y564527D01*
X1157694Y554509D02*
X1161825Y550378D01*
X1171843Y560396D01*
X1175974Y556265D01*
X1165956Y546247D02*
X1175974Y556265D01*
X1165956Y546247D02*
X1170086Y542116D01*
X1180105Y552134D01*
X1184236Y548004D01*
X1174217Y537985D02*
X1184236Y548004D01*
X1174217Y537985D02*
X1178348Y533854D01*
X1188367Y543872D01*
X1192498Y539742D01*
X1182479Y529723D02*
X1192498Y539742D01*
X1182479Y529723D02*
X1186610Y525592D01*
X1196629Y535611D01*
X1200760Y531480D01*
X1190741Y521461D02*
X1200760Y531480D01*
X1190741Y521461D02*
X1194872Y517330D01*
X1204891Y527349D01*
X1209021Y523218D01*
X1199003Y513200D02*
X1209021Y523218D01*
X1199003Y513200D02*
X1203134Y509068D01*
X1213152Y519087D01*
X1217283Y514956D01*
X1207265Y504938D02*
X1217283Y514956D01*
X1207265Y504938D02*
X1211396Y500807D01*
X1212190Y501601D01*
X1212190Y501601D01*
Y501601D02*
X1212459Y501331D01*
X1127427Y586364D02*
X1134118Y579673D01*
X1212459Y501331D02*
X1225167Y488623D01*
X1160374Y583954D02*
X1160644Y583685D01*
X1164212Y580116D01*
X1170668Y586572D01*
X1174799Y582441D01*
X1166950Y574592D02*
X1174799Y582441D01*
X1166950Y574592D02*
X1171081Y570461D01*
X1181107Y580487D01*
X1185238Y576356D01*
X1175212Y566330D02*
X1185238Y576356D01*
X1175212Y566330D02*
X1179343Y562199D01*
X1189369Y572225D01*
X1193500Y568094D01*
X1183474Y558068D02*
X1193500Y568094D01*
X1183474Y558068D02*
X1187605Y553937D01*
X1197631Y563964D01*
X1201762Y559833D01*
X1191736Y549806D02*
X1201762Y559833D01*
X1191736Y549806D02*
X1195867Y545676D01*
X1205893Y555702D01*
X1210024Y551571D01*
X1199997Y541545D02*
X1210024Y551571D01*
X1199997Y541545D02*
X1204128Y537414D01*
X1214155Y547440D01*
X1218286Y543309D01*
X1208259Y533283D02*
X1218286Y543309D01*
X1208259Y533283D02*
X1212390Y529152D01*
X1222417Y539178D01*
X1226547Y535047D01*
X1216521Y525021D02*
X1226547Y535047D01*
X1216521Y525021D02*
X1220652Y520890D01*
X1222045Y522283D01*
X1222045Y522283D01*
Y522283D02*
X1222315Y522014D01*
X1147194Y597135D02*
X1160374Y583954D01*
X1222315Y522014D02*
X1274304Y470025D01*
X1182138Y470512D02*
X1233226D01*
X1244822Y458917D02*
X1258221D01*
X1233226Y470512D02*
X1244822Y458917D01*
X1160748Y463107D02*
X1227952D01*
X1249222Y437414D02*
X1260440Y426196D01*
X1265071D01*
X1227952Y463107D02*
X1231358Y459702D01*
X1128641Y440547D02*
X1299883D01*
X1320437Y419993D01*
X1114378Y437414D02*
X1249222D01*
X1225167Y488623D02*
X1249778D01*
X991291Y586364D02*
X1127427D01*
X1210788Y477818D02*
X1252120D01*
X998305Y575040D02*
X1113567D01*
X1310316Y450535D02*
X1339179Y421671D01*
X1141109Y450535D02*
X1310316D01*
X1007098Y561936D02*
X1090715D01*
X984831Y597135D02*
X1147194D01*
X1010511Y554212D02*
X1069642D01*
X1015993Y544420D02*
X1047223D01*
X954172Y627794D02*
X984831Y597135D01*
X1027187Y528916D02*
X1040272D01*
X1121786Y414187D02*
X1288208D01*
X1274304Y469603D02*
Y470025D01*
X1320437Y416131D02*
Y419993D01*
X1106326Y935286D02*
Y946106D01*
X1067510Y969792D02*
Y995001D01*
X1087956Y975000D02*
X1204058D01*
X1097510Y986533D02*
Y1025001D01*
X1087510Y975447D02*
X1087956Y975000D01*
X1087510Y975447D02*
Y1024554D01*
X1097510Y986533D02*
X1097956Y986087D01*
X1077511Y1045000D02*
X1097510Y1025001D01*
X1087064D02*
X1087510Y1024554D01*
X1067956Y1025001D02*
X1087064D01*
X1017510Y1045000D02*
X1077511D01*
X1090959Y930360D02*
Y933411D01*
X1085997Y931011D02*
Y934063D01*
X1101535Y950897D02*
X1106326Y946106D01*
X1069544Y933822D02*
Y937584D01*
X1074608Y933068D02*
Y936831D01*
X1077656Y934331D02*
Y938093D01*
X1077510Y975611D02*
X1101535Y951586D01*
Y950897D02*
Y951586D01*
X1077510Y975611D02*
Y1014554D01*
X1077064Y1015001D02*
X1077510Y1014554D01*
X918817Y991516D02*
X921976Y994675D01*
Y995306D01*
X922309Y1005008D02*
Y1029800D01*
X937282Y1044773D01*
X918817Y998465D02*
Y1001516D01*
X922309Y1005008D01*
X918817Y998465D02*
X921976Y995306D01*
X918817Y988465D02*
Y991516D01*
X959536Y954405D02*
X976895D01*
X939892Y964910D02*
X962629D01*
X946836Y975447D02*
X957956D01*
X937510Y977486D02*
Y1034554D01*
X976895Y954405D02*
X997500Y975010D01*
X971141Y959830D02*
X986321Y975010D01*
X974454Y956945D02*
X992500Y974990D01*
X1002511D02*
X1029835Y947666D01*
X1007510Y975000D02*
X1031797Y950714D01*
X1023918Y975000D02*
X1045665Y953254D01*
X1027510Y975000D02*
X1046717Y955794D01*
X1017510Y975000D02*
X1023918D01*
X1027510Y1004554D02*
X1027957Y1005001D01*
X1037064D01*
X1027510Y975000D02*
Y1004554D01*
X1037064Y1005001D02*
X1037510Y1005447D01*
Y1015001D01*
X1042500Y1019990D01*
Y1020000D01*
X1047510Y969791D02*
Y985010D01*
X1062511Y1000000D02*
X1067510Y995001D01*
X986321Y975010D02*
X987500D01*
X970089Y962370D02*
X977510Y969791D01*
X962629Y964910D02*
X967500Y969782D01*
Y1014990D01*
X937510Y1034554D02*
X937956Y1035001D01*
X1017510Y975000D02*
Y1014554D01*
X1007510Y975000D02*
Y1045001D01*
X1002511Y974990D02*
Y1039990D01*
X997500Y975010D02*
Y1044990D01*
X992500Y974990D02*
Y1010000D01*
X987500Y975010D02*
Y1014990D01*
X977510Y969791D02*
Y1005001D01*
X957956Y975447D02*
Y1025001D01*
X1017538Y1065001D02*
X1022510Y1060028D01*
X947271Y1044761D02*
X967510Y1065001D01*
X937619Y1044773D02*
X937630Y1044761D01*
X937282Y1044773D02*
X937619D01*
X937630Y1044761D02*
X947271D01*
X967510Y1065001D02*
X1017538D01*
X1012511Y1040000D02*
X1017510Y1045000D01*
X1012510Y1040000D02*
X1012511D01*
X1042510D02*
X1042516D01*
X1067064Y1035001D02*
X1067510Y1034554D01*
X1042516Y1040000D02*
X1047515Y1035001D01*
X1067510Y1025447D02*
Y1034554D01*
X1047515Y1035001D02*
X1067064D01*
X1067510Y1025447D02*
X1067956Y1025001D01*
X937956Y1035001D02*
X947510D01*
X957499Y1044990D01*
X987500D01*
X992490Y1049980D01*
Y1050001D01*
X987510Y1035001D02*
X992498Y1039989D01*
X992500D01*
X957510Y1035001D02*
X987510D01*
X947510Y1025001D02*
X957510Y1035001D01*
X957956Y1025001D02*
X977515D01*
X1252120Y477818D02*
X1257945Y471994D01*
X987500Y1014990D02*
X992500Y1019990D01*
Y1020000D01*
X997500Y1044990D02*
X1007510Y1055000D01*
X1027510Y1055001D02*
X1032510Y1050001D01*
Y1050000D02*
Y1050001D01*
X1017510Y1055001D02*
X1027510D01*
X1017510Y1055000D02*
X1017510Y1055001D01*
X1007510Y1055000D02*
X1017510D01*
X977515Y1025001D02*
X982500Y1020016D01*
Y1020000D02*
Y1020016D01*
X967500Y1014990D02*
X972515Y1020005D01*
Y1020011D01*
X972510Y1010000D02*
X977510Y1005001D01*
X972500Y1010000D02*
X972510D01*
X1007510Y1045001D02*
X1012510Y1050000D01*
X1027510Y1024554D02*
X1027957Y1025001D01*
X1027510Y1015447D02*
Y1024554D01*
X1032054Y1025001D02*
X1032500Y1025447D01*
Y1030005D01*
X1027957Y1025001D02*
X1032054D01*
X1017957Y1015001D02*
X1027064D01*
X1027510Y1015447D01*
X1017510Y1014554D02*
X1017957Y1015001D01*
X1037510Y995001D02*
X1047510Y1005001D01*
Y1025001D01*
X1052500Y1029990D01*
Y1030005D01*
X1047510Y985010D02*
X1052500Y990000D01*
X1062500Y1000000D02*
X1062511D01*
X1062511Y1020000D02*
X1067510Y1015001D01*
X1062500Y1020000D02*
X1062511D01*
X1067510Y1015001D02*
X1077064D01*
X577500Y1012001D02*
Y1012001D01*
D214*
X855000Y1078810D02*
X875950D01*
X855000Y1080842D02*
X876792D01*
X877606Y1077154D02*
X899956D01*
X878448Y1079186D02*
X901079D01*
X876792Y1080842D02*
X878448Y1079186D01*
X875950Y1078810D02*
X877606Y1077154D01*
X819960Y1080842D02*
X855000D01*
X773058Y1033941D02*
X819960Y1080842D01*
X820802Y1078810D02*
X855000D01*
X774495Y1032504D02*
X820802Y1078810D01*
X900892Y1076218D02*
X905305D01*
X901079Y1079186D02*
X901660Y1079768D01*
X905305Y1076218D02*
X909101Y1080014D01*
X899956Y1077154D02*
X900892Y1076218D01*
X901660Y1079768D02*
X902470D01*
Y1080028D01*
X590516Y981437D02*
X593099Y984020D01*
X590516Y980595D02*
X591111Y980000D01*
X590516Y980595D02*
Y981437D01*
X588484Y982279D02*
X592257Y986052D01*
X588484Y980595D02*
Y982279D01*
X587889Y980000D02*
X588484Y980595D01*
X907510Y1115000D02*
X927510D01*
X937530Y1065282D02*
Y1104981D01*
X927510Y1115000D02*
X937530Y1104981D01*
X805838Y933328D02*
X927510Y1055001D01*
X937510Y1055596D02*
Y1065263D01*
X927510Y1055001D02*
X936915D01*
X937510Y1055596D01*
Y1065263D02*
X937530Y1065282D01*
X877493Y1034983D02*
X897493D01*
X902510Y1040000D02*
X902510D01*
X547552Y933328D02*
X805838D01*
X872510Y1030000D02*
X877493Y1034983D01*
X897493D02*
X902510Y1040000D01*
X541548Y1032623D02*
X633751Y1124827D01*
X566748Y950142D02*
X675500D01*
X549500Y967391D02*
X566748Y950142D01*
X719835D02*
X723844Y954151D01*
X675500Y950142D02*
X719835D01*
X549500Y967391D02*
Y976000D01*
X541500Y959906D02*
X559188Y942218D01*
X541500Y959906D02*
Y968000D01*
X559188Y942218D02*
X738717D01*
X867349Y1104725D02*
X877074Y1095001D01*
X907510D01*
X862611Y1099899D02*
X877510Y1085001D01*
X917470D01*
X922550Y1090080D01*
X909101Y1080014D02*
X912496D01*
X907350Y1064840D02*
X927510Y1085001D01*
X912496Y1080014D02*
X912510Y1080000D01*
X887510Y1105001D02*
X917510D01*
X892510Y1110001D02*
Y1119790D01*
X887474Y1124827D02*
X892510Y1119790D01*
X902510Y1110000D02*
X907510Y1115000D01*
X872510Y1110001D02*
X882590Y1099921D01*
X877510Y1115000D02*
X887510Y1105001D01*
X917510D02*
X922590Y1099921D01*
X882590Y1099921D02*
X892550D01*
X907510Y1095001D02*
X912510Y1100000D01*
X816163Y1095001D02*
X860550D01*
X834533Y1064840D02*
X907350D01*
X826499Y1030000D02*
X872510D01*
X741944Y972251D02*
X834533Y1064840D01*
X785271Y988772D02*
X826499Y1030000D01*
X668885Y1124827D02*
X887474D01*
X753716Y1110001D02*
X872510D01*
X723376Y1115000D02*
X877510D01*
X796681Y1099899D02*
X862611D01*
X772225Y1104725D02*
X867349D01*
X713577Y992415D02*
X714836Y993674D01*
X765328Y1044166D02*
X816163Y1095001D01*
X742967Y1046185D02*
X796681Y1099899D01*
X751644Y1084144D02*
X772225Y1104725D01*
X733590Y1089874D02*
X753716Y1110001D01*
X697480Y1000698D02*
X698762Y1001981D01*
X664501Y1115000D02*
X666207D01*
X577501Y1028000D02*
X664501Y1115000D01*
X558344Y1016001D02*
X565500D01*
X549500D02*
X557500Y1024000D01*
X557749Y1002464D02*
Y1015405D01*
X565500Y1005774D02*
Y1008000D01*
X565500Y1016001D02*
X569500Y1020001D01*
X557500Y1024000D02*
X573501D01*
X565500Y1008000D02*
X569500Y1012000D01*
X557749Y1015405D02*
X558344Y1016001D01*
X659716D02*
X689756Y1046040D01*
X675500Y1008000D02*
X695027Y1027527D01*
X633751Y1124827D02*
X635279D01*
X572802Y1000698D02*
X697480D01*
X569500Y1004000D02*
X572802Y1000698D01*
X573500Y1008000D02*
X675500D01*
X573500Y1016001D02*
X659716D01*
X548905Y1008000D02*
X549500Y1008595D01*
Y1016001D01*
X569500Y1012000D02*
X573500Y1008000D01*
X569500Y1020001D02*
X569500D01*
X569500D02*
X573500Y1016001D01*
X573501Y1024000D02*
X577501Y1028000D01*
X922590Y1099921D02*
Y1099921D01*
X927510Y1095000D02*
X932510Y1100000D01*
X927510Y1085001D02*
Y1095000D01*
X495045Y1014836D02*
X519226D01*
X464994Y1015370D02*
X475181Y1005184D01*
X492205Y990706D02*
X519111D01*
X480466Y995532D02*
X517518D01*
X473609Y988675D02*
X480466Y995532D01*
X428033Y997590D02*
X472342D01*
X513500Y1005184D02*
X515277Y1003407D01*
X484631Y1010010D02*
X513500D01*
X472342Y997590D02*
X475109Y1000358D01*
X475181Y1005184D02*
X513500D01*
X513500Y1010010D02*
X515510Y1008000D01*
X475109Y1000358D02*
X518869D01*
X428033Y988675D02*
X473609D01*
X469465Y926470D02*
X506595Y963600D01*
X472394Y970895D02*
X492205Y990706D01*
X463115Y944250D02*
X496130Y977266D01*
X466926Y958602D02*
X494204Y985880D01*
X467768Y956570D02*
X495046Y983848D01*
X467494Y935360D02*
X504134Y972000D01*
X529194Y951686D02*
Y963600D01*
Y951686D02*
X547552Y933328D01*
X541548Y1016048D02*
Y1032623D01*
X537547Y1012048D02*
X541548Y1016048D01*
X537547Y1012048D02*
X537547D01*
X519226Y1014836D02*
X522014Y1012048D01*
X537547D01*
X537500Y972000D02*
X541500Y968000D01*
X504134Y972000D02*
X513500D01*
X513500Y972000D02*
X537500D01*
X513500Y972000D02*
X513500Y972000D01*
X506595Y963600D02*
X529194D01*
X521651Y988166D02*
X553122D01*
X515277Y1003407D02*
X528181D01*
X515510Y1008000D02*
X548905D01*
X517518Y995532D02*
X521155Y991894D01*
X531379Y1000209D02*
X555494D01*
X519111Y990706D02*
X521651Y988166D01*
X521155Y991894D02*
X557394D01*
X556026Y996300D02*
X565500Y1005774D01*
X522927Y996300D02*
X556026D01*
X555494Y1000209D02*
X557749Y1002464D01*
X557394Y991894D02*
X569500Y1004000D01*
X518869Y1000358D02*
X522927Y996300D01*
X528181Y1003407D02*
X531379Y1000209D01*
X428033Y1033150D02*
X476730D01*
X428033Y1015370D02*
X464994D01*
X476730Y1033150D02*
X495045Y1014836D01*
X470355Y1024286D02*
X484631Y1010010D01*
X428033Y1024286D02*
X470355D01*
X428020Y935360D02*
X467494D01*
X431463Y956570D02*
X467768D01*
X428033Y926470D02*
X469465D01*
X428033Y962032D02*
X431463Y958602D01*
X466926D01*
X428033Y970895D02*
X472394D01*
X428033Y944250D02*
X463115D01*
X428033Y953140D02*
X431463Y956570D01*
X545500Y980000D02*
X549500Y976000D01*
X513500Y977266D02*
X516234Y980000D01*
X496130Y977266D02*
X513500D01*
X516234Y980000D02*
X545500D01*
X495046Y983848D02*
X550421D01*
X494204Y985880D02*
X551263D01*
X738717Y942218D02*
X740307Y943808D01*
X592257Y986052D02*
X725170D01*
X589915Y992415D02*
X713577D01*
X593099Y984020D02*
X726012D01*
X725170Y986052D02*
X727269Y988151D01*
X726012Y984020D02*
X728706Y986714D01*
X553500Y970225D02*
X563725Y960000D01*
X564567Y962032D02*
X574690D01*
X555532Y971067D02*
X564567Y962032D01*
X563725Y960000D02*
X575532D01*
X561500Y972000D02*
X565500Y968000D01*
X572905D02*
X573500Y968595D01*
X565500Y968000D02*
X572905D01*
X588484Y975826D02*
Y979405D01*
X591111Y980000D02*
X593500D01*
X590516Y974985D02*
Y979405D01*
X591111Y980000D01*
X575532Y960000D02*
X590516Y974985D01*
X585500Y980000D02*
X587889D01*
X573500Y976000D02*
X589915Y992415D01*
X573500Y968595D02*
Y976000D01*
X574690Y962032D02*
X588484Y975826D01*
X587889Y980000D02*
X588484Y979405D01*
X555532Y971067D02*
Y981610D01*
X553500Y970225D02*
Y980769D01*
X551263Y985880D02*
X555532Y981610D01*
X561500Y972000D02*
Y979788D01*
Y972000D02*
Y972000D01*
X550421Y983848D02*
X553500Y980769D01*
X553122Y988166D02*
X561500Y979788D01*
X714836Y993674D02*
X717553Y996391D01*
X720129Y993816D01*
X724439Y998126D01*
X714872Y1007693D02*
X724439Y998126D01*
X714872Y1007693D02*
X719183Y1012003D01*
X728792Y1002395D01*
X733102Y1006705D01*
X723493Y1016314D02*
X733102Y1006705D01*
X723493Y1016314D02*
X727804Y1020624D01*
X737413Y1011016D01*
X741723Y1015326D01*
X731516Y1025534D02*
X741723Y1015326D01*
X731516Y1025534D02*
X735826Y1029844D01*
X746034Y1019637D01*
X750344Y1023947D01*
X738949Y1035342D02*
X750344Y1023947D01*
X738949Y1035342D02*
X743260Y1039653D01*
X754655Y1028258D01*
X758965Y1032568D01*
X747570Y1043963D02*
X758965Y1032568D01*
X747570Y1043963D02*
X751881Y1048274D01*
X763276Y1036879D01*
X767586Y1041189D01*
X764969Y1043807D02*
X767586Y1041189D01*
X764969Y1043807D02*
X765328Y1044166D01*
X729295Y1032514D02*
X742967Y1046185D01*
X723330Y1038479D02*
X729295Y1032514D01*
X719020Y1034168D02*
X723330Y1038479D01*
X719020Y1034168D02*
X726771Y1026417D01*
X722460Y1022106D02*
X726771Y1026417D01*
X710990Y1033577D02*
X722460Y1022106D01*
X706679Y1029266D02*
X710990Y1033577D01*
X706679Y1029266D02*
X718150Y1017796D01*
X713839Y1013485D02*
X718150Y1017796D01*
X701491Y1025834D02*
X713839Y1013485D01*
X697180Y1021523D02*
X701491Y1025834D01*
X697180Y1021523D02*
X709529Y1009175D01*
X705219Y1004864D02*
X709529Y1009175D01*
X692204Y1017879D02*
X705219Y1004864D01*
X687893Y1013568D02*
X692204Y1017879D01*
X687893Y1013568D02*
X699122Y1002340D01*
X698762Y1001981D02*
X699122Y1002340D01*
X742802Y1075302D02*
X751644Y1084144D01*
X742144Y1075961D02*
X742802Y1075302D01*
X737833Y1071650D02*
X742144Y1075961D01*
X737833Y1071650D02*
X740036Y1069448D01*
X735725Y1065137D02*
X740036Y1069448D01*
X725702Y1075161D02*
X735725Y1065137D01*
X721391Y1070850D02*
X725702Y1075161D01*
X721391Y1070850D02*
X731414Y1060827D01*
X727104Y1056516D02*
X731414Y1060827D01*
X717081Y1066540D02*
X727104Y1056516D01*
X712770Y1062229D02*
X717081Y1066540D01*
X712770Y1062229D02*
X722794Y1052206D01*
X718483Y1047895D02*
X722794Y1052206D01*
X710063Y1056315D02*
X718483Y1047895D01*
X705752Y1052005D02*
X710063Y1056315D01*
X705752Y1052005D02*
X714172Y1043585D01*
X709862Y1039274D02*
X714172Y1043585D01*
X702089Y1047047D02*
X709862Y1039274D01*
X697779Y1042736D02*
X702089Y1047047D01*
X697779Y1042736D02*
X705551Y1034964D01*
X701241Y1030653D02*
X705551Y1034964D01*
X691217Y1040677D02*
X701241Y1030653D01*
X686907Y1036366D02*
X691217Y1040677D01*
X686907Y1036366D02*
X695387Y1027886D01*
X695027Y1027527D02*
X695387Y1027886D01*
X720289Y1076573D02*
X733590Y1089874D01*
X711795Y1085068D02*
X720289Y1076573D01*
X707484Y1080758D02*
X711795Y1085068D01*
X707484Y1080758D02*
X715979Y1072263D01*
X711668Y1067952D02*
X715979Y1072263D01*
X698456Y1081164D02*
X711668Y1067952D01*
X694146Y1076854D02*
X698456Y1081164D01*
X694146Y1076854D02*
X708005Y1062995D01*
X703695Y1058684D02*
X708005Y1062995D01*
X689835Y1072543D02*
X703695Y1058684D01*
X685525Y1068233D02*
X689835Y1072543D01*
X685525Y1068233D02*
X700987Y1052770D01*
X696677Y1048459D02*
X700987Y1052770D01*
X681214Y1063922D02*
X696677Y1048459D01*
X676904Y1059612D02*
X681214Y1063922D01*
X676904Y1059612D02*
X690116Y1046400D01*
X689756Y1046040D02*
X690116Y1046400D01*
X715483Y1115000D02*
X723376D01*
X715483Y1111101D02*
Y1115000D01*
X709387Y1111101D02*
X715483D01*
X709387D02*
Y1118757D01*
X703291D02*
X709387D01*
X703291Y1101399D02*
Y1118757D01*
X697195Y1101399D02*
X703291D01*
X697195D02*
Y1118757D01*
X691099D02*
X697195D01*
X691099Y1101399D02*
Y1118757D01*
X685003Y1101399D02*
X691099D01*
X685003D02*
Y1118757D01*
X678907D02*
X685003D01*
X678907Y1101399D02*
Y1118757D01*
X672811Y1101399D02*
X678907D01*
X672811D02*
Y1118757D01*
X666715D02*
X672811D01*
X666715Y1115000D02*
Y1118757D01*
X666207Y1115000D02*
X666715D01*
X666267Y1124827D02*
X668885D01*
X666267D02*
Y1145884D01*
X660171D02*
X666267D01*
X660171Y1123340D02*
Y1145884D01*
X654075Y1123340D02*
X660171D01*
X654075D02*
Y1146343D01*
X647979D02*
X654075D01*
X647979Y1123340D02*
Y1146343D01*
X641883Y1123340D02*
X647979D01*
X641883D02*
Y1146343D01*
X635787D02*
X641883D01*
X635787Y1124827D02*
Y1146343D01*
X635279Y1124827D02*
X635787D01*
X737135Y967442D02*
X741944Y972251D01*
X735492Y969085D02*
X737135Y967442D01*
X731182Y964774D02*
X735492Y969085D01*
X731182Y964774D02*
X736847Y959109D01*
X732536Y954799D02*
X736847Y959109D01*
X708679Y978656D02*
X732536Y954799D01*
X704369Y974346D02*
X708679Y978656D01*
X704369Y974346D02*
X724204Y954511D01*
X723844Y954151D02*
X724204Y954511D01*
X732888Y991246D02*
X738158Y985976D01*
X771683Y1030040D02*
Y1032565D01*
X756820Y1021914D02*
Y1023598D01*
X751068Y996056D02*
X755378Y1000367D01*
X762562Y1007551D02*
X766873Y1011861D01*
X771683Y1032565D02*
X773058Y1033941D01*
X733830Y998925D02*
X742469Y990287D01*
X750826Y1017604D02*
X752509D01*
X733830Y998925D02*
Y1000608D01*
X745325Y1012103D02*
X750826Y1017604D01*
X741014Y1006109D02*
X751068Y996056D01*
X727269Y988151D02*
X730363Y991246D01*
X764004Y1029099D02*
X774057Y1019045D01*
X739331Y1006109D02*
X741014D01*
X738158Y985976D02*
X742469Y990287D01*
X756820Y1023598D02*
X762321Y1029099D01*
X733830Y1000608D02*
X739331Y1006109D01*
X745325Y1010420D02*
X755378Y1000367D01*
X762321Y1029099D02*
X764004D01*
X730363Y991246D02*
X732888D01*
X756820Y1021914D02*
X766873Y1011861D01*
X752509Y1017604D02*
X762562Y1007551D01*
X771683Y1030040D02*
X778367Y1023356D01*
X774057Y1019045D02*
X778367Y1023356D01*
X745325Y1010420D02*
Y1012103D01*
X757410Y999525D02*
Y1001208D01*
X763404Y1005519D02*
X768905Y1011020D01*
X758852Y1022756D02*
X768905Y1012703D01*
X731205Y989214D02*
X732047D01*
X758852Y1022756D02*
X763162Y1027067D01*
X768905Y1011020D02*
Y1012703D01*
X740173Y1004077D02*
X750226Y994024D01*
X744501Y989445D02*
Y991128D01*
X773715Y1030882D02*
X780399Y1024198D01*
X751909Y994024D02*
X757410Y999525D01*
X732047Y989214D02*
X737317Y983944D01*
X747357Y1011261D02*
X751668Y1015572D01*
X773715Y1031724D02*
X774495Y1032504D01*
X737317Y983944D02*
X739000D01*
X728705Y986714D02*
X731205Y989214D01*
X763162Y1027067D02*
X773215Y1017013D01*
X751668Y1015572D02*
X761721Y1005519D01*
X774899Y1017013D02*
X780399Y1022514D01*
X739000Y983944D02*
X744501Y989445D01*
X747357Y1011261D02*
X757410Y1001208D01*
X728705Y986714D02*
X728706D01*
X773715Y1030882D02*
Y1031724D01*
X774495Y1032504D02*
X774495D01*
X735862Y999767D02*
X744501Y991128D01*
X773215Y1017013D02*
X774899D01*
X780399Y1022514D02*
Y1024198D01*
X750226Y994024D02*
X751909D01*
X761721Y1005519D02*
X763404D01*
X735862Y999767D02*
X740173Y1004077D01*
X775150Y978652D02*
X785271Y988772D01*
X775150Y978652D02*
X778777Y975025D01*
X774466Y970715D02*
X778777Y975025D01*
X766320Y978861D02*
X774466Y970715D01*
X762009Y974550D02*
X766320Y978861D01*
X762009Y974550D02*
X774427Y962133D01*
X770117Y957822D02*
X774427Y962133D01*
X757699Y970240D02*
X770117Y957822D01*
X753388Y965929D02*
X757699Y970240D01*
X753388Y965929D02*
X765806Y953512D01*
X761496Y949201D02*
X765806Y953512D01*
X749078Y961619D02*
X761496Y949201D01*
X744767Y957308D02*
X749078Y961619D01*
X744767Y957308D02*
X757185Y944891D01*
X752875Y940580D02*
X757185Y944891D01*
X740457Y952998D02*
X752875Y940580D01*
X736146Y948687D02*
X740457Y952998D01*
X736146Y948687D02*
X740666Y944167D01*
X740307Y943808D02*
X740666Y944167D01*
D217*
X45720Y1955800D02*
D03*
X1174400Y924704D02*
D03*
X824400Y1274704D02*
D03*
X45720Y45720D02*
D03*
X1955800D02*
D03*
Y1955800D02*
D03*
D218*
X1927606Y1719326D02*
D03*
X1978406D02*
D03*
Y1770126D02*
D03*
X1927606D02*
D03*
X1953006Y1744726D02*
D03*
X1954530Y1573127D02*
D03*
X1929130Y1598527D02*
D03*
X1979930D02*
D03*
Y1547727D02*
D03*
X1929130D02*
D03*
X1954530Y1456287D02*
D03*
X1929130Y1481687D02*
D03*
X1979930D02*
D03*
Y1430887D02*
D03*
X1929130D02*
D03*
X1953006Y1861566D02*
D03*
X1927606Y1886966D02*
D03*
X1978406D02*
D03*
Y1836166D02*
D03*
X1927606D02*
D03*
D219*
X1933980Y591820D02*
D03*
Y464820D02*
D03*
D220*
X1908580Y563880D02*
D03*
D221*
Y543560D02*
D03*
Y523240D02*
D03*
Y502920D02*
D03*
X1890800Y553720D02*
D03*
Y533400D02*
D03*
Y513080D02*
D03*
Y492760D02*
D03*
X1842540Y596900D02*
D03*
Y482600D02*
D03*
Y459740D02*
D03*
Y574040D02*
D03*
D222*
X1884680Y301500D02*
D03*
Y181100D02*
D03*
X1797320Y982800D02*
D03*
Y1024800D02*
D03*
Y1066800D02*
D03*
X1852320Y982800D02*
D03*
Y1024800D02*
D03*
D223*
X1857680Y228800D02*
D03*
Y253800D02*
D03*
X1837680Y228800D02*
D03*
Y253800D02*
D03*
D224*
X1373680Y487570D02*
D03*
X1384380D02*
D03*
X1395080D02*
D03*
X1373680Y476870D02*
D03*
X1384380D02*
D03*
X1395080D02*
D03*
X1373680Y466170D02*
D03*
X1384380D02*
D03*
X1395080D02*
D03*
D225*
X1940560Y712800D02*
D03*
D226*
Y762800D02*
D03*
Y812800D02*
D03*
Y862800D02*
D03*
D227*
X1852320Y1066800D02*
D03*
D228*
X1472438Y1219454D02*
D03*
X1487973Y1239192D02*
D03*
X567015Y507559D02*
D03*
Y629464D02*
D03*
Y609145D02*
D03*
Y588825D02*
D03*
Y548185D02*
D03*
Y527864D02*
D03*
X798155Y712014D02*
D03*
Y691694D02*
D03*
X818475D02*
D03*
X798155Y671375D02*
D03*
X818475D02*
D03*
X838795D02*
D03*
Y691694D02*
D03*
X818475Y712014D02*
D03*
X838795D02*
D03*
X798155Y590094D02*
D03*
Y549454D02*
D03*
X818475D02*
D03*
Y590094D02*
D03*
X838795Y549454D02*
D03*
Y590094D02*
D03*
X798155Y569775D02*
D03*
X587335Y588825D02*
D03*
X818475Y569775D02*
D03*
X587335Y548185D02*
D03*
X567015Y568504D02*
D03*
X587335D02*
D03*
X838795Y569775D02*
D03*
X798155Y610415D02*
D03*
Y651055D02*
D03*
Y630734D02*
D03*
X818475D02*
D03*
X838795D02*
D03*
X818475Y651055D02*
D03*
X838795D02*
D03*
X818475Y610415D02*
D03*
X838795D02*
D03*
X798155Y508829D02*
D03*
Y529134D02*
D03*
X818475D02*
D03*
Y508829D02*
D03*
X838795D02*
D03*
Y529134D02*
D03*
X567015Y649784D02*
D03*
Y670105D02*
D03*
X587335Y649784D02*
D03*
Y670105D02*
D03*
Y710744D02*
D03*
Y690424D02*
D03*
X567015D02*
D03*
Y710744D02*
D03*
X607655Y670105D02*
D03*
Y710744D02*
D03*
Y690424D02*
D03*
Y649784D02*
D03*
X587335Y629464D02*
D03*
X607655Y548185D02*
D03*
Y568504D02*
D03*
Y629464D02*
D03*
Y588825D02*
D03*
X587335Y609145D02*
D03*
X607655D02*
D03*
X587335Y527864D02*
D03*
Y507559D02*
D03*
X607655D02*
D03*
Y527864D02*
D03*
X587335Y304359D02*
D03*
Y344999D02*
D03*
Y324679D02*
D03*
Y284039D02*
D03*
X567015D02*
D03*
X838795Y366589D02*
D03*
X818475D02*
D03*
X838795Y427549D02*
D03*
X798155Y468189D02*
D03*
Y366589D02*
D03*
Y427549D02*
D03*
Y407229D02*
D03*
X818475Y386909D02*
D03*
Y407229D02*
D03*
Y447869D02*
D03*
Y468189D02*
D03*
Y427549D02*
D03*
X838795Y386909D02*
D03*
Y407229D02*
D03*
Y468189D02*
D03*
Y447869D02*
D03*
X567015Y426279D02*
D03*
Y385639D02*
D03*
Y324679D02*
D03*
Y344999D02*
D03*
Y365319D02*
D03*
Y487239D02*
D03*
Y446599D02*
D03*
Y405959D02*
D03*
Y466919D02*
D03*
X818475Y346269D02*
D03*
X838795Y325949D02*
D03*
Y305629D02*
D03*
Y346269D02*
D03*
X818475Y305629D02*
D03*
X798155D02*
D03*
X818475Y325949D02*
D03*
X798155Y346269D02*
D03*
Y325949D02*
D03*
X587335Y487239D02*
D03*
X567015Y304359D02*
D03*
X607655Y324679D02*
D03*
Y304359D02*
D03*
Y344999D02*
D03*
Y284039D02*
D03*
Y487239D02*
D03*
X587335Y365319D02*
D03*
Y385639D02*
D03*
Y405959D02*
D03*
Y426279D02*
D03*
Y466919D02*
D03*
Y446599D02*
D03*
X607655Y385639D02*
D03*
Y365319D02*
D03*
Y446599D02*
D03*
Y466919D02*
D03*
Y405959D02*
D03*
Y426279D02*
D03*
X798155Y386909D02*
D03*
Y447869D02*
D03*
Y488509D02*
D03*
X818475D02*
D03*
X838795D02*
D03*
X829930Y1725196D02*
D03*
X878630Y1782534D02*
D03*
X1686951Y1057600D02*
D03*
X1710466Y1136166D02*
D03*
X1701800Y1136340D02*
D03*
X1677653D02*
D03*
X1666669D02*
D03*
X1653975D02*
D03*
X1907540Y1225865D02*
D03*
X1275563Y499307D02*
D03*
X1532654Y1404801D02*
D03*
X906099Y949076D02*
D03*
X863778Y948843D02*
D03*
X973106Y938822D02*
D03*
X852069Y1190759D02*
D03*
X851926Y1149292D02*
D03*
X872510Y1230000D02*
D03*
X899101Y1241684D02*
D03*
X875919D02*
D03*
X965260Y1248336D02*
D03*
X1007510D02*
D03*
X1072510Y1248288D02*
D03*
X1029760D02*
D03*
X1144079Y1171479D02*
D03*
X1150532Y1193293D02*
D03*
X1150451Y1187250D02*
D03*
Y1167250D02*
D03*
Y1127250D02*
D03*
X1150536Y1081285D02*
D03*
X1150660Y1042751D02*
D03*
Y1018037D02*
D03*
Y1026731D02*
D03*
X1151044Y965000D02*
D03*
Y1007251D02*
D03*
X1106388Y958424D02*
D03*
X917078Y949854D02*
D03*
X1082510Y1159769D02*
D03*
X922490Y1160023D02*
D03*
X1052500Y990000D02*
D03*
X1052510Y970000D02*
D03*
X537210Y1052830D02*
D03*
X428033Y1068710D02*
D03*
Y1086490D02*
D03*
X715122Y1266464D02*
D03*
Y1286784D02*
D03*
X735442D02*
D03*
Y1266464D02*
D03*
X754492D02*
D03*
Y1286784D02*
D03*
X694802Y1266464D02*
D03*
Y1286784D02*
D03*
X774812Y1266464D02*
D03*
Y1286784D02*
D03*
X274320Y1272525D02*
D03*
Y1252205D02*
D03*
Y1292860D02*
D03*
Y1333500D02*
D03*
Y1353820D02*
D03*
Y1313180D02*
D03*
Y1374140D02*
D03*
Y1394460D02*
D03*
X1520190Y1430020D02*
D03*
X1540510D02*
D03*
Y1450340D02*
D03*
X1520190D02*
D03*
X1560830D02*
D03*
X1581150D02*
D03*
Y1430020D02*
D03*
X1560830D02*
D03*
X1718310Y1389380D02*
D03*
X1483360Y1553030D02*
D03*
X1493520D02*
D03*
Y1542870D02*
D03*
X1483360D02*
D03*
X1883410Y1921510D02*
D03*
Y1941830D02*
D03*
Y1960880D02*
D03*
Y1981200D02*
D03*
X1822450D02*
D03*
X1842770D02*
D03*
X1863090D02*
D03*
Y1960880D02*
D03*
X1842770D02*
D03*
X1822450D02*
D03*
Y1941830D02*
D03*
X1842770D02*
D03*
X1863090D02*
D03*
Y1921510D02*
D03*
X1842770D02*
D03*
X1822450D02*
D03*
X1438910D02*
D03*
X1459230D02*
D03*
X1479550D02*
D03*
Y1941830D02*
D03*
X1459230D02*
D03*
X1438910D02*
D03*
Y1960880D02*
D03*
X1459230D02*
D03*
X1479550D02*
D03*
Y1981200D02*
D03*
X1459230D02*
D03*
X1438910D02*
D03*
X1499870D02*
D03*
X1520190D02*
D03*
X1540510D02*
D03*
Y1960880D02*
D03*
X1520190D02*
D03*
X1499870D02*
D03*
Y1941830D02*
D03*
X1520190D02*
D03*
X1540510D02*
D03*
Y1921510D02*
D03*
X1520190D02*
D03*
X1499870D02*
D03*
X1560830D02*
D03*
X1581150D02*
D03*
X1601470D02*
D03*
Y1941830D02*
D03*
X1581150D02*
D03*
X1560830D02*
D03*
Y1960880D02*
D03*
X1581150D02*
D03*
X1601470D02*
D03*
Y1981200D02*
D03*
X1581150D02*
D03*
X1560830D02*
D03*
X1661160D02*
D03*
X1681480D02*
D03*
X1701800D02*
D03*
Y1960880D02*
D03*
X1681480D02*
D03*
X1661160D02*
D03*
Y1941830D02*
D03*
X1681480D02*
D03*
X1701800D02*
D03*
X1661160Y1921510D02*
D03*
X1620520D02*
D03*
X1640840D02*
D03*
Y1941830D02*
D03*
X1620520D02*
D03*
Y1960880D02*
D03*
X1640840D02*
D03*
Y1981200D02*
D03*
X1620520D02*
D03*
X1720850D02*
D03*
X1741170D02*
D03*
Y1960880D02*
D03*
X1720850D02*
D03*
Y1941830D02*
D03*
X1741170D02*
D03*
Y1921510D02*
D03*
X1720850D02*
D03*
X1761490D02*
D03*
X1781810D02*
D03*
X1802130D02*
D03*
Y1941830D02*
D03*
X1781810D02*
D03*
X1761490D02*
D03*
Y1960880D02*
D03*
X1781810D02*
D03*
X1802130D02*
D03*
Y1981200D02*
D03*
X1781810D02*
D03*
X1761490D02*
D03*
X1984369Y1374726D02*
D03*
X1964049D02*
D03*
X1943729D02*
D03*
X1950048Y1502926D02*
D03*
X1970368D02*
D03*
Y1523246D02*
D03*
X1950048D02*
D03*
X1929728D02*
D03*
Y1502926D02*
D03*
X1931670Y1635760D02*
D03*
Y1656080D02*
D03*
X1951990D02*
D03*
X1972310D02*
D03*
Y1635760D02*
D03*
X1951990D02*
D03*
X1729740Y1673860D02*
D03*
X1750060D02*
D03*
X1770380D02*
D03*
Y1694180D02*
D03*
X1750060D02*
D03*
X1729740D02*
D03*
X1790700D02*
D03*
X1811020D02*
D03*
X1831340D02*
D03*
Y1673860D02*
D03*
X1811020D02*
D03*
X1790700D02*
D03*
X1871980D02*
D03*
X1851660Y1694180D02*
D03*
X1951990D02*
D03*
X1972310D02*
D03*
Y1673860D02*
D03*
X1951990D02*
D03*
X1911350D02*
D03*
X1931670D02*
D03*
Y1694180D02*
D03*
X1911350D02*
D03*
X1346200Y1673860D02*
D03*
X1366520D02*
D03*
X1386840D02*
D03*
Y1694180D02*
D03*
X1366520D02*
D03*
X1346200D02*
D03*
X1407160D02*
D03*
X1427480D02*
D03*
X1447800D02*
D03*
Y1673860D02*
D03*
X1427480D02*
D03*
X1407160D02*
D03*
X1468120D02*
D03*
X1488440D02*
D03*
X1508760D02*
D03*
Y1694180D02*
D03*
X1488440D02*
D03*
X1468120D02*
D03*
X1568450D02*
D03*
X1588770D02*
D03*
X1609090D02*
D03*
Y1673860D02*
D03*
X1588770D02*
D03*
X1568450D02*
D03*
X1527810D02*
D03*
X1548130D02*
D03*
Y1694180D02*
D03*
X1527810D02*
D03*
X1628140D02*
D03*
X1648460D02*
D03*
Y1673860D02*
D03*
X1628140D02*
D03*
X1668780D02*
D03*
X1689100D02*
D03*
X1709420D02*
D03*
Y1694180D02*
D03*
X1689100D02*
D03*
X1668780D02*
D03*
X1691640Y1362710D02*
D03*
Y1343660D02*
D03*
X1737360Y1330960D02*
D03*
X1718310D02*
D03*
X1784350Y1340439D02*
D03*
X1765300D02*
D03*
X436880Y1228090D02*
D03*
Y1248410D02*
D03*
X416560D02*
D03*
Y1228090D02*
D03*
X477520D02*
D03*
Y1248410D02*
D03*
Y1268730D02*
D03*
X457200D02*
D03*
Y1248410D02*
D03*
Y1228090D02*
D03*
Y1289050D02*
D03*
X477520D02*
D03*
X1441450Y1346200D02*
D03*
X1461770D02*
D03*
X1480820D02*
D03*
X1421130D02*
D03*
X1400810D02*
D03*
X1381760D02*
D03*
X1361440D02*
D03*
X1625600Y1306830D02*
D03*
Y1327150D02*
D03*
Y1347470D02*
D03*
X1645920D02*
D03*
Y1327150D02*
D03*
Y1306830D02*
D03*
X1664970D02*
D03*
Y1327150D02*
D03*
Y1347470D02*
D03*
X1605280Y1306830D02*
D03*
Y1327150D02*
D03*
Y1347470D02*
D03*
X1584960D02*
D03*
Y1327150D02*
D03*
Y1306830D02*
D03*
X1565910D02*
D03*
Y1327150D02*
D03*
Y1347470D02*
D03*
X1545590D02*
D03*
Y1327150D02*
D03*
Y1306830D02*
D03*
X1699260Y1202690D02*
D03*
X1719580D02*
D03*
X1739900D02*
D03*
Y1182370D02*
D03*
X1719580D02*
D03*
X1699260D02*
D03*
Y1163320D02*
D03*
X1719580D02*
D03*
X1739900D02*
D03*
X1699260Y1223010D02*
D03*
X1719580D02*
D03*
X1739900D02*
D03*
Y1243330D02*
D03*
X1719580D02*
D03*
X1699260D02*
D03*
Y1262380D02*
D03*
X1719580D02*
D03*
X1739900D02*
D03*
Y1282700D02*
D03*
X1719580D02*
D03*
X1699260D02*
D03*
X1758950Y1202690D02*
D03*
Y1182370D02*
D03*
Y1163320D02*
D03*
Y1223010D02*
D03*
Y1243330D02*
D03*
Y1262380D02*
D03*
Y1282700D02*
D03*
X1587500Y1143000D02*
D03*
Y1163320D02*
D03*
X1567180D02*
D03*
Y1143000D02*
D03*
X1384300Y1036320D02*
D03*
Y1016000D02*
D03*
X1363980Y995680D02*
D03*
X1323340D02*
D03*
X1343660D02*
D03*
X1303020D02*
D03*
Y975360D02*
D03*
X1323340Y955040D02*
D03*
X1343660D02*
D03*
Y975360D02*
D03*
X1323340D02*
D03*
X1384300Y995680D02*
D03*
X1445260Y975360D02*
D03*
X1384300D02*
D03*
X1363980D02*
D03*
Y955040D02*
D03*
X1384300D02*
D03*
X1404620D02*
D03*
X1424940D02*
D03*
Y975360D02*
D03*
X1404620D02*
D03*
X1424940Y1036320D02*
D03*
X1404620D02*
D03*
X1424940Y1056640D02*
D03*
Y1016000D02*
D03*
X1404620D02*
D03*
Y995680D02*
D03*
X1424940D02*
D03*
X1445260D02*
D03*
X1465580D02*
D03*
X1485900Y1016000D02*
D03*
X1465580D02*
D03*
X1445260D02*
D03*
Y1056640D02*
D03*
X1465580D02*
D03*
X1485900D02*
D03*
Y1036320D02*
D03*
X1465580D02*
D03*
X1445260D02*
D03*
Y1076960D02*
D03*
X1465580D02*
D03*
X1485900D02*
D03*
Y1097280D02*
D03*
X1465580D02*
D03*
X1445260D02*
D03*
Y1116330D02*
D03*
X1465580D02*
D03*
X1485900D02*
D03*
Y1136650D02*
D03*
X1465580D02*
D03*
X1445260D02*
D03*
X1506220D02*
D03*
Y1116330D02*
D03*
Y1097280D02*
D03*
Y1076960D02*
D03*
Y1036320D02*
D03*
Y1056640D02*
D03*
X1278108Y1183614D02*
D03*
X1257788D02*
D03*
Y1164564D02*
D03*
X1278108D02*
D03*
X1093769Y896700D02*
D03*
X1073449D02*
D03*
Y877650D02*
D03*
X1093769D02*
D03*
X1094286Y861117D02*
D03*
X1073966D02*
D03*
Y842067D02*
D03*
X1094286D02*
D03*
X1297860Y826062D02*
D03*
X1318180D02*
D03*
X1338500D02*
D03*
Y846382D02*
D03*
X1318180D02*
D03*
X1297860D02*
D03*
Y865432D02*
D03*
X1318180D02*
D03*
X1338500D02*
D03*
Y885752D02*
D03*
X1318180D02*
D03*
X1297860D02*
D03*
X1358820D02*
D03*
Y865432D02*
D03*
Y846382D02*
D03*
Y826062D02*
D03*
X1671032Y995593D02*
D03*
Y1015913D02*
D03*
X1650712D02*
D03*
Y995593D02*
D03*
X1631662D02*
D03*
Y1015913D02*
D03*
X1611342D02*
D03*
Y995593D02*
D03*
X1538822Y870578D02*
D03*
X1559142D02*
D03*
Y890898D02*
D03*
X1538822D02*
D03*
Y909948D02*
D03*
X1559142D02*
D03*
Y930268D02*
D03*
X1538822D02*
D03*
X1485240Y746379D02*
D03*
X1505560D02*
D03*
X1525880D02*
D03*
X1485240Y766699D02*
D03*
X1505560D02*
D03*
X1525880D02*
D03*
Y787019D02*
D03*
X1505560D02*
D03*
X1485240D02*
D03*
Y806069D02*
D03*
X1505560D02*
D03*
X1525880D02*
D03*
Y826389D02*
D03*
X1505560D02*
D03*
X1485240D02*
D03*
X1546200D02*
D03*
X1566520D02*
D03*
Y806069D02*
D03*
X1546200D02*
D03*
Y787019D02*
D03*
X1566520D02*
D03*
Y766699D02*
D03*
X1546200D02*
D03*
X1566520Y746379D02*
D03*
X1546200D02*
D03*
X1744736Y964394D02*
D03*
X1763786Y984714D02*
D03*
Y964394D02*
D03*
X845820Y1436370D02*
D03*
X866140D02*
D03*
Y1416050D02*
D03*
X845820D02*
D03*
Y1456690D02*
D03*
X866140D02*
D03*
Y1477010D02*
D03*
X845820D02*
D03*
Y1496060D02*
D03*
X866140D02*
D03*
X825500D02*
D03*
X805180D02*
D03*
X784860D02*
D03*
Y1477010D02*
D03*
X805180D02*
D03*
X825500D02*
D03*
Y1456690D02*
D03*
X805180D02*
D03*
X784860D02*
D03*
Y1416050D02*
D03*
X805180D02*
D03*
X825500D02*
D03*
Y1436370D02*
D03*
X805180D02*
D03*
X784860D02*
D03*
X1070610Y1295400D02*
D03*
Y1275080D02*
D03*
X1130300D02*
D03*
X1111250D02*
D03*
Y1295400D02*
D03*
X1090930D02*
D03*
Y1275080D02*
D03*
X990600Y1295400D02*
D03*
Y1275080D02*
D03*
X1050290Y1295400D02*
D03*
Y1275080D02*
D03*
X1031240D02*
D03*
Y1295400D02*
D03*
X1010920D02*
D03*
Y1275080D02*
D03*
X910590Y1295400D02*
D03*
Y1275080D02*
D03*
X970280Y1295400D02*
D03*
Y1275080D02*
D03*
X951230D02*
D03*
Y1295400D02*
D03*
X930910D02*
D03*
Y1275080D02*
D03*
X1094286Y806201D02*
D03*
X1073966D02*
D03*
Y825251D02*
D03*
X1094286D02*
D03*
X1209040Y984250D02*
D03*
X1229360Y963930D02*
D03*
X1209040D02*
D03*
X1229360Y943610D02*
D03*
X1209040D02*
D03*
X1229360Y984250D02*
D03*
Y1004570D02*
D03*
X1209040D02*
D03*
Y1125220D02*
D03*
X1229360D02*
D03*
Y1104900D02*
D03*
X1209040D02*
D03*
Y1085850D02*
D03*
X1229360D02*
D03*
Y1065530D02*
D03*
X1209040D02*
D03*
Y1024890D02*
D03*
X1229360D02*
D03*
Y1045210D02*
D03*
X1209040D02*
D03*
Y1245870D02*
D03*
X1229360D02*
D03*
Y1225550D02*
D03*
X1209040D02*
D03*
Y1206500D02*
D03*
X1229360D02*
D03*
Y1186180D02*
D03*
X1209040D02*
D03*
Y1145540D02*
D03*
X1229360D02*
D03*
Y1165860D02*
D03*
X1209040D02*
D03*
X1023620Y925830D02*
D03*
X1003300D02*
D03*
X943610Y885190D02*
D03*
Y905510D02*
D03*
X963930D02*
D03*
Y885190D02*
D03*
X982980D02*
D03*
Y905510D02*
D03*
X1003300D02*
D03*
Y885190D02*
D03*
Y824230D02*
D03*
Y844550D02*
D03*
Y864870D02*
D03*
X982980D02*
D03*
Y844550D02*
D03*
Y824230D02*
D03*
X963930D02*
D03*
Y844550D02*
D03*
Y864870D02*
D03*
X943610D02*
D03*
Y844550D02*
D03*
Y824230D02*
D03*
Y803910D02*
D03*
X963930D02*
D03*
X982980D02*
D03*
X1003300D02*
D03*
X436880Y1268730D02*
D03*
Y1289050D02*
D03*
X375920D02*
D03*
X396240D02*
D03*
X416560D02*
D03*
Y1268730D02*
D03*
X396240D02*
D03*
X375920D02*
D03*
Y1309370D02*
D03*
X396240D02*
D03*
X416560D02*
D03*
Y1329690D02*
D03*
X396240D02*
D03*
X375920D02*
D03*
X436880D02*
D03*
X457200D02*
D03*
X477520D02*
D03*
Y1309370D02*
D03*
X457200D02*
D03*
X436880D02*
D03*
X497840D02*
D03*
X518160D02*
D03*
X538480D02*
D03*
Y1329690D02*
D03*
X518160D02*
D03*
X497840D02*
D03*
X355600Y1374140D02*
D03*
X335280D02*
D03*
X314960D02*
D03*
Y1394460D02*
D03*
X335280D02*
D03*
X355600D02*
D03*
X294640D02*
D03*
Y1374140D02*
D03*
X497840Y1394460D02*
D03*
X518160D02*
D03*
X538480D02*
D03*
Y1374140D02*
D03*
X518160D02*
D03*
X497840D02*
D03*
X436880D02*
D03*
X457200D02*
D03*
X477520D02*
D03*
Y1394460D02*
D03*
X457200D02*
D03*
X436880D02*
D03*
X375920D02*
D03*
X396240D02*
D03*
X416560D02*
D03*
Y1374140D02*
D03*
X396240D02*
D03*
X375920D02*
D03*
X1063822Y1662430D02*
D03*
X1082872D02*
D03*
X1103192D02*
D03*
Y1682750D02*
D03*
X1082872D02*
D03*
X1063822D02*
D03*
X1010698Y1574800D02*
D03*
X1031018D02*
D03*
X1050068D02*
D03*
X1189990D02*
D03*
X1170940D02*
D03*
X1071880Y1595120D02*
D03*
X1090930D02*
D03*
X1111250D02*
D03*
X1150620D02*
D03*
X1131570D02*
D03*
Y1574800D02*
D03*
X1150620D02*
D03*
X1111250D02*
D03*
X1090930D02*
D03*
X1071880D02*
D03*
X1170940Y1692910D02*
D03*
Y1672590D02*
D03*
Y1653540D02*
D03*
Y1633220D02*
D03*
Y1595120D02*
D03*
Y1612900D02*
D03*
X1191260D02*
D03*
Y1595120D02*
D03*
Y1633220D02*
D03*
Y1653540D02*
D03*
Y1672590D02*
D03*
Y1692910D02*
D03*
X350690Y1001400D02*
D03*
X386250D02*
D03*
X368470D02*
D03*
X386250Y1026800D02*
D03*
X368470D02*
D03*
X350690D02*
D03*
X368470Y1052200D02*
D03*
X386250D02*
D03*
X350690D02*
D03*
X278300Y1052200D02*
D03*
X260520D02*
D03*
X313860D02*
D03*
X296080D02*
D03*
Y1001400D02*
D03*
X313860D02*
D03*
X296080Y1026800D02*
D03*
X313860D02*
D03*
X278300Y1001400D02*
D03*
X260520D02*
D03*
Y1026800D02*
D03*
X278300D02*
D03*
X1377950Y1981200D02*
D03*
X1398270D02*
D03*
X1418590D02*
D03*
Y1960880D02*
D03*
X1398270D02*
D03*
X1377950D02*
D03*
Y1941830D02*
D03*
X1398270D02*
D03*
X1418590D02*
D03*
Y1921510D02*
D03*
X1398270D02*
D03*
X1377950D02*
D03*
X1337310D02*
D03*
X1357630D02*
D03*
Y1941830D02*
D03*
X1337310D02*
D03*
Y1960880D02*
D03*
X1357630D02*
D03*
Y1981200D02*
D03*
X1337310D02*
D03*
X1236980D02*
D03*
X1257300D02*
D03*
Y1960880D02*
D03*
X1236980D02*
D03*
Y1941830D02*
D03*
X1257300D02*
D03*
Y1921510D02*
D03*
X1236980D02*
D03*
Y1841500D02*
D03*
X1257300D02*
D03*
Y1861820D02*
D03*
X1236980D02*
D03*
Y1880870D02*
D03*
X1257300D02*
D03*
Y1901190D02*
D03*
X1236980D02*
D03*
X1277620D02*
D03*
X1297940D02*
D03*
X1318260D02*
D03*
Y1880870D02*
D03*
X1297940D02*
D03*
X1277620D02*
D03*
Y1861820D02*
D03*
X1297940D02*
D03*
X1318260D02*
D03*
Y1841500D02*
D03*
X1297940D02*
D03*
X1277620D02*
D03*
Y1921510D02*
D03*
X1297940D02*
D03*
X1318260D02*
D03*
Y1941830D02*
D03*
X1297940D02*
D03*
X1277620D02*
D03*
Y1960880D02*
D03*
X1297940D02*
D03*
X1318260D02*
D03*
Y1981200D02*
D03*
X1297940D02*
D03*
X1277620D02*
D03*
X1177290D02*
D03*
X1197610D02*
D03*
X1217930D02*
D03*
Y1960880D02*
D03*
X1197610D02*
D03*
X1177290D02*
D03*
Y1941830D02*
D03*
X1197610D02*
D03*
X1217930D02*
D03*
Y1921510D02*
D03*
X1197610D02*
D03*
X1177290D02*
D03*
Y1841500D02*
D03*
X1197610D02*
D03*
X1217930D02*
D03*
Y1861820D02*
D03*
X1197610D02*
D03*
X1177290D02*
D03*
Y1880870D02*
D03*
X1197610D02*
D03*
X1217930D02*
D03*
Y1901190D02*
D03*
X1197610D02*
D03*
X1177290D02*
D03*
X1116330D02*
D03*
X1136650D02*
D03*
X1156970D02*
D03*
Y1880870D02*
D03*
X1136650D02*
D03*
X1116330D02*
D03*
Y1861820D02*
D03*
X1136650D02*
D03*
X1156970D02*
D03*
Y1841500D02*
D03*
X1136650D02*
D03*
X1116330D02*
D03*
Y1921510D02*
D03*
X1136650D02*
D03*
X1156970D02*
D03*
Y1941830D02*
D03*
X1136650D02*
D03*
X1116330D02*
D03*
Y1960880D02*
D03*
X1136650D02*
D03*
X1156970D02*
D03*
Y1981200D02*
D03*
X1136650D02*
D03*
X1116330D02*
D03*
X1055370D02*
D03*
X1075690D02*
D03*
X1096010D02*
D03*
Y1960880D02*
D03*
X1075690D02*
D03*
X1055370D02*
D03*
Y1941830D02*
D03*
X1075690D02*
D03*
X1096010D02*
D03*
Y1921510D02*
D03*
X1075690D02*
D03*
X1055370D02*
D03*
Y1841500D02*
D03*
X1075690D02*
D03*
X1096010D02*
D03*
Y1861820D02*
D03*
X1075690D02*
D03*
X1055370D02*
D03*
Y1880870D02*
D03*
X1075690D02*
D03*
X1096010D02*
D03*
Y1901190D02*
D03*
X1075690D02*
D03*
X1055370D02*
D03*
X760730Y1663700D02*
D03*
X720090Y1823720D02*
D03*
X740410Y1803400D02*
D03*
Y1823720D02*
D03*
X781050Y1743710D02*
D03*
X801370D02*
D03*
Y1723390D02*
D03*
X781050D02*
D03*
Y1704340D02*
D03*
X801370D02*
D03*
Y1684020D02*
D03*
X781050D02*
D03*
Y1764030D02*
D03*
X801370D02*
D03*
Y1784350D02*
D03*
X781050D02*
D03*
Y1803400D02*
D03*
X801370D02*
D03*
Y1823720D02*
D03*
X781050D02*
D03*
X760730D02*
D03*
Y1803400D02*
D03*
Y1784350D02*
D03*
Y1764030D02*
D03*
Y1684020D02*
D03*
Y1704340D02*
D03*
Y1723390D02*
D03*
Y1743710D02*
D03*
X720090Y1903730D02*
D03*
X740410D02*
D03*
X760730D02*
D03*
Y1883410D02*
D03*
X740410D02*
D03*
X720090D02*
D03*
Y1864360D02*
D03*
X740410D02*
D03*
X760730D02*
D03*
Y1844040D02*
D03*
X740410D02*
D03*
X720090D02*
D03*
Y1924050D02*
D03*
X740410D02*
D03*
X760730D02*
D03*
X821690D02*
D03*
X801370D02*
D03*
X781050D02*
D03*
Y1844040D02*
D03*
X801370D02*
D03*
X821690D02*
D03*
Y1864360D02*
D03*
X801370D02*
D03*
X781050D02*
D03*
Y1883410D02*
D03*
X801370D02*
D03*
X821690D02*
D03*
Y1903730D02*
D03*
X801370D02*
D03*
X781050D02*
D03*
X1946716Y1225865D02*
D03*
X763022Y1592177D02*
D03*
X795773D02*
D03*
X842010Y1903730D02*
D03*
X862330D02*
D03*
X882650D02*
D03*
Y1883410D02*
D03*
X862330D02*
D03*
X842010D02*
D03*
Y1864360D02*
D03*
X862330D02*
D03*
X882650D02*
D03*
Y1844040D02*
D03*
X862330D02*
D03*
X842010D02*
D03*
Y1924050D02*
D03*
X862330D02*
D03*
X882650D02*
D03*
X1882394Y1714500D02*
D03*
X1392841Y1511378D02*
D03*
X1403000D02*
D03*
Y1521537D02*
D03*
X1392841D02*
D03*
X1413161D02*
D03*
X1423320D02*
D03*
Y1511378D02*
D03*
X1413161D02*
D03*
X1453801D02*
D03*
X1463961D02*
D03*
Y1521537D02*
D03*
X1453801D02*
D03*
X1433481D02*
D03*
X1443640D02*
D03*
Y1511378D02*
D03*
X1433481D02*
D03*
X1386661Y1769711D02*
D03*
Y1759551D02*
D03*
X1376501D02*
D03*
X1386661Y1749391D02*
D03*
X1376501D02*
D03*
X1447621Y1729071D02*
D03*
X1457781D02*
D03*
Y1739231D02*
D03*
X1447621D02*
D03*
X1467941D02*
D03*
X1478101D02*
D03*
Y1729071D02*
D03*
X1467941D02*
D03*
X1488261Y1739231D02*
D03*
Y1729071D02*
D03*
X1406981D02*
D03*
X1417141D02*
D03*
Y1739231D02*
D03*
X1406981D02*
D03*
X1427301D02*
D03*
X1437461D02*
D03*
Y1729071D02*
D03*
X1427301D02*
D03*
X1386661D02*
D03*
X1396821D02*
D03*
Y1739231D02*
D03*
X1386661D02*
D03*
X1366341D02*
D03*
X1376501D02*
D03*
Y1729071D02*
D03*
X1366341D02*
D03*
X1379495Y1427558D02*
D03*
X1371215D02*
D03*
X1389040Y1438227D02*
D03*
Y1427558D02*
D03*
Y1416889D02*
D03*
X1371215Y1438227D02*
D03*
Y1416889D02*
D03*
X1379495D02*
D03*
Y1438149D02*
D03*
X1741738Y1405306D02*
D03*
Y1416813D02*
D03*
X1753168Y1405306D02*
D03*
Y1416813D02*
D03*
Y1392056D02*
D03*
X1741738D02*
D03*
X1730308D02*
D03*
X1732280Y1416813D02*
D03*
Y1405306D02*
D03*
X1788022Y1617754D02*
D03*
X1889760Y1867535D02*
D03*
X1803398Y1505712D02*
D03*
X1866900Y1465580D02*
D03*
X1858010D02*
D03*
X1831340D02*
D03*
X1849120D02*
D03*
X1840230Y1426210D02*
D03*
X1831340Y1452880D02*
D03*
X1840230Y1438910D02*
D03*
X1874520Y1450340D02*
D03*
X1883410D02*
D03*
X1866900D02*
D03*
X1849120D02*
D03*
X1858010D02*
D03*
X1934071Y1225688D02*
D03*
X1920875Y1225831D02*
D03*
X1904116Y1237686D02*
D03*
Y1231276D02*
D03*
X1940419Y1225866D02*
D03*
X1927465Y1225871D02*
D03*
X1914687Y1225791D02*
D03*
X1629156Y1400463D02*
D03*
X1653861Y1422400D02*
D03*
X1477621Y550829D02*
D03*
X1386098Y542934D02*
D03*
X1393962D02*
D03*
X1484490Y551054D02*
D03*
X1393962Y536808D02*
D03*
X1425944Y453656D02*
D03*
X1426210Y514350D02*
D03*
X1427480Y461010D02*
D03*
X1426210Y468630D02*
D03*
X1386098Y550074D02*
D03*
X1265071Y426196D02*
D03*
X1264923Y419715D02*
D03*
X1231358Y459702D02*
D03*
X1252277Y482816D02*
D03*
X1226109Y456533D02*
D03*
X1254549Y464479D02*
D03*
X1260346Y499331D02*
D03*
X1312699Y560545D02*
D03*
X1333171Y571977D02*
D03*
X1336461Y576175D02*
D03*
X1409379Y431165D02*
D03*
X1339179Y421671D02*
D03*
X1339208Y415568D02*
D03*
X1320437Y416131D02*
D03*
X1327656Y418102D02*
D03*
X1257945Y471994D02*
D03*
X1258221Y458917D02*
D03*
X1252837Y497455D02*
D03*
X1269822Y494620D02*
D03*
X1288046Y407486D02*
D03*
X1288208Y414187D02*
D03*
X1280817Y470185D02*
D03*
X1291065Y506373D02*
D03*
X1282348Y492477D02*
D03*
X1289928Y493012D02*
D03*
X1274304Y469603D02*
D03*
X1416629Y431132D02*
D03*
X1249778Y488623D02*
D03*
Y471994D02*
D03*
X1052500Y1030005D02*
D03*
X1032500D02*
D03*
X1002511Y1039990D02*
D03*
X972515Y1020011D02*
D03*
X1296205Y510700D02*
D03*
X655342Y1369726D02*
D03*
X662242Y1372686D02*
D03*
X655342Y1376562D02*
D03*
Y1351651D02*
D03*
X662242Y1366590D02*
D03*
Y1357954D02*
D03*
X655342Y1357912D02*
D03*
X662242Y1351858D02*
D03*
X1356008Y572119D02*
D03*
X1347236Y571737D02*
D03*
X1324538Y554081D02*
D03*
X1328980Y558800D02*
D03*
X1307512Y556349D02*
D03*
X569579Y1031862D02*
D03*
X548060Y1032570D02*
D03*
X560240Y1037100D02*
D03*
X532935Y1031724D02*
D03*
X624715Y953512D02*
D03*
X631750D02*
D03*
X637500Y953650D02*
D03*
X554816Y952880D02*
D03*
X568749Y954159D02*
D03*
X542460Y953100D02*
D03*
X606314Y954568D02*
D03*
X613297Y954459D02*
D03*
X1032510Y1090000D02*
D03*
X1042510Y1070000D02*
D03*
X1032510D02*
D03*
Y1080000D02*
D03*
X1012510D02*
D03*
X1022510D02*
D03*
X1032510Y1060000D02*
D03*
X1012510D02*
D03*
Y1050000D02*
D03*
X1022510Y1070000D02*
D03*
X1032510Y1050000D02*
D03*
X1022510Y1060028D02*
D03*
X1012510Y1070000D02*
D03*
X1052510Y1200000D02*
D03*
X952490Y1200000D02*
D03*
X972490D02*
D03*
X932490D02*
D03*
X922490D02*
D03*
X1022500Y1200010D02*
D03*
X1042510Y1200000D02*
D03*
X1012500Y1200010D02*
D03*
X1032500Y1200010D02*
D03*
X962490Y1200000D02*
D03*
X912490D02*
D03*
X1052510Y1190000D02*
D03*
X912510D02*
D03*
X972490D02*
D03*
X952490D02*
D03*
X992490D02*
D03*
X1062510D02*
D03*
X1012500Y1190010D02*
D03*
X932490Y1190000D02*
D03*
X1022500Y1190010D02*
D03*
X982490Y1070000D02*
D03*
X972490Y1080000D02*
D03*
Y1070000D02*
D03*
Y1090000D02*
D03*
X972488Y1060028D02*
D03*
X982490Y1050001D02*
D03*
X972488Y1050001D02*
D03*
X972500Y1039990D02*
D03*
X982490Y1090000D02*
D03*
Y1080000D02*
D03*
X962516Y1090007D02*
D03*
X982490Y1060028D02*
D03*
X982500Y1039990D02*
D03*
X1012510Y1090000D02*
D03*
X1022510D02*
D03*
X1052510Y1060000D02*
D03*
X1062510Y1090000D02*
D03*
X992490Y1070000D02*
D03*
X992500Y1020000D02*
D03*
X992490Y1060000D02*
D03*
Y1120000D02*
D03*
Y1110000D02*
D03*
X992500Y1039989D02*
D03*
X992500Y1010000D02*
D03*
X992490Y1090000D02*
D03*
Y1080000D02*
D03*
Y1050001D02*
D03*
X1052510Y1150000D02*
D03*
X1042710Y1150000D02*
D03*
X1042510Y1180000D02*
D03*
X1042500Y1140010D02*
D03*
X1042710Y1160000D02*
D03*
X1042510Y1170000D02*
D03*
Y1120000D02*
D03*
X1072510Y1180000D02*
D03*
Y1120000D02*
D03*
X1052510Y1180000D02*
D03*
Y1170000D02*
D03*
X1062510Y1150000D02*
D03*
Y1180000D02*
D03*
X972490Y1110000D02*
D03*
X982490Y1120000D02*
D03*
Y1110000D02*
D03*
X972490Y1120000D02*
D03*
X1012510Y1110000D02*
D03*
X1032510Y1120000D02*
D03*
X1012510D02*
D03*
X1032510Y1110000D02*
D03*
X1022510Y1120000D02*
D03*
Y1110000D02*
D03*
X1072510Y1220000D02*
D03*
X1062510D02*
D03*
Y1210000D02*
D03*
X982490D02*
D03*
X1072510D02*
D03*
X992490Y1220000D02*
D03*
X1042510D02*
D03*
X982490D02*
D03*
X1042510Y1210000D02*
D03*
X1012500Y1210010D02*
D03*
X1012510Y1000000D02*
D03*
X1032510Y1000001D02*
D03*
X1052510Y1000000D02*
D03*
X1062500D02*
D03*
X1012510Y980000D02*
D03*
X1042510Y990000D02*
D03*
X1032510D02*
D03*
X1072500D02*
D03*
X1052510Y980000D02*
D03*
X1072510D02*
D03*
X1062510Y990001D02*
D03*
X1072500Y1000000D02*
D03*
X1032510Y980000D02*
D03*
X1022500Y1220010D02*
D03*
X962490Y1229994D02*
D03*
X922490Y1220000D02*
D03*
X912490D02*
D03*
X932490D02*
D03*
X962490D02*
D03*
X952490D02*
D03*
X942490D02*
D03*
X972490D02*
D03*
X1032500Y1220010D02*
D03*
X1032510Y1020000D02*
D03*
X1012510Y1040000D02*
D03*
X1022500Y1010000D02*
D03*
X1032510Y1010000D02*
D03*
X1022510Y1040000D02*
D03*
X1012510Y1010000D02*
D03*
X1042510Y1040000D02*
D03*
X1062500Y1020000D02*
D03*
X1022500D02*
D03*
X1042500D02*
D03*
X1072510Y1040000D02*
D03*
X1042510Y1030000D02*
D03*
X1062510D02*
D03*
X1072510Y1010000D02*
D03*
X932490Y1210000D02*
D03*
X972490Y1210000D02*
D03*
X922603Y1210000D02*
D03*
X962490Y1210000D02*
D03*
X952490D02*
D03*
X912490Y1210000D02*
D03*
X982500Y1029990D02*
D03*
X972500Y1010000D02*
D03*
X972500Y1029990D02*
D03*
X982500Y1020000D02*
D03*
Y1009990D02*
D03*
X609500Y972000D02*
D03*
X617500Y972000D02*
D03*
X577500Y972000D02*
D03*
X601500D02*
D03*
X625500D02*
D03*
X593500D02*
D03*
X633500D02*
D03*
X601500Y964000D02*
D03*
X585500D02*
D03*
X593500Y980000D02*
D03*
X585500D02*
D03*
X617500Y980000D02*
D03*
X633500Y980000D02*
D03*
X609500D02*
D03*
X601500D02*
D03*
X577500Y1004000D02*
D03*
X593500Y1004000D02*
D03*
X617500Y1004000D02*
D03*
X633500Y1012000D02*
D03*
X609500Y1004000D02*
D03*
X260520Y1103000D02*
D03*
Y1128400D02*
D03*
Y1153800D02*
D03*
X350690Y925200D02*
D03*
X386250D02*
D03*
X368470D02*
D03*
X313860D02*
D03*
X296080D02*
D03*
X278300D02*
D03*
X428033Y926470D02*
D03*
Y944250D02*
D03*
X428020Y935360D02*
D03*
X428033Y917555D02*
D03*
X599610Y899800D02*
D03*
X580560D02*
D03*
X589450Y882020D02*
D03*
X571670D02*
D03*
X551275Y865193D02*
D03*
X569055D02*
D03*
X655415Y875353D02*
D03*
X637635D02*
D03*
Y898213D02*
D03*
X368470Y1153800D02*
D03*
X386250D02*
D03*
X296080D02*
D03*
X278300D02*
D03*
X404030D02*
D03*
Y1179200D02*
D03*
X278300Y950600D02*
D03*
X657500Y964000D02*
D03*
X585500Y956000D02*
D03*
X600880Y937900D02*
D03*
X605960Y946790D02*
D03*
X649500Y964000D02*
D03*
X641500Y964000D02*
D03*
X594360Y911860D02*
D03*
Y923290D02*
D03*
X594530Y946790D02*
D03*
X588180Y937900D02*
D03*
X557700D02*
D03*
X581830Y946790D02*
D03*
X551350Y937900D02*
D03*
X260520Y950600D02*
D03*
Y976000D02*
D03*
Y1077600D02*
D03*
Y925200D02*
D03*
X867510Y1075000D02*
D03*
X882510Y1120001D02*
D03*
X882490Y1140000D02*
D03*
X882500Y1000000D02*
D03*
X867510Y1035020D02*
D03*
X860550Y1095001D02*
D03*
X872500Y1059991D02*
D03*
X882500Y1060000D02*
D03*
X867510Y1045001D02*
D03*
X882500Y1090000D02*
D03*
X657500Y972000D02*
D03*
X649500Y1012000D02*
D03*
Y1028000D02*
D03*
X657500D02*
D03*
X649500Y972000D02*
D03*
Y1020000D02*
D03*
X657500Y980000D02*
D03*
X962500Y979990D02*
D03*
X972500Y979990D02*
D03*
X942500Y979990D02*
D03*
X902500D02*
D03*
X872500Y980000D02*
D03*
X882510D02*
D03*
X982500Y979990D02*
D03*
X902500Y969990D02*
D03*
X882510Y970000D02*
D03*
X892500Y969990D02*
D03*
X962500Y969990D02*
D03*
X972500Y969990D02*
D03*
X580390Y1087120D02*
D03*
X593500Y1020000D02*
D03*
X593500Y1012001D02*
D03*
X617500Y1012001D02*
D03*
X633500Y1020000D02*
D03*
X605500Y1037100D02*
D03*
X593501Y1028000D02*
D03*
X621500Y1037100D02*
D03*
X613500D02*
D03*
X577501Y1028000D02*
D03*
X278300Y1077600D02*
D03*
Y976000D02*
D03*
Y1128400D02*
D03*
Y1103000D02*
D03*
X313860Y1077600D02*
D03*
X296080Y1103000D02*
D03*
Y1128400D02*
D03*
Y1077600D02*
D03*
X368470D02*
D03*
X404030Y1103000D02*
D03*
X386250Y1077600D02*
D03*
Y1103000D02*
D03*
X368470D02*
D03*
X350690Y1077600D02*
D03*
Y950600D02*
D03*
X428033Y953140D02*
D03*
X368470Y950600D02*
D03*
X386250D02*
D03*
X313860D02*
D03*
X428033Y962032D02*
D03*
X296080Y950600D02*
D03*
X549910Y1089660D02*
D03*
X537210Y1085850D02*
D03*
X566420Y1089660D02*
D03*
X537210Y1064260D02*
D03*
Y1075690D02*
D03*
X560070D02*
D03*
X404030Y1128400D02*
D03*
X386250D02*
D03*
X368470D02*
D03*
X553423Y1003999D02*
D03*
X561500Y1020000D02*
D03*
X577500D02*
D03*
X561500Y972000D02*
D03*
X569500Y1012000D02*
D03*
X569500Y1004000D02*
D03*
X569500Y1020001D02*
D03*
X561500Y1012000D02*
D03*
X577500Y1012001D02*
D03*
X569500Y972000D02*
D03*
X428033Y1077600D02*
D03*
X922500Y989991D02*
D03*
X942500Y999990D02*
D03*
X932500Y989990D02*
D03*
X922500Y999990D02*
D03*
X912510Y1030000D02*
D03*
X932510Y1030001D02*
D03*
X912510Y1020000D02*
D03*
X942500Y1020000D02*
D03*
X942510Y1030000D02*
D03*
X962510Y1100000D02*
D03*
X962490Y1070000D02*
D03*
X962503Y1189943D02*
D03*
X962500Y1019990D02*
D03*
X962500Y990025D02*
D03*
X962501Y1030025D02*
D03*
X962500Y1010000D02*
D03*
Y999990D02*
D03*
X962510Y1050000D02*
D03*
X952510Y1090000D02*
D03*
X942510Y1090000D02*
D03*
X962500Y1110010D02*
D03*
X952510Y1100000D02*
D03*
X952500Y1120000D02*
D03*
Y1080000D02*
D03*
X942510Y1100000D02*
D03*
X942500Y1079990D02*
D03*
X902490Y1130000D02*
D03*
Y1140000D02*
D03*
X902510Y1110000D02*
D03*
X902490Y1160000D02*
D03*
Y1180000D02*
D03*
X912510Y1100000D02*
D03*
X912510Y1080000D02*
D03*
Y1050000D02*
D03*
X912638Y1130089D02*
D03*
X912510Y1090000D02*
D03*
X912490Y1120000D02*
D03*
X922590Y1099921D02*
D03*
X922490Y1180000D02*
D03*
Y1150000D02*
D03*
X932490Y1120000D02*
D03*
X922490Y1130000D02*
D03*
X922510Y1040000D02*
D03*
X932590Y1090000D02*
D03*
X932470Y1080034D02*
D03*
X922550Y1090080D02*
D03*
X932549Y1070000D02*
D03*
X932510Y1100000D02*
D03*
X922510Y1070000D02*
D03*
X932510Y1060000D02*
D03*
X932510Y1050000D02*
D03*
X932490Y1180000D02*
D03*
X892479Y1090080D02*
D03*
X892550Y1099921D02*
D03*
X902470Y1080028D02*
D03*
X892510Y1110001D02*
D03*
Y1070000D02*
D03*
X902510Y1020000D02*
D03*
Y1040000D02*
D03*
X892455Y990000D02*
D03*
X892509Y1030020D02*
D03*
X902510Y1050001D02*
D03*
X892510Y1000001D02*
D03*
X892510Y1050000D02*
D03*
X892500Y1060000D02*
D03*
X892510Y1010015D02*
D03*
X1072510Y970000D02*
D03*
X1092510Y1190000D02*
D03*
Y970000D02*
D03*
X1102510Y1160000D02*
D03*
Y1140000D02*
D03*
X1092500Y1130010D02*
D03*
X1102500Y1180010D02*
D03*
X1092510Y1120000D02*
D03*
X1102510Y970000D02*
D03*
X1092510Y980000D02*
D03*
Y1210000D02*
D03*
Y1230000D02*
D03*
Y1220000D02*
D03*
X1112500Y1230010D02*
D03*
X1082510Y1210000D02*
D03*
X1132510Y970000D02*
D03*
X1122510Y1120000D02*
D03*
X1082500Y1200010D02*
D03*
X1082510Y1050000D02*
D03*
Y1190000D02*
D03*
Y1150000D02*
D03*
Y1180000D02*
D03*
Y1020000D02*
D03*
X1042510Y1230000D02*
D03*
X1072510Y1230000D02*
D03*
X1062510D02*
D03*
X1082510Y1220000D02*
D03*
X902490D02*
D03*
X942503Y1230000D02*
D03*
X902490D02*
D03*
X972490D02*
D03*
X932490D02*
D03*
X922490Y1230000D02*
D03*
X1082510Y1230000D02*
D03*
X982490Y1230090D02*
D03*
X1122510Y1160000D02*
D03*
X1132500Y1230010D02*
D03*
X1122500Y1180010D02*
D03*
X1122500Y1200010D02*
D03*
X1122510Y1140000D02*
D03*
X892490Y1220000D02*
D03*
X882490Y1180000D02*
D03*
X892510Y1190000D02*
D03*
X882490Y1160000D02*
D03*
X912490Y1230000D02*
D03*
X892490D02*
D03*
X952490D02*
D03*
X1092510Y990001D02*
D03*
X1082510Y1000000D02*
D03*
X1122510Y1050000D02*
D03*
Y990000D02*
D03*
Y1030000D02*
D03*
X1102510Y1040000D02*
D03*
Y1030000D02*
D03*
Y1010000D02*
D03*
X1122510Y1090000D02*
D03*
Y1010000D02*
D03*
X1082510Y1070000D02*
D03*
X1102510Y1090000D02*
D03*
X1122510Y1070000D02*
D03*
X1022710Y1150000D02*
D03*
X1032490Y1140000D02*
D03*
X1022510Y1130000D02*
D03*
X1032510D02*
D03*
X1012510D02*
D03*
Y1150000D02*
D03*
X1032510Y1180000D02*
D03*
X1022510D02*
D03*
X952490D02*
D03*
X962490D02*
D03*
X992490Y1180000D02*
D03*
X972490Y1180000D02*
D03*
X982490Y1170000D02*
D03*
X962490Y1170000D02*
D03*
X972490Y1160000D02*
D03*
X952490Y1150000D02*
D03*
X942490D02*
D03*
X962490Y1130000D02*
D03*
X972490Y1130000D02*
D03*
X992490D02*
D03*
X982490D02*
D03*
X972490Y1140000D02*
D03*
X992490D02*
D03*
X1032510Y1170000D02*
D03*
X1012510Y1170000D02*
D03*
X1012500Y1160010D02*
D03*
X1022510Y1170000D02*
D03*
X1032490Y1160000D02*
D03*
X313860Y976000D02*
D03*
X296080D02*
D03*
X368470D02*
D03*
X428033Y1033150D02*
D03*
Y1059795D02*
D03*
Y979810D02*
D03*
Y970895D02*
D03*
X428033Y1050930D02*
D03*
X428033Y988675D02*
D03*
Y1042015D02*
D03*
Y1024286D02*
D03*
Y997590D02*
D03*
Y1006455D02*
D03*
Y1015370D02*
D03*
X545635Y964000D02*
D03*
X545500Y1012001D02*
D03*
X537547Y1012048D02*
D03*
X529194Y963600D02*
D03*
X545500Y972000D02*
D03*
X537500Y964000D02*
D03*
X537500Y1020000D02*
D03*
X545500Y980000D02*
D03*
X545500Y1020000D02*
D03*
X529500Y1020001D02*
D03*
X537500Y972000D02*
D03*
X386250Y976000D02*
D03*
X350690D02*
D03*
X866314Y1764037D02*
D03*
Y1750407D02*
D03*
X1664208Y1839468D02*
D03*
X1697990Y1873758D02*
D03*
X1689100Y1874266D02*
D03*
X1687830Y1094740D02*
D03*
Y1104900D02*
D03*
X1397542Y441325D02*
D03*
X1466850Y426720D02*
D03*
X1477010Y433070D02*
D03*
X1513840Y431800D02*
D03*
Y422910D02*
D03*
X1526540D02*
D03*
Y431800D02*
D03*
X1539240Y422910D02*
D03*
Y431800D02*
D03*
X1551940D02*
D03*
Y422910D02*
D03*
X1563370Y431800D02*
D03*
Y422910D02*
D03*
X1645920Y427990D02*
D03*
Y436880D02*
D03*
Y445770D02*
D03*
X1654810Y427990D02*
D03*
Y436880D02*
D03*
Y445770D02*
D03*
X1673860Y427990D02*
D03*
Y436880D02*
D03*
Y445770D02*
D03*
X1682750Y427990D02*
D03*
Y436880D02*
D03*
Y445770D02*
D03*
X1699260Y427990D02*
D03*
Y436880D02*
D03*
Y445770D02*
D03*
X1708150Y427990D02*
D03*
Y436880D02*
D03*
Y445770D02*
D03*
X1351280Y499110D02*
D03*
X1397000Y514350D02*
D03*
X1557020Y447040D02*
D03*
X1565910D02*
D03*
X1582420Y554990D02*
D03*
Y491490D02*
D03*
X1592589Y537338D02*
D03*
X1592589Y510668D02*
D03*
X1628140Y552450D02*
D03*
Y491236D02*
D03*
Y496570D02*
D03*
X1628246Y558037D02*
D03*
X1699260Y455930D02*
D03*
Y464820D02*
D03*
Y473710D02*
D03*
X1708150Y455930D02*
D03*
Y464820D02*
D03*
Y473710D02*
D03*
X1737360Y455930D02*
D03*
X1746123Y560070D02*
D03*
X1751457D02*
D03*
X1760220Y454660D02*
D03*
X1775460Y473710D02*
D03*
Y482600D02*
D03*
X1736090Y746760D02*
D03*
Y762000D02*
D03*
X1823720Y760730D02*
D03*
Y767080D02*
D03*
D229*
X1905519Y1165576D02*
D03*
Y1173376D02*
D03*
Y1181176D02*
D03*
X1922719D02*
D03*
Y1173376D02*
D03*
Y1165576D02*
D03*
X683862Y1368680D02*
D03*
X689612Y1378180D02*
D03*
X678112D02*
D03*
X683862Y1387680D02*
D03*
X1802899Y1404533D02*
D03*
X1812899D02*
D03*
Y1384533D02*
D03*
X1822899D02*
D03*
Y1404533D02*
D03*
Y1394533D02*
D03*
X1812899D02*
D03*
X1802899Y1384533D02*
D03*
Y1394533D02*
D03*
X978880Y1417248D02*
D03*
X989880D02*
D03*
X1000880D02*
D03*
X1011880D02*
D03*
X1022880D02*
D03*
X978880Y1406248D02*
D03*
X989880D02*
D03*
X1000880D02*
D03*
X1011880D02*
D03*
X1022880D02*
D03*
X978880Y1395249D02*
D03*
X989880D02*
D03*
X1000880D02*
D03*
X1011880D02*
D03*
X1022880D02*
D03*
X978880Y1384248D02*
D03*
X989880D02*
D03*
X1000880D02*
D03*
X1011880D02*
D03*
X1022880D02*
D03*
X978880Y1373248D02*
D03*
X989880D02*
D03*
X1000880D02*
D03*
X1011880D02*
D03*
X1022880D02*
D03*
X1607963Y1587234D02*
D03*
Y1576234D02*
D03*
Y1565234D02*
D03*
Y1554234D02*
D03*
Y1543234D02*
D03*
X1596963Y1587234D02*
D03*
Y1576234D02*
D03*
Y1565234D02*
D03*
Y1554234D02*
D03*
Y1543234D02*
D03*
X1585963Y1587234D02*
D03*
Y1576234D02*
D03*
Y1565234D02*
D03*
Y1554234D02*
D03*
Y1543234D02*
D03*
X1574963Y1587234D02*
D03*
Y1576234D02*
D03*
Y1565234D02*
D03*
Y1554234D02*
D03*
Y1543234D02*
D03*
X1563963Y1587234D02*
D03*
Y1576234D02*
D03*
Y1565234D02*
D03*
Y1554234D02*
D03*
Y1543234D02*
D03*
X1807793Y1573274D02*
D03*
X1818793D02*
D03*
X1807793Y1562274D02*
D03*
X1818793D02*
D03*
X1655076Y1770728D02*
D03*
Y1781729D02*
D03*
Y1792728D02*
D03*
Y1803728D02*
D03*
Y1814728D02*
D03*
X1666077Y1770728D02*
D03*
Y1781729D02*
D03*
Y1792728D02*
D03*
Y1803728D02*
D03*
Y1814728D02*
D03*
X1677076Y1770728D02*
D03*
Y1781729D02*
D03*
Y1792728D02*
D03*
Y1803728D02*
D03*
Y1814728D02*
D03*
X1688076Y1770728D02*
D03*
Y1781729D02*
D03*
Y1792728D02*
D03*
Y1803728D02*
D03*
Y1814728D02*
D03*
X1699076Y1770728D02*
D03*
Y1781729D02*
D03*
Y1792728D02*
D03*
Y1803728D02*
D03*
Y1814728D02*
D03*
X1768170Y794200D02*
D03*
X1779170D02*
D03*
X1790170D02*
D03*
X1768170Y783200D02*
D03*
X1779170D02*
D03*
X1790170D02*
D03*
X1768170Y772200D02*
D03*
X1779170D02*
D03*
X1790170D02*
D03*
X1768170Y761200D02*
D03*
X1779170D02*
D03*
X1790170D02*
D03*
X1768170Y750200D02*
D03*
X1779170D02*
D03*
X1790170D02*
D03*
X1768170Y739200D02*
D03*
X1779170D02*
D03*
X1790170D02*
D03*
X1768170Y728200D02*
D03*
X1779170D02*
D03*
X1790170D02*
D03*
X1768170Y717200D02*
D03*
X1779170D02*
D03*
X1790170D02*
D03*
X1768170Y706200D02*
D03*
X1779170D02*
D03*
X1790170D02*
D03*
D230*
X799273Y1545081D02*
D03*
Y1555081D02*
D03*
Y1565081D02*
D03*
X789273D02*
D03*
Y1555081D02*
D03*
Y1545081D02*
D03*
X779273D02*
D03*
Y1555081D02*
D03*
Y1565081D02*
D03*
X1681537Y1408307D02*
D03*
X1691537D02*
D03*
X1701537D02*
D03*
Y1418307D02*
D03*
X1691537D02*
D03*
X1681537D02*
D03*
Y1428307D02*
D03*
X1691537D02*
D03*
X1701537D02*
D03*
X1506810Y1414611D02*
D03*
X1496810D02*
D03*
X1486810D02*
D03*
Y1404611D02*
D03*
X1496810D02*
D03*
X1506810D02*
D03*
Y1394611D02*
D03*
X1496810D02*
D03*
X1486810D02*
D03*
D231*
X1594000Y1083000D02*
D03*
X1578760D02*
D03*
X1563520D02*
D03*
X1624480Y1067760D02*
D03*
X1616860Y1060140D02*
D03*
X1632100D02*
D03*
Y1075380D02*
D03*
Y1090620D02*
D03*
Y1105860D02*
D03*
X1624480Y1083000D02*
D03*
Y1098240D02*
D03*
X1616860Y1075380D02*
D03*
Y1090620D02*
D03*
Y1105860D02*
D03*
X1609240Y1067760D02*
D03*
Y1083000D02*
D03*
Y1098240D02*
D03*
X1601620Y1060140D02*
D03*
Y1075380D02*
D03*
Y1090620D02*
D03*
Y1105860D02*
D03*
X1594000Y1067760D02*
D03*
Y1098240D02*
D03*
X1586380Y1060140D02*
D03*
Y1075380D02*
D03*
Y1090620D02*
D03*
Y1105860D02*
D03*
X1578760Y1067760D02*
D03*
Y1098240D02*
D03*
X1571140Y1060140D02*
D03*
Y1075380D02*
D03*
Y1090620D02*
D03*
Y1105860D02*
D03*
X1563520Y1067760D02*
D03*
Y1098240D02*
D03*
X1555900Y1105860D02*
D03*
Y1090620D02*
D03*
Y1075380D02*
D03*
Y1060140D02*
D03*
M02*
