G04*
G04 #@! TF.GenerationSoftware,Altium Limited,Altium Designer,23.11.1 (41)*
G04*
G04 Layer_Physical_Order=8*
G04 Layer_Color=16737945*
%FSLAX44Y44*%
%MOMM*%
G71*
G04*
G04 #@! TF.SameCoordinates,04611707-018F-4F9C-9273-AB504833585F*
G04*
G04*
G04 #@! TF.FilePolarity,Positive*
G04*
G01*
G75*
%ADD217C,6.2000*%
%ADD218C,2.2000*%
%ADD219C,3.8100*%
G04:AMPARAMS|DCode=220|XSize=1.524mm|YSize=1.524mm|CornerRadius=0mm|HoleSize=0mm|Usage=FLASHONLY|Rotation=90.000|XOffset=0mm|YOffset=0mm|HoleType=Round|Shape=Octagon|*
%AMOCTAGOND220*
4,1,8,0.3810,0.7620,-0.3810,0.7620,-0.7620,0.3810,-0.7620,-0.3810,-0.3810,-0.7620,0.3810,-0.7620,0.7620,-0.3810,0.7620,0.3810,0.3810,0.7620,0.0*
%
%ADD220OCTAGOND220*%

%ADD221C,1.5240*%
%ADD222C,3.0000*%
%ADD223C,1.6000*%
%ADD224C,0.6000*%
%ADD225R,1.9050X1.9050*%
%ADD226C,1.9050*%
%ADD227R,3.0000X3.0000*%
%ADD228C,0.3048*%
%ADD229C,0.5588*%
%ADD230C,0.5000*%
%ADD231C,0.5080*%
D217*
X1174400Y924704D02*
D03*
X824400Y1274704D02*
D03*
X45720Y1955800D02*
D03*
Y45720D02*
D03*
X1955800D02*
D03*
Y1955800D02*
D03*
D218*
X1927606Y1719326D02*
D03*
X1978406D02*
D03*
Y1770126D02*
D03*
X1927606D02*
D03*
X1953006Y1744726D02*
D03*
X1954530Y1573127D02*
D03*
X1929130Y1598527D02*
D03*
X1979930D02*
D03*
Y1547727D02*
D03*
X1929130D02*
D03*
X1954530Y1456287D02*
D03*
X1929130Y1481687D02*
D03*
X1979930D02*
D03*
Y1430887D02*
D03*
X1929130D02*
D03*
X1953006Y1861566D02*
D03*
X1927606Y1886966D02*
D03*
X1978406D02*
D03*
Y1836166D02*
D03*
X1927606D02*
D03*
D219*
X1933980Y591820D02*
D03*
Y464820D02*
D03*
D220*
X1908580Y563880D02*
D03*
D221*
Y543560D02*
D03*
Y523240D02*
D03*
Y502920D02*
D03*
X1890800Y553720D02*
D03*
Y533400D02*
D03*
Y513080D02*
D03*
Y492760D02*
D03*
X1842540Y596900D02*
D03*
Y482600D02*
D03*
Y459740D02*
D03*
Y574040D02*
D03*
D222*
X1884680Y301500D02*
D03*
Y181100D02*
D03*
X1797320Y982800D02*
D03*
Y1024800D02*
D03*
Y1066800D02*
D03*
X1852320Y982800D02*
D03*
Y1024800D02*
D03*
D223*
X1857680Y228800D02*
D03*
Y253800D02*
D03*
X1837680Y228800D02*
D03*
Y253800D02*
D03*
D224*
X1373680Y487570D02*
D03*
X1384380D02*
D03*
X1395080D02*
D03*
X1373680Y476870D02*
D03*
X1384380D02*
D03*
X1395080D02*
D03*
X1373680Y466170D02*
D03*
X1384380D02*
D03*
X1395080D02*
D03*
D225*
X1940560Y712800D02*
D03*
D226*
Y762800D02*
D03*
Y812800D02*
D03*
Y862800D02*
D03*
D227*
X1852320Y1066800D02*
D03*
D228*
X537210Y1052830D02*
D03*
X428033Y1068710D02*
D03*
Y1086490D02*
D03*
X715122Y1266464D02*
D03*
Y1286784D02*
D03*
X735442D02*
D03*
Y1266464D02*
D03*
X754492D02*
D03*
Y1286784D02*
D03*
X694802Y1266464D02*
D03*
Y1286784D02*
D03*
X774812Y1266464D02*
D03*
Y1286784D02*
D03*
X314960Y1414795D02*
D03*
Y1496075D02*
D03*
Y1475755D02*
D03*
Y1455435D02*
D03*
Y1435115D02*
D03*
Y1678955D02*
D03*
Y1658635D02*
D03*
Y1638315D02*
D03*
Y1577355D02*
D03*
Y1597675D02*
D03*
Y1617995D02*
D03*
Y1557035D02*
D03*
Y1536715D02*
D03*
Y1516395D02*
D03*
Y1821180D02*
D03*
Y1841500D02*
D03*
Y1861820D02*
D03*
Y1800860D02*
D03*
Y1780540D02*
D03*
Y1760220D02*
D03*
Y1699260D02*
D03*
Y1719580D02*
D03*
Y1739900D02*
D03*
Y1882140D02*
D03*
X274320Y1272525D02*
D03*
Y1252205D02*
D03*
Y1292860D02*
D03*
Y1333500D02*
D03*
Y1353820D02*
D03*
Y1313180D02*
D03*
X546100Y1477025D02*
D03*
Y1497345D02*
D03*
Y1639585D02*
D03*
Y1659905D02*
D03*
Y1680225D02*
D03*
Y1619265D02*
D03*
Y1598945D02*
D03*
Y1578625D02*
D03*
Y1517665D02*
D03*
Y1537985D02*
D03*
Y1558305D02*
D03*
Y1863090D02*
D03*
Y1842770D02*
D03*
Y1822450D02*
D03*
Y1761490D02*
D03*
Y1781810D02*
D03*
Y1802130D02*
D03*
Y1741170D02*
D03*
Y1720850D02*
D03*
Y1700530D02*
D03*
Y1883410D02*
D03*
X525780Y1497345D02*
D03*
Y1477025D02*
D03*
X505460D02*
D03*
Y1497345D02*
D03*
Y1639585D02*
D03*
Y1659905D02*
D03*
Y1680225D02*
D03*
X525780D02*
D03*
Y1659905D02*
D03*
Y1639585D02*
D03*
Y1578625D02*
D03*
Y1598945D02*
D03*
Y1619265D02*
D03*
X505460D02*
D03*
Y1598945D02*
D03*
Y1578625D02*
D03*
Y1517665D02*
D03*
Y1537985D02*
D03*
Y1558305D02*
D03*
X525780D02*
D03*
Y1537985D02*
D03*
Y1517665D02*
D03*
X505460Y1863090D02*
D03*
Y1842770D02*
D03*
Y1822450D02*
D03*
X525780D02*
D03*
Y1842770D02*
D03*
Y1863090D02*
D03*
Y1802130D02*
D03*
Y1781810D02*
D03*
Y1761490D02*
D03*
X505460D02*
D03*
Y1781810D02*
D03*
Y1802130D02*
D03*
Y1741170D02*
D03*
Y1720850D02*
D03*
Y1700530D02*
D03*
X525780D02*
D03*
Y1720850D02*
D03*
Y1741170D02*
D03*
Y1883410D02*
D03*
X505460D02*
D03*
X274320Y1882140D02*
D03*
X294640D02*
D03*
Y1739900D02*
D03*
Y1719580D02*
D03*
Y1699260D02*
D03*
X274320D02*
D03*
Y1719580D02*
D03*
Y1739900D02*
D03*
Y1800860D02*
D03*
Y1780540D02*
D03*
Y1760220D02*
D03*
X294640D02*
D03*
Y1780540D02*
D03*
Y1800860D02*
D03*
Y1861820D02*
D03*
Y1841500D02*
D03*
Y1821180D02*
D03*
X274320D02*
D03*
Y1841500D02*
D03*
Y1861820D02*
D03*
X294640Y1516395D02*
D03*
Y1536715D02*
D03*
Y1557035D02*
D03*
X274320D02*
D03*
Y1536715D02*
D03*
Y1516395D02*
D03*
Y1577355D02*
D03*
Y1597675D02*
D03*
Y1617995D02*
D03*
X294640D02*
D03*
Y1597675D02*
D03*
Y1577355D02*
D03*
Y1638315D02*
D03*
Y1658635D02*
D03*
Y1678955D02*
D03*
X274320D02*
D03*
Y1658635D02*
D03*
Y1638315D02*
D03*
X294640Y1435115D02*
D03*
X274320D02*
D03*
Y1496075D02*
D03*
Y1475755D02*
D03*
Y1455435D02*
D03*
X294640D02*
D03*
Y1475755D02*
D03*
Y1496075D02*
D03*
X274320Y1414795D02*
D03*
X294640D02*
D03*
X274320Y1374140D02*
D03*
Y1394460D02*
D03*
X1520190Y1430020D02*
D03*
X1540510D02*
D03*
Y1450340D02*
D03*
X1520190D02*
D03*
X1560830D02*
D03*
X1581150D02*
D03*
Y1430020D02*
D03*
X1560830D02*
D03*
X1718310Y1389380D02*
D03*
X1483360Y1553030D02*
D03*
X1493520D02*
D03*
Y1542870D02*
D03*
X1483360D02*
D03*
X1883410Y1921510D02*
D03*
Y1941830D02*
D03*
Y1960880D02*
D03*
Y1981200D02*
D03*
X1822450D02*
D03*
X1842770D02*
D03*
X1863090D02*
D03*
Y1960880D02*
D03*
X1842770D02*
D03*
X1822450D02*
D03*
Y1941830D02*
D03*
X1842770D02*
D03*
X1863090D02*
D03*
Y1921510D02*
D03*
X1842770D02*
D03*
X1822450D02*
D03*
X1438910D02*
D03*
X1459230D02*
D03*
X1479550D02*
D03*
Y1941830D02*
D03*
X1459230D02*
D03*
X1438910D02*
D03*
Y1960880D02*
D03*
X1459230D02*
D03*
X1479550D02*
D03*
Y1981200D02*
D03*
X1459230D02*
D03*
X1438910D02*
D03*
X1499870D02*
D03*
X1520190D02*
D03*
X1540510D02*
D03*
Y1960880D02*
D03*
X1520190D02*
D03*
X1499870D02*
D03*
Y1941830D02*
D03*
X1520190D02*
D03*
X1540510D02*
D03*
Y1921510D02*
D03*
X1520190D02*
D03*
X1499870D02*
D03*
X1560830D02*
D03*
X1581150D02*
D03*
X1601470D02*
D03*
Y1941830D02*
D03*
X1581150D02*
D03*
X1560830D02*
D03*
Y1960880D02*
D03*
X1581150D02*
D03*
X1601470D02*
D03*
Y1981200D02*
D03*
X1581150D02*
D03*
X1560830D02*
D03*
X1661160D02*
D03*
X1681480D02*
D03*
X1701800D02*
D03*
Y1960880D02*
D03*
X1681480D02*
D03*
X1661160D02*
D03*
Y1941830D02*
D03*
X1681480D02*
D03*
X1701800D02*
D03*
X1661160Y1921510D02*
D03*
X1620520D02*
D03*
X1640840D02*
D03*
Y1941830D02*
D03*
X1620520D02*
D03*
Y1960880D02*
D03*
X1640840D02*
D03*
Y1981200D02*
D03*
X1620520D02*
D03*
X1720850D02*
D03*
X1741170D02*
D03*
Y1960880D02*
D03*
X1720850D02*
D03*
Y1941830D02*
D03*
X1741170D02*
D03*
Y1921510D02*
D03*
X1720850D02*
D03*
X1761490D02*
D03*
X1781810D02*
D03*
X1802130D02*
D03*
Y1941830D02*
D03*
X1781810D02*
D03*
X1761490D02*
D03*
Y1960880D02*
D03*
X1781810D02*
D03*
X1802130D02*
D03*
Y1981200D02*
D03*
X1781810D02*
D03*
X1761490D02*
D03*
X1984369Y1374726D02*
D03*
X1964049D02*
D03*
X1943729D02*
D03*
X1950048Y1502926D02*
D03*
X1970368D02*
D03*
Y1523246D02*
D03*
X1950048D02*
D03*
X1929728D02*
D03*
Y1502926D02*
D03*
X1931670Y1635760D02*
D03*
Y1656080D02*
D03*
X1951990D02*
D03*
X1972310D02*
D03*
Y1635760D02*
D03*
X1951990D02*
D03*
X1729740Y1673860D02*
D03*
X1750060D02*
D03*
X1770380D02*
D03*
Y1694180D02*
D03*
X1750060D02*
D03*
X1729740D02*
D03*
X1790700D02*
D03*
X1811020D02*
D03*
X1831340D02*
D03*
Y1673860D02*
D03*
X1811020D02*
D03*
X1790700D02*
D03*
X1851660D02*
D03*
X1871980D02*
D03*
X1892300D02*
D03*
Y1694180D02*
D03*
X1871980D02*
D03*
X1851660D02*
D03*
X1951990D02*
D03*
X1972310D02*
D03*
Y1673860D02*
D03*
X1951990D02*
D03*
X1911350D02*
D03*
X1931670D02*
D03*
Y1694180D02*
D03*
X1911350D02*
D03*
X1346200Y1673860D02*
D03*
X1366520D02*
D03*
X1386840D02*
D03*
Y1694180D02*
D03*
X1366520D02*
D03*
X1346200D02*
D03*
X1407160D02*
D03*
X1427480D02*
D03*
X1447800D02*
D03*
Y1673860D02*
D03*
X1427480D02*
D03*
X1407160D02*
D03*
X1468120D02*
D03*
X1488440D02*
D03*
X1508760D02*
D03*
Y1694180D02*
D03*
X1488440D02*
D03*
X1468120D02*
D03*
X1568450D02*
D03*
X1588770D02*
D03*
X1609090D02*
D03*
Y1673860D02*
D03*
X1588770D02*
D03*
X1568450D02*
D03*
X1527810D02*
D03*
X1548130D02*
D03*
Y1694180D02*
D03*
X1527810D02*
D03*
X1628140D02*
D03*
X1648460D02*
D03*
Y1673860D02*
D03*
X1628140D02*
D03*
X1668780D02*
D03*
X1689100D02*
D03*
X1709420D02*
D03*
Y1694180D02*
D03*
X1689100D02*
D03*
X1668780D02*
D03*
X1691640Y1362710D02*
D03*
Y1343660D02*
D03*
X1737360Y1330960D02*
D03*
X1718310D02*
D03*
X1784350Y1340439D02*
D03*
X1765300D02*
D03*
X436880Y1228090D02*
D03*
Y1248410D02*
D03*
X416560D02*
D03*
Y1228090D02*
D03*
X477520D02*
D03*
Y1248410D02*
D03*
Y1268730D02*
D03*
X457200D02*
D03*
Y1248410D02*
D03*
Y1228090D02*
D03*
Y1289050D02*
D03*
X477520D02*
D03*
X1441450Y1346200D02*
D03*
X1461770D02*
D03*
X1480820D02*
D03*
X1421130D02*
D03*
X1400810D02*
D03*
X1381760D02*
D03*
X1361440D02*
D03*
X1625600Y1306830D02*
D03*
Y1327150D02*
D03*
Y1347470D02*
D03*
X1645920D02*
D03*
Y1327150D02*
D03*
Y1306830D02*
D03*
X1664970D02*
D03*
Y1327150D02*
D03*
Y1347470D02*
D03*
X1605280Y1306830D02*
D03*
Y1327150D02*
D03*
Y1347470D02*
D03*
X1584960D02*
D03*
Y1327150D02*
D03*
Y1306830D02*
D03*
X1565910D02*
D03*
Y1327150D02*
D03*
Y1347470D02*
D03*
X1545590D02*
D03*
Y1327150D02*
D03*
Y1306830D02*
D03*
X1699260Y1202690D02*
D03*
X1719580D02*
D03*
X1739900D02*
D03*
Y1182370D02*
D03*
X1719580D02*
D03*
X1699260D02*
D03*
Y1163320D02*
D03*
X1719580D02*
D03*
X1739900D02*
D03*
X1699260Y1223010D02*
D03*
X1719580D02*
D03*
X1739900D02*
D03*
Y1243330D02*
D03*
X1719580D02*
D03*
X1699260D02*
D03*
Y1262380D02*
D03*
X1719580D02*
D03*
X1739900D02*
D03*
Y1282700D02*
D03*
X1719580D02*
D03*
X1699260D02*
D03*
X1758950Y1202690D02*
D03*
Y1182370D02*
D03*
Y1163320D02*
D03*
Y1223010D02*
D03*
Y1243330D02*
D03*
Y1262380D02*
D03*
Y1282700D02*
D03*
X1587500Y1143000D02*
D03*
Y1163320D02*
D03*
X1567180D02*
D03*
Y1143000D02*
D03*
X1384300Y1036320D02*
D03*
Y1016000D02*
D03*
X1363980Y995680D02*
D03*
X1323340D02*
D03*
X1343660D02*
D03*
X1303020D02*
D03*
Y975360D02*
D03*
X1323340Y955040D02*
D03*
X1343660D02*
D03*
Y975360D02*
D03*
X1323340D02*
D03*
X1384300Y995680D02*
D03*
X1445260Y975360D02*
D03*
X1384300D02*
D03*
X1363980D02*
D03*
Y955040D02*
D03*
X1384300D02*
D03*
X1404620D02*
D03*
X1424940D02*
D03*
Y975360D02*
D03*
X1404620D02*
D03*
X1424940Y1036320D02*
D03*
X1404620D02*
D03*
X1424940Y1056640D02*
D03*
Y1016000D02*
D03*
X1404620D02*
D03*
Y995680D02*
D03*
X1424940D02*
D03*
X1445260D02*
D03*
X1465580D02*
D03*
X1485900Y1016000D02*
D03*
X1465580D02*
D03*
X1445260D02*
D03*
Y1056640D02*
D03*
X1465580D02*
D03*
X1485900D02*
D03*
Y1036320D02*
D03*
X1465580D02*
D03*
X1445260D02*
D03*
Y1076960D02*
D03*
X1465580D02*
D03*
X1485900D02*
D03*
Y1097280D02*
D03*
X1465580D02*
D03*
X1445260D02*
D03*
Y1116330D02*
D03*
X1465580D02*
D03*
X1485900D02*
D03*
Y1136650D02*
D03*
X1465580D02*
D03*
X1445260D02*
D03*
X1506220D02*
D03*
Y1116330D02*
D03*
Y1097280D02*
D03*
Y1076960D02*
D03*
Y1036320D02*
D03*
Y1056640D02*
D03*
X1278108Y1183614D02*
D03*
X1257788D02*
D03*
Y1164564D02*
D03*
X1278108D02*
D03*
X1093769Y896700D02*
D03*
X1073449D02*
D03*
Y877650D02*
D03*
X1093769D02*
D03*
X1094286Y861117D02*
D03*
X1073966D02*
D03*
Y842067D02*
D03*
X1094286D02*
D03*
X1297860Y826062D02*
D03*
X1318180D02*
D03*
X1338500D02*
D03*
Y846382D02*
D03*
X1318180D02*
D03*
X1297860D02*
D03*
Y865432D02*
D03*
X1318180D02*
D03*
X1338500D02*
D03*
Y885752D02*
D03*
X1318180D02*
D03*
X1297860D02*
D03*
X1358820D02*
D03*
Y865432D02*
D03*
Y846382D02*
D03*
Y826062D02*
D03*
X1671032Y995593D02*
D03*
Y1015913D02*
D03*
X1650712D02*
D03*
Y995593D02*
D03*
X1631662D02*
D03*
Y1015913D02*
D03*
X1611342D02*
D03*
Y995593D02*
D03*
X1538822Y870578D02*
D03*
X1559142D02*
D03*
Y890898D02*
D03*
X1538822D02*
D03*
Y909948D02*
D03*
X1559142D02*
D03*
Y930268D02*
D03*
X1538822D02*
D03*
X1485240Y746379D02*
D03*
X1505560D02*
D03*
X1525880D02*
D03*
X1485240Y766699D02*
D03*
X1505560D02*
D03*
X1525880D02*
D03*
Y787019D02*
D03*
X1505560D02*
D03*
X1485240D02*
D03*
Y806069D02*
D03*
X1505560D02*
D03*
X1525880D02*
D03*
Y826389D02*
D03*
X1505560D02*
D03*
X1485240D02*
D03*
X1546200D02*
D03*
X1566520D02*
D03*
Y806069D02*
D03*
X1546200D02*
D03*
Y787019D02*
D03*
X1566520D02*
D03*
Y766699D02*
D03*
X1546200D02*
D03*
X1566520Y746379D02*
D03*
X1546200D02*
D03*
X1744736Y964394D02*
D03*
X1763786Y984714D02*
D03*
Y964394D02*
D03*
X403860Y561340D02*
D03*
X424180D02*
D03*
X444500D02*
D03*
Y541020D02*
D03*
X424180D02*
D03*
X403860D02*
D03*
Y521970D02*
D03*
X424180D02*
D03*
X444500D02*
D03*
Y501650D02*
D03*
X424180D02*
D03*
X403860D02*
D03*
Y581660D02*
D03*
X424180D02*
D03*
X444500D02*
D03*
Y601980D02*
D03*
X424180D02*
D03*
X403860D02*
D03*
Y621030D02*
D03*
X424180D02*
D03*
X444500D02*
D03*
Y641350D02*
D03*
X424180D02*
D03*
X403860D02*
D03*
X464820D02*
D03*
X485140D02*
D03*
X505460D02*
D03*
Y621030D02*
D03*
X485140D02*
D03*
X464820D02*
D03*
Y601980D02*
D03*
X485140D02*
D03*
X505460D02*
D03*
Y581660D02*
D03*
X485140D02*
D03*
X464820D02*
D03*
Y501650D02*
D03*
X485140D02*
D03*
X505460D02*
D03*
Y521970D02*
D03*
X485140D02*
D03*
X464820D02*
D03*
Y541020D02*
D03*
X485140D02*
D03*
X505460D02*
D03*
Y561340D02*
D03*
X485140D02*
D03*
X464820D02*
D03*
X525780D02*
D03*
X546100D02*
D03*
X566420D02*
D03*
Y541020D02*
D03*
X546100D02*
D03*
X525780D02*
D03*
Y521970D02*
D03*
X546100D02*
D03*
X566420D02*
D03*
Y501650D02*
D03*
X546100D02*
D03*
X525780D02*
D03*
Y581660D02*
D03*
X546100D02*
D03*
X566420D02*
D03*
Y601980D02*
D03*
X546100D02*
D03*
X525780D02*
D03*
Y621030D02*
D03*
X546100D02*
D03*
X566420D02*
D03*
Y641350D02*
D03*
X546100D02*
D03*
X525780D02*
D03*
X626110D02*
D03*
X646430D02*
D03*
X666750D02*
D03*
Y621030D02*
D03*
X646430D02*
D03*
X626110D02*
D03*
Y601980D02*
D03*
X646430D02*
D03*
X666750D02*
D03*
Y581660D02*
D03*
X646430D02*
D03*
X626110D02*
D03*
Y501650D02*
D03*
X646430D02*
D03*
X666750D02*
D03*
Y521970D02*
D03*
X646430D02*
D03*
X626110D02*
D03*
Y541020D02*
D03*
X646430D02*
D03*
X666750D02*
D03*
Y561340D02*
D03*
X646430D02*
D03*
X626110D02*
D03*
X585470D02*
D03*
X605790D02*
D03*
Y541020D02*
D03*
X585470D02*
D03*
Y521970D02*
D03*
X605790D02*
D03*
Y501650D02*
D03*
X585470D02*
D03*
Y581660D02*
D03*
X605790D02*
D03*
Y601980D02*
D03*
X585470D02*
D03*
Y621030D02*
D03*
X605790D02*
D03*
Y641350D02*
D03*
X585470D02*
D03*
X845820Y1436370D02*
D03*
X866140D02*
D03*
Y1416050D02*
D03*
X845820D02*
D03*
Y1456690D02*
D03*
X866140D02*
D03*
Y1477010D02*
D03*
X845820D02*
D03*
Y1496060D02*
D03*
X866140D02*
D03*
X825500D02*
D03*
X805180D02*
D03*
X784860D02*
D03*
Y1477010D02*
D03*
X805180D02*
D03*
X825500D02*
D03*
Y1456690D02*
D03*
X805180D02*
D03*
X784860D02*
D03*
Y1416050D02*
D03*
X805180D02*
D03*
X825500D02*
D03*
Y1436370D02*
D03*
X805180D02*
D03*
X784860D02*
D03*
X1070610Y1295400D02*
D03*
Y1275080D02*
D03*
X1130300D02*
D03*
X1111250D02*
D03*
Y1295400D02*
D03*
X1090930D02*
D03*
Y1275080D02*
D03*
X990600Y1295400D02*
D03*
Y1275080D02*
D03*
X1050290Y1295400D02*
D03*
Y1275080D02*
D03*
X1031240D02*
D03*
Y1295400D02*
D03*
X1010920D02*
D03*
Y1275080D02*
D03*
X910590Y1295400D02*
D03*
Y1275080D02*
D03*
X970280Y1295400D02*
D03*
Y1275080D02*
D03*
X951230D02*
D03*
Y1295400D02*
D03*
X930910D02*
D03*
Y1275080D02*
D03*
X1094286Y806201D02*
D03*
X1073966D02*
D03*
Y825251D02*
D03*
X1094286D02*
D03*
X1209040Y984250D02*
D03*
X1229360Y963930D02*
D03*
X1209040D02*
D03*
X1229360Y943610D02*
D03*
X1209040D02*
D03*
X1229360Y984250D02*
D03*
Y1004570D02*
D03*
X1209040D02*
D03*
Y1125220D02*
D03*
X1229360D02*
D03*
Y1104900D02*
D03*
X1209040D02*
D03*
Y1085850D02*
D03*
X1229360D02*
D03*
Y1065530D02*
D03*
X1209040D02*
D03*
Y1024890D02*
D03*
X1229360D02*
D03*
Y1045210D02*
D03*
X1209040D02*
D03*
Y1245870D02*
D03*
X1229360D02*
D03*
Y1225550D02*
D03*
X1209040D02*
D03*
Y1206500D02*
D03*
X1229360D02*
D03*
Y1186180D02*
D03*
X1209040D02*
D03*
Y1145540D02*
D03*
X1229360D02*
D03*
Y1165860D02*
D03*
X1209040D02*
D03*
X1023620Y925830D02*
D03*
X1003300D02*
D03*
X943610Y885190D02*
D03*
Y905510D02*
D03*
X963930D02*
D03*
Y885190D02*
D03*
X982980D02*
D03*
Y905510D02*
D03*
X1003300D02*
D03*
Y885190D02*
D03*
Y824230D02*
D03*
Y844550D02*
D03*
Y864870D02*
D03*
X982980D02*
D03*
Y844550D02*
D03*
Y824230D02*
D03*
X963930D02*
D03*
Y844550D02*
D03*
Y864870D02*
D03*
X943610D02*
D03*
Y844550D02*
D03*
Y824230D02*
D03*
Y803910D02*
D03*
X963930D02*
D03*
X982980D02*
D03*
X1003300D02*
D03*
X436880Y1268730D02*
D03*
Y1289050D02*
D03*
X375920D02*
D03*
X396240D02*
D03*
X416560D02*
D03*
Y1268730D02*
D03*
X396240D02*
D03*
X375920D02*
D03*
Y1309370D02*
D03*
X396240D02*
D03*
X416560D02*
D03*
Y1329690D02*
D03*
X396240D02*
D03*
X375920D02*
D03*
X436880D02*
D03*
X457200D02*
D03*
X477520D02*
D03*
Y1309370D02*
D03*
X457200D02*
D03*
X436880D02*
D03*
X497840D02*
D03*
X518160D02*
D03*
X538480D02*
D03*
Y1329690D02*
D03*
X518160D02*
D03*
X497840D02*
D03*
X355600Y1374140D02*
D03*
X335280D02*
D03*
X314960D02*
D03*
Y1394460D02*
D03*
X335280D02*
D03*
X355600D02*
D03*
X294640D02*
D03*
Y1374140D02*
D03*
X497840Y1394460D02*
D03*
X518160D02*
D03*
X538480D02*
D03*
Y1374140D02*
D03*
X518160D02*
D03*
X497840D02*
D03*
X436880D02*
D03*
X457200D02*
D03*
X477520D02*
D03*
Y1394460D02*
D03*
X457200D02*
D03*
X436880D02*
D03*
X375920D02*
D03*
X396240D02*
D03*
X416560D02*
D03*
Y1374140D02*
D03*
X396240D02*
D03*
X375920D02*
D03*
X1063822Y1662430D02*
D03*
X1082872D02*
D03*
X1103192D02*
D03*
Y1682750D02*
D03*
X1082872D02*
D03*
X1063822D02*
D03*
X1010698Y1574800D02*
D03*
X1031018D02*
D03*
X1050068D02*
D03*
X1189990D02*
D03*
X1170940D02*
D03*
X1071880Y1595120D02*
D03*
X1090930D02*
D03*
X1111250D02*
D03*
X1150620D02*
D03*
X1131570D02*
D03*
Y1574800D02*
D03*
X1150620D02*
D03*
X1111250D02*
D03*
X1090930D02*
D03*
X1071880D02*
D03*
X1170940Y1692910D02*
D03*
Y1672590D02*
D03*
Y1653540D02*
D03*
Y1633220D02*
D03*
Y1595120D02*
D03*
Y1612900D02*
D03*
X1191260D02*
D03*
Y1595120D02*
D03*
Y1633220D02*
D03*
Y1653540D02*
D03*
Y1672590D02*
D03*
Y1692910D02*
D03*
X350690Y1001400D02*
D03*
X386250D02*
D03*
X368470D02*
D03*
X386250Y1026800D02*
D03*
X368470D02*
D03*
X350690D02*
D03*
X368470Y1052200D02*
D03*
X386250D02*
D03*
X350690D02*
D03*
X278300Y1052200D02*
D03*
X260520D02*
D03*
X313860D02*
D03*
X296080D02*
D03*
Y1001400D02*
D03*
X313860D02*
D03*
X296080Y1026800D02*
D03*
X313860D02*
D03*
X278300Y1001400D02*
D03*
X260520D02*
D03*
Y1026800D02*
D03*
X278300D02*
D03*
X1377950Y1981200D02*
D03*
X1398270D02*
D03*
X1418590D02*
D03*
Y1960880D02*
D03*
X1398270D02*
D03*
X1377950D02*
D03*
Y1941830D02*
D03*
X1398270D02*
D03*
X1418590D02*
D03*
Y1921510D02*
D03*
X1398270D02*
D03*
X1377950D02*
D03*
X1337310D02*
D03*
X1357630D02*
D03*
Y1941830D02*
D03*
X1337310D02*
D03*
Y1960880D02*
D03*
X1357630D02*
D03*
Y1981200D02*
D03*
X1337310D02*
D03*
X1236980D02*
D03*
X1257300D02*
D03*
Y1960880D02*
D03*
X1236980D02*
D03*
Y1941830D02*
D03*
X1257300D02*
D03*
Y1921510D02*
D03*
X1236980D02*
D03*
Y1841500D02*
D03*
X1257300D02*
D03*
Y1861820D02*
D03*
X1236980D02*
D03*
Y1880870D02*
D03*
X1257300D02*
D03*
Y1901190D02*
D03*
X1236980D02*
D03*
X1277620D02*
D03*
X1297940D02*
D03*
X1318260D02*
D03*
Y1880870D02*
D03*
X1297940D02*
D03*
X1277620D02*
D03*
Y1861820D02*
D03*
X1297940D02*
D03*
X1318260D02*
D03*
Y1841500D02*
D03*
X1297940D02*
D03*
X1277620D02*
D03*
Y1921510D02*
D03*
X1297940D02*
D03*
X1318260D02*
D03*
Y1941830D02*
D03*
X1297940D02*
D03*
X1277620D02*
D03*
Y1960880D02*
D03*
X1297940D02*
D03*
X1318260D02*
D03*
Y1981200D02*
D03*
X1297940D02*
D03*
X1277620D02*
D03*
X1177290D02*
D03*
X1197610D02*
D03*
X1217930D02*
D03*
Y1960880D02*
D03*
X1197610D02*
D03*
X1177290D02*
D03*
Y1941830D02*
D03*
X1197610D02*
D03*
X1217930D02*
D03*
Y1921510D02*
D03*
X1197610D02*
D03*
X1177290D02*
D03*
Y1841500D02*
D03*
X1197610D02*
D03*
X1217930D02*
D03*
Y1861820D02*
D03*
X1197610D02*
D03*
X1177290D02*
D03*
Y1880870D02*
D03*
X1197610D02*
D03*
X1217930D02*
D03*
Y1901190D02*
D03*
X1197610D02*
D03*
X1177290D02*
D03*
X1116330D02*
D03*
X1136650D02*
D03*
X1156970D02*
D03*
Y1880870D02*
D03*
X1136650D02*
D03*
X1116330D02*
D03*
Y1861820D02*
D03*
X1136650D02*
D03*
X1156970D02*
D03*
Y1841500D02*
D03*
X1136650D02*
D03*
X1116330D02*
D03*
Y1921510D02*
D03*
X1136650D02*
D03*
X1156970D02*
D03*
Y1941830D02*
D03*
X1136650D02*
D03*
X1116330D02*
D03*
Y1960880D02*
D03*
X1136650D02*
D03*
X1156970D02*
D03*
Y1981200D02*
D03*
X1136650D02*
D03*
X1116330D02*
D03*
X1055370D02*
D03*
X1075690D02*
D03*
X1096010D02*
D03*
Y1960880D02*
D03*
X1075690D02*
D03*
X1055370D02*
D03*
Y1941830D02*
D03*
X1075690D02*
D03*
X1096010D02*
D03*
Y1921510D02*
D03*
X1075690D02*
D03*
X1055370D02*
D03*
Y1841500D02*
D03*
X1075690D02*
D03*
X1096010D02*
D03*
Y1861820D02*
D03*
X1075690D02*
D03*
X1055370D02*
D03*
Y1880870D02*
D03*
X1075690D02*
D03*
X1096010D02*
D03*
Y1901190D02*
D03*
X1075690D02*
D03*
X1055370D02*
D03*
X760730Y1663700D02*
D03*
X720090Y1823720D02*
D03*
X740410Y1803400D02*
D03*
Y1823720D02*
D03*
X781050Y1743710D02*
D03*
X801370D02*
D03*
Y1723390D02*
D03*
X781050D02*
D03*
Y1704340D02*
D03*
X801370D02*
D03*
Y1684020D02*
D03*
X781050D02*
D03*
Y1764030D02*
D03*
X801370D02*
D03*
Y1784350D02*
D03*
X781050D02*
D03*
Y1803400D02*
D03*
X801370D02*
D03*
Y1823720D02*
D03*
X781050D02*
D03*
X760730D02*
D03*
Y1803400D02*
D03*
Y1784350D02*
D03*
Y1764030D02*
D03*
Y1684020D02*
D03*
Y1704340D02*
D03*
Y1723390D02*
D03*
Y1743710D02*
D03*
X720090Y1903730D02*
D03*
X740410D02*
D03*
X760730D02*
D03*
Y1883410D02*
D03*
X740410D02*
D03*
X720090D02*
D03*
Y1864360D02*
D03*
X740410D02*
D03*
X760730D02*
D03*
Y1844040D02*
D03*
X740410D02*
D03*
X720090D02*
D03*
Y1924050D02*
D03*
X740410D02*
D03*
X760730D02*
D03*
Y1944370D02*
D03*
X740410D02*
D03*
X720090D02*
D03*
Y1963420D02*
D03*
X740410D02*
D03*
X760730D02*
D03*
Y1983740D02*
D03*
X740410D02*
D03*
X720090D02*
D03*
X781050D02*
D03*
X801370D02*
D03*
X821690D02*
D03*
Y1963420D02*
D03*
X801370D02*
D03*
X781050D02*
D03*
Y1944370D02*
D03*
X801370D02*
D03*
X821690D02*
D03*
Y1924050D02*
D03*
X801370D02*
D03*
X781050D02*
D03*
Y1844040D02*
D03*
X801370D02*
D03*
X821690D02*
D03*
Y1864360D02*
D03*
X801370D02*
D03*
X781050D02*
D03*
Y1883410D02*
D03*
X801370D02*
D03*
X821690D02*
D03*
Y1903730D02*
D03*
X801370D02*
D03*
X781050D02*
D03*
X1945640Y1228090D02*
D03*
X763022Y1592177D02*
D03*
X795773D02*
D03*
X923290Y1963420D02*
D03*
Y1983740D02*
D03*
X902970D02*
D03*
Y1963420D02*
D03*
X842010Y1903730D02*
D03*
X862330D02*
D03*
X882650D02*
D03*
Y1883410D02*
D03*
X862330D02*
D03*
X842010D02*
D03*
Y1864360D02*
D03*
X862330D02*
D03*
X882650D02*
D03*
Y1844040D02*
D03*
X862330D02*
D03*
X842010D02*
D03*
Y1924050D02*
D03*
X862330D02*
D03*
X882650D02*
D03*
Y1944370D02*
D03*
X862330D02*
D03*
X842010D02*
D03*
Y1963420D02*
D03*
X862330D02*
D03*
X882650D02*
D03*
Y1983740D02*
D03*
X862330D02*
D03*
X842010D02*
D03*
X866314Y1725007D02*
D03*
X984773D02*
D03*
X1882394Y1714500D02*
D03*
X1392841Y1511378D02*
D03*
X1403000D02*
D03*
Y1521537D02*
D03*
X1392841D02*
D03*
X1413161D02*
D03*
X1423320D02*
D03*
Y1511378D02*
D03*
X1413161D02*
D03*
X1453801D02*
D03*
X1463961D02*
D03*
Y1521537D02*
D03*
X1453801D02*
D03*
X1433481D02*
D03*
X1443640D02*
D03*
Y1511378D02*
D03*
X1433481D02*
D03*
X1386661Y1769711D02*
D03*
Y1759551D02*
D03*
X1376501D02*
D03*
X1386661Y1749391D02*
D03*
X1376501D02*
D03*
X1447621Y1729071D02*
D03*
X1457781D02*
D03*
Y1739231D02*
D03*
X1447621D02*
D03*
X1467941D02*
D03*
X1478101D02*
D03*
Y1729071D02*
D03*
X1467941D02*
D03*
X1488261Y1739231D02*
D03*
Y1729071D02*
D03*
X1406981D02*
D03*
X1417141D02*
D03*
Y1739231D02*
D03*
X1406981D02*
D03*
X1427301D02*
D03*
X1437461D02*
D03*
Y1729071D02*
D03*
X1427301D02*
D03*
X1386661D02*
D03*
X1396821D02*
D03*
Y1739231D02*
D03*
X1386661D02*
D03*
X1366341D02*
D03*
X1376501D02*
D03*
Y1729071D02*
D03*
X1366341D02*
D03*
X1379495Y1427558D02*
D03*
X1371215D02*
D03*
X1389040Y1438227D02*
D03*
Y1427558D02*
D03*
Y1416889D02*
D03*
X1371215Y1438227D02*
D03*
Y1416889D02*
D03*
X1379495D02*
D03*
Y1438149D02*
D03*
X1741738Y1405306D02*
D03*
Y1416813D02*
D03*
X1753168Y1405306D02*
D03*
Y1416813D02*
D03*
Y1392056D02*
D03*
X1741738D02*
D03*
X1730308D02*
D03*
X1732280Y1416813D02*
D03*
Y1405306D02*
D03*
X1788022Y1617754D02*
D03*
X1889760Y1867535D02*
D03*
X1803398Y1505712D02*
D03*
X1866900Y1465580D02*
D03*
X1858010D02*
D03*
X1831340D02*
D03*
X1849120D02*
D03*
X1840230Y1426210D02*
D03*
X1831340Y1452880D02*
D03*
X1840230Y1438910D02*
D03*
X1874520Y1450340D02*
D03*
X1883410D02*
D03*
X1866900D02*
D03*
X1849120D02*
D03*
X1858010D02*
D03*
X1931670Y1224280D02*
D03*
X1916430D02*
D03*
X1903730Y1243330D02*
D03*
Y1235710D02*
D03*
Y1228090D02*
D03*
X1939290Y1224280D02*
D03*
X1924050D02*
D03*
X1908810D02*
D03*
X1629156Y1400463D02*
D03*
X1653861Y1422400D02*
D03*
X1477621Y550829D02*
D03*
X1386098Y542934D02*
D03*
X1400175Y541682D02*
D03*
X1484490Y551054D02*
D03*
X1393962Y536808D02*
D03*
X1425944Y453656D02*
D03*
X1426210Y514350D02*
D03*
X1427480Y461010D02*
D03*
X1426210Y468630D02*
D03*
X1380470Y545836D02*
D03*
X1274674Y496836D02*
D03*
X1265071Y426196D02*
D03*
X1265008Y420148D02*
D03*
X1231358Y459702D02*
D03*
X1248278Y482905D02*
D03*
X1226109Y456533D02*
D03*
X1254952Y463980D02*
D03*
X1257533Y500788D02*
D03*
X1311980Y559770D02*
D03*
X1333171Y571977D02*
D03*
X1336461Y576175D02*
D03*
X1409379Y431165D02*
D03*
X1339179Y421671D02*
D03*
X1341095Y416067D02*
D03*
X1320437Y416131D02*
D03*
X1327139D02*
D03*
X1257945Y471994D02*
D03*
X1258221Y458917D02*
D03*
X1252837Y497455D02*
D03*
X1269822Y494620D02*
D03*
X1288173Y420148D02*
D03*
X1288208Y414187D02*
D03*
X1278691Y472636D02*
D03*
X1291065Y506373D02*
D03*
X1282348Y492477D02*
D03*
X1287135Y496217D02*
D03*
X1274304Y469603D02*
D03*
X1416629Y431132D02*
D03*
X1249778Y488623D02*
D03*
X1262380Y474980D02*
D03*
X1052500Y1030005D02*
D03*
X1032500D02*
D03*
X1002511Y1039990D02*
D03*
X972515Y1020011D02*
D03*
X1295890Y509075D02*
D03*
X655342Y1369726D02*
D03*
X662242Y1372686D02*
D03*
X655342Y1376562D02*
D03*
Y1351651D02*
D03*
X662242Y1366590D02*
D03*
Y1357954D02*
D03*
X655342Y1357912D02*
D03*
X662242Y1351858D02*
D03*
X1343003Y568522D02*
D03*
X1347236Y571737D02*
D03*
X1325086Y555594D02*
D03*
X1328980Y558800D02*
D03*
X1307512Y556349D02*
D03*
X569579Y1031862D02*
D03*
X548060Y1032570D02*
D03*
X560240Y1037100D02*
D03*
X532935Y1031724D02*
D03*
X624715Y953512D02*
D03*
X631750D02*
D03*
X637500Y953650D02*
D03*
X554816Y952880D02*
D03*
X568749Y954159D02*
D03*
X542460Y953100D02*
D03*
X606314Y954568D02*
D03*
X613297Y954459D02*
D03*
X1032510Y1090000D02*
D03*
X1042510Y1070000D02*
D03*
X1032510D02*
D03*
Y1080000D02*
D03*
X1012510D02*
D03*
X1022510D02*
D03*
X1032510Y1060000D02*
D03*
X1012510D02*
D03*
Y1050000D02*
D03*
X1022510Y1070000D02*
D03*
X1032510Y1050000D02*
D03*
X1022510Y1060028D02*
D03*
X1012510Y1070000D02*
D03*
X1052510Y1200000D02*
D03*
X952490Y1200000D02*
D03*
X972490D02*
D03*
X932490D02*
D03*
X922490D02*
D03*
X1022500Y1200010D02*
D03*
X1042510Y1200000D02*
D03*
X1012500Y1200010D02*
D03*
X1032500Y1200010D02*
D03*
X962490Y1200000D02*
D03*
X912490D02*
D03*
X1052510Y1190000D02*
D03*
X912510D02*
D03*
X972490D02*
D03*
X952490D02*
D03*
X992490D02*
D03*
X1062510D02*
D03*
X1012500Y1190010D02*
D03*
X932490Y1190000D02*
D03*
X1022500Y1190010D02*
D03*
X982490Y1070000D02*
D03*
X972490Y1080000D02*
D03*
Y1070000D02*
D03*
Y1090000D02*
D03*
X972488Y1060028D02*
D03*
X982490Y1050001D02*
D03*
X972488Y1050001D02*
D03*
X972500Y1039990D02*
D03*
X982490Y1090000D02*
D03*
Y1080000D02*
D03*
X962516Y1090007D02*
D03*
X982490Y1060028D02*
D03*
X982500Y1039990D02*
D03*
X1012510Y1090000D02*
D03*
X1022510D02*
D03*
X1052510Y1060000D02*
D03*
X1062510Y1090000D02*
D03*
X992490Y1070000D02*
D03*
X992500Y1020000D02*
D03*
X992490Y1060000D02*
D03*
Y1120000D02*
D03*
Y1110000D02*
D03*
X992500Y1039989D02*
D03*
X992500Y1010000D02*
D03*
X992490Y1090000D02*
D03*
Y1080000D02*
D03*
Y1050001D02*
D03*
X1052510Y1150000D02*
D03*
X1042710Y1150000D02*
D03*
X1042510Y1180000D02*
D03*
X1042500Y1140010D02*
D03*
X1042710Y1160000D02*
D03*
X1042510Y1170000D02*
D03*
Y1120000D02*
D03*
X1072510Y1180000D02*
D03*
Y1120000D02*
D03*
X1052510Y1180000D02*
D03*
Y1170000D02*
D03*
X1062510Y1150000D02*
D03*
Y1180000D02*
D03*
X972490Y1110000D02*
D03*
X982490Y1120000D02*
D03*
Y1110000D02*
D03*
X972490Y1120000D02*
D03*
X1012510Y1110000D02*
D03*
X1032510Y1120000D02*
D03*
X1012510D02*
D03*
X1032510Y1110000D02*
D03*
X1022510Y1120000D02*
D03*
Y1110000D02*
D03*
X1072510Y1220000D02*
D03*
X1062510D02*
D03*
Y1210000D02*
D03*
X982490D02*
D03*
X1072510D02*
D03*
X992490Y1220000D02*
D03*
X1042510D02*
D03*
X982490D02*
D03*
X1042510Y1210000D02*
D03*
X1012500Y1210010D02*
D03*
X1052500Y990000D02*
D03*
X1012510Y1000000D02*
D03*
X1032510Y1000001D02*
D03*
X1052510Y1000000D02*
D03*
X1062500D02*
D03*
X1012510Y980000D02*
D03*
X1042510Y990000D02*
D03*
X1032510D02*
D03*
X1072500D02*
D03*
X1052510Y980000D02*
D03*
X1072510D02*
D03*
X1062510Y990001D02*
D03*
X1072500Y1000000D02*
D03*
X1032510Y980000D02*
D03*
X1022500Y1220010D02*
D03*
X962490Y1229994D02*
D03*
X922490Y1220000D02*
D03*
X912490D02*
D03*
X932490D02*
D03*
X962490D02*
D03*
X952490D02*
D03*
X942490D02*
D03*
X972490D02*
D03*
X1032500Y1220010D02*
D03*
X1032510Y1020000D02*
D03*
X1012510Y1040000D02*
D03*
X1022500Y1010000D02*
D03*
X1032510Y1010000D02*
D03*
X1022510Y1040000D02*
D03*
X1012510Y1010000D02*
D03*
X1042510Y1040000D02*
D03*
X1062500Y1020000D02*
D03*
X1022500D02*
D03*
X1042500D02*
D03*
X1072510Y1040000D02*
D03*
X1042510Y1030000D02*
D03*
X1062510D02*
D03*
X1072510Y1010000D02*
D03*
X932490Y1210000D02*
D03*
X972490Y1210000D02*
D03*
X922603Y1210000D02*
D03*
X962490Y1210000D02*
D03*
X952490D02*
D03*
X912490Y1210000D02*
D03*
X982500Y1029990D02*
D03*
X972500Y1010000D02*
D03*
X972500Y1029990D02*
D03*
X982500Y1020000D02*
D03*
Y1009990D02*
D03*
X609500Y972000D02*
D03*
X617500Y972000D02*
D03*
X577500Y972000D02*
D03*
X601500D02*
D03*
X625500D02*
D03*
X593500D02*
D03*
X633500D02*
D03*
X601500Y964000D02*
D03*
X585500D02*
D03*
X593500Y980000D02*
D03*
X585500D02*
D03*
X617500Y980000D02*
D03*
X633500Y980000D02*
D03*
X609500D02*
D03*
X601500D02*
D03*
X577500Y1004000D02*
D03*
X593500Y1004000D02*
D03*
X617500Y1004000D02*
D03*
X633500Y1012000D02*
D03*
X609500Y1004000D02*
D03*
X260520Y1103000D02*
D03*
Y1128400D02*
D03*
Y1153800D02*
D03*
X350690Y925200D02*
D03*
X386250D02*
D03*
X368470D02*
D03*
X313860D02*
D03*
X296080D02*
D03*
X278300D02*
D03*
X428033Y926470D02*
D03*
Y944250D02*
D03*
X428020Y935360D02*
D03*
X428033Y917555D02*
D03*
X599610Y899800D02*
D03*
X580560D02*
D03*
X589450Y882020D02*
D03*
X571670D02*
D03*
X551275Y865193D02*
D03*
X569055D02*
D03*
X655415Y875353D02*
D03*
X637635D02*
D03*
Y898213D02*
D03*
X368470Y1153800D02*
D03*
X386250D02*
D03*
X296080D02*
D03*
X278300D02*
D03*
X404030D02*
D03*
Y1179200D02*
D03*
X278300Y950600D02*
D03*
X657500Y964000D02*
D03*
X585500Y956000D02*
D03*
X600880Y937900D02*
D03*
X605960Y946790D02*
D03*
X649500Y964000D02*
D03*
X641500Y964000D02*
D03*
X594360Y911860D02*
D03*
Y923290D02*
D03*
X594530Y946790D02*
D03*
X588180Y937900D02*
D03*
X557700D02*
D03*
X581830Y946790D02*
D03*
X551350Y937900D02*
D03*
X260520Y950600D02*
D03*
Y976000D02*
D03*
Y1077600D02*
D03*
Y925200D02*
D03*
X867510Y1075000D02*
D03*
X882510Y1120001D02*
D03*
X882490Y1140000D02*
D03*
X882500Y1000000D02*
D03*
X867510Y1035020D02*
D03*
X860550Y1095001D02*
D03*
X872500Y1059991D02*
D03*
X882500Y1060000D02*
D03*
X867510Y1045001D02*
D03*
X882500Y1090000D02*
D03*
X657500Y972000D02*
D03*
X649500Y1012000D02*
D03*
Y1028000D02*
D03*
X657500D02*
D03*
X649500Y972000D02*
D03*
Y1020000D02*
D03*
X657500Y980000D02*
D03*
X962500Y979990D02*
D03*
X972500Y979990D02*
D03*
X942500Y979990D02*
D03*
X902500D02*
D03*
X872500Y980000D02*
D03*
X882510D02*
D03*
X982500Y979990D02*
D03*
X902500Y969990D02*
D03*
X882510Y970000D02*
D03*
X892500Y969990D02*
D03*
X962500Y969990D02*
D03*
X972500Y969990D02*
D03*
X580390Y1087120D02*
D03*
X593500Y1020000D02*
D03*
X593500Y1012001D02*
D03*
X617500Y1012001D02*
D03*
X633500Y1020000D02*
D03*
X605500Y1037100D02*
D03*
X593501Y1028000D02*
D03*
X621500Y1037100D02*
D03*
X613500D02*
D03*
X577501Y1028000D02*
D03*
X278300Y1077600D02*
D03*
Y976000D02*
D03*
Y1128400D02*
D03*
Y1103000D02*
D03*
X313860Y1077600D02*
D03*
X296080Y1103000D02*
D03*
Y1128400D02*
D03*
Y1077600D02*
D03*
X368470D02*
D03*
X404030Y1103000D02*
D03*
X386250Y1077600D02*
D03*
Y1103000D02*
D03*
X368470D02*
D03*
X350690Y1077600D02*
D03*
Y950600D02*
D03*
X428033Y953140D02*
D03*
X368470Y950600D02*
D03*
X386250D02*
D03*
X313860D02*
D03*
X428033Y962032D02*
D03*
X296080Y950600D02*
D03*
X549910Y1089660D02*
D03*
X537210Y1085850D02*
D03*
X566420Y1089660D02*
D03*
X537210Y1064260D02*
D03*
Y1075690D02*
D03*
X560070D02*
D03*
X404030Y1128400D02*
D03*
X386250D02*
D03*
X368470D02*
D03*
X553423Y1003999D02*
D03*
X561500Y1020000D02*
D03*
X577500D02*
D03*
X561500Y972000D02*
D03*
X569500Y1012000D02*
D03*
X569500Y1004000D02*
D03*
X569500Y1020001D02*
D03*
X561500Y1012000D02*
D03*
X577500Y1012001D02*
D03*
X569500Y972000D02*
D03*
X428033Y1077600D02*
D03*
X922500Y989991D02*
D03*
X942500Y999990D02*
D03*
X932500Y989990D02*
D03*
X922500Y999990D02*
D03*
X912510Y1030000D02*
D03*
X932510Y1030001D02*
D03*
X912510Y1020000D02*
D03*
X942500Y1020000D02*
D03*
X942510Y1030000D02*
D03*
X962510Y1100000D02*
D03*
X962490Y1070000D02*
D03*
X962503Y1189943D02*
D03*
X962500Y1019990D02*
D03*
X962500Y990025D02*
D03*
X962501Y1030025D02*
D03*
X962500Y1010000D02*
D03*
Y999990D02*
D03*
X962510Y1050000D02*
D03*
X952510Y1090000D02*
D03*
X942510Y1090000D02*
D03*
X962500Y1110010D02*
D03*
X952510Y1100000D02*
D03*
X952500Y1120000D02*
D03*
Y1080000D02*
D03*
X942510Y1100000D02*
D03*
X942500Y1079990D02*
D03*
X902490Y1130000D02*
D03*
Y1140000D02*
D03*
X902510Y1110000D02*
D03*
X902490Y1160000D02*
D03*
Y1180000D02*
D03*
X912510Y1100000D02*
D03*
X912510Y1080000D02*
D03*
Y1050000D02*
D03*
X912638Y1130089D02*
D03*
X912510Y1090000D02*
D03*
X912490Y1120000D02*
D03*
X922590Y1099921D02*
D03*
X922490Y1180000D02*
D03*
Y1150000D02*
D03*
X932490Y1120000D02*
D03*
X922490Y1130000D02*
D03*
X922510Y1040000D02*
D03*
X932590Y1090000D02*
D03*
X932470Y1080034D02*
D03*
X922550Y1090080D02*
D03*
X932549Y1070000D02*
D03*
X932510Y1100000D02*
D03*
X922510Y1070000D02*
D03*
X932510Y1060000D02*
D03*
X932510Y1050000D02*
D03*
X932490Y1180000D02*
D03*
X892479Y1090080D02*
D03*
X892550Y1099921D02*
D03*
X902470Y1080028D02*
D03*
X892510Y1110001D02*
D03*
Y1070000D02*
D03*
X902510Y1020000D02*
D03*
Y1040000D02*
D03*
X892455Y990000D02*
D03*
X892509Y1030020D02*
D03*
X902510Y1050001D02*
D03*
X892510Y1000001D02*
D03*
X892510Y1050000D02*
D03*
X892500Y1060000D02*
D03*
X892510Y1010015D02*
D03*
X1052510Y970000D02*
D03*
X1072510D02*
D03*
X1092510Y1190000D02*
D03*
Y970000D02*
D03*
X1102510Y1160000D02*
D03*
Y1140000D02*
D03*
X1092500Y1130010D02*
D03*
X1102500Y1180010D02*
D03*
X1092510Y1120000D02*
D03*
X1102510Y970000D02*
D03*
X1092510Y980000D02*
D03*
Y1210000D02*
D03*
Y1230000D02*
D03*
Y1220000D02*
D03*
X1112500Y1230010D02*
D03*
X1082510Y1210000D02*
D03*
X1132510Y970000D02*
D03*
X1122510Y1120000D02*
D03*
X1082500Y1200010D02*
D03*
X1082510Y1050000D02*
D03*
Y1190000D02*
D03*
Y1150000D02*
D03*
Y1180000D02*
D03*
Y1020000D02*
D03*
X1042510Y1230000D02*
D03*
X992490Y1230000D02*
D03*
X1072510D02*
D03*
X1062510D02*
D03*
X1082510Y1220000D02*
D03*
X902490D02*
D03*
X942503Y1230000D02*
D03*
X902490D02*
D03*
X972490D02*
D03*
X932490D02*
D03*
X922490Y1230000D02*
D03*
X1082510Y1230000D02*
D03*
X982490Y1230090D02*
D03*
X1122510Y1160000D02*
D03*
X1132500Y1230010D02*
D03*
X1122500Y1180010D02*
D03*
X1122500Y1200010D02*
D03*
X1122510Y1140000D02*
D03*
X882510Y1220000D02*
D03*
X892490Y1220000D02*
D03*
X882490Y1180000D02*
D03*
X892510Y1190000D02*
D03*
X882490Y1160000D02*
D03*
X912490Y1230000D02*
D03*
X892490D02*
D03*
X952490D02*
D03*
X1092510Y990001D02*
D03*
X1082510Y1000000D02*
D03*
X1122510Y1050000D02*
D03*
Y990000D02*
D03*
Y1030000D02*
D03*
X1102510Y1040000D02*
D03*
Y1030000D02*
D03*
Y1010000D02*
D03*
X1122510Y1090000D02*
D03*
Y1010000D02*
D03*
X1082510Y1070000D02*
D03*
X1102510Y1090000D02*
D03*
X1122510Y1070000D02*
D03*
X1022710Y1150000D02*
D03*
X1032490Y1140000D02*
D03*
X1022510Y1130000D02*
D03*
X1032510D02*
D03*
X1012510D02*
D03*
Y1150000D02*
D03*
X1032510Y1180000D02*
D03*
X1022510D02*
D03*
X952490D02*
D03*
X962490D02*
D03*
X992490Y1180000D02*
D03*
X972490Y1180000D02*
D03*
X982490Y1170000D02*
D03*
X962490Y1170000D02*
D03*
X972490Y1160000D02*
D03*
X952490Y1150000D02*
D03*
X942490D02*
D03*
X962490Y1130000D02*
D03*
X972490Y1130000D02*
D03*
X992490D02*
D03*
X982490D02*
D03*
X972490Y1140000D02*
D03*
X992490D02*
D03*
X1032510Y1170000D02*
D03*
X1012510Y1170000D02*
D03*
X1012500Y1160010D02*
D03*
X1022510Y1170000D02*
D03*
X1032490Y1160000D02*
D03*
X313860Y976000D02*
D03*
X296080D02*
D03*
X368470D02*
D03*
X428033Y1033150D02*
D03*
Y1059795D02*
D03*
Y979810D02*
D03*
Y970895D02*
D03*
X428033Y1050930D02*
D03*
X428033Y988675D02*
D03*
Y1042015D02*
D03*
Y1024286D02*
D03*
Y997590D02*
D03*
Y1006455D02*
D03*
Y1015370D02*
D03*
X545635Y964000D02*
D03*
X545500Y1012001D02*
D03*
X537547Y1012048D02*
D03*
X529194Y963600D02*
D03*
X545500Y972000D02*
D03*
X537500Y964000D02*
D03*
X537500Y1020000D02*
D03*
X545500Y980000D02*
D03*
X545500Y1020000D02*
D03*
X529500Y1020001D02*
D03*
X537500Y972000D02*
D03*
X386250Y976000D02*
D03*
X350690D02*
D03*
X866314Y1764037D02*
D03*
Y1750407D02*
D03*
X1664208Y1839468D02*
D03*
X1697990Y1873758D02*
D03*
X1689100Y1874266D02*
D03*
X1686951Y1057600D02*
D03*
X1687830Y1094740D02*
D03*
Y1104900D02*
D03*
X1397542Y441325D02*
D03*
X1466850Y426720D02*
D03*
X1477010Y433070D02*
D03*
X1513840Y431800D02*
D03*
Y422910D02*
D03*
X1526540D02*
D03*
Y431800D02*
D03*
X1539240Y422910D02*
D03*
Y431800D02*
D03*
X1551940D02*
D03*
Y422910D02*
D03*
X1563370Y431800D02*
D03*
Y422910D02*
D03*
X1645920Y427990D02*
D03*
Y436880D02*
D03*
Y445770D02*
D03*
X1654810Y427990D02*
D03*
Y436880D02*
D03*
Y445770D02*
D03*
X1673860Y427990D02*
D03*
Y436880D02*
D03*
Y445770D02*
D03*
X1682750Y427990D02*
D03*
Y436880D02*
D03*
Y445770D02*
D03*
X1699260Y427990D02*
D03*
Y436880D02*
D03*
Y445770D02*
D03*
X1708150Y427990D02*
D03*
Y436880D02*
D03*
Y445770D02*
D03*
X1351280Y499110D02*
D03*
X1397000Y514350D02*
D03*
X1557020Y447040D02*
D03*
X1565910D02*
D03*
X1582420Y554990D02*
D03*
Y491490D02*
D03*
X1592589Y537338D02*
D03*
X1592589Y510668D02*
D03*
X1628140Y552450D02*
D03*
Y491236D02*
D03*
Y496570D02*
D03*
X1628246Y558037D02*
D03*
X1699260Y455930D02*
D03*
Y464820D02*
D03*
Y473710D02*
D03*
X1708150Y455930D02*
D03*
Y464820D02*
D03*
Y473710D02*
D03*
X1737360Y455930D02*
D03*
X1746123Y560070D02*
D03*
X1751457D02*
D03*
X1760220Y454660D02*
D03*
X1775460Y473710D02*
D03*
Y482600D02*
D03*
X1736090Y746760D02*
D03*
Y762000D02*
D03*
X1823720Y760730D02*
D03*
Y767080D02*
D03*
D229*
X1681537Y1408307D02*
D03*
X1691537D02*
D03*
X1701537D02*
D03*
Y1418307D02*
D03*
X1691537D02*
D03*
X1681537D02*
D03*
Y1428307D02*
D03*
X1691537D02*
D03*
X1701537D02*
D03*
X779273Y1565081D02*
D03*
Y1555081D02*
D03*
Y1545081D02*
D03*
X789273D02*
D03*
Y1555081D02*
D03*
Y1565081D02*
D03*
X799273D02*
D03*
Y1555081D02*
D03*
Y1545081D02*
D03*
X1506810Y1414611D02*
D03*
X1496810D02*
D03*
X1486810D02*
D03*
Y1404611D02*
D03*
X1496810D02*
D03*
X1506810D02*
D03*
Y1394611D02*
D03*
X1496810D02*
D03*
X1486810D02*
D03*
D230*
X1922719Y1165576D02*
D03*
Y1173376D02*
D03*
Y1181176D02*
D03*
X1905519D02*
D03*
Y1173376D02*
D03*
Y1165576D02*
D03*
X683862Y1368680D02*
D03*
X689612Y1378180D02*
D03*
X678112D02*
D03*
X683862Y1387680D02*
D03*
X1802899Y1404533D02*
D03*
X1812899D02*
D03*
Y1384533D02*
D03*
X1822899D02*
D03*
Y1404533D02*
D03*
Y1394533D02*
D03*
X1812899D02*
D03*
X1802899Y1384533D02*
D03*
Y1394533D02*
D03*
X978880Y1417248D02*
D03*
X989880D02*
D03*
X1000880D02*
D03*
X1011880D02*
D03*
X1022880D02*
D03*
X978880Y1406248D02*
D03*
X989880D02*
D03*
X1000880D02*
D03*
X1011880D02*
D03*
X1022880D02*
D03*
X978880Y1395249D02*
D03*
X989880D02*
D03*
X1000880D02*
D03*
X1011880D02*
D03*
X1022880D02*
D03*
X978880Y1384248D02*
D03*
X989880D02*
D03*
X1000880D02*
D03*
X1011880D02*
D03*
X1022880D02*
D03*
X978880Y1373248D02*
D03*
X989880D02*
D03*
X1000880D02*
D03*
X1011880D02*
D03*
X1022880D02*
D03*
X1607963Y1587234D02*
D03*
Y1576234D02*
D03*
Y1565234D02*
D03*
Y1554234D02*
D03*
Y1543234D02*
D03*
X1596963Y1587234D02*
D03*
Y1576234D02*
D03*
Y1565234D02*
D03*
Y1554234D02*
D03*
Y1543234D02*
D03*
X1585963Y1587234D02*
D03*
Y1576234D02*
D03*
Y1565234D02*
D03*
Y1554234D02*
D03*
Y1543234D02*
D03*
X1574963Y1587234D02*
D03*
Y1576234D02*
D03*
Y1565234D02*
D03*
Y1554234D02*
D03*
Y1543234D02*
D03*
X1563963Y1587234D02*
D03*
Y1576234D02*
D03*
Y1565234D02*
D03*
Y1554234D02*
D03*
Y1543234D02*
D03*
X1807793Y1573274D02*
D03*
X1818793D02*
D03*
X1807793Y1562274D02*
D03*
X1818793D02*
D03*
X1655076Y1770728D02*
D03*
Y1781729D02*
D03*
Y1792728D02*
D03*
Y1803728D02*
D03*
Y1814728D02*
D03*
X1666077Y1770728D02*
D03*
Y1781729D02*
D03*
Y1792728D02*
D03*
Y1803728D02*
D03*
Y1814728D02*
D03*
X1677076Y1770728D02*
D03*
Y1781729D02*
D03*
Y1792728D02*
D03*
Y1803728D02*
D03*
Y1814728D02*
D03*
X1688076Y1770728D02*
D03*
Y1781729D02*
D03*
Y1792728D02*
D03*
Y1803728D02*
D03*
Y1814728D02*
D03*
X1699076Y1770728D02*
D03*
Y1781729D02*
D03*
Y1792728D02*
D03*
Y1803728D02*
D03*
Y1814728D02*
D03*
X1768170Y794200D02*
D03*
X1779170D02*
D03*
X1790170D02*
D03*
X1768170Y783200D02*
D03*
X1779170D02*
D03*
X1790170D02*
D03*
X1768170Y772200D02*
D03*
X1779170D02*
D03*
X1790170D02*
D03*
X1768170Y761200D02*
D03*
X1779170D02*
D03*
X1790170D02*
D03*
X1768170Y750200D02*
D03*
X1779170D02*
D03*
X1790170D02*
D03*
X1768170Y739200D02*
D03*
X1779170D02*
D03*
X1790170D02*
D03*
X1768170Y728200D02*
D03*
X1779170D02*
D03*
X1790170D02*
D03*
X1768170Y717200D02*
D03*
X1779170D02*
D03*
X1790170D02*
D03*
X1768170Y706200D02*
D03*
X1779170D02*
D03*
X1790170D02*
D03*
D231*
X1594000Y1083000D02*
D03*
X1578760D02*
D03*
X1563520D02*
D03*
X1624480Y1067760D02*
D03*
X1616860Y1060140D02*
D03*
X1632100D02*
D03*
Y1075380D02*
D03*
Y1090620D02*
D03*
Y1105860D02*
D03*
X1624480Y1083000D02*
D03*
Y1098240D02*
D03*
X1616860Y1075380D02*
D03*
Y1090620D02*
D03*
Y1105860D02*
D03*
X1609240Y1067760D02*
D03*
Y1083000D02*
D03*
Y1098240D02*
D03*
X1601620Y1060140D02*
D03*
Y1075380D02*
D03*
Y1090620D02*
D03*
Y1105860D02*
D03*
X1594000Y1067760D02*
D03*
Y1098240D02*
D03*
X1586380Y1060140D02*
D03*
Y1075380D02*
D03*
Y1090620D02*
D03*
Y1105860D02*
D03*
X1578760Y1067760D02*
D03*
Y1098240D02*
D03*
X1571140Y1060140D02*
D03*
Y1075380D02*
D03*
Y1090620D02*
D03*
Y1105860D02*
D03*
X1563520Y1067760D02*
D03*
Y1098240D02*
D03*
X1555900Y1105860D02*
D03*
Y1090620D02*
D03*
Y1075380D02*
D03*
Y1060140D02*
D03*
M02*
