G04*
G04 #@! TF.GenerationSoftware,Altium Limited,Altium Designer,23.11.1 (41)*
G04*
G04 Layer_Physical_Order=12*
G04 Layer_Color=16711680*
%FSLAX44Y44*%
%MOMM*%
G71*
G04*
G04 #@! TF.SameCoordinates,04611707-018F-4F9C-9273-AB504833585F*
G04*
G04*
G04 #@! TF.FilePolarity,Positive*
G04*
G01*
G75*
%ADD12C,0.2540*%
%ADD14C,0.1270*%
%ADD16C,0.1524*%
%ADD25C,0.3048*%
G04:AMPARAMS|DCode=42|XSize=4.4mm|YSize=2.5mm|CornerRadius=0.625mm|HoleSize=0mm|Usage=FLASHONLY|Rotation=0.000|XOffset=0mm|YOffset=0mm|HoleType=Round|Shape=RoundedRectangle|*
%AMROUNDEDRECTD42*
21,1,4.4000,1.2500,0,0,0.0*
21,1,3.1500,2.5000,0,0,0.0*
1,1,1.2500,1.5750,-0.6250*
1,1,1.2500,-1.5750,-0.6250*
1,1,1.2500,-1.5750,0.6250*
1,1,1.2500,1.5750,0.6250*
%
%ADD42ROUNDEDRECTD42*%
G04:AMPARAMS|DCode=45|XSize=4.4mm|YSize=2.5mm|CornerRadius=0.625mm|HoleSize=0mm|Usage=FLASHONLY|Rotation=270.000|XOffset=0mm|YOffset=0mm|HoleType=Round|Shape=RoundedRectangle|*
%AMROUNDEDRECTD45*
21,1,4.4000,1.2500,0,0,270.0*
21,1,3.1500,2.5000,0,0,270.0*
1,1,1.2500,-0.6250,-1.5750*
1,1,1.2500,-0.6250,1.5750*
1,1,1.2500,0.6250,1.5750*
1,1,1.2500,0.6250,-1.5750*
%
%ADD45ROUNDEDRECTD45*%
G04:AMPARAMS|DCode=49|XSize=0.508mm|YSize=0.508mm|CornerRadius=0.1524mm|HoleSize=0mm|Usage=FLASHONLY|Rotation=0.000|XOffset=0mm|YOffset=0mm|HoleType=Round|Shape=RoundedRectangle|*
%AMROUNDEDRECTD49*
21,1,0.5080,0.2032,0,0,0.0*
21,1,0.2032,0.5080,0,0,0.0*
1,1,0.3048,0.1016,-0.1016*
1,1,0.3048,-0.1016,-0.1016*
1,1,0.3048,-0.1016,0.1016*
1,1,0.3048,0.1016,0.1016*
%
%ADD49ROUNDEDRECTD49*%
G04:AMPARAMS|DCode=50|XSize=1.8034mm|YSize=1.1938mm|CornerRadius=0.203mm|HoleSize=0mm|Usage=FLASHONLY|Rotation=270.000|XOffset=0mm|YOffset=0mm|HoleType=Round|Shape=RoundedRectangle|*
%AMROUNDEDRECTD50*
21,1,1.8034,0.7879,0,0,270.0*
21,1,1.3975,1.1938,0,0,270.0*
1,1,0.4059,-0.3940,-0.6988*
1,1,0.4059,-0.3940,0.6988*
1,1,0.4059,0.3940,0.6988*
1,1,0.4059,0.3940,-0.6988*
%
%ADD50ROUNDEDRECTD50*%
G04:AMPARAMS|DCode=51|XSize=0.508mm|YSize=0.508mm|CornerRadius=0.1524mm|HoleSize=0mm|Usage=FLASHONLY|Rotation=270.000|XOffset=0mm|YOffset=0mm|HoleType=Round|Shape=RoundedRectangle|*
%AMROUNDEDRECTD51*
21,1,0.5080,0.2032,0,0,270.0*
21,1,0.2032,0.5080,0,0,270.0*
1,1,0.3048,-0.1016,-0.1016*
1,1,0.3048,-0.1016,0.1016*
1,1,0.3048,0.1016,0.1016*
1,1,0.3048,0.1016,-0.1016*
%
%ADD51ROUNDEDRECTD51*%
G04:AMPARAMS|DCode=52|XSize=1.8034mm|YSize=1.1938mm|CornerRadius=0.203mm|HoleSize=0mm|Usage=FLASHONLY|Rotation=180.000|XOffset=0mm|YOffset=0mm|HoleType=Round|Shape=RoundedRectangle|*
%AMROUNDEDRECTD52*
21,1,1.8034,0.7879,0,0,180.0*
21,1,1.3975,1.1938,0,0,180.0*
1,1,0.4059,-0.6988,0.3940*
1,1,0.4059,0.6988,0.3940*
1,1,0.4059,0.6988,-0.3940*
1,1,0.4059,-0.6988,-0.3940*
%
%ADD52ROUNDEDRECTD52*%
G04:AMPARAMS|DCode=53|XSize=1.397mm|YSize=1.0922mm|CornerRadius=0.2021mm|HoleSize=0mm|Usage=FLASHONLY|Rotation=0.000|XOffset=0mm|YOffset=0mm|HoleType=Round|Shape=RoundedRectangle|*
%AMROUNDEDRECTD53*
21,1,1.3970,0.6881,0,0,0.0*
21,1,0.9929,1.0922,0,0,0.0*
1,1,0.4041,0.4964,-0.3440*
1,1,0.4041,-0.4964,-0.3440*
1,1,0.4041,-0.4964,0.3440*
1,1,0.4041,0.4964,0.3440*
%
%ADD53ROUNDEDRECTD53*%
G04:AMPARAMS|DCode=57|XSize=0.889mm|YSize=0.8636mm|CornerRadius=0.1511mm|HoleSize=0mm|Usage=FLASHONLY|Rotation=0.000|XOffset=0mm|YOffset=0mm|HoleType=Round|Shape=RoundedRectangle|*
%AMROUNDEDRECTD57*
21,1,0.8890,0.5613,0,0,0.0*
21,1,0.5867,0.8636,0,0,0.0*
1,1,0.3023,0.2934,-0.2807*
1,1,0.3023,-0.2934,-0.2807*
1,1,0.3023,-0.2934,0.2807*
1,1,0.3023,0.2934,0.2807*
%
%ADD57ROUNDEDRECTD57*%
G04:AMPARAMS|DCode=59|XSize=1.397mm|YSize=1.0922mm|CornerRadius=0.2021mm|HoleSize=0mm|Usage=FLASHONLY|Rotation=270.000|XOffset=0mm|YOffset=0mm|HoleType=Round|Shape=RoundedRectangle|*
%AMROUNDEDRECTD59*
21,1,1.3970,0.6881,0,0,270.0*
21,1,0.9929,1.0922,0,0,270.0*
1,1,0.4041,-0.3440,-0.4964*
1,1,0.4041,-0.3440,0.4964*
1,1,0.4041,0.3440,0.4964*
1,1,0.4041,0.3440,-0.4964*
%
%ADD59ROUNDEDRECTD59*%
%ADD73R,1.3500X2.2000*%
%ADD196C,1.0000*%
G04:AMPARAMS|DCode=201|XSize=1.6mm|YSize=3.5mm|CornerRadius=0.2mm|HoleSize=0mm|Usage=FLASHONLY|Rotation=0.000|XOffset=0mm|YOffset=0mm|HoleType=Round|Shape=RoundedRectangle|*
%AMROUNDEDRECTD201*
21,1,1.6000,3.1000,0,0,0.0*
21,1,1.2000,3.5000,0,0,0.0*
1,1,0.4000,0.6000,-1.5500*
1,1,0.4000,-0.6000,-1.5500*
1,1,0.4000,-0.6000,1.5500*
1,1,0.4000,0.6000,1.5500*
%
%ADD201ROUNDEDRECTD201*%
%ADD214C,0.1016*%
%ADD217C,6.2000*%
%ADD218C,2.2000*%
%ADD219C,3.8100*%
G04:AMPARAMS|DCode=220|XSize=1.524mm|YSize=1.524mm|CornerRadius=0mm|HoleSize=0mm|Usage=FLASHONLY|Rotation=90.000|XOffset=0mm|YOffset=0mm|HoleType=Round|Shape=Octagon|*
%AMOCTAGOND220*
4,1,8,0.3810,0.7620,-0.3810,0.7620,-0.7620,0.3810,-0.7620,-0.3810,-0.3810,-0.7620,0.3810,-0.7620,0.7620,-0.3810,0.7620,0.3810,0.3810,0.7620,0.0*
%
%ADD220OCTAGOND220*%

%ADD221C,1.5240*%
%ADD222C,3.0000*%
%ADD223C,1.6000*%
%ADD224C,0.6000*%
%ADD225R,1.9050X1.9050*%
%ADD226C,1.9050*%
%ADD227R,3.0000X3.0000*%
%ADD228C,0.3048*%
%ADD229C,0.5588*%
%ADD230C,0.5000*%
%ADD231C,0.5080*%
G36*
X1975795Y1994946D02*
X1980368Y1993559D01*
X1984582Y1991307D01*
X1988275Y1988275D01*
X1991307Y1984582D01*
X1993559Y1980368D01*
X1994946Y1975795D01*
X1995378Y1971409D01*
X1995304Y1971040D01*
Y1239438D01*
X1951419Y1239376D01*
X1948790Y1239446D01*
X1940619Y1231276D01*
X1909619D01*
X1908938Y1264469D01*
X1909826Y1265376D01*
X1930910D01*
Y1379577D01*
X1912939Y1397548D01*
Y1448611D01*
X1880006Y1480612D01*
X1831232D01*
Y1491231D01*
X1830388D01*
Y1491993D01*
X1831232D01*
Y1503025D01*
X1854900Y1515856D01*
X1879196D01*
X1917065Y1535727D01*
Y1660782D01*
X1498147D01*
X1473726Y1636361D01*
X1472552Y1636847D01*
Y1652780D01*
X1472312Y1654610D01*
X1471605Y1656316D01*
X1470715Y1657476D01*
X1470103Y1656864D01*
X1469564Y1657403D01*
X1470176Y1658015D01*
X1469016Y1658905D01*
X1467310Y1659612D01*
X1465480Y1659852D01*
X1459611D01*
Y1658948D01*
X1458849D01*
Y1659852D01*
X1452980D01*
X1451149Y1659612D01*
X1449444Y1658905D01*
X1448284Y1658015D01*
X1448896Y1657403D01*
X1448357Y1656864D01*
X1447745Y1657476D01*
X1446855Y1656316D01*
X1446148Y1654610D01*
X1445907Y1652780D01*
Y1637411D01*
X1446812D01*
Y1636649D01*
X1445907D01*
Y1621280D01*
X1446148Y1619449D01*
X1446515Y1618565D01*
X1445666Y1617295D01*
X1333455D01*
Y1703925D01*
X1636239D01*
X1636270Y1703887D01*
Y1703252D01*
X1637159D01*
Y1702490D01*
X1636270D01*
Y1701855D01*
X1636447Y1700963D01*
X1636737Y1700530D01*
X1637346Y1701139D01*
X1637885Y1700600D01*
X1637276Y1699991D01*
X1637709Y1699702D01*
X1638601Y1699524D01*
X1639236D01*
Y1700414D01*
X1639998D01*
Y1699524D01*
X1640633D01*
X1641525Y1699702D01*
X1641958Y1699991D01*
X1641349Y1700600D01*
X1641888Y1701139D01*
X1642497Y1700530D01*
X1642786Y1700963D01*
X1642964Y1701855D01*
Y1702490D01*
X1642074D01*
Y1703252D01*
X1642964D01*
Y1703887D01*
X1642995Y1703925D01*
X1915657D01*
X1915606Y1707326D01*
X1905699Y1728705D01*
X1905750Y1728739D01*
X1906365Y1729659D01*
X1906581Y1730745D01*
Y1733804D01*
X1905682D01*
Y1734566D01*
X1906581D01*
Y1737625D01*
X1906365Y1738711D01*
X1905966Y1739309D01*
X1905359Y1738701D01*
X1904820Y1739240D01*
X1905427Y1739847D01*
X1904830Y1740247D01*
X1903744Y1740462D01*
X1900251D01*
X1898799Y1743596D01*
X1899482Y1744666D01*
X1903744D01*
X1904929Y1744902D01*
X1905933Y1745573D01*
X1906604Y1746578D01*
X1906840Y1747763D01*
Y1754643D01*
X1906604Y1755828D01*
X1905933Y1756833D01*
X1904929Y1757504D01*
X1903744Y1757740D01*
X1898056D01*
X1897177Y1758656D01*
X1897191Y1759012D01*
X1915606Y1782126D01*
X1924011Y1789430D01*
Y1805688D01*
X1915606Y1824166D01*
Y1908810D01*
X1697518D01*
X1696511Y1910042D01*
Y1910677D01*
X1695622D01*
Y1911439D01*
X1696511D01*
Y1912074D01*
X1696333Y1912966D01*
X1696044Y1913399D01*
X1695435Y1912790D01*
X1694896Y1913329D01*
X1695505Y1913938D01*
X1695072Y1914227D01*
X1694180Y1914404D01*
X1693545D01*
Y1913515D01*
X1692783D01*
Y1914404D01*
X1692148D01*
X1691256Y1914227D01*
X1690823Y1913938D01*
X1691432Y1913329D01*
X1690893Y1912790D01*
X1690284Y1913399D01*
X1689995Y1912966D01*
X1689817Y1912074D01*
Y1911439D01*
X1690706D01*
Y1910677D01*
X1689817D01*
Y1910042D01*
X1688811Y1908810D01*
X1484630D01*
Y1878641D01*
X1483360Y1878015D01*
X1482554Y1878634D01*
X1480848Y1879340D01*
X1479017Y1879581D01*
X1473148D01*
Y1878676D01*
X1472386D01*
Y1879581D01*
X1466517D01*
X1464687Y1879340D01*
X1462981Y1878634D01*
X1461821Y1877744D01*
X1462433Y1877131D01*
X1461895Y1876593D01*
X1461283Y1877205D01*
X1460392Y1876045D01*
X1459686Y1874339D01*
X1459445Y1872509D01*
Y1857139D01*
X1460350D01*
Y1856378D01*
X1459445D01*
Y1841009D01*
X1459686Y1839178D01*
X1460302Y1837690D01*
X1459785Y1836420D01*
X1433830D01*
X1329452Y1782652D01*
X1264731D01*
X1239063Y1771048D01*
Y1747051D01*
X1246743Y1739371D01*
Y1559865D01*
X1229441Y1542564D01*
X1200009D01*
X1183604Y1526159D01*
X1182457Y1526690D01*
X1182397Y1526747D01*
Y1542087D01*
X1181492D01*
Y1542849D01*
X1182397D01*
Y1558218D01*
X1182156Y1560048D01*
X1181449Y1561754D01*
X1180559Y1562914D01*
X1179947Y1562302D01*
X1179408Y1562841D01*
X1180021Y1563453D01*
X1178861Y1564343D01*
X1177155Y1565049D01*
X1175324Y1565290D01*
X1169455D01*
Y1564386D01*
X1168693D01*
Y1565290D01*
X1162824D01*
X1160994Y1565049D01*
X1159288Y1564343D01*
X1158128Y1563453D01*
X1158740Y1562841D01*
X1158202Y1562302D01*
X1157589Y1562914D01*
X1156699Y1561754D01*
X1155993Y1560048D01*
X1155752Y1558218D01*
Y1542849D01*
X1156657D01*
Y1542087D01*
X1155752D01*
Y1527249D01*
X1154482Y1526771D01*
X1133360Y1550852D01*
X1011640D01*
X986922Y1526134D01*
Y1506634D01*
X971422D01*
Y1526134D01*
X935616Y1557940D01*
Y1574566D01*
X936785Y1574995D01*
X936886Y1575008D01*
X938330Y1573900D01*
X940035Y1573194D01*
X941866Y1572953D01*
X957235D01*
Y1573858D01*
X957997D01*
Y1572953D01*
X973366D01*
X975196Y1573194D01*
X976902Y1573900D01*
X978062Y1574790D01*
X977450Y1575403D01*
X977989Y1575941D01*
X978601Y1575329D01*
X979491Y1576489D01*
X980197Y1578195D01*
X980438Y1580025D01*
Y1585894D01*
X979533D01*
Y1586656D01*
X980438D01*
Y1592525D01*
X980197Y1594356D01*
X979491Y1596062D01*
X978383Y1597505D01*
X978396Y1597606D01*
X978825Y1598775D01*
X1001569Y1598775D01*
X1050068Y1598775D01*
X1069631Y1618338D01*
X1158405Y1618338D01*
Y1710393D01*
X1195063Y1747051D01*
Y1771091D01*
X1173543Y1781332D01*
X1059674D01*
X1058300Y1779958D01*
X1057030Y1780484D01*
Y1782271D01*
X1056131D01*
Y1783033D01*
X1057030D01*
Y1786591D01*
X1056814Y1787681D01*
X1056412Y1788281D01*
X1055805Y1787674D01*
X1055266Y1788212D01*
X1055874Y1788820D01*
X1055273Y1789221D01*
X1054184Y1789438D01*
X1047578D01*
Y1788539D01*
X1046815D01*
Y1789438D01*
X1040209D01*
X1039120Y1789221D01*
X1038520Y1788820D01*
X1039127Y1788212D01*
X1038588Y1787674D01*
X1037981Y1788281D01*
X1037579Y1787681D01*
X1037363Y1786591D01*
Y1783033D01*
X1038262D01*
Y1782271D01*
X1037363D01*
Y1778712D01*
X1037396Y1778547D01*
X1036400Y1777277D01*
X979170D01*
Y1821508D01*
X980440Y1822397D01*
X980833Y1822319D01*
X984392D01*
Y1823218D01*
X985154D01*
Y1822319D01*
X988712D01*
X989802Y1822535D01*
X990402Y1822937D01*
X989795Y1823544D01*
X990334Y1824083D01*
X990941Y1823475D01*
X991342Y1824076D01*
X991559Y1825165D01*
Y1831771D01*
X990660D01*
Y1832533D01*
X991559D01*
Y1839140D01*
X991342Y1840229D01*
X990941Y1840829D01*
X990334Y1840222D01*
X989795Y1840761D01*
X990402Y1841368D01*
X989802Y1841769D01*
X988712Y1841986D01*
X985154D01*
Y1841087D01*
X984392D01*
Y1841986D01*
X980833D01*
X980440Y1841908D01*
X979170Y1842797D01*
Y1849838D01*
X980440Y1850727D01*
X980833Y1850649D01*
X984392D01*
Y1851548D01*
X985154D01*
Y1850649D01*
X988712D01*
X989802Y1850865D01*
X990402Y1851267D01*
X989795Y1851874D01*
X990334Y1852413D01*
X990941Y1851805D01*
X991342Y1852406D01*
X991559Y1853495D01*
Y1860101D01*
X990660D01*
Y1860863D01*
X991559D01*
Y1867470D01*
X991342Y1868559D01*
X990941Y1869160D01*
X990334Y1868552D01*
X989795Y1869091D01*
X990402Y1869698D01*
X989802Y1870099D01*
X988712Y1870316D01*
X985154D01*
Y1869417D01*
X984392D01*
Y1870316D01*
X980833D01*
X980440Y1870238D01*
X979170Y1871127D01*
Y1876582D01*
X980440Y1877471D01*
X980833Y1877393D01*
X984392D01*
Y1878292D01*
X985154D01*
Y1877393D01*
X988712D01*
X989802Y1877610D01*
X990402Y1878011D01*
X989795Y1878618D01*
X990334Y1879157D01*
X990941Y1878549D01*
X991342Y1879150D01*
X991559Y1880239D01*
Y1886846D01*
X990660D01*
Y1887608D01*
X991559D01*
Y1894214D01*
X991342Y1895303D01*
X990941Y1895904D01*
X990334Y1895296D01*
X989795Y1895835D01*
X990402Y1896443D01*
X989802Y1896844D01*
X988712Y1897060D01*
X985154D01*
Y1896161D01*
X984392D01*
Y1897060D01*
X980833D01*
X980440Y1896982D01*
X979170Y1897871D01*
Y1902998D01*
X980440Y1903887D01*
X980833Y1903809D01*
X984392D01*
Y1904708D01*
X985154D01*
Y1903809D01*
X988712D01*
X989802Y1904026D01*
X990402Y1904427D01*
X989795Y1905034D01*
X990334Y1905573D01*
X990941Y1904966D01*
X991342Y1905566D01*
X991559Y1906655D01*
Y1913262D01*
X990660D01*
Y1914024D01*
X991559D01*
Y1920630D01*
X991342Y1921719D01*
X990941Y1922320D01*
X990334Y1921712D01*
X989795Y1922251D01*
X990402Y1922858D01*
X989802Y1923260D01*
X988712Y1923476D01*
X985154D01*
Y1922577D01*
X984392D01*
Y1923476D01*
X980833D01*
X980440Y1923398D01*
X979170Y1924287D01*
Y1991360D01*
X1484630D01*
X1488410Y1995140D01*
X1971036Y1995085D01*
X1972145Y1995305D01*
X1975795Y1994946D01*
D02*
G37*
G36*
X962191Y1923888D02*
X960921Y1923209D01*
X960846Y1923260D01*
X959756Y1923476D01*
X956198D01*
Y1922577D01*
X955436D01*
Y1923476D01*
X951877D01*
X950788Y1923260D01*
X950188Y1922858D01*
X950795Y1922251D01*
X950256Y1921712D01*
X949649Y1922320D01*
X949248Y1921719D01*
X949031Y1920630D01*
Y1914024D01*
X949930D01*
Y1913262D01*
X949031D01*
Y1906655D01*
X949248Y1905566D01*
X949649Y1904966D01*
X950256Y1905573D01*
X950795Y1905034D01*
X950188Y1904427D01*
X950788Y1904026D01*
X951877Y1903809D01*
X955436D01*
Y1904708D01*
X956198D01*
Y1903809D01*
X959756D01*
X960846Y1904026D01*
X960921Y1904076D01*
X962191Y1903397D01*
Y1897472D01*
X960921Y1896793D01*
X960846Y1896844D01*
X959756Y1897060D01*
X956198D01*
Y1896161D01*
X955436D01*
Y1897060D01*
X951877D01*
X950788Y1896844D01*
X950188Y1896443D01*
X950795Y1895835D01*
X950256Y1895296D01*
X949649Y1895904D01*
X949248Y1895303D01*
X949031Y1894214D01*
Y1887608D01*
X949930D01*
Y1886846D01*
X949031D01*
Y1880239D01*
X949248Y1879150D01*
X949649Y1878549D01*
X950256Y1879157D01*
X950795Y1878618D01*
X950188Y1878011D01*
X950788Y1877610D01*
X951877Y1877393D01*
X955436D01*
Y1878292D01*
X956198D01*
Y1877393D01*
X959756D01*
X960846Y1877610D01*
X960921Y1877660D01*
X962191Y1876981D01*
Y1870728D01*
X960921Y1870049D01*
X960846Y1870099D01*
X959756Y1870316D01*
X956198D01*
Y1869417D01*
X955436D01*
Y1870316D01*
X951877D01*
X950788Y1870099D01*
X950188Y1869698D01*
X950795Y1869091D01*
X950256Y1868552D01*
X949649Y1869160D01*
X949248Y1868559D01*
X949031Y1867470D01*
Y1860863D01*
X949930D01*
Y1860101D01*
X949031D01*
Y1853495D01*
X949248Y1852406D01*
X949649Y1851805D01*
X950256Y1852413D01*
X950795Y1851874D01*
X950188Y1851267D01*
X950788Y1850865D01*
X951877Y1850649D01*
X955436D01*
Y1851548D01*
X956198D01*
Y1850649D01*
X959756D01*
X960846Y1850865D01*
X960921Y1850916D01*
X962191Y1850237D01*
Y1842398D01*
X960921Y1841719D01*
X960846Y1841769D01*
X959756Y1841986D01*
X956198D01*
Y1841087D01*
X955436D01*
Y1841986D01*
X951877D01*
X950788Y1841769D01*
X950188Y1841368D01*
X950795Y1840761D01*
X950256Y1840222D01*
X949649Y1840829D01*
X949248Y1840229D01*
X949031Y1839140D01*
Y1832533D01*
X949930D01*
Y1831771D01*
X949031D01*
Y1825165D01*
X949248Y1824076D01*
X949649Y1823475D01*
X950256Y1824083D01*
X950795Y1823544D01*
X950188Y1822937D01*
X950788Y1822535D01*
X951877Y1822319D01*
X955436D01*
Y1823218D01*
X956198D01*
Y1822319D01*
X959756D01*
X960846Y1822535D01*
X960921Y1822586D01*
X962191Y1821907D01*
Y1774368D01*
X866717D01*
Y1790700D01*
X819729D01*
Y1684246D01*
X785063Y1649580D01*
Y1629609D01*
X783793Y1628930D01*
X783718Y1628981D01*
X782629Y1629198D01*
X779070D01*
Y1628298D01*
X778308D01*
Y1629198D01*
X774750D01*
X773660Y1628981D01*
X773060Y1628580D01*
X773667Y1627972D01*
X773128Y1627434D01*
X772521Y1628041D01*
X772120Y1627440D01*
X771903Y1626351D01*
Y1619745D01*
X772802D01*
Y1618983D01*
X771903D01*
Y1612376D01*
X772120Y1611287D01*
X772521Y1610687D01*
X773128Y1611294D01*
X773667Y1610755D01*
X773060Y1610148D01*
X773660Y1609747D01*
X774750Y1609530D01*
X775184D01*
Y1588500D01*
X776678Y1586080D01*
X778428Y1583437D01*
Y1574080D01*
X774928D01*
X770678Y1569831D01*
Y1566339D01*
X729689Y1566298D01*
X728791Y1567195D01*
Y1766759D01*
X704850Y1790700D01*
Y1991360D01*
X962191D01*
Y1923888D01*
D02*
G37*
G36*
X392430Y1732648D02*
X391475Y1731811D01*
X390804Y1731899D01*
X375435D01*
Y1730994D01*
X374673D01*
Y1731899D01*
X359304D01*
X357473Y1731658D01*
X355768Y1730951D01*
X354608Y1730061D01*
X355220Y1729449D01*
X354681Y1728910D01*
X354069Y1729523D01*
X353179Y1728363D01*
X352472Y1726657D01*
X352231Y1724826D01*
Y1718957D01*
X353136D01*
Y1718195D01*
X352231D01*
Y1712326D01*
X352472Y1710496D01*
X353179Y1708790D01*
X354069Y1707630D01*
X354681Y1708242D01*
X355220Y1707704D01*
X354608Y1707092D01*
X355768Y1706201D01*
X357473Y1705495D01*
X359304Y1705254D01*
X374673D01*
Y1706159D01*
X375435D01*
Y1705254D01*
X390804D01*
X391475Y1705342D01*
X392430Y1704505D01*
Y1616957D01*
X391160Y1615939D01*
X390220Y1616062D01*
X374851D01*
Y1615158D01*
X374089D01*
Y1616062D01*
X358720D01*
X356890Y1615822D01*
X355184Y1615115D01*
X354024Y1614225D01*
X354636Y1613613D01*
X354097Y1613074D01*
X353485Y1613686D01*
X352595Y1612526D01*
X351889Y1610820D01*
X351648Y1608990D01*
Y1603121D01*
X352552D01*
Y1602359D01*
X351648D01*
Y1596490D01*
X351889Y1594659D01*
X352595Y1592954D01*
X353485Y1591794D01*
X354097Y1592406D01*
X354636Y1591867D01*
X354024Y1591255D01*
X355184Y1590365D01*
X356890Y1589659D01*
X358720Y1589418D01*
X374089D01*
Y1590322D01*
X374851D01*
Y1589418D01*
X390220D01*
X391160Y1589541D01*
X392430Y1588523D01*
Y1501491D01*
X391160Y1500393D01*
X390400Y1500493D01*
X375031D01*
Y1499588D01*
X374269D01*
Y1500493D01*
X358900D01*
X357070Y1500252D01*
X355364Y1499545D01*
X354204Y1498655D01*
X354816Y1498043D01*
X354277Y1497504D01*
X353665Y1498116D01*
X352775Y1496956D01*
X352069Y1495251D01*
X351828Y1493420D01*
Y1487551D01*
X352733D01*
Y1486789D01*
X351828D01*
Y1480920D01*
X352069Y1479090D01*
X352775Y1477384D01*
X353665Y1476224D01*
X354277Y1476836D01*
X354816Y1476297D01*
X354204Y1475685D01*
X355364Y1474795D01*
X357070Y1474089D01*
X358900Y1473848D01*
X374269D01*
Y1474753D01*
X375031D01*
Y1473848D01*
X390400D01*
X391160Y1473948D01*
X392430Y1472849D01*
Y1414795D01*
X635026D01*
X635026Y1379879D01*
X634455Y1379208D01*
X633756Y1378771D01*
X631531D01*
Y1377882D01*
X630770D01*
Y1378771D01*
X628217D01*
X627330Y1378595D01*
X626901Y1378308D01*
X627510Y1377699D01*
X626971Y1377160D01*
X626362Y1377769D01*
X626075Y1377340D01*
X625899Y1376453D01*
Y1374028D01*
X626788D01*
Y1373266D01*
X625899D01*
Y1370840D01*
X626075Y1369953D01*
X626362Y1369524D01*
X626971Y1370133D01*
X627510Y1369594D01*
X626901Y1368985D01*
X627330Y1368698D01*
X628217Y1368522D01*
X630770D01*
Y1369411D01*
X631531D01*
Y1368522D01*
X634084D01*
X635026Y1367414D01*
Y1362910D01*
X634453D01*
Y1362021D01*
X633690D01*
Y1362910D01*
X633055D01*
X632164Y1362733D01*
X631730Y1362444D01*
X632339Y1361835D01*
X631801Y1361296D01*
X631192Y1361905D01*
X630902Y1361472D01*
X630725Y1360580D01*
Y1359944D01*
X631614D01*
Y1359182D01*
X630725D01*
Y1358548D01*
X630902Y1357656D01*
X631192Y1357222D01*
X631801Y1357831D01*
X632339Y1357293D01*
X631730Y1356684D01*
X632164Y1356394D01*
X633055Y1356217D01*
X633690D01*
Y1357106D01*
X634453D01*
Y1356217D01*
X635026D01*
Y1352288D01*
X633993Y1351256D01*
X304970D01*
Y1192741D01*
X303914Y1192036D01*
X303320Y1192282D01*
X301490Y1192523D01*
X286121D01*
Y1191618D01*
X285359D01*
Y1192523D01*
X269990D01*
X268159Y1192282D01*
X266453Y1191575D01*
X265294Y1190685D01*
X265906Y1190073D01*
X265367Y1189534D01*
X264755Y1190146D01*
X263865Y1188987D01*
X263158Y1187281D01*
X262917Y1185450D01*
Y1179581D01*
X263822D01*
Y1178819D01*
X262917D01*
Y1172950D01*
X263158Y1171120D01*
X263865Y1169414D01*
X264755Y1168254D01*
X265367Y1168866D01*
X265906Y1168327D01*
X265294Y1167715D01*
X266453Y1166825D01*
X268159Y1166119D01*
X269990Y1165878D01*
X285359D01*
Y1166783D01*
X286121D01*
Y1165878D01*
X301490D01*
X303320Y1166119D01*
X303914Y1166365D01*
X304970Y1165659D01*
Y1132210D01*
X324020Y1113160D01*
Y1085220D01*
X326389Y1082851D01*
X326344Y1081500D01*
X325671Y1080947D01*
X325036D01*
Y1080058D01*
X324274D01*
Y1080947D01*
X323639D01*
X322747Y1080770D01*
X322314Y1080480D01*
X322923Y1079871D01*
X322384Y1079332D01*
X321775Y1079941D01*
X321486Y1079508D01*
X321308Y1078616D01*
Y1077981D01*
X322197D01*
Y1077219D01*
X321308D01*
Y1076584D01*
X321486Y1075692D01*
X321775Y1075259D01*
X322384Y1075868D01*
X322923Y1075329D01*
X322314Y1074720D01*
X322747Y1074431D01*
X323639Y1074253D01*
X324274D01*
Y1075143D01*
X325036D01*
Y1074253D01*
X325671D01*
X326560Y1073524D01*
Y1068977D01*
X325671Y1068247D01*
X325036D01*
Y1067358D01*
X324274D01*
Y1068247D01*
X323639D01*
X322747Y1068070D01*
X322314Y1067780D01*
X322923Y1067171D01*
X322384Y1066632D01*
X321775Y1067241D01*
X321486Y1066808D01*
X321308Y1065916D01*
Y1065281D01*
X322197D01*
Y1064519D01*
X321308D01*
Y1063884D01*
X321486Y1062992D01*
X321775Y1062559D01*
X322384Y1063168D01*
X322923Y1062629D01*
X322314Y1062020D01*
X322747Y1061731D01*
X323639Y1061553D01*
X324274D01*
Y1062442D01*
X325036D01*
Y1061553D01*
X325671D01*
X326560Y1060824D01*
Y1056277D01*
X325671Y1055547D01*
X325036D01*
Y1054658D01*
X324274D01*
Y1055547D01*
X323639D01*
X322747Y1055369D01*
X322314Y1055080D01*
X322923Y1054471D01*
X322384Y1053932D01*
X321775Y1054541D01*
X321486Y1054108D01*
X321308Y1053216D01*
Y1052581D01*
X322197D01*
Y1051819D01*
X321308D01*
Y1051184D01*
X321486Y1050292D01*
X321775Y1049859D01*
X322384Y1050468D01*
X322923Y1049929D01*
X322314Y1049320D01*
X322747Y1049031D01*
X323639Y1048853D01*
X324274D01*
Y1049743D01*
X325036D01*
Y1048853D01*
X325671D01*
X326560Y1048124D01*
Y1043577D01*
X325671Y1042847D01*
X325036D01*
Y1041958D01*
X324274D01*
Y1042847D01*
X323639D01*
X322747Y1042670D01*
X322314Y1042380D01*
X322923Y1041771D01*
X322384Y1041232D01*
X321775Y1041841D01*
X321486Y1041408D01*
X321308Y1040516D01*
Y1039881D01*
X322197D01*
Y1039119D01*
X321308D01*
Y1038484D01*
X321486Y1037592D01*
X321775Y1037159D01*
X322384Y1037768D01*
X322923Y1037229D01*
X322314Y1036620D01*
X322747Y1036331D01*
X323639Y1036153D01*
X324274D01*
Y1037042D01*
X325036D01*
Y1036153D01*
X325671D01*
X326560Y1035424D01*
Y1030877D01*
X325671Y1030147D01*
X325036D01*
Y1029258D01*
X324274D01*
Y1030147D01*
X323639D01*
X322747Y1029969D01*
X322314Y1029680D01*
X322923Y1029071D01*
X322384Y1028532D01*
X321775Y1029141D01*
X321486Y1028708D01*
X321308Y1027816D01*
Y1027181D01*
X322197D01*
Y1026419D01*
X321308D01*
Y1025784D01*
X321486Y1024892D01*
X321775Y1024459D01*
X322384Y1025068D01*
X322923Y1024529D01*
X322314Y1023920D01*
X322747Y1023631D01*
X323639Y1023453D01*
X324274D01*
Y1024342D01*
X325036D01*
Y1023453D01*
X325671D01*
X326560Y1022724D01*
Y1018177D01*
X325671Y1017447D01*
X325036D01*
Y1016558D01*
X324274D01*
Y1017447D01*
X323639D01*
X322747Y1017270D01*
X322314Y1016980D01*
X322923Y1016371D01*
X322384Y1015832D01*
X321775Y1016441D01*
X321486Y1016008D01*
X321308Y1015116D01*
Y1014481D01*
X322197D01*
Y1013719D01*
X321308D01*
Y1013084D01*
X321486Y1012192D01*
X321775Y1011759D01*
X322384Y1012368D01*
X322923Y1011829D01*
X322314Y1011220D01*
X322747Y1010931D01*
X323639Y1010753D01*
X324274D01*
Y1011643D01*
X325036D01*
Y1010753D01*
X325671D01*
X326560Y1010024D01*
Y1005477D01*
X325671Y1004747D01*
X325036D01*
Y1003858D01*
X324274D01*
Y1004747D01*
X323639D01*
X322747Y1004569D01*
X322314Y1004280D01*
X322923Y1003671D01*
X322384Y1003132D01*
X321775Y1003741D01*
X321486Y1003308D01*
X321308Y1002416D01*
Y1001781D01*
X322197D01*
Y1001019D01*
X321308D01*
Y1000384D01*
X321486Y999492D01*
X321775Y999059D01*
X322384Y999668D01*
X322923Y999129D01*
X322314Y998520D01*
X322747Y998231D01*
X323639Y998053D01*
X324274D01*
Y998942D01*
X325036D01*
Y998053D01*
X325671D01*
X326560Y997324D01*
Y992777D01*
X325671Y992047D01*
X325036D01*
Y991158D01*
X324274D01*
Y992047D01*
X323639D01*
X322747Y991870D01*
X322314Y991580D01*
X322923Y990971D01*
X322384Y990432D01*
X321775Y991041D01*
X321486Y990608D01*
X321308Y989716D01*
Y989081D01*
X322197D01*
Y988319D01*
X321308D01*
Y987684D01*
X321486Y986792D01*
X321775Y986359D01*
X322384Y986968D01*
X322923Y986429D01*
X322314Y985820D01*
X322747Y985531D01*
X323639Y985353D01*
X324274D01*
Y986243D01*
X325036D01*
Y985353D01*
X325671D01*
X326560Y984624D01*
Y980077D01*
X325671Y979347D01*
X325036D01*
Y978458D01*
X324274D01*
Y979347D01*
X323639D01*
X322747Y979169D01*
X322314Y978880D01*
X322923Y978271D01*
X322384Y977732D01*
X321775Y978341D01*
X321486Y977908D01*
X321308Y977016D01*
Y976381D01*
X322197D01*
Y975619D01*
X321308D01*
Y974984D01*
X321486Y974092D01*
X321775Y973659D01*
X322384Y974268D01*
X322923Y973729D01*
X322314Y973120D01*
X322747Y972831D01*
X323639Y972653D01*
X324274D01*
Y973542D01*
X325036D01*
Y972653D01*
X325671D01*
X326560Y971924D01*
Y967377D01*
X325671Y966647D01*
X325036D01*
Y965758D01*
X324274D01*
Y966647D01*
X323639D01*
X322747Y966469D01*
X322314Y966180D01*
X322923Y965571D01*
X322384Y965032D01*
X321775Y965641D01*
X321486Y965208D01*
X321308Y964316D01*
Y963681D01*
X322197D01*
Y962919D01*
X321308D01*
Y962284D01*
X321486Y961392D01*
X321775Y960959D01*
X322384Y961568D01*
X322923Y961029D01*
X322314Y960420D01*
X322747Y960131D01*
X323639Y959953D01*
X324274D01*
Y960843D01*
X325036D01*
Y959953D01*
X325671D01*
X326560Y959224D01*
Y954677D01*
X325671Y953947D01*
X325036D01*
Y953058D01*
X324274D01*
Y953947D01*
X323639D01*
X322747Y953770D01*
X322314Y953480D01*
X322923Y952871D01*
X322384Y952332D01*
X321775Y952941D01*
X321486Y952508D01*
X321308Y951616D01*
Y950981D01*
X322197D01*
Y950219D01*
X321308D01*
Y949584D01*
X321486Y948692D01*
X321775Y948259D01*
X322384Y948868D01*
X322923Y948329D01*
X322314Y947720D01*
X322747Y947431D01*
X323639Y947253D01*
X324274D01*
Y948143D01*
X325036D01*
Y947253D01*
X325671D01*
X326560Y946524D01*
Y941977D01*
X325671Y941247D01*
X325036D01*
Y940358D01*
X324274D01*
Y941247D01*
X323639D01*
X322747Y941069D01*
X322314Y940780D01*
X322923Y940171D01*
X322384Y939632D01*
X321775Y940241D01*
X321486Y939808D01*
X321308Y938916D01*
Y938281D01*
X322197D01*
Y937519D01*
X321308D01*
Y936884D01*
X321486Y935992D01*
X321775Y935559D01*
X322384Y936168D01*
X322923Y935629D01*
X322314Y935020D01*
X322747Y934731D01*
X323639Y934553D01*
X324274D01*
Y935443D01*
X325036D01*
Y934553D01*
X325671D01*
X326560Y933824D01*
Y929277D01*
X325671Y928547D01*
X325036D01*
Y927658D01*
X324274D01*
Y928547D01*
X323639D01*
X322747Y928370D01*
X322314Y928080D01*
X322923Y927471D01*
X322384Y926932D01*
X321775Y927541D01*
X321486Y927108D01*
X321308Y926216D01*
Y925581D01*
X322197D01*
Y924819D01*
X321308D01*
Y924184D01*
X321486Y923292D01*
X321775Y922859D01*
X322384Y923468D01*
X322923Y922929D01*
X322314Y922320D01*
X322747Y922031D01*
X323639Y921853D01*
X324274D01*
Y922742D01*
X325036D01*
Y921853D01*
X325671D01*
X326560Y921124D01*
Y911226D01*
X252900D01*
Y1414795D01*
Y1893570D01*
X392430D01*
Y1732648D01*
D02*
G37*
G36*
X596900Y1451610D02*
X441960D01*
Y1472767D01*
X442900Y1473591D01*
X474400D01*
X476297Y1473841D01*
X478064Y1474573D01*
X479582Y1475738D01*
X480747Y1477256D01*
X481479Y1479023D01*
X481729Y1480920D01*
Y1493420D01*
X481479Y1495317D01*
X480747Y1497085D01*
X479582Y1498602D01*
X478064Y1499767D01*
X476297Y1500499D01*
X474400Y1500749D01*
X442900D01*
X441960Y1501573D01*
Y1588495D01*
X442720Y1589161D01*
X474220D01*
X476117Y1589411D01*
X477884Y1590143D01*
X479402Y1591308D01*
X480567Y1592826D01*
X481299Y1594593D01*
X481549Y1596490D01*
Y1608990D01*
X481299Y1610887D01*
X480567Y1612654D01*
X479402Y1614172D01*
X477884Y1615337D01*
X476117Y1616069D01*
X474220Y1616319D01*
X442720D01*
X441960Y1616985D01*
Y1704212D01*
X442915Y1705049D01*
X443304Y1704998D01*
X474804D01*
X476701Y1705247D01*
X478468Y1705980D01*
X479986Y1707144D01*
X481151Y1708662D01*
X481883Y1710430D01*
X482132Y1712326D01*
Y1724826D01*
X481883Y1726723D01*
X481151Y1728491D01*
X479986Y1730009D01*
X478468Y1731173D01*
X476701Y1731905D01*
X474804Y1732155D01*
X443304D01*
X442915Y1732104D01*
X441960Y1732941D01*
Y1893570D01*
X596900D01*
Y1451610D01*
D02*
G37*
G36*
X1037396Y1757800D02*
X1037363Y1757635D01*
Y1754077D01*
X1038262D01*
Y1753315D01*
X1037363D01*
Y1749756D01*
X1037579Y1748667D01*
X1037981Y1748067D01*
X1038588Y1748674D01*
X1039127Y1748135D01*
X1038520Y1747528D01*
X1039120Y1747127D01*
X1040209Y1746910D01*
X1046815D01*
Y1747809D01*
X1047578D01*
Y1746910D01*
X1054184D01*
X1055273Y1747127D01*
X1055874Y1747528D01*
X1055266Y1748135D01*
X1055805Y1748674D01*
X1056412Y1748067D01*
X1056814Y1748667D01*
X1057030Y1749756D01*
Y1753315D01*
X1056131D01*
Y1754077D01*
X1057030D01*
Y1755863D01*
X1058300Y1756389D01*
X1073357Y1741333D01*
X1129458D01*
Y1649051D01*
X975554D01*
Y1722417D01*
X984773D01*
X985023Y1722467D01*
X985278D01*
X985514Y1722565D01*
X985764Y1722614D01*
X985976Y1722756D01*
X986212Y1722854D01*
X986392Y1723034D01*
X986604Y1723176D01*
X986746Y1723388D01*
X986926Y1723568D01*
X987024Y1723804D01*
X987166Y1724016D01*
X987215Y1724266D01*
X987313Y1724502D01*
Y1724757D01*
X987363Y1725007D01*
X987313Y1725257D01*
Y1725512D01*
X987215Y1725748D01*
X987166Y1725998D01*
X987024Y1726210D01*
X986926Y1726446D01*
X986746Y1726626D01*
X986604Y1726838D01*
X986392Y1726980D01*
X986212Y1727160D01*
X985976Y1727258D01*
X985764Y1727400D01*
X985514Y1727449D01*
X985278Y1727547D01*
X985023D01*
X984773Y1727597D01*
X975554D01*
Y1753851D01*
Y1759070D01*
X1036400D01*
X1037396Y1757800D01*
D02*
G37*
G36*
X1497190Y1539060D02*
X1472552D01*
Y1552649D01*
X1471648D01*
Y1553411D01*
X1472552D01*
Y1556918D01*
X1497190D01*
Y1539060D01*
D02*
G37*
G36*
X1395341Y1439980D02*
X1396238Y1439081D01*
X1396172Y1414980D01*
X1362076D01*
X1361647Y1416149D01*
X1361633Y1416250D01*
X1362741Y1417694D01*
X1363448Y1419400D01*
X1363689Y1421230D01*
Y1427099D01*
X1362784D01*
Y1427861D01*
X1363689D01*
Y1433730D01*
X1363448Y1435560D01*
X1362741Y1437266D01*
X1361633Y1438710D01*
X1361647Y1438811D01*
X1362076Y1439980D01*
X1395341D01*
D02*
G37*
G36*
X1599572Y1411370D02*
X1571478D01*
X1571194Y1411667D01*
X1570645Y1412640D01*
X1570796Y1413399D01*
Y1416958D01*
X1569897D01*
Y1417720D01*
X1570796D01*
Y1421278D01*
X1570579Y1422367D01*
X1570178Y1422968D01*
X1569571Y1422361D01*
X1569032Y1422899D01*
X1569639Y1423507D01*
X1569039Y1423908D01*
X1567950Y1424124D01*
X1561343D01*
Y1423225D01*
X1560581D01*
Y1424124D01*
X1553974D01*
X1552885Y1423908D01*
X1552285Y1423507D01*
X1552892Y1422899D01*
X1552354Y1422361D01*
X1551746Y1422968D01*
X1551345Y1422367D01*
X1551128Y1421278D01*
Y1417720D01*
X1552027D01*
Y1416958D01*
X1551128D01*
Y1413399D01*
X1551194Y1413072D01*
X1550023Y1412446D01*
X1546608Y1415861D01*
X1515810D01*
Y1419360D01*
X1511560Y1423611D01*
X1508060D01*
X1508060Y1433611D01*
Y1462551D01*
X1599572D01*
X1599572Y1411370D01*
D02*
G37*
G36*
X672862Y1376980D02*
X660851D01*
X657700Y1373828D01*
Y1293717D01*
X545564Y1219670D01*
X545432Y1219842D01*
X543914Y1221007D01*
X542147Y1221739D01*
X540250Y1221989D01*
X508750D01*
X506853Y1221739D01*
X505086Y1221007D01*
X503568Y1219842D01*
X502403Y1218324D01*
X501671Y1216557D01*
X501421Y1214660D01*
Y1202160D01*
X501671Y1200263D01*
X502403Y1198496D01*
X503413Y1197180D01*
X503071Y1195910D01*
X411650D01*
Y1081677D01*
X410761Y1080947D01*
X410126D01*
Y1080058D01*
X409364D01*
Y1080947D01*
X408729D01*
X407837Y1080770D01*
X407404Y1080480D01*
X408013Y1079871D01*
X407474Y1079333D01*
X406865Y1079941D01*
X406576Y1079508D01*
X406398Y1078616D01*
Y1077981D01*
X407288D01*
Y1077219D01*
X406398D01*
Y1076584D01*
X406576Y1075692D01*
X406865Y1075259D01*
X407474Y1075868D01*
X408013Y1075329D01*
X407404Y1074720D01*
X407837Y1074431D01*
X408729Y1074254D01*
X409364D01*
Y1075143D01*
X410126D01*
Y1074254D01*
X410761D01*
X411650Y1073524D01*
Y1063897D01*
X410761Y1063167D01*
X410126D01*
Y1062278D01*
X409364D01*
Y1063167D01*
X408729D01*
X407837Y1062990D01*
X407404Y1062700D01*
X408013Y1062091D01*
X407474Y1061552D01*
X406865Y1062161D01*
X406576Y1061728D01*
X406398Y1060836D01*
Y1060201D01*
X407287D01*
Y1059439D01*
X406398D01*
Y1058804D01*
X406576Y1057912D01*
X406865Y1057479D01*
X407474Y1058088D01*
X408013Y1057549D01*
X407404Y1056940D01*
X407837Y1056651D01*
X408729Y1056473D01*
X409364D01*
Y1057363D01*
X410126D01*
Y1056473D01*
X410761D01*
X411650Y1055744D01*
Y1046117D01*
X410761Y1045387D01*
X410126D01*
Y1044498D01*
X409364D01*
Y1045387D01*
X408729D01*
X407837Y1045210D01*
X407404Y1044920D01*
X408013Y1044311D01*
X407474Y1043772D01*
X406865Y1044381D01*
X406576Y1043948D01*
X406398Y1043056D01*
Y1042421D01*
X407287D01*
Y1041659D01*
X406398D01*
Y1041024D01*
X406576Y1040132D01*
X406865Y1039699D01*
X407474Y1040308D01*
X408013Y1039769D01*
X407404Y1039160D01*
X407837Y1038871D01*
X408729Y1038693D01*
X409364D01*
Y1039583D01*
X410126D01*
Y1038693D01*
X410761D01*
X411650Y1037964D01*
Y1028337D01*
X410761Y1027607D01*
X410126D01*
Y1026718D01*
X409364D01*
Y1027607D01*
X408729D01*
X407837Y1027430D01*
X407404Y1027140D01*
X408013Y1026531D01*
X407474Y1025993D01*
X406865Y1026601D01*
X406576Y1026168D01*
X406398Y1025276D01*
Y1024641D01*
X407288D01*
Y1023879D01*
X406398D01*
Y1023244D01*
X406576Y1022352D01*
X406865Y1021919D01*
X407474Y1022528D01*
X408013Y1021989D01*
X407404Y1021380D01*
X407837Y1021091D01*
X408729Y1020914D01*
X409364D01*
Y1021803D01*
X410126D01*
Y1020914D01*
X410761D01*
X411650Y1020184D01*
Y1010557D01*
X410761Y1009827D01*
X410126D01*
Y1008938D01*
X409364D01*
Y1009827D01*
X408729D01*
X407837Y1009650D01*
X407404Y1009360D01*
X408013Y1008751D01*
X407474Y1008213D01*
X406865Y1008821D01*
X406576Y1008388D01*
X406398Y1007496D01*
Y1006861D01*
X407288D01*
Y1006099D01*
X406398D01*
Y1005464D01*
X406576Y1004572D01*
X406865Y1004139D01*
X407474Y1004748D01*
X408013Y1004209D01*
X407404Y1003600D01*
X407837Y1003311D01*
X408729Y1003134D01*
X409364D01*
Y1004023D01*
X410126D01*
Y1003134D01*
X410761D01*
X411650Y1002404D01*
Y992777D01*
X410761Y992047D01*
X410126D01*
Y991158D01*
X409364D01*
Y992047D01*
X408729D01*
X407837Y991870D01*
X407404Y991580D01*
X408013Y990971D01*
X407474Y990432D01*
X406865Y991041D01*
X406576Y990608D01*
X406398Y989716D01*
Y989081D01*
X407287D01*
Y988319D01*
X406398D01*
Y987684D01*
X406576Y986792D01*
X406865Y986359D01*
X407474Y986968D01*
X408013Y986429D01*
X407404Y985820D01*
X407837Y985531D01*
X408729Y985353D01*
X409364D01*
Y986243D01*
X410126D01*
Y985353D01*
X410761D01*
X411650Y984624D01*
Y974997D01*
X410761Y974267D01*
X410126D01*
Y973378D01*
X409364D01*
Y974267D01*
X408729D01*
X407837Y974090D01*
X407404Y973800D01*
X408013Y973191D01*
X407474Y972653D01*
X406865Y973261D01*
X406576Y972828D01*
X406398Y971936D01*
Y971301D01*
X407288D01*
Y970539D01*
X406398D01*
Y969904D01*
X406576Y969012D01*
X406865Y968579D01*
X407474Y969188D01*
X408013Y968649D01*
X407404Y968040D01*
X407837Y967751D01*
X408729Y967574D01*
X409364D01*
Y968463D01*
X410126D01*
Y967574D01*
X410761D01*
X411650Y966844D01*
Y939437D01*
X410761Y938707D01*
X410126D01*
Y937818D01*
X409364D01*
Y938707D01*
X408729D01*
X407837Y938530D01*
X407404Y938240D01*
X408013Y937631D01*
X407474Y937093D01*
X406865Y937701D01*
X406576Y937268D01*
X406398Y936376D01*
Y935741D01*
X407288D01*
Y934979D01*
X406398D01*
Y934344D01*
X406576Y933452D01*
X406865Y933019D01*
X407474Y933628D01*
X408013Y933089D01*
X407404Y932480D01*
X407837Y932191D01*
X408729Y932014D01*
X409364D01*
Y932903D01*
X410126D01*
Y932014D01*
X410761D01*
X411650Y931284D01*
Y921657D01*
X410761Y920927D01*
X410126D01*
Y920038D01*
X409364D01*
Y920927D01*
X408729D01*
X407837Y920750D01*
X407404Y920460D01*
X408013Y919851D01*
X407474Y919312D01*
X406865Y919921D01*
X406576Y919488D01*
X406398Y918596D01*
Y917961D01*
X407287D01*
Y917199D01*
X406398D01*
Y916564D01*
X406576Y915672D01*
X406865Y915239D01*
X407474Y915848D01*
X408013Y915309D01*
X407404Y914700D01*
X407837Y914411D01*
X408729Y914233D01*
X409364D01*
Y915123D01*
X410126D01*
Y914233D01*
X410761D01*
X411650Y913504D01*
Y911230D01*
X331640D01*
Y921124D01*
X332529Y921853D01*
X333164D01*
Y922742D01*
X333926D01*
Y921853D01*
X334561D01*
X335453Y922031D01*
X335886Y922320D01*
X335277Y922929D01*
X335816Y923468D01*
X336425Y922859D01*
X336714Y923292D01*
X336892Y924184D01*
Y924819D01*
X336003D01*
Y925581D01*
X336892D01*
Y926216D01*
X336714Y927108D01*
X336425Y927541D01*
X335816Y926932D01*
X335277Y927471D01*
X335886Y928080D01*
X335453Y928370D01*
X334561Y928547D01*
X333926D01*
Y927658D01*
X333164D01*
Y928547D01*
X332529D01*
X331640Y929276D01*
Y933824D01*
X332529Y934553D01*
X333164D01*
Y935443D01*
X333926D01*
Y934553D01*
X334561D01*
X335453Y934731D01*
X335886Y935020D01*
X335277Y935629D01*
X335816Y936168D01*
X336425Y935559D01*
X336714Y935992D01*
X336892Y936884D01*
Y937519D01*
X336003D01*
Y938281D01*
X336892D01*
Y938916D01*
X336714Y939808D01*
X336425Y940241D01*
X335816Y939632D01*
X335277Y940171D01*
X335886Y940780D01*
X335453Y941069D01*
X334561Y941247D01*
X333926D01*
Y940358D01*
X333164D01*
Y941247D01*
X332529D01*
X331640Y941976D01*
Y946524D01*
X332529Y947253D01*
X333164D01*
Y948143D01*
X333926D01*
Y947253D01*
X334561D01*
X335453Y947431D01*
X335886Y947720D01*
X335277Y948329D01*
X335816Y948868D01*
X336425Y948259D01*
X336714Y948692D01*
X336892Y949584D01*
Y950219D01*
X336003D01*
Y950981D01*
X336892D01*
Y951616D01*
X336714Y952508D01*
X336425Y952941D01*
X335816Y952332D01*
X335277Y952871D01*
X335886Y953480D01*
X335453Y953770D01*
X334561Y953947D01*
X333926D01*
Y953058D01*
X333164D01*
Y953947D01*
X332529D01*
X331640Y954677D01*
Y959224D01*
X332529Y959953D01*
X333164D01*
Y960843D01*
X333926D01*
Y959953D01*
X334561D01*
X335453Y960131D01*
X335886Y960420D01*
X335277Y961029D01*
X335816Y961568D01*
X336425Y960959D01*
X336714Y961392D01*
X336892Y962284D01*
Y962919D01*
X336003D01*
Y963681D01*
X336892D01*
Y964316D01*
X336714Y965208D01*
X336425Y965641D01*
X335816Y965032D01*
X335277Y965571D01*
X335886Y966180D01*
X335453Y966469D01*
X334561Y966647D01*
X333926D01*
Y965758D01*
X333164D01*
Y966647D01*
X332529D01*
X331640Y967376D01*
Y971924D01*
X332529Y972653D01*
X333164D01*
Y973542D01*
X333926D01*
Y972653D01*
X334561D01*
X335453Y972831D01*
X335886Y973120D01*
X335277Y973729D01*
X335816Y974268D01*
X336425Y973659D01*
X336714Y974092D01*
X336892Y974984D01*
Y975619D01*
X336003D01*
Y976381D01*
X336892D01*
Y977016D01*
X336714Y977908D01*
X336425Y978341D01*
X335816Y977732D01*
X335277Y978271D01*
X335886Y978880D01*
X335453Y979169D01*
X334561Y979347D01*
X333926D01*
Y978458D01*
X333164D01*
Y979347D01*
X332529D01*
X331640Y980076D01*
Y984624D01*
X332529Y985353D01*
X333164D01*
Y986243D01*
X333926D01*
Y985353D01*
X334561D01*
X335453Y985531D01*
X335886Y985820D01*
X335277Y986429D01*
X335816Y986968D01*
X336425Y986359D01*
X336714Y986792D01*
X336892Y987684D01*
Y988319D01*
X336003D01*
Y989081D01*
X336892D01*
Y989716D01*
X336714Y990608D01*
X336425Y991041D01*
X335816Y990432D01*
X335277Y990971D01*
X335886Y991580D01*
X335453Y991870D01*
X334561Y992047D01*
X333926D01*
Y991158D01*
X333164D01*
Y992047D01*
X332529D01*
X331640Y992776D01*
Y997324D01*
X332529Y998053D01*
X333164D01*
Y998942D01*
X333926D01*
Y998053D01*
X334561D01*
X335453Y998231D01*
X335886Y998520D01*
X335277Y999129D01*
X335816Y999668D01*
X336425Y999059D01*
X336714Y999492D01*
X336892Y1000384D01*
Y1001019D01*
X336003D01*
Y1001781D01*
X336892D01*
Y1002416D01*
X336714Y1003308D01*
X336425Y1003741D01*
X335816Y1003132D01*
X335277Y1003671D01*
X335886Y1004280D01*
X335453Y1004569D01*
X334561Y1004747D01*
X333926D01*
Y1003858D01*
X333164D01*
Y1004747D01*
X332529D01*
X331640Y1005476D01*
Y1010024D01*
X332529Y1010753D01*
X333164D01*
Y1011643D01*
X333926D01*
Y1010753D01*
X334561D01*
X335453Y1010931D01*
X335886Y1011220D01*
X335277Y1011829D01*
X335816Y1012368D01*
X336425Y1011759D01*
X336714Y1012192D01*
X336892Y1013084D01*
Y1013719D01*
X336003D01*
Y1014481D01*
X336892D01*
Y1015116D01*
X336714Y1016008D01*
X336425Y1016441D01*
X335816Y1015832D01*
X335277Y1016371D01*
X335886Y1016980D01*
X335453Y1017270D01*
X334561Y1017447D01*
X333926D01*
Y1016558D01*
X333164D01*
Y1017447D01*
X332529D01*
X331640Y1018176D01*
Y1022724D01*
X332529Y1023453D01*
X333164D01*
Y1024342D01*
X333926D01*
Y1023453D01*
X334561D01*
X335453Y1023631D01*
X335886Y1023920D01*
X335277Y1024529D01*
X335816Y1025068D01*
X336425Y1024459D01*
X336714Y1024892D01*
X336892Y1025784D01*
Y1026419D01*
X336003D01*
Y1027181D01*
X336892D01*
Y1027816D01*
X336714Y1028708D01*
X336425Y1029141D01*
X335816Y1028532D01*
X335277Y1029071D01*
X335886Y1029680D01*
X335453Y1029969D01*
X334561Y1030147D01*
X333926D01*
Y1029258D01*
X333164D01*
Y1030147D01*
X332529D01*
X331640Y1030876D01*
Y1035424D01*
X332529Y1036153D01*
X333164D01*
Y1037042D01*
X333926D01*
Y1036153D01*
X334561D01*
X335453Y1036331D01*
X335886Y1036620D01*
X335277Y1037229D01*
X335816Y1037768D01*
X336425Y1037159D01*
X336714Y1037592D01*
X336892Y1038484D01*
Y1039119D01*
X336003D01*
Y1039881D01*
X336892D01*
Y1040516D01*
X336714Y1041408D01*
X336425Y1041841D01*
X335816Y1041232D01*
X335277Y1041771D01*
X335886Y1042380D01*
X335453Y1042670D01*
X334561Y1042847D01*
X333926D01*
Y1041958D01*
X333164D01*
Y1042847D01*
X332529D01*
X331640Y1043576D01*
Y1048124D01*
X332529Y1048853D01*
X333164D01*
Y1049743D01*
X333926D01*
Y1048853D01*
X334561D01*
X335453Y1049031D01*
X335886Y1049320D01*
X335277Y1049929D01*
X335816Y1050468D01*
X336425Y1049859D01*
X336714Y1050292D01*
X336892Y1051184D01*
Y1051819D01*
X336003D01*
Y1052581D01*
X336892D01*
Y1053216D01*
X336714Y1054108D01*
X336425Y1054541D01*
X335816Y1053932D01*
X335277Y1054471D01*
X335886Y1055080D01*
X335453Y1055369D01*
X334561Y1055547D01*
X333926D01*
Y1054658D01*
X333164D01*
Y1055547D01*
X332529D01*
X331640Y1056276D01*
Y1060824D01*
X332529Y1061553D01*
X333164D01*
Y1062442D01*
X333926D01*
Y1061553D01*
X334561D01*
X335453Y1061731D01*
X335886Y1062020D01*
X335277Y1062629D01*
X335816Y1063168D01*
X336425Y1062559D01*
X336714Y1062992D01*
X336892Y1063884D01*
Y1064519D01*
X336003D01*
Y1065281D01*
X336892D01*
Y1065916D01*
X336714Y1066808D01*
X336425Y1067241D01*
X335816Y1066632D01*
X335277Y1067171D01*
X335886Y1067780D01*
X335453Y1068070D01*
X334561Y1068247D01*
X333926D01*
Y1067358D01*
X333164D01*
Y1068247D01*
X332529D01*
X331640Y1068976D01*
Y1073524D01*
X332529Y1074253D01*
X333164D01*
Y1075143D01*
X333926D01*
Y1074253D01*
X334561D01*
X335453Y1074431D01*
X335886Y1074720D01*
X335277Y1075329D01*
X335816Y1075868D01*
X336425Y1075259D01*
X336714Y1075692D01*
X336892Y1076584D01*
Y1077219D01*
X336003D01*
Y1077981D01*
X336892D01*
Y1078616D01*
X336714Y1079508D01*
X336425Y1079941D01*
X335816Y1079332D01*
X335277Y1079871D01*
X335886Y1080480D01*
X335453Y1080770D01*
X334561Y1080947D01*
X333926D01*
Y1080058D01*
X333164D01*
Y1080947D01*
X332529D01*
X331856Y1081499D01*
X331811Y1082851D01*
X334180Y1085220D01*
X334180Y1113160D01*
X350690Y1129670D01*
X350690Y1165584D01*
X351746Y1166290D01*
X352160Y1166119D01*
X353990Y1165878D01*
X369359D01*
Y1166783D01*
X370121D01*
Y1165878D01*
X385490D01*
X387321Y1166119D01*
X389026Y1166825D01*
X390186Y1167715D01*
X389574Y1168327D01*
X390113Y1168866D01*
X390725Y1168254D01*
X391615Y1169414D01*
X392322Y1171120D01*
X392563Y1172950D01*
Y1178819D01*
X391658D01*
Y1179581D01*
X392563D01*
Y1185450D01*
X392322Y1187281D01*
X391615Y1188987D01*
X390725Y1190146D01*
X390113Y1189534D01*
X389574Y1190073D01*
X390186Y1190685D01*
X389026Y1191575D01*
X387321Y1192282D01*
X385490Y1192523D01*
X370121D01*
Y1191618D01*
X369359D01*
Y1192523D01*
X353990D01*
X352160Y1192282D01*
X351746Y1192111D01*
X350690Y1192816D01*
Y1198250D01*
Y1344664D01*
X642027D01*
Y1356217D01*
X642580D01*
Y1357106D01*
X643343D01*
Y1356217D01*
X643978D01*
X644870Y1356394D01*
X645303Y1356684D01*
X644694Y1357293D01*
X645232Y1357831D01*
X645842Y1357222D01*
X646131Y1357656D01*
X646308Y1358548D01*
Y1359182D01*
X645419D01*
Y1359944D01*
X646308D01*
Y1360580D01*
X646131Y1361472D01*
X645842Y1361905D01*
X645232Y1361296D01*
X644694Y1361835D01*
X645303Y1362444D01*
X644870Y1362733D01*
X643978Y1362910D01*
X643343D01*
Y1362021D01*
X642580D01*
Y1362910D01*
X642027D01*
Y1367480D01*
X643203Y1368522D01*
X645755D01*
Y1369411D01*
X646517D01*
Y1368522D01*
X649070D01*
X649957Y1368698D01*
X650386Y1368985D01*
X649777Y1369594D01*
X650316Y1370133D01*
X650925Y1369524D01*
X651212Y1369953D01*
X651388Y1370840D01*
Y1373266D01*
X650499D01*
Y1374028D01*
X651388D01*
Y1376453D01*
X651212Y1377340D01*
X650709Y1378092D01*
X650683Y1378110D01*
X651068Y1379380D01*
X672862D01*
Y1376980D01*
D02*
G37*
G36*
X1699787Y1351783D02*
X1704687D01*
X1705011Y1351394D01*
X1705485Y1350512D01*
X1705319Y1349678D01*
Y1346120D01*
X1706218D01*
Y1345358D01*
X1705319D01*
Y1341799D01*
X1705536Y1340710D01*
X1705937Y1340110D01*
X1706544Y1340717D01*
X1707083Y1340178D01*
X1706476Y1339571D01*
X1707076Y1339170D01*
X1708165Y1338953D01*
X1714772D01*
Y1339852D01*
X1715534D01*
Y1338953D01*
X1722140D01*
X1723230Y1339170D01*
X1723830Y1339571D01*
X1723223Y1340178D01*
X1723761Y1340717D01*
X1724369Y1340110D01*
X1724770Y1340710D01*
X1724987Y1341799D01*
Y1345358D01*
X1724088D01*
Y1346120D01*
X1724987D01*
Y1349678D01*
X1724821Y1350512D01*
X1725294Y1351394D01*
X1725619Y1351783D01*
X1771042D01*
Y1423534D01*
X1807386D01*
Y1351783D01*
Y1349709D01*
X1807089Y1349425D01*
X1806116Y1348875D01*
X1805356Y1349026D01*
X1801798D01*
Y1348127D01*
X1801036D01*
Y1349026D01*
X1797477D01*
X1796388Y1348810D01*
X1795788Y1348409D01*
X1796395Y1347801D01*
X1795856Y1347262D01*
X1795249Y1347870D01*
X1794848Y1347269D01*
X1794631Y1346180D01*
Y1339574D01*
X1795530D01*
Y1338812D01*
X1794631D01*
Y1332205D01*
X1794848Y1331116D01*
X1795249Y1330515D01*
X1795856Y1331123D01*
X1796395Y1330584D01*
X1795788Y1329977D01*
X1796388Y1329576D01*
X1797477Y1329359D01*
X1801036D01*
Y1330258D01*
X1801798D01*
Y1329359D01*
X1805356D01*
X1806116Y1329510D01*
X1807089Y1328960D01*
X1807386Y1328676D01*
Y1326033D01*
X1683287D01*
Y1430431D01*
X1699787D01*
Y1351783D01*
D02*
G37*
G36*
X1156584Y1477476D02*
X1155993Y1476048D01*
X1155752Y1474218D01*
Y1458849D01*
X1156657D01*
Y1458087D01*
X1155752D01*
Y1442718D01*
X1155993Y1440887D01*
X1156699Y1439182D01*
X1157589Y1438022D01*
X1158202Y1438634D01*
X1158740Y1438095D01*
X1158128Y1437483D01*
X1159288Y1436593D01*
X1160994Y1435887D01*
X1162824Y1435645D01*
X1168693D01*
Y1436550D01*
X1169455D01*
Y1435645D01*
X1175324D01*
X1177155Y1435887D01*
X1178861Y1436593D01*
X1180021Y1437483D01*
X1179408Y1438095D01*
X1179947Y1438634D01*
X1180559Y1438022D01*
X1181449Y1439182D01*
X1182156Y1440887D01*
X1182397Y1442718D01*
Y1458087D01*
X1181492D01*
Y1458849D01*
X1182397D01*
Y1474188D01*
X1182457Y1474246D01*
X1183604Y1474777D01*
X1201739Y1456642D01*
Y1429512D01*
X1205927D01*
Y1421892D01*
X1200023D01*
Y1392230D01*
X1115068D01*
Y1328729D01*
X1088520D01*
Y1411208D01*
X1155507Y1478195D01*
X1156584Y1477476D01*
D02*
G37*
G36*
X1633031Y1406800D02*
X1669372D01*
X1680031Y1396141D01*
Y1319335D01*
X1775460D01*
Y1234511D01*
X1789762D01*
Y1213735D01*
X1802471Y1201026D01*
X1845722D01*
X1855372Y1191376D01*
X1872419D01*
Y1185376D01*
X1852805D01*
X1842424Y1174995D01*
Y1142402D01*
X1850011Y1134816D01*
X1858567D01*
Y1129736D01*
X1753306D01*
X1740479Y1116909D01*
X1701596D01*
Y1117981D01*
X1701398Y1118972D01*
X1700837Y1119812D01*
X1699997Y1120374D01*
X1699006Y1120571D01*
X1696974D01*
X1695983Y1120374D01*
X1695143Y1119812D01*
X1694581Y1118972D01*
X1694384Y1117981D01*
Y1116909D01*
X1642110D01*
Y1213810D01*
X1643249Y1214372D01*
X1643523Y1214161D01*
X1645229Y1213455D01*
X1647059Y1213214D01*
X1662428D01*
Y1214119D01*
X1663190D01*
Y1213214D01*
X1678560D01*
X1680390Y1213455D01*
X1682096Y1214161D01*
X1683256Y1215051D01*
X1682643Y1215664D01*
X1683182Y1216202D01*
X1683794Y1215590D01*
X1684684Y1216750D01*
X1685391Y1218456D01*
X1685632Y1220286D01*
Y1226155D01*
X1684727D01*
Y1226917D01*
X1685632D01*
Y1232786D01*
X1685391Y1234617D01*
X1684684Y1236322D01*
X1683794Y1237482D01*
X1683182Y1236870D01*
X1682643Y1237409D01*
X1683256Y1238021D01*
X1682096Y1238911D01*
X1680390Y1239618D01*
X1678560Y1239859D01*
X1663190D01*
Y1238954D01*
X1662428D01*
Y1239859D01*
X1647059D01*
X1645229Y1239618D01*
X1643523Y1238911D01*
X1643249Y1238701D01*
X1642110Y1239262D01*
Y1251601D01*
X1603757Y1289955D01*
X1421661D01*
X1392519Y1260812D01*
X1313732D01*
X1307584Y1266960D01*
X1287584D01*
X1281093Y1260469D01*
X1264075D01*
X1257584Y1266960D01*
Y1360170D01*
X1603757D01*
Y1421688D01*
X1633031D01*
Y1406800D01*
D02*
G37*
G36*
X1130652Y1304541D02*
X1167854Y1267339D01*
X1167391Y1266005D01*
X1166072Y1265459D01*
X1164912Y1264569D01*
X1165525Y1263957D01*
X1164986Y1263418D01*
X1164374Y1264030D01*
X1163484Y1262870D01*
X1162777Y1261164D01*
X1162536Y1259334D01*
Y1243965D01*
X1163441D01*
Y1243203D01*
X1162536D01*
Y1227834D01*
X1162777Y1226003D01*
X1163484Y1224298D01*
X1164374Y1223138D01*
X1164986Y1223750D01*
X1165525Y1223211D01*
X1164912Y1222599D01*
X1166072Y1221709D01*
X1167778Y1221003D01*
X1169609Y1220761D01*
X1175478D01*
Y1221666D01*
X1176240D01*
Y1220761D01*
X1182109D01*
X1183939Y1221003D01*
X1185645Y1221709D01*
X1186805Y1222599D01*
X1186192Y1223211D01*
X1186731Y1223750D01*
X1187344Y1223138D01*
X1188233Y1224298D01*
X1188940Y1226003D01*
X1189181Y1227834D01*
Y1243203D01*
X1188276D01*
Y1243965D01*
X1189181D01*
Y1259334D01*
X1188940Y1261164D01*
X1188233Y1262870D01*
X1187126Y1264314D01*
X1187139Y1264415D01*
X1187568Y1265584D01*
X1225080D01*
X1248604Y1242060D01*
X1282240D01*
X1282802Y1240790D01*
X1282009Y1239756D01*
X1281302Y1238050D01*
X1281061Y1236220D01*
Y1220851D01*
X1281966D01*
Y1220089D01*
X1281061D01*
Y1204720D01*
X1281302Y1202889D01*
X1282009Y1201184D01*
X1282899Y1200024D01*
X1283511Y1200636D01*
X1284050Y1200097D01*
X1283438Y1199485D01*
X1284598Y1198595D01*
X1286303Y1197888D01*
X1288134Y1197647D01*
X1294003D01*
Y1198552D01*
X1294765D01*
Y1197647D01*
X1300634D01*
X1302464Y1197888D01*
X1304170Y1198595D01*
X1305330Y1199485D01*
X1304718Y1200097D01*
X1305257Y1200636D01*
X1305869Y1200024D01*
X1306759Y1201184D01*
X1307465Y1202889D01*
X1307706Y1204720D01*
Y1220089D01*
X1306801D01*
Y1220851D01*
X1307706D01*
Y1236220D01*
X1307465Y1238050D01*
X1306759Y1239756D01*
X1305966Y1240790D01*
X1306528Y1242060D01*
X1313180D01*
X1348280Y1206960D01*
X1387584Y1206960D01*
X1393981Y1200564D01*
X1393454Y1199294D01*
X1390987D01*
Y1198394D01*
X1390225D01*
Y1199294D01*
X1386667D01*
X1385577Y1199077D01*
X1384977Y1198676D01*
X1385584Y1198068D01*
X1385045Y1197530D01*
X1384438Y1198137D01*
X1384037Y1197536D01*
X1383820Y1196447D01*
Y1189841D01*
X1384719D01*
Y1189079D01*
X1383820D01*
Y1182472D01*
X1384037Y1181383D01*
X1384438Y1180783D01*
X1385045Y1181390D01*
X1385584Y1180851D01*
X1384977Y1180244D01*
X1385577Y1179843D01*
X1386667Y1179626D01*
X1390225D01*
Y1180525D01*
X1390987D01*
Y1179626D01*
X1394546D01*
X1395305Y1179777D01*
X1396278Y1179228D01*
X1396575Y1178944D01*
Y1172476D01*
X1396278Y1172192D01*
X1395305Y1171642D01*
X1394546Y1171794D01*
X1390987D01*
Y1170894D01*
X1390225D01*
Y1171794D01*
X1386667D01*
X1385577Y1171577D01*
X1384977Y1171176D01*
X1385584Y1170568D01*
X1385045Y1170030D01*
X1384438Y1170637D01*
X1384037Y1170036D01*
X1383820Y1168947D01*
Y1162341D01*
X1384719D01*
Y1161579D01*
X1383820D01*
Y1154972D01*
X1384037Y1153883D01*
X1384438Y1153283D01*
X1385045Y1153890D01*
X1385584Y1153351D01*
X1384977Y1152744D01*
X1385577Y1152343D01*
X1386667Y1152126D01*
X1390225D01*
Y1153025D01*
X1390987D01*
Y1152126D01*
X1394546D01*
X1395305Y1152277D01*
X1396278Y1151728D01*
X1396575Y1151444D01*
Y1145165D01*
X1395305Y1144402D01*
X1394545Y1144553D01*
X1386666D01*
X1385478Y1144316D01*
X1384471Y1143643D01*
X1383798Y1142636D01*
X1383561Y1141448D01*
Y1127473D01*
X1383798Y1126284D01*
X1384471Y1125277D01*
X1385478Y1124604D01*
X1386666Y1124368D01*
X1394545D01*
X1395305Y1124519D01*
X1396575Y1123755D01*
Y1091960D01*
X1329547D01*
X1329115Y1093230D01*
X1329128Y1093239D01*
X1328516Y1093852D01*
X1329054Y1094390D01*
X1329667Y1093778D01*
X1330557Y1094938D01*
X1331263Y1096644D01*
X1331504Y1098474D01*
Y1113843D01*
X1330599D01*
Y1114605D01*
X1331504D01*
Y1129974D01*
X1331263Y1131805D01*
X1330557Y1133511D01*
X1329667Y1134670D01*
X1329054Y1134058D01*
X1328516Y1134597D01*
X1329128Y1135209D01*
X1327968Y1136099D01*
X1326262Y1136806D01*
X1324432Y1137047D01*
X1318563D01*
Y1136142D01*
X1317801D01*
Y1137047D01*
X1311932D01*
X1310101Y1136806D01*
X1308395Y1136099D01*
X1307236Y1135209D01*
X1307848Y1134597D01*
X1307309Y1134058D01*
X1306697Y1134670D01*
X1305807Y1133511D01*
X1305100Y1131805D01*
X1304859Y1129974D01*
Y1114605D01*
X1305764D01*
Y1113843D01*
X1304859D01*
Y1098474D01*
X1305100Y1096644D01*
X1305807Y1094938D01*
X1306697Y1093778D01*
X1307309Y1094390D01*
X1307848Y1093852D01*
X1307236Y1093239D01*
X1307248Y1093230D01*
X1306817Y1091960D01*
X1257207D01*
Y972976D01*
X1303186Y926996D01*
X1431725Y926996D01*
Y902845D01*
X1430455Y902219D01*
X1429568Y902899D01*
X1427863Y903605D01*
X1426032Y903847D01*
X1410663D01*
Y902942D01*
X1409901D01*
Y903847D01*
X1394532D01*
X1392702Y903605D01*
X1390996Y902899D01*
X1389836Y902009D01*
X1390448Y901397D01*
X1389909Y900858D01*
X1389297Y901470D01*
X1388407Y900310D01*
X1387701Y898605D01*
X1387460Y896774D01*
Y890905D01*
X1388365D01*
Y890143D01*
X1387460D01*
Y884274D01*
X1387701Y882443D01*
X1388407Y880738D01*
X1389297Y879578D01*
X1389909Y880190D01*
X1390448Y879651D01*
X1389836Y879039D01*
X1390996Y878149D01*
X1392702Y877442D01*
X1394532Y877202D01*
X1409901D01*
Y878106D01*
X1410663D01*
Y877202D01*
X1426032D01*
X1427863Y877442D01*
X1429568Y878149D01*
X1430455Y878829D01*
X1431725Y878203D01*
Y872560D01*
X1280063Y720897D01*
X1188388D01*
X1156542Y752743D01*
X1118263D01*
X1117834Y753912D01*
X1117821Y754013D01*
X1118929Y755456D01*
X1119636Y757162D01*
X1119877Y758993D01*
Y774362D01*
X1118972D01*
Y775124D01*
X1119877D01*
Y790493D01*
X1119636Y792323D01*
X1118929Y794029D01*
X1118039Y795189D01*
X1117427Y794577D01*
X1116888Y795116D01*
X1117500Y795728D01*
X1116340Y796618D01*
X1114635Y797324D01*
X1112804Y797565D01*
X1106935D01*
Y796660D01*
X1106173D01*
Y797565D01*
X1100304D01*
X1098474Y797324D01*
X1096768Y796618D01*
X1095608Y795728D01*
X1096220Y795116D01*
X1095681Y794577D01*
X1095069Y795189D01*
X1094346Y794247D01*
X1092923Y793874D01*
X1079579Y807217D01*
X1063008D01*
X1062724Y807514D01*
X1062175Y808487D01*
X1062326Y809247D01*
Y815853D01*
X1061427D01*
Y816615D01*
X1062326D01*
Y823222D01*
X1062109Y824311D01*
X1061708Y824911D01*
X1061101Y824304D01*
X1060562Y824843D01*
X1061169Y825450D01*
X1060569Y825851D01*
X1059480Y826068D01*
X1055921D01*
Y825169D01*
X1055159D01*
Y826068D01*
X1051600D01*
X1050841Y825917D01*
X1049868Y826466D01*
X1049571Y826750D01*
Y841702D01*
X1050741Y842417D01*
X1050841Y842416D01*
X1051854Y842215D01*
X1055413D01*
Y843114D01*
X1056175D01*
Y842215D01*
X1059734D01*
X1060823Y842431D01*
X1061423Y842832D01*
X1060816Y843440D01*
X1061355Y843978D01*
X1061962Y843371D01*
X1062363Y843971D01*
X1062580Y845061D01*
Y851667D01*
X1061681D01*
Y852429D01*
X1062580D01*
Y859036D01*
X1062363Y860125D01*
X1061962Y860725D01*
X1061355Y860118D01*
X1060816Y860657D01*
X1061423Y861264D01*
X1060823Y861665D01*
X1059734Y861882D01*
X1056175D01*
Y860983D01*
X1055413D01*
Y861882D01*
X1051854D01*
X1050841Y861680D01*
X1050741Y861680D01*
X1049571Y862395D01*
Y920218D01*
X1042793Y926997D01*
Y940520D01*
X1086490D01*
X1098085Y952115D01*
X1159670D01*
X1184953Y969068D01*
Y1215776D01*
X1143400D01*
Y1226867D01*
X1153356Y1236823D01*
Y1251364D01*
X1139137Y1265584D01*
X887557D01*
X837313Y1246522D01*
X824400Y1243704D01*
X809304Y1247628D01*
X802500Y1252784D01*
X796591Y1261006D01*
X793400Y1274704D01*
X795303Y1285400D01*
X799422Y1293064D01*
X805540Y1299183D01*
X814613Y1303945D01*
X818683Y1305173D01*
X824400Y1305704D01*
X1130652Y1304541D01*
D02*
G37*
G36*
X1463914Y1186755D02*
X1518459D01*
Y1140020D01*
Y1010427D01*
X1452701Y944668D01*
X1313707D01*
X1275611Y982764D01*
Y1052224D01*
X1306472D01*
X1306901Y1051055D01*
X1306915Y1050954D01*
X1305807Y1049510D01*
X1305100Y1047804D01*
X1304859Y1045974D01*
Y1030605D01*
X1305764D01*
Y1029843D01*
X1304859D01*
Y1014474D01*
X1305100Y1012644D01*
X1305807Y1010938D01*
X1306697Y1009778D01*
X1307309Y1010390D01*
X1307848Y1009851D01*
X1307236Y1009239D01*
X1308395Y1008349D01*
X1310101Y1007643D01*
X1311932Y1007402D01*
X1317801D01*
Y1008306D01*
X1318563D01*
Y1007402D01*
X1324432D01*
X1326262Y1007643D01*
X1327968Y1008349D01*
X1329128Y1009239D01*
X1328516Y1009851D01*
X1329054Y1010390D01*
X1329667Y1009778D01*
X1330557Y1010938D01*
X1331263Y1012644D01*
X1331504Y1014474D01*
Y1029843D01*
X1330599D01*
Y1030605D01*
X1331504D01*
Y1045974D01*
X1331263Y1047804D01*
X1330557Y1049510D01*
X1329449Y1050954D01*
X1329462Y1051055D01*
X1329891Y1052224D01*
X1383929D01*
X1413593Y1081889D01*
Y1123755D01*
X1414863Y1124519D01*
X1415622Y1124368D01*
X1423501D01*
X1424690Y1124604D01*
X1425697Y1125277D01*
X1426370Y1126284D01*
X1426607Y1127473D01*
Y1141448D01*
X1426370Y1142636D01*
X1425697Y1143643D01*
X1424690Y1144316D01*
X1423501Y1144553D01*
X1415622D01*
X1414863Y1144402D01*
X1413593Y1145166D01*
Y1151444D01*
X1413890Y1151728D01*
X1414863Y1152277D01*
X1415623Y1152126D01*
X1419181D01*
Y1153025D01*
X1419943D01*
Y1152126D01*
X1423502D01*
X1424591Y1152343D01*
X1425191Y1152744D01*
X1424584Y1153351D01*
X1425123Y1153890D01*
X1425730Y1153283D01*
X1426131Y1153883D01*
X1426348Y1154972D01*
Y1161579D01*
X1425449D01*
Y1162341D01*
X1426348D01*
Y1168947D01*
X1426131Y1170036D01*
X1425730Y1170637D01*
X1425123Y1170030D01*
X1424584Y1170568D01*
X1425191Y1171176D01*
X1424591Y1171577D01*
X1423502Y1171794D01*
X1419943D01*
Y1170894D01*
X1419181D01*
Y1171794D01*
X1415623D01*
X1414863Y1171642D01*
X1413890Y1172192D01*
X1413593Y1172476D01*
Y1178944D01*
X1413890Y1179228D01*
X1414863Y1179777D01*
X1415623Y1179626D01*
X1419181D01*
Y1180525D01*
X1419943D01*
Y1179626D01*
X1423502D01*
X1424591Y1179843D01*
X1425191Y1180244D01*
X1424584Y1180851D01*
X1425123Y1181390D01*
X1425730Y1180783D01*
X1426131Y1181383D01*
X1426348Y1182472D01*
Y1189079D01*
X1425449D01*
Y1189841D01*
X1426348D01*
Y1196447D01*
X1426131Y1197536D01*
X1425730Y1198137D01*
X1425123Y1197530D01*
X1424584Y1198068D01*
X1425191Y1198676D01*
X1424591Y1199077D01*
X1423502Y1199294D01*
X1419943D01*
Y1198394D01*
X1419181D01*
Y1199294D01*
X1415623D01*
X1414863Y1199142D01*
X1413890Y1199692D01*
X1413593Y1199976D01*
Y1204460D01*
X1435084Y1204460D01*
X1446209D01*
X1463914Y1186755D01*
D02*
G37*
G36*
X1912620Y1273810D02*
X1907540Y1268730D01*
Y1230435D01*
X1909885Y1228090D01*
X1940560D01*
X1942192Y1229722D01*
X1943269Y1229003D01*
X1943100Y1228595D01*
Y1227585D01*
X1943487Y1226651D01*
X1944201Y1225937D01*
X1945135Y1225550D01*
X1946145D01*
X1947079Y1225937D01*
X1947793Y1226651D01*
X1948180Y1227585D01*
Y1228595D01*
X1947793Y1229529D01*
X1947079Y1230243D01*
X1946145Y1230630D01*
X1945135D01*
X1944727Y1230461D01*
X1944008Y1231538D01*
X1949450Y1236980D01*
X1973580D01*
Y1152227D01*
X1963083Y1141730D01*
X1946910D01*
X1944370Y1144270D01*
Y1156775D01*
X1942905Y1158240D01*
X1925320D01*
Y1145877D01*
X1923149Y1143706D01*
X1901559D01*
X1898650Y1146615D01*
Y1160216D01*
X1888490D01*
Y1146615D01*
X1861820D01*
Y1165860D01*
X1873250D01*
X1877060Y1169670D01*
Y1202690D01*
X1859649D01*
Y1241496D01*
Y1247846D01*
X1852930Y1254565D01*
X1852930Y1269722D01*
X1849406Y1273246D01*
X1799959D01*
X1793609Y1266896D01*
Y1238321D01*
X1780909D01*
Y1292517D01*
X1787499Y1299107D01*
X1839789D01*
X1848594Y1307911D01*
X1848459Y1325777D01*
X1844060Y1330176D01*
X1837841D01*
X1837557Y1330473D01*
X1837007Y1331446D01*
X1837158Y1332205D01*
Y1338812D01*
X1836259D01*
Y1339574D01*
X1837158D01*
Y1346180D01*
X1836942Y1347269D01*
X1836541Y1347870D01*
X1835933Y1347262D01*
X1835394Y1347801D01*
X1836002Y1348409D01*
X1835401Y1348810D01*
X1834312Y1349026D01*
X1830754D01*
Y1348127D01*
X1829992D01*
Y1349026D01*
X1826433D01*
X1825599Y1348860D01*
X1824717Y1349334D01*
X1824329Y1349659D01*
Y1375307D01*
X1831949D01*
Y1382927D01*
X1912620D01*
Y1273810D01*
D02*
G37*
G36*
X1559395Y1213940D02*
X1561163Y1213207D01*
X1563060Y1212958D01*
X1594560D01*
X1596456Y1213207D01*
X1598224Y1213940D01*
X1599539Y1214948D01*
X1600809Y1214606D01*
X1600807Y1138415D01*
X1629373Y1109849D01*
X1629319Y1108108D01*
X1629085Y1107874D01*
X1628544Y1106567D01*
Y1105153D01*
X1629085Y1103846D01*
X1630085Y1102845D01*
X1631393Y1102304D01*
X1632807D01*
X1634114Y1102845D01*
X1635114Y1103846D01*
X1635333Y1103889D01*
X1636660Y1102562D01*
X1636660Y1092220D01*
X1635390Y1091968D01*
X1635114Y1092634D01*
X1634114Y1093634D01*
X1632807Y1094176D01*
X1631393D01*
X1630085Y1093634D01*
X1629085Y1092634D01*
X1628544Y1091327D01*
Y1089912D01*
X1629085Y1088605D01*
X1630085Y1087605D01*
X1631393Y1087064D01*
X1632807D01*
X1634114Y1087605D01*
X1635114Y1088605D01*
X1635390Y1089272D01*
X1636660Y1089019D01*
X1636660Y1076980D01*
X1635390Y1076728D01*
X1635114Y1077394D01*
X1634114Y1078394D01*
X1632807Y1078936D01*
X1631393D01*
X1630085Y1078394D01*
X1629085Y1077394D01*
X1628544Y1076087D01*
Y1074672D01*
X1629085Y1073365D01*
X1630085Y1072365D01*
X1631393Y1071824D01*
X1632807D01*
X1634114Y1072365D01*
X1635114Y1073365D01*
X1635390Y1074032D01*
X1636660Y1073779D01*
X1636660Y1061740D01*
X1635390Y1061488D01*
X1635114Y1062154D01*
X1634114Y1063155D01*
X1632807Y1063696D01*
X1631393D01*
X1630085Y1063155D01*
X1629085Y1062154D01*
X1628544Y1060847D01*
Y1059433D01*
X1629085Y1058126D01*
X1629693Y1057518D01*
X1629167Y1056248D01*
X1619793D01*
X1619267Y1057518D01*
X1619874Y1058126D01*
X1620416Y1059433D01*
Y1060847D01*
X1619874Y1062154D01*
X1618874Y1063155D01*
X1617567Y1063696D01*
X1616152D01*
X1614845Y1063155D01*
X1613845Y1062154D01*
X1613304Y1060847D01*
Y1059433D01*
X1613845Y1058126D01*
X1614453Y1057518D01*
X1613927Y1056248D01*
X1604553D01*
X1604027Y1057518D01*
X1604634Y1058126D01*
X1605176Y1059433D01*
Y1060847D01*
X1604634Y1062154D01*
X1603634Y1063155D01*
X1602327Y1063696D01*
X1600912D01*
X1599606Y1063155D01*
X1598605Y1062154D01*
X1598064Y1060847D01*
Y1059433D01*
X1598605Y1058126D01*
X1599212Y1057518D01*
X1598687Y1056248D01*
X1589313Y1056248D01*
X1588787Y1057518D01*
X1589394Y1058126D01*
X1589936Y1059433D01*
Y1060847D01*
X1589394Y1062154D01*
X1588394Y1063155D01*
X1587087Y1063696D01*
X1585672D01*
X1584366Y1063155D01*
X1583365Y1062154D01*
X1582824Y1060847D01*
Y1059433D01*
X1583365Y1058126D01*
X1583972Y1057518D01*
X1583447Y1056248D01*
X1574073D01*
X1573547Y1057518D01*
X1574154Y1058126D01*
X1574696Y1059433D01*
Y1060847D01*
X1574154Y1062154D01*
X1573154Y1063155D01*
X1571847Y1063696D01*
X1570432D01*
X1569126Y1063155D01*
X1568125Y1062154D01*
X1567584Y1060847D01*
Y1059433D01*
X1568125Y1058126D01*
X1568732Y1057518D01*
X1568206Y1056248D01*
X1558833D01*
X1558307Y1057518D01*
X1558914Y1058126D01*
X1559456Y1059433D01*
Y1060847D01*
X1558914Y1062154D01*
X1557914Y1063155D01*
X1556607Y1063696D01*
X1555193D01*
X1553885Y1063155D01*
X1552885Y1062154D01*
X1552631Y1061541D01*
X1551361Y1061794D01*
Y1073726D01*
X1552631Y1073979D01*
X1552885Y1073365D01*
X1553885Y1072365D01*
X1555193Y1071824D01*
X1556607D01*
X1557914Y1072365D01*
X1558914Y1073365D01*
X1559456Y1074672D01*
Y1076087D01*
X1558914Y1077394D01*
X1557914Y1078394D01*
X1556607Y1078936D01*
X1555193D01*
X1553885Y1078394D01*
X1552885Y1077394D01*
X1552631Y1076781D01*
X1551361Y1077034D01*
Y1088966D01*
X1552631Y1089219D01*
X1552885Y1088605D01*
X1553885Y1087605D01*
X1555193Y1087064D01*
X1556607D01*
X1557914Y1087605D01*
X1558914Y1088605D01*
X1559456Y1089912D01*
Y1091327D01*
X1558914Y1092634D01*
X1557914Y1093634D01*
X1556607Y1094176D01*
X1555193D01*
X1553885Y1093634D01*
X1552885Y1092634D01*
X1552631Y1092021D01*
X1551361Y1092274D01*
Y1104206D01*
X1552631Y1104459D01*
X1552885Y1103846D01*
X1553885Y1102845D01*
X1555193Y1102304D01*
X1556607D01*
X1557914Y1102845D01*
X1558914Y1103846D01*
X1559456Y1105153D01*
Y1106567D01*
X1558914Y1107874D01*
X1557914Y1108875D01*
X1556607Y1109416D01*
X1555193D01*
X1553885Y1108875D01*
X1552885Y1107874D01*
X1552631Y1107261D01*
X1551361Y1107514D01*
Y1109689D01*
X1551300Y1109750D01*
X1556810Y1115260D01*
Y1214607D01*
X1558080Y1214949D01*
X1559395Y1213940D01*
D02*
G37*
G36*
X1032553Y862618D02*
X1031283Y861781D01*
X1030778Y861882D01*
X1027219D01*
Y860983D01*
X1026457D01*
Y861882D01*
X1022898D01*
X1021809Y861665D01*
X1021209Y861264D01*
X1021816Y860657D01*
X1021277Y860118D01*
X1020670Y860725D01*
X1020269Y860125D01*
X1020052Y859036D01*
Y852429D01*
X1020951D01*
Y851667D01*
X1020052D01*
Y845061D01*
X1020269Y843971D01*
X1020670Y843371D01*
X1021277Y843978D01*
X1021816Y843440D01*
X1021209Y842832D01*
X1021809Y842431D01*
X1022898Y842215D01*
X1026457D01*
Y843114D01*
X1027219D01*
Y842215D01*
X1030778D01*
X1031283Y842315D01*
X1032553Y841479D01*
Y826750D01*
X1032256Y826466D01*
X1031283Y825917D01*
X1030524Y826068D01*
X1026965D01*
Y825169D01*
X1026203D01*
Y826068D01*
X1022645D01*
X1021555Y825851D01*
X1020955Y825450D01*
X1021562Y824843D01*
X1021023Y824304D01*
X1020416Y824911D01*
X1020015Y824311D01*
X1019798Y823222D01*
Y816615D01*
X1020697D01*
Y815853D01*
X1019798D01*
Y809247D01*
X1020015Y808158D01*
X1020416Y807557D01*
X1021023Y808164D01*
X1021562Y807626D01*
X1020955Y807018D01*
X1021555Y806617D01*
X1022645Y806401D01*
X1026203D01*
Y807300D01*
X1026965D01*
Y806401D01*
X1030524D01*
X1031283Y806552D01*
X1032256Y806002D01*
X1032553Y805718D01*
Y798748D01*
X1038355Y792946D01*
Y762553D01*
X874864D01*
Y853328D01*
X876033Y853757D01*
X876134Y853770D01*
X877578Y852662D01*
X879284Y851955D01*
X881114Y851714D01*
X896483D01*
Y852619D01*
X897245D01*
Y851714D01*
X912614D01*
X914445Y851955D01*
X916151Y852662D01*
X917310Y853552D01*
X916698Y854164D01*
X917237Y854703D01*
X917849Y854091D01*
X918739Y855251D01*
X919446Y856956D01*
X919687Y858787D01*
Y864656D01*
X918782D01*
Y865418D01*
X919687D01*
Y871287D01*
X919446Y873118D01*
X918739Y874823D01*
X917849Y875983D01*
X917237Y875371D01*
X916698Y875910D01*
X917310Y876522D01*
X916151Y877412D01*
X914445Y878119D01*
X912614Y878360D01*
X897245D01*
Y877455D01*
X896483D01*
Y878360D01*
X881114D01*
X879284Y878119D01*
X877578Y877412D01*
X876134Y876304D01*
X876033Y876317D01*
X874864Y876747D01*
Y920409D01*
X984231D01*
Y944016D01*
X985195Y944682D01*
X985501Y944763D01*
X986441Y944577D01*
X989500D01*
Y945476D01*
X990262D01*
Y944577D01*
X993322D01*
X994407Y944793D01*
X995005Y945192D01*
X994397Y945799D01*
X994936Y946338D01*
X995543Y945731D01*
X995943Y946328D01*
X996159Y947414D01*
Y951997D01*
X995260D01*
Y952759D01*
X996159D01*
Y957343D01*
X996009Y958093D01*
X996564Y959072D01*
X996845Y959363D01*
X1032553D01*
Y862618D01*
D02*
G37*
G36*
X1821264Y1089424D02*
Y928700D01*
X1704340D01*
Y947420D01*
X1778000Y1021080D01*
Y1046480D01*
X1761490Y1062990D01*
X1704340D01*
X1701800Y1065530D01*
X1701285Y1066158D01*
X1701337Y1066419D01*
Y1067054D01*
X1700448D01*
Y1067816D01*
X1701337D01*
Y1068451D01*
X1701160Y1069343D01*
X1700870Y1069776D01*
X1700261Y1069167D01*
X1699722Y1069706D01*
X1700331Y1070315D01*
X1699898Y1070604D01*
X1699006Y1070782D01*
X1698371D01*
Y1069893D01*
X1697609D01*
Y1070782D01*
X1696974D01*
X1696082Y1070604D01*
X1695649Y1070315D01*
X1696258Y1069706D01*
X1695719Y1069167D01*
X1695110Y1069776D01*
X1694821Y1069343D01*
X1694643Y1068451D01*
Y1067816D01*
X1695533D01*
Y1067054D01*
X1694643D01*
Y1066863D01*
X1693462Y1066293D01*
X1693421Y1066289D01*
X1691640Y1068070D01*
Y1089660D01*
Y1099891D01*
X1810797D01*
X1821264Y1089424D01*
D02*
G37*
G36*
X1694384Y1057806D02*
Y1057529D01*
X1694581Y1056538D01*
X1695143Y1055698D01*
X1695983Y1055136D01*
X1696974Y1054939D01*
X1699006D01*
X1699997Y1055136D01*
X1700837Y1055698D01*
X1701399Y1056538D01*
X1701596Y1057529D01*
Y1057805D01*
X1702866Y1058332D01*
X1718310Y1042887D01*
X1746250Y1042887D01*
X1746250Y1031457D01*
X1714500Y999707D01*
X1672227Y957434D01*
Y922719D01*
X1594532D01*
X1577941Y906128D01*
X1577726Y817172D01*
X1577939Y734911D01*
X1577042Y734012D01*
X1474113D01*
Y877373D01*
X1475383Y877989D01*
X1476702Y877442D01*
X1478532Y877202D01*
X1493901D01*
Y878106D01*
X1494663D01*
Y877202D01*
X1510032D01*
X1511862Y877442D01*
X1513568Y878149D01*
X1514728Y879039D01*
X1514116Y879651D01*
X1514655Y880190D01*
X1515267Y879578D01*
X1516157Y880738D01*
X1516864Y882443D01*
X1517104Y884274D01*
Y890143D01*
X1516200D01*
Y890905D01*
X1517104D01*
Y896774D01*
X1516864Y898605D01*
X1516157Y900310D01*
X1515267Y901470D01*
X1514655Y900858D01*
X1514116Y901397D01*
X1514728Y902009D01*
X1513568Y902899D01*
X1511862Y903605D01*
X1510032Y903847D01*
X1494663D01*
Y902942D01*
X1493901D01*
Y903847D01*
X1478532D01*
X1476702Y903605D01*
X1475383Y903059D01*
X1474113Y903675D01*
Y912351D01*
X1521460Y959698D01*
X1610999Y1049237D01*
X1684020D01*
X1693114Y1058332D01*
X1694384Y1057806D01*
D02*
G37*
G36*
X1399540Y462280D02*
X1369060D01*
Y491490D01*
X1399540D01*
Y462280D01*
D02*
G37*
G36*
X893911Y180277D02*
X289004D01*
Y705618D01*
X893911D01*
Y180277D01*
D02*
G37*
%LPC*%
G36*
X1953006Y1873686D02*
X1949869Y1873273D01*
X1946946Y1872062D01*
X1944436Y1870136D01*
X1942510Y1867626D01*
X1941299Y1864703D01*
X1940886Y1861566D01*
X1941299Y1858429D01*
X1942510Y1855506D01*
X1944436Y1852996D01*
X1946946Y1851070D01*
X1949869Y1849859D01*
X1953006Y1849446D01*
X1956143Y1849859D01*
X1959066Y1851070D01*
X1961576Y1852996D01*
X1963502Y1855506D01*
X1964713Y1858429D01*
X1965126Y1861566D01*
X1964713Y1864703D01*
X1963502Y1867626D01*
X1961576Y1870136D01*
X1959066Y1872062D01*
X1956143Y1873273D01*
X1953006Y1873686D01*
D02*
G37*
G36*
Y1756846D02*
X1949869Y1756433D01*
X1946946Y1755222D01*
X1944436Y1753296D01*
X1942510Y1750786D01*
X1941299Y1747863D01*
X1940886Y1744726D01*
X1941299Y1741589D01*
X1942510Y1738666D01*
X1944436Y1736156D01*
X1946946Y1734230D01*
X1949869Y1733019D01*
X1953006Y1732606D01*
X1956143Y1733019D01*
X1959066Y1734230D01*
X1961576Y1736156D01*
X1963502Y1738666D01*
X1964713Y1741589D01*
X1965126Y1744726D01*
X1964713Y1747863D01*
X1963502Y1750786D01*
X1961576Y1753296D01*
X1959066Y1755222D01*
X1956143Y1756433D01*
X1953006Y1756846D01*
D02*
G37*
G36*
X1954530Y1585247D02*
X1951393Y1584834D01*
X1948470Y1583623D01*
X1945960Y1581697D01*
X1944034Y1579187D01*
X1942823Y1576264D01*
X1942410Y1573127D01*
X1942823Y1569991D01*
X1944034Y1567068D01*
X1945960Y1564557D01*
X1948470Y1562631D01*
X1951393Y1561421D01*
X1954530Y1561008D01*
X1957666Y1561421D01*
X1960590Y1562631D01*
X1963100Y1564557D01*
X1965026Y1567068D01*
X1966237Y1569991D01*
X1966649Y1573127D01*
X1966237Y1576264D01*
X1965026Y1579187D01*
X1963100Y1581697D01*
X1960590Y1583623D01*
X1957666Y1584834D01*
X1954530Y1585247D01*
D02*
G37*
G36*
Y1468407D02*
X1951393Y1467994D01*
X1948470Y1466783D01*
X1945960Y1464857D01*
X1944034Y1462347D01*
X1942823Y1459424D01*
X1942410Y1456287D01*
X1942823Y1453150D01*
X1944034Y1450228D01*
X1945960Y1447717D01*
X1948470Y1445791D01*
X1951393Y1444581D01*
X1954530Y1444168D01*
X1957666Y1444581D01*
X1960590Y1445791D01*
X1963100Y1447717D01*
X1965026Y1450228D01*
X1966237Y1453150D01*
X1966649Y1456287D01*
X1966237Y1459424D01*
X1965026Y1462347D01*
X1963100Y1464857D01*
X1960590Y1466783D01*
X1957666Y1467994D01*
X1954530Y1468407D01*
D02*
G37*
G36*
X1979678Y1319644D02*
X1964309D01*
Y1318740D01*
X1963547D01*
Y1319644D01*
X1948178D01*
X1946348Y1319404D01*
X1944642Y1318697D01*
X1943482Y1317807D01*
X1944094Y1317195D01*
X1943555Y1316656D01*
X1942943Y1317268D01*
X1942053Y1316108D01*
X1941346Y1314402D01*
X1941105Y1312572D01*
Y1306703D01*
X1942010D01*
Y1305941D01*
X1941105D01*
Y1300072D01*
X1941346Y1298241D01*
X1942053Y1296536D01*
X1942943Y1295376D01*
X1943555Y1295988D01*
X1944094Y1295449D01*
X1943482Y1294837D01*
X1944642Y1293947D01*
X1946348Y1293241D01*
X1948178Y1293000D01*
X1963547D01*
Y1293904D01*
X1964309D01*
Y1293000D01*
X1979678D01*
X1981508Y1293241D01*
X1983214Y1293947D01*
X1984374Y1294837D01*
X1983762Y1295449D01*
X1984301Y1295988D01*
X1984913Y1295376D01*
X1985803Y1296536D01*
X1986510Y1298241D01*
X1986750Y1300072D01*
Y1305941D01*
X1985846D01*
Y1306703D01*
X1986750D01*
Y1312572D01*
X1986510Y1314402D01*
X1985803Y1316108D01*
X1984913Y1317268D01*
X1984301Y1316656D01*
X1983762Y1317195D01*
X1984374Y1317807D01*
X1983214Y1318697D01*
X1981508Y1319404D01*
X1979678Y1319644D01*
D02*
G37*
G36*
X546605Y1885950D02*
X545595D01*
X544661Y1885563D01*
X543947Y1884849D01*
X543560Y1883915D01*
Y1882905D01*
X543947Y1881971D01*
X544661Y1881257D01*
X545595Y1880870D01*
X546605D01*
X547539Y1881257D01*
X548253Y1881971D01*
X548640Y1882905D01*
Y1883915D01*
X548253Y1884849D01*
X547539Y1885563D01*
X546605Y1885950D01*
D02*
G37*
G36*
X526285D02*
X525275D01*
X524341Y1885563D01*
X523627Y1884849D01*
X523240Y1883915D01*
Y1882905D01*
X523627Y1881971D01*
X524341Y1881257D01*
X525275Y1880870D01*
X526285D01*
X527219Y1881257D01*
X527933Y1881971D01*
X528320Y1882905D01*
Y1883915D01*
X527933Y1884849D01*
X527219Y1885563D01*
X526285Y1885950D01*
D02*
G37*
G36*
X505965D02*
X504955D01*
X504021Y1885563D01*
X503307Y1884849D01*
X502920Y1883915D01*
Y1882905D01*
X503307Y1881971D01*
X504021Y1881257D01*
X504955Y1880870D01*
X505965D01*
X506899Y1881257D01*
X507613Y1881971D01*
X508000Y1882905D01*
Y1883915D01*
X507613Y1884849D01*
X506899Y1885563D01*
X505965Y1885950D01*
D02*
G37*
G36*
X546605Y1865630D02*
X545595D01*
X544661Y1865243D01*
X543947Y1864529D01*
X543560Y1863595D01*
Y1862585D01*
X543947Y1861651D01*
X544661Y1860937D01*
X545595Y1860550D01*
X546605D01*
X547539Y1860937D01*
X548253Y1861651D01*
X548640Y1862585D01*
Y1863595D01*
X548253Y1864529D01*
X547539Y1865243D01*
X546605Y1865630D01*
D02*
G37*
G36*
X526285D02*
X525275D01*
X524341Y1865243D01*
X523627Y1864529D01*
X523240Y1863595D01*
Y1862585D01*
X523627Y1861651D01*
X524341Y1860937D01*
X525275Y1860550D01*
X526285D01*
X527219Y1860937D01*
X527933Y1861651D01*
X528320Y1862585D01*
Y1863595D01*
X527933Y1864529D01*
X527219Y1865243D01*
X526285Y1865630D01*
D02*
G37*
G36*
X505965D02*
X504955D01*
X504021Y1865243D01*
X503307Y1864529D01*
X502920Y1863595D01*
Y1862585D01*
X503307Y1861651D01*
X504021Y1860937D01*
X504955Y1860550D01*
X505965D01*
X506899Y1860937D01*
X507613Y1861651D01*
X508000Y1862585D01*
Y1863595D01*
X507613Y1864529D01*
X506899Y1865243D01*
X505965Y1865630D01*
D02*
G37*
G36*
X546605Y1845310D02*
X545595D01*
X544661Y1844923D01*
X543947Y1844209D01*
X543560Y1843275D01*
Y1842265D01*
X543947Y1841331D01*
X544661Y1840617D01*
X545595Y1840230D01*
X546605D01*
X547539Y1840617D01*
X548253Y1841331D01*
X548640Y1842265D01*
Y1843275D01*
X548253Y1844209D01*
X547539Y1844923D01*
X546605Y1845310D01*
D02*
G37*
G36*
X526285D02*
X525275D01*
X524341Y1844923D01*
X523627Y1844209D01*
X523240Y1843275D01*
Y1842265D01*
X523627Y1841331D01*
X524341Y1840617D01*
X525275Y1840230D01*
X526285D01*
X527219Y1840617D01*
X527933Y1841331D01*
X528320Y1842265D01*
Y1843275D01*
X527933Y1844209D01*
X527219Y1844923D01*
X526285Y1845310D01*
D02*
G37*
G36*
X505965D02*
X504955D01*
X504021Y1844923D01*
X503307Y1844209D01*
X502920Y1843275D01*
Y1842265D01*
X503307Y1841331D01*
X504021Y1840617D01*
X504955Y1840230D01*
X505965D01*
X506899Y1840617D01*
X507613Y1841331D01*
X508000Y1842265D01*
Y1843275D01*
X507613Y1844209D01*
X506899Y1844923D01*
X505965Y1845310D01*
D02*
G37*
G36*
X546605Y1824990D02*
X545595D01*
X544661Y1824603D01*
X543947Y1823889D01*
X543560Y1822955D01*
Y1821945D01*
X543947Y1821011D01*
X544661Y1820297D01*
X545595Y1819910D01*
X546605D01*
X547539Y1820297D01*
X548253Y1821011D01*
X548640Y1821945D01*
Y1822955D01*
X548253Y1823889D01*
X547539Y1824603D01*
X546605Y1824990D01*
D02*
G37*
G36*
X526285D02*
X525275D01*
X524341Y1824603D01*
X523627Y1823889D01*
X523240Y1822955D01*
Y1821945D01*
X523627Y1821011D01*
X524341Y1820297D01*
X525275Y1819910D01*
X526285D01*
X527219Y1820297D01*
X527933Y1821011D01*
X528320Y1821945D01*
Y1822955D01*
X527933Y1823889D01*
X527219Y1824603D01*
X526285Y1824990D01*
D02*
G37*
G36*
X505965D02*
X504955D01*
X504021Y1824603D01*
X503307Y1823889D01*
X502920Y1822955D01*
Y1821945D01*
X503307Y1821011D01*
X504021Y1820297D01*
X504955Y1819910D01*
X505965D01*
X506899Y1820297D01*
X507613Y1821011D01*
X508000Y1821945D01*
Y1822955D01*
X507613Y1823889D01*
X506899Y1824603D01*
X505965Y1824990D01*
D02*
G37*
G36*
X546605Y1804670D02*
X545595D01*
X544661Y1804283D01*
X543947Y1803569D01*
X543560Y1802635D01*
Y1801625D01*
X543947Y1800691D01*
X544661Y1799977D01*
X545595Y1799590D01*
X546605D01*
X547539Y1799977D01*
X548253Y1800691D01*
X548640Y1801625D01*
Y1802635D01*
X548253Y1803569D01*
X547539Y1804283D01*
X546605Y1804670D01*
D02*
G37*
G36*
X526285D02*
X525275D01*
X524341Y1804283D01*
X523627Y1803569D01*
X523240Y1802635D01*
Y1801625D01*
X523627Y1800691D01*
X524341Y1799977D01*
X525275Y1799590D01*
X526285D01*
X527219Y1799977D01*
X527933Y1800691D01*
X528320Y1801625D01*
Y1802635D01*
X527933Y1803569D01*
X527219Y1804283D01*
X526285Y1804670D01*
D02*
G37*
G36*
X505965D02*
X504955D01*
X504021Y1804283D01*
X503307Y1803569D01*
X502920Y1802635D01*
Y1801625D01*
X503307Y1800691D01*
X504021Y1799977D01*
X504955Y1799590D01*
X505965D01*
X506899Y1799977D01*
X507613Y1800691D01*
X508000Y1801625D01*
Y1802635D01*
X507613Y1803569D01*
X506899Y1804283D01*
X505965Y1804670D01*
D02*
G37*
G36*
X546605Y1784350D02*
X545595D01*
X544661Y1783963D01*
X543947Y1783249D01*
X543560Y1782315D01*
Y1781305D01*
X543947Y1780371D01*
X544661Y1779657D01*
X545595Y1779270D01*
X546605D01*
X547539Y1779657D01*
X548253Y1780371D01*
X548640Y1781305D01*
Y1782315D01*
X548253Y1783249D01*
X547539Y1783963D01*
X546605Y1784350D01*
D02*
G37*
G36*
X526285D02*
X525275D01*
X524341Y1783963D01*
X523627Y1783249D01*
X523240Y1782315D01*
Y1781305D01*
X523627Y1780371D01*
X524341Y1779657D01*
X525275Y1779270D01*
X526285D01*
X527219Y1779657D01*
X527933Y1780371D01*
X528320Y1781305D01*
Y1782315D01*
X527933Y1783249D01*
X527219Y1783963D01*
X526285Y1784350D01*
D02*
G37*
G36*
X505965D02*
X504955D01*
X504021Y1783963D01*
X503307Y1783249D01*
X502920Y1782315D01*
Y1781305D01*
X503307Y1780371D01*
X504021Y1779657D01*
X504955Y1779270D01*
X505965D01*
X506899Y1779657D01*
X507613Y1780371D01*
X508000Y1781305D01*
Y1782315D01*
X507613Y1783249D01*
X506899Y1783963D01*
X505965Y1784350D01*
D02*
G37*
G36*
X546605Y1764030D02*
X545595D01*
X544661Y1763643D01*
X543947Y1762929D01*
X543560Y1761995D01*
Y1760985D01*
X543947Y1760051D01*
X544661Y1759337D01*
X545595Y1758950D01*
X546605D01*
X547539Y1759337D01*
X548253Y1760051D01*
X548640Y1760985D01*
Y1761995D01*
X548253Y1762929D01*
X547539Y1763643D01*
X546605Y1764030D01*
D02*
G37*
G36*
X526285D02*
X525275D01*
X524341Y1763643D01*
X523627Y1762929D01*
X523240Y1761995D01*
Y1760985D01*
X523627Y1760051D01*
X524341Y1759337D01*
X525275Y1758950D01*
X526285D01*
X527219Y1759337D01*
X527933Y1760051D01*
X528320Y1760985D01*
Y1761995D01*
X527933Y1762929D01*
X527219Y1763643D01*
X526285Y1764030D01*
D02*
G37*
G36*
X505965D02*
X504955D01*
X504021Y1763643D01*
X503307Y1762929D01*
X502920Y1761995D01*
Y1760985D01*
X503307Y1760051D01*
X504021Y1759337D01*
X504955Y1758950D01*
X505965D01*
X506899Y1759337D01*
X507613Y1760051D01*
X508000Y1760985D01*
Y1761995D01*
X507613Y1762929D01*
X506899Y1763643D01*
X505965Y1764030D01*
D02*
G37*
G36*
X546605Y1743710D02*
X545595D01*
X544661Y1743323D01*
X543947Y1742609D01*
X543560Y1741675D01*
Y1740665D01*
X543947Y1739731D01*
X544661Y1739017D01*
X545595Y1738630D01*
X546605D01*
X547539Y1739017D01*
X548253Y1739731D01*
X548640Y1740665D01*
Y1741675D01*
X548253Y1742609D01*
X547539Y1743323D01*
X546605Y1743710D01*
D02*
G37*
G36*
X526285D02*
X525275D01*
X524341Y1743323D01*
X523627Y1742609D01*
X523240Y1741675D01*
Y1740665D01*
X523627Y1739731D01*
X524341Y1739017D01*
X525275Y1738630D01*
X526285D01*
X527219Y1739017D01*
X527933Y1739731D01*
X528320Y1740665D01*
Y1741675D01*
X527933Y1742609D01*
X527219Y1743323D01*
X526285Y1743710D01*
D02*
G37*
G36*
X505965D02*
X504955D01*
X504021Y1743323D01*
X503307Y1742609D01*
X502920Y1741675D01*
Y1740665D01*
X503307Y1739731D01*
X504021Y1739017D01*
X504955Y1738630D01*
X505965D01*
X506899Y1739017D01*
X507613Y1739731D01*
X508000Y1740665D01*
Y1741675D01*
X507613Y1742609D01*
X506899Y1743323D01*
X505965Y1743710D01*
D02*
G37*
G36*
X546605Y1723390D02*
X545595D01*
X544661Y1723003D01*
X543947Y1722289D01*
X543560Y1721355D01*
Y1720345D01*
X543947Y1719411D01*
X544661Y1718697D01*
X545595Y1718310D01*
X546605D01*
X547539Y1718697D01*
X548253Y1719411D01*
X548640Y1720345D01*
Y1721355D01*
X548253Y1722289D01*
X547539Y1723003D01*
X546605Y1723390D01*
D02*
G37*
G36*
X526285D02*
X525275D01*
X524341Y1723003D01*
X523627Y1722289D01*
X523240Y1721355D01*
Y1720345D01*
X523627Y1719411D01*
X524341Y1718697D01*
X525275Y1718310D01*
X526285D01*
X527219Y1718697D01*
X527933Y1719411D01*
X528320Y1720345D01*
Y1721355D01*
X527933Y1722289D01*
X527219Y1723003D01*
X526285Y1723390D01*
D02*
G37*
G36*
X505965D02*
X504955D01*
X504021Y1723003D01*
X503307Y1722289D01*
X502920Y1721355D01*
Y1720345D01*
X503307Y1719411D01*
X504021Y1718697D01*
X504955Y1718310D01*
X505965D01*
X506899Y1718697D01*
X507613Y1719411D01*
X508000Y1720345D01*
Y1721355D01*
X507613Y1722289D01*
X506899Y1723003D01*
X505965Y1723390D01*
D02*
G37*
G36*
X546605Y1703070D02*
X545595D01*
X544661Y1702683D01*
X543947Y1701969D01*
X543560Y1701035D01*
Y1700025D01*
X543947Y1699091D01*
X544661Y1698377D01*
X545595Y1697990D01*
X546605D01*
X547539Y1698377D01*
X548253Y1699091D01*
X548640Y1700025D01*
Y1701035D01*
X548253Y1701969D01*
X547539Y1702683D01*
X546605Y1703070D01*
D02*
G37*
G36*
X526285D02*
X525275D01*
X524341Y1702683D01*
X523627Y1701969D01*
X523240Y1701035D01*
Y1700025D01*
X523627Y1699091D01*
X524341Y1698377D01*
X525275Y1697990D01*
X526285D01*
X527219Y1698377D01*
X527933Y1699091D01*
X528320Y1700025D01*
Y1701035D01*
X527933Y1701969D01*
X527219Y1702683D01*
X526285Y1703070D01*
D02*
G37*
G36*
X505965D02*
X504955D01*
X504021Y1702683D01*
X503307Y1701969D01*
X502920Y1701035D01*
Y1700025D01*
X503307Y1699091D01*
X504021Y1698377D01*
X504955Y1697990D01*
X505965D01*
X506899Y1698377D01*
X507613Y1699091D01*
X508000Y1700025D01*
Y1701035D01*
X507613Y1701969D01*
X506899Y1702683D01*
X505965Y1703070D01*
D02*
G37*
G36*
X546605Y1682765D02*
X545595D01*
X544661Y1682378D01*
X543947Y1681663D01*
X543560Y1680730D01*
Y1679719D01*
X543947Y1678786D01*
X544661Y1678071D01*
X545595Y1677685D01*
X546605D01*
X547539Y1678071D01*
X548253Y1678786D01*
X548640Y1679719D01*
Y1680730D01*
X548253Y1681663D01*
X547539Y1682378D01*
X546605Y1682765D01*
D02*
G37*
G36*
X526285D02*
X525275D01*
X524341Y1682378D01*
X523627Y1681663D01*
X523240Y1680730D01*
Y1679719D01*
X523627Y1678786D01*
X524341Y1678071D01*
X525275Y1677685D01*
X526285D01*
X527219Y1678071D01*
X527933Y1678786D01*
X528320Y1679719D01*
Y1680730D01*
X527933Y1681663D01*
X527219Y1682378D01*
X526285Y1682765D01*
D02*
G37*
G36*
X505965D02*
X504955D01*
X504021Y1682378D01*
X503307Y1681663D01*
X502920Y1680730D01*
Y1679719D01*
X503307Y1678786D01*
X504021Y1678071D01*
X504955Y1677685D01*
X505965D01*
X506899Y1678071D01*
X507613Y1678786D01*
X508000Y1679719D01*
Y1680730D01*
X507613Y1681663D01*
X506899Y1682378D01*
X505965Y1682765D01*
D02*
G37*
G36*
X546605Y1662445D02*
X545595D01*
X544661Y1662058D01*
X543947Y1661343D01*
X543560Y1660410D01*
Y1659399D01*
X543947Y1658466D01*
X544661Y1657751D01*
X545595Y1657365D01*
X546605D01*
X547539Y1657751D01*
X548253Y1658466D01*
X548640Y1659399D01*
Y1660410D01*
X548253Y1661343D01*
X547539Y1662058D01*
X546605Y1662445D01*
D02*
G37*
G36*
X526285D02*
X525275D01*
X524341Y1662058D01*
X523627Y1661343D01*
X523240Y1660410D01*
Y1659399D01*
X523627Y1658466D01*
X524341Y1657751D01*
X525275Y1657365D01*
X526285D01*
X527219Y1657751D01*
X527933Y1658466D01*
X528320Y1659399D01*
Y1660410D01*
X527933Y1661343D01*
X527219Y1662058D01*
X526285Y1662445D01*
D02*
G37*
G36*
X505965D02*
X504955D01*
X504021Y1662058D01*
X503307Y1661343D01*
X502920Y1660410D01*
Y1659399D01*
X503307Y1658466D01*
X504021Y1657751D01*
X504955Y1657365D01*
X505965D01*
X506899Y1657751D01*
X507613Y1658466D01*
X508000Y1659399D01*
Y1660410D01*
X507613Y1661343D01*
X506899Y1662058D01*
X505965Y1662445D01*
D02*
G37*
G36*
X546605Y1642125D02*
X545595D01*
X544661Y1641738D01*
X543947Y1641023D01*
X543560Y1640090D01*
Y1639079D01*
X543947Y1638146D01*
X544661Y1637431D01*
X545595Y1637045D01*
X546605D01*
X547539Y1637431D01*
X548253Y1638146D01*
X548640Y1639079D01*
Y1640090D01*
X548253Y1641023D01*
X547539Y1641738D01*
X546605Y1642125D01*
D02*
G37*
G36*
X526285D02*
X525275D01*
X524341Y1641738D01*
X523627Y1641023D01*
X523240Y1640090D01*
Y1639079D01*
X523627Y1638146D01*
X524341Y1637431D01*
X525275Y1637045D01*
X526285D01*
X527219Y1637431D01*
X527933Y1638146D01*
X528320Y1639079D01*
Y1640090D01*
X527933Y1641023D01*
X527219Y1641738D01*
X526285Y1642125D01*
D02*
G37*
G36*
X505965D02*
X504955D01*
X504021Y1641738D01*
X503307Y1641023D01*
X502920Y1640090D01*
Y1639079D01*
X503307Y1638146D01*
X504021Y1637431D01*
X504955Y1637045D01*
X505965D01*
X506899Y1637431D01*
X507613Y1638146D01*
X508000Y1639079D01*
Y1640090D01*
X507613Y1641023D01*
X506899Y1641738D01*
X505965Y1642125D01*
D02*
G37*
G36*
X546605Y1621805D02*
X545595D01*
X544661Y1621418D01*
X543947Y1620703D01*
X543560Y1619770D01*
Y1618759D01*
X543947Y1617826D01*
X544661Y1617111D01*
X545595Y1616725D01*
X546605D01*
X547539Y1617111D01*
X548253Y1617826D01*
X548640Y1618759D01*
Y1619770D01*
X548253Y1620703D01*
X547539Y1621418D01*
X546605Y1621805D01*
D02*
G37*
G36*
X526285D02*
X525275D01*
X524341Y1621418D01*
X523627Y1620703D01*
X523240Y1619770D01*
Y1618759D01*
X523627Y1617826D01*
X524341Y1617111D01*
X525275Y1616725D01*
X526285D01*
X527219Y1617111D01*
X527933Y1617826D01*
X528320Y1618759D01*
Y1619770D01*
X527933Y1620703D01*
X527219Y1621418D01*
X526285Y1621805D01*
D02*
G37*
G36*
X505965D02*
X504955D01*
X504021Y1621418D01*
X503307Y1620703D01*
X502920Y1619770D01*
Y1618759D01*
X503307Y1617826D01*
X504021Y1617111D01*
X504955Y1616725D01*
X505965D01*
X506899Y1617111D01*
X507613Y1617826D01*
X508000Y1618759D01*
Y1619770D01*
X507613Y1620703D01*
X506899Y1621418D01*
X505965Y1621805D01*
D02*
G37*
G36*
X546605Y1601485D02*
X545595D01*
X544661Y1601098D01*
X543947Y1600383D01*
X543560Y1599450D01*
Y1598439D01*
X543947Y1597506D01*
X544661Y1596791D01*
X545595Y1596405D01*
X546605D01*
X547539Y1596791D01*
X548253Y1597506D01*
X548640Y1598439D01*
Y1599450D01*
X548253Y1600383D01*
X547539Y1601098D01*
X546605Y1601485D01*
D02*
G37*
G36*
X526285D02*
X525275D01*
X524341Y1601098D01*
X523627Y1600383D01*
X523240Y1599450D01*
Y1598439D01*
X523627Y1597506D01*
X524341Y1596791D01*
X525275Y1596405D01*
X526285D01*
X527219Y1596791D01*
X527933Y1597506D01*
X528320Y1598439D01*
Y1599450D01*
X527933Y1600383D01*
X527219Y1601098D01*
X526285Y1601485D01*
D02*
G37*
G36*
X505965D02*
X504955D01*
X504021Y1601098D01*
X503307Y1600383D01*
X502920Y1599450D01*
Y1598439D01*
X503307Y1597506D01*
X504021Y1596791D01*
X504955Y1596405D01*
X505965D01*
X506899Y1596791D01*
X507613Y1597506D01*
X508000Y1598439D01*
Y1599450D01*
X507613Y1600383D01*
X506899Y1601098D01*
X505965Y1601485D01*
D02*
G37*
G36*
X546605Y1581165D02*
X545595D01*
X544661Y1580778D01*
X543947Y1580063D01*
X543560Y1579130D01*
Y1578119D01*
X543947Y1577186D01*
X544661Y1576471D01*
X545595Y1576085D01*
X546605D01*
X547539Y1576471D01*
X548253Y1577186D01*
X548640Y1578119D01*
Y1579130D01*
X548253Y1580063D01*
X547539Y1580778D01*
X546605Y1581165D01*
D02*
G37*
G36*
X526285D02*
X525275D01*
X524341Y1580778D01*
X523627Y1580063D01*
X523240Y1579130D01*
Y1578119D01*
X523627Y1577186D01*
X524341Y1576471D01*
X525275Y1576085D01*
X526285D01*
X527219Y1576471D01*
X527933Y1577186D01*
X528320Y1578119D01*
Y1579130D01*
X527933Y1580063D01*
X527219Y1580778D01*
X526285Y1581165D01*
D02*
G37*
G36*
X505965D02*
X504955D01*
X504021Y1580778D01*
X503307Y1580063D01*
X502920Y1579130D01*
Y1578119D01*
X503307Y1577186D01*
X504021Y1576471D01*
X504955Y1576085D01*
X505965D01*
X506899Y1576471D01*
X507613Y1577186D01*
X508000Y1578119D01*
Y1579130D01*
X507613Y1580063D01*
X506899Y1580778D01*
X505965Y1581165D01*
D02*
G37*
G36*
X546605Y1560845D02*
X545595D01*
X544661Y1560458D01*
X543947Y1559743D01*
X543560Y1558810D01*
Y1557799D01*
X543947Y1556866D01*
X544661Y1556151D01*
X545595Y1555765D01*
X546605D01*
X547539Y1556151D01*
X548253Y1556866D01*
X548640Y1557799D01*
Y1558810D01*
X548253Y1559743D01*
X547539Y1560458D01*
X546605Y1560845D01*
D02*
G37*
G36*
X526285D02*
X525275D01*
X524341Y1560458D01*
X523627Y1559743D01*
X523240Y1558810D01*
Y1557799D01*
X523627Y1556866D01*
X524341Y1556151D01*
X525275Y1555765D01*
X526285D01*
X527219Y1556151D01*
X527933Y1556866D01*
X528320Y1557799D01*
Y1558810D01*
X527933Y1559743D01*
X527219Y1560458D01*
X526285Y1560845D01*
D02*
G37*
G36*
X505965D02*
X504955D01*
X504021Y1560458D01*
X503307Y1559743D01*
X502920Y1558810D01*
Y1557799D01*
X503307Y1556866D01*
X504021Y1556151D01*
X504955Y1555765D01*
X505965D01*
X506899Y1556151D01*
X507613Y1556866D01*
X508000Y1557799D01*
Y1558810D01*
X507613Y1559743D01*
X506899Y1560458D01*
X505965Y1560845D01*
D02*
G37*
G36*
X546605Y1540525D02*
X545595D01*
X544661Y1540138D01*
X543947Y1539423D01*
X543560Y1538490D01*
Y1537479D01*
X543947Y1536546D01*
X544661Y1535831D01*
X545595Y1535445D01*
X546605D01*
X547539Y1535831D01*
X548253Y1536546D01*
X548640Y1537479D01*
Y1538490D01*
X548253Y1539423D01*
X547539Y1540138D01*
X546605Y1540525D01*
D02*
G37*
G36*
X526285D02*
X525275D01*
X524341Y1540138D01*
X523627Y1539423D01*
X523240Y1538490D01*
Y1537479D01*
X523627Y1536546D01*
X524341Y1535831D01*
X525275Y1535445D01*
X526285D01*
X527219Y1535831D01*
X527933Y1536546D01*
X528320Y1537479D01*
Y1538490D01*
X527933Y1539423D01*
X527219Y1540138D01*
X526285Y1540525D01*
D02*
G37*
G36*
X505965D02*
X504955D01*
X504021Y1540138D01*
X503307Y1539423D01*
X502920Y1538490D01*
Y1537479D01*
X503307Y1536546D01*
X504021Y1535831D01*
X504955Y1535445D01*
X505965D01*
X506899Y1535831D01*
X507613Y1536546D01*
X508000Y1537479D01*
Y1538490D01*
X507613Y1539423D01*
X506899Y1540138D01*
X505965Y1540525D01*
D02*
G37*
G36*
X546605Y1520205D02*
X545595D01*
X544661Y1519818D01*
X543947Y1519103D01*
X543560Y1518170D01*
Y1517159D01*
X543947Y1516226D01*
X544661Y1515511D01*
X545595Y1515125D01*
X546605D01*
X547539Y1515511D01*
X548253Y1516226D01*
X548640Y1517159D01*
Y1518170D01*
X548253Y1519103D01*
X547539Y1519818D01*
X546605Y1520205D01*
D02*
G37*
G36*
X526285D02*
X525275D01*
X524341Y1519818D01*
X523627Y1519103D01*
X523240Y1518170D01*
Y1517159D01*
X523627Y1516226D01*
X524341Y1515511D01*
X525275Y1515125D01*
X526285D01*
X527219Y1515511D01*
X527933Y1516226D01*
X528320Y1517159D01*
Y1518170D01*
X527933Y1519103D01*
X527219Y1519818D01*
X526285Y1520205D01*
D02*
G37*
G36*
X505965D02*
X504955D01*
X504021Y1519818D01*
X503307Y1519103D01*
X502920Y1518170D01*
Y1517159D01*
X503307Y1516226D01*
X504021Y1515511D01*
X504955Y1515125D01*
X505965D01*
X506899Y1515511D01*
X507613Y1516226D01*
X508000Y1517159D01*
Y1518170D01*
X507613Y1519103D01*
X506899Y1519818D01*
X505965Y1520205D01*
D02*
G37*
G36*
X546605Y1499885D02*
X545595D01*
X544661Y1499498D01*
X543947Y1498783D01*
X543560Y1497850D01*
Y1496839D01*
X543947Y1495906D01*
X544661Y1495191D01*
X545595Y1494805D01*
X546605D01*
X547539Y1495191D01*
X548253Y1495906D01*
X548640Y1496839D01*
Y1497850D01*
X548253Y1498783D01*
X547539Y1499498D01*
X546605Y1499885D01*
D02*
G37*
G36*
X526285D02*
X525275D01*
X524341Y1499498D01*
X523627Y1498783D01*
X523240Y1497850D01*
Y1496839D01*
X523627Y1495906D01*
X524341Y1495191D01*
X525275Y1494805D01*
X526285D01*
X527219Y1495191D01*
X527933Y1495906D01*
X528320Y1496839D01*
Y1497850D01*
X527933Y1498783D01*
X527219Y1499498D01*
X526285Y1499885D01*
D02*
G37*
G36*
X505965D02*
X504955D01*
X504021Y1499498D01*
X503307Y1498783D01*
X502920Y1497850D01*
Y1496839D01*
X503307Y1495906D01*
X504021Y1495191D01*
X504955Y1494805D01*
X505965D01*
X506899Y1495191D01*
X507613Y1495906D01*
X508000Y1496839D01*
Y1497850D01*
X507613Y1498783D01*
X506899Y1499498D01*
X505965Y1499885D01*
D02*
G37*
G36*
X546605Y1479565D02*
X545595D01*
X544661Y1479178D01*
X543947Y1478463D01*
X543560Y1477530D01*
Y1476519D01*
X543947Y1475586D01*
X544661Y1474871D01*
X545595Y1474485D01*
X546605D01*
X547539Y1474871D01*
X548253Y1475586D01*
X548640Y1476519D01*
Y1477530D01*
X548253Y1478463D01*
X547539Y1479178D01*
X546605Y1479565D01*
D02*
G37*
G36*
X526285D02*
X525275D01*
X524341Y1479178D01*
X523627Y1478463D01*
X523240Y1477530D01*
Y1476519D01*
X523627Y1475586D01*
X524341Y1474871D01*
X525275Y1474485D01*
X526285D01*
X527219Y1474871D01*
X527933Y1475586D01*
X528320Y1476519D01*
Y1477530D01*
X527933Y1478463D01*
X527219Y1479178D01*
X526285Y1479565D01*
D02*
G37*
G36*
X505965D02*
X504955D01*
X504021Y1479178D01*
X503307Y1478463D01*
X502920Y1477530D01*
Y1476519D01*
X503307Y1475586D01*
X504021Y1474871D01*
X504955Y1474485D01*
X505965D01*
X506899Y1474871D01*
X507613Y1475586D01*
X508000Y1476519D01*
Y1477530D01*
X507613Y1478463D01*
X506899Y1479178D01*
X505965Y1479565D01*
D02*
G37*
G36*
X1784855Y1342979D02*
X1783845D01*
X1782911Y1342592D01*
X1782197Y1341878D01*
X1781810Y1340944D01*
Y1339934D01*
X1782197Y1339000D01*
X1782911Y1338286D01*
X1783845Y1337899D01*
X1784855D01*
X1785789Y1338286D01*
X1786503Y1339000D01*
X1786890Y1339934D01*
Y1340944D01*
X1786503Y1341878D01*
X1785789Y1342592D01*
X1784855Y1342979D01*
D02*
G37*
G36*
X1765805D02*
X1764795D01*
X1763861Y1342592D01*
X1763147Y1341878D01*
X1762760Y1340944D01*
Y1339934D01*
X1763147Y1339000D01*
X1763861Y1338286D01*
X1764795Y1337899D01*
X1765805D01*
X1766739Y1338286D01*
X1767453Y1339000D01*
X1767840Y1339934D01*
Y1340944D01*
X1767453Y1341878D01*
X1766739Y1342592D01*
X1765805Y1342979D01*
D02*
G37*
G36*
X1737865Y1333500D02*
X1736855D01*
X1735921Y1333113D01*
X1735207Y1332399D01*
X1734820Y1331465D01*
Y1330455D01*
X1735207Y1329521D01*
X1735921Y1328807D01*
X1736855Y1328420D01*
X1737865D01*
X1738799Y1328807D01*
X1739513Y1329521D01*
X1739900Y1330455D01*
Y1331465D01*
X1739513Y1332399D01*
X1738799Y1333113D01*
X1737865Y1333500D01*
D02*
G37*
G36*
X1718815D02*
X1717805D01*
X1716871Y1333113D01*
X1716157Y1332399D01*
X1715770Y1331465D01*
Y1330455D01*
X1716157Y1329521D01*
X1716871Y1328807D01*
X1717805Y1328420D01*
X1718815D01*
X1719749Y1328807D01*
X1720463Y1329521D01*
X1720850Y1330455D01*
Y1331465D01*
X1720463Y1332399D01*
X1719749Y1333113D01*
X1718815Y1333500D01*
D02*
G37*
G36*
X1300634Y1327293D02*
X1294765D01*
Y1326388D01*
X1294003D01*
Y1327293D01*
X1288134D01*
X1286303Y1327052D01*
X1284598Y1326345D01*
X1283438Y1325455D01*
X1284050Y1324843D01*
X1283511Y1324304D01*
X1282899Y1324916D01*
X1282009Y1323756D01*
X1281302Y1322051D01*
X1281061Y1320220D01*
Y1304851D01*
X1281966D01*
Y1304089D01*
X1281061D01*
Y1288720D01*
X1281302Y1286890D01*
X1282009Y1285184D01*
X1282899Y1284024D01*
X1283511Y1284636D01*
X1284050Y1284097D01*
X1283438Y1283485D01*
X1284598Y1282595D01*
X1286303Y1281889D01*
X1288134Y1281648D01*
X1294003D01*
Y1282553D01*
X1294765D01*
Y1281648D01*
X1300634D01*
X1302464Y1281889D01*
X1304170Y1282595D01*
X1305330Y1283485D01*
X1304718Y1284097D01*
X1305257Y1284636D01*
X1305869Y1284024D01*
X1306759Y1285184D01*
X1307465Y1286890D01*
X1307706Y1288720D01*
Y1304089D01*
X1306801D01*
Y1304851D01*
X1307706D01*
Y1320220D01*
X1307465Y1322051D01*
X1306759Y1323756D01*
X1305869Y1324916D01*
X1305257Y1324304D01*
X1304718Y1324843D01*
X1305330Y1325455D01*
X1304170Y1326345D01*
X1302464Y1327052D01*
X1300634Y1327293D01*
D02*
G37*
G36*
X1699006Y1129202D02*
X1698371D01*
Y1128313D01*
X1697609D01*
Y1129202D01*
X1696974D01*
X1696082Y1129024D01*
X1695649Y1128735D01*
X1696258Y1128126D01*
X1695719Y1127587D01*
X1695110Y1128196D01*
X1694821Y1127763D01*
X1694643Y1126871D01*
Y1126236D01*
X1695532D01*
Y1125474D01*
X1694643D01*
Y1124839D01*
X1694821Y1123947D01*
X1695110Y1123514D01*
X1695719Y1124123D01*
X1696258Y1123584D01*
X1695649Y1122975D01*
X1696082Y1122686D01*
X1696974Y1122508D01*
X1697609D01*
Y1123397D01*
X1698371D01*
Y1122508D01*
X1699006D01*
X1699898Y1122686D01*
X1700331Y1122975D01*
X1699722Y1123584D01*
X1700261Y1124123D01*
X1700870Y1123514D01*
X1701159Y1123947D01*
X1701337Y1124839D01*
Y1125474D01*
X1700448D01*
Y1126236D01*
X1701337D01*
Y1126871D01*
X1701159Y1127763D01*
X1700870Y1128196D01*
X1700261Y1127587D01*
X1699722Y1128126D01*
X1700331Y1128735D01*
X1699898Y1129024D01*
X1699006Y1129202D01*
D02*
G37*
G36*
X1130300Y1277670D02*
X1129309Y1277473D01*
X1128469Y1276911D01*
X1127907Y1276071D01*
X1127710Y1275080D01*
X1127907Y1274089D01*
X1128469Y1273249D01*
X1129309Y1272687D01*
X1130300Y1272490D01*
X1131291Y1272687D01*
X1132131Y1273249D01*
X1132693Y1274089D01*
X1132890Y1275080D01*
X1132693Y1276071D01*
X1132131Y1276911D01*
X1131291Y1277473D01*
X1130300Y1277670D01*
D02*
G37*
G36*
X1895678Y1319644D02*
X1880309D01*
Y1318740D01*
X1879547D01*
Y1319644D01*
X1864178D01*
X1862348Y1319404D01*
X1860642Y1318697D01*
X1859482Y1317807D01*
X1860094Y1317195D01*
X1859555Y1316656D01*
X1858943Y1317268D01*
X1858053Y1316108D01*
X1857347Y1314402D01*
X1857106Y1312572D01*
Y1306703D01*
X1858011D01*
Y1305941D01*
X1857106D01*
Y1300072D01*
X1857347Y1298241D01*
X1858053Y1296536D01*
X1858943Y1295376D01*
X1859555Y1295988D01*
X1860094Y1295449D01*
X1859482Y1294837D01*
X1860642Y1293947D01*
X1862348Y1293241D01*
X1864178Y1293000D01*
X1879547D01*
Y1293904D01*
X1880309D01*
Y1293000D01*
X1895678D01*
X1897509Y1293241D01*
X1899214Y1293947D01*
X1900374Y1294837D01*
X1899762Y1295449D01*
X1900301Y1295988D01*
X1900913Y1295376D01*
X1901803Y1296536D01*
X1902510Y1298241D01*
X1902751Y1300072D01*
Y1305941D01*
X1901846D01*
Y1306703D01*
X1902751D01*
Y1312572D01*
X1902510Y1314402D01*
X1901803Y1316108D01*
X1900913Y1317268D01*
X1900301Y1316656D01*
X1899762Y1317195D01*
X1900374Y1317807D01*
X1899214Y1318697D01*
X1897509Y1319404D01*
X1895678Y1319644D01*
D02*
G37*
G36*
X1904235Y1245870D02*
X1903225D01*
X1902291Y1245483D01*
X1901577Y1244769D01*
X1901190Y1243835D01*
Y1242825D01*
X1901577Y1241891D01*
X1902291Y1241177D01*
X1903225Y1240790D01*
X1904235D01*
X1905169Y1241177D01*
X1905883Y1241891D01*
X1906270Y1242825D01*
Y1243835D01*
X1905883Y1244769D01*
X1905169Y1245483D01*
X1904235Y1245870D01*
D02*
G37*
G36*
Y1238250D02*
X1903225D01*
X1902291Y1237863D01*
X1901577Y1237149D01*
X1901190Y1236215D01*
Y1235205D01*
X1901577Y1234271D01*
X1902291Y1233557D01*
X1903225Y1233170D01*
X1904235D01*
X1905169Y1233557D01*
X1905883Y1234271D01*
X1906270Y1235205D01*
Y1236215D01*
X1905883Y1237149D01*
X1905169Y1237863D01*
X1904235Y1238250D01*
D02*
G37*
G36*
X1939795Y1226820D02*
X1938785D01*
X1937851Y1226433D01*
X1937137Y1225719D01*
X1936750Y1224785D01*
Y1223775D01*
X1937137Y1222841D01*
X1937851Y1222127D01*
X1938785Y1221740D01*
X1939795D01*
X1940729Y1222127D01*
X1941443Y1222841D01*
X1941830Y1223775D01*
Y1224785D01*
X1941443Y1225719D01*
X1940729Y1226433D01*
X1939795Y1226820D01*
D02*
G37*
G36*
X1932175D02*
X1931165D01*
X1930231Y1226433D01*
X1929517Y1225719D01*
X1929130Y1224785D01*
Y1223775D01*
X1929517Y1222841D01*
X1930231Y1222127D01*
X1931165Y1221740D01*
X1932175D01*
X1933109Y1222127D01*
X1933823Y1222841D01*
X1934210Y1223775D01*
Y1224785D01*
X1933823Y1225719D01*
X1933109Y1226433D01*
X1932175Y1226820D01*
D02*
G37*
G36*
X1924555D02*
X1923545D01*
X1922611Y1226433D01*
X1921897Y1225719D01*
X1921510Y1224785D01*
Y1223775D01*
X1921897Y1222841D01*
X1922611Y1222127D01*
X1923545Y1221740D01*
X1924555D01*
X1925489Y1222127D01*
X1926203Y1222841D01*
X1926590Y1223775D01*
Y1224785D01*
X1926203Y1225719D01*
X1925489Y1226433D01*
X1924555Y1226820D01*
D02*
G37*
G36*
X1916935D02*
X1915925D01*
X1914991Y1226433D01*
X1914277Y1225719D01*
X1913890Y1224785D01*
Y1223775D01*
X1914277Y1222841D01*
X1914991Y1222127D01*
X1915925Y1221740D01*
X1916935D01*
X1917869Y1222127D01*
X1918583Y1222841D01*
X1918970Y1223775D01*
Y1224785D01*
X1918583Y1225719D01*
X1917869Y1226433D01*
X1916935Y1226820D01*
D02*
G37*
G36*
X1904235Y1230630D02*
X1903225D01*
X1902291Y1230243D01*
X1901577Y1229529D01*
X1901190Y1228595D01*
Y1227585D01*
X1901577Y1226651D01*
X1902291Y1225937D01*
X1903225Y1225550D01*
X1904235D01*
X1904984Y1225860D01*
X1905169Y1225937D01*
X1905311Y1225980D01*
X1905413Y1225996D01*
X1906346Y1224969D01*
X1906270Y1224785D01*
Y1223775D01*
X1906657Y1222841D01*
X1907371Y1222127D01*
X1908305Y1221740D01*
X1909315D01*
X1910249Y1222127D01*
X1910963Y1222841D01*
X1911350Y1223775D01*
Y1224785D01*
X1910963Y1225719D01*
X1910249Y1226433D01*
X1909315Y1226820D01*
X1908305D01*
X1907556Y1226510D01*
X1907371Y1226433D01*
X1907229Y1226390D01*
X1907127Y1226374D01*
X1906194Y1227401D01*
X1906270Y1227585D01*
Y1228595D01*
X1905883Y1229529D01*
X1905169Y1230243D01*
X1904235Y1230630D01*
D02*
G37*
G36*
X1588005Y1165860D02*
X1586995D01*
X1586061Y1165473D01*
X1585347Y1164759D01*
X1584960Y1163825D01*
Y1162815D01*
X1585347Y1161881D01*
X1586061Y1161167D01*
X1586995Y1160780D01*
X1588005D01*
X1588939Y1161167D01*
X1589653Y1161881D01*
X1590040Y1162815D01*
Y1163825D01*
X1589653Y1164759D01*
X1588939Y1165473D01*
X1588005Y1165860D01*
D02*
G37*
G36*
X1567685D02*
X1566675D01*
X1565741Y1165473D01*
X1565027Y1164759D01*
X1564640Y1163825D01*
Y1162815D01*
X1565027Y1161881D01*
X1565741Y1161167D01*
X1566675Y1160780D01*
X1567685D01*
X1568619Y1161167D01*
X1569333Y1161881D01*
X1569720Y1162815D01*
Y1163825D01*
X1569333Y1164759D01*
X1568619Y1165473D01*
X1567685Y1165860D01*
D02*
G37*
G36*
X1588005Y1145540D02*
X1586995D01*
X1586061Y1145153D01*
X1585347Y1144439D01*
X1584960Y1143505D01*
Y1142495D01*
X1585347Y1141561D01*
X1586061Y1140847D01*
X1586995Y1140460D01*
X1588005D01*
X1588939Y1140847D01*
X1589653Y1141561D01*
X1590040Y1142495D01*
Y1143505D01*
X1589653Y1144439D01*
X1588939Y1145153D01*
X1588005Y1145540D01*
D02*
G37*
G36*
X1567685D02*
X1566675D01*
X1565741Y1145153D01*
X1565027Y1144439D01*
X1564640Y1143505D01*
Y1142495D01*
X1565027Y1141561D01*
X1565741Y1140847D01*
X1566675Y1140460D01*
X1567685D01*
X1568619Y1140847D01*
X1569333Y1141561D01*
X1569720Y1142495D01*
Y1143505D01*
X1569333Y1144439D01*
X1568619Y1145153D01*
X1567685Y1145540D01*
D02*
G37*
G36*
X1617567Y1109416D02*
X1616152D01*
X1614845Y1108875D01*
X1613845Y1107874D01*
X1613304Y1106567D01*
Y1105153D01*
X1613845Y1103846D01*
X1614845Y1102845D01*
X1616152Y1102304D01*
X1617567D01*
X1618874Y1102845D01*
X1619874Y1103846D01*
X1620416Y1105153D01*
Y1106567D01*
X1619874Y1107874D01*
X1618874Y1108875D01*
X1617567Y1109416D01*
D02*
G37*
G36*
X1602327D02*
X1600912D01*
X1599606Y1108875D01*
X1598605Y1107874D01*
X1598064Y1106567D01*
Y1105153D01*
X1598605Y1103846D01*
X1599606Y1102845D01*
X1600912Y1102304D01*
X1602327D01*
X1603634Y1102845D01*
X1604634Y1103846D01*
X1605176Y1105153D01*
Y1106567D01*
X1604634Y1107874D01*
X1603634Y1108875D01*
X1602327Y1109416D01*
D02*
G37*
G36*
X1587087D02*
X1585672D01*
X1584366Y1108875D01*
X1583365Y1107874D01*
X1582824Y1106567D01*
Y1105153D01*
X1583365Y1103846D01*
X1584366Y1102845D01*
X1585672Y1102304D01*
X1587087D01*
X1588394Y1102845D01*
X1589394Y1103846D01*
X1589936Y1105153D01*
Y1106567D01*
X1589394Y1107874D01*
X1588394Y1108875D01*
X1587087Y1109416D01*
D02*
G37*
G36*
X1571847D02*
X1570432D01*
X1569126Y1108875D01*
X1568125Y1107874D01*
X1567584Y1106567D01*
Y1105153D01*
X1568125Y1103846D01*
X1569126Y1102845D01*
X1570432Y1102304D01*
X1571847D01*
X1573154Y1102845D01*
X1574154Y1103846D01*
X1574696Y1105153D01*
Y1106567D01*
X1574154Y1107874D01*
X1573154Y1108875D01*
X1571847Y1109416D01*
D02*
G37*
G36*
X1625187Y1101796D02*
X1623772D01*
X1622466Y1101255D01*
X1621465Y1100254D01*
X1620924Y1098947D01*
Y1097533D01*
X1621465Y1096226D01*
X1622466Y1095225D01*
X1623772Y1094684D01*
X1625187D01*
X1626494Y1095225D01*
X1627494Y1096226D01*
X1628036Y1097533D01*
Y1098947D01*
X1627494Y1100254D01*
X1626494Y1101255D01*
X1625187Y1101796D01*
D02*
G37*
G36*
X1609947D02*
X1608533D01*
X1607225Y1101255D01*
X1606225Y1100254D01*
X1605684Y1098947D01*
Y1097533D01*
X1606225Y1096226D01*
X1607225Y1095225D01*
X1608533Y1094684D01*
X1609947D01*
X1611254Y1095225D01*
X1612254Y1096226D01*
X1612796Y1097533D01*
Y1098947D01*
X1612254Y1100254D01*
X1611254Y1101255D01*
X1609947Y1101796D01*
D02*
G37*
G36*
X1594707D02*
X1593293D01*
X1591985Y1101255D01*
X1590985Y1100254D01*
X1590444Y1098947D01*
Y1097533D01*
X1590985Y1096226D01*
X1591985Y1095225D01*
X1593293Y1094684D01*
X1594707D01*
X1596014Y1095225D01*
X1597014Y1096226D01*
X1597556Y1097533D01*
Y1098947D01*
X1597014Y1100254D01*
X1596014Y1101255D01*
X1594707Y1101796D01*
D02*
G37*
G36*
X1579467D02*
X1578053D01*
X1576745Y1101255D01*
X1575745Y1100254D01*
X1575204Y1098947D01*
Y1097533D01*
X1575745Y1096226D01*
X1576745Y1095225D01*
X1578053Y1094684D01*
X1579467D01*
X1580774Y1095225D01*
X1581774Y1096226D01*
X1582316Y1097533D01*
Y1098947D01*
X1581774Y1100254D01*
X1580774Y1101255D01*
X1579467Y1101796D01*
D02*
G37*
G36*
X1564227D02*
X1562812D01*
X1561505Y1101255D01*
X1560505Y1100254D01*
X1559964Y1098947D01*
Y1097533D01*
X1560505Y1096226D01*
X1561505Y1095225D01*
X1562812Y1094684D01*
X1564227D01*
X1565534Y1095225D01*
X1566534Y1096226D01*
X1567076Y1097533D01*
Y1098947D01*
X1566534Y1100254D01*
X1565534Y1101255D01*
X1564227Y1101796D01*
D02*
G37*
G36*
X1617567Y1094176D02*
X1616152D01*
X1614845Y1093634D01*
X1613845Y1092634D01*
X1613304Y1091327D01*
Y1089912D01*
X1613845Y1088605D01*
X1614845Y1087605D01*
X1616152Y1087064D01*
X1617567D01*
X1618874Y1087605D01*
X1619874Y1088605D01*
X1620416Y1089912D01*
Y1091327D01*
X1619874Y1092634D01*
X1618874Y1093634D01*
X1617567Y1094176D01*
D02*
G37*
G36*
X1602327D02*
X1600912D01*
X1599606Y1093634D01*
X1598605Y1092634D01*
X1598064Y1091327D01*
Y1089912D01*
X1598605Y1088605D01*
X1599606Y1087605D01*
X1600912Y1087064D01*
X1602327D01*
X1603634Y1087605D01*
X1604634Y1088605D01*
X1605176Y1089912D01*
Y1091327D01*
X1604634Y1092634D01*
X1603634Y1093634D01*
X1602327Y1094176D01*
D02*
G37*
G36*
X1587087D02*
X1585672D01*
X1584366Y1093634D01*
X1583365Y1092634D01*
X1582824Y1091327D01*
Y1089912D01*
X1583365Y1088605D01*
X1584366Y1087605D01*
X1585672Y1087064D01*
X1587087D01*
X1588394Y1087605D01*
X1589394Y1088605D01*
X1589936Y1089912D01*
Y1091327D01*
X1589394Y1092634D01*
X1588394Y1093634D01*
X1587087Y1094176D01*
D02*
G37*
G36*
X1571847D02*
X1570432D01*
X1569126Y1093634D01*
X1568125Y1092634D01*
X1567584Y1091327D01*
Y1089912D01*
X1568125Y1088605D01*
X1569126Y1087605D01*
X1570432Y1087064D01*
X1571847D01*
X1573154Y1087605D01*
X1574154Y1088605D01*
X1574696Y1089912D01*
Y1091327D01*
X1574154Y1092634D01*
X1573154Y1093634D01*
X1571847Y1094176D01*
D02*
G37*
G36*
X1625187Y1086556D02*
X1623772D01*
X1622466Y1086014D01*
X1621465Y1085014D01*
X1620924Y1083707D01*
Y1082292D01*
X1621465Y1080985D01*
X1622466Y1079985D01*
X1623772Y1079444D01*
X1625187D01*
X1626494Y1079985D01*
X1627494Y1080985D01*
X1628036Y1082292D01*
Y1083707D01*
X1627494Y1085014D01*
X1626494Y1086014D01*
X1625187Y1086556D01*
D02*
G37*
G36*
X1609947D02*
X1608533D01*
X1607225Y1086014D01*
X1606225Y1085014D01*
X1605684Y1083707D01*
Y1082292D01*
X1606225Y1080985D01*
X1607225Y1079985D01*
X1608533Y1079444D01*
X1609947D01*
X1611254Y1079985D01*
X1612254Y1080985D01*
X1612796Y1082292D01*
Y1083707D01*
X1612254Y1085014D01*
X1611254Y1086014D01*
X1609947Y1086556D01*
D02*
G37*
G36*
X1594707D02*
X1593293D01*
X1591985Y1086014D01*
X1590985Y1085014D01*
X1590444Y1083707D01*
Y1082292D01*
X1590985Y1080985D01*
X1591985Y1079985D01*
X1593293Y1079444D01*
X1594707D01*
X1596014Y1079985D01*
X1597014Y1080985D01*
X1597556Y1082292D01*
Y1083707D01*
X1597014Y1085014D01*
X1596014Y1086014D01*
X1594707Y1086556D01*
D02*
G37*
G36*
X1579467D02*
X1578053D01*
X1576745Y1086014D01*
X1575745Y1085014D01*
X1575204Y1083707D01*
Y1082292D01*
X1575745Y1080985D01*
X1576745Y1079985D01*
X1578053Y1079444D01*
X1579467D01*
X1580774Y1079985D01*
X1581774Y1080985D01*
X1582316Y1082292D01*
Y1083707D01*
X1581774Y1085014D01*
X1580774Y1086014D01*
X1579467Y1086556D01*
D02*
G37*
G36*
X1564227D02*
X1562812D01*
X1561505Y1086014D01*
X1560505Y1085014D01*
X1559964Y1083707D01*
Y1082292D01*
X1560505Y1080985D01*
X1561505Y1079985D01*
X1562812Y1079444D01*
X1564227D01*
X1565534Y1079985D01*
X1566534Y1080985D01*
X1567076Y1082292D01*
Y1083707D01*
X1566534Y1085014D01*
X1565534Y1086014D01*
X1564227Y1086556D01*
D02*
G37*
G36*
X1617567Y1078936D02*
X1616152D01*
X1614845Y1078394D01*
X1613845Y1077394D01*
X1613304Y1076087D01*
Y1074672D01*
X1613845Y1073365D01*
X1614845Y1072365D01*
X1616152Y1071824D01*
X1617567D01*
X1618874Y1072365D01*
X1619874Y1073365D01*
X1620416Y1074672D01*
Y1076087D01*
X1619874Y1077394D01*
X1618874Y1078394D01*
X1617567Y1078936D01*
D02*
G37*
G36*
X1602327D02*
X1600912D01*
X1599606Y1078394D01*
X1598605Y1077394D01*
X1598064Y1076087D01*
Y1074672D01*
X1598605Y1073365D01*
X1599606Y1072365D01*
X1600912Y1071824D01*
X1602327D01*
X1603634Y1072365D01*
X1604634Y1073365D01*
X1605176Y1074672D01*
Y1076087D01*
X1604634Y1077394D01*
X1603634Y1078394D01*
X1602327Y1078936D01*
D02*
G37*
G36*
X1587087D02*
X1585672D01*
X1584366Y1078394D01*
X1583365Y1077394D01*
X1582824Y1076087D01*
Y1074672D01*
X1583365Y1073365D01*
X1584366Y1072365D01*
X1585672Y1071824D01*
X1587087D01*
X1588394Y1072365D01*
X1589394Y1073365D01*
X1589936Y1074672D01*
Y1076087D01*
X1589394Y1077394D01*
X1588394Y1078394D01*
X1587087Y1078936D01*
D02*
G37*
G36*
X1571847D02*
X1570432D01*
X1569126Y1078394D01*
X1568125Y1077394D01*
X1567584Y1076087D01*
Y1074672D01*
X1568125Y1073365D01*
X1569126Y1072365D01*
X1570432Y1071824D01*
X1571847D01*
X1573154Y1072365D01*
X1574154Y1073365D01*
X1574696Y1074672D01*
Y1076087D01*
X1574154Y1077394D01*
X1573154Y1078394D01*
X1571847Y1078936D01*
D02*
G37*
G36*
X1625187Y1071316D02*
X1623772D01*
X1622466Y1070775D01*
X1621465Y1069774D01*
X1620924Y1068467D01*
Y1067053D01*
X1621465Y1065745D01*
X1622466Y1064745D01*
X1623772Y1064204D01*
X1625187D01*
X1626494Y1064745D01*
X1627494Y1065745D01*
X1628036Y1067053D01*
Y1068467D01*
X1627494Y1069774D01*
X1626494Y1070775D01*
X1625187Y1071316D01*
D02*
G37*
G36*
X1609947D02*
X1608533D01*
X1607225Y1070775D01*
X1606225Y1069774D01*
X1605684Y1068467D01*
Y1067053D01*
X1606225Y1065745D01*
X1607225Y1064745D01*
X1608533Y1064204D01*
X1609947D01*
X1611254Y1064745D01*
X1612254Y1065745D01*
X1612796Y1067053D01*
Y1068467D01*
X1612254Y1069774D01*
X1611254Y1070775D01*
X1609947Y1071316D01*
D02*
G37*
G36*
X1594707D02*
X1593293D01*
X1591985Y1070775D01*
X1590985Y1069774D01*
X1590444Y1068467D01*
Y1067053D01*
X1590985Y1065745D01*
X1591985Y1064745D01*
X1593293Y1064204D01*
X1594707D01*
X1596014Y1064745D01*
X1597014Y1065745D01*
X1597556Y1067053D01*
Y1068467D01*
X1597014Y1069774D01*
X1596014Y1070775D01*
X1594707Y1071316D01*
D02*
G37*
G36*
X1579467D02*
X1578053D01*
X1576745Y1070775D01*
X1575745Y1069774D01*
X1575204Y1068467D01*
Y1067053D01*
X1575745Y1065745D01*
X1576745Y1064745D01*
X1578053Y1064204D01*
X1579467D01*
X1580774Y1064745D01*
X1581774Y1065745D01*
X1582316Y1067053D01*
Y1068467D01*
X1581774Y1069774D01*
X1580774Y1070775D01*
X1579467Y1071316D01*
D02*
G37*
G36*
X1564227D02*
X1562812D01*
X1561505Y1070775D01*
X1560505Y1069774D01*
X1559964Y1068467D01*
Y1067053D01*
X1560505Y1065745D01*
X1561505Y1064745D01*
X1562812Y1064204D01*
X1564227D01*
X1565534Y1064745D01*
X1566534Y1065745D01*
X1567076Y1067053D01*
Y1068467D01*
X1566534Y1069774D01*
X1565534Y1070775D01*
X1564227Y1071316D01*
D02*
G37*
G36*
X1699006Y1098346D02*
X1696974D01*
X1695983Y1098149D01*
X1695143Y1097587D01*
X1694581Y1096747D01*
X1694384Y1095756D01*
Y1093724D01*
X1694581Y1092733D01*
X1695143Y1091893D01*
X1695983Y1091331D01*
X1696974Y1091134D01*
X1699006D01*
X1699997Y1091331D01*
X1700837Y1091893D01*
X1701399Y1092733D01*
X1701596Y1093724D01*
Y1095756D01*
X1701399Y1096747D01*
X1700837Y1097587D01*
X1699997Y1098149D01*
X1699006Y1098346D01*
D02*
G37*
%LPD*%
D12*
X866314Y1725007D02*
X877124D01*
X1425944Y453656D02*
X1425944D01*
X1430655Y448945D01*
X1442720D02*
X1455420D01*
X1430655D02*
X1442720D01*
X1427890Y461010D02*
X1429840Y459060D01*
X1442788D01*
X1423670Y471170D02*
X1426210Y468630D01*
X1427480Y461010D02*
X1427890D01*
X1414145Y480695D02*
X1423670Y471170D01*
X870695Y1759655D02*
X878630D01*
X866314Y1764037D02*
X870695Y1759655D01*
X866493Y1750586D02*
X878451D01*
X1384331Y487618D02*
Y492094D01*
X1379855Y496570D02*
X1384331Y492094D01*
Y487618D02*
X1384380Y487570D01*
X1396428D02*
X1398444Y489585D01*
X1404620D01*
X1395080Y487570D02*
X1396428D01*
X1370827Y496570D02*
X1370965D01*
X1351280Y499110D02*
X1368287D01*
X1370827Y496570D01*
X1404620Y480695D02*
X1414145D01*
X1347236Y503682D02*
X1351280Y499638D01*
Y499110D02*
Y499638D01*
X1327150Y503682D02*
X1347236D01*
X1443024Y458824D02*
X1455204D01*
X1443018Y458830D02*
X1443024Y458824D01*
X1455204D02*
X1455210Y458818D01*
X1442788Y459060D02*
X1443018Y458830D01*
D14*
X661651Y935849D02*
Y935849D01*
X663500Y934000D02*
X689362Y908138D01*
X661651Y935849D02*
X663500Y934000D01*
X689362Y908138D02*
X727072D01*
X637500Y960000D02*
X661651Y935849D01*
X732726Y940290D02*
X743767D01*
X732726Y926827D02*
Y940290D01*
X726376Y926827D02*
X732726D01*
X726376D02*
Y942313D01*
X720026D02*
X726376D01*
X720026Y922243D02*
Y942313D01*
X713676Y922243D02*
X720026D01*
X713676D02*
Y942313D01*
X707326D02*
X713676D01*
X707326Y922243D02*
Y942313D01*
X700976Y922243D02*
X707326D01*
X700976D02*
Y942313D01*
X694626D02*
X700976D01*
X694626Y922243D02*
Y942313D01*
X688276Y922243D02*
X694626D01*
X688276D02*
Y942313D01*
X681926D02*
X688276D01*
X681926Y940290D02*
Y942313D01*
X681291Y940290D02*
X681926D01*
X743767D02*
X842799D01*
X727072Y908138D02*
X732431D01*
Y913905D01*
X738781D01*
Y901523D02*
Y913905D01*
Y901523D02*
X745131D01*
Y916570D01*
X751481D01*
Y901523D02*
Y916570D01*
Y901523D02*
X757831D01*
Y916570D01*
X764181D01*
Y901523D02*
Y916570D01*
Y901523D02*
X770531D01*
Y916570D01*
X776881D01*
Y901523D02*
Y916570D01*
Y901523D02*
X783231D01*
Y916570D01*
X789581D01*
Y901523D02*
Y916570D01*
Y901523D02*
X795931D01*
Y916570D01*
X802281D01*
Y901523D02*
Y916570D01*
Y901523D02*
X808631D01*
Y916570D01*
X814981D01*
Y901523D02*
Y916570D01*
Y901523D02*
X821331D01*
Y916570D01*
X827681D01*
Y901523D02*
Y916570D01*
Y901523D02*
X834031D01*
Y916570D01*
X840381D01*
Y901523D02*
Y916570D01*
Y901523D02*
X846731D01*
Y908138D01*
X847366D01*
X850648D01*
X917510Y975000D01*
X932510Y1020000D02*
X942500D01*
X917510Y1005001D02*
X932510Y1020000D01*
X917510Y975000D02*
Y1005001D01*
X597500Y960000D02*
X637500D01*
X573500Y984001D02*
X597500Y960000D01*
X573500Y984001D02*
Y1008000D01*
X573500Y1008000D01*
Y1016001D01*
X577500Y1020000D01*
X577500D01*
X839318Y1016809D02*
X867510Y1045001D01*
X882500Y999991D02*
Y1000000D01*
X877510Y995001D02*
X882500Y999991D01*
X849655Y995001D02*
X877510D01*
X836163Y1003673D02*
X867510Y1035020D01*
X841533Y1029024D02*
X872500Y1059991D01*
X860292Y990000D02*
X892455D01*
X882510Y980000D02*
Y980000D01*
X862722D02*
X872500D01*
X837715Y967423D02*
X860292Y990000D01*
X835222Y952500D02*
X862722Y980000D01*
X831740Y977086D02*
X849655Y995001D01*
X842799Y940290D02*
X882510Y980000D01*
X887510Y1064990D02*
X892500Y1060000D01*
X881837Y1067716D02*
X884563Y1064990D01*
X887510D01*
X755444Y1003673D02*
X760493D01*
X753337Y1001566D02*
X755444Y1003673D01*
X721532Y1029024D02*
X724489D01*
X776559D02*
X841533D01*
X829633Y1003673D02*
X836163D01*
X832933Y1016809D02*
X839318D01*
X806013Y977086D02*
X831740D01*
X673297Y983937D02*
X680148Y977086D01*
X746256D01*
X669537Y991386D02*
X676371Y998220D01*
X675558Y1004824D02*
X697332D01*
X676371Y998220D02*
X717569D01*
X675224Y1004491D02*
X675558Y1004824D01*
X667749Y997015D02*
X675224Y1004491D01*
X663468Y1000063D02*
X711592Y1048187D01*
X653795Y1008000D02*
X690427Y1044632D01*
X675224Y1004491D02*
Y1004491D01*
X697332Y1004824D02*
X721532Y1029024D01*
X662311Y1002857D02*
X710435Y1050982D01*
X736159Y1016809D02*
X739407D01*
X740109Y988338D02*
X743296Y991526D01*
X729221Y988338D02*
X740109D01*
X717569Y998220D02*
X736159Y1016809D01*
X831365Y967423D02*
X837715D01*
X833019Y952500D02*
X835222D01*
X711592Y1048187D02*
X721892D01*
X713464Y1067669D02*
X720796Y1075000D01*
X710435Y1050982D02*
X721892D01*
X812878D02*
X832407D01*
X812878Y1048187D02*
X833564D01*
X849141Y1067716D02*
X881837D01*
X882500Y1060000D02*
X882840Y1060340D01*
Y1062762D01*
X880680Y1064922D02*
X882840Y1062762D01*
X833564Y1048187D02*
X850298Y1064922D01*
X880680D01*
X832407Y1050982D02*
X849141Y1067716D01*
X679117Y1090000D02*
X882500D01*
X720796Y1075000D02*
X867510D01*
X675568Y1086452D02*
X679117Y1090000D01*
X418635Y1077600D02*
X418635Y1077600D01*
X418635Y935360D02*
X428020D01*
X428020Y917567D02*
X428033Y917555D01*
X418648Y917567D02*
X428020D01*
X418635Y917580D02*
X418648Y917567D01*
X428020Y1006468D02*
X428033Y1006455D01*
X418635Y1006480D02*
X418648Y1006468D01*
X428020D01*
X418648Y1024273D02*
X428020D01*
X418635Y1024260D02*
X418648Y1024273D01*
X428020D02*
X428033Y1024286D01*
X418635Y1059820D02*
X418648Y1059807D01*
X418635Y1042040D02*
X418648Y1042027D01*
X418635Y970920D02*
X418648Y970908D01*
X428020D02*
X428033Y970895D01*
X418648Y970908D02*
X428020D01*
X428020Y1042027D02*
X428033Y1042015D01*
X418635Y1077600D02*
X428033D01*
X428033Y1077600D01*
X418648Y1059807D02*
X428020D01*
X418648Y1042027D02*
X428020D01*
Y1059807D02*
X428033Y1059795D01*
X418648Y988687D02*
X428020D01*
X428033Y988675D01*
X418635Y988700D02*
X418648Y988687D01*
X633500Y1012000D02*
X645500Y1024000D01*
Y1056383D02*
X654238Y1065121D01*
X645500Y1024000D02*
Y1056383D01*
X605500Y1008000D02*
X653795D01*
X601500Y1004000D02*
X605500Y1008000D01*
X617500Y1004000D02*
X617981D01*
X665211Y940290D02*
X681291D01*
X641500Y964000D02*
X665211Y940290D01*
X617500Y972000D02*
X617500D01*
X601500Y972000D02*
X605500Y976000D01*
X601500Y972000D02*
X601500D01*
X670077Y967423D02*
X685808D01*
X661000Y952500D02*
X683488D01*
X653500Y960000D02*
X661000Y952500D01*
X653500Y960000D02*
Y968000D01*
X617981Y1004000D02*
X619124Y1002857D01*
X617500Y972000D02*
X633838Y988338D01*
X609500Y1004000D02*
X613437Y1000063D01*
X601500Y980000D02*
Y1004000D01*
X605500Y976000D02*
Y988360D01*
X617500Y980000D02*
X628886Y991386D01*
X605500Y988360D02*
X614155Y997015D01*
X649500Y972000D02*
X653500Y968000D01*
X613437Y1000063D02*
X663468D01*
X619124Y1002857D02*
X662311D01*
X637437Y983937D02*
X673297D01*
X657500Y980000D02*
X670077Y967423D01*
X649500Y972000D02*
Y972000D01*
X614155Y997015D02*
X667749D01*
X633838Y988338D02*
X680163D01*
X628886Y991386D02*
X669537D01*
X633500Y980000D02*
X637437Y983937D01*
X824628Y1003673D02*
X829633D01*
X824628Y983690D02*
Y1003673D01*
X818278Y983690D02*
X824628D01*
X818278D02*
Y1003673D01*
X811928D02*
X818278D01*
X811928Y989402D02*
Y1003673D01*
X805578Y989402D02*
X811928D01*
X805578D02*
Y1003673D01*
X799228D02*
X805578D01*
X799228Y1003492D02*
Y1003673D01*
X792878Y1003492D02*
X799228D01*
X792878D02*
Y1003673D01*
X760493D02*
X792878D01*
X822592Y1016809D02*
X832933D01*
X822592D02*
Y1018741D01*
X816242D02*
X822592D01*
X816242Y1010277D02*
Y1018741D01*
X809892Y1010277D02*
X816242D01*
X809892D02*
Y1022420D01*
X803542D02*
X809892D01*
X803542Y1010277D02*
Y1022420D01*
X797192Y1010277D02*
X803542D01*
X797192D02*
Y1022420D01*
X790842D02*
X797192D01*
X790842Y1010277D02*
Y1022420D01*
X784492Y1010277D02*
X790842D01*
X784492D02*
Y1021215D01*
X778142D02*
X784492D01*
X778142Y1010277D02*
Y1021215D01*
X771792Y1010277D02*
X778142D01*
X771792D02*
Y1020831D01*
X765442D02*
X771792D01*
X765442Y1010277D02*
Y1020831D01*
X759092Y1010277D02*
X765442D01*
X759092D02*
Y1020831D01*
X752742D02*
X759092D01*
X752742Y1009699D02*
Y1020831D01*
X746392Y1009699D02*
X752742D01*
X746392D02*
Y1020831D01*
X740042D02*
X746392D01*
X740042Y1016809D02*
Y1020831D01*
X739407Y1016809D02*
X740042D01*
X748235Y996465D02*
X753337Y1001566D01*
X742452Y1002248D02*
X748235Y996465D01*
X737962Y997758D02*
X742452Y1002248D01*
X737962Y997758D02*
X743745Y991975D01*
X743296Y991526D02*
X743745Y991975D01*
X725248Y988338D02*
X729221D01*
X725248D02*
Y991751D01*
X718898D02*
X725248D01*
X718898Y983690D02*
Y991751D01*
X712549Y983690D02*
X718898D01*
X712549D02*
Y991616D01*
X706199D02*
X712549D01*
X706199Y983690D02*
Y991616D01*
X699848Y983690D02*
X706199D01*
X699848D02*
Y991616D01*
X693499D02*
X699848D01*
X693499Y983690D02*
Y991616D01*
X687149Y983690D02*
X693499D01*
X687149D02*
Y991616D01*
X680798D02*
X687149D01*
X680798Y988338D02*
Y991616D01*
X680163Y988338D02*
X680798D01*
X804041Y977086D02*
X806013D01*
X804041D02*
Y982980D01*
X797691D02*
X804041D01*
X797691Y976338D02*
Y982980D01*
X791341Y976338D02*
X797691D01*
X791341D02*
Y997069D01*
X784991D02*
X791341D01*
X784991Y975805D02*
Y997069D01*
X778641Y975805D02*
X784991D01*
X778641D02*
Y997069D01*
X772291D02*
X778641D01*
X772291Y975805D02*
Y997069D01*
X765941Y975805D02*
X772291D01*
X765941D02*
Y997069D01*
X759591D02*
X765941D01*
X759591Y977086D02*
Y997069D01*
X753241Y977086D02*
X759591D01*
X753241D02*
Y985781D01*
X746891D02*
X753241D01*
X746891Y977086D02*
Y985781D01*
X746256Y977086D02*
X746891D01*
X775924Y1029024D02*
X776559D01*
X775924Y1027435D02*
Y1029024D01*
X769574Y1027435D02*
X775924D01*
X769574D02*
Y1040201D01*
X763224D02*
X769574D01*
X763224Y1027435D02*
Y1040201D01*
X756874Y1027435D02*
X763224D01*
X756874D02*
Y1040051D01*
X750524D02*
X756874D01*
X750524Y1027435D02*
Y1040051D01*
X744174Y1027435D02*
X750524D01*
X744174D02*
Y1040051D01*
X737824D02*
X744174D01*
X737824Y1027435D02*
Y1040051D01*
X731474Y1027435D02*
X737824D01*
X731474D02*
Y1040991D01*
X725124D02*
X731474D01*
X725124Y1029024D02*
Y1040991D01*
X724489Y1029024D02*
X725124D01*
X830174Y952500D02*
X833019D01*
X830174D02*
Y954959D01*
X823824D02*
X830174D01*
X823824Y946894D02*
Y954959D01*
X817474Y946894D02*
X823824D01*
X817474D02*
Y954959D01*
X811124D02*
X817474D01*
X811124Y946894D02*
Y954959D01*
X804774Y946894D02*
X811124D01*
X804774D02*
Y954959D01*
X798424D02*
X804774D01*
X798424Y946894D02*
Y954959D01*
X792074Y946894D02*
X798424D01*
X792074D02*
Y954959D01*
X785724D02*
X792074D01*
X785724Y946894D02*
Y954959D01*
X779374Y946894D02*
X785724D01*
X779374D02*
Y954959D01*
X773024D02*
X779374D01*
X773024Y946894D02*
Y954959D01*
X766674Y946894D02*
X773024D01*
X766674D02*
Y954959D01*
X760324D02*
X766674D01*
X760324Y946894D02*
Y954959D01*
X753974Y946894D02*
X760324D01*
X753974D02*
Y954959D01*
X747624D02*
X753974D01*
X747624Y946894D02*
Y954959D01*
X741274Y946894D02*
X747624D01*
X741274D02*
Y954959D01*
X734924D02*
X741274D01*
X734924Y946894D02*
Y954959D01*
X728574Y946894D02*
X734924D01*
X728574D02*
Y954959D01*
X722224D02*
X728574D01*
X722224Y948541D02*
Y954959D01*
X715874Y948541D02*
X722224D01*
X715874D02*
Y954959D01*
X709524D02*
X715874D01*
X709524Y948917D02*
Y954959D01*
X703174Y948917D02*
X709524D01*
X703174D02*
Y954959D01*
X696824D02*
X703174D01*
X696824Y948917D02*
Y954959D01*
X690474Y948917D02*
X696824D01*
X690474D02*
Y954959D01*
X684124D02*
X690474D01*
X684124Y952500D02*
Y954959D01*
X683488Y952500D02*
X684124D01*
X704346Y1058551D02*
X713464Y1067669D01*
X690417Y1072480D02*
X704346Y1058551D01*
X685927Y1067990D02*
X690417Y1072480D01*
X685927Y1067990D02*
X702015Y1051901D01*
X697525Y1047411D02*
X702015Y1051901D01*
X677405Y1067531D02*
X697525Y1047411D01*
X672915Y1063041D02*
X677405Y1067531D01*
X672915Y1063041D02*
X690876Y1045081D01*
X690427Y1044632D02*
X690876Y1045081D01*
X726883Y1050568D02*
Y1065602D01*
X733233Y1048292D02*
X734870Y1046655D01*
X753158D02*
X761823D01*
X721892Y1048187D02*
X724503D01*
X726883Y1050568D01*
X790478Y1048187D02*
X812878D01*
X781747Y1048292D02*
Y1054070D01*
X751521Y1048292D02*
Y1065602D01*
X745171Y1048292D02*
Y1065602D01*
X781747Y1054070D02*
X788097D01*
X761823Y1046655D02*
X763459Y1048292D01*
Y1065602D01*
X771446Y1046655D02*
X780111D01*
X743535D02*
X745171Y1048292D01*
X788097Y1050568D02*
X790478Y1048187D01*
X734870Y1046655D02*
X743535D01*
X751521Y1048292D02*
X753158Y1046655D01*
X769809Y1048292D02*
Y1065602D01*
X726883D02*
X733233D01*
X780111Y1046655D02*
X781747Y1048292D01*
X769809D02*
X771446Y1046655D01*
X763459Y1065602D02*
X769809D01*
X788097Y1050568D02*
Y1054070D01*
X733233Y1048292D02*
Y1065602D01*
X745171D02*
X751521D01*
X760665Y1066759D02*
X762302Y1068396D01*
X760665Y1049449D02*
Y1066759D01*
X770967Y1068396D02*
X772603Y1066759D01*
X723345Y1050982D02*
X724089Y1051725D01*
X754315Y1049449D02*
Y1066759D01*
X772603Y1049449D02*
X778953D01*
X752679Y1068396D02*
X754315Y1066759D01*
X780590Y1056863D02*
X789255D01*
X790891Y1055227D01*
X754315Y1049449D02*
X760665D01*
X724089Y1066759D02*
X725726Y1068396D01*
X762302D02*
X770967D01*
X778953Y1055227D02*
X780590Y1056863D01*
X736027Y1049449D02*
X742377D01*
X721892Y1050982D02*
X723345D01*
X725726Y1068396D02*
X734391D01*
X742377Y1049449D02*
Y1066759D01*
X744014Y1068396D01*
X772603Y1049449D02*
Y1066759D01*
X744014Y1068396D02*
X752679D01*
X736027Y1049449D02*
Y1066759D01*
X790891Y1051725D02*
Y1055227D01*
X791635Y1050982D02*
X812878D01*
X790891Y1051725D02*
X791635Y1050982D01*
X778953Y1049449D02*
Y1055227D01*
X724089Y1051725D02*
Y1066759D01*
X734391Y1068396D02*
X736027Y1066759D01*
X672647Y1083531D02*
X675568Y1086452D01*
X672647Y1083531D02*
X675546Y1080632D01*
X671056Y1076142D02*
X675546Y1080632D01*
X650197Y1097001D02*
X671056Y1076142D01*
X645707Y1092511D02*
X650197Y1097001D01*
X645707Y1092511D02*
X666696Y1071521D01*
X662206Y1067031D02*
X666696Y1071521D01*
X641217Y1088021D02*
X662206Y1067031D01*
X636726Y1083531D02*
X641217Y1088021D01*
X636726Y1083531D02*
X654687Y1065570D01*
X654238Y1065121D02*
X654687Y1065570D01*
X813444Y967423D02*
X831365D01*
X813444Y962362D02*
Y967423D01*
X807094Y962362D02*
X813444D01*
X807094D02*
Y970482D01*
X800743D02*
X807094D01*
X800743Y961563D02*
Y970482D01*
X794393Y961563D02*
X800743D01*
X794393D02*
Y969201D01*
X788044D02*
X794393D01*
X788044Y961563D02*
Y969201D01*
X781693Y961563D02*
X788044D01*
X781693D02*
Y969201D01*
X775343D02*
X781693D01*
X775343Y961563D02*
Y969201D01*
X768994Y961563D02*
X775343D01*
X768994D02*
Y969201D01*
X762644D02*
X768994D01*
X762644Y961563D02*
Y969201D01*
X756293Y961563D02*
X762644D01*
X756293D02*
Y970482D01*
X749943D02*
X756293D01*
X749943Y961563D02*
Y970482D01*
X743594Y961563D02*
X749943D01*
X743594D02*
Y970482D01*
X737243D02*
X743594D01*
X737243Y961563D02*
Y970482D01*
X730893Y961563D02*
X737243D01*
X730893D02*
Y970482D01*
X724544D02*
X730893D01*
X724544Y961563D02*
Y970482D01*
X718194Y961563D02*
X724544D01*
X718194D02*
Y970482D01*
X711843D02*
X718194D01*
X711843Y961563D02*
Y970482D01*
X705493Y961563D02*
X711843D01*
X705493D02*
Y970482D01*
X699144D02*
X705493D01*
X699144Y961563D02*
Y970482D01*
X692794Y961563D02*
X699144D01*
X692794D02*
Y970482D01*
X686443D02*
X692794D01*
X686443Y967423D02*
Y970482D01*
X685808Y967423D02*
X686443D01*
D16*
X1715153Y1374695D02*
Y1386223D01*
X1718310Y1389380D01*
X1882394Y1714500D02*
Y1725295D01*
X1879092Y1867535D02*
X1889760D01*
D25*
X886014Y1725007D02*
X984773D01*
D42*
X374470Y1602740D02*
D03*
X458470D02*
D03*
X1879928Y1306322D02*
D03*
X1963928D02*
D03*
X812864Y865037D02*
D03*
X896864D02*
D03*
X873616Y1586275D02*
D03*
X957616D02*
D03*
X1256866Y1427480D02*
D03*
X1340866D02*
D03*
X458650Y1487170D02*
D03*
X374650D02*
D03*
X459054Y1718576D02*
D03*
X375054D02*
D03*
X608500Y1208410D02*
D03*
X524500D02*
D03*
X369740Y1179200D02*
D03*
X285740D02*
D03*
X1494282Y890524D02*
D03*
X1410282D02*
D03*
X1662809Y1226536D02*
D03*
X1578810D02*
D03*
X3391228Y-111454D02*
D03*
X3475228D02*
D03*
X3543628D02*
D03*
X3627628D02*
D03*
D45*
X1106554Y774743D02*
D03*
Y690743D02*
D03*
X1318182Y1030224D02*
D03*
Y1114224D02*
D03*
X1169074Y1458468D02*
D03*
Y1542468D02*
D03*
X1294384Y1220470D02*
D03*
Y1304470D02*
D03*
X1459230Y1553030D02*
D03*
Y1637030D02*
D03*
X1175859Y1327584D02*
D03*
Y1243584D02*
D03*
X1472767Y1772759D02*
D03*
Y1856759D02*
D03*
D49*
X1697990Y1125855D02*
D03*
Y1116965D02*
D03*
X915332Y1162563D02*
D03*
Y1171453D02*
D03*
X911522Y1000003D02*
D03*
Y991113D02*
D03*
X953432Y996193D02*
D03*
Y1005083D02*
D03*
X1002962Y1102873D02*
D03*
Y1111763D02*
D03*
X952162Y1161293D02*
D03*
Y1170183D02*
D03*
X893742Y1146053D02*
D03*
Y1154943D02*
D03*
X1001692Y1058423D02*
D03*
Y1049533D02*
D03*
X1001692Y998733D02*
D03*
Y989843D02*
D03*
X1002962Y1082553D02*
D03*
Y1091443D02*
D03*
X1080951Y973399D02*
D03*
Y982289D02*
D03*
X1090592Y1167643D02*
D03*
Y1158753D02*
D03*
X1107864Y979937D02*
D03*
Y988827D02*
D03*
X1089282Y1039413D02*
D03*
Y1030523D02*
D03*
X878630Y1750766D02*
D03*
Y1759655D02*
D03*
X1027685Y1332951D02*
D03*
Y1324061D02*
D03*
X1712214Y1787906D02*
D03*
Y1779016D02*
D03*
X1693164Y1902168D02*
D03*
Y1911058D02*
D03*
X1688084Y1883283D02*
D03*
Y1892173D02*
D03*
X1698455Y1883369D02*
D03*
Y1892259D02*
D03*
X1679702Y1736471D02*
D03*
Y1745361D02*
D03*
X1879092Y1858645D02*
D03*
Y1867535D02*
D03*
X1882394Y1734185D02*
D03*
Y1725295D02*
D03*
X1712214Y1797814D02*
D03*
Y1806705D02*
D03*
X1644907Y1721824D02*
D03*
Y1730714D02*
D03*
X1639617Y1702871D02*
D03*
Y1711761D02*
D03*
X1635001Y1721824D02*
D03*
Y1730714D02*
D03*
X1641538Y1886159D02*
D03*
Y1877269D02*
D03*
X1646405Y1865501D02*
D03*
Y1856611D02*
D03*
X1636498Y1865501D02*
D03*
Y1856611D02*
D03*
X1714500Y762635D02*
D03*
Y771525D02*
D03*
X1724660Y762635D02*
D03*
Y771525D02*
D03*
X1833880Y767715D02*
D03*
Y758825D02*
D03*
X1699260Y744855D02*
D03*
Y753745D02*
D03*
Y762635D02*
D03*
Y771525D02*
D03*
X1404620Y489585D02*
D03*
Y480695D02*
D03*
X1592580Y546735D02*
D03*
Y555625D02*
D03*
X1592580Y501015D02*
D03*
Y492125D02*
D03*
X1455420Y457835D02*
D03*
Y448945D02*
D03*
X1442720Y457835D02*
D03*
Y448945D02*
D03*
X1697990Y1103630D02*
D03*
Y1094740D02*
D03*
X1697990Y1067435D02*
D03*
Y1058545D02*
D03*
D50*
X1026584Y816234D02*
D03*
X1055540D02*
D03*
X1026838Y852048D02*
D03*
X1055794D02*
D03*
X984773Y1832152D02*
D03*
X955817D02*
D03*
X984773Y1887227D02*
D03*
X955817D02*
D03*
X984773Y1913643D02*
D03*
X955817D02*
D03*
X984773Y1860482D02*
D03*
X955817D02*
D03*
X778689Y1619364D02*
D03*
X807645D02*
D03*
X744632Y1522658D02*
D03*
X715676D02*
D03*
X1419562Y1161960D02*
D03*
X1390606D02*
D03*
X1419562Y1134460D02*
D03*
X1390606D02*
D03*
X1390606Y1189460D02*
D03*
X1419562D02*
D03*
X1801417Y1339193D02*
D03*
X1830373D02*
D03*
D51*
X642962Y1359563D02*
D03*
X634072D02*
D03*
X1012487Y1219078D02*
D03*
X1003597D02*
D03*
Y1178438D02*
D03*
X1012487D02*
D03*
X923587Y979048D02*
D03*
X932477D02*
D03*
X943907Y1069218D02*
D03*
X952797D02*
D03*
X945177Y1042548D02*
D03*
X936287D02*
D03*
X992167Y1099698D02*
D03*
X983277D02*
D03*
X1016297Y1137798D02*
D03*
X1007407D02*
D03*
X418635Y1077600D02*
D03*
X409745D02*
D03*
X418635Y935360D02*
D03*
X409745D02*
D03*
X409745Y917580D02*
D03*
X418635D02*
D03*
X418635Y1006480D02*
D03*
X409745D02*
D03*
X418635Y1024260D02*
D03*
X409745D02*
D03*
X409745Y1059820D02*
D03*
X418635D02*
D03*
Y1042040D02*
D03*
X409745D02*
D03*
X418635Y970920D02*
D03*
X409745D02*
D03*
X409745Y988700D02*
D03*
X418635D02*
D03*
X324655Y1064900D02*
D03*
X333545D02*
D03*
Y1052200D02*
D03*
X324655D02*
D03*
X333545Y1014100D02*
D03*
X324655D02*
D03*
X333545Y1026800D02*
D03*
X324655D02*
D03*
X333545Y1001400D02*
D03*
X324655D02*
D03*
Y1039500D02*
D03*
X333545D02*
D03*
Y1077600D02*
D03*
X324655D02*
D03*
Y988700D02*
D03*
X333545D02*
D03*
X1008677Y1029848D02*
D03*
X1017567D02*
D03*
Y970158D02*
D03*
X1026457D02*
D03*
X475785Y1122050D02*
D03*
X466895D02*
D03*
X1073447Y1108588D02*
D03*
X1082337D02*
D03*
X1059705Y1009990D02*
D03*
X1050815D02*
D03*
X1013757Y1099698D02*
D03*
X1022647D02*
D03*
X1062017Y1064138D02*
D03*
X1070907D02*
D03*
X569765Y964570D02*
D03*
X560875D02*
D03*
X333545Y950600D02*
D03*
X324655D02*
D03*
X333545Y937900D02*
D03*
X324655D02*
D03*
X333545Y925200D02*
D03*
X324655D02*
D03*
Y963300D02*
D03*
X333545D02*
D03*
Y976000D02*
D03*
X324655D02*
D03*
X886014Y1725007D02*
D03*
X877124D02*
D03*
X1474936Y1239159D02*
D03*
X1466046D02*
D03*
X1071120Y1431884D02*
D03*
X1062230D02*
D03*
X1070739Y1408516D02*
D03*
X1061849D02*
D03*
X939166Y1431489D02*
D03*
X930276D02*
D03*
X1680845Y1828292D02*
D03*
X1671955D02*
D03*
X1736217Y1796288D02*
D03*
X1727327D02*
D03*
X1727073Y1786379D02*
D03*
X1735963D02*
D03*
X1669164Y1575051D02*
D03*
X1678053D02*
D03*
X1650365Y1575052D02*
D03*
X1659255D02*
D03*
X1650111Y1565143D02*
D03*
X1659001D02*
D03*
X1668909Y1565143D02*
D03*
X1677800D02*
D03*
X1687962Y1569974D02*
D03*
X1696852D02*
D03*
X1634617Y1507998D02*
D03*
X1625727D02*
D03*
X1692402Y1828038D02*
D03*
X1701292D02*
D03*
X1678305Y1758188D02*
D03*
X1669415D02*
D03*
X1629791Y1621536D02*
D03*
X1620901D02*
D03*
X1690497Y1757934D02*
D03*
X1699387D02*
D03*
X1566462Y1774508D02*
D03*
X1575352D02*
D03*
X1586506Y1769763D02*
D03*
X1595396D02*
D03*
X1586566Y1779671D02*
D03*
X1595456D02*
D03*
X1566584Y1794560D02*
D03*
X1575474D02*
D03*
X1586566Y1789580D02*
D03*
X1595456D02*
D03*
X1586628Y1799488D02*
D03*
X1595518D02*
D03*
X1595580Y1809397D02*
D03*
X1586689D02*
D03*
X1586628Y1819305D02*
D03*
X1595518D02*
D03*
X1566646Y1814283D02*
D03*
X1575536D02*
D03*
X1379855Y496570D02*
D03*
X1370965D02*
D03*
X1415415Y514350D02*
D03*
X1406525D02*
D03*
X1661795Y1096010D02*
D03*
X1670685D02*
D03*
Y1108710D02*
D03*
X1661795D02*
D03*
D52*
X1047197Y1782652D02*
D03*
Y1753696D02*
D03*
X1462386Y1476450D02*
D03*
Y1447494D02*
D03*
X1560962Y1388383D02*
D03*
Y1417339D02*
D03*
X1327150Y503682D02*
D03*
Y532638D02*
D03*
X1715153Y1345739D02*
D03*
Y1374695D02*
D03*
D53*
X1861058Y1854200D02*
D03*
Y1837182D02*
D03*
X1898779Y1734185D02*
D03*
Y1751203D02*
D03*
D57*
X646136Y1373647D02*
D03*
X631151D02*
D03*
X935611Y1417406D02*
D03*
X920624D02*
D03*
X1064642Y1382354D02*
D03*
X1079629D02*
D03*
D59*
X972863Y952378D02*
D03*
X989881D02*
D03*
X531411Y1122050D02*
D03*
X548429D02*
D03*
X1699768Y1858010D02*
D03*
X1682750D02*
D03*
X1756283Y1819656D02*
D03*
X1739265D02*
D03*
X1647825Y1491612D02*
D03*
X1630807D02*
D03*
X1526794Y1624076D02*
D03*
X1543812D02*
D03*
X1704611Y386134D02*
D03*
X1722645D02*
D03*
X1742313Y386080D02*
D03*
X1760347D02*
D03*
D73*
X1818386Y1638052D02*
D03*
Y1609852D02*
D03*
X1823720Y1519812D02*
D03*
Y1491612D02*
D03*
D196*
X670876Y1216591D02*
D03*
X914323Y1488885D02*
D03*
X484950Y849635D02*
D03*
X1454641Y351542D02*
D03*
X1627251Y671986D02*
D03*
X1763163Y1643002D02*
D03*
D201*
X1697670Y173990D02*
D03*
X1657670D02*
D03*
D214*
X993040Y1220000D02*
X993962Y1219078D01*
X1003597D01*
X992490Y1220000D02*
X993040D01*
X1033616Y1208894D02*
X1042510Y1200000D01*
X1012487Y1219078D02*
X1022672Y1208894D01*
X1033616D01*
X1592584Y537214D02*
Y546731D01*
X1426210Y514350D02*
X1426210Y514350D01*
X1415415Y514350D02*
X1426210D01*
X1628393Y552703D02*
X1676877D01*
X1628500Y557783D02*
X1676877D01*
X1716567Y551347D02*
X1732960D01*
X1712996Y554918D02*
X1716567Y551347D01*
X1712996Y554918D02*
Y572912D01*
X1706900D02*
X1712996D01*
X1706900Y549493D02*
Y572912D01*
X1703925Y546518D02*
X1706900Y549493D01*
X1693620Y546518D02*
X1703925D01*
X1690644Y549493D02*
X1693620Y546518D01*
X1690644Y549493D02*
Y581105D01*
X1684548D02*
X1690644D01*
X1684548Y556274D02*
Y581105D01*
X1680977Y552703D02*
X1684548Y556274D01*
X1676877Y552703D02*
X1680977D01*
X1718672Y556427D02*
X1732960D01*
X1718076Y557022D02*
X1718672Y556427D01*
X1718076Y557022D02*
Y575017D01*
X1715101Y577993D02*
X1718076Y575017D01*
X1704796Y577993D02*
X1715101D01*
X1701820Y575017D02*
X1704796Y577993D01*
X1701820Y551598D02*
Y575017D01*
X1695724Y551598D02*
X1701820D01*
X1695724D02*
Y583209D01*
X1692749Y586185D02*
X1695724Y583209D01*
X1682444Y586185D02*
X1692749D01*
X1679468Y583209D02*
X1682444Y586185D01*
X1679468Y558379D02*
Y583209D01*
X1678873Y557783D02*
X1679468Y558379D01*
X1676877Y557783D02*
X1678873D01*
X577347Y972000D02*
X577500D01*
X569765Y964570D02*
X569918D01*
X577347Y972000D01*
X545635Y964000D02*
X545920Y964285D01*
X560590D02*
X560875Y964570D01*
X545920Y964285D02*
X560590D01*
X866314Y1750407D02*
X866493Y1750586D01*
X878451D02*
X878630Y1750766D01*
X1664208Y1839468D02*
X1670770Y1832906D01*
Y1829096D02*
X1671574Y1828292D01*
X1670770Y1829096D02*
Y1832906D01*
X1698222Y1882626D02*
X1698498Y1882902D01*
X1698222Y1873990D02*
Y1882626D01*
X1697990Y1873758D02*
X1698222Y1873990D01*
X1687830Y1876086D02*
Y1883664D01*
Y1876086D02*
X1689100Y1874816D01*
Y1874266D02*
Y1874816D01*
X1592580Y537210D02*
X1592584Y537214D01*
X1592580Y546735D02*
X1592584Y546731D01*
X1592580Y501015D02*
Y510540D01*
X1582737Y555308D02*
X1592262D01*
X1592580Y555625D01*
X1582420Y554990D02*
X1582737Y555308D01*
Y491808D02*
X1592263D01*
X1592580Y492125D01*
X1582420Y491490D02*
X1582737Y491808D01*
X1461622Y441325D02*
X1516813Y386134D01*
X1704611D01*
X1397542Y441325D02*
X1461622D01*
X1768880Y386080D02*
X1842540Y459740D01*
X1760347Y386080D02*
X1768880D01*
X1722672Y386107D02*
X1742286D01*
X1722645Y386134D02*
X1722672Y386107D01*
X1742286D02*
X1742313Y386080D01*
X1708822Y491363D02*
X1742818Y457367D01*
X1628267Y491363D02*
X1708822D01*
X1628267Y496443D02*
X1710926D01*
X1747898Y459471D01*
X1732960Y551347D02*
X1747759D01*
X1732960Y556427D02*
X1745655D01*
X1737360Y455930D02*
X1742223D01*
X1742818Y456525D01*
X1747898Y457367D02*
X1750605Y454660D01*
X1747898Y457367D02*
Y459471D01*
X1742818Y456525D02*
Y457367D01*
X1750605Y454660D02*
X1760220D01*
X1628140Y496570D02*
X1628267Y496443D01*
X1628140Y491236D02*
X1628267Y491363D01*
X1628140Y552450D02*
X1628393Y552703D01*
X1628246Y558037D02*
X1628500Y557783D01*
X1746123Y560070D02*
X1746250Y559943D01*
Y557022D02*
Y559943D01*
X1745655Y556427D02*
X1746250Y557022D01*
X1751330Y559943D02*
X1751457Y560070D01*
X1751330Y554918D02*
Y559943D01*
X1747759Y551347D02*
X1751330Y554918D01*
X1406525Y514350D02*
X1406525Y514350D01*
X1397000Y514350D02*
X1397000Y514350D01*
X1406525D01*
D217*
X1174400Y924704D02*
D03*
X824400Y1274704D02*
D03*
X45720Y1955800D02*
D03*
Y45720D02*
D03*
X1955800D02*
D03*
Y1955800D02*
D03*
D218*
X1927606Y1719326D02*
D03*
X1978406D02*
D03*
Y1770126D02*
D03*
X1927606D02*
D03*
X1953006Y1744726D02*
D03*
X1954530Y1573127D02*
D03*
X1929130Y1598527D02*
D03*
X1979930D02*
D03*
Y1547727D02*
D03*
X1929130D02*
D03*
X1954530Y1456287D02*
D03*
X1929130Y1481687D02*
D03*
X1979930D02*
D03*
Y1430887D02*
D03*
X1929130D02*
D03*
X1953006Y1861566D02*
D03*
X1927606Y1886966D02*
D03*
X1978406D02*
D03*
Y1836166D02*
D03*
X1927606D02*
D03*
D219*
X1933980Y591820D02*
D03*
Y464820D02*
D03*
D220*
X1908580Y563880D02*
D03*
D221*
Y543560D02*
D03*
Y523240D02*
D03*
Y502920D02*
D03*
X1890800Y553720D02*
D03*
Y533400D02*
D03*
Y513080D02*
D03*
Y492760D02*
D03*
X1842540Y596900D02*
D03*
Y482600D02*
D03*
Y459740D02*
D03*
Y574040D02*
D03*
D222*
X1884680Y301500D02*
D03*
Y181100D02*
D03*
X1797320Y982800D02*
D03*
Y1024800D02*
D03*
Y1066800D02*
D03*
X1852320Y982800D02*
D03*
Y1024800D02*
D03*
D223*
X1857680Y228800D02*
D03*
Y253800D02*
D03*
X1837680Y228800D02*
D03*
Y253800D02*
D03*
D224*
X1373680Y487570D02*
D03*
X1384380D02*
D03*
X1395080D02*
D03*
X1373680Y476870D02*
D03*
X1384380D02*
D03*
X1395080D02*
D03*
X1373680Y466170D02*
D03*
X1384380D02*
D03*
X1395080D02*
D03*
D225*
X1940560Y712800D02*
D03*
D226*
Y762800D02*
D03*
Y812800D02*
D03*
Y862800D02*
D03*
D227*
X1852320Y1066800D02*
D03*
D228*
X537210Y1052830D02*
D03*
X428033Y1068710D02*
D03*
Y1086490D02*
D03*
X715122Y1266464D02*
D03*
Y1286784D02*
D03*
X735442D02*
D03*
Y1266464D02*
D03*
X754492D02*
D03*
Y1286784D02*
D03*
X694802Y1266464D02*
D03*
Y1286784D02*
D03*
X774812Y1266464D02*
D03*
Y1286784D02*
D03*
X314960Y1414795D02*
D03*
Y1496075D02*
D03*
Y1475755D02*
D03*
Y1455435D02*
D03*
Y1435115D02*
D03*
Y1678955D02*
D03*
Y1658635D02*
D03*
Y1638315D02*
D03*
Y1577355D02*
D03*
Y1597675D02*
D03*
Y1617995D02*
D03*
Y1557035D02*
D03*
Y1536715D02*
D03*
Y1516395D02*
D03*
Y1821180D02*
D03*
Y1841500D02*
D03*
Y1861820D02*
D03*
Y1800860D02*
D03*
Y1780540D02*
D03*
Y1760220D02*
D03*
Y1699260D02*
D03*
Y1719580D02*
D03*
Y1739900D02*
D03*
Y1882140D02*
D03*
X274320Y1272525D02*
D03*
Y1252205D02*
D03*
Y1292860D02*
D03*
Y1333500D02*
D03*
Y1353820D02*
D03*
Y1313180D02*
D03*
X546100Y1477025D02*
D03*
Y1497345D02*
D03*
Y1639585D02*
D03*
Y1659905D02*
D03*
Y1680225D02*
D03*
Y1619265D02*
D03*
Y1598945D02*
D03*
Y1578625D02*
D03*
Y1517665D02*
D03*
Y1537985D02*
D03*
Y1558305D02*
D03*
Y1863090D02*
D03*
Y1842770D02*
D03*
Y1822450D02*
D03*
Y1761490D02*
D03*
Y1781810D02*
D03*
Y1802130D02*
D03*
Y1741170D02*
D03*
Y1720850D02*
D03*
Y1700530D02*
D03*
Y1883410D02*
D03*
X525780Y1497345D02*
D03*
Y1477025D02*
D03*
X505460D02*
D03*
Y1497345D02*
D03*
Y1639585D02*
D03*
Y1659905D02*
D03*
Y1680225D02*
D03*
X525780D02*
D03*
Y1659905D02*
D03*
Y1639585D02*
D03*
Y1578625D02*
D03*
Y1598945D02*
D03*
Y1619265D02*
D03*
X505460D02*
D03*
Y1598945D02*
D03*
Y1578625D02*
D03*
Y1517665D02*
D03*
Y1537985D02*
D03*
Y1558305D02*
D03*
X525780D02*
D03*
Y1537985D02*
D03*
Y1517665D02*
D03*
X505460Y1863090D02*
D03*
Y1842770D02*
D03*
Y1822450D02*
D03*
X525780D02*
D03*
Y1842770D02*
D03*
Y1863090D02*
D03*
Y1802130D02*
D03*
Y1781810D02*
D03*
Y1761490D02*
D03*
X505460D02*
D03*
Y1781810D02*
D03*
Y1802130D02*
D03*
Y1741170D02*
D03*
Y1720850D02*
D03*
Y1700530D02*
D03*
X525780D02*
D03*
Y1720850D02*
D03*
Y1741170D02*
D03*
Y1883410D02*
D03*
X505460D02*
D03*
X274320Y1882140D02*
D03*
X294640D02*
D03*
Y1739900D02*
D03*
Y1719580D02*
D03*
Y1699260D02*
D03*
X274320D02*
D03*
Y1719580D02*
D03*
Y1739900D02*
D03*
Y1800860D02*
D03*
Y1780540D02*
D03*
Y1760220D02*
D03*
X294640D02*
D03*
Y1780540D02*
D03*
Y1800860D02*
D03*
Y1861820D02*
D03*
Y1841500D02*
D03*
Y1821180D02*
D03*
X274320D02*
D03*
Y1841500D02*
D03*
Y1861820D02*
D03*
X294640Y1516395D02*
D03*
Y1536715D02*
D03*
Y1557035D02*
D03*
X274320D02*
D03*
Y1536715D02*
D03*
Y1516395D02*
D03*
Y1577355D02*
D03*
Y1597675D02*
D03*
Y1617995D02*
D03*
X294640D02*
D03*
Y1597675D02*
D03*
Y1577355D02*
D03*
Y1638315D02*
D03*
Y1658635D02*
D03*
Y1678955D02*
D03*
X274320D02*
D03*
Y1658635D02*
D03*
Y1638315D02*
D03*
X294640Y1435115D02*
D03*
X274320D02*
D03*
Y1496075D02*
D03*
Y1475755D02*
D03*
Y1455435D02*
D03*
X294640D02*
D03*
Y1475755D02*
D03*
Y1496075D02*
D03*
X274320Y1414795D02*
D03*
X294640D02*
D03*
X274320Y1374140D02*
D03*
Y1394460D02*
D03*
X1520190Y1430020D02*
D03*
X1540510D02*
D03*
Y1450340D02*
D03*
X1520190D02*
D03*
X1560830D02*
D03*
X1581150D02*
D03*
Y1430020D02*
D03*
X1560830D02*
D03*
X1718310Y1389380D02*
D03*
X1483360Y1553030D02*
D03*
X1493520D02*
D03*
Y1542870D02*
D03*
X1483360D02*
D03*
X1883410Y1921510D02*
D03*
Y1941830D02*
D03*
Y1960880D02*
D03*
Y1981200D02*
D03*
X1822450D02*
D03*
X1842770D02*
D03*
X1863090D02*
D03*
Y1960880D02*
D03*
X1842770D02*
D03*
X1822450D02*
D03*
Y1941830D02*
D03*
X1842770D02*
D03*
X1863090D02*
D03*
Y1921510D02*
D03*
X1842770D02*
D03*
X1822450D02*
D03*
X1438910D02*
D03*
X1459230D02*
D03*
X1479550D02*
D03*
Y1941830D02*
D03*
X1459230D02*
D03*
X1438910D02*
D03*
Y1960880D02*
D03*
X1459230D02*
D03*
X1479550D02*
D03*
Y1981200D02*
D03*
X1459230D02*
D03*
X1438910D02*
D03*
X1499870D02*
D03*
X1520190D02*
D03*
X1540510D02*
D03*
Y1960880D02*
D03*
X1520190D02*
D03*
X1499870D02*
D03*
Y1941830D02*
D03*
X1520190D02*
D03*
X1540510D02*
D03*
Y1921510D02*
D03*
X1520190D02*
D03*
X1499870D02*
D03*
X1560830D02*
D03*
X1581150D02*
D03*
X1601470D02*
D03*
Y1941830D02*
D03*
X1581150D02*
D03*
X1560830D02*
D03*
Y1960880D02*
D03*
X1581150D02*
D03*
X1601470D02*
D03*
Y1981200D02*
D03*
X1581150D02*
D03*
X1560830D02*
D03*
X1661160D02*
D03*
X1681480D02*
D03*
X1701800D02*
D03*
Y1960880D02*
D03*
X1681480D02*
D03*
X1661160D02*
D03*
Y1941830D02*
D03*
X1681480D02*
D03*
X1701800D02*
D03*
X1661160Y1921510D02*
D03*
X1620520D02*
D03*
X1640840D02*
D03*
Y1941830D02*
D03*
X1620520D02*
D03*
Y1960880D02*
D03*
X1640840D02*
D03*
Y1981200D02*
D03*
X1620520D02*
D03*
X1720850D02*
D03*
X1741170D02*
D03*
Y1960880D02*
D03*
X1720850D02*
D03*
Y1941830D02*
D03*
X1741170D02*
D03*
Y1921510D02*
D03*
X1720850D02*
D03*
X1761490D02*
D03*
X1781810D02*
D03*
X1802130D02*
D03*
Y1941830D02*
D03*
X1781810D02*
D03*
X1761490D02*
D03*
Y1960880D02*
D03*
X1781810D02*
D03*
X1802130D02*
D03*
Y1981200D02*
D03*
X1781810D02*
D03*
X1761490D02*
D03*
X1984369Y1374726D02*
D03*
X1964049D02*
D03*
X1943729D02*
D03*
X1950048Y1502926D02*
D03*
X1970368D02*
D03*
Y1523246D02*
D03*
X1950048D02*
D03*
X1929728D02*
D03*
Y1502926D02*
D03*
X1931670Y1635760D02*
D03*
Y1656080D02*
D03*
X1951990D02*
D03*
X1972310D02*
D03*
Y1635760D02*
D03*
X1951990D02*
D03*
X1729740Y1673860D02*
D03*
X1750060D02*
D03*
X1770380D02*
D03*
Y1694180D02*
D03*
X1750060D02*
D03*
X1729740D02*
D03*
X1790700D02*
D03*
X1811020D02*
D03*
X1831340D02*
D03*
Y1673860D02*
D03*
X1811020D02*
D03*
X1790700D02*
D03*
X1851660D02*
D03*
X1871980D02*
D03*
X1892300D02*
D03*
Y1694180D02*
D03*
X1871980D02*
D03*
X1851660D02*
D03*
X1951990D02*
D03*
X1972310D02*
D03*
Y1673860D02*
D03*
X1951990D02*
D03*
X1911350D02*
D03*
X1931670D02*
D03*
Y1694180D02*
D03*
X1911350D02*
D03*
X1346200Y1673860D02*
D03*
X1366520D02*
D03*
X1386840D02*
D03*
Y1694180D02*
D03*
X1366520D02*
D03*
X1346200D02*
D03*
X1407160D02*
D03*
X1427480D02*
D03*
X1447800D02*
D03*
Y1673860D02*
D03*
X1427480D02*
D03*
X1407160D02*
D03*
X1468120D02*
D03*
X1488440D02*
D03*
X1508760D02*
D03*
Y1694180D02*
D03*
X1488440D02*
D03*
X1468120D02*
D03*
X1568450D02*
D03*
X1588770D02*
D03*
X1609090D02*
D03*
Y1673860D02*
D03*
X1588770D02*
D03*
X1568450D02*
D03*
X1527810D02*
D03*
X1548130D02*
D03*
Y1694180D02*
D03*
X1527810D02*
D03*
X1628140D02*
D03*
X1648460D02*
D03*
Y1673860D02*
D03*
X1628140D02*
D03*
X1668780D02*
D03*
X1689100D02*
D03*
X1709420D02*
D03*
Y1694180D02*
D03*
X1689100D02*
D03*
X1668780D02*
D03*
X1691640Y1362710D02*
D03*
Y1343660D02*
D03*
X1737360Y1330960D02*
D03*
X1718310D02*
D03*
X1784350Y1340439D02*
D03*
X1765300D02*
D03*
X436880Y1228090D02*
D03*
Y1248410D02*
D03*
X416560D02*
D03*
Y1228090D02*
D03*
X477520D02*
D03*
Y1248410D02*
D03*
Y1268730D02*
D03*
X457200D02*
D03*
Y1248410D02*
D03*
Y1228090D02*
D03*
Y1289050D02*
D03*
X477520D02*
D03*
X1441450Y1346200D02*
D03*
X1461770D02*
D03*
X1480820D02*
D03*
X1421130D02*
D03*
X1400810D02*
D03*
X1381760D02*
D03*
X1361440D02*
D03*
X1625600Y1306830D02*
D03*
Y1327150D02*
D03*
Y1347470D02*
D03*
X1645920D02*
D03*
Y1327150D02*
D03*
Y1306830D02*
D03*
X1664970D02*
D03*
Y1327150D02*
D03*
Y1347470D02*
D03*
X1605280Y1306830D02*
D03*
Y1327150D02*
D03*
Y1347470D02*
D03*
X1584960D02*
D03*
Y1327150D02*
D03*
Y1306830D02*
D03*
X1565910D02*
D03*
Y1327150D02*
D03*
Y1347470D02*
D03*
X1545590D02*
D03*
Y1327150D02*
D03*
Y1306830D02*
D03*
X1699260Y1202690D02*
D03*
X1719580D02*
D03*
X1739900D02*
D03*
Y1182370D02*
D03*
X1719580D02*
D03*
X1699260D02*
D03*
Y1163320D02*
D03*
X1719580D02*
D03*
X1739900D02*
D03*
X1699260Y1223010D02*
D03*
X1719580D02*
D03*
X1739900D02*
D03*
Y1243330D02*
D03*
X1719580D02*
D03*
X1699260D02*
D03*
Y1262380D02*
D03*
X1719580D02*
D03*
X1739900D02*
D03*
Y1282700D02*
D03*
X1719580D02*
D03*
X1699260D02*
D03*
X1758950Y1202690D02*
D03*
Y1182370D02*
D03*
Y1163320D02*
D03*
Y1223010D02*
D03*
Y1243330D02*
D03*
Y1262380D02*
D03*
Y1282700D02*
D03*
X1587500Y1143000D02*
D03*
Y1163320D02*
D03*
X1567180D02*
D03*
Y1143000D02*
D03*
X1384300Y1036320D02*
D03*
Y1016000D02*
D03*
X1363980Y995680D02*
D03*
X1323340D02*
D03*
X1343660D02*
D03*
X1303020D02*
D03*
Y975360D02*
D03*
X1323340Y955040D02*
D03*
X1343660D02*
D03*
Y975360D02*
D03*
X1323340D02*
D03*
X1384300Y995680D02*
D03*
X1445260Y975360D02*
D03*
X1384300D02*
D03*
X1363980D02*
D03*
Y955040D02*
D03*
X1384300D02*
D03*
X1404620D02*
D03*
X1424940D02*
D03*
Y975360D02*
D03*
X1404620D02*
D03*
X1424940Y1036320D02*
D03*
X1404620D02*
D03*
X1424940Y1056640D02*
D03*
Y1016000D02*
D03*
X1404620D02*
D03*
Y995680D02*
D03*
X1424940D02*
D03*
X1445260D02*
D03*
X1465580D02*
D03*
X1485900Y1016000D02*
D03*
X1465580D02*
D03*
X1445260D02*
D03*
Y1056640D02*
D03*
X1465580D02*
D03*
X1485900D02*
D03*
Y1036320D02*
D03*
X1465580D02*
D03*
X1445260D02*
D03*
Y1076960D02*
D03*
X1465580D02*
D03*
X1485900D02*
D03*
Y1097280D02*
D03*
X1465580D02*
D03*
X1445260D02*
D03*
Y1116330D02*
D03*
X1465580D02*
D03*
X1485900D02*
D03*
Y1136650D02*
D03*
X1465580D02*
D03*
X1445260D02*
D03*
X1506220D02*
D03*
Y1116330D02*
D03*
Y1097280D02*
D03*
Y1076960D02*
D03*
Y1036320D02*
D03*
Y1056640D02*
D03*
X1278108Y1183614D02*
D03*
X1257788D02*
D03*
Y1164564D02*
D03*
X1278108D02*
D03*
X1093769Y896700D02*
D03*
X1073449D02*
D03*
Y877650D02*
D03*
X1093769D02*
D03*
X1094286Y861117D02*
D03*
X1073966D02*
D03*
Y842067D02*
D03*
X1094286D02*
D03*
X1297860Y826062D02*
D03*
X1318180D02*
D03*
X1338500D02*
D03*
Y846382D02*
D03*
X1318180D02*
D03*
X1297860D02*
D03*
Y865432D02*
D03*
X1318180D02*
D03*
X1338500D02*
D03*
Y885752D02*
D03*
X1318180D02*
D03*
X1297860D02*
D03*
X1358820D02*
D03*
Y865432D02*
D03*
Y846382D02*
D03*
Y826062D02*
D03*
X1671032Y995593D02*
D03*
Y1015913D02*
D03*
X1650712D02*
D03*
Y995593D02*
D03*
X1631662D02*
D03*
Y1015913D02*
D03*
X1611342D02*
D03*
Y995593D02*
D03*
X1538822Y870578D02*
D03*
X1559142D02*
D03*
Y890898D02*
D03*
X1538822D02*
D03*
Y909948D02*
D03*
X1559142D02*
D03*
Y930268D02*
D03*
X1538822D02*
D03*
X1485240Y746379D02*
D03*
X1505560D02*
D03*
X1525880D02*
D03*
X1485240Y766699D02*
D03*
X1505560D02*
D03*
X1525880D02*
D03*
Y787019D02*
D03*
X1505560D02*
D03*
X1485240D02*
D03*
Y806069D02*
D03*
X1505560D02*
D03*
X1525880D02*
D03*
Y826389D02*
D03*
X1505560D02*
D03*
X1485240D02*
D03*
X1546200D02*
D03*
X1566520D02*
D03*
Y806069D02*
D03*
X1546200D02*
D03*
Y787019D02*
D03*
X1566520D02*
D03*
Y766699D02*
D03*
X1546200D02*
D03*
X1566520Y746379D02*
D03*
X1546200D02*
D03*
X1744736Y964394D02*
D03*
X1763786Y984714D02*
D03*
Y964394D02*
D03*
X403860Y561340D02*
D03*
X424180D02*
D03*
X444500D02*
D03*
Y541020D02*
D03*
X424180D02*
D03*
X403860D02*
D03*
Y521970D02*
D03*
X424180D02*
D03*
X444500D02*
D03*
Y501650D02*
D03*
X424180D02*
D03*
X403860D02*
D03*
Y581660D02*
D03*
X424180D02*
D03*
X444500D02*
D03*
Y601980D02*
D03*
X424180D02*
D03*
X403860D02*
D03*
Y621030D02*
D03*
X424180D02*
D03*
X444500D02*
D03*
Y641350D02*
D03*
X424180D02*
D03*
X403860D02*
D03*
X464820D02*
D03*
X485140D02*
D03*
X505460D02*
D03*
Y621030D02*
D03*
X485140D02*
D03*
X464820D02*
D03*
Y601980D02*
D03*
X485140D02*
D03*
X505460D02*
D03*
Y581660D02*
D03*
X485140D02*
D03*
X464820D02*
D03*
Y501650D02*
D03*
X485140D02*
D03*
X505460D02*
D03*
Y521970D02*
D03*
X485140D02*
D03*
X464820D02*
D03*
Y541020D02*
D03*
X485140D02*
D03*
X505460D02*
D03*
Y561340D02*
D03*
X485140D02*
D03*
X464820D02*
D03*
X525780D02*
D03*
X546100D02*
D03*
X566420D02*
D03*
Y541020D02*
D03*
X546100D02*
D03*
X525780D02*
D03*
Y521970D02*
D03*
X546100D02*
D03*
X566420D02*
D03*
Y501650D02*
D03*
X546100D02*
D03*
X525780D02*
D03*
Y581660D02*
D03*
X546100D02*
D03*
X566420D02*
D03*
Y601980D02*
D03*
X546100D02*
D03*
X525780D02*
D03*
Y621030D02*
D03*
X546100D02*
D03*
X566420D02*
D03*
Y641350D02*
D03*
X546100D02*
D03*
X525780D02*
D03*
X626110D02*
D03*
X646430D02*
D03*
X666750D02*
D03*
Y621030D02*
D03*
X646430D02*
D03*
X626110D02*
D03*
Y601980D02*
D03*
X646430D02*
D03*
X666750D02*
D03*
Y581660D02*
D03*
X646430D02*
D03*
X626110D02*
D03*
Y501650D02*
D03*
X646430D02*
D03*
X666750D02*
D03*
Y521970D02*
D03*
X646430D02*
D03*
X626110D02*
D03*
Y541020D02*
D03*
X646430D02*
D03*
X666750D02*
D03*
Y561340D02*
D03*
X646430D02*
D03*
X626110D02*
D03*
X585470D02*
D03*
X605790D02*
D03*
Y541020D02*
D03*
X585470D02*
D03*
Y521970D02*
D03*
X605790D02*
D03*
Y501650D02*
D03*
X585470D02*
D03*
Y581660D02*
D03*
X605790D02*
D03*
Y601980D02*
D03*
X585470D02*
D03*
Y621030D02*
D03*
X605790D02*
D03*
Y641350D02*
D03*
X585470D02*
D03*
X845820Y1436370D02*
D03*
X866140D02*
D03*
Y1416050D02*
D03*
X845820D02*
D03*
Y1456690D02*
D03*
X866140D02*
D03*
Y1477010D02*
D03*
X845820D02*
D03*
Y1496060D02*
D03*
X866140D02*
D03*
X825500D02*
D03*
X805180D02*
D03*
X784860D02*
D03*
Y1477010D02*
D03*
X805180D02*
D03*
X825500D02*
D03*
Y1456690D02*
D03*
X805180D02*
D03*
X784860D02*
D03*
Y1416050D02*
D03*
X805180D02*
D03*
X825500D02*
D03*
Y1436370D02*
D03*
X805180D02*
D03*
X784860D02*
D03*
X1070610Y1295400D02*
D03*
Y1275080D02*
D03*
X1130300D02*
D03*
X1111250D02*
D03*
Y1295400D02*
D03*
X1090930D02*
D03*
Y1275080D02*
D03*
X990600Y1295400D02*
D03*
Y1275080D02*
D03*
X1050290Y1295400D02*
D03*
Y1275080D02*
D03*
X1031240D02*
D03*
Y1295400D02*
D03*
X1010920D02*
D03*
Y1275080D02*
D03*
X910590Y1295400D02*
D03*
Y1275080D02*
D03*
X970280Y1295400D02*
D03*
Y1275080D02*
D03*
X951230D02*
D03*
Y1295400D02*
D03*
X930910D02*
D03*
Y1275080D02*
D03*
X1094286Y806201D02*
D03*
X1073966D02*
D03*
Y825251D02*
D03*
X1094286D02*
D03*
X1209040Y984250D02*
D03*
X1229360Y963930D02*
D03*
X1209040D02*
D03*
X1229360Y943610D02*
D03*
X1209040D02*
D03*
X1229360Y984250D02*
D03*
Y1004570D02*
D03*
X1209040D02*
D03*
Y1125220D02*
D03*
X1229360D02*
D03*
Y1104900D02*
D03*
X1209040D02*
D03*
Y1085850D02*
D03*
X1229360D02*
D03*
Y1065530D02*
D03*
X1209040D02*
D03*
Y1024890D02*
D03*
X1229360D02*
D03*
Y1045210D02*
D03*
X1209040D02*
D03*
Y1245870D02*
D03*
X1229360D02*
D03*
Y1225550D02*
D03*
X1209040D02*
D03*
Y1206500D02*
D03*
X1229360D02*
D03*
Y1186180D02*
D03*
X1209040D02*
D03*
Y1145540D02*
D03*
X1229360D02*
D03*
Y1165860D02*
D03*
X1209040D02*
D03*
X1023620Y925830D02*
D03*
X1003300D02*
D03*
X943610Y885190D02*
D03*
Y905510D02*
D03*
X963930D02*
D03*
Y885190D02*
D03*
X982980D02*
D03*
Y905510D02*
D03*
X1003300D02*
D03*
Y885190D02*
D03*
Y824230D02*
D03*
Y844550D02*
D03*
Y864870D02*
D03*
X982980D02*
D03*
Y844550D02*
D03*
Y824230D02*
D03*
X963930D02*
D03*
Y844550D02*
D03*
Y864870D02*
D03*
X943610D02*
D03*
Y844550D02*
D03*
Y824230D02*
D03*
Y803910D02*
D03*
X963930D02*
D03*
X982980D02*
D03*
X1003300D02*
D03*
X436880Y1268730D02*
D03*
Y1289050D02*
D03*
X375920D02*
D03*
X396240D02*
D03*
X416560D02*
D03*
Y1268730D02*
D03*
X396240D02*
D03*
X375920D02*
D03*
Y1309370D02*
D03*
X396240D02*
D03*
X416560D02*
D03*
Y1329690D02*
D03*
X396240D02*
D03*
X375920D02*
D03*
X436880D02*
D03*
X457200D02*
D03*
X477520D02*
D03*
Y1309370D02*
D03*
X457200D02*
D03*
X436880D02*
D03*
X497840D02*
D03*
X518160D02*
D03*
X538480D02*
D03*
Y1329690D02*
D03*
X518160D02*
D03*
X497840D02*
D03*
X355600Y1374140D02*
D03*
X335280D02*
D03*
X314960D02*
D03*
Y1394460D02*
D03*
X335280D02*
D03*
X355600D02*
D03*
X294640D02*
D03*
Y1374140D02*
D03*
X497840Y1394460D02*
D03*
X518160D02*
D03*
X538480D02*
D03*
Y1374140D02*
D03*
X518160D02*
D03*
X497840D02*
D03*
X436880D02*
D03*
X457200D02*
D03*
X477520D02*
D03*
Y1394460D02*
D03*
X457200D02*
D03*
X436880D02*
D03*
X375920D02*
D03*
X396240D02*
D03*
X416560D02*
D03*
Y1374140D02*
D03*
X396240D02*
D03*
X375920D02*
D03*
X1063822Y1662430D02*
D03*
X1082872D02*
D03*
X1103192D02*
D03*
Y1682750D02*
D03*
X1082872D02*
D03*
X1063822D02*
D03*
X1010698Y1574800D02*
D03*
X1031018D02*
D03*
X1050068D02*
D03*
X1189990D02*
D03*
X1170940D02*
D03*
X1071880Y1595120D02*
D03*
X1090930D02*
D03*
X1111250D02*
D03*
X1150620D02*
D03*
X1131570D02*
D03*
Y1574800D02*
D03*
X1150620D02*
D03*
X1111250D02*
D03*
X1090930D02*
D03*
X1071880D02*
D03*
X1170940Y1692910D02*
D03*
Y1672590D02*
D03*
Y1653540D02*
D03*
Y1633220D02*
D03*
Y1595120D02*
D03*
Y1612900D02*
D03*
X1191260D02*
D03*
Y1595120D02*
D03*
Y1633220D02*
D03*
Y1653540D02*
D03*
Y1672590D02*
D03*
Y1692910D02*
D03*
X350690Y1001400D02*
D03*
X386250D02*
D03*
X368470D02*
D03*
X386250Y1026800D02*
D03*
X368470D02*
D03*
X350690D02*
D03*
X368470Y1052200D02*
D03*
X386250D02*
D03*
X350690D02*
D03*
X278300Y1052200D02*
D03*
X260520D02*
D03*
X313860D02*
D03*
X296080D02*
D03*
Y1001400D02*
D03*
X313860D02*
D03*
X296080Y1026800D02*
D03*
X313860D02*
D03*
X278300Y1001400D02*
D03*
X260520D02*
D03*
Y1026800D02*
D03*
X278300D02*
D03*
X1377950Y1981200D02*
D03*
X1398270D02*
D03*
X1418590D02*
D03*
Y1960880D02*
D03*
X1398270D02*
D03*
X1377950D02*
D03*
Y1941830D02*
D03*
X1398270D02*
D03*
X1418590D02*
D03*
Y1921510D02*
D03*
X1398270D02*
D03*
X1377950D02*
D03*
X1337310D02*
D03*
X1357630D02*
D03*
Y1941830D02*
D03*
X1337310D02*
D03*
Y1960880D02*
D03*
X1357630D02*
D03*
Y1981200D02*
D03*
X1337310D02*
D03*
X1236980D02*
D03*
X1257300D02*
D03*
Y1960880D02*
D03*
X1236980D02*
D03*
Y1941830D02*
D03*
X1257300D02*
D03*
Y1921510D02*
D03*
X1236980D02*
D03*
Y1841500D02*
D03*
X1257300D02*
D03*
Y1861820D02*
D03*
X1236980D02*
D03*
Y1880870D02*
D03*
X1257300D02*
D03*
Y1901190D02*
D03*
X1236980D02*
D03*
X1277620D02*
D03*
X1297940D02*
D03*
X1318260D02*
D03*
Y1880870D02*
D03*
X1297940D02*
D03*
X1277620D02*
D03*
Y1861820D02*
D03*
X1297940D02*
D03*
X1318260D02*
D03*
Y1841500D02*
D03*
X1297940D02*
D03*
X1277620D02*
D03*
Y1921510D02*
D03*
X1297940D02*
D03*
X1318260D02*
D03*
Y1941830D02*
D03*
X1297940D02*
D03*
X1277620D02*
D03*
Y1960880D02*
D03*
X1297940D02*
D03*
X1318260D02*
D03*
Y1981200D02*
D03*
X1297940D02*
D03*
X1277620D02*
D03*
X1177290D02*
D03*
X1197610D02*
D03*
X1217930D02*
D03*
Y1960880D02*
D03*
X1197610D02*
D03*
X1177290D02*
D03*
Y1941830D02*
D03*
X1197610D02*
D03*
X1217930D02*
D03*
Y1921510D02*
D03*
X1197610D02*
D03*
X1177290D02*
D03*
Y1841500D02*
D03*
X1197610D02*
D03*
X1217930D02*
D03*
Y1861820D02*
D03*
X1197610D02*
D03*
X1177290D02*
D03*
Y1880870D02*
D03*
X1197610D02*
D03*
X1217930D02*
D03*
Y1901190D02*
D03*
X1197610D02*
D03*
X1177290D02*
D03*
X1116330D02*
D03*
X1136650D02*
D03*
X1156970D02*
D03*
Y1880870D02*
D03*
X1136650D02*
D03*
X1116330D02*
D03*
Y1861820D02*
D03*
X1136650D02*
D03*
X1156970D02*
D03*
Y1841500D02*
D03*
X1136650D02*
D03*
X1116330D02*
D03*
Y1921510D02*
D03*
X1136650D02*
D03*
X1156970D02*
D03*
Y1941830D02*
D03*
X1136650D02*
D03*
X1116330D02*
D03*
Y1960880D02*
D03*
X1136650D02*
D03*
X1156970D02*
D03*
Y1981200D02*
D03*
X1136650D02*
D03*
X1116330D02*
D03*
X1055370D02*
D03*
X1075690D02*
D03*
X1096010D02*
D03*
Y1960880D02*
D03*
X1075690D02*
D03*
X1055370D02*
D03*
Y1941830D02*
D03*
X1075690D02*
D03*
X1096010D02*
D03*
Y1921510D02*
D03*
X1075690D02*
D03*
X1055370D02*
D03*
Y1841500D02*
D03*
X1075690D02*
D03*
X1096010D02*
D03*
Y1861820D02*
D03*
X1075690D02*
D03*
X1055370D02*
D03*
Y1880870D02*
D03*
X1075690D02*
D03*
X1096010D02*
D03*
Y1901190D02*
D03*
X1075690D02*
D03*
X1055370D02*
D03*
X760730Y1663700D02*
D03*
X720090Y1823720D02*
D03*
X740410Y1803400D02*
D03*
Y1823720D02*
D03*
X781050Y1743710D02*
D03*
X801370D02*
D03*
Y1723390D02*
D03*
X781050D02*
D03*
Y1704340D02*
D03*
X801370D02*
D03*
Y1684020D02*
D03*
X781050D02*
D03*
Y1764030D02*
D03*
X801370D02*
D03*
Y1784350D02*
D03*
X781050D02*
D03*
Y1803400D02*
D03*
X801370D02*
D03*
Y1823720D02*
D03*
X781050D02*
D03*
X760730D02*
D03*
Y1803400D02*
D03*
Y1784350D02*
D03*
Y1764030D02*
D03*
Y1684020D02*
D03*
Y1704340D02*
D03*
Y1723390D02*
D03*
Y1743710D02*
D03*
X720090Y1903730D02*
D03*
X740410D02*
D03*
X760730D02*
D03*
Y1883410D02*
D03*
X740410D02*
D03*
X720090D02*
D03*
Y1864360D02*
D03*
X740410D02*
D03*
X760730D02*
D03*
Y1844040D02*
D03*
X740410D02*
D03*
X720090D02*
D03*
Y1924050D02*
D03*
X740410D02*
D03*
X760730D02*
D03*
Y1944370D02*
D03*
X740410D02*
D03*
X720090D02*
D03*
Y1963420D02*
D03*
X740410D02*
D03*
X760730D02*
D03*
Y1983740D02*
D03*
X740410D02*
D03*
X720090D02*
D03*
X781050D02*
D03*
X801370D02*
D03*
X821690D02*
D03*
Y1963420D02*
D03*
X801370D02*
D03*
X781050D02*
D03*
Y1944370D02*
D03*
X801370D02*
D03*
X821690D02*
D03*
Y1924050D02*
D03*
X801370D02*
D03*
X781050D02*
D03*
Y1844040D02*
D03*
X801370D02*
D03*
X821690D02*
D03*
Y1864360D02*
D03*
X801370D02*
D03*
X781050D02*
D03*
Y1883410D02*
D03*
X801370D02*
D03*
X821690D02*
D03*
Y1903730D02*
D03*
X801370D02*
D03*
X781050D02*
D03*
X1945640Y1228090D02*
D03*
X763022Y1592177D02*
D03*
X795773D02*
D03*
X923290Y1963420D02*
D03*
Y1983740D02*
D03*
X902970D02*
D03*
Y1963420D02*
D03*
X842010Y1903730D02*
D03*
X862330D02*
D03*
X882650D02*
D03*
Y1883410D02*
D03*
X862330D02*
D03*
X842010D02*
D03*
Y1864360D02*
D03*
X862330D02*
D03*
X882650D02*
D03*
Y1844040D02*
D03*
X862330D02*
D03*
X842010D02*
D03*
Y1924050D02*
D03*
X862330D02*
D03*
X882650D02*
D03*
Y1944370D02*
D03*
X862330D02*
D03*
X842010D02*
D03*
Y1963420D02*
D03*
X862330D02*
D03*
X882650D02*
D03*
Y1983740D02*
D03*
X862330D02*
D03*
X842010D02*
D03*
X866314Y1725007D02*
D03*
X984773D02*
D03*
X1882394Y1714500D02*
D03*
X1392841Y1511378D02*
D03*
X1403000D02*
D03*
Y1521537D02*
D03*
X1392841D02*
D03*
X1413161D02*
D03*
X1423320D02*
D03*
Y1511378D02*
D03*
X1413161D02*
D03*
X1453801D02*
D03*
X1463961D02*
D03*
Y1521537D02*
D03*
X1453801D02*
D03*
X1433481D02*
D03*
X1443640D02*
D03*
Y1511378D02*
D03*
X1433481D02*
D03*
X1386661Y1769711D02*
D03*
Y1759551D02*
D03*
X1376501D02*
D03*
X1386661Y1749391D02*
D03*
X1376501D02*
D03*
X1447621Y1729071D02*
D03*
X1457781D02*
D03*
Y1739231D02*
D03*
X1447621D02*
D03*
X1467941D02*
D03*
X1478101D02*
D03*
Y1729071D02*
D03*
X1467941D02*
D03*
X1488261Y1739231D02*
D03*
Y1729071D02*
D03*
X1406981D02*
D03*
X1417141D02*
D03*
Y1739231D02*
D03*
X1406981D02*
D03*
X1427301D02*
D03*
X1437461D02*
D03*
Y1729071D02*
D03*
X1427301D02*
D03*
X1386661D02*
D03*
X1396821D02*
D03*
Y1739231D02*
D03*
X1386661D02*
D03*
X1366341D02*
D03*
X1376501D02*
D03*
Y1729071D02*
D03*
X1366341D02*
D03*
X1379495Y1427558D02*
D03*
X1371215D02*
D03*
X1389040Y1438227D02*
D03*
Y1427558D02*
D03*
Y1416889D02*
D03*
X1371215Y1438227D02*
D03*
Y1416889D02*
D03*
X1379495D02*
D03*
Y1438149D02*
D03*
X1741738Y1405306D02*
D03*
Y1416813D02*
D03*
X1753168Y1405306D02*
D03*
Y1416813D02*
D03*
Y1392056D02*
D03*
X1741738D02*
D03*
X1730308D02*
D03*
X1732280Y1416813D02*
D03*
Y1405306D02*
D03*
X1788022Y1617754D02*
D03*
X1889760Y1867535D02*
D03*
X1803398Y1505712D02*
D03*
X1866900Y1465580D02*
D03*
X1858010D02*
D03*
X1831340D02*
D03*
X1849120D02*
D03*
X1840230Y1426210D02*
D03*
X1831340Y1452880D02*
D03*
X1840230Y1438910D02*
D03*
X1874520Y1450340D02*
D03*
X1883410D02*
D03*
X1866900D02*
D03*
X1849120D02*
D03*
X1858010D02*
D03*
X1931670Y1224280D02*
D03*
X1916430D02*
D03*
X1903730Y1243330D02*
D03*
Y1235710D02*
D03*
Y1228090D02*
D03*
X1939290Y1224280D02*
D03*
X1924050D02*
D03*
X1908810D02*
D03*
X1629156Y1400463D02*
D03*
X1653861Y1422400D02*
D03*
X1477621Y550829D02*
D03*
X1386098Y542934D02*
D03*
X1400175Y541682D02*
D03*
X1484490Y551054D02*
D03*
X1393962Y536808D02*
D03*
X1425944Y453656D02*
D03*
X1426210Y514350D02*
D03*
X1427480Y461010D02*
D03*
X1426210Y468630D02*
D03*
X1380470Y545836D02*
D03*
X1274674Y496836D02*
D03*
X1265071Y426196D02*
D03*
X1265008Y420148D02*
D03*
X1231358Y459702D02*
D03*
X1248278Y482905D02*
D03*
X1226109Y456533D02*
D03*
X1254952Y463980D02*
D03*
X1257533Y500788D02*
D03*
X1311980Y559770D02*
D03*
X1333171Y571977D02*
D03*
X1336461Y576175D02*
D03*
X1409379Y431165D02*
D03*
X1339179Y421671D02*
D03*
X1341095Y416067D02*
D03*
X1320437Y416131D02*
D03*
X1327139D02*
D03*
X1257945Y471994D02*
D03*
X1258221Y458917D02*
D03*
X1252837Y497455D02*
D03*
X1269822Y494620D02*
D03*
X1288173Y420148D02*
D03*
X1288208Y414187D02*
D03*
X1278691Y472636D02*
D03*
X1291065Y506373D02*
D03*
X1282348Y492477D02*
D03*
X1287135Y496217D02*
D03*
X1274304Y469603D02*
D03*
X1416629Y431132D02*
D03*
X1249778Y488623D02*
D03*
X1262380Y474980D02*
D03*
X1052500Y1030005D02*
D03*
X1032500D02*
D03*
X1002511Y1039990D02*
D03*
X972515Y1020011D02*
D03*
X1295890Y509075D02*
D03*
X655342Y1369726D02*
D03*
X662242Y1372686D02*
D03*
X655342Y1376562D02*
D03*
Y1351651D02*
D03*
X662242Y1366590D02*
D03*
Y1357954D02*
D03*
X655342Y1357912D02*
D03*
X662242Y1351858D02*
D03*
X1343003Y568522D02*
D03*
X1347236Y571737D02*
D03*
X1325086Y555594D02*
D03*
X1328980Y558800D02*
D03*
X1307512Y556349D02*
D03*
X569579Y1031862D02*
D03*
X548060Y1032570D02*
D03*
X560240Y1037100D02*
D03*
X532935Y1031724D02*
D03*
X624715Y953512D02*
D03*
X631750D02*
D03*
X637500Y953650D02*
D03*
X554816Y952880D02*
D03*
X568749Y954159D02*
D03*
X542460Y953100D02*
D03*
X606314Y954568D02*
D03*
X613297Y954459D02*
D03*
X1032510Y1090000D02*
D03*
X1042510Y1070000D02*
D03*
X1032510D02*
D03*
Y1080000D02*
D03*
X1012510D02*
D03*
X1022510D02*
D03*
X1032510Y1060000D02*
D03*
X1012510D02*
D03*
Y1050000D02*
D03*
X1022510Y1070000D02*
D03*
X1032510Y1050000D02*
D03*
X1022510Y1060028D02*
D03*
X1012510Y1070000D02*
D03*
X1052510Y1200000D02*
D03*
X952490Y1200000D02*
D03*
X972490D02*
D03*
X932490D02*
D03*
X922490D02*
D03*
X1022500Y1200010D02*
D03*
X1042510Y1200000D02*
D03*
X1012500Y1200010D02*
D03*
X1032500Y1200010D02*
D03*
X962490Y1200000D02*
D03*
X912490D02*
D03*
X1052510Y1190000D02*
D03*
X912510D02*
D03*
X972490D02*
D03*
X952490D02*
D03*
X992490D02*
D03*
X1062510D02*
D03*
X1012500Y1190010D02*
D03*
X932490Y1190000D02*
D03*
X1022500Y1190010D02*
D03*
X982490Y1070000D02*
D03*
X972490Y1080000D02*
D03*
Y1070000D02*
D03*
Y1090000D02*
D03*
X972488Y1060028D02*
D03*
X982490Y1050001D02*
D03*
X972488Y1050001D02*
D03*
X972500Y1039990D02*
D03*
X982490Y1090000D02*
D03*
Y1080000D02*
D03*
X962516Y1090007D02*
D03*
X982490Y1060028D02*
D03*
X982500Y1039990D02*
D03*
X1012510Y1090000D02*
D03*
X1022510D02*
D03*
X1052510Y1060000D02*
D03*
X1062510Y1090000D02*
D03*
X992490Y1070000D02*
D03*
X992500Y1020000D02*
D03*
X992490Y1060000D02*
D03*
Y1120000D02*
D03*
Y1110000D02*
D03*
X992500Y1039989D02*
D03*
X992500Y1010000D02*
D03*
X992490Y1090000D02*
D03*
Y1080000D02*
D03*
Y1050001D02*
D03*
X1052510Y1150000D02*
D03*
X1042710Y1150000D02*
D03*
X1042510Y1180000D02*
D03*
X1042500Y1140010D02*
D03*
X1042710Y1160000D02*
D03*
X1042510Y1170000D02*
D03*
Y1120000D02*
D03*
X1072510Y1180000D02*
D03*
Y1120000D02*
D03*
X1052510Y1180000D02*
D03*
Y1170000D02*
D03*
X1062510Y1150000D02*
D03*
Y1180000D02*
D03*
X972490Y1110000D02*
D03*
X982490Y1120000D02*
D03*
Y1110000D02*
D03*
X972490Y1120000D02*
D03*
X1012510Y1110000D02*
D03*
X1032510Y1120000D02*
D03*
X1012510D02*
D03*
X1032510Y1110000D02*
D03*
X1022510Y1120000D02*
D03*
Y1110000D02*
D03*
X1072510Y1220000D02*
D03*
X1062510D02*
D03*
Y1210000D02*
D03*
X982490D02*
D03*
X1072510D02*
D03*
X992490Y1220000D02*
D03*
X1042510D02*
D03*
X982490D02*
D03*
X1042510Y1210000D02*
D03*
X1012500Y1210010D02*
D03*
X1052500Y990000D02*
D03*
X1012510Y1000000D02*
D03*
X1032510Y1000001D02*
D03*
X1052510Y1000000D02*
D03*
X1062500D02*
D03*
X1012510Y980000D02*
D03*
X1042510Y990000D02*
D03*
X1032510D02*
D03*
X1072500D02*
D03*
X1052510Y980000D02*
D03*
X1072510D02*
D03*
X1062510Y990001D02*
D03*
X1072500Y1000000D02*
D03*
X1032510Y980000D02*
D03*
X1022500Y1220010D02*
D03*
X962490Y1229994D02*
D03*
X922490Y1220000D02*
D03*
X912490D02*
D03*
X932490D02*
D03*
X962490D02*
D03*
X952490D02*
D03*
X942490D02*
D03*
X972490D02*
D03*
X1032500Y1220010D02*
D03*
X1032510Y1020000D02*
D03*
X1012510Y1040000D02*
D03*
X1022500Y1010000D02*
D03*
X1032510Y1010000D02*
D03*
X1022510Y1040000D02*
D03*
X1012510Y1010000D02*
D03*
X1042510Y1040000D02*
D03*
X1062500Y1020000D02*
D03*
X1022500D02*
D03*
X1042500D02*
D03*
X1072510Y1040000D02*
D03*
X1042510Y1030000D02*
D03*
X1062510D02*
D03*
X1072510Y1010000D02*
D03*
X932490Y1210000D02*
D03*
X972490Y1210000D02*
D03*
X922603Y1210000D02*
D03*
X962490Y1210000D02*
D03*
X952490D02*
D03*
X912490Y1210000D02*
D03*
X982500Y1029990D02*
D03*
X972500Y1010000D02*
D03*
X972500Y1029990D02*
D03*
X982500Y1020000D02*
D03*
Y1009990D02*
D03*
X609500Y972000D02*
D03*
X617500Y972000D02*
D03*
X577500Y972000D02*
D03*
X601500D02*
D03*
X625500D02*
D03*
X593500D02*
D03*
X633500D02*
D03*
X601500Y964000D02*
D03*
X585500D02*
D03*
X593500Y980000D02*
D03*
X585500D02*
D03*
X617500Y980000D02*
D03*
X633500Y980000D02*
D03*
X609500D02*
D03*
X601500D02*
D03*
X577500Y1004000D02*
D03*
X593500Y1004000D02*
D03*
X617500Y1004000D02*
D03*
X633500Y1012000D02*
D03*
X609500Y1004000D02*
D03*
X260520Y1103000D02*
D03*
Y1128400D02*
D03*
Y1153800D02*
D03*
X350690Y925200D02*
D03*
X386250D02*
D03*
X368470D02*
D03*
X313860D02*
D03*
X296080D02*
D03*
X278300D02*
D03*
X428033Y926470D02*
D03*
Y944250D02*
D03*
X428020Y935360D02*
D03*
X428033Y917555D02*
D03*
X599610Y899800D02*
D03*
X580560D02*
D03*
X589450Y882020D02*
D03*
X571670D02*
D03*
X551275Y865193D02*
D03*
X569055D02*
D03*
X655415Y875353D02*
D03*
X637635D02*
D03*
Y898213D02*
D03*
X368470Y1153800D02*
D03*
X386250D02*
D03*
X296080D02*
D03*
X278300D02*
D03*
X404030D02*
D03*
Y1179200D02*
D03*
X278300Y950600D02*
D03*
X657500Y964000D02*
D03*
X585500Y956000D02*
D03*
X600880Y937900D02*
D03*
X605960Y946790D02*
D03*
X649500Y964000D02*
D03*
X641500Y964000D02*
D03*
X594360Y911860D02*
D03*
Y923290D02*
D03*
X594530Y946790D02*
D03*
X588180Y937900D02*
D03*
X557700D02*
D03*
X581830Y946790D02*
D03*
X551350Y937900D02*
D03*
X260520Y950600D02*
D03*
Y976000D02*
D03*
Y1077600D02*
D03*
Y925200D02*
D03*
X867510Y1075000D02*
D03*
X882510Y1120001D02*
D03*
X882490Y1140000D02*
D03*
X882500Y1000000D02*
D03*
X867510Y1035020D02*
D03*
X860550Y1095001D02*
D03*
X872500Y1059991D02*
D03*
X882500Y1060000D02*
D03*
X867510Y1045001D02*
D03*
X882500Y1090000D02*
D03*
X657500Y972000D02*
D03*
X649500Y1012000D02*
D03*
Y1028000D02*
D03*
X657500D02*
D03*
X649500Y972000D02*
D03*
Y1020000D02*
D03*
X657500Y980000D02*
D03*
X962500Y979990D02*
D03*
X972500Y979990D02*
D03*
X942500Y979990D02*
D03*
X902500D02*
D03*
X872500Y980000D02*
D03*
X882510D02*
D03*
X982500Y979990D02*
D03*
X902500Y969990D02*
D03*
X882510Y970000D02*
D03*
X892500Y969990D02*
D03*
X962500Y969990D02*
D03*
X972500Y969990D02*
D03*
X580390Y1087120D02*
D03*
X593500Y1020000D02*
D03*
X593500Y1012001D02*
D03*
X617500Y1012001D02*
D03*
X633500Y1020000D02*
D03*
X605500Y1037100D02*
D03*
X593501Y1028000D02*
D03*
X621500Y1037100D02*
D03*
X613500D02*
D03*
X577501Y1028000D02*
D03*
X278300Y1077600D02*
D03*
Y976000D02*
D03*
Y1128400D02*
D03*
Y1103000D02*
D03*
X313860Y1077600D02*
D03*
X296080Y1103000D02*
D03*
Y1128400D02*
D03*
Y1077600D02*
D03*
X368470D02*
D03*
X404030Y1103000D02*
D03*
X386250Y1077600D02*
D03*
Y1103000D02*
D03*
X368470D02*
D03*
X350690Y1077600D02*
D03*
Y950600D02*
D03*
X428033Y953140D02*
D03*
X368470Y950600D02*
D03*
X386250D02*
D03*
X313860D02*
D03*
X428033Y962032D02*
D03*
X296080Y950600D02*
D03*
X549910Y1089660D02*
D03*
X537210Y1085850D02*
D03*
X566420Y1089660D02*
D03*
X537210Y1064260D02*
D03*
Y1075690D02*
D03*
X560070D02*
D03*
X404030Y1128400D02*
D03*
X386250D02*
D03*
X368470D02*
D03*
X553423Y1003999D02*
D03*
X561500Y1020000D02*
D03*
X577500D02*
D03*
X561500Y972000D02*
D03*
X569500Y1012000D02*
D03*
X569500Y1004000D02*
D03*
X569500Y1020001D02*
D03*
X561500Y1012000D02*
D03*
X577500Y1012001D02*
D03*
X569500Y972000D02*
D03*
X428033Y1077600D02*
D03*
X922500Y989991D02*
D03*
X942500Y999990D02*
D03*
X932500Y989990D02*
D03*
X922500Y999990D02*
D03*
X912510Y1030000D02*
D03*
X932510Y1030001D02*
D03*
X912510Y1020000D02*
D03*
X942500Y1020000D02*
D03*
X942510Y1030000D02*
D03*
X962510Y1100000D02*
D03*
X962490Y1070000D02*
D03*
X962503Y1189943D02*
D03*
X962500Y1019990D02*
D03*
X962500Y990025D02*
D03*
X962501Y1030025D02*
D03*
X962500Y1010000D02*
D03*
Y999990D02*
D03*
X962510Y1050000D02*
D03*
X952510Y1090000D02*
D03*
X942510Y1090000D02*
D03*
X962500Y1110010D02*
D03*
X952510Y1100000D02*
D03*
X952500Y1120000D02*
D03*
Y1080000D02*
D03*
X942510Y1100000D02*
D03*
X942500Y1079990D02*
D03*
X902490Y1130000D02*
D03*
Y1140000D02*
D03*
X902510Y1110000D02*
D03*
X902490Y1160000D02*
D03*
Y1180000D02*
D03*
X912510Y1100000D02*
D03*
X912510Y1080000D02*
D03*
Y1050000D02*
D03*
X912638Y1130089D02*
D03*
X912510Y1090000D02*
D03*
X912490Y1120000D02*
D03*
X922590Y1099921D02*
D03*
X922490Y1180000D02*
D03*
Y1150000D02*
D03*
X932490Y1120000D02*
D03*
X922490Y1130000D02*
D03*
X922510Y1040000D02*
D03*
X932590Y1090000D02*
D03*
X932470Y1080034D02*
D03*
X922550Y1090080D02*
D03*
X932549Y1070000D02*
D03*
X932510Y1100000D02*
D03*
X922510Y1070000D02*
D03*
X932510Y1060000D02*
D03*
X932510Y1050000D02*
D03*
X932490Y1180000D02*
D03*
X892479Y1090080D02*
D03*
X892550Y1099921D02*
D03*
X902470Y1080028D02*
D03*
X892510Y1110001D02*
D03*
Y1070000D02*
D03*
X902510Y1020000D02*
D03*
Y1040000D02*
D03*
X892455Y990000D02*
D03*
X892509Y1030020D02*
D03*
X902510Y1050001D02*
D03*
X892510Y1000001D02*
D03*
X892510Y1050000D02*
D03*
X892500Y1060000D02*
D03*
X892510Y1010015D02*
D03*
X1052510Y970000D02*
D03*
X1072510D02*
D03*
X1092510Y1190000D02*
D03*
Y970000D02*
D03*
X1102510Y1160000D02*
D03*
Y1140000D02*
D03*
X1092500Y1130010D02*
D03*
X1102500Y1180010D02*
D03*
X1092510Y1120000D02*
D03*
X1102510Y970000D02*
D03*
X1092510Y980000D02*
D03*
Y1210000D02*
D03*
Y1230000D02*
D03*
Y1220000D02*
D03*
X1112500Y1230010D02*
D03*
X1082510Y1210000D02*
D03*
X1132510Y970000D02*
D03*
X1122510Y1120000D02*
D03*
X1082500Y1200010D02*
D03*
X1082510Y1050000D02*
D03*
Y1190000D02*
D03*
Y1150000D02*
D03*
Y1180000D02*
D03*
Y1020000D02*
D03*
X1042510Y1230000D02*
D03*
X992490Y1230000D02*
D03*
X1072510D02*
D03*
X1062510D02*
D03*
X1082510Y1220000D02*
D03*
X902490D02*
D03*
X942503Y1230000D02*
D03*
X902490D02*
D03*
X972490D02*
D03*
X932490D02*
D03*
X922490Y1230000D02*
D03*
X1082510Y1230000D02*
D03*
X982490Y1230090D02*
D03*
X1122510Y1160000D02*
D03*
X1132500Y1230010D02*
D03*
X1122500Y1180010D02*
D03*
X1122500Y1200010D02*
D03*
X1122510Y1140000D02*
D03*
X882510Y1220000D02*
D03*
X892490Y1220000D02*
D03*
X882490Y1180000D02*
D03*
X892510Y1190000D02*
D03*
X882490Y1160000D02*
D03*
X912490Y1230000D02*
D03*
X892490D02*
D03*
X952490D02*
D03*
X1092510Y990001D02*
D03*
X1082510Y1000000D02*
D03*
X1122510Y1050000D02*
D03*
Y990000D02*
D03*
Y1030000D02*
D03*
X1102510Y1040000D02*
D03*
Y1030000D02*
D03*
Y1010000D02*
D03*
X1122510Y1090000D02*
D03*
Y1010000D02*
D03*
X1082510Y1070000D02*
D03*
X1102510Y1090000D02*
D03*
X1122510Y1070000D02*
D03*
X1022710Y1150000D02*
D03*
X1032490Y1140000D02*
D03*
X1022510Y1130000D02*
D03*
X1032510D02*
D03*
X1012510D02*
D03*
Y1150000D02*
D03*
X1032510Y1180000D02*
D03*
X1022510D02*
D03*
X952490D02*
D03*
X962490D02*
D03*
X992490Y1180000D02*
D03*
X972490Y1180000D02*
D03*
X982490Y1170000D02*
D03*
X962490Y1170000D02*
D03*
X972490Y1160000D02*
D03*
X952490Y1150000D02*
D03*
X942490D02*
D03*
X962490Y1130000D02*
D03*
X972490Y1130000D02*
D03*
X992490D02*
D03*
X982490D02*
D03*
X972490Y1140000D02*
D03*
X992490D02*
D03*
X1032510Y1170000D02*
D03*
X1012510Y1170000D02*
D03*
X1012500Y1160010D02*
D03*
X1022510Y1170000D02*
D03*
X1032490Y1160000D02*
D03*
X313860Y976000D02*
D03*
X296080D02*
D03*
X368470D02*
D03*
X428033Y1033150D02*
D03*
Y1059795D02*
D03*
Y979810D02*
D03*
Y970895D02*
D03*
X428033Y1050930D02*
D03*
X428033Y988675D02*
D03*
Y1042015D02*
D03*
Y1024286D02*
D03*
Y997590D02*
D03*
Y1006455D02*
D03*
Y1015370D02*
D03*
X545635Y964000D02*
D03*
X545500Y1012001D02*
D03*
X537547Y1012048D02*
D03*
X529194Y963600D02*
D03*
X545500Y972000D02*
D03*
X537500Y964000D02*
D03*
X537500Y1020000D02*
D03*
X545500Y980000D02*
D03*
X545500Y1020000D02*
D03*
X529500Y1020001D02*
D03*
X537500Y972000D02*
D03*
X386250Y976000D02*
D03*
X350690D02*
D03*
X866314Y1764037D02*
D03*
Y1750407D02*
D03*
X1664208Y1839468D02*
D03*
X1697990Y1873758D02*
D03*
X1689100Y1874266D02*
D03*
X1686951Y1057600D02*
D03*
X1687830Y1094740D02*
D03*
Y1104900D02*
D03*
X1397542Y441325D02*
D03*
X1466850Y426720D02*
D03*
X1477010Y433070D02*
D03*
X1513840Y431800D02*
D03*
Y422910D02*
D03*
X1526540D02*
D03*
Y431800D02*
D03*
X1539240Y422910D02*
D03*
Y431800D02*
D03*
X1551940D02*
D03*
Y422910D02*
D03*
X1563370Y431800D02*
D03*
Y422910D02*
D03*
X1645920Y427990D02*
D03*
Y436880D02*
D03*
Y445770D02*
D03*
X1654810Y427990D02*
D03*
Y436880D02*
D03*
Y445770D02*
D03*
X1673860Y427990D02*
D03*
Y436880D02*
D03*
Y445770D02*
D03*
X1682750Y427990D02*
D03*
Y436880D02*
D03*
Y445770D02*
D03*
X1699260Y427990D02*
D03*
Y436880D02*
D03*
Y445770D02*
D03*
X1708150Y427990D02*
D03*
Y436880D02*
D03*
Y445770D02*
D03*
X1351280Y499110D02*
D03*
X1397000Y514350D02*
D03*
X1557020Y447040D02*
D03*
X1565910D02*
D03*
X1582420Y554990D02*
D03*
Y491490D02*
D03*
X1592589Y537338D02*
D03*
X1592589Y510668D02*
D03*
X1628140Y552450D02*
D03*
Y491236D02*
D03*
Y496570D02*
D03*
X1628246Y558037D02*
D03*
X1699260Y455930D02*
D03*
Y464820D02*
D03*
Y473710D02*
D03*
X1708150Y455930D02*
D03*
Y464820D02*
D03*
Y473710D02*
D03*
X1737360Y455930D02*
D03*
X1746123Y560070D02*
D03*
X1751457D02*
D03*
X1760220Y454660D02*
D03*
X1775460Y473710D02*
D03*
Y482600D02*
D03*
X1736090Y746760D02*
D03*
Y762000D02*
D03*
X1823720Y760730D02*
D03*
Y767080D02*
D03*
D229*
X1681537Y1408307D02*
D03*
X1691537D02*
D03*
X1701537D02*
D03*
Y1418307D02*
D03*
X1691537D02*
D03*
X1681537D02*
D03*
Y1428307D02*
D03*
X1691537D02*
D03*
X1701537D02*
D03*
X779273Y1565081D02*
D03*
Y1555081D02*
D03*
Y1545081D02*
D03*
X789273D02*
D03*
Y1555081D02*
D03*
Y1565081D02*
D03*
X799273D02*
D03*
Y1555081D02*
D03*
Y1545081D02*
D03*
X1506810Y1414611D02*
D03*
X1496810D02*
D03*
X1486810D02*
D03*
Y1404611D02*
D03*
X1496810D02*
D03*
X1506810D02*
D03*
Y1394611D02*
D03*
X1496810D02*
D03*
X1486810D02*
D03*
D230*
X1922719Y1165576D02*
D03*
Y1173376D02*
D03*
Y1181176D02*
D03*
X1905519D02*
D03*
Y1173376D02*
D03*
Y1165576D02*
D03*
X683862Y1368680D02*
D03*
X689612Y1378180D02*
D03*
X678112D02*
D03*
X683862Y1387680D02*
D03*
X1802899Y1404533D02*
D03*
X1812899D02*
D03*
Y1384533D02*
D03*
X1822899D02*
D03*
Y1404533D02*
D03*
Y1394533D02*
D03*
X1812899D02*
D03*
X1802899Y1384533D02*
D03*
Y1394533D02*
D03*
X978880Y1417248D02*
D03*
X989880D02*
D03*
X1000880D02*
D03*
X1011880D02*
D03*
X1022880D02*
D03*
X978880Y1406248D02*
D03*
X989880D02*
D03*
X1000880D02*
D03*
X1011880D02*
D03*
X1022880D02*
D03*
X978880Y1395249D02*
D03*
X989880D02*
D03*
X1000880D02*
D03*
X1011880D02*
D03*
X1022880D02*
D03*
X978880Y1384248D02*
D03*
X989880D02*
D03*
X1000880D02*
D03*
X1011880D02*
D03*
X1022880D02*
D03*
X978880Y1373248D02*
D03*
X989880D02*
D03*
X1000880D02*
D03*
X1011880D02*
D03*
X1022880D02*
D03*
X1607963Y1587234D02*
D03*
Y1576234D02*
D03*
Y1565234D02*
D03*
Y1554234D02*
D03*
Y1543234D02*
D03*
X1596963Y1587234D02*
D03*
Y1576234D02*
D03*
Y1565234D02*
D03*
Y1554234D02*
D03*
Y1543234D02*
D03*
X1585963Y1587234D02*
D03*
Y1576234D02*
D03*
Y1565234D02*
D03*
Y1554234D02*
D03*
Y1543234D02*
D03*
X1574963Y1587234D02*
D03*
Y1576234D02*
D03*
Y1565234D02*
D03*
Y1554234D02*
D03*
Y1543234D02*
D03*
X1563963Y1587234D02*
D03*
Y1576234D02*
D03*
Y1565234D02*
D03*
Y1554234D02*
D03*
Y1543234D02*
D03*
X1807793Y1573274D02*
D03*
X1818793D02*
D03*
X1807793Y1562274D02*
D03*
X1818793D02*
D03*
X1655076Y1770728D02*
D03*
Y1781729D02*
D03*
Y1792728D02*
D03*
Y1803728D02*
D03*
Y1814728D02*
D03*
X1666077Y1770728D02*
D03*
Y1781729D02*
D03*
Y1792728D02*
D03*
Y1803728D02*
D03*
Y1814728D02*
D03*
X1677076Y1770728D02*
D03*
Y1781729D02*
D03*
Y1792728D02*
D03*
Y1803728D02*
D03*
Y1814728D02*
D03*
X1688076Y1770728D02*
D03*
Y1781729D02*
D03*
Y1792728D02*
D03*
Y1803728D02*
D03*
Y1814728D02*
D03*
X1699076Y1770728D02*
D03*
Y1781729D02*
D03*
Y1792728D02*
D03*
Y1803728D02*
D03*
Y1814728D02*
D03*
X1768170Y794200D02*
D03*
X1779170D02*
D03*
X1790170D02*
D03*
X1768170Y783200D02*
D03*
X1779170D02*
D03*
X1790170D02*
D03*
X1768170Y772200D02*
D03*
X1779170D02*
D03*
X1790170D02*
D03*
X1768170Y761200D02*
D03*
X1779170D02*
D03*
X1790170D02*
D03*
X1768170Y750200D02*
D03*
X1779170D02*
D03*
X1790170D02*
D03*
X1768170Y739200D02*
D03*
X1779170D02*
D03*
X1790170D02*
D03*
X1768170Y728200D02*
D03*
X1779170D02*
D03*
X1790170D02*
D03*
X1768170Y717200D02*
D03*
X1779170D02*
D03*
X1790170D02*
D03*
X1768170Y706200D02*
D03*
X1779170D02*
D03*
X1790170D02*
D03*
D231*
X1594000Y1083000D02*
D03*
X1578760D02*
D03*
X1563520D02*
D03*
X1624480Y1067760D02*
D03*
X1616860Y1060140D02*
D03*
X1632100D02*
D03*
Y1075380D02*
D03*
Y1090620D02*
D03*
Y1105860D02*
D03*
X1624480Y1083000D02*
D03*
Y1098240D02*
D03*
X1616860Y1075380D02*
D03*
Y1090620D02*
D03*
Y1105860D02*
D03*
X1609240Y1067760D02*
D03*
Y1083000D02*
D03*
Y1098240D02*
D03*
X1601620Y1060140D02*
D03*
Y1075380D02*
D03*
Y1090620D02*
D03*
Y1105860D02*
D03*
X1594000Y1067760D02*
D03*
Y1098240D02*
D03*
X1586380Y1060140D02*
D03*
Y1075380D02*
D03*
Y1090620D02*
D03*
Y1105860D02*
D03*
X1578760Y1067760D02*
D03*
Y1098240D02*
D03*
X1571140Y1060140D02*
D03*
Y1075380D02*
D03*
Y1090620D02*
D03*
Y1105860D02*
D03*
X1563520Y1067760D02*
D03*
Y1098240D02*
D03*
X1555900Y1105860D02*
D03*
Y1090620D02*
D03*
Y1075380D02*
D03*
Y1060140D02*
D03*
M02*
