G04*
G04 #@! TF.GenerationSoftware,Altium Limited,Altium Designer,23.11.1 (41)*
G04*
G04 Layer_Physical_Order=10*
G04 Layer_Color=16777215*
%FSLAX44Y44*%
%MOMM*%
G71*
G04*
G04 #@! TF.SameCoordinates,04611707-018F-4F9C-9273-AB504833585F*
G04*
G04*
G04 #@! TF.FilePolarity,Positive*
G04*
G01*
G75*
%ADD11C,0.5080*%
%ADD217C,6.2000*%
%ADD218C,2.2000*%
%ADD219C,3.8100*%
G04:AMPARAMS|DCode=220|XSize=1.524mm|YSize=1.524mm|CornerRadius=0mm|HoleSize=0mm|Usage=FLASHONLY|Rotation=90.000|XOffset=0mm|YOffset=0mm|HoleType=Round|Shape=Octagon|*
%AMOCTAGOND220*
4,1,8,0.3810,0.7620,-0.3810,0.7620,-0.7620,0.3810,-0.7620,-0.3810,-0.3810,-0.7620,0.3810,-0.7620,0.7620,-0.3810,0.7620,0.3810,0.3810,0.7620,0.0*
%
%ADD220OCTAGOND220*%

%ADD221C,1.5240*%
%ADD222C,3.0000*%
%ADD223C,1.6000*%
%ADD224C,0.6000*%
%ADD225R,1.9050X1.9050*%
%ADD226C,1.9050*%
%ADD227R,3.0000X3.0000*%
%ADD228C,0.3048*%
%ADD229C,0.5588*%
%ADD230C,0.5000*%
%ADD231C,0.5080*%
G36*
X1746504Y1721576D02*
X1358025D01*
X1357574Y1759155D01*
X1435480Y1838721D01*
X1660398D01*
Y1838710D01*
X1660978Y1837310D01*
X1662050Y1836238D01*
X1663450Y1835658D01*
X1664966D01*
X1666366Y1836238D01*
X1667438Y1837310D01*
X1668018Y1838710D01*
Y1838721D01*
X1746504D01*
Y1721576D01*
D02*
G37*
G36*
X1641911Y1493612D02*
X1400391D01*
X1350253Y1543750D01*
Y1547938D01*
X1440227Y1637912D01*
X1641911D01*
Y1493612D01*
D02*
G37*
G36*
X1905769Y1436835D02*
X1905769Y1406438D01*
X1900743D01*
Y1428340D01*
X1847217D01*
Y1406252D01*
X1832369D01*
Y1408813D01*
X1827392Y1413790D01*
X1824273D01*
Y1450796D01*
X1819615Y1450796D01*
Y1474470D01*
X1868134D01*
X1905769Y1436835D01*
D02*
G37*
G36*
X1763711Y1370483D02*
X1486810D01*
Y1389531D01*
X1487821D01*
X1489688Y1390304D01*
X1491117Y1391733D01*
X1491175Y1391874D01*
X1492445D01*
X1492504Y1391733D01*
X1493933Y1390304D01*
X1495800Y1389531D01*
X1497821D01*
X1499688Y1390304D01*
X1501117Y1391733D01*
X1501175Y1391874D01*
X1502445D01*
X1502504Y1391733D01*
X1503933Y1390304D01*
X1505800Y1389531D01*
X1507821D01*
X1509688Y1390304D01*
X1511117Y1391733D01*
X1511890Y1393600D01*
Y1395621D01*
X1511117Y1397488D01*
X1509688Y1398917D01*
X1509547Y1398976D01*
Y1400246D01*
X1509688Y1400304D01*
X1511117Y1401733D01*
X1511890Y1403600D01*
Y1405621D01*
X1511117Y1407488D01*
X1509688Y1408917D01*
X1509547Y1408976D01*
Y1410246D01*
X1509688Y1410304D01*
X1511117Y1411733D01*
X1511890Y1413600D01*
Y1415621D01*
X1511117Y1417488D01*
X1509688Y1418917D01*
X1507821Y1419691D01*
X1505800D01*
X1503933Y1418917D01*
X1502504Y1417488D01*
X1502445Y1417347D01*
X1501175D01*
X1501117Y1417488D01*
X1499688Y1418917D01*
X1497821Y1419691D01*
X1495800D01*
X1493933Y1418917D01*
X1492504Y1417488D01*
X1492445Y1417347D01*
X1491175D01*
X1491117Y1417488D01*
X1489688Y1418917D01*
X1487821Y1419691D01*
X1486810D01*
Y1456944D01*
X1763711D01*
Y1370483D01*
D02*
G37*
G36*
X880945Y1222926D02*
X880640Y1222800D01*
X879711Y1221871D01*
X879208Y1220657D01*
Y1219343D01*
X879711Y1218130D01*
X880640Y1217201D01*
X880945Y1217074D01*
Y1191565D01*
X920165Y1152345D01*
X919691Y1151871D01*
X919188Y1150657D01*
Y1149343D01*
X919691Y1148130D01*
X920620Y1147201D01*
X921833Y1146698D01*
X923147D01*
X924361Y1147201D01*
X924835Y1147675D01*
X950170Y1122340D01*
X949701Y1121871D01*
X949198Y1120657D01*
Y1119343D01*
X949701Y1118130D01*
X950630Y1117201D01*
X951843Y1116698D01*
X953157D01*
X954370Y1117201D01*
X954840Y1117670D01*
X955862Y1116648D01*
X955862Y1116648D01*
X957347Y1115163D01*
X957468Y1114983D01*
X957510Y1114771D01*
Y1106340D01*
Y1096341D01*
Y1086353D01*
Y1055898D01*
Y985001D01*
X877505D01*
X874837Y982333D01*
X874370Y982800D01*
X873157Y983302D01*
X871843D01*
X870630Y982800D01*
X869701Y981871D01*
X869198Y980657D01*
Y979343D01*
X869701Y978130D01*
X870168Y977663D01*
X705289Y812785D01*
X611768D01*
X523655Y900897D01*
X523700Y900942D01*
Y1036960D01*
X523283Y1037377D01*
Y1317214D01*
X533959Y1327890D01*
X535204Y1327642D01*
X535250Y1327532D01*
X536322Y1326460D01*
X537722Y1325880D01*
X539238D01*
X540638Y1326460D01*
X541710Y1327532D01*
X542290Y1328932D01*
Y1330448D01*
X541710Y1331848D01*
X540638Y1332920D01*
X540528Y1332966D01*
X540280Y1334211D01*
X729072Y1523003D01*
X880945D01*
X880945Y1222926D01*
D02*
G37*
G36*
X1047510Y1055000D02*
X1032553D01*
Y1053302D01*
X1031853D01*
X1030640Y1052800D01*
X1029711Y1051871D01*
X1029208Y1050657D01*
Y1049344D01*
X1029711Y1048130D01*
X1030640Y1047201D01*
X1031853Y1046698D01*
X1032553D01*
Y1033307D01*
X1031843D01*
X1030630Y1032805D01*
X1029701Y1031876D01*
X1029198Y1030662D01*
Y1029349D01*
X1029701Y1028135D01*
X1030630Y1027206D01*
X1031843Y1026703D01*
X1032553D01*
Y1023302D01*
X1031853D01*
X1030640Y1022800D01*
X1029711Y1021871D01*
X1029208Y1020657D01*
Y1019343D01*
X1029711Y1018130D01*
X1030640Y1017201D01*
X1031853Y1016698D01*
X1032553D01*
Y1013302D01*
X1031853D01*
X1030640Y1012800D01*
X1029711Y1011871D01*
X1029208Y1010657D01*
Y1009343D01*
X1029711Y1008130D01*
X1030640Y1007201D01*
X1031853Y1006698D01*
X1032553D01*
Y1003303D01*
X1031853D01*
X1030640Y1002800D01*
X1029711Y1001871D01*
X1029208Y1000657D01*
Y999344D01*
X1029711Y998130D01*
X1030640Y997201D01*
X1031853Y996699D01*
X1032553D01*
Y993302D01*
X1031853D01*
X1030640Y992800D01*
X1029711Y991871D01*
X1029208Y990657D01*
Y989343D01*
X1029711Y988130D01*
X1030640Y987201D01*
X1031853Y986698D01*
X1032553D01*
Y983302D01*
X1031853D01*
X1030640Y982800D01*
X1029711Y981871D01*
X1029208Y980657D01*
Y979343D01*
X1029711Y978130D01*
X1030640Y977201D01*
X1031853Y976698D01*
X1032553D01*
Y798748D01*
X1038355Y792946D01*
Y762553D01*
X874864D01*
Y920409D01*
X984231D01*
Y977133D01*
X984370Y977191D01*
X985299Y978120D01*
X985802Y979333D01*
Y980647D01*
X985299Y981861D01*
X984370Y982790D01*
X984231Y982847D01*
Y1007133D01*
X984370Y1007191D01*
X985299Y1008120D01*
X985802Y1009333D01*
Y1010647D01*
X985299Y1011861D01*
X984370Y1012790D01*
X984231Y1012847D01*
Y1017143D01*
X984370Y1017201D01*
X985299Y1018130D01*
X985802Y1019343D01*
Y1020657D01*
X985299Y1021871D01*
X984370Y1022800D01*
X984231Y1022857D01*
Y1027133D01*
X984370Y1027191D01*
X985299Y1028120D01*
X985802Y1029333D01*
Y1030647D01*
X985299Y1031861D01*
X984370Y1032790D01*
X984231Y1032847D01*
Y1037133D01*
X984370Y1037191D01*
X985299Y1038120D01*
X985802Y1039333D01*
Y1040647D01*
X985299Y1041861D01*
X984370Y1042790D01*
X984231Y1042847D01*
Y1047148D01*
X984361Y1047201D01*
X985289Y1048130D01*
X985792Y1049344D01*
Y1050657D01*
X985289Y1051871D01*
X984361Y1052800D01*
X984231Y1052853D01*
Y1055000D01*
X960739Y1055000D01*
X959841Y1055898D01*
Y1086353D01*
X961111Y1087015D01*
X961859Y1086705D01*
X963173D01*
X964387Y1087207D01*
X965315Y1088136D01*
X965818Y1089350D01*
Y1090664D01*
X965315Y1091877D01*
X964387Y1092806D01*
X963173Y1093309D01*
X961859D01*
X961111Y1092999D01*
X959841Y1093660D01*
Y1096341D01*
X961111Y1097006D01*
X961853Y1096698D01*
X963167D01*
X964380Y1097201D01*
X965309Y1098130D01*
X965812Y1099343D01*
Y1100657D01*
X965309Y1101871D01*
X964380Y1102800D01*
X963167Y1103302D01*
X961853D01*
X961111Y1102995D01*
X959841Y1103660D01*
Y1106340D01*
X961111Y1107011D01*
X961843Y1106708D01*
X963157D01*
X964370Y1107211D01*
X965299Y1108140D01*
X965802Y1109353D01*
Y1110667D01*
X965299Y1111881D01*
X964370Y1112810D01*
X963157Y1113312D01*
X961843D01*
X961111Y1113009D01*
X959841Y1113680D01*
Y1115000D01*
X959663Y1115892D01*
X959158Y1116648D01*
X957510Y1118297D01*
Y1145000D01*
X1047510D01*
Y1055000D01*
D02*
G37*
G36*
X1718310Y1042887D02*
X1746250Y1042887D01*
X1746250Y1031457D01*
X1714500Y999707D01*
X1672227Y957434D01*
Y922719D01*
X1594532D01*
X1577917Y906104D01*
Y820300D01*
X1909600D01*
Y643425D01*
X1474113D01*
Y912351D01*
X1521460Y959698D01*
X1610999Y1049237D01*
X1684020D01*
X1694180Y1059397D01*
X1701800D01*
X1718310Y1042887D01*
D02*
G37*
%LPC*%
G36*
X1700028Y1819514D02*
X1698124D01*
X1696365Y1818786D01*
X1695019Y1817439D01*
X1694290Y1815680D01*
Y1813776D01*
X1695019Y1812017D01*
X1696365Y1810671D01*
X1698124Y1809942D01*
X1700028D01*
X1701787Y1810671D01*
X1703134Y1812017D01*
X1703862Y1813776D01*
Y1815680D01*
X1703134Y1817439D01*
X1701787Y1818786D01*
X1700028Y1819514D01*
D02*
G37*
G36*
X1689028D02*
X1687124D01*
X1685365Y1818786D01*
X1684019Y1817439D01*
X1683291Y1815680D01*
Y1813776D01*
X1684019Y1812017D01*
X1685365Y1810671D01*
X1687124Y1809942D01*
X1689028D01*
X1690788Y1810671D01*
X1692134Y1812017D01*
X1692863Y1813776D01*
Y1815680D01*
X1692134Y1817439D01*
X1690788Y1818786D01*
X1689028Y1819514D01*
D02*
G37*
G36*
X1678028D02*
X1676124D01*
X1674365Y1818786D01*
X1673019Y1817439D01*
X1672290Y1815680D01*
Y1813776D01*
X1673019Y1812017D01*
X1674365Y1810671D01*
X1676124Y1809942D01*
X1678028D01*
X1679787Y1810671D01*
X1681134Y1812017D01*
X1681862Y1813776D01*
Y1815680D01*
X1681134Y1817439D01*
X1679787Y1818786D01*
X1678028Y1819514D01*
D02*
G37*
G36*
X1667029D02*
X1665125D01*
X1663365Y1818786D01*
X1662019Y1817439D01*
X1661291Y1815680D01*
Y1813776D01*
X1662019Y1812017D01*
X1663365Y1810671D01*
X1665125Y1809942D01*
X1667029D01*
X1668788Y1810671D01*
X1670134Y1812017D01*
X1670863Y1813776D01*
Y1815680D01*
X1670134Y1817439D01*
X1668788Y1818786D01*
X1667029Y1819514D01*
D02*
G37*
G36*
X1656028D02*
X1654124D01*
X1652365Y1818786D01*
X1651019Y1817439D01*
X1650290Y1815680D01*
Y1813776D01*
X1651019Y1812017D01*
X1652365Y1810671D01*
X1654124Y1809942D01*
X1656028D01*
X1657787Y1810671D01*
X1659134Y1812017D01*
X1659862Y1813776D01*
Y1815680D01*
X1659134Y1817439D01*
X1657787Y1818786D01*
X1656028Y1819514D01*
D02*
G37*
G36*
X1700028Y1808515D02*
X1698124D01*
X1696365Y1807786D01*
X1695019Y1806440D01*
X1694290Y1804680D01*
Y1802776D01*
X1695019Y1801017D01*
X1696365Y1799671D01*
X1698124Y1798943D01*
X1700028D01*
X1701787Y1799671D01*
X1703134Y1801017D01*
X1703862Y1802776D01*
Y1804680D01*
X1703134Y1806440D01*
X1701787Y1807786D01*
X1700028Y1808515D01*
D02*
G37*
G36*
X1689028D02*
X1687124D01*
X1685365Y1807786D01*
X1684019Y1806440D01*
X1683291Y1804680D01*
Y1802776D01*
X1684019Y1801017D01*
X1685365Y1799671D01*
X1687124Y1798943D01*
X1689028D01*
X1690788Y1799671D01*
X1692134Y1801017D01*
X1692863Y1802776D01*
Y1804680D01*
X1692134Y1806440D01*
X1690788Y1807786D01*
X1689028Y1808515D01*
D02*
G37*
G36*
X1678028D02*
X1676124D01*
X1674365Y1807786D01*
X1673019Y1806440D01*
X1672290Y1804680D01*
Y1802776D01*
X1673019Y1801017D01*
X1674365Y1799671D01*
X1676124Y1798943D01*
X1678028D01*
X1679787Y1799671D01*
X1681134Y1801017D01*
X1681862Y1802776D01*
Y1804680D01*
X1681134Y1806440D01*
X1679787Y1807786D01*
X1678028Y1808515D01*
D02*
G37*
G36*
X1667029D02*
X1665125D01*
X1663365Y1807786D01*
X1662019Y1806440D01*
X1661291Y1804680D01*
Y1802776D01*
X1662019Y1801017D01*
X1663365Y1799671D01*
X1665125Y1798943D01*
X1667029D01*
X1668788Y1799671D01*
X1670134Y1801017D01*
X1670863Y1802776D01*
Y1804680D01*
X1670134Y1806440D01*
X1668788Y1807786D01*
X1667029Y1808515D01*
D02*
G37*
G36*
X1656028D02*
X1654124D01*
X1652365Y1807786D01*
X1651019Y1806440D01*
X1650290Y1804680D01*
Y1802776D01*
X1651019Y1801017D01*
X1652365Y1799671D01*
X1654124Y1798943D01*
X1656028D01*
X1657787Y1799671D01*
X1659134Y1801017D01*
X1659862Y1802776D01*
Y1804680D01*
X1659134Y1806440D01*
X1657787Y1807786D01*
X1656028Y1808515D01*
D02*
G37*
G36*
X1700028Y1797514D02*
X1698124D01*
X1696365Y1796786D01*
X1695019Y1795439D01*
X1694290Y1793680D01*
Y1791776D01*
X1695019Y1790017D01*
X1696365Y1788671D01*
X1698124Y1787942D01*
X1700028D01*
X1701787Y1788671D01*
X1703134Y1790017D01*
X1703862Y1791776D01*
Y1793680D01*
X1703134Y1795439D01*
X1701787Y1796786D01*
X1700028Y1797514D01*
D02*
G37*
G36*
X1689028D02*
X1687124D01*
X1685365Y1796786D01*
X1684019Y1795439D01*
X1683291Y1793680D01*
Y1791776D01*
X1684019Y1790017D01*
X1685365Y1788671D01*
X1687124Y1787942D01*
X1689028D01*
X1690788Y1788671D01*
X1692134Y1790017D01*
X1692863Y1791776D01*
Y1793680D01*
X1692134Y1795439D01*
X1690788Y1796786D01*
X1689028Y1797514D01*
D02*
G37*
G36*
X1678028D02*
X1676124D01*
X1674365Y1796786D01*
X1673019Y1795439D01*
X1672290Y1793680D01*
Y1791776D01*
X1673019Y1790017D01*
X1674365Y1788671D01*
X1676124Y1787942D01*
X1678028D01*
X1679787Y1788671D01*
X1681134Y1790017D01*
X1681862Y1791776D01*
Y1793680D01*
X1681134Y1795439D01*
X1679787Y1796786D01*
X1678028Y1797514D01*
D02*
G37*
G36*
X1667029D02*
X1665125D01*
X1663365Y1796786D01*
X1662019Y1795439D01*
X1661291Y1793680D01*
Y1791776D01*
X1662019Y1790017D01*
X1663365Y1788671D01*
X1665125Y1787942D01*
X1667029D01*
X1668788Y1788671D01*
X1670134Y1790017D01*
X1670863Y1791776D01*
Y1793680D01*
X1670134Y1795439D01*
X1668788Y1796786D01*
X1667029Y1797514D01*
D02*
G37*
G36*
X1656028D02*
X1654124D01*
X1652365Y1796786D01*
X1651019Y1795439D01*
X1650290Y1793680D01*
Y1791776D01*
X1651019Y1790017D01*
X1652365Y1788671D01*
X1654124Y1787942D01*
X1656028D01*
X1657787Y1788671D01*
X1659134Y1790017D01*
X1659862Y1791776D01*
Y1793680D01*
X1659134Y1795439D01*
X1657787Y1796786D01*
X1656028Y1797514D01*
D02*
G37*
G36*
X1700028Y1786514D02*
X1698124D01*
X1696365Y1785786D01*
X1695019Y1784440D01*
X1694290Y1782681D01*
Y1780777D01*
X1695019Y1779017D01*
X1696365Y1777671D01*
X1698124Y1776942D01*
X1700028D01*
X1701787Y1777671D01*
X1703134Y1779017D01*
X1703862Y1780777D01*
Y1782681D01*
X1703134Y1784440D01*
X1701787Y1785786D01*
X1700028Y1786514D01*
D02*
G37*
G36*
X1689028D02*
X1687124D01*
X1685365Y1785786D01*
X1684019Y1784440D01*
X1683291Y1782681D01*
Y1780777D01*
X1684019Y1779017D01*
X1685365Y1777671D01*
X1687124Y1776942D01*
X1689028D01*
X1690788Y1777671D01*
X1692134Y1779017D01*
X1692863Y1780777D01*
Y1782681D01*
X1692134Y1784440D01*
X1690788Y1785786D01*
X1689028Y1786514D01*
D02*
G37*
G36*
X1678028D02*
X1676124D01*
X1674365Y1785786D01*
X1673019Y1784440D01*
X1672290Y1782681D01*
Y1780777D01*
X1673019Y1779017D01*
X1674365Y1777671D01*
X1676124Y1776942D01*
X1678028D01*
X1679787Y1777671D01*
X1681134Y1779017D01*
X1681862Y1780777D01*
Y1782681D01*
X1681134Y1784440D01*
X1679787Y1785786D01*
X1678028Y1786514D01*
D02*
G37*
G36*
X1667029D02*
X1665125D01*
X1663365Y1785786D01*
X1662019Y1784440D01*
X1661291Y1782681D01*
Y1780777D01*
X1662019Y1779017D01*
X1663365Y1777671D01*
X1665125Y1776942D01*
X1667029D01*
X1668788Y1777671D01*
X1670134Y1779017D01*
X1670863Y1780777D01*
Y1782681D01*
X1670134Y1784440D01*
X1668788Y1785786D01*
X1667029Y1786514D01*
D02*
G37*
G36*
X1656028D02*
X1654124D01*
X1652365Y1785786D01*
X1651019Y1784440D01*
X1650290Y1782681D01*
Y1780777D01*
X1651019Y1779017D01*
X1652365Y1777671D01*
X1654124Y1776942D01*
X1656028D01*
X1657787Y1777671D01*
X1659134Y1779017D01*
X1659862Y1780777D01*
Y1782681D01*
X1659134Y1784440D01*
X1657787Y1785786D01*
X1656028Y1786514D01*
D02*
G37*
G36*
X1700028Y1775514D02*
X1698124D01*
X1696365Y1774786D01*
X1695019Y1773439D01*
X1694290Y1771680D01*
Y1769776D01*
X1695019Y1768017D01*
X1696365Y1766671D01*
X1698124Y1765942D01*
X1700028D01*
X1701787Y1766671D01*
X1703134Y1768017D01*
X1703862Y1769776D01*
Y1771680D01*
X1703134Y1773439D01*
X1701787Y1774786D01*
X1700028Y1775514D01*
D02*
G37*
G36*
X1689028D02*
X1687124D01*
X1685365Y1774786D01*
X1684019Y1773439D01*
X1683291Y1771680D01*
Y1769776D01*
X1684019Y1768017D01*
X1685365Y1766671D01*
X1687124Y1765942D01*
X1689028D01*
X1690788Y1766671D01*
X1692134Y1768017D01*
X1692863Y1769776D01*
Y1771680D01*
X1692134Y1773439D01*
X1690788Y1774786D01*
X1689028Y1775514D01*
D02*
G37*
G36*
X1678028D02*
X1676124D01*
X1674365Y1774786D01*
X1673019Y1773439D01*
X1672290Y1771680D01*
Y1769776D01*
X1673019Y1768017D01*
X1674365Y1766671D01*
X1676124Y1765942D01*
X1678028D01*
X1679787Y1766671D01*
X1681134Y1768017D01*
X1681862Y1769776D01*
Y1771680D01*
X1681134Y1773439D01*
X1679787Y1774786D01*
X1678028Y1775514D01*
D02*
G37*
G36*
X1667029D02*
X1665125D01*
X1663365Y1774786D01*
X1662019Y1773439D01*
X1661291Y1771680D01*
Y1769776D01*
X1662019Y1768017D01*
X1663365Y1766671D01*
X1665125Y1765942D01*
X1667029D01*
X1668788Y1766671D01*
X1670134Y1768017D01*
X1670863Y1769776D01*
Y1771680D01*
X1670134Y1773439D01*
X1668788Y1774786D01*
X1667029Y1775514D01*
D02*
G37*
G36*
X1656028D02*
X1654124D01*
X1652365Y1774786D01*
X1651019Y1773439D01*
X1650290Y1771680D01*
Y1769776D01*
X1651019Y1768017D01*
X1652365Y1766671D01*
X1654124Y1765942D01*
X1656028D01*
X1657787Y1766671D01*
X1659134Y1768017D01*
X1659862Y1769776D01*
Y1771680D01*
X1659134Y1773439D01*
X1657787Y1774786D01*
X1656028Y1775514D01*
D02*
G37*
G36*
X1387419Y1773521D02*
X1385904D01*
X1384503Y1772941D01*
X1383432Y1771869D01*
X1382851Y1770469D01*
Y1768953D01*
X1383432Y1767552D01*
X1384503Y1766481D01*
X1385904Y1765901D01*
X1387419D01*
X1388820Y1766481D01*
X1389891Y1767552D01*
X1390471Y1768953D01*
Y1770469D01*
X1389891Y1771869D01*
X1388820Y1772941D01*
X1387419Y1773521D01*
D02*
G37*
G36*
Y1763361D02*
X1385904D01*
X1384503Y1762781D01*
X1383432Y1761709D01*
X1382851Y1760309D01*
Y1758793D01*
X1383432Y1757392D01*
X1384503Y1756321D01*
X1385904Y1755741D01*
X1387419D01*
X1388820Y1756321D01*
X1389891Y1757392D01*
X1390471Y1758793D01*
Y1760309D01*
X1389891Y1761709D01*
X1388820Y1762781D01*
X1387419Y1763361D01*
D02*
G37*
G36*
X1377259D02*
X1375744D01*
X1374343Y1762781D01*
X1373271Y1761709D01*
X1372691Y1760309D01*
Y1758793D01*
X1373271Y1757392D01*
X1374343Y1756321D01*
X1375744Y1755741D01*
X1377259D01*
X1378660Y1756321D01*
X1379731Y1757392D01*
X1380311Y1758793D01*
Y1760309D01*
X1379731Y1761709D01*
X1378660Y1762781D01*
X1377259Y1763361D01*
D02*
G37*
G36*
X1387419Y1753201D02*
X1385904D01*
X1384503Y1752621D01*
X1383432Y1751549D01*
X1382851Y1750149D01*
Y1748633D01*
X1383432Y1747233D01*
X1384503Y1746161D01*
X1385904Y1745581D01*
X1387419D01*
X1388820Y1746161D01*
X1389891Y1747233D01*
X1390471Y1748633D01*
Y1750149D01*
X1389891Y1751549D01*
X1388820Y1752621D01*
X1387419Y1753201D01*
D02*
G37*
G36*
X1377259D02*
X1375744D01*
X1374343Y1752621D01*
X1373271Y1751549D01*
X1372691Y1750149D01*
Y1748633D01*
X1373271Y1747233D01*
X1374343Y1746161D01*
X1375744Y1745581D01*
X1377259D01*
X1378660Y1746161D01*
X1379731Y1747233D01*
X1380311Y1748633D01*
Y1750149D01*
X1379731Y1751549D01*
X1378660Y1752621D01*
X1377259Y1753201D01*
D02*
G37*
G36*
X1489019Y1743041D02*
X1487504D01*
X1486103Y1742461D01*
X1485031Y1741389D01*
X1484451Y1739989D01*
Y1738473D01*
X1485031Y1737072D01*
X1486103Y1736001D01*
X1487504Y1735421D01*
X1489019D01*
X1490420Y1736001D01*
X1491491Y1737072D01*
X1492071Y1738473D01*
Y1739989D01*
X1491491Y1741389D01*
X1490420Y1742461D01*
X1489019Y1743041D01*
D02*
G37*
G36*
X1478859D02*
X1477344D01*
X1475943Y1742461D01*
X1474872Y1741389D01*
X1474291Y1739989D01*
Y1738473D01*
X1474872Y1737072D01*
X1475943Y1736001D01*
X1477344Y1735421D01*
X1478859D01*
X1480260Y1736001D01*
X1481331Y1737072D01*
X1481911Y1738473D01*
Y1739989D01*
X1481331Y1741389D01*
X1480260Y1742461D01*
X1478859Y1743041D01*
D02*
G37*
G36*
X1468699D02*
X1467184D01*
X1465783Y1742461D01*
X1464711Y1741389D01*
X1464131Y1739989D01*
Y1738473D01*
X1464711Y1737072D01*
X1465783Y1736001D01*
X1467184Y1735421D01*
X1468699D01*
X1470100Y1736001D01*
X1471171Y1737072D01*
X1471751Y1738473D01*
Y1739989D01*
X1471171Y1741389D01*
X1470100Y1742461D01*
X1468699Y1743041D01*
D02*
G37*
G36*
X1458539D02*
X1457024D01*
X1455623Y1742461D01*
X1454552Y1741389D01*
X1453971Y1739989D01*
Y1738473D01*
X1454552Y1737072D01*
X1455623Y1736001D01*
X1457024Y1735421D01*
X1458539D01*
X1459940Y1736001D01*
X1461011Y1737072D01*
X1461591Y1738473D01*
Y1739989D01*
X1461011Y1741389D01*
X1459940Y1742461D01*
X1458539Y1743041D01*
D02*
G37*
G36*
X1448379D02*
X1446864D01*
X1445463Y1742461D01*
X1444391Y1741389D01*
X1443811Y1739989D01*
Y1738473D01*
X1444391Y1737072D01*
X1445463Y1736001D01*
X1446864Y1735421D01*
X1448379D01*
X1449780Y1736001D01*
X1450851Y1737072D01*
X1451431Y1738473D01*
Y1739989D01*
X1450851Y1741389D01*
X1449780Y1742461D01*
X1448379Y1743041D01*
D02*
G37*
G36*
X1438219D02*
X1436704D01*
X1435303Y1742461D01*
X1434232Y1741389D01*
X1433651Y1739989D01*
Y1738473D01*
X1434232Y1737072D01*
X1435303Y1736001D01*
X1436704Y1735421D01*
X1438219D01*
X1439620Y1736001D01*
X1440691Y1737072D01*
X1441271Y1738473D01*
Y1739989D01*
X1440691Y1741389D01*
X1439620Y1742461D01*
X1438219Y1743041D01*
D02*
G37*
G36*
X1428059D02*
X1426544D01*
X1425143Y1742461D01*
X1424072Y1741389D01*
X1423491Y1739989D01*
Y1738473D01*
X1424072Y1737072D01*
X1425143Y1736001D01*
X1426544Y1735421D01*
X1428059D01*
X1429460Y1736001D01*
X1430531Y1737072D01*
X1431111Y1738473D01*
Y1739989D01*
X1430531Y1741389D01*
X1429460Y1742461D01*
X1428059Y1743041D01*
D02*
G37*
G36*
X1417899D02*
X1416384D01*
X1414983Y1742461D01*
X1413911Y1741389D01*
X1413331Y1739989D01*
Y1738473D01*
X1413911Y1737072D01*
X1414983Y1736001D01*
X1416384Y1735421D01*
X1417899D01*
X1419300Y1736001D01*
X1420371Y1737072D01*
X1420951Y1738473D01*
Y1739989D01*
X1420371Y1741389D01*
X1419300Y1742461D01*
X1417899Y1743041D01*
D02*
G37*
G36*
X1407739D02*
X1406224D01*
X1404823Y1742461D01*
X1403752Y1741389D01*
X1403171Y1739989D01*
Y1738473D01*
X1403752Y1737072D01*
X1404823Y1736001D01*
X1406224Y1735421D01*
X1407739D01*
X1409140Y1736001D01*
X1410211Y1737072D01*
X1410791Y1738473D01*
Y1739989D01*
X1410211Y1741389D01*
X1409140Y1742461D01*
X1407739Y1743041D01*
D02*
G37*
G36*
X1397579D02*
X1396064D01*
X1394663Y1742461D01*
X1393591Y1741389D01*
X1393011Y1739989D01*
Y1738473D01*
X1393591Y1737072D01*
X1394663Y1736001D01*
X1396064Y1735421D01*
X1397579D01*
X1398980Y1736001D01*
X1400051Y1737072D01*
X1400631Y1738473D01*
Y1739989D01*
X1400051Y1741389D01*
X1398980Y1742461D01*
X1397579Y1743041D01*
D02*
G37*
G36*
X1387419D02*
X1385904D01*
X1384503Y1742461D01*
X1383432Y1741389D01*
X1382851Y1739989D01*
Y1738473D01*
X1383432Y1737072D01*
X1384503Y1736001D01*
X1385904Y1735421D01*
X1387419D01*
X1388820Y1736001D01*
X1389891Y1737072D01*
X1390471Y1738473D01*
Y1739989D01*
X1389891Y1741389D01*
X1388820Y1742461D01*
X1387419Y1743041D01*
D02*
G37*
G36*
X1377259D02*
X1375744D01*
X1374343Y1742461D01*
X1373271Y1741389D01*
X1372691Y1739989D01*
Y1738473D01*
X1373271Y1737072D01*
X1374343Y1736001D01*
X1375744Y1735421D01*
X1377259D01*
X1378660Y1736001D01*
X1379731Y1737072D01*
X1380311Y1738473D01*
Y1739989D01*
X1379731Y1741389D01*
X1378660Y1742461D01*
X1377259Y1743041D01*
D02*
G37*
G36*
X1367099D02*
X1365584D01*
X1364183Y1742461D01*
X1363112Y1741389D01*
X1362531Y1739989D01*
Y1738473D01*
X1363112Y1737072D01*
X1364183Y1736001D01*
X1365584Y1735421D01*
X1367099D01*
X1368500Y1736001D01*
X1369571Y1737072D01*
X1370151Y1738473D01*
Y1739989D01*
X1369571Y1741389D01*
X1368500Y1742461D01*
X1367099Y1743041D01*
D02*
G37*
G36*
X1489019Y1732881D02*
X1487504D01*
X1486103Y1732301D01*
X1485031Y1731229D01*
X1484451Y1729829D01*
Y1728313D01*
X1485031Y1726913D01*
X1486103Y1725841D01*
X1487504Y1725261D01*
X1489019D01*
X1490420Y1725841D01*
X1491491Y1726913D01*
X1492071Y1728313D01*
Y1729829D01*
X1491491Y1731229D01*
X1490420Y1732301D01*
X1489019Y1732881D01*
D02*
G37*
G36*
X1478859D02*
X1477344D01*
X1475943Y1732301D01*
X1474872Y1731229D01*
X1474291Y1729829D01*
Y1728313D01*
X1474872Y1726913D01*
X1475943Y1725841D01*
X1477344Y1725261D01*
X1478859D01*
X1480260Y1725841D01*
X1481331Y1726913D01*
X1481911Y1728313D01*
Y1729829D01*
X1481331Y1731229D01*
X1480260Y1732301D01*
X1478859Y1732881D01*
D02*
G37*
G36*
X1468699D02*
X1467184D01*
X1465783Y1732301D01*
X1464711Y1731229D01*
X1464131Y1729829D01*
Y1728313D01*
X1464711Y1726913D01*
X1465783Y1725841D01*
X1467184Y1725261D01*
X1468699D01*
X1470100Y1725841D01*
X1471171Y1726913D01*
X1471751Y1728313D01*
Y1729829D01*
X1471171Y1731229D01*
X1470100Y1732301D01*
X1468699Y1732881D01*
D02*
G37*
G36*
X1458539D02*
X1457024D01*
X1455623Y1732301D01*
X1454552Y1731229D01*
X1453971Y1729829D01*
Y1728313D01*
X1454552Y1726913D01*
X1455623Y1725841D01*
X1457024Y1725261D01*
X1458539D01*
X1459940Y1725841D01*
X1461011Y1726913D01*
X1461591Y1728313D01*
Y1729829D01*
X1461011Y1731229D01*
X1459940Y1732301D01*
X1458539Y1732881D01*
D02*
G37*
G36*
X1448379D02*
X1446864D01*
X1445463Y1732301D01*
X1444391Y1731229D01*
X1443811Y1729829D01*
Y1728313D01*
X1444391Y1726913D01*
X1445463Y1725841D01*
X1446864Y1725261D01*
X1448379D01*
X1449780Y1725841D01*
X1450851Y1726913D01*
X1451431Y1728313D01*
Y1729829D01*
X1450851Y1731229D01*
X1449780Y1732301D01*
X1448379Y1732881D01*
D02*
G37*
G36*
X1438219D02*
X1436704D01*
X1435303Y1732301D01*
X1434232Y1731229D01*
X1433651Y1729829D01*
Y1728313D01*
X1434232Y1726913D01*
X1435303Y1725841D01*
X1436704Y1725261D01*
X1438219D01*
X1439620Y1725841D01*
X1440691Y1726913D01*
X1441271Y1728313D01*
Y1729829D01*
X1440691Y1731229D01*
X1439620Y1732301D01*
X1438219Y1732881D01*
D02*
G37*
G36*
X1428059D02*
X1426544D01*
X1425143Y1732301D01*
X1424072Y1731229D01*
X1423491Y1729829D01*
Y1728313D01*
X1424072Y1726913D01*
X1425143Y1725841D01*
X1426544Y1725261D01*
X1428059D01*
X1429460Y1725841D01*
X1430531Y1726913D01*
X1431111Y1728313D01*
Y1729829D01*
X1430531Y1731229D01*
X1429460Y1732301D01*
X1428059Y1732881D01*
D02*
G37*
G36*
X1417899D02*
X1416384D01*
X1414983Y1732301D01*
X1413911Y1731229D01*
X1413331Y1729829D01*
Y1728313D01*
X1413911Y1726913D01*
X1414983Y1725841D01*
X1416384Y1725261D01*
X1417899D01*
X1419300Y1725841D01*
X1420371Y1726913D01*
X1420951Y1728313D01*
Y1729829D01*
X1420371Y1731229D01*
X1419300Y1732301D01*
X1417899Y1732881D01*
D02*
G37*
G36*
X1407739D02*
X1406224D01*
X1404823Y1732301D01*
X1403752Y1731229D01*
X1403171Y1729829D01*
Y1728313D01*
X1403752Y1726913D01*
X1404823Y1725841D01*
X1406224Y1725261D01*
X1407739D01*
X1409140Y1725841D01*
X1410211Y1726913D01*
X1410791Y1728313D01*
Y1729829D01*
X1410211Y1731229D01*
X1409140Y1732301D01*
X1407739Y1732881D01*
D02*
G37*
G36*
X1397579D02*
X1396064D01*
X1394663Y1732301D01*
X1393591Y1731229D01*
X1393011Y1729829D01*
Y1728313D01*
X1393591Y1726913D01*
X1394663Y1725841D01*
X1396064Y1725261D01*
X1397579D01*
X1398980Y1725841D01*
X1400051Y1726913D01*
X1400631Y1728313D01*
Y1729829D01*
X1400051Y1731229D01*
X1398980Y1732301D01*
X1397579Y1732881D01*
D02*
G37*
G36*
X1387419D02*
X1385904D01*
X1384503Y1732301D01*
X1383432Y1731229D01*
X1382851Y1729829D01*
Y1728313D01*
X1383432Y1726913D01*
X1384503Y1725841D01*
X1385904Y1725261D01*
X1387419D01*
X1388820Y1725841D01*
X1389891Y1726913D01*
X1390471Y1728313D01*
Y1729829D01*
X1389891Y1731229D01*
X1388820Y1732301D01*
X1387419Y1732881D01*
D02*
G37*
G36*
X1377259D02*
X1375744D01*
X1374343Y1732301D01*
X1373271Y1731229D01*
X1372691Y1729829D01*
Y1728313D01*
X1373271Y1726913D01*
X1374343Y1725841D01*
X1375744Y1725261D01*
X1377259D01*
X1378660Y1725841D01*
X1379731Y1726913D01*
X1380311Y1728313D01*
Y1729829D01*
X1379731Y1731229D01*
X1378660Y1732301D01*
X1377259Y1732881D01*
D02*
G37*
G36*
X1367099D02*
X1365584D01*
X1364183Y1732301D01*
X1363112Y1731229D01*
X1362531Y1729829D01*
Y1728313D01*
X1363112Y1726913D01*
X1364183Y1725841D01*
X1365584Y1725261D01*
X1367099D01*
X1368500Y1725841D01*
X1369571Y1726913D01*
X1370151Y1728313D01*
Y1729829D01*
X1369571Y1731229D01*
X1368500Y1732301D01*
X1367099Y1732881D01*
D02*
G37*
G36*
X1608915Y1592020D02*
X1607011D01*
X1605252Y1591292D01*
X1603905Y1589945D01*
X1603177Y1588186D01*
Y1586282D01*
X1603905Y1584523D01*
X1605252Y1583177D01*
X1607011Y1582448D01*
X1608915D01*
X1610674Y1583177D01*
X1612020Y1584523D01*
X1612749Y1586282D01*
Y1588186D01*
X1612020Y1589945D01*
X1610674Y1591292D01*
X1608915Y1592020D01*
D02*
G37*
G36*
X1597915D02*
X1596011D01*
X1594252Y1591292D01*
X1592905Y1589945D01*
X1592177Y1588186D01*
Y1586282D01*
X1592905Y1584523D01*
X1594252Y1583177D01*
X1596011Y1582448D01*
X1597915D01*
X1599674Y1583177D01*
X1601020Y1584523D01*
X1601749Y1586282D01*
Y1588186D01*
X1601020Y1589945D01*
X1599674Y1591292D01*
X1597915Y1592020D01*
D02*
G37*
G36*
X1586915D02*
X1585011D01*
X1583252Y1591292D01*
X1581906Y1589945D01*
X1581177Y1588186D01*
Y1586282D01*
X1581906Y1584523D01*
X1583252Y1583177D01*
X1585011Y1582448D01*
X1586915D01*
X1588674Y1583177D01*
X1590020Y1584523D01*
X1590749Y1586282D01*
Y1588186D01*
X1590020Y1589945D01*
X1588674Y1591292D01*
X1586915Y1592020D01*
D02*
G37*
G36*
X1575915D02*
X1574011D01*
X1572252Y1591292D01*
X1570905Y1589945D01*
X1570177Y1588186D01*
Y1586282D01*
X1570905Y1584523D01*
X1572252Y1583177D01*
X1574011Y1582448D01*
X1575915D01*
X1577674Y1583177D01*
X1579020Y1584523D01*
X1579749Y1586282D01*
Y1588186D01*
X1579020Y1589945D01*
X1577674Y1591292D01*
X1575915Y1592020D01*
D02*
G37*
G36*
X1564915D02*
X1563011D01*
X1561252Y1591292D01*
X1559906Y1589945D01*
X1559177Y1588186D01*
Y1586282D01*
X1559906Y1584523D01*
X1561252Y1583177D01*
X1563011Y1582448D01*
X1564915D01*
X1566674Y1583177D01*
X1568020Y1584523D01*
X1568749Y1586282D01*
Y1588186D01*
X1568020Y1589945D01*
X1566674Y1591292D01*
X1564915Y1592020D01*
D02*
G37*
G36*
X1608915Y1581020D02*
X1607011D01*
X1605252Y1580291D01*
X1603905Y1578945D01*
X1603177Y1577186D01*
Y1575282D01*
X1603905Y1573523D01*
X1605252Y1572177D01*
X1607011Y1571448D01*
X1608915D01*
X1610674Y1572177D01*
X1612020Y1573523D01*
X1612749Y1575282D01*
Y1577186D01*
X1612020Y1578945D01*
X1610674Y1580291D01*
X1608915Y1581020D01*
D02*
G37*
G36*
X1597915D02*
X1596011D01*
X1594252Y1580291D01*
X1592905Y1578945D01*
X1592177Y1577186D01*
Y1575282D01*
X1592905Y1573523D01*
X1594252Y1572177D01*
X1596011Y1571448D01*
X1597915D01*
X1599674Y1572177D01*
X1601020Y1573523D01*
X1601749Y1575282D01*
Y1577186D01*
X1601020Y1578945D01*
X1599674Y1580291D01*
X1597915Y1581020D01*
D02*
G37*
G36*
X1586915D02*
X1585011D01*
X1583252Y1580291D01*
X1581906Y1578945D01*
X1581177Y1577186D01*
Y1575282D01*
X1581906Y1573523D01*
X1583252Y1572177D01*
X1585011Y1571448D01*
X1586915D01*
X1588674Y1572177D01*
X1590020Y1573523D01*
X1590749Y1575282D01*
Y1577186D01*
X1590020Y1578945D01*
X1588674Y1580291D01*
X1586915Y1581020D01*
D02*
G37*
G36*
X1575915D02*
X1574011D01*
X1572252Y1580291D01*
X1570905Y1578945D01*
X1570177Y1577186D01*
Y1575282D01*
X1570905Y1573523D01*
X1572252Y1572177D01*
X1574011Y1571448D01*
X1575915D01*
X1577674Y1572177D01*
X1579020Y1573523D01*
X1579749Y1575282D01*
Y1577186D01*
X1579020Y1578945D01*
X1577674Y1580291D01*
X1575915Y1581020D01*
D02*
G37*
G36*
X1564915D02*
X1563011D01*
X1561252Y1580291D01*
X1559906Y1578945D01*
X1559177Y1577186D01*
Y1575282D01*
X1559906Y1573523D01*
X1561252Y1572177D01*
X1563011Y1571448D01*
X1564915D01*
X1566674Y1572177D01*
X1568020Y1573523D01*
X1568749Y1575282D01*
Y1577186D01*
X1568020Y1578945D01*
X1566674Y1580291D01*
X1564915Y1581020D01*
D02*
G37*
G36*
X1608915Y1570020D02*
X1607011D01*
X1605252Y1569292D01*
X1603905Y1567945D01*
X1603177Y1566186D01*
Y1564282D01*
X1603905Y1562523D01*
X1605252Y1561177D01*
X1607011Y1560448D01*
X1608915D01*
X1610674Y1561177D01*
X1612020Y1562523D01*
X1612749Y1564282D01*
Y1566186D01*
X1612020Y1567945D01*
X1610674Y1569292D01*
X1608915Y1570020D01*
D02*
G37*
G36*
X1597915D02*
X1596011D01*
X1594252Y1569292D01*
X1592905Y1567945D01*
X1592177Y1566186D01*
Y1564282D01*
X1592905Y1562523D01*
X1594252Y1561177D01*
X1596011Y1560448D01*
X1597915D01*
X1599674Y1561177D01*
X1601020Y1562523D01*
X1601749Y1564282D01*
Y1566186D01*
X1601020Y1567945D01*
X1599674Y1569292D01*
X1597915Y1570020D01*
D02*
G37*
G36*
X1586915D02*
X1585011D01*
X1583252Y1569292D01*
X1581906Y1567945D01*
X1581177Y1566186D01*
Y1564282D01*
X1581906Y1562523D01*
X1583252Y1561177D01*
X1585011Y1560448D01*
X1586915D01*
X1588674Y1561177D01*
X1590020Y1562523D01*
X1590749Y1564282D01*
Y1566186D01*
X1590020Y1567945D01*
X1588674Y1569292D01*
X1586915Y1570020D01*
D02*
G37*
G36*
X1575915D02*
X1574011D01*
X1572252Y1569292D01*
X1570905Y1567945D01*
X1570177Y1566186D01*
Y1564282D01*
X1570905Y1562523D01*
X1572252Y1561177D01*
X1574011Y1560448D01*
X1575915D01*
X1577674Y1561177D01*
X1579020Y1562523D01*
X1579749Y1564282D01*
Y1566186D01*
X1579020Y1567945D01*
X1577674Y1569292D01*
X1575915Y1570020D01*
D02*
G37*
G36*
X1564915D02*
X1563011D01*
X1561252Y1569292D01*
X1559906Y1567945D01*
X1559177Y1566186D01*
Y1564282D01*
X1559906Y1562523D01*
X1561252Y1561177D01*
X1563011Y1560448D01*
X1564915D01*
X1566674Y1561177D01*
X1568020Y1562523D01*
X1568749Y1564282D01*
Y1566186D01*
X1568020Y1567945D01*
X1566674Y1569292D01*
X1564915Y1570020D01*
D02*
G37*
G36*
X1608915Y1559020D02*
X1607011D01*
X1605252Y1558291D01*
X1603905Y1556945D01*
X1603177Y1555186D01*
Y1553282D01*
X1603905Y1551523D01*
X1605252Y1550177D01*
X1607011Y1549448D01*
X1608915D01*
X1610674Y1550177D01*
X1612020Y1551523D01*
X1612749Y1553282D01*
Y1555186D01*
X1612020Y1556945D01*
X1610674Y1558291D01*
X1608915Y1559020D01*
D02*
G37*
G36*
X1597915D02*
X1596011D01*
X1594252Y1558291D01*
X1592905Y1556945D01*
X1592177Y1555186D01*
Y1553282D01*
X1592905Y1551523D01*
X1594252Y1550177D01*
X1596011Y1549448D01*
X1597915D01*
X1599674Y1550177D01*
X1601020Y1551523D01*
X1601749Y1553282D01*
Y1555186D01*
X1601020Y1556945D01*
X1599674Y1558291D01*
X1597915Y1559020D01*
D02*
G37*
G36*
X1586915D02*
X1585011D01*
X1583252Y1558291D01*
X1581906Y1556945D01*
X1581177Y1555186D01*
Y1553282D01*
X1581906Y1551523D01*
X1583252Y1550177D01*
X1585011Y1549448D01*
X1586915D01*
X1588674Y1550177D01*
X1590020Y1551523D01*
X1590749Y1553282D01*
Y1555186D01*
X1590020Y1556945D01*
X1588674Y1558291D01*
X1586915Y1559020D01*
D02*
G37*
G36*
X1575915D02*
X1574011D01*
X1572252Y1558291D01*
X1570905Y1556945D01*
X1570177Y1555186D01*
Y1553282D01*
X1570905Y1551523D01*
X1572252Y1550177D01*
X1574011Y1549448D01*
X1575915D01*
X1577674Y1550177D01*
X1579020Y1551523D01*
X1579749Y1553282D01*
Y1555186D01*
X1579020Y1556945D01*
X1577674Y1558291D01*
X1575915Y1559020D01*
D02*
G37*
G36*
X1564915D02*
X1563011D01*
X1561252Y1558291D01*
X1559906Y1556945D01*
X1559177Y1555186D01*
Y1553282D01*
X1559906Y1551523D01*
X1561252Y1550177D01*
X1563011Y1549448D01*
X1564915D01*
X1566674Y1550177D01*
X1568020Y1551523D01*
X1568749Y1553282D01*
Y1555186D01*
X1568020Y1556945D01*
X1566674Y1558291D01*
X1564915Y1559020D01*
D02*
G37*
G36*
X1494278Y1556840D02*
X1492762D01*
X1491362Y1556260D01*
X1490290Y1555188D01*
X1489710Y1553788D01*
Y1552272D01*
X1490290Y1550872D01*
X1491362Y1549800D01*
X1492762Y1549220D01*
X1494278D01*
X1495678Y1549800D01*
X1496750Y1550872D01*
X1497330Y1552272D01*
Y1553788D01*
X1496750Y1555188D01*
X1495678Y1556260D01*
X1494278Y1556840D01*
D02*
G37*
G36*
X1484118D02*
X1482602D01*
X1481202Y1556260D01*
X1480130Y1555188D01*
X1479550Y1553788D01*
Y1552272D01*
X1480130Y1550872D01*
X1481202Y1549800D01*
X1482602Y1549220D01*
X1484118D01*
X1485518Y1549800D01*
X1486590Y1550872D01*
X1487170Y1552272D01*
Y1553788D01*
X1486590Y1555188D01*
X1485518Y1556260D01*
X1484118Y1556840D01*
D02*
G37*
G36*
X1494278Y1546680D02*
X1492762D01*
X1491362Y1546100D01*
X1490290Y1545028D01*
X1489710Y1543628D01*
Y1542112D01*
X1490290Y1540712D01*
X1491362Y1539640D01*
X1492762Y1539060D01*
X1494278D01*
X1495678Y1539640D01*
X1496750Y1540712D01*
X1497330Y1542112D01*
Y1543628D01*
X1496750Y1545028D01*
X1495678Y1546100D01*
X1494278Y1546680D01*
D02*
G37*
G36*
X1484118D02*
X1482602D01*
X1481202Y1546100D01*
X1480130Y1545028D01*
X1479550Y1543628D01*
Y1542112D01*
X1480130Y1540712D01*
X1481202Y1539640D01*
X1482602Y1539060D01*
X1484118D01*
X1485518Y1539640D01*
X1486590Y1540712D01*
X1487170Y1542112D01*
Y1543628D01*
X1486590Y1545028D01*
X1485518Y1546100D01*
X1484118Y1546680D01*
D02*
G37*
G36*
X1608915Y1548020D02*
X1607011D01*
X1605252Y1547292D01*
X1603905Y1545945D01*
X1603177Y1544186D01*
Y1542282D01*
X1603905Y1540523D01*
X1605252Y1539177D01*
X1607011Y1538448D01*
X1608915D01*
X1610674Y1539177D01*
X1612020Y1540523D01*
X1612749Y1542282D01*
Y1544186D01*
X1612020Y1545945D01*
X1610674Y1547292D01*
X1608915Y1548020D01*
D02*
G37*
G36*
X1597915D02*
X1596011D01*
X1594252Y1547292D01*
X1592905Y1545945D01*
X1592177Y1544186D01*
Y1542282D01*
X1592905Y1540523D01*
X1594252Y1539177D01*
X1596011Y1538448D01*
X1597915D01*
X1599674Y1539177D01*
X1601020Y1540523D01*
X1601749Y1542282D01*
Y1544186D01*
X1601020Y1545945D01*
X1599674Y1547292D01*
X1597915Y1548020D01*
D02*
G37*
G36*
X1586915D02*
X1585011D01*
X1583252Y1547292D01*
X1581906Y1545945D01*
X1581177Y1544186D01*
Y1542282D01*
X1581906Y1540523D01*
X1583252Y1539177D01*
X1585011Y1538448D01*
X1586915D01*
X1588674Y1539177D01*
X1590020Y1540523D01*
X1590749Y1542282D01*
Y1544186D01*
X1590020Y1545945D01*
X1588674Y1547292D01*
X1586915Y1548020D01*
D02*
G37*
G36*
X1575915D02*
X1574011D01*
X1572252Y1547292D01*
X1570905Y1545945D01*
X1570177Y1544186D01*
Y1542282D01*
X1570905Y1540523D01*
X1572252Y1539177D01*
X1574011Y1538448D01*
X1575915D01*
X1577674Y1539177D01*
X1579020Y1540523D01*
X1579749Y1542282D01*
Y1544186D01*
X1579020Y1545945D01*
X1577674Y1547292D01*
X1575915Y1548020D01*
D02*
G37*
G36*
X1564915D02*
X1563011D01*
X1561252Y1547292D01*
X1559906Y1545945D01*
X1559177Y1544186D01*
Y1542282D01*
X1559906Y1540523D01*
X1561252Y1539177D01*
X1563011Y1538448D01*
X1564915D01*
X1566674Y1539177D01*
X1568020Y1540523D01*
X1568749Y1542282D01*
Y1544186D01*
X1568020Y1545945D01*
X1566674Y1547292D01*
X1564915Y1548020D01*
D02*
G37*
G36*
X1702547Y1433387D02*
X1700526D01*
X1698659Y1432613D01*
X1697230Y1431184D01*
X1697172Y1431043D01*
X1695902D01*
X1695843Y1431184D01*
X1694414Y1432613D01*
X1692547Y1433387D01*
X1690526D01*
X1688659Y1432613D01*
X1687230Y1431184D01*
X1687172Y1431043D01*
X1685902D01*
X1685843Y1431184D01*
X1684414Y1432613D01*
X1682547Y1433387D01*
X1680526D01*
X1678659Y1432613D01*
X1677230Y1431184D01*
X1676457Y1429317D01*
Y1427296D01*
X1677230Y1425429D01*
X1678659Y1424000D01*
X1678800Y1423942D01*
Y1422672D01*
X1678659Y1422613D01*
X1677230Y1421184D01*
X1676457Y1419317D01*
Y1417296D01*
X1677230Y1415429D01*
X1678659Y1414000D01*
X1678800Y1413942D01*
Y1412672D01*
X1678659Y1412613D01*
X1677230Y1411184D01*
X1676457Y1409317D01*
Y1407296D01*
X1677230Y1405429D01*
X1678659Y1404000D01*
X1680526Y1403227D01*
X1682547D01*
X1684414Y1404000D01*
X1685843Y1405429D01*
X1685902Y1405570D01*
X1687172D01*
X1687230Y1405429D01*
X1688659Y1404000D01*
X1690526Y1403227D01*
X1692547D01*
X1694414Y1404000D01*
X1695843Y1405429D01*
X1695902Y1405570D01*
X1697172D01*
X1697230Y1405429D01*
X1698659Y1404000D01*
X1700526Y1403227D01*
X1702547D01*
X1704414Y1404000D01*
X1705843Y1405429D01*
X1706617Y1407296D01*
Y1409317D01*
X1705843Y1411184D01*
X1704414Y1412613D01*
X1704273Y1412672D01*
Y1413942D01*
X1704414Y1414000D01*
X1705843Y1415429D01*
X1706617Y1417296D01*
Y1419317D01*
X1705843Y1421184D01*
X1704414Y1422613D01*
X1704273Y1422672D01*
Y1423942D01*
X1704414Y1424000D01*
X1705843Y1425429D01*
X1706617Y1427296D01*
Y1429317D01*
X1705843Y1431184D01*
X1704414Y1432613D01*
X1702547Y1433387D01*
D02*
G37*
G36*
X1654619Y1426210D02*
X1653103D01*
X1651703Y1425630D01*
X1650631Y1424558D01*
X1650051Y1423158D01*
Y1421642D01*
X1650631Y1420242D01*
X1651703Y1419170D01*
X1653103Y1418590D01*
X1654619D01*
X1656019Y1419170D01*
X1657091Y1420242D01*
X1657671Y1421642D01*
Y1423158D01*
X1657091Y1424558D01*
X1656019Y1425630D01*
X1654619Y1426210D01*
D02*
G37*
G36*
X1629914Y1404273D02*
X1628398D01*
X1626998Y1403693D01*
X1625926Y1402621D01*
X1625346Y1401221D01*
Y1399705D01*
X1625926Y1398304D01*
X1626998Y1397233D01*
X1628398Y1396653D01*
X1629914D01*
X1631314Y1397233D01*
X1632386Y1398304D01*
X1632966Y1399705D01*
Y1401221D01*
X1632386Y1402621D01*
X1631314Y1403693D01*
X1629914Y1404273D01*
D02*
G37*
G36*
X866898Y1499870D02*
X865382D01*
X863982Y1499290D01*
X862910Y1498218D01*
X862330Y1496818D01*
Y1495302D01*
X862910Y1493902D01*
X863982Y1492830D01*
X865382Y1492250D01*
X866898D01*
X868298Y1492830D01*
X869370Y1493902D01*
X869950Y1495302D01*
Y1496818D01*
X869370Y1498218D01*
X868298Y1499290D01*
X866898Y1499870D01*
D02*
G37*
G36*
X846578D02*
X845062D01*
X843662Y1499290D01*
X842590Y1498218D01*
X842010Y1496818D01*
Y1495302D01*
X842590Y1493902D01*
X843662Y1492830D01*
X845062Y1492250D01*
X846578D01*
X847978Y1492830D01*
X849050Y1493902D01*
X849630Y1495302D01*
Y1496818D01*
X849050Y1498218D01*
X847978Y1499290D01*
X846578Y1499870D01*
D02*
G37*
G36*
X826258D02*
X824742D01*
X823342Y1499290D01*
X822270Y1498218D01*
X821690Y1496818D01*
Y1495302D01*
X822270Y1493902D01*
X823342Y1492830D01*
X824742Y1492250D01*
X826258D01*
X827658Y1492830D01*
X828730Y1493902D01*
X829310Y1495302D01*
Y1496818D01*
X828730Y1498218D01*
X827658Y1499290D01*
X826258Y1499870D01*
D02*
G37*
G36*
X805938D02*
X804422D01*
X803022Y1499290D01*
X801950Y1498218D01*
X801370Y1496818D01*
Y1495302D01*
X801950Y1493902D01*
X803022Y1492830D01*
X804422Y1492250D01*
X805938D01*
X807338Y1492830D01*
X808410Y1493902D01*
X808990Y1495302D01*
Y1496818D01*
X808410Y1498218D01*
X807338Y1499290D01*
X805938Y1499870D01*
D02*
G37*
G36*
X785618D02*
X784102D01*
X782702Y1499290D01*
X781630Y1498218D01*
X781050Y1496818D01*
Y1495302D01*
X781630Y1493902D01*
X782702Y1492830D01*
X784102Y1492250D01*
X785618D01*
X787018Y1492830D01*
X788090Y1493902D01*
X788670Y1495302D01*
Y1496818D01*
X788090Y1498218D01*
X787018Y1499290D01*
X785618Y1499870D01*
D02*
G37*
G36*
X866898Y1480820D02*
X865382D01*
X863982Y1480240D01*
X862910Y1479168D01*
X862330Y1477768D01*
Y1476252D01*
X862910Y1474852D01*
X863982Y1473780D01*
X865382Y1473200D01*
X866898D01*
X868298Y1473780D01*
X869370Y1474852D01*
X869950Y1476252D01*
Y1477768D01*
X869370Y1479168D01*
X868298Y1480240D01*
X866898Y1480820D01*
D02*
G37*
G36*
X846578D02*
X845062D01*
X843662Y1480240D01*
X842590Y1479168D01*
X842010Y1477768D01*
Y1476252D01*
X842590Y1474852D01*
X843662Y1473780D01*
X845062Y1473200D01*
X846578D01*
X847978Y1473780D01*
X849050Y1474852D01*
X849630Y1476252D01*
Y1477768D01*
X849050Y1479168D01*
X847978Y1480240D01*
X846578Y1480820D01*
D02*
G37*
G36*
X826258D02*
X824742D01*
X823342Y1480240D01*
X822270Y1479168D01*
X821690Y1477768D01*
Y1476252D01*
X822270Y1474852D01*
X823342Y1473780D01*
X824742Y1473200D01*
X826258D01*
X827658Y1473780D01*
X828730Y1474852D01*
X829310Y1476252D01*
Y1477768D01*
X828730Y1479168D01*
X827658Y1480240D01*
X826258Y1480820D01*
D02*
G37*
G36*
X805938D02*
X804422D01*
X803022Y1480240D01*
X801950Y1479168D01*
X801370Y1477768D01*
Y1476252D01*
X801950Y1474852D01*
X803022Y1473780D01*
X804422Y1473200D01*
X805938D01*
X807338Y1473780D01*
X808410Y1474852D01*
X808990Y1476252D01*
Y1477768D01*
X808410Y1479168D01*
X807338Y1480240D01*
X805938Y1480820D01*
D02*
G37*
G36*
X785618D02*
X784102D01*
X782702Y1480240D01*
X781630Y1479168D01*
X781050Y1477768D01*
Y1476252D01*
X781630Y1474852D01*
X782702Y1473780D01*
X784102Y1473200D01*
X785618D01*
X787018Y1473780D01*
X788090Y1474852D01*
X788670Y1476252D01*
Y1477768D01*
X788090Y1479168D01*
X787018Y1480240D01*
X785618Y1480820D01*
D02*
G37*
G36*
X866898Y1460500D02*
X865382D01*
X863982Y1459920D01*
X862910Y1458848D01*
X862330Y1457448D01*
Y1455932D01*
X862910Y1454532D01*
X863982Y1453460D01*
X865382Y1452880D01*
X866898D01*
X868298Y1453460D01*
X869370Y1454532D01*
X869950Y1455932D01*
Y1457448D01*
X869370Y1458848D01*
X868298Y1459920D01*
X866898Y1460500D01*
D02*
G37*
G36*
X846578D02*
X845062D01*
X843662Y1459920D01*
X842590Y1458848D01*
X842010Y1457448D01*
Y1455932D01*
X842590Y1454532D01*
X843662Y1453460D01*
X845062Y1452880D01*
X846578D01*
X847978Y1453460D01*
X849050Y1454532D01*
X849630Y1455932D01*
Y1457448D01*
X849050Y1458848D01*
X847978Y1459920D01*
X846578Y1460500D01*
D02*
G37*
G36*
X826258D02*
X824742D01*
X823342Y1459920D01*
X822270Y1458848D01*
X821690Y1457448D01*
Y1455932D01*
X822270Y1454532D01*
X823342Y1453460D01*
X824742Y1452880D01*
X826258D01*
X827658Y1453460D01*
X828730Y1454532D01*
X829310Y1455932D01*
Y1457448D01*
X828730Y1458848D01*
X827658Y1459920D01*
X826258Y1460500D01*
D02*
G37*
G36*
X805938D02*
X804422D01*
X803022Y1459920D01*
X801950Y1458848D01*
X801370Y1457448D01*
Y1455932D01*
X801950Y1454532D01*
X803022Y1453460D01*
X804422Y1452880D01*
X805938D01*
X807338Y1453460D01*
X808410Y1454532D01*
X808990Y1455932D01*
Y1457448D01*
X808410Y1458848D01*
X807338Y1459920D01*
X805938Y1460500D01*
D02*
G37*
G36*
X785618D02*
X784102D01*
X782702Y1459920D01*
X781630Y1458848D01*
X781050Y1457448D01*
Y1455932D01*
X781630Y1454532D01*
X782702Y1453460D01*
X784102Y1452880D01*
X785618D01*
X787018Y1453460D01*
X788090Y1454532D01*
X788670Y1455932D01*
Y1457448D01*
X788090Y1458848D01*
X787018Y1459920D01*
X785618Y1460500D01*
D02*
G37*
G36*
X866898Y1440180D02*
X865382D01*
X863982Y1439600D01*
X862910Y1438528D01*
X862330Y1437128D01*
Y1435612D01*
X862910Y1434212D01*
X863982Y1433140D01*
X865382Y1432560D01*
X866898D01*
X868298Y1433140D01*
X869370Y1434212D01*
X869950Y1435612D01*
Y1437128D01*
X869370Y1438528D01*
X868298Y1439600D01*
X866898Y1440180D01*
D02*
G37*
G36*
X846578D02*
X845062D01*
X843662Y1439600D01*
X842590Y1438528D01*
X842010Y1437128D01*
Y1435612D01*
X842590Y1434212D01*
X843662Y1433140D01*
X845062Y1432560D01*
X846578D01*
X847978Y1433140D01*
X849050Y1434212D01*
X849630Y1435612D01*
Y1437128D01*
X849050Y1438528D01*
X847978Y1439600D01*
X846578Y1440180D01*
D02*
G37*
G36*
X826258D02*
X824742D01*
X823342Y1439600D01*
X822270Y1438528D01*
X821690Y1437128D01*
Y1435612D01*
X822270Y1434212D01*
X823342Y1433140D01*
X824742Y1432560D01*
X826258D01*
X827658Y1433140D01*
X828730Y1434212D01*
X829310Y1435612D01*
Y1437128D01*
X828730Y1438528D01*
X827658Y1439600D01*
X826258Y1440180D01*
D02*
G37*
G36*
X805938D02*
X804422D01*
X803022Y1439600D01*
X801950Y1438528D01*
X801370Y1437128D01*
Y1435612D01*
X801950Y1434212D01*
X803022Y1433140D01*
X804422Y1432560D01*
X805938D01*
X807338Y1433140D01*
X808410Y1434212D01*
X808990Y1435612D01*
Y1437128D01*
X808410Y1438528D01*
X807338Y1439600D01*
X805938Y1440180D01*
D02*
G37*
G36*
X785618D02*
X784102D01*
X782702Y1439600D01*
X781630Y1438528D01*
X781050Y1437128D01*
Y1435612D01*
X781630Y1434212D01*
X782702Y1433140D01*
X784102Y1432560D01*
X785618D01*
X787018Y1433140D01*
X788090Y1434212D01*
X788670Y1435612D01*
Y1437128D01*
X788090Y1438528D01*
X787018Y1439600D01*
X785618Y1440180D01*
D02*
G37*
G36*
X866898Y1419860D02*
X865382D01*
X863982Y1419280D01*
X862910Y1418208D01*
X862330Y1416808D01*
Y1415292D01*
X862910Y1413892D01*
X863982Y1412820D01*
X865382Y1412240D01*
X866898D01*
X868298Y1412820D01*
X869370Y1413892D01*
X869950Y1415292D01*
Y1416808D01*
X869370Y1418208D01*
X868298Y1419280D01*
X866898Y1419860D01*
D02*
G37*
G36*
X846578D02*
X845062D01*
X843662Y1419280D01*
X842590Y1418208D01*
X842010Y1416808D01*
Y1415292D01*
X842590Y1413892D01*
X843662Y1412820D01*
X845062Y1412240D01*
X846578D01*
X847978Y1412820D01*
X849050Y1413892D01*
X849630Y1415292D01*
Y1416808D01*
X849050Y1418208D01*
X847978Y1419280D01*
X846578Y1419860D01*
D02*
G37*
G36*
X826258D02*
X824742D01*
X823342Y1419280D01*
X822270Y1418208D01*
X821690Y1416808D01*
Y1415292D01*
X822270Y1413892D01*
X823342Y1412820D01*
X824742Y1412240D01*
X826258D01*
X827658Y1412820D01*
X828730Y1413892D01*
X829310Y1415292D01*
Y1416808D01*
X828730Y1418208D01*
X827658Y1419280D01*
X826258Y1419860D01*
D02*
G37*
G36*
X805938D02*
X804422D01*
X803022Y1419280D01*
X801950Y1418208D01*
X801370Y1416808D01*
Y1415292D01*
X801950Y1413892D01*
X803022Y1412820D01*
X804422Y1412240D01*
X805938D01*
X807338Y1412820D01*
X808410Y1413892D01*
X808990Y1415292D01*
Y1416808D01*
X808410Y1418208D01*
X807338Y1419280D01*
X805938Y1419860D01*
D02*
G37*
G36*
X785618D02*
X784102D01*
X782702Y1419280D01*
X781630Y1418208D01*
X781050Y1416808D01*
Y1415292D01*
X781630Y1413892D01*
X782702Y1412820D01*
X784102Y1412240D01*
X785618D01*
X787018Y1412820D01*
X788090Y1413892D01*
X788670Y1415292D01*
Y1416808D01*
X788090Y1418208D01*
X787018Y1419280D01*
X785618Y1419860D01*
D02*
G37*
G36*
X684814Y1392466D02*
X682910D01*
X681151Y1391737D01*
X679805Y1390391D01*
X679076Y1388632D01*
Y1386728D01*
X679805Y1384969D01*
X681151Y1383622D01*
X682910Y1382894D01*
X684814D01*
X686573Y1383622D01*
X687920Y1384969D01*
X688648Y1386728D01*
Y1388632D01*
X687920Y1390391D01*
X686573Y1391737D01*
X684814Y1392466D01*
D02*
G37*
G36*
X690564Y1382966D02*
X688660D01*
X686901Y1382237D01*
X685555Y1380891D01*
X684826Y1379132D01*
Y1377228D01*
X685555Y1375469D01*
X686901Y1374122D01*
X688660Y1373394D01*
X690564D01*
X692323Y1374122D01*
X693670Y1375469D01*
X694398Y1377228D01*
Y1379132D01*
X693670Y1380891D01*
X692323Y1382237D01*
X690564Y1382966D01*
D02*
G37*
G36*
X679064D02*
X677160D01*
X675401Y1382237D01*
X674055Y1380891D01*
X673326Y1379132D01*
Y1377228D01*
X674055Y1375469D01*
X675401Y1374122D01*
X677160Y1373394D01*
X679064D01*
X680823Y1374122D01*
X682170Y1375469D01*
X682898Y1377228D01*
Y1379132D01*
X682170Y1380891D01*
X680823Y1382237D01*
X679064Y1382966D01*
D02*
G37*
G36*
X684814Y1373466D02*
X682910D01*
X681151Y1372737D01*
X679805Y1371391D01*
X679076Y1369632D01*
Y1367728D01*
X679805Y1365969D01*
X681151Y1364622D01*
X682910Y1363894D01*
X684814D01*
X686573Y1364622D01*
X687920Y1365969D01*
X688648Y1367728D01*
Y1369632D01*
X687920Y1371391D01*
X686573Y1372737D01*
X684814Y1373466D01*
D02*
G37*
G36*
X656100Y1380372D02*
X654584D01*
X653184Y1379792D01*
X652112Y1378720D01*
X651532Y1377320D01*
Y1375804D01*
X652112Y1374404D01*
X652542Y1373973D01*
X653065Y1373144D01*
X652542Y1372314D01*
X652112Y1371884D01*
X651532Y1370484D01*
Y1368968D01*
X652112Y1367568D01*
X653184Y1366496D01*
X654584Y1365916D01*
X656100D01*
X657162Y1366356D01*
X658198Y1365929D01*
X658491Y1365691D01*
X659012Y1364432D01*
X660084Y1363360D01*
X661105Y1362937D01*
Y1361606D01*
X660084Y1361184D01*
X659601Y1360701D01*
X658816Y1360220D01*
X657942Y1360701D01*
X657500Y1361142D01*
X656100Y1361722D01*
X654584D01*
X653184Y1361142D01*
X652112Y1360071D01*
X651532Y1358670D01*
Y1357155D01*
X652112Y1355754D01*
X653084Y1354782D01*
X652112Y1353810D01*
X651532Y1352409D01*
Y1350894D01*
X652112Y1349493D01*
X653184Y1348422D01*
X654584Y1347841D01*
X656100D01*
X657500Y1348422D01*
X658065Y1348987D01*
X658677Y1349447D01*
X659725Y1348987D01*
X660084Y1348628D01*
X661484Y1348048D01*
X663000D01*
X664400Y1348628D01*
X665472Y1349700D01*
X666052Y1351100D01*
Y1352616D01*
X665472Y1354016D01*
X664582Y1354906D01*
X665472Y1355796D01*
X666052Y1357196D01*
Y1358712D01*
X665472Y1360112D01*
X664400Y1361184D01*
X663380Y1361606D01*
Y1362937D01*
X664400Y1363360D01*
X665472Y1364432D01*
X666052Y1365832D01*
Y1367348D01*
X665472Y1368748D01*
X664582Y1369638D01*
X665472Y1370528D01*
X666052Y1371928D01*
Y1373444D01*
X665472Y1374844D01*
X664400Y1375916D01*
X663000Y1376496D01*
X661484D01*
X660422Y1376056D01*
X659446Y1376507D01*
X659152Y1376780D01*
Y1377320D01*
X658572Y1378720D01*
X657500Y1379792D01*
X656100Y1380372D01*
D02*
G37*
G36*
X539238Y1313180D02*
X537722D01*
X536322Y1312600D01*
X535250Y1311528D01*
X534670Y1310128D01*
Y1308612D01*
X535250Y1307212D01*
X536322Y1306140D01*
X537722Y1305560D01*
X539238D01*
X540638Y1306140D01*
X541710Y1307212D01*
X542290Y1308612D01*
Y1310128D01*
X541710Y1311528D01*
X540638Y1312600D01*
X539238Y1313180D01*
D02*
G37*
G36*
X775570Y1290594D02*
X774054D01*
X772654Y1290014D01*
X771582Y1288942D01*
X771002Y1287542D01*
Y1286026D01*
X771582Y1284626D01*
X772654Y1283554D01*
X774054Y1282974D01*
X775570D01*
X776970Y1283554D01*
X778042Y1284626D01*
X778622Y1286026D01*
Y1287542D01*
X778042Y1288942D01*
X776970Y1290014D01*
X775570Y1290594D01*
D02*
G37*
G36*
X755250D02*
X753734D01*
X752334Y1290014D01*
X751262Y1288942D01*
X750682Y1287542D01*
Y1286026D01*
X751262Y1284626D01*
X752334Y1283554D01*
X753734Y1282974D01*
X755250D01*
X756650Y1283554D01*
X757722Y1284626D01*
X758302Y1286026D01*
Y1287542D01*
X757722Y1288942D01*
X756650Y1290014D01*
X755250Y1290594D01*
D02*
G37*
G36*
X736200D02*
X734684D01*
X733284Y1290014D01*
X732212Y1288942D01*
X731632Y1287542D01*
Y1286026D01*
X732212Y1284626D01*
X733284Y1283554D01*
X734684Y1282974D01*
X736200D01*
X737600Y1283554D01*
X738672Y1284626D01*
X739252Y1286026D01*
Y1287542D01*
X738672Y1288942D01*
X737600Y1290014D01*
X736200Y1290594D01*
D02*
G37*
G36*
X715880D02*
X714364D01*
X712964Y1290014D01*
X711892Y1288942D01*
X711312Y1287542D01*
Y1286026D01*
X711892Y1284626D01*
X712964Y1283554D01*
X714364Y1282974D01*
X715880D01*
X717280Y1283554D01*
X718352Y1284626D01*
X718932Y1286026D01*
Y1287542D01*
X718352Y1288942D01*
X717280Y1290014D01*
X715880Y1290594D01*
D02*
G37*
G36*
X695560D02*
X694044D01*
X692644Y1290014D01*
X691572Y1288942D01*
X690992Y1287542D01*
Y1286026D01*
X691572Y1284626D01*
X692644Y1283554D01*
X694044Y1282974D01*
X695560D01*
X696960Y1283554D01*
X698032Y1284626D01*
X698612Y1286026D01*
Y1287542D01*
X698032Y1288942D01*
X696960Y1290014D01*
X695560Y1290594D01*
D02*
G37*
G36*
X775570Y1270274D02*
X774054D01*
X772654Y1269694D01*
X771582Y1268622D01*
X771002Y1267222D01*
Y1265706D01*
X771582Y1264306D01*
X772654Y1263234D01*
X774054Y1262654D01*
X775570D01*
X776970Y1263234D01*
X778042Y1264306D01*
X778622Y1265706D01*
Y1267222D01*
X778042Y1268622D01*
X776970Y1269694D01*
X775570Y1270274D01*
D02*
G37*
G36*
X755250D02*
X753734D01*
X752334Y1269694D01*
X751262Y1268622D01*
X750682Y1267222D01*
Y1265706D01*
X751262Y1264306D01*
X752334Y1263234D01*
X753734Y1262654D01*
X755250D01*
X756650Y1263234D01*
X757722Y1264306D01*
X758302Y1265706D01*
Y1267222D01*
X757722Y1268622D01*
X756650Y1269694D01*
X755250Y1270274D01*
D02*
G37*
G36*
X736200D02*
X734684D01*
X733284Y1269694D01*
X732212Y1268622D01*
X731632Y1267222D01*
Y1265706D01*
X732212Y1264306D01*
X733284Y1263234D01*
X734684Y1262654D01*
X736200D01*
X737600Y1263234D01*
X738672Y1264306D01*
X739252Y1265706D01*
Y1267222D01*
X738672Y1268622D01*
X737600Y1269694D01*
X736200Y1270274D01*
D02*
G37*
G36*
X715880D02*
X714364D01*
X712964Y1269694D01*
X711892Y1268622D01*
X711312Y1267222D01*
Y1265706D01*
X711892Y1264306D01*
X712964Y1263234D01*
X714364Y1262654D01*
X715880D01*
X717280Y1263234D01*
X718352Y1264306D01*
X718932Y1265706D01*
Y1267222D01*
X718352Y1268622D01*
X717280Y1269694D01*
X715880Y1270274D01*
D02*
G37*
G36*
X695560D02*
X694044D01*
X692644Y1269694D01*
X691572Y1268622D01*
X690992Y1267222D01*
Y1265706D01*
X691572Y1264306D01*
X692644Y1263234D01*
X694044Y1262654D01*
X695560D01*
X696960Y1263234D01*
X698032Y1264306D01*
X698612Y1265706D01*
Y1267222D01*
X698032Y1268622D01*
X696960Y1269694D01*
X695560Y1270274D01*
D02*
G37*
G36*
X827020Y1307990D02*
X821780D01*
X816606Y1307171D01*
X811623Y1305552D01*
X806954Y1303173D01*
X802716Y1300093D01*
X799011Y1296389D01*
X795931Y1292150D01*
X793553Y1287482D01*
X791934Y1282499D01*
X791114Y1277324D01*
Y1272085D01*
X791934Y1266910D01*
X793553Y1261927D01*
X795931Y1257259D01*
X799011Y1253020D01*
X802716Y1249315D01*
X806954Y1246236D01*
X811623Y1243857D01*
X816606Y1242238D01*
X821780Y1241418D01*
X827020D01*
X832195Y1242238D01*
X837178Y1243857D01*
X841846Y1246236D01*
X846084Y1249315D01*
X849789Y1253020D01*
X852869Y1257259D01*
X855247Y1261927D01*
X856867Y1266910D01*
X857686Y1272085D01*
Y1277324D01*
X856867Y1282499D01*
X855247Y1287482D01*
X852869Y1292150D01*
X849789Y1296389D01*
X846084Y1300093D01*
X841846Y1303173D01*
X837178Y1305552D01*
X832195Y1307171D01*
X827020Y1307990D01*
D02*
G37*
G36*
X883147Y1183302D02*
X881833D01*
X880620Y1182800D01*
X879691Y1181871D01*
X879188Y1180657D01*
Y1179343D01*
X879691Y1178130D01*
X880620Y1177201D01*
X881833Y1176698D01*
X883147D01*
X884361Y1177201D01*
X885289Y1178130D01*
X885792Y1179343D01*
Y1180657D01*
X885289Y1181871D01*
X884361Y1182800D01*
X883147Y1183302D01*
D02*
G37*
G36*
X903147Y1163302D02*
X901833D01*
X900620Y1162800D01*
X899691Y1161871D01*
X899188Y1160657D01*
Y1159343D01*
X899691Y1158130D01*
X900620Y1157201D01*
X901833Y1156698D01*
X903147D01*
X904361Y1157201D01*
X905290Y1158130D01*
X905792Y1159343D01*
Y1160657D01*
X905290Y1161871D01*
X904361Y1162800D01*
X903147Y1163302D01*
D02*
G37*
G36*
X883147D02*
X881833D01*
X880620Y1162800D01*
X879691Y1161871D01*
X879188Y1160657D01*
Y1159343D01*
X879691Y1158130D01*
X880620Y1157201D01*
X881833Y1156698D01*
X883147D01*
X884361Y1157201D01*
X885289Y1158130D01*
X885792Y1159343D01*
Y1160657D01*
X885289Y1161871D01*
X884361Y1162800D01*
X883147Y1163302D01*
D02*
G37*
G36*
X903147Y1143302D02*
X901833D01*
X900620Y1142800D01*
X899691Y1141871D01*
X899188Y1140657D01*
Y1139343D01*
X899691Y1138130D01*
X900620Y1137201D01*
X901833Y1136698D01*
X903147D01*
X904361Y1137201D01*
X905290Y1138130D01*
X905792Y1139343D01*
Y1140657D01*
X905290Y1141871D01*
X904361Y1142800D01*
X903147Y1143302D01*
D02*
G37*
G36*
X883147D02*
X881833D01*
X880620Y1142800D01*
X879691Y1141871D01*
X879188Y1140657D01*
Y1139343D01*
X879691Y1138130D01*
X880620Y1137201D01*
X881833Y1136698D01*
X883147D01*
X884361Y1137201D01*
X885289Y1138130D01*
X885792Y1139343D01*
Y1140657D01*
X885289Y1141871D01*
X884361Y1142800D01*
X883147Y1143302D01*
D02*
G37*
G36*
X913295Y1133391D02*
X911981D01*
X910767Y1132888D01*
X909838Y1131960D01*
X909336Y1130746D01*
Y1129432D01*
X909838Y1128219D01*
X910767Y1127290D01*
X911981Y1126787D01*
X913295D01*
X914508Y1127290D01*
X915437Y1128219D01*
X915940Y1129432D01*
Y1130746D01*
X915437Y1131960D01*
X914508Y1132888D01*
X913295Y1133391D01*
D02*
G37*
G36*
X903147Y1133302D02*
X901833D01*
X900620Y1132800D01*
X899691Y1131871D01*
X899188Y1130657D01*
Y1129343D01*
X899691Y1128130D01*
X900620Y1127201D01*
X901833Y1126698D01*
X903147D01*
X904361Y1127201D01*
X905290Y1128130D01*
X905792Y1129343D01*
Y1130657D01*
X905290Y1131871D01*
X904361Y1132800D01*
X903147Y1133302D01*
D02*
G37*
G36*
X923147Y1133302D02*
X921833D01*
X920620Y1132799D01*
X919691Y1131870D01*
X919188Y1130657D01*
Y1129343D01*
X919691Y1128129D01*
X920620Y1127200D01*
X921833Y1126698D01*
X923147D01*
X924361Y1127200D01*
X925289Y1128129D01*
X925792Y1129343D01*
Y1130657D01*
X925289Y1131870D01*
X924361Y1132799D01*
X923147Y1133302D01*
D02*
G37*
G36*
X883167Y1123303D02*
X881853D01*
X880640Y1122800D01*
X879711Y1121871D01*
X879208Y1120657D01*
Y1119344D01*
X879711Y1118130D01*
X880640Y1117201D01*
X881853Y1116699D01*
X883167D01*
X884380Y1117201D01*
X885309Y1118130D01*
X885812Y1119344D01*
Y1120657D01*
X885309Y1121871D01*
X884380Y1122800D01*
X883167Y1123303D01*
D02*
G37*
G36*
X933147Y1123302D02*
X931833D01*
X930620Y1122800D01*
X929691Y1121871D01*
X929188Y1120657D01*
Y1119343D01*
X929691Y1118130D01*
X930620Y1117201D01*
X931833Y1116698D01*
X933147D01*
X934361Y1117201D01*
X935289Y1118130D01*
X935792Y1119343D01*
Y1120657D01*
X935289Y1121871D01*
X934361Y1122800D01*
X933147Y1123302D01*
D02*
G37*
G36*
X913147D02*
X911833D01*
X910620Y1122800D01*
X909691Y1121871D01*
X909188Y1120657D01*
Y1119343D01*
X909691Y1118130D01*
X910620Y1117201D01*
X911833Y1116698D01*
X913147D01*
X914361Y1117201D01*
X915289Y1118130D01*
X915792Y1119343D01*
Y1120657D01*
X915289Y1121871D01*
X914361Y1122800D01*
X913147Y1123302D01*
D02*
G37*
G36*
X893167Y1113303D02*
X891853D01*
X890640Y1112800D01*
X889711Y1111871D01*
X889208Y1110657D01*
Y1109344D01*
X889711Y1108130D01*
X890640Y1107201D01*
X891853Y1106699D01*
X893167D01*
X894380Y1107201D01*
X895309Y1108130D01*
X895812Y1109344D01*
Y1110657D01*
X895309Y1111871D01*
X894380Y1112800D01*
X893167Y1113303D01*
D02*
G37*
G36*
X903167Y1113302D02*
X901853D01*
X900640Y1112800D01*
X899711Y1111871D01*
X899208Y1110657D01*
Y1109344D01*
X899711Y1108130D01*
X900640Y1107201D01*
X901853Y1106698D01*
X903167D01*
X904380Y1107201D01*
X905309Y1108130D01*
X905812Y1109344D01*
Y1110657D01*
X905309Y1111871D01*
X904380Y1112800D01*
X903167Y1113302D01*
D02*
G37*
G36*
X913167Y1103302D02*
X911853D01*
X910639Y1102800D01*
X909710Y1101871D01*
X909208Y1100657D01*
Y1099343D01*
X909710Y1098130D01*
X910639Y1097201D01*
X911853Y1096698D01*
X913167D01*
X914380Y1097201D01*
X915309Y1098130D01*
X915812Y1099343D01*
Y1100657D01*
X915309Y1101871D01*
X914380Y1102800D01*
X913167Y1103302D01*
D02*
G37*
G36*
X953167Y1103302D02*
X951853D01*
X950640Y1102800D01*
X949711Y1101871D01*
X949208Y1100657D01*
Y1099343D01*
X949711Y1098130D01*
X950640Y1097201D01*
X951853Y1096698D01*
X953167D01*
X954380Y1097201D01*
X955309Y1098130D01*
X955812Y1099343D01*
Y1100657D01*
X955309Y1101871D01*
X954380Y1102800D01*
X953167Y1103302D01*
D02*
G37*
G36*
X933167D02*
X931853D01*
X930640Y1102800D01*
X929711Y1101871D01*
X929208Y1100657D01*
Y1099343D01*
X929711Y1098130D01*
X930640Y1097201D01*
X931853Y1096698D01*
X933167D01*
X934380Y1097201D01*
X935309Y1098130D01*
X935812Y1099343D01*
Y1100657D01*
X935309Y1101871D01*
X934380Y1102800D01*
X933167Y1103302D01*
D02*
G37*
G36*
X943167Y1103302D02*
X941853D01*
X940640Y1102800D01*
X939711Y1101871D01*
X939208Y1100657D01*
Y1099343D01*
X939711Y1098130D01*
X940640Y1097201D01*
X941853Y1096698D01*
X943167D01*
X944380Y1097201D01*
X945309Y1098130D01*
X945812Y1099343D01*
Y1100657D01*
X945309Y1101871D01*
X944380Y1102800D01*
X943167Y1103302D01*
D02*
G37*
G36*
X923247Y1103223D02*
X921933D01*
X920719Y1102720D01*
X919790Y1101791D01*
X919288Y1100577D01*
Y1099264D01*
X919790Y1098050D01*
X920719Y1097121D01*
X921933Y1096619D01*
X923247D01*
X924460Y1097121D01*
X925389Y1098050D01*
X925892Y1099264D01*
Y1100577D01*
X925389Y1101791D01*
X924460Y1102720D01*
X923247Y1103223D01*
D02*
G37*
G36*
X893207D02*
X891893D01*
X890679Y1102720D01*
X889751Y1101791D01*
X889248Y1100577D01*
Y1099264D01*
X889751Y1098050D01*
X890679Y1097121D01*
X891893Y1096619D01*
X893207D01*
X894420Y1097121D01*
X895349Y1098050D01*
X895852Y1099264D01*
Y1100577D01*
X895349Y1101791D01*
X894420Y1102720D01*
X893207Y1103223D01*
D02*
G37*
G36*
X861207Y1098303D02*
X859893D01*
X858680Y1097800D01*
X857751Y1096871D01*
X857248Y1095657D01*
Y1094344D01*
X857751Y1093130D01*
X858680Y1092201D01*
X859893Y1091699D01*
X861207D01*
X862420Y1092201D01*
X863349Y1093130D01*
X863852Y1094344D01*
Y1095657D01*
X863349Y1096871D01*
X862420Y1097800D01*
X861207Y1098303D01*
D02*
G37*
G36*
X923207Y1093382D02*
X921893D01*
X920679Y1092880D01*
X919751Y1091951D01*
X919248Y1090737D01*
Y1089424D01*
X919751Y1088210D01*
X920679Y1087281D01*
X921893Y1086778D01*
X923207D01*
X924420Y1087281D01*
X925349Y1088210D01*
X925852Y1089424D01*
Y1090737D01*
X925349Y1091951D01*
X924420Y1092880D01*
X923207Y1093382D01*
D02*
G37*
G36*
X893136D02*
X891823D01*
X890609Y1092880D01*
X889680Y1091951D01*
X889177Y1090737D01*
Y1089424D01*
X889680Y1088210D01*
X890609Y1087281D01*
X891823Y1086778D01*
X893136D01*
X894350Y1087281D01*
X895279Y1088210D01*
X895781Y1089424D01*
Y1090737D01*
X895279Y1091951D01*
X894350Y1092880D01*
X893136Y1093382D01*
D02*
G37*
G36*
X953167Y1093302D02*
X951853D01*
X950639Y1092800D01*
X949710Y1091871D01*
X949208Y1090657D01*
Y1089343D01*
X949710Y1088130D01*
X950639Y1087201D01*
X951853Y1086698D01*
X953167D01*
X954380Y1087201D01*
X955309Y1088130D01*
X955812Y1089343D01*
Y1090657D01*
X955309Y1091871D01*
X954380Y1092800D01*
X953167Y1093302D01*
D02*
G37*
G36*
X933247D02*
X931933D01*
X930719Y1092800D01*
X929790Y1091871D01*
X929288Y1090657D01*
Y1089343D01*
X929790Y1088130D01*
X930719Y1087201D01*
X931933Y1086698D01*
X933247D01*
X934460Y1087201D01*
X935389Y1088130D01*
X935892Y1089343D01*
Y1090657D01*
X935389Y1091871D01*
X934460Y1092800D01*
X933247Y1093302D01*
D02*
G37*
G36*
X943167Y1093302D02*
X941853D01*
X940639Y1092800D01*
X939710Y1091871D01*
X939208Y1090657D01*
Y1089343D01*
X939710Y1088130D01*
X940639Y1087201D01*
X941853Y1086698D01*
X943167D01*
X944380Y1087201D01*
X945309Y1088130D01*
X945812Y1089343D01*
Y1090657D01*
X945309Y1091871D01*
X944380Y1092800D01*
X943167Y1093302D01*
D02*
G37*
G36*
X913167Y1093302D02*
X911853D01*
X910640Y1092800D01*
X909711Y1091871D01*
X909208Y1090657D01*
Y1089343D01*
X909711Y1088130D01*
X910640Y1087201D01*
X911853Y1086698D01*
X913167D01*
X914380Y1087201D01*
X915309Y1088130D01*
X915812Y1089343D01*
Y1090657D01*
X915309Y1091871D01*
X914380Y1092800D01*
X913167Y1093302D01*
D02*
G37*
G36*
X883157D02*
X881843D01*
X880630Y1092800D01*
X879701Y1091871D01*
X879198Y1090657D01*
Y1089343D01*
X879701Y1088130D01*
X880630Y1087201D01*
X881843Y1086698D01*
X883157D01*
X884370Y1087201D01*
X885299Y1088130D01*
X885802Y1089343D01*
Y1090657D01*
X885299Y1091871D01*
X884370Y1092800D01*
X883157Y1093302D01*
D02*
G37*
G36*
X567178Y1093470D02*
X565662D01*
X564262Y1092890D01*
X563190Y1091818D01*
X562610Y1090418D01*
Y1088902D01*
X563190Y1087502D01*
X564262Y1086430D01*
X565662Y1085850D01*
X567178D01*
X568578Y1086430D01*
X569650Y1087502D01*
X570230Y1088902D01*
Y1090418D01*
X569650Y1091818D01*
X568578Y1092890D01*
X567178Y1093470D01*
D02*
G37*
G36*
X550668D02*
X549152D01*
X547752Y1092890D01*
X546680Y1091818D01*
X546100Y1090418D01*
Y1088902D01*
X546680Y1087502D01*
X547752Y1086430D01*
X549152Y1085850D01*
X550668D01*
X552068Y1086430D01*
X553140Y1087502D01*
X553720Y1088902D01*
Y1090418D01*
X553140Y1091818D01*
X552068Y1092890D01*
X550668Y1093470D01*
D02*
G37*
G36*
X581148Y1090930D02*
X579632D01*
X578232Y1090350D01*
X577160Y1089278D01*
X576580Y1087878D01*
Y1086362D01*
X577160Y1084962D01*
X578232Y1083890D01*
X579632Y1083310D01*
X581148D01*
X582548Y1083890D01*
X583620Y1084962D01*
X584200Y1086362D01*
Y1087878D01*
X583620Y1089278D01*
X582548Y1090350D01*
X581148Y1090930D01*
D02*
G37*
G36*
X537968Y1089660D02*
X536452D01*
X535052Y1089080D01*
X533980Y1088008D01*
X533400Y1086608D01*
Y1085092D01*
X533980Y1083692D01*
X535052Y1082620D01*
X536452Y1082040D01*
X537968D01*
X539368Y1082620D01*
X540440Y1083692D01*
X541020Y1085092D01*
Y1086608D01*
X540440Y1088008D01*
X539368Y1089080D01*
X537968Y1089660D01*
D02*
G37*
G36*
X902975Y1082568D02*
X901965D01*
X901031Y1082181D01*
X900317Y1081467D01*
X899930Y1080533D01*
Y1079523D01*
X900317Y1078589D01*
X901031Y1077875D01*
X901965Y1077488D01*
X902975D01*
X903909Y1077875D01*
X904623Y1078589D01*
X905010Y1079523D01*
Y1080533D01*
X904623Y1081467D01*
X903909Y1082181D01*
X902975Y1082568D01*
D02*
G37*
G36*
X913015Y1082540D02*
X912005D01*
X911071Y1082153D01*
X910357Y1081439D01*
X909970Y1080506D01*
Y1079495D01*
X910357Y1078561D01*
X911071Y1077847D01*
X912005Y1077460D01*
X913015D01*
X913949Y1077847D01*
X914663Y1078561D01*
X915050Y1079495D01*
Y1080506D01*
X914663Y1081439D01*
X913949Y1082153D01*
X913015Y1082540D01*
D02*
G37*
G36*
X933127Y1083336D02*
X931813D01*
X930600Y1082833D01*
X929671Y1081905D01*
X929168Y1080691D01*
Y1079377D01*
X929671Y1078164D01*
X930600Y1077235D01*
X931813Y1076732D01*
X933127D01*
X934341Y1077235D01*
X935269Y1078164D01*
X935772Y1079377D01*
Y1080691D01*
X935269Y1081905D01*
X934341Y1082833D01*
X933127Y1083336D01*
D02*
G37*
G36*
X953157Y1083302D02*
X951843D01*
X950630Y1082800D01*
X949701Y1081871D01*
X949198Y1080657D01*
Y1079343D01*
X949701Y1078130D01*
X950630Y1077201D01*
X951843Y1076698D01*
X953157D01*
X954370Y1077201D01*
X955299Y1078130D01*
X955802Y1079343D01*
Y1080657D01*
X955299Y1081871D01*
X954370Y1082800D01*
X953157Y1083302D01*
D02*
G37*
G36*
X943157Y1083292D02*
X941843D01*
X940630Y1082790D01*
X939701Y1081861D01*
X939198Y1080647D01*
Y1079333D01*
X939701Y1078120D01*
X940630Y1077191D01*
X941843Y1076688D01*
X943157D01*
X944370Y1077191D01*
X945299Y1078120D01*
X945802Y1079333D01*
Y1080647D01*
X945299Y1081861D01*
X944370Y1082790D01*
X943157Y1083292D01*
D02*
G37*
G36*
X560828Y1079500D02*
X559312D01*
X557912Y1078920D01*
X556840Y1077848D01*
X556260Y1076448D01*
Y1074932D01*
X556840Y1073532D01*
X557912Y1072460D01*
X559312Y1071880D01*
X560828D01*
X562228Y1072460D01*
X563300Y1073532D01*
X563880Y1074932D01*
Y1076448D01*
X563300Y1077848D01*
X562228Y1078920D01*
X560828Y1079500D01*
D02*
G37*
G36*
X537968D02*
X536452D01*
X535052Y1078920D01*
X533980Y1077848D01*
X533400Y1076448D01*
Y1074932D01*
X533980Y1073532D01*
X535052Y1072460D01*
X536452Y1071880D01*
X537968D01*
X539368Y1072460D01*
X540440Y1073532D01*
X541020Y1074932D01*
Y1076448D01*
X540440Y1077848D01*
X539368Y1078920D01*
X537968Y1079500D01*
D02*
G37*
G36*
X868167Y1078302D02*
X866853D01*
X865640Y1077800D01*
X864711Y1076871D01*
X864208Y1075657D01*
Y1074343D01*
X864711Y1073130D01*
X865640Y1072201D01*
X866853Y1071698D01*
X868167D01*
X869380Y1072201D01*
X870309Y1073130D01*
X870812Y1074343D01*
Y1075657D01*
X870309Y1076871D01*
X869380Y1077800D01*
X868167Y1078302D01*
D02*
G37*
G36*
X933206Y1073302D02*
X931892D01*
X930679Y1072800D01*
X929750Y1071871D01*
X929247Y1070657D01*
Y1069343D01*
X929750Y1068130D01*
X930679Y1067201D01*
X931892Y1066698D01*
X933206D01*
X934419Y1067201D01*
X935348Y1068130D01*
X935851Y1069343D01*
Y1070657D01*
X935348Y1071871D01*
X934419Y1072800D01*
X933206Y1073302D01*
D02*
G37*
G36*
X923167D02*
X921853D01*
X920640Y1072800D01*
X919711Y1071871D01*
X919208Y1070657D01*
Y1069343D01*
X919711Y1068130D01*
X920640Y1067201D01*
X921853Y1066698D01*
X923167D01*
X924380Y1067201D01*
X925309Y1068130D01*
X925812Y1069343D01*
Y1070657D01*
X925309Y1071871D01*
X924380Y1072800D01*
X923167Y1073302D01*
D02*
G37*
G36*
X893167D02*
X891853D01*
X890640Y1072800D01*
X889711Y1071871D01*
X889208Y1070657D01*
Y1069343D01*
X889711Y1068130D01*
X890640Y1067201D01*
X891853Y1066698D01*
X893167D01*
X894380Y1067201D01*
X895309Y1068130D01*
X895812Y1069343D01*
Y1070657D01*
X895309Y1071871D01*
X894380Y1072800D01*
X893167Y1073302D01*
D02*
G37*
G36*
X537968Y1068070D02*
X536452D01*
X535052Y1067490D01*
X533980Y1066418D01*
X533400Y1065018D01*
Y1063502D01*
X533980Y1062102D01*
X535052Y1061030D01*
X536452Y1060450D01*
X537968D01*
X539368Y1061030D01*
X540440Y1062102D01*
X541020Y1063502D01*
Y1065018D01*
X540440Y1066418D01*
X539368Y1067490D01*
X537968Y1068070D01*
D02*
G37*
G36*
X893005Y1062540D02*
X891995D01*
X891061Y1062154D01*
X890347Y1061439D01*
X889960Y1060506D01*
Y1059495D01*
X890347Y1058561D01*
X891061Y1057847D01*
X891995Y1057460D01*
X893005D01*
X893939Y1057847D01*
X894653Y1058561D01*
X895040Y1059495D01*
Y1060506D01*
X894653Y1061439D01*
X893939Y1062154D01*
X893005Y1062540D01*
D02*
G37*
G36*
X883005D02*
X881995D01*
X881061Y1062154D01*
X880347Y1061439D01*
X879960Y1060506D01*
Y1059495D01*
X880347Y1058561D01*
X881061Y1057847D01*
X881995Y1057460D01*
X883005D01*
X883939Y1057847D01*
X884653Y1058561D01*
X885040Y1059495D01*
Y1060506D01*
X884653Y1061439D01*
X883939Y1062154D01*
X883005Y1062540D01*
D02*
G37*
G36*
X933167Y1063302D02*
X931853D01*
X930639Y1062800D01*
X929711Y1061871D01*
X929208Y1060657D01*
Y1059343D01*
X929711Y1058130D01*
X930639Y1057201D01*
X931853Y1056698D01*
X933167D01*
X934380Y1057201D01*
X935309Y1058130D01*
X935812Y1059343D01*
Y1060657D01*
X935309Y1061871D01*
X934380Y1062800D01*
X933167Y1063302D01*
D02*
G37*
G36*
X873157Y1063293D02*
X871843D01*
X870630Y1062790D01*
X869701Y1061861D01*
X869198Y1060647D01*
Y1059334D01*
X869701Y1058120D01*
X870630Y1057191D01*
X871843Y1056689D01*
X873157D01*
X874370Y1057191D01*
X875299Y1058120D01*
X875802Y1059334D01*
Y1060647D01*
X875299Y1061861D01*
X874370Y1062790D01*
X873157Y1063293D01*
D02*
G37*
G36*
X537968Y1056640D02*
X536452D01*
X535052Y1056060D01*
X533980Y1054988D01*
X533400Y1053588D01*
Y1052072D01*
X533980Y1050672D01*
X535052Y1049600D01*
X536452Y1049020D01*
X537968D01*
X539368Y1049600D01*
X540440Y1050672D01*
X541020Y1052072D01*
Y1053588D01*
X540440Y1054988D01*
X539368Y1056060D01*
X537968Y1056640D01*
D02*
G37*
G36*
X903167Y1053303D02*
X901853D01*
X900639Y1052800D01*
X899711Y1051871D01*
X899208Y1050658D01*
Y1049344D01*
X899711Y1048130D01*
X900639Y1047201D01*
X901853Y1046699D01*
X903167D01*
X904380Y1047201D01*
X905309Y1048130D01*
X905812Y1049344D01*
Y1050658D01*
X905309Y1051871D01*
X904380Y1052800D01*
X903167Y1053303D01*
D02*
G37*
G36*
X933167Y1053302D02*
X931853D01*
X930640Y1052800D01*
X929711Y1051871D01*
X929208Y1050657D01*
Y1049344D01*
X929711Y1048130D01*
X930640Y1047201D01*
X931853Y1046698D01*
X933167D01*
X934380Y1047201D01*
X935309Y1048130D01*
X935812Y1049344D01*
Y1050657D01*
X935309Y1051871D01*
X934380Y1052800D01*
X933167Y1053302D01*
D02*
G37*
G36*
X893167Y1053302D02*
X891853D01*
X890640Y1052800D01*
X889711Y1051871D01*
X889208Y1050657D01*
Y1049343D01*
X889711Y1048130D01*
X890640Y1047201D01*
X891853Y1046698D01*
X893167D01*
X894381Y1047201D01*
X895309Y1048130D01*
X895812Y1049343D01*
Y1050657D01*
X895309Y1051871D01*
X894381Y1052800D01*
X893167Y1053302D01*
D02*
G37*
G36*
X913167Y1053302D02*
X911853D01*
X910640Y1052800D01*
X909711Y1051871D01*
X909208Y1050657D01*
Y1049343D01*
X909711Y1048130D01*
X910640Y1047201D01*
X911853Y1046698D01*
X913167D01*
X914380Y1047201D01*
X915309Y1048130D01*
X915812Y1049343D01*
Y1050657D01*
X915309Y1051871D01*
X914380Y1052800D01*
X913167Y1053302D01*
D02*
G37*
G36*
X868167Y1048303D02*
X866853D01*
X865640Y1047800D01*
X864711Y1046871D01*
X864208Y1045658D01*
Y1044344D01*
X864711Y1043130D01*
X865640Y1042201D01*
X866853Y1041699D01*
X868167D01*
X869380Y1042201D01*
X870309Y1043130D01*
X870812Y1044344D01*
Y1045658D01*
X870309Y1046871D01*
X869380Y1047800D01*
X868167Y1048303D01*
D02*
G37*
G36*
X923166Y1043302D02*
X921853D01*
X920639Y1042800D01*
X919710Y1041871D01*
X919208Y1040657D01*
Y1039344D01*
X919710Y1038130D01*
X920639Y1037201D01*
X921853Y1036698D01*
X923166D01*
X924380Y1037201D01*
X925309Y1038130D01*
X925812Y1039344D01*
Y1040657D01*
X925309Y1041871D01*
X924380Y1042800D01*
X923166Y1043302D01*
D02*
G37*
G36*
X903167Y1043302D02*
X901853D01*
X900640Y1042800D01*
X899711Y1041871D01*
X899208Y1040657D01*
Y1039343D01*
X899711Y1038130D01*
X900640Y1037201D01*
X901853Y1036698D01*
X903167D01*
X904380Y1037201D01*
X905309Y1038130D01*
X905812Y1039343D01*
Y1040657D01*
X905309Y1041871D01*
X904380Y1042800D01*
X903167Y1043302D01*
D02*
G37*
G36*
X622056Y1039894D02*
X620945D01*
X619918Y1039469D01*
X619132Y1038683D01*
X618706Y1037656D01*
Y1036544D01*
X619132Y1035518D01*
X619918Y1034732D01*
X620945Y1034306D01*
X622056D01*
X623083Y1034732D01*
X623869Y1035518D01*
X624294Y1036544D01*
Y1037656D01*
X623869Y1038683D01*
X623083Y1039469D01*
X622056Y1039894D01*
D02*
G37*
G36*
X614056D02*
X612944D01*
X611918Y1039469D01*
X611132Y1038683D01*
X610706Y1037656D01*
Y1036544D01*
X611132Y1035518D01*
X611918Y1034732D01*
X612944Y1034306D01*
X614056D01*
X615083Y1034732D01*
X615869Y1035518D01*
X616294Y1036544D01*
Y1037656D01*
X615869Y1038683D01*
X615083Y1039469D01*
X614056Y1039894D01*
D02*
G37*
G36*
X606056D02*
X604944D01*
X603918Y1039469D01*
X603132Y1038683D01*
X602706Y1037656D01*
Y1036544D01*
X603132Y1035518D01*
X603918Y1034732D01*
X604944Y1034306D01*
X606056D01*
X607083Y1034732D01*
X607869Y1035518D01*
X608294Y1036544D01*
Y1037656D01*
X607869Y1038683D01*
X607083Y1039469D01*
X606056Y1039894D01*
D02*
G37*
G36*
X560796D02*
X559684D01*
X558657Y1039469D01*
X557871Y1038683D01*
X557446Y1037656D01*
Y1036544D01*
X557871Y1035518D01*
X558657Y1034732D01*
X559684Y1034306D01*
X560796D01*
X561823Y1034732D01*
X562609Y1035518D01*
X563034Y1036544D01*
Y1037656D01*
X562609Y1038683D01*
X561823Y1039469D01*
X560796Y1039894D01*
D02*
G37*
G36*
X868167Y1038322D02*
X866853D01*
X865640Y1037820D01*
X864711Y1036891D01*
X864208Y1035677D01*
Y1034363D01*
X864711Y1033150D01*
X865640Y1032221D01*
X866853Y1031718D01*
X868167D01*
X869380Y1032221D01*
X870309Y1033150D01*
X870812Y1034363D01*
Y1035677D01*
X870309Y1036891D01*
X869380Y1037820D01*
X868167Y1038322D01*
D02*
G37*
G36*
X548615Y1035364D02*
X547504D01*
X546477Y1034939D01*
X545691Y1034153D01*
X545266Y1033126D01*
Y1032015D01*
X545691Y1030988D01*
X546477Y1030202D01*
X547504Y1029776D01*
X548615D01*
X549642Y1030202D01*
X550428Y1030988D01*
X550854Y1032015D01*
Y1033126D01*
X550428Y1034153D01*
X549642Y1034939D01*
X548615Y1035364D01*
D02*
G37*
G36*
X570135Y1034657D02*
X569023D01*
X567996Y1034231D01*
X567210Y1033445D01*
X566785Y1032418D01*
Y1031307D01*
X567210Y1030280D01*
X567996Y1029494D01*
X569023Y1029069D01*
X570135D01*
X571161Y1029494D01*
X571947Y1030280D01*
X572373Y1031307D01*
Y1032418D01*
X571947Y1033445D01*
X571161Y1034231D01*
X570135Y1034657D01*
D02*
G37*
G36*
X533491Y1034518D02*
X532379D01*
X531352Y1034092D01*
X530566Y1033306D01*
X530141Y1032280D01*
Y1031168D01*
X530566Y1030141D01*
X531352Y1029355D01*
X532379Y1028930D01*
X533491D01*
X534518Y1029355D01*
X535304Y1030141D01*
X535729Y1031168D01*
Y1032280D01*
X535304Y1033306D01*
X534518Y1034092D01*
X533491Y1034518D01*
D02*
G37*
G36*
X893166Y1033322D02*
X891852D01*
X890639Y1032819D01*
X889710Y1031890D01*
X889207Y1030677D01*
Y1029363D01*
X889710Y1028150D01*
X890639Y1027221D01*
X891852Y1026718D01*
X893166D01*
X894380Y1027221D01*
X895309Y1028150D01*
X895811Y1029363D01*
Y1030677D01*
X895309Y1031890D01*
X894380Y1032819D01*
X893166Y1033322D01*
D02*
G37*
G36*
X933167Y1033303D02*
X931853D01*
X930640Y1032800D01*
X929711Y1031871D01*
X929208Y1030657D01*
Y1029344D01*
X929711Y1028130D01*
X930640Y1027201D01*
X931853Y1026699D01*
X933167D01*
X934381Y1027201D01*
X935310Y1028130D01*
X935812Y1029344D01*
Y1030657D01*
X935310Y1031871D01*
X934381Y1032800D01*
X933167Y1033303D01*
D02*
G37*
G36*
X943167Y1033302D02*
X941853D01*
X940640Y1032800D01*
X939711Y1031871D01*
X939208Y1030657D01*
Y1029343D01*
X939711Y1028130D01*
X940640Y1027201D01*
X941853Y1026698D01*
X943167D01*
X944380Y1027201D01*
X945309Y1028130D01*
X945812Y1029343D01*
Y1030657D01*
X945309Y1031871D01*
X944380Y1032800D01*
X943167Y1033302D01*
D02*
G37*
G36*
X913167D02*
X911853D01*
X910640Y1032800D01*
X909711Y1031871D01*
X909208Y1030657D01*
Y1029343D01*
X909711Y1028130D01*
X910640Y1027201D01*
X911853Y1026698D01*
X913167D01*
X914380Y1027201D01*
X915309Y1028130D01*
X915812Y1029343D01*
Y1030657D01*
X915309Y1031871D01*
X914380Y1032800D01*
X913167Y1033302D01*
D02*
G37*
G36*
X594056Y1030794D02*
X592945D01*
X591918Y1030369D01*
X591132Y1029583D01*
X590706Y1028556D01*
Y1027445D01*
X591132Y1026418D01*
X591918Y1025632D01*
X592945Y1025206D01*
X594056D01*
X595083Y1025632D01*
X595869Y1026418D01*
X596295Y1027445D01*
Y1028556D01*
X595869Y1029583D01*
X595083Y1030369D01*
X594056Y1030794D01*
D02*
G37*
G36*
X658056Y1030794D02*
X656944D01*
X655917Y1030369D01*
X655132Y1029583D01*
X654706Y1028556D01*
Y1027445D01*
X655132Y1026418D01*
X655917Y1025632D01*
X656944Y1025206D01*
X658056D01*
X659083Y1025632D01*
X659869Y1026418D01*
X660294Y1027445D01*
Y1028556D01*
X659869Y1029583D01*
X659083Y1030369D01*
X658056Y1030794D01*
D02*
G37*
G36*
X650056D02*
X648944D01*
X647917Y1030369D01*
X647131Y1029583D01*
X646706Y1028556D01*
Y1027445D01*
X647131Y1026418D01*
X647917Y1025632D01*
X648944Y1025206D01*
X650056D01*
X651083Y1025632D01*
X651869Y1026418D01*
X652294Y1027445D01*
Y1028556D01*
X651869Y1029583D01*
X651083Y1030369D01*
X650056Y1030794D01*
D02*
G37*
G36*
X578056D02*
X576945D01*
X575918Y1030369D01*
X575132Y1029583D01*
X574707Y1028556D01*
Y1027445D01*
X575132Y1026418D01*
X575918Y1025632D01*
X576945Y1025206D01*
X578056D01*
X579083Y1025632D01*
X579869Y1026418D01*
X580295Y1027445D01*
Y1028556D01*
X579869Y1029583D01*
X579083Y1030369D01*
X578056Y1030794D01*
D02*
G37*
G36*
X530056Y1022795D02*
X528944D01*
X527918Y1022369D01*
X527132Y1021583D01*
X526706Y1020556D01*
Y1019445D01*
X527132Y1018418D01*
X527918Y1017632D01*
X528944Y1017207D01*
X530056D01*
X531083Y1017632D01*
X531869Y1018418D01*
X532294Y1019445D01*
Y1020556D01*
X531869Y1021583D01*
X531083Y1022369D01*
X530056Y1022795D01*
D02*
G37*
G36*
X570056Y1022794D02*
X568944D01*
X567917Y1022369D01*
X567132Y1021583D01*
X566706Y1020556D01*
Y1019445D01*
X567132Y1018418D01*
X567917Y1017632D01*
X568944Y1017206D01*
X570056D01*
X571083Y1017632D01*
X571869Y1018418D01*
X572294Y1019445D01*
Y1020556D01*
X571869Y1021583D01*
X571083Y1022369D01*
X570056Y1022794D01*
D02*
G37*
G36*
X538056Y1022794D02*
X536944D01*
X535918Y1022369D01*
X535131Y1021583D01*
X534706Y1020556D01*
Y1019445D01*
X535131Y1018418D01*
X535918Y1017632D01*
X536944Y1017206D01*
X538056D01*
X539083Y1017632D01*
X539869Y1018418D01*
X540294Y1019445D01*
Y1020556D01*
X539869Y1021583D01*
X539083Y1022369D01*
X538056Y1022794D01*
D02*
G37*
G36*
X546055Y1022794D02*
X544944D01*
X543917Y1022369D01*
X543131Y1021583D01*
X542706Y1020556D01*
Y1019445D01*
X543131Y1018418D01*
X543917Y1017632D01*
X544944Y1017206D01*
X546055D01*
X547082Y1017632D01*
X547868Y1018418D01*
X548294Y1019445D01*
Y1020556D01*
X547868Y1021583D01*
X547082Y1022369D01*
X546055Y1022794D01*
D02*
G37*
G36*
X650056Y1022794D02*
X648944D01*
X647917Y1022369D01*
X647131Y1021583D01*
X646706Y1020556D01*
Y1019445D01*
X647131Y1018418D01*
X647917Y1017632D01*
X648944Y1017206D01*
X650056D01*
X651083Y1017632D01*
X651869Y1018418D01*
X652294Y1019445D01*
Y1020556D01*
X651869Y1021583D01*
X651083Y1022369D01*
X650056Y1022794D01*
D02*
G37*
G36*
X634056D02*
X632944D01*
X631917Y1022369D01*
X631132Y1021583D01*
X630706Y1020556D01*
Y1019445D01*
X631132Y1018418D01*
X631917Y1017632D01*
X632944Y1017206D01*
X634056D01*
X635083Y1017632D01*
X635869Y1018418D01*
X636294Y1019445D01*
Y1020556D01*
X635869Y1021583D01*
X635083Y1022369D01*
X634056Y1022794D01*
D02*
G37*
G36*
X578056D02*
X576944D01*
X575917Y1022369D01*
X575131Y1021583D01*
X574706Y1020556D01*
Y1019445D01*
X575131Y1018418D01*
X575917Y1017632D01*
X576944Y1017206D01*
X578056D01*
X579083Y1017632D01*
X579869Y1018418D01*
X580294Y1019445D01*
Y1020556D01*
X579869Y1021583D01*
X579083Y1022369D01*
X578056Y1022794D01*
D02*
G37*
G36*
X562055D02*
X560944D01*
X559917Y1022369D01*
X559131Y1021583D01*
X558706Y1020556D01*
Y1019445D01*
X559131Y1018418D01*
X559917Y1017632D01*
X560944Y1017206D01*
X562055D01*
X563082Y1017632D01*
X563868Y1018418D01*
X564294Y1019445D01*
Y1020556D01*
X563868Y1021583D01*
X563082Y1022369D01*
X562055Y1022794D01*
D02*
G37*
G36*
X594056Y1022794D02*
X592944D01*
X591917Y1022368D01*
X591132Y1021582D01*
X590706Y1020555D01*
Y1019444D01*
X591132Y1018417D01*
X591917Y1017631D01*
X592944Y1017206D01*
X594056D01*
X595083Y1017631D01*
X595869Y1018417D01*
X596294Y1019444D01*
Y1020555D01*
X595869Y1021582D01*
X595083Y1022368D01*
X594056Y1022794D01*
D02*
G37*
G36*
X913167Y1023302D02*
X911853D01*
X910640Y1022800D01*
X909711Y1021871D01*
X909208Y1020657D01*
Y1019344D01*
X909711Y1018130D01*
X910640Y1017201D01*
X911853Y1016698D01*
X913167D01*
X914380Y1017201D01*
X915309Y1018130D01*
X915812Y1019344D01*
Y1020657D01*
X915309Y1021871D01*
X914380Y1022800D01*
X913167Y1023302D01*
D02*
G37*
G36*
X943157Y1023302D02*
X941843D01*
X940630Y1022800D01*
X939701Y1021871D01*
X939198Y1020657D01*
Y1019343D01*
X939701Y1018130D01*
X940630Y1017201D01*
X941843Y1016698D01*
X943157D01*
X944370Y1017201D01*
X945299Y1018130D01*
X945802Y1019343D01*
Y1020657D01*
X945299Y1021871D01*
X944370Y1022800D01*
X943157Y1023302D01*
D02*
G37*
G36*
X903167D02*
X901853D01*
X900640Y1022800D01*
X899711Y1021871D01*
X899208Y1020657D01*
Y1019343D01*
X899711Y1018130D01*
X900640Y1017201D01*
X901853Y1016698D01*
X903167D01*
X904380Y1017201D01*
X905309Y1018130D01*
X905812Y1019343D01*
Y1020657D01*
X905309Y1021871D01*
X904380Y1022800D01*
X903167Y1023302D01*
D02*
G37*
G36*
X538103Y1014842D02*
X536992D01*
X535965Y1014417D01*
X535179Y1013631D01*
X534753Y1012604D01*
Y1011492D01*
X535179Y1010465D01*
X535965Y1009679D01*
X536992Y1009254D01*
X538103D01*
X539130Y1009679D01*
X539916Y1010465D01*
X540341Y1011492D01*
Y1012604D01*
X539916Y1013631D01*
X539130Y1014417D01*
X538103Y1014842D01*
D02*
G37*
G36*
X578056Y1014795D02*
X576944D01*
X575917Y1014369D01*
X575131Y1013584D01*
X574706Y1012557D01*
Y1011445D01*
X575131Y1010418D01*
X575917Y1009632D01*
X576944Y1009207D01*
X578056D01*
X579083Y1009632D01*
X579869Y1010418D01*
X580294Y1011445D01*
Y1012557D01*
X579869Y1013584D01*
X579083Y1014369D01*
X578056Y1014795D01*
D02*
G37*
G36*
X546056D02*
X544944D01*
X543917Y1014369D01*
X543131Y1013584D01*
X542706Y1012557D01*
Y1011445D01*
X543131Y1010418D01*
X543917Y1009632D01*
X544944Y1009207D01*
X546056D01*
X547083Y1009632D01*
X547868Y1010418D01*
X548294Y1011445D01*
Y1012557D01*
X547868Y1013584D01*
X547083Y1014369D01*
X546056Y1014795D01*
D02*
G37*
G36*
X618056Y1014795D02*
X616945D01*
X615918Y1014369D01*
X615132Y1013583D01*
X614706Y1012557D01*
Y1011445D01*
X615132Y1010418D01*
X615918Y1009632D01*
X616945Y1009207D01*
X618056D01*
X619083Y1009632D01*
X619869Y1010418D01*
X620294Y1011445D01*
Y1012557D01*
X619869Y1013583D01*
X619083Y1014369D01*
X618056Y1014795D01*
D02*
G37*
G36*
X594056Y1014795D02*
X592944D01*
X591917Y1014369D01*
X591131Y1013583D01*
X590706Y1012557D01*
Y1011445D01*
X591131Y1010418D01*
X591917Y1009632D01*
X592944Y1009207D01*
X594056D01*
X595083Y1009632D01*
X595869Y1010418D01*
X596294Y1011445D01*
Y1012557D01*
X595869Y1013583D01*
X595083Y1014369D01*
X594056Y1014795D01*
D02*
G37*
G36*
X650056Y1014794D02*
X648944D01*
X647917Y1014369D01*
X647131Y1013583D01*
X646706Y1012556D01*
Y1011444D01*
X647131Y1010418D01*
X647917Y1009632D01*
X648944Y1009206D01*
X650056D01*
X651083Y1009632D01*
X651869Y1010418D01*
X652294Y1011444D01*
Y1012556D01*
X651869Y1013583D01*
X651083Y1014369D01*
X650056Y1014794D01*
D02*
G37*
G36*
X634056D02*
X632944D01*
X631917Y1014369D01*
X631132Y1013583D01*
X630706Y1012556D01*
Y1011444D01*
X631132Y1010418D01*
X631917Y1009632D01*
X632944Y1009206D01*
X634056D01*
X635083Y1009632D01*
X635869Y1010418D01*
X636294Y1011444D01*
Y1012556D01*
X635869Y1013583D01*
X635083Y1014369D01*
X634056Y1014794D01*
D02*
G37*
G36*
X570056D02*
X568944D01*
X567917Y1014369D01*
X567132Y1013583D01*
X566706Y1012556D01*
Y1011444D01*
X567132Y1010418D01*
X567917Y1009632D01*
X568944Y1009206D01*
X570056D01*
X571083Y1009632D01*
X571869Y1010418D01*
X572294Y1011444D01*
Y1012556D01*
X571869Y1013583D01*
X571083Y1014369D01*
X570056Y1014794D01*
D02*
G37*
G36*
X562056D02*
X560944D01*
X559917Y1014369D01*
X559131Y1013583D01*
X558706Y1012556D01*
Y1011444D01*
X559131Y1010418D01*
X559917Y1009632D01*
X560944Y1009206D01*
X562056D01*
X563083Y1009632D01*
X563869Y1010418D01*
X564294Y1011444D01*
Y1012556D01*
X563869Y1013583D01*
X563083Y1014369D01*
X562056Y1014794D01*
D02*
G37*
G36*
X893166Y1013317D02*
X891853D01*
X890639Y1012815D01*
X889710Y1011886D01*
X889208Y1010672D01*
Y1009359D01*
X889710Y1008145D01*
X890639Y1007216D01*
X891853Y1006713D01*
X893166D01*
X894380Y1007216D01*
X895309Y1008145D01*
X895812Y1009359D01*
Y1010672D01*
X895309Y1011886D01*
X894380Y1012815D01*
X893166Y1013317D01*
D02*
G37*
G36*
X618005Y1006540D02*
X616995D01*
X616061Y1006153D01*
X615347Y1005439D01*
X614960Y1004505D01*
Y1003495D01*
X615347Y1002561D01*
X616061Y1001847D01*
X616995Y1001460D01*
X618005D01*
X618939Y1001847D01*
X619653Y1002561D01*
X620040Y1003495D01*
Y1004505D01*
X619653Y1005439D01*
X618939Y1006153D01*
X618005Y1006540D01*
D02*
G37*
G36*
X610005D02*
X608995D01*
X608061Y1006153D01*
X607347Y1005439D01*
X606960Y1004505D01*
Y1003495D01*
X607347Y1002561D01*
X608061Y1001847D01*
X608995Y1001460D01*
X610005D01*
X610939Y1001847D01*
X611653Y1002561D01*
X612040Y1003495D01*
Y1004505D01*
X611653Y1005439D01*
X610939Y1006153D01*
X610005Y1006540D01*
D02*
G37*
G36*
X594056Y1006794D02*
X592944D01*
X591917Y1006369D01*
X591132Y1005583D01*
X590706Y1004556D01*
Y1003445D01*
X591132Y1002418D01*
X591917Y1001632D01*
X592944Y1001206D01*
X594056D01*
X595083Y1001632D01*
X595869Y1002418D01*
X596294Y1003445D01*
Y1004556D01*
X595869Y1005583D01*
X595083Y1006369D01*
X594056Y1006794D01*
D02*
G37*
G36*
X578056Y1006794D02*
X576944D01*
X575917Y1006369D01*
X575131Y1005583D01*
X574706Y1004556D01*
Y1003445D01*
X575131Y1002418D01*
X575917Y1001632D01*
X576944Y1001206D01*
X578056D01*
X579083Y1001632D01*
X579869Y1002418D01*
X580294Y1003445D01*
Y1004556D01*
X579869Y1005583D01*
X579083Y1006369D01*
X578056Y1006794D01*
D02*
G37*
G36*
X570055Y1006794D02*
X568944D01*
X567917Y1006368D01*
X567131Y1005583D01*
X566706Y1004556D01*
Y1003444D01*
X567131Y1002417D01*
X567917Y1001631D01*
X568944Y1001206D01*
X570055D01*
X571082Y1001631D01*
X571868Y1002417D01*
X572294Y1003444D01*
Y1004556D01*
X571868Y1005583D01*
X571082Y1006368D01*
X570055Y1006794D01*
D02*
G37*
G36*
X553978Y1006793D02*
X552867D01*
X551840Y1006368D01*
X551054Y1005582D01*
X550629Y1004555D01*
Y1003443D01*
X551054Y1002416D01*
X551840Y1001630D01*
X552867Y1001205D01*
X553978D01*
X555005Y1001630D01*
X555791Y1002416D01*
X556217Y1003443D01*
Y1004555D01*
X555791Y1005582D01*
X555005Y1006368D01*
X553978Y1006793D01*
D02*
G37*
G36*
X893167Y1003303D02*
X891853D01*
X890640Y1002800D01*
X889711Y1001871D01*
X889208Y1000657D01*
Y999344D01*
X889711Y998130D01*
X890640Y997201D01*
X891853Y996699D01*
X893167D01*
X894381Y997201D01*
X895310Y998130D01*
X895812Y999344D01*
Y1000657D01*
X895310Y1001871D01*
X894381Y1002800D01*
X893167Y1003303D01*
D02*
G37*
G36*
X883157Y1003302D02*
X881843D01*
X880630Y1002800D01*
X879701Y1001871D01*
X879198Y1000657D01*
Y999343D01*
X879701Y998130D01*
X880630Y997201D01*
X881843Y996698D01*
X883157D01*
X884370Y997201D01*
X885299Y998130D01*
X885802Y999343D01*
Y1000657D01*
X885299Y1001871D01*
X884370Y1002800D01*
X883157Y1003302D01*
D02*
G37*
G36*
X943157Y1003292D02*
X941843D01*
X940630Y1002790D01*
X939701Y1001861D01*
X939198Y1000647D01*
Y999333D01*
X939701Y998120D01*
X940630Y997191D01*
X941843Y996688D01*
X943157D01*
X944370Y997191D01*
X945299Y998120D01*
X945802Y999333D01*
Y1000647D01*
X945299Y1001861D01*
X944370Y1002790D01*
X943157Y1003292D01*
D02*
G37*
G36*
X923157D02*
X921843D01*
X920630Y1002790D01*
X919701Y1001861D01*
X919198Y1000647D01*
Y999333D01*
X919701Y998120D01*
X920630Y997191D01*
X921843Y996688D01*
X923157D01*
X924370Y997191D01*
X925299Y998120D01*
X925802Y999333D01*
Y1000647D01*
X925299Y1001861D01*
X924370Y1002790D01*
X923157Y1003292D01*
D02*
G37*
G36*
X893112Y993302D02*
X891798D01*
X890584Y992800D01*
X889656Y991871D01*
X889153Y990657D01*
Y989343D01*
X889656Y988130D01*
X890584Y987201D01*
X891798Y986698D01*
X893112D01*
X894325Y987201D01*
X895254Y988130D01*
X895757Y989343D01*
Y990657D01*
X895254Y991871D01*
X894325Y992800D01*
X893112Y993302D01*
D02*
G37*
G36*
X923157Y993293D02*
X921843D01*
X920630Y992790D01*
X919701Y991861D01*
X919198Y990648D01*
Y989334D01*
X919701Y988120D01*
X920630Y987191D01*
X921843Y986689D01*
X923157D01*
X924371Y987191D01*
X925300Y988120D01*
X925802Y989334D01*
Y990648D01*
X925300Y991861D01*
X924371Y992790D01*
X923157Y993293D01*
D02*
G37*
G36*
X933157Y993292D02*
X931843D01*
X930630Y992790D01*
X929701Y991861D01*
X929198Y990647D01*
Y989333D01*
X929701Y988120D01*
X930630Y987191D01*
X931843Y986688D01*
X933157D01*
X934370Y987191D01*
X935299Y988120D01*
X935802Y989333D01*
Y990647D01*
X935299Y991861D01*
X934370Y992790D01*
X933157Y993292D01*
D02*
G37*
G36*
X594005Y982540D02*
X592995D01*
X592061Y982153D01*
X591347Y981439D01*
X590960Y980506D01*
Y979495D01*
X591347Y978561D01*
X592061Y977847D01*
X592995Y977460D01*
X594005D01*
X594939Y977847D01*
X595653Y978561D01*
X596040Y979495D01*
Y980506D01*
X595653Y981439D01*
X594939Y982153D01*
X594005Y982540D01*
D02*
G37*
G36*
X586005D02*
X584995D01*
X584061Y982153D01*
X583347Y981439D01*
X582960Y980506D01*
Y979495D01*
X583347Y978561D01*
X584061Y977847D01*
X584995Y977460D01*
X586005D01*
X586939Y977847D01*
X587653Y978561D01*
X588040Y979495D01*
Y980506D01*
X587653Y981439D01*
X586939Y982153D01*
X586005Y982540D01*
D02*
G37*
G36*
X634056Y982794D02*
X632944D01*
X631917Y982369D01*
X631132Y981583D01*
X630706Y980556D01*
Y979445D01*
X631132Y978418D01*
X631917Y977632D01*
X632944Y977206D01*
X634056D01*
X635083Y977632D01*
X635869Y978418D01*
X636294Y979445D01*
Y980556D01*
X635869Y981583D01*
X635083Y982369D01*
X634056Y982794D01*
D02*
G37*
G36*
X610056D02*
X608944D01*
X607917Y982369D01*
X607132Y981583D01*
X606706Y980556D01*
Y979445D01*
X607132Y978418D01*
X607917Y977632D01*
X608944Y977206D01*
X610056D01*
X611083Y977632D01*
X611869Y978418D01*
X612294Y979445D01*
Y980556D01*
X611869Y981583D01*
X611083Y982369D01*
X610056Y982794D01*
D02*
G37*
G36*
X602056D02*
X600944D01*
X599917Y982369D01*
X599131Y981583D01*
X598706Y980556D01*
Y979445D01*
X599131Y978418D01*
X599917Y977632D01*
X600944Y977206D01*
X602056D01*
X603083Y977632D01*
X603869Y978418D01*
X604294Y979445D01*
Y980556D01*
X603869Y981583D01*
X603083Y982369D01*
X602056Y982794D01*
D02*
G37*
G36*
X546055D02*
X544944D01*
X543917Y982369D01*
X543131Y981583D01*
X542706Y980556D01*
Y979445D01*
X543131Y978418D01*
X543917Y977632D01*
X544944Y977206D01*
X546055D01*
X547082Y977632D01*
X547868Y978418D01*
X548294Y979445D01*
Y980556D01*
X547868Y981583D01*
X547082Y982369D01*
X546055Y982794D01*
D02*
G37*
G36*
X618056Y982794D02*
X616944D01*
X615917Y982369D01*
X615131Y981583D01*
X614706Y980556D01*
Y979444D01*
X615131Y978417D01*
X615917Y977631D01*
X616944Y977206D01*
X618056D01*
X619083Y977631D01*
X619869Y978417D01*
X620294Y979444D01*
Y980556D01*
X619869Y981583D01*
X619083Y982369D01*
X618056Y982794D01*
D02*
G37*
G36*
X658056Y982794D02*
X656944D01*
X655917Y982369D01*
X655131Y981583D01*
X654706Y980556D01*
Y979444D01*
X655131Y978417D01*
X655917Y977631D01*
X656944Y977206D01*
X658056D01*
X659083Y977631D01*
X659869Y978417D01*
X660294Y979444D01*
Y980556D01*
X659869Y981583D01*
X659083Y982369D01*
X658056Y982794D01*
D02*
G37*
G36*
X538055Y974794D02*
X536944D01*
X535917Y974369D01*
X535131Y973583D01*
X534706Y972556D01*
Y971444D01*
X535131Y970418D01*
X535917Y969632D01*
X536944Y969206D01*
X538055D01*
X539082Y969632D01*
X539868Y970418D01*
X540294Y971444D01*
Y972556D01*
X539868Y973583D01*
X539082Y974369D01*
X538055Y974794D01*
D02*
G37*
G36*
X658056Y974794D02*
X656944D01*
X655917Y974369D01*
X655132Y973583D01*
X654706Y972556D01*
Y971444D01*
X655132Y970418D01*
X655917Y969632D01*
X656944Y969206D01*
X658056D01*
X659083Y969632D01*
X659869Y970418D01*
X660294Y971444D01*
Y972556D01*
X659869Y973583D01*
X659083Y974369D01*
X658056Y974794D01*
D02*
G37*
G36*
X650056D02*
X648944D01*
X647917Y974369D01*
X647131Y973583D01*
X646706Y972556D01*
Y971444D01*
X647131Y970418D01*
X647917Y969632D01*
X648944Y969206D01*
X650056D01*
X651083Y969632D01*
X651869Y970418D01*
X652294Y971444D01*
Y972556D01*
X651869Y973583D01*
X651083Y974369D01*
X650056Y974794D01*
D02*
G37*
G36*
X634056D02*
X632944D01*
X631917Y974369D01*
X631132Y973583D01*
X630706Y972556D01*
Y971444D01*
X631132Y970418D01*
X631917Y969632D01*
X632944Y969206D01*
X634056D01*
X635083Y969632D01*
X635869Y970418D01*
X636294Y971444D01*
Y972556D01*
X635869Y973583D01*
X635083Y974369D01*
X634056Y974794D01*
D02*
G37*
G36*
X626056D02*
X624944D01*
X623917Y974369D01*
X623131Y973583D01*
X622706Y972556D01*
Y971444D01*
X623131Y970418D01*
X623917Y969632D01*
X624944Y969206D01*
X626056D01*
X627083Y969632D01*
X627869Y970418D01*
X628294Y971444D01*
Y972556D01*
X627869Y973583D01*
X627083Y974369D01*
X626056Y974794D01*
D02*
G37*
G36*
X610056D02*
X608944D01*
X607917Y974369D01*
X607132Y973583D01*
X606706Y972556D01*
Y971444D01*
X607132Y970418D01*
X607917Y969632D01*
X608944Y969206D01*
X610056D01*
X611083Y969632D01*
X611869Y970418D01*
X612294Y971444D01*
Y972556D01*
X611869Y973583D01*
X611083Y974369D01*
X610056Y974794D01*
D02*
G37*
G36*
X602056D02*
X600944D01*
X599917Y974369D01*
X599131Y973583D01*
X598706Y972556D01*
Y971444D01*
X599131Y970418D01*
X599917Y969632D01*
X600944Y969206D01*
X602056D01*
X603083Y969632D01*
X603869Y970418D01*
X604294Y971444D01*
Y972556D01*
X603869Y973583D01*
X603083Y974369D01*
X602056Y974794D01*
D02*
G37*
G36*
X594056D02*
X592944D01*
X591917Y974369D01*
X591132Y973583D01*
X590706Y972556D01*
Y971444D01*
X591132Y970418D01*
X591917Y969632D01*
X592944Y969206D01*
X594056D01*
X595083Y969632D01*
X595869Y970418D01*
X596294Y971444D01*
Y972556D01*
X595869Y973583D01*
X595083Y974369D01*
X594056Y974794D01*
D02*
G37*
G36*
X578056D02*
X576944D01*
X575917Y974369D01*
X575131Y973583D01*
X574706Y972556D01*
Y971444D01*
X575131Y970418D01*
X575917Y969632D01*
X576944Y969206D01*
X578056D01*
X579083Y969632D01*
X579869Y970418D01*
X580294Y971444D01*
Y972556D01*
X579869Y973583D01*
X579083Y974369D01*
X578056Y974794D01*
D02*
G37*
G36*
X570056D02*
X568944D01*
X567917Y974369D01*
X567132Y973583D01*
X566706Y972556D01*
Y971444D01*
X567132Y970418D01*
X567917Y969632D01*
X568944Y969206D01*
X570056D01*
X571083Y969632D01*
X571869Y970418D01*
X572294Y971444D01*
Y972556D01*
X571869Y973583D01*
X571083Y974369D01*
X570056Y974794D01*
D02*
G37*
G36*
X562056D02*
X560944D01*
X559917Y974369D01*
X559131Y973583D01*
X558706Y972556D01*
Y971444D01*
X559131Y970418D01*
X559917Y969632D01*
X560944Y969206D01*
X562056D01*
X563083Y969632D01*
X563869Y970418D01*
X564294Y971444D01*
Y972556D01*
X563869Y973583D01*
X563083Y974369D01*
X562056Y974794D01*
D02*
G37*
G36*
X546055D02*
X544944D01*
X543917Y974369D01*
X543131Y973583D01*
X542706Y972556D01*
Y971444D01*
X543131Y970418D01*
X543917Y969632D01*
X544944Y969206D01*
X546055D01*
X547082Y969632D01*
X547868Y970418D01*
X548294Y971444D01*
Y972556D01*
X547868Y973583D01*
X547082Y974369D01*
X546055Y974794D01*
D02*
G37*
G36*
X618056Y974794D02*
X616944D01*
X615917Y974369D01*
X615131Y973583D01*
X614706Y972556D01*
Y971444D01*
X615131Y970417D01*
X615917Y969632D01*
X616944Y969206D01*
X618056D01*
X619083Y969632D01*
X619869Y970417D01*
X620294Y971444D01*
Y972556D01*
X619869Y973583D01*
X619083Y974369D01*
X618056Y974794D01*
D02*
G37*
G36*
X642056Y966795D02*
X640945D01*
X639918Y966369D01*
X639132Y965583D01*
X638706Y964556D01*
Y963445D01*
X639132Y962418D01*
X639918Y961632D01*
X640945Y961207D01*
X642056D01*
X643083Y961632D01*
X643869Y962418D01*
X644294Y963445D01*
Y964556D01*
X643869Y965583D01*
X643083Y966369D01*
X642056Y966795D01*
D02*
G37*
G36*
X658056Y966794D02*
X656944D01*
X655917Y966369D01*
X655132Y965583D01*
X654706Y964556D01*
Y963445D01*
X655132Y962418D01*
X655917Y961632D01*
X656944Y961206D01*
X658056D01*
X659083Y961632D01*
X659869Y962418D01*
X660294Y963445D01*
Y964556D01*
X659869Y965583D01*
X659083Y966369D01*
X658056Y966794D01*
D02*
G37*
G36*
X650056D02*
X648944D01*
X647917Y966369D01*
X647131Y965583D01*
X646706Y964556D01*
Y963445D01*
X647131Y962418D01*
X647917Y961632D01*
X648944Y961206D01*
X650056D01*
X651083Y961632D01*
X651869Y962418D01*
X652294Y963445D01*
Y964556D01*
X651869Y965583D01*
X651083Y966369D01*
X650056Y966794D01*
D02*
G37*
G36*
X602056D02*
X600944D01*
X599917Y966369D01*
X599131Y965583D01*
X598706Y964556D01*
Y963445D01*
X599131Y962418D01*
X599917Y961632D01*
X600944Y961206D01*
X602056D01*
X603083Y961632D01*
X603869Y962418D01*
X604294Y963445D01*
Y964556D01*
X603869Y965583D01*
X603083Y966369D01*
X602056Y966794D01*
D02*
G37*
G36*
X586056D02*
X584944D01*
X583917Y966369D01*
X583131Y965583D01*
X582706Y964556D01*
Y963445D01*
X583131Y962418D01*
X583917Y961632D01*
X584944Y961206D01*
X586056D01*
X587083Y961632D01*
X587869Y962418D01*
X588294Y963445D01*
Y964556D01*
X587869Y965583D01*
X587083Y966369D01*
X586056Y966794D01*
D02*
G37*
G36*
X546191D02*
X545079D01*
X544053Y966369D01*
X543267Y965583D01*
X542841Y964556D01*
Y963445D01*
X543267Y962418D01*
X544053Y961632D01*
X545079Y961206D01*
X546191D01*
X547218Y961632D01*
X548004Y962418D01*
X548429Y963445D01*
Y964556D01*
X548004Y965583D01*
X547218Y966369D01*
X546191Y966794D01*
D02*
G37*
G36*
X538056D02*
X536944D01*
X535917Y966369D01*
X535131Y965583D01*
X534706Y964556D01*
Y963445D01*
X535131Y962418D01*
X535917Y961632D01*
X536944Y961206D01*
X538056D01*
X539083Y961632D01*
X539869Y962418D01*
X540294Y963445D01*
Y964556D01*
X539869Y965583D01*
X539083Y966369D01*
X538056Y966794D01*
D02*
G37*
G36*
X529750Y966395D02*
X528638D01*
X527612Y965969D01*
X526826Y965183D01*
X526400Y964156D01*
Y963045D01*
X526826Y962018D01*
X527612Y961232D01*
X528638Y960807D01*
X529750D01*
X530777Y961232D01*
X531563Y962018D01*
X531988Y963045D01*
Y964156D01*
X531563Y965183D01*
X530777Y965969D01*
X529750Y966395D01*
D02*
G37*
G36*
X638056Y956444D02*
X636945D01*
X635918Y956019D01*
X635347Y955448D01*
X634757Y955278D01*
X633823Y955390D01*
X633333Y955880D01*
X632306Y956306D01*
X631194D01*
X630168Y955880D01*
X629382Y955094D01*
X628956Y954067D01*
Y952956D01*
X629382Y951929D01*
X630168Y951143D01*
X631194Y950718D01*
X632306D01*
X633333Y951143D01*
X633904Y951714D01*
X634494Y951884D01*
X635428Y951771D01*
X635918Y951281D01*
X636945Y950856D01*
X638056D01*
X639083Y951281D01*
X639869Y952067D01*
X640294Y953094D01*
Y954206D01*
X639869Y955233D01*
X639083Y956019D01*
X638056Y956444D01*
D02*
G37*
G36*
X586056Y958794D02*
X584944D01*
X583917Y958369D01*
X583131Y957583D01*
X582706Y956556D01*
Y955444D01*
X583131Y954417D01*
X583917Y953632D01*
X584944Y953206D01*
X586056D01*
X587083Y953632D01*
X587869Y954417D01*
X588294Y955444D01*
Y956556D01*
X587869Y957583D01*
X587083Y958369D01*
X586056Y958794D01*
D02*
G37*
G36*
X606869Y957362D02*
X605758D01*
X604731Y956937D01*
X603945Y956151D01*
X603520Y955124D01*
Y954012D01*
X603945Y952985D01*
X604731Y952199D01*
X605758Y951774D01*
X606869D01*
X607896Y952199D01*
X608682Y952985D01*
X609108Y954012D01*
Y955124D01*
X608682Y956151D01*
X607896Y956937D01*
X606869Y957362D01*
D02*
G37*
G36*
X613853Y957253D02*
X612742D01*
X611715Y956828D01*
X610929Y956042D01*
X610503Y955015D01*
Y953904D01*
X610929Y952877D01*
X611715Y952091D01*
X612742Y951665D01*
X613853D01*
X614880Y952091D01*
X615666Y952877D01*
X616091Y953904D01*
Y955015D01*
X615666Y956042D01*
X614880Y956828D01*
X613853Y957253D01*
D02*
G37*
G36*
X569305Y956953D02*
X568193D01*
X567166Y956528D01*
X566380Y955742D01*
X565955Y954715D01*
Y953603D01*
X566380Y952576D01*
X567166Y951790D01*
X568193Y951365D01*
X569305D01*
X570332Y951790D01*
X571118Y952576D01*
X571543Y953603D01*
Y954715D01*
X571118Y955742D01*
X570332Y956528D01*
X569305Y956953D01*
D02*
G37*
G36*
X625271Y956306D02*
X624159D01*
X623133Y955880D01*
X622346Y955094D01*
X621921Y954067D01*
Y952956D01*
X622346Y951929D01*
X623133Y951143D01*
X624159Y950718D01*
X625271D01*
X626298Y951143D01*
X627084Y951929D01*
X627509Y952956D01*
Y954067D01*
X627084Y955094D01*
X626298Y955880D01*
X625271Y956306D01*
D02*
G37*
G36*
X543016Y955894D02*
X541904D01*
X540877Y955469D01*
X540091Y954683D01*
X539666Y953656D01*
Y952544D01*
X540091Y951517D01*
X540877Y950732D01*
X541904Y950306D01*
X543016D01*
X544043Y950732D01*
X544829Y951517D01*
X545254Y952544D01*
Y953656D01*
X544829Y954683D01*
X544043Y955469D01*
X543016Y955894D01*
D02*
G37*
G36*
X555372Y955674D02*
X554261D01*
X553234Y955248D01*
X552448Y954463D01*
X552022Y953436D01*
Y952324D01*
X552448Y951297D01*
X553234Y950511D01*
X554261Y950086D01*
X555372D01*
X556399Y950511D01*
X557185Y951297D01*
X557610Y952324D01*
Y953436D01*
X557185Y954463D01*
X556399Y955248D01*
X555372Y955674D01*
D02*
G37*
G36*
X606516Y949584D02*
X605404D01*
X604377Y949159D01*
X603591Y948373D01*
X603166Y947346D01*
Y946235D01*
X603591Y945208D01*
X604377Y944422D01*
X605404Y943996D01*
X606516D01*
X607543Y944422D01*
X608329Y945208D01*
X608754Y946235D01*
Y947346D01*
X608329Y948373D01*
X607543Y949159D01*
X606516Y949584D01*
D02*
G37*
G36*
X595086D02*
X593974D01*
X592947Y949159D01*
X592161Y948373D01*
X591736Y947346D01*
Y946235D01*
X592161Y945208D01*
X592947Y944422D01*
X593974Y943996D01*
X595086D01*
X596113Y944422D01*
X596899Y945208D01*
X597324Y946235D01*
Y947346D01*
X596899Y948373D01*
X596113Y949159D01*
X595086Y949584D01*
D02*
G37*
G36*
X582386D02*
X581274D01*
X580247Y949159D01*
X579462Y948373D01*
X579036Y947346D01*
Y946235D01*
X579462Y945208D01*
X580247Y944422D01*
X581274Y943996D01*
X582386D01*
X583413Y944422D01*
X584199Y945208D01*
X584624Y946235D01*
Y947346D01*
X584199Y948373D01*
X583413Y949159D01*
X582386Y949584D01*
D02*
G37*
G36*
X558256Y940694D02*
X557144D01*
X556117Y940269D01*
X555331Y939483D01*
X555212Y939195D01*
X553838D01*
X553719Y939483D01*
X552933Y940269D01*
X551906Y940694D01*
X550794D01*
X549767Y940269D01*
X548982Y939483D01*
X548556Y938456D01*
Y937345D01*
X548982Y936318D01*
X549767Y935532D01*
X550794Y935106D01*
X551906D01*
X552933Y935532D01*
X553719Y936318D01*
X553838Y936605D01*
X555212D01*
X555331Y936318D01*
X556117Y935532D01*
X557144Y935106D01*
X558256D01*
X559283Y935532D01*
X560069Y936318D01*
X560494Y937345D01*
Y938456D01*
X560069Y939483D01*
X559283Y940269D01*
X558256Y940694D01*
D02*
G37*
G36*
X601436D02*
X600324D01*
X599297Y940269D01*
X598512Y939483D01*
X598086Y938456D01*
Y937345D01*
X598512Y936318D01*
X599297Y935532D01*
X600324Y935106D01*
X601436D01*
X602463Y935532D01*
X603249Y936318D01*
X603674Y937345D01*
Y938456D01*
X603249Y939483D01*
X602463Y940269D01*
X601436Y940694D01*
D02*
G37*
G36*
X588736D02*
X587624D01*
X586597Y940269D01*
X585812Y939483D01*
X585386Y938456D01*
Y937345D01*
X585812Y936318D01*
X586597Y935532D01*
X587624Y935106D01*
X588736D01*
X589763Y935532D01*
X590549Y936318D01*
X590974Y937345D01*
Y938456D01*
X590549Y939483D01*
X589763Y940269D01*
X588736Y940694D01*
D02*
G37*
G36*
X595118Y927100D02*
X593602D01*
X592202Y926520D01*
X591130Y925448D01*
X590550Y924048D01*
Y922532D01*
X591130Y921132D01*
X592202Y920060D01*
X593602Y919480D01*
X595118D01*
X596518Y920060D01*
X597590Y921132D01*
X598170Y922532D01*
Y924048D01*
X597590Y925448D01*
X596518Y926520D01*
X595118Y927100D01*
D02*
G37*
G36*
Y915670D02*
X593602D01*
X592202Y915090D01*
X591130Y914018D01*
X590550Y912618D01*
Y911102D01*
X591130Y909702D01*
X592202Y908630D01*
X593602Y908050D01*
X595118D01*
X596518Y908630D01*
X597590Y909702D01*
X598170Y911102D01*
Y912618D01*
X597590Y914018D01*
X596518Y915090D01*
X595118Y915670D01*
D02*
G37*
G36*
X600368Y903610D02*
X598852D01*
X597452Y903030D01*
X596380Y901958D01*
X595800Y900558D01*
Y899042D01*
X596380Y897642D01*
X597452Y896570D01*
X598852Y895990D01*
X600368D01*
X601768Y896570D01*
X602840Y897642D01*
X603420Y899042D01*
Y900558D01*
X602840Y901958D01*
X601768Y903030D01*
X600368Y903610D01*
D02*
G37*
G36*
X581318D02*
X579802D01*
X578402Y903030D01*
X577330Y901958D01*
X576750Y900558D01*
Y899042D01*
X577330Y897642D01*
X578402Y896570D01*
X579802Y895990D01*
X581318D01*
X582718Y896570D01*
X583790Y897642D01*
X584370Y899042D01*
Y900558D01*
X583790Y901958D01*
X582718Y903030D01*
X581318Y903610D01*
D02*
G37*
G36*
X638393Y902023D02*
X636877D01*
X635477Y901443D01*
X634405Y900371D01*
X633825Y898971D01*
Y897455D01*
X634405Y896055D01*
X635477Y894983D01*
X636877Y894403D01*
X638393D01*
X639793Y894983D01*
X640865Y896055D01*
X641445Y897455D01*
Y898971D01*
X640865Y900371D01*
X639793Y901443D01*
X638393Y902023D01*
D02*
G37*
G36*
X590208Y885830D02*
X588692D01*
X587292Y885250D01*
X586220Y884178D01*
X585640Y882778D01*
Y881262D01*
X586220Y879862D01*
X587292Y878790D01*
X588692Y878210D01*
X590208D01*
X591608Y878790D01*
X592680Y879862D01*
X593260Y881262D01*
Y882778D01*
X592680Y884178D01*
X591608Y885250D01*
X590208Y885830D01*
D02*
G37*
G36*
X572428D02*
X570912D01*
X569512Y885250D01*
X568440Y884178D01*
X567860Y882778D01*
Y881262D01*
X568440Y879862D01*
X569512Y878790D01*
X570912Y878210D01*
X572428D01*
X573828Y878790D01*
X574900Y879862D01*
X575480Y881262D01*
Y882778D01*
X574900Y884178D01*
X573828Y885250D01*
X572428Y885830D01*
D02*
G37*
G36*
X656173Y879163D02*
X654657D01*
X653257Y878583D01*
X652185Y877511D01*
X651605Y876111D01*
Y874595D01*
X652185Y873195D01*
X653257Y872123D01*
X654657Y871543D01*
X656173D01*
X657573Y872123D01*
X658645Y873195D01*
X659225Y874595D01*
Y876111D01*
X658645Y877511D01*
X657573Y878583D01*
X656173Y879163D01*
D02*
G37*
G36*
X638393D02*
X636877D01*
X635477Y878583D01*
X634405Y877511D01*
X633825Y876111D01*
Y874595D01*
X634405Y873195D01*
X635477Y872123D01*
X636877Y871543D01*
X638393D01*
X639793Y872123D01*
X640865Y873195D01*
X641445Y874595D01*
Y876111D01*
X640865Y877511D01*
X639793Y878583D01*
X638393Y879163D01*
D02*
G37*
G36*
X569813Y869003D02*
X568297D01*
X566897Y868423D01*
X565825Y867351D01*
X565245Y865951D01*
Y864435D01*
X565825Y863035D01*
X566897Y861963D01*
X568297Y861383D01*
X569813D01*
X571213Y861963D01*
X572285Y863035D01*
X572865Y864435D01*
Y865951D01*
X572285Y867351D01*
X571213Y868423D01*
X569813Y869003D01*
D02*
G37*
G36*
X993147Y1143302D02*
X991833D01*
X990620Y1142800D01*
X989691Y1141871D01*
X989188Y1140657D01*
Y1139343D01*
X989691Y1138130D01*
X990620Y1137201D01*
X991833Y1136698D01*
X993147D01*
X994361Y1137201D01*
X995289Y1138130D01*
X995792Y1139343D01*
Y1140657D01*
X995289Y1141871D01*
X994361Y1142800D01*
X993147Y1143302D01*
D02*
G37*
G36*
X1033147Y1143302D02*
X1031833D01*
X1030620Y1142799D01*
X1029691Y1141870D01*
X1029188Y1140657D01*
Y1139343D01*
X1029691Y1138130D01*
X1030620Y1137201D01*
X1031833Y1136698D01*
X1033147D01*
X1034361Y1137201D01*
X1035289Y1138130D01*
X1035792Y1139343D01*
Y1140657D01*
X1035289Y1141870D01*
X1034361Y1142799D01*
X1033147Y1143302D01*
D02*
G37*
G36*
X1023167Y1133302D02*
X1021853D01*
X1020640Y1132800D01*
X1019711Y1131871D01*
X1019208Y1130657D01*
Y1129343D01*
X1019711Y1128130D01*
X1020640Y1127201D01*
X1021853Y1126698D01*
X1023167D01*
X1024380Y1127201D01*
X1025309Y1128130D01*
X1025812Y1129343D01*
Y1130657D01*
X1025309Y1131871D01*
X1024380Y1132800D01*
X1023167Y1133302D01*
D02*
G37*
G36*
X993147Y1133302D02*
X991833D01*
X990620Y1132800D01*
X989691Y1131871D01*
X989188Y1130657D01*
Y1129343D01*
X989691Y1128130D01*
X990620Y1127201D01*
X991833Y1126698D01*
X993147D01*
X994361Y1127201D01*
X995289Y1128130D01*
X995792Y1129343D01*
Y1130657D01*
X995289Y1131871D01*
X994361Y1132800D01*
X993147Y1133302D01*
D02*
G37*
G36*
X973147D02*
X971833D01*
X970620Y1132800D01*
X969691Y1131871D01*
X969188Y1130657D01*
Y1129343D01*
X969691Y1128130D01*
X970620Y1127201D01*
X971833Y1126698D01*
X973147D01*
X974361Y1127201D01*
X975289Y1128130D01*
X975792Y1129343D01*
Y1130657D01*
X975289Y1131871D01*
X974361Y1132800D01*
X973147Y1133302D01*
D02*
G37*
G36*
X1043167Y1123302D02*
X1041853D01*
X1040640Y1122800D01*
X1039711Y1121871D01*
X1039208Y1120657D01*
Y1119343D01*
X1039711Y1118130D01*
X1040640Y1117201D01*
X1041853Y1116698D01*
X1043167D01*
X1044380Y1117201D01*
X1045309Y1118130D01*
X1045812Y1119343D01*
Y1120657D01*
X1045309Y1121871D01*
X1044380Y1122800D01*
X1043167Y1123302D01*
D02*
G37*
G36*
X1033167D02*
X1031853D01*
X1030640Y1122800D01*
X1029711Y1121871D01*
X1029208Y1120657D01*
Y1119343D01*
X1029711Y1118130D01*
X1030640Y1117201D01*
X1031853Y1116698D01*
X1033167D01*
X1034380Y1117201D01*
X1035309Y1118130D01*
X1035812Y1119343D01*
Y1120657D01*
X1035309Y1121871D01*
X1034380Y1122800D01*
X1033167Y1123302D01*
D02*
G37*
G36*
X1013167D02*
X1011853D01*
X1010640Y1122800D01*
X1009711Y1121871D01*
X1009208Y1120657D01*
Y1119343D01*
X1009711Y1118130D01*
X1010640Y1117201D01*
X1011853Y1116698D01*
X1013167D01*
X1014380Y1117201D01*
X1015309Y1118130D01*
X1015812Y1119343D01*
Y1120657D01*
X1015309Y1121871D01*
X1014380Y1122800D01*
X1013167Y1123302D01*
D02*
G37*
G36*
X983147D02*
X981833D01*
X980620Y1122800D01*
X979691Y1121871D01*
X979188Y1120657D01*
Y1119343D01*
X979691Y1118130D01*
X980620Y1117201D01*
X981833Y1116698D01*
X983147D01*
X984361Y1117201D01*
X985289Y1118130D01*
X985792Y1119343D01*
Y1120657D01*
X985289Y1121871D01*
X984361Y1122800D01*
X983147Y1123302D01*
D02*
G37*
G36*
X993147Y1113302D02*
X991833D01*
X990620Y1112800D01*
X989691Y1111871D01*
X989188Y1110657D01*
Y1109343D01*
X989691Y1108130D01*
X990620Y1107201D01*
X991833Y1106698D01*
X993147D01*
X994361Y1107201D01*
X995289Y1108130D01*
X995792Y1109343D01*
Y1110657D01*
X995289Y1111871D01*
X994361Y1112800D01*
X993147Y1113302D01*
D02*
G37*
G36*
X973147D02*
X971833D01*
X970620Y1112800D01*
X969691Y1111871D01*
X969188Y1110657D01*
Y1109343D01*
X969691Y1108130D01*
X970620Y1107201D01*
X971833Y1106698D01*
X973147D01*
X974361Y1107201D01*
X975289Y1108130D01*
X975792Y1109343D01*
Y1110657D01*
X975289Y1111871D01*
X974361Y1112800D01*
X973147Y1113302D01*
D02*
G37*
G36*
X1023167Y1113302D02*
X1021853D01*
X1020640Y1112800D01*
X1019711Y1111871D01*
X1019208Y1110657D01*
Y1109343D01*
X1019711Y1108130D01*
X1020640Y1107201D01*
X1021853Y1106698D01*
X1023167D01*
X1024380Y1107201D01*
X1025309Y1108130D01*
X1025812Y1109343D01*
Y1110657D01*
X1025309Y1111871D01*
X1024380Y1112800D01*
X1023167Y1113302D01*
D02*
G37*
G36*
X1033167Y1093302D02*
X1031853D01*
X1030640Y1092800D01*
X1029711Y1091871D01*
X1029208Y1090657D01*
Y1089343D01*
X1029711Y1088130D01*
X1030640Y1087201D01*
X1031853Y1086698D01*
X1033167D01*
X1034380Y1087201D01*
X1035309Y1088130D01*
X1035812Y1089343D01*
Y1090657D01*
X1035309Y1091871D01*
X1034380Y1092800D01*
X1033167Y1093302D01*
D02*
G37*
G36*
X1013167D02*
X1011853D01*
X1010640Y1092800D01*
X1009711Y1091871D01*
X1009208Y1090657D01*
Y1089343D01*
X1009711Y1088130D01*
X1010640Y1087201D01*
X1011853Y1086698D01*
X1013167D01*
X1014380Y1087201D01*
X1015309Y1088130D01*
X1015812Y1089343D01*
Y1090657D01*
X1015309Y1091871D01*
X1014380Y1092800D01*
X1013167Y1093302D01*
D02*
G37*
G36*
X983147D02*
X981833D01*
X980620Y1092800D01*
X979691Y1091871D01*
X979188Y1090657D01*
Y1089343D01*
X979691Y1088130D01*
X980620Y1087201D01*
X981833Y1086698D01*
X983147D01*
X984361Y1087201D01*
X985289Y1088130D01*
X985792Y1089343D01*
Y1090657D01*
X985289Y1091871D01*
X984361Y1092800D01*
X983147Y1093302D01*
D02*
G37*
G36*
X1023167Y1083302D02*
X1021853D01*
X1020640Y1082800D01*
X1019711Y1081871D01*
X1019208Y1080657D01*
Y1079343D01*
X1019711Y1078130D01*
X1020640Y1077201D01*
X1021853Y1076698D01*
X1023167D01*
X1024380Y1077201D01*
X1025309Y1078130D01*
X1025812Y1079343D01*
Y1080657D01*
X1025309Y1081871D01*
X1024380Y1082800D01*
X1023167Y1083302D01*
D02*
G37*
G36*
X993147D02*
X991833D01*
X990620Y1082800D01*
X989691Y1081871D01*
X989188Y1080657D01*
Y1079343D01*
X989691Y1078130D01*
X990620Y1077201D01*
X991833Y1076698D01*
X993147D01*
X994361Y1077201D01*
X995289Y1078130D01*
X995792Y1079343D01*
Y1080657D01*
X995289Y1081871D01*
X994361Y1082800D01*
X993147Y1083302D01*
D02*
G37*
G36*
X973147D02*
X971833D01*
X970620Y1082800D01*
X969691Y1081871D01*
X969188Y1080657D01*
Y1079343D01*
X969691Y1078130D01*
X970620Y1077201D01*
X971833Y1076698D01*
X973147D01*
X974361Y1077201D01*
X975289Y1078130D01*
X975792Y1079343D01*
Y1080657D01*
X975289Y1081871D01*
X974361Y1082800D01*
X973147Y1083302D01*
D02*
G37*
G36*
X1033167Y1073302D02*
X1031853D01*
X1030640Y1072800D01*
X1029711Y1071871D01*
X1029208Y1070657D01*
Y1069343D01*
X1029711Y1068130D01*
X1030640Y1067201D01*
X1031853Y1066698D01*
X1033167D01*
X1034380Y1067201D01*
X1035309Y1068130D01*
X1035812Y1069343D01*
Y1070657D01*
X1035309Y1071871D01*
X1034380Y1072800D01*
X1033167Y1073302D01*
D02*
G37*
G36*
X1013167D02*
X1011853D01*
X1010640Y1072800D01*
X1009711Y1071871D01*
X1009208Y1070657D01*
Y1069343D01*
X1009711Y1068130D01*
X1010640Y1067201D01*
X1011853Y1066698D01*
X1013167D01*
X1014380Y1067201D01*
X1015309Y1068130D01*
X1015812Y1069343D01*
Y1070657D01*
X1015309Y1071871D01*
X1014380Y1072800D01*
X1013167Y1073302D01*
D02*
G37*
G36*
X983147D02*
X981833D01*
X980620Y1072800D01*
X979691Y1071871D01*
X979188Y1070657D01*
Y1069343D01*
X979691Y1068130D01*
X980620Y1067201D01*
X981833Y1066698D01*
X983147D01*
X984361Y1067201D01*
X985289Y1068130D01*
X985792Y1069343D01*
Y1070657D01*
X985289Y1071871D01*
X984361Y1072800D01*
X983147Y1073302D01*
D02*
G37*
G36*
X1023167Y1063330D02*
X1021853D01*
X1020640Y1062827D01*
X1019711Y1061898D01*
X1019208Y1060685D01*
Y1059371D01*
X1019711Y1058158D01*
X1020640Y1057229D01*
X1021853Y1056726D01*
X1023167D01*
X1024380Y1057229D01*
X1025309Y1058158D01*
X1025812Y1059371D01*
Y1060685D01*
X1025309Y1061898D01*
X1024380Y1062827D01*
X1023167Y1063330D01*
D02*
G37*
G36*
X983147D02*
X981833D01*
X980620Y1062827D01*
X979691Y1061898D01*
X979188Y1060685D01*
Y1059371D01*
X979691Y1058158D01*
X980620Y1057229D01*
X981833Y1056726D01*
X983147D01*
X984361Y1057229D01*
X985289Y1058158D01*
X985792Y1059371D01*
Y1060685D01*
X985289Y1061898D01*
X984361Y1062827D01*
X983147Y1063330D01*
D02*
G37*
G36*
X973145D02*
X971832D01*
X970618Y1062827D01*
X969689Y1061898D01*
X969186Y1060685D01*
Y1059371D01*
X969689Y1058158D01*
X970618Y1057229D01*
X971832Y1056726D01*
X973145D01*
X974359Y1057229D01*
X975288Y1058158D01*
X975790Y1059371D01*
Y1060685D01*
X975288Y1061898D01*
X974359Y1062827D01*
X973145Y1063330D01*
D02*
G37*
G36*
X1013167Y1063302D02*
X1011853D01*
X1010640Y1062800D01*
X1009711Y1061871D01*
X1009208Y1060657D01*
Y1059343D01*
X1009711Y1058130D01*
X1010640Y1057201D01*
X1011853Y1056698D01*
X1013167D01*
X1014380Y1057201D01*
X1015309Y1058130D01*
X1015812Y1059343D01*
Y1060657D01*
X1015309Y1061871D01*
X1014380Y1062800D01*
X1013167Y1063302D01*
D02*
G37*
G36*
X993147D02*
X991833D01*
X990620Y1062800D01*
X989691Y1061871D01*
X989188Y1060657D01*
Y1059343D01*
X989691Y1058130D01*
X990620Y1057201D01*
X991833Y1056698D01*
X993147D01*
X994361Y1057201D01*
X995289Y1058130D01*
X995792Y1059343D01*
Y1060657D01*
X995289Y1061871D01*
X994361Y1062800D01*
X993147Y1063302D01*
D02*
G37*
G36*
Y1053303D02*
X991833D01*
X990620Y1052800D01*
X989691Y1051871D01*
X989188Y1050657D01*
Y1049344D01*
X989691Y1048130D01*
X990620Y1047201D01*
X991833Y1046699D01*
X993147D01*
X994361Y1047201D01*
X995289Y1048130D01*
X995792Y1049344D01*
Y1050657D01*
X995289Y1051871D01*
X994361Y1052800D01*
X993147Y1053303D01*
D02*
G37*
G36*
X1013167Y1053302D02*
X1011853D01*
X1010640Y1052800D01*
X1009711Y1051871D01*
X1009208Y1050657D01*
Y1049343D01*
X1009711Y1048130D01*
X1010640Y1047201D01*
X1011853Y1046698D01*
X1013167D01*
X1014380Y1047201D01*
X1015309Y1048130D01*
X1015812Y1049343D01*
Y1050657D01*
X1015309Y1051871D01*
X1014380Y1052800D01*
X1013167Y1053302D01*
D02*
G37*
G36*
X1023167Y1043302D02*
X1021853D01*
X1020640Y1042800D01*
X1019711Y1041871D01*
X1019208Y1040657D01*
Y1039343D01*
X1019711Y1038130D01*
X1020640Y1037201D01*
X1021853Y1036698D01*
X1023167D01*
X1024380Y1037201D01*
X1025309Y1038130D01*
X1025812Y1039343D01*
Y1040657D01*
X1025309Y1041871D01*
X1024380Y1042800D01*
X1023167Y1043302D01*
D02*
G37*
G36*
X1013167D02*
X1011853D01*
X1010640Y1042800D01*
X1009711Y1041871D01*
X1009208Y1040657D01*
Y1039343D01*
X1009711Y1038130D01*
X1010640Y1037201D01*
X1011853Y1036698D01*
X1013167D01*
X1014380Y1037201D01*
X1015309Y1038130D01*
X1015812Y1039343D01*
Y1040657D01*
X1015309Y1041871D01*
X1014380Y1042800D01*
X1013167Y1043302D01*
D02*
G37*
G36*
X1003167Y1043292D02*
X1001854D01*
X1000640Y1042790D01*
X999711Y1041861D01*
X999209Y1040647D01*
Y1039333D01*
X999711Y1038120D01*
X1000640Y1037191D01*
X1001854Y1036688D01*
X1003167D01*
X1004381Y1037191D01*
X1005310Y1038120D01*
X1005813Y1039333D01*
Y1040647D01*
X1005310Y1041861D01*
X1004381Y1042790D01*
X1003167Y1043292D01*
D02*
G37*
G36*
X993157Y1043291D02*
X991844D01*
X990630Y1042788D01*
X989701Y1041859D01*
X989198Y1040645D01*
Y1039332D01*
X989701Y1038118D01*
X990630Y1037189D01*
X991844Y1036687D01*
X993157D01*
X994371Y1037189D01*
X995300Y1038118D01*
X995802Y1039332D01*
Y1040645D01*
X995300Y1041859D01*
X994371Y1042788D01*
X993157Y1043291D01*
D02*
G37*
G36*
X993157Y1023302D02*
X991843D01*
X990630Y1022800D01*
X989701Y1021871D01*
X989198Y1020657D01*
Y1019343D01*
X989701Y1018130D01*
X990630Y1017201D01*
X991843Y1016698D01*
X993157D01*
X994370Y1017201D01*
X995299Y1018130D01*
X995802Y1019343D01*
Y1020657D01*
X995299Y1021871D01*
X994370Y1022800D01*
X993157Y1023302D01*
D02*
G37*
G36*
X1023157Y1023302D02*
X1021843D01*
X1020630Y1022800D01*
X1019701Y1021871D01*
X1019198Y1020657D01*
Y1019343D01*
X1019701Y1018130D01*
X1020630Y1017201D01*
X1021843Y1016698D01*
X1023157D01*
X1024370Y1017201D01*
X1025299Y1018130D01*
X1025802Y1019343D01*
Y1020657D01*
X1025299Y1021871D01*
X1024370Y1022800D01*
X1023157Y1023302D01*
D02*
G37*
G36*
Y1013302D02*
X1021843D01*
X1020630Y1012800D01*
X1019701Y1011871D01*
X1019198Y1010657D01*
Y1009343D01*
X1019701Y1008130D01*
X1020630Y1007201D01*
X1021843Y1006698D01*
X1023157D01*
X1024370Y1007201D01*
X1025299Y1008130D01*
X1025802Y1009343D01*
Y1010657D01*
X1025299Y1011871D01*
X1024370Y1012800D01*
X1023157Y1013302D01*
D02*
G37*
G36*
X993157D02*
X991843D01*
X990630Y1012800D01*
X989701Y1011871D01*
X989198Y1010657D01*
Y1009343D01*
X989701Y1008130D01*
X990630Y1007201D01*
X991843Y1006698D01*
X993157D01*
X994370Y1007201D01*
X995299Y1008130D01*
X995802Y1009343D01*
Y1010657D01*
X995299Y1011871D01*
X994370Y1012800D01*
X993157Y1013302D01*
D02*
G37*
G36*
X1013167Y1013302D02*
X1011853D01*
X1010640Y1012800D01*
X1009711Y1011871D01*
X1009208Y1010657D01*
Y1009343D01*
X1009711Y1008130D01*
X1010640Y1007201D01*
X1011853Y1006698D01*
X1013167D01*
X1014380Y1007201D01*
X1015309Y1008130D01*
X1015812Y1009343D01*
Y1010657D01*
X1015309Y1011871D01*
X1014380Y1012800D01*
X1013167Y1013302D01*
D02*
G37*
G36*
Y1003302D02*
X1011853D01*
X1010640Y1002800D01*
X1009711Y1001871D01*
X1009208Y1000657D01*
Y999343D01*
X1009711Y998130D01*
X1010640Y997201D01*
X1011853Y996698D01*
X1013167D01*
X1014380Y997201D01*
X1015309Y998130D01*
X1015812Y999343D01*
Y1000657D01*
X1015309Y1001871D01*
X1014380Y1002800D01*
X1013167Y1003302D01*
D02*
G37*
G36*
Y983302D02*
X1011853D01*
X1010640Y982800D01*
X1009711Y981871D01*
X1009208Y980657D01*
Y979343D01*
X1009711Y978130D01*
X1010640Y977201D01*
X1011853Y976698D01*
X1013167D01*
X1014380Y977201D01*
X1015309Y978130D01*
X1015812Y979343D01*
Y980657D01*
X1015309Y981871D01*
X1014380Y982800D01*
X1013167Y983302D01*
D02*
G37*
G36*
X1791122Y798986D02*
X1789218D01*
X1787459Y798257D01*
X1786113Y796911D01*
X1785384Y795152D01*
Y793248D01*
X1786113Y791489D01*
X1787459Y790142D01*
X1789218Y789414D01*
X1791122D01*
X1792881Y790142D01*
X1794227Y791489D01*
X1794956Y793248D01*
Y795152D01*
X1794227Y796911D01*
X1792881Y798257D01*
X1791122Y798986D01*
D02*
G37*
G36*
X1780122D02*
X1778218D01*
X1776459Y798257D01*
X1775112Y796911D01*
X1774384Y795152D01*
Y793248D01*
X1775112Y791489D01*
X1776459Y790142D01*
X1778218Y789414D01*
X1780122D01*
X1781881Y790142D01*
X1783227Y791489D01*
X1783956Y793248D01*
Y795152D01*
X1783227Y796911D01*
X1781881Y798257D01*
X1780122Y798986D01*
D02*
G37*
G36*
X1769122D02*
X1767218D01*
X1765459Y798257D01*
X1764113Y796911D01*
X1763384Y795152D01*
Y793248D01*
X1764113Y791489D01*
X1765459Y790142D01*
X1767218Y789414D01*
X1769122D01*
X1770881Y790142D01*
X1772227Y791489D01*
X1772956Y793248D01*
Y795152D01*
X1772227Y796911D01*
X1770881Y798257D01*
X1769122Y798986D01*
D02*
G37*
G36*
X1791122Y787986D02*
X1789218D01*
X1787459Y787257D01*
X1786113Y785911D01*
X1785384Y784152D01*
Y782248D01*
X1786113Y780489D01*
X1787459Y779143D01*
X1789218Y778414D01*
X1791122D01*
X1792881Y779143D01*
X1794227Y780489D01*
X1794956Y782248D01*
Y784152D01*
X1794227Y785911D01*
X1792881Y787257D01*
X1791122Y787986D01*
D02*
G37*
G36*
X1780122D02*
X1778218D01*
X1776459Y787257D01*
X1775112Y785911D01*
X1774384Y784152D01*
Y782248D01*
X1775112Y780489D01*
X1776459Y779143D01*
X1778218Y778414D01*
X1780122D01*
X1781881Y779143D01*
X1783227Y780489D01*
X1783956Y782248D01*
Y784152D01*
X1783227Y785911D01*
X1781881Y787257D01*
X1780122Y787986D01*
D02*
G37*
G36*
X1769122D02*
X1767218D01*
X1765459Y787257D01*
X1764113Y785911D01*
X1763384Y784152D01*
Y782248D01*
X1764113Y780489D01*
X1765459Y779143D01*
X1767218Y778414D01*
X1769122D01*
X1770881Y779143D01*
X1772227Y780489D01*
X1772956Y782248D01*
Y784152D01*
X1772227Y785911D01*
X1770881Y787257D01*
X1769122Y787986D01*
D02*
G37*
G36*
X1791122Y776986D02*
X1789218D01*
X1787459Y776257D01*
X1786113Y774911D01*
X1785384Y773152D01*
Y771248D01*
X1786113Y769489D01*
X1787459Y768142D01*
X1789218Y767414D01*
X1791122D01*
X1792881Y768142D01*
X1794227Y769489D01*
X1794956Y771248D01*
Y773152D01*
X1794227Y774911D01*
X1792881Y776257D01*
X1791122Y776986D01*
D02*
G37*
G36*
X1780122D02*
X1778218D01*
X1776459Y776257D01*
X1775112Y774911D01*
X1774384Y773152D01*
Y771248D01*
X1775112Y769489D01*
X1776459Y768142D01*
X1778218Y767414D01*
X1780122D01*
X1781881Y768142D01*
X1783227Y769489D01*
X1783956Y771248D01*
Y773152D01*
X1783227Y774911D01*
X1781881Y776257D01*
X1780122Y776986D01*
D02*
G37*
G36*
X1769122D02*
X1767218D01*
X1765459Y776257D01*
X1764113Y774911D01*
X1763384Y773152D01*
Y771248D01*
X1764113Y769489D01*
X1765459Y768142D01*
X1767218Y767414D01*
X1769122D01*
X1770881Y768142D01*
X1772227Y769489D01*
X1772956Y771248D01*
Y773152D01*
X1772227Y774911D01*
X1770881Y776257D01*
X1769122Y776986D01*
D02*
G37*
G36*
X1736848Y765810D02*
X1735332D01*
X1733932Y765230D01*
X1732860Y764158D01*
X1732280Y762758D01*
Y761242D01*
X1732860Y759842D01*
X1733932Y758770D01*
X1735332Y758190D01*
X1736848D01*
X1738248Y758770D01*
X1739320Y759842D01*
X1739900Y761242D01*
Y762758D01*
X1739320Y764158D01*
X1738248Y765230D01*
X1736848Y765810D01*
D02*
G37*
G36*
X1824478Y770890D02*
X1822962D01*
X1821562Y770310D01*
X1820490Y769238D01*
X1819910Y767838D01*
Y766322D01*
X1820490Y764922D01*
X1821507Y763905D01*
X1820490Y762888D01*
X1819910Y761488D01*
Y759972D01*
X1820490Y758572D01*
X1821562Y757500D01*
X1822962Y756920D01*
X1824478D01*
X1825878Y757500D01*
X1826950Y758572D01*
X1827530Y759972D01*
Y761488D01*
X1826950Y762888D01*
X1825933Y763905D01*
X1826950Y764922D01*
X1827530Y766322D01*
Y767838D01*
X1826950Y769238D01*
X1825878Y770310D01*
X1824478Y770890D01*
D02*
G37*
G36*
X1791122Y765986D02*
X1789218D01*
X1787459Y765257D01*
X1786113Y763911D01*
X1785384Y762152D01*
Y760248D01*
X1786113Y758489D01*
X1787459Y757143D01*
X1789218Y756414D01*
X1791122D01*
X1792881Y757143D01*
X1794227Y758489D01*
X1794956Y760248D01*
Y762152D01*
X1794227Y763911D01*
X1792881Y765257D01*
X1791122Y765986D01*
D02*
G37*
G36*
X1780122D02*
X1778218D01*
X1776459Y765257D01*
X1775112Y763911D01*
X1774384Y762152D01*
Y760248D01*
X1775112Y758489D01*
X1776459Y757143D01*
X1778218Y756414D01*
X1780122D01*
X1781881Y757143D01*
X1783227Y758489D01*
X1783956Y760248D01*
Y762152D01*
X1783227Y763911D01*
X1781881Y765257D01*
X1780122Y765986D01*
D02*
G37*
G36*
X1769122D02*
X1767218D01*
X1765459Y765257D01*
X1764113Y763911D01*
X1763384Y762152D01*
Y760248D01*
X1764113Y758489D01*
X1765459Y757143D01*
X1767218Y756414D01*
X1769122D01*
X1770881Y757143D01*
X1772227Y758489D01*
X1772956Y760248D01*
Y762152D01*
X1772227Y763911D01*
X1770881Y765257D01*
X1769122Y765986D01*
D02*
G37*
G36*
X1791122Y754986D02*
X1789218D01*
X1787459Y754257D01*
X1786113Y752911D01*
X1785384Y751152D01*
Y749248D01*
X1786113Y747489D01*
X1787459Y746143D01*
X1789218Y745414D01*
X1791122D01*
X1792881Y746143D01*
X1794227Y747489D01*
X1794956Y749248D01*
Y751152D01*
X1794227Y752911D01*
X1792881Y754257D01*
X1791122Y754986D01*
D02*
G37*
G36*
X1780122D02*
X1778218D01*
X1776459Y754257D01*
X1775112Y752911D01*
X1774384Y751152D01*
Y749248D01*
X1775112Y747489D01*
X1776459Y746143D01*
X1778218Y745414D01*
X1780122D01*
X1781881Y746143D01*
X1783227Y747489D01*
X1783956Y749248D01*
Y751152D01*
X1783227Y752911D01*
X1781881Y754257D01*
X1780122Y754986D01*
D02*
G37*
G36*
X1769122D02*
X1767218D01*
X1765459Y754257D01*
X1764113Y752911D01*
X1763384Y751152D01*
Y749248D01*
X1764113Y747489D01*
X1765459Y746143D01*
X1767218Y745414D01*
X1769122D01*
X1770881Y746143D01*
X1772227Y747489D01*
X1772956Y749248D01*
Y751152D01*
X1772227Y752911D01*
X1770881Y754257D01*
X1769122Y754986D01*
D02*
G37*
G36*
X1736848Y750570D02*
X1735332D01*
X1733932Y749990D01*
X1732860Y748918D01*
X1732280Y747518D01*
Y746002D01*
X1732860Y744602D01*
X1733932Y743530D01*
X1735332Y742950D01*
X1736848D01*
X1738248Y743530D01*
X1739320Y744602D01*
X1739900Y746002D01*
Y747518D01*
X1739320Y748918D01*
X1738248Y749990D01*
X1736848Y750570D01*
D02*
G37*
G36*
X1791122Y743986D02*
X1789218D01*
X1787459Y743258D01*
X1786113Y741911D01*
X1785384Y740152D01*
Y738248D01*
X1786113Y736489D01*
X1787459Y735143D01*
X1789218Y734414D01*
X1791122D01*
X1792881Y735143D01*
X1794227Y736489D01*
X1794956Y738248D01*
Y740152D01*
X1794227Y741911D01*
X1792881Y743258D01*
X1791122Y743986D01*
D02*
G37*
G36*
X1780122D02*
X1778218D01*
X1776459Y743258D01*
X1775112Y741911D01*
X1774384Y740152D01*
Y738248D01*
X1775112Y736489D01*
X1776459Y735143D01*
X1778218Y734414D01*
X1780122D01*
X1781881Y735143D01*
X1783227Y736489D01*
X1783956Y738248D01*
Y740152D01*
X1783227Y741911D01*
X1781881Y743258D01*
X1780122Y743986D01*
D02*
G37*
G36*
X1769122D02*
X1767218D01*
X1765459Y743258D01*
X1764113Y741911D01*
X1763384Y740152D01*
Y738248D01*
X1764113Y736489D01*
X1765459Y735143D01*
X1767218Y734414D01*
X1769122D01*
X1770881Y735143D01*
X1772227Y736489D01*
X1772956Y738248D01*
Y740152D01*
X1772227Y741911D01*
X1770881Y743258D01*
X1769122Y743986D01*
D02*
G37*
G36*
X1791122Y732986D02*
X1789218D01*
X1787459Y732257D01*
X1786113Y730911D01*
X1785384Y729152D01*
Y727248D01*
X1786113Y725489D01*
X1787459Y724143D01*
X1789218Y723414D01*
X1791122D01*
X1792881Y724143D01*
X1794227Y725489D01*
X1794956Y727248D01*
Y729152D01*
X1794227Y730911D01*
X1792881Y732257D01*
X1791122Y732986D01*
D02*
G37*
G36*
X1780122D02*
X1778218D01*
X1776459Y732257D01*
X1775112Y730911D01*
X1774384Y729152D01*
Y727248D01*
X1775112Y725489D01*
X1776459Y724143D01*
X1778218Y723414D01*
X1780122D01*
X1781881Y724143D01*
X1783227Y725489D01*
X1783956Y727248D01*
Y729152D01*
X1783227Y730911D01*
X1781881Y732257D01*
X1780122Y732986D01*
D02*
G37*
G36*
X1769122D02*
X1767218D01*
X1765459Y732257D01*
X1764113Y730911D01*
X1763384Y729152D01*
Y727248D01*
X1764113Y725489D01*
X1765459Y724143D01*
X1767218Y723414D01*
X1769122D01*
X1770881Y724143D01*
X1772227Y725489D01*
X1772956Y727248D01*
Y729152D01*
X1772227Y730911D01*
X1770881Y732257D01*
X1769122Y732986D01*
D02*
G37*
G36*
X1791122Y721986D02*
X1789218D01*
X1787459Y721258D01*
X1786113Y719911D01*
X1785384Y718152D01*
Y716248D01*
X1786113Y714489D01*
X1787459Y713143D01*
X1789218Y712414D01*
X1791122D01*
X1792881Y713143D01*
X1794227Y714489D01*
X1794956Y716248D01*
Y718152D01*
X1794227Y719911D01*
X1792881Y721258D01*
X1791122Y721986D01*
D02*
G37*
G36*
X1780122D02*
X1778218D01*
X1776459Y721258D01*
X1775112Y719911D01*
X1774384Y718152D01*
Y716248D01*
X1775112Y714489D01*
X1776459Y713143D01*
X1778218Y712414D01*
X1780122D01*
X1781881Y713143D01*
X1783227Y714489D01*
X1783956Y716248D01*
Y718152D01*
X1783227Y719911D01*
X1781881Y721258D01*
X1780122Y721986D01*
D02*
G37*
G36*
X1769122D02*
X1767218D01*
X1765459Y721258D01*
X1764113Y719911D01*
X1763384Y718152D01*
Y716248D01*
X1764113Y714489D01*
X1765459Y713143D01*
X1767218Y712414D01*
X1769122D01*
X1770881Y713143D01*
X1772227Y714489D01*
X1772956Y716248D01*
Y718152D01*
X1772227Y719911D01*
X1770881Y721258D01*
X1769122Y721986D01*
D02*
G37*
G36*
X1791122Y710986D02*
X1789218D01*
X1787459Y710257D01*
X1786113Y708911D01*
X1785384Y707152D01*
Y705248D01*
X1786113Y703489D01*
X1787459Y702143D01*
X1789218Y701414D01*
X1791122D01*
X1792881Y702143D01*
X1794227Y703489D01*
X1794956Y705248D01*
Y707152D01*
X1794227Y708911D01*
X1792881Y710257D01*
X1791122Y710986D01*
D02*
G37*
G36*
X1780122D02*
X1778218D01*
X1776459Y710257D01*
X1775112Y708911D01*
X1774384Y707152D01*
Y705248D01*
X1775112Y703489D01*
X1776459Y702143D01*
X1778218Y701414D01*
X1780122D01*
X1781881Y702143D01*
X1783227Y703489D01*
X1783956Y705248D01*
Y707152D01*
X1783227Y708911D01*
X1781881Y710257D01*
X1780122Y710986D01*
D02*
G37*
G36*
X1769122D02*
X1767218D01*
X1765459Y710257D01*
X1764113Y708911D01*
X1763384Y707152D01*
Y705248D01*
X1764113Y703489D01*
X1765459Y702143D01*
X1767218Y701414D01*
X1769122D01*
X1770881Y702143D01*
X1772227Y703489D01*
X1772956Y705248D01*
Y707152D01*
X1772227Y708911D01*
X1770881Y710257D01*
X1769122Y710986D01*
D02*
G37*
%LPD*%
D11*
X1882101Y1711833D02*
Y1714207D01*
X1894838Y1591918D02*
Y1862457D01*
X1889760Y1867535D02*
X1894838Y1862457D01*
X1808632Y1505712D02*
X1894838Y1591918D01*
X1745383Y1575115D02*
X1788022Y1617754D01*
X1882101Y1714207D02*
X1882394Y1714500D01*
X1788022Y1617754D02*
X1882101Y1711833D01*
X1741738Y1416813D02*
X1745383Y1420458D01*
Y1575115D01*
X1803398Y1492029D02*
X1829458Y1465969D01*
X1830951D01*
X1831340Y1465580D01*
X1803398Y1492029D02*
Y1505712D01*
X1808632D01*
D217*
X1174400Y924704D02*
D03*
X824400Y1274704D02*
D03*
X45720Y1955800D02*
D03*
Y45720D02*
D03*
X1955800D02*
D03*
Y1955800D02*
D03*
D218*
X1927606Y1719326D02*
D03*
X1978406D02*
D03*
Y1770126D02*
D03*
X1927606D02*
D03*
X1953006Y1744726D02*
D03*
X1954530Y1573127D02*
D03*
X1929130Y1598527D02*
D03*
X1979930D02*
D03*
Y1547727D02*
D03*
X1929130D02*
D03*
X1954530Y1456287D02*
D03*
X1929130Y1481687D02*
D03*
X1979930D02*
D03*
Y1430887D02*
D03*
X1929130D02*
D03*
X1953006Y1861566D02*
D03*
X1927606Y1886966D02*
D03*
X1978406D02*
D03*
Y1836166D02*
D03*
X1927606D02*
D03*
D219*
X1933980Y591820D02*
D03*
Y464820D02*
D03*
D220*
X1908580Y563880D02*
D03*
D221*
Y543560D02*
D03*
Y523240D02*
D03*
Y502920D02*
D03*
X1890800Y553720D02*
D03*
Y533400D02*
D03*
Y513080D02*
D03*
Y492760D02*
D03*
X1842540Y596900D02*
D03*
Y482600D02*
D03*
Y459740D02*
D03*
Y574040D02*
D03*
D222*
X1884680Y301500D02*
D03*
Y181100D02*
D03*
X1797320Y982800D02*
D03*
Y1024800D02*
D03*
Y1066800D02*
D03*
X1852320Y982800D02*
D03*
Y1024800D02*
D03*
D223*
X1857680Y228800D02*
D03*
Y253800D02*
D03*
X1837680Y228800D02*
D03*
Y253800D02*
D03*
D224*
X1373680Y487570D02*
D03*
X1384380D02*
D03*
X1395080D02*
D03*
X1373680Y476870D02*
D03*
X1384380D02*
D03*
X1395080D02*
D03*
X1373680Y466170D02*
D03*
X1384380D02*
D03*
X1395080D02*
D03*
D225*
X1940560Y712800D02*
D03*
D226*
Y762800D02*
D03*
Y812800D02*
D03*
Y862800D02*
D03*
D227*
X1852320Y1066800D02*
D03*
D228*
X537210Y1052830D02*
D03*
X428033Y1068710D02*
D03*
Y1086490D02*
D03*
X715122Y1266464D02*
D03*
Y1286784D02*
D03*
X735442D02*
D03*
Y1266464D02*
D03*
X754492D02*
D03*
Y1286784D02*
D03*
X694802Y1266464D02*
D03*
Y1286784D02*
D03*
X774812Y1266464D02*
D03*
Y1286784D02*
D03*
X314960Y1414795D02*
D03*
Y1496075D02*
D03*
Y1475755D02*
D03*
Y1455435D02*
D03*
Y1435115D02*
D03*
Y1678955D02*
D03*
Y1658635D02*
D03*
Y1638315D02*
D03*
Y1577355D02*
D03*
Y1597675D02*
D03*
Y1617995D02*
D03*
Y1557035D02*
D03*
Y1536715D02*
D03*
Y1516395D02*
D03*
Y1821180D02*
D03*
Y1841500D02*
D03*
Y1861820D02*
D03*
Y1800860D02*
D03*
Y1780540D02*
D03*
Y1760220D02*
D03*
Y1699260D02*
D03*
Y1719580D02*
D03*
Y1739900D02*
D03*
Y1882140D02*
D03*
X274320Y1272525D02*
D03*
Y1252205D02*
D03*
Y1292860D02*
D03*
Y1333500D02*
D03*
Y1353820D02*
D03*
Y1313180D02*
D03*
X546100Y1477025D02*
D03*
Y1497345D02*
D03*
Y1639585D02*
D03*
Y1659905D02*
D03*
Y1680225D02*
D03*
Y1619265D02*
D03*
Y1598945D02*
D03*
Y1578625D02*
D03*
Y1517665D02*
D03*
Y1537985D02*
D03*
Y1558305D02*
D03*
Y1863090D02*
D03*
Y1842770D02*
D03*
Y1822450D02*
D03*
Y1761490D02*
D03*
Y1781810D02*
D03*
Y1802130D02*
D03*
Y1741170D02*
D03*
Y1720850D02*
D03*
Y1700530D02*
D03*
Y1883410D02*
D03*
X525780Y1497345D02*
D03*
Y1477025D02*
D03*
X505460D02*
D03*
Y1497345D02*
D03*
Y1639585D02*
D03*
Y1659905D02*
D03*
Y1680225D02*
D03*
X525780D02*
D03*
Y1659905D02*
D03*
Y1639585D02*
D03*
Y1578625D02*
D03*
Y1598945D02*
D03*
Y1619265D02*
D03*
X505460D02*
D03*
Y1598945D02*
D03*
Y1578625D02*
D03*
Y1517665D02*
D03*
Y1537985D02*
D03*
Y1558305D02*
D03*
X525780D02*
D03*
Y1537985D02*
D03*
Y1517665D02*
D03*
X505460Y1863090D02*
D03*
Y1842770D02*
D03*
Y1822450D02*
D03*
X525780D02*
D03*
Y1842770D02*
D03*
Y1863090D02*
D03*
Y1802130D02*
D03*
Y1781810D02*
D03*
Y1761490D02*
D03*
X505460D02*
D03*
Y1781810D02*
D03*
Y1802130D02*
D03*
Y1741170D02*
D03*
Y1720850D02*
D03*
Y1700530D02*
D03*
X525780D02*
D03*
Y1720850D02*
D03*
Y1741170D02*
D03*
Y1883410D02*
D03*
X505460D02*
D03*
X274320Y1882140D02*
D03*
X294640D02*
D03*
Y1739900D02*
D03*
Y1719580D02*
D03*
Y1699260D02*
D03*
X274320D02*
D03*
Y1719580D02*
D03*
Y1739900D02*
D03*
Y1800860D02*
D03*
Y1780540D02*
D03*
Y1760220D02*
D03*
X294640D02*
D03*
Y1780540D02*
D03*
Y1800860D02*
D03*
Y1861820D02*
D03*
Y1841500D02*
D03*
Y1821180D02*
D03*
X274320D02*
D03*
Y1841500D02*
D03*
Y1861820D02*
D03*
X294640Y1516395D02*
D03*
Y1536715D02*
D03*
Y1557035D02*
D03*
X274320D02*
D03*
Y1536715D02*
D03*
Y1516395D02*
D03*
Y1577355D02*
D03*
Y1597675D02*
D03*
Y1617995D02*
D03*
X294640D02*
D03*
Y1597675D02*
D03*
Y1577355D02*
D03*
Y1638315D02*
D03*
Y1658635D02*
D03*
Y1678955D02*
D03*
X274320D02*
D03*
Y1658635D02*
D03*
Y1638315D02*
D03*
X294640Y1435115D02*
D03*
X274320D02*
D03*
Y1496075D02*
D03*
Y1475755D02*
D03*
Y1455435D02*
D03*
X294640D02*
D03*
Y1475755D02*
D03*
Y1496075D02*
D03*
X274320Y1414795D02*
D03*
X294640D02*
D03*
X274320Y1374140D02*
D03*
Y1394460D02*
D03*
X1520190Y1430020D02*
D03*
X1540510D02*
D03*
Y1450340D02*
D03*
X1520190D02*
D03*
X1560830D02*
D03*
X1581150D02*
D03*
Y1430020D02*
D03*
X1560830D02*
D03*
X1718310Y1389380D02*
D03*
X1483360Y1553030D02*
D03*
X1493520D02*
D03*
Y1542870D02*
D03*
X1483360D02*
D03*
X1883410Y1921510D02*
D03*
Y1941830D02*
D03*
Y1960880D02*
D03*
Y1981200D02*
D03*
X1822450D02*
D03*
X1842770D02*
D03*
X1863090D02*
D03*
Y1960880D02*
D03*
X1842770D02*
D03*
X1822450D02*
D03*
Y1941830D02*
D03*
X1842770D02*
D03*
X1863090D02*
D03*
Y1921510D02*
D03*
X1842770D02*
D03*
X1822450D02*
D03*
X1438910D02*
D03*
X1459230D02*
D03*
X1479550D02*
D03*
Y1941830D02*
D03*
X1459230D02*
D03*
X1438910D02*
D03*
Y1960880D02*
D03*
X1459230D02*
D03*
X1479550D02*
D03*
Y1981200D02*
D03*
X1459230D02*
D03*
X1438910D02*
D03*
X1499870D02*
D03*
X1520190D02*
D03*
X1540510D02*
D03*
Y1960880D02*
D03*
X1520190D02*
D03*
X1499870D02*
D03*
Y1941830D02*
D03*
X1520190D02*
D03*
X1540510D02*
D03*
Y1921510D02*
D03*
X1520190D02*
D03*
X1499870D02*
D03*
X1560830D02*
D03*
X1581150D02*
D03*
X1601470D02*
D03*
Y1941830D02*
D03*
X1581150D02*
D03*
X1560830D02*
D03*
Y1960880D02*
D03*
X1581150D02*
D03*
X1601470D02*
D03*
Y1981200D02*
D03*
X1581150D02*
D03*
X1560830D02*
D03*
X1661160D02*
D03*
X1681480D02*
D03*
X1701800D02*
D03*
Y1960880D02*
D03*
X1681480D02*
D03*
X1661160D02*
D03*
Y1941830D02*
D03*
X1681480D02*
D03*
X1701800D02*
D03*
X1661160Y1921510D02*
D03*
X1620520D02*
D03*
X1640840D02*
D03*
Y1941830D02*
D03*
X1620520D02*
D03*
Y1960880D02*
D03*
X1640840D02*
D03*
Y1981200D02*
D03*
X1620520D02*
D03*
X1720850D02*
D03*
X1741170D02*
D03*
Y1960880D02*
D03*
X1720850D02*
D03*
Y1941830D02*
D03*
X1741170D02*
D03*
Y1921510D02*
D03*
X1720850D02*
D03*
X1761490D02*
D03*
X1781810D02*
D03*
X1802130D02*
D03*
Y1941830D02*
D03*
X1781810D02*
D03*
X1761490D02*
D03*
Y1960880D02*
D03*
X1781810D02*
D03*
X1802130D02*
D03*
Y1981200D02*
D03*
X1781810D02*
D03*
X1761490D02*
D03*
X1984369Y1374726D02*
D03*
X1964049D02*
D03*
X1943729D02*
D03*
X1950048Y1502926D02*
D03*
X1970368D02*
D03*
Y1523246D02*
D03*
X1950048D02*
D03*
X1929728D02*
D03*
Y1502926D02*
D03*
X1931670Y1635760D02*
D03*
Y1656080D02*
D03*
X1951990D02*
D03*
X1972310D02*
D03*
Y1635760D02*
D03*
X1951990D02*
D03*
X1729740Y1673860D02*
D03*
X1750060D02*
D03*
X1770380D02*
D03*
Y1694180D02*
D03*
X1750060D02*
D03*
X1729740D02*
D03*
X1790700D02*
D03*
X1811020D02*
D03*
X1831340D02*
D03*
Y1673860D02*
D03*
X1811020D02*
D03*
X1790700D02*
D03*
X1851660D02*
D03*
X1871980D02*
D03*
X1892300D02*
D03*
Y1694180D02*
D03*
X1871980D02*
D03*
X1851660D02*
D03*
X1951990D02*
D03*
X1972310D02*
D03*
Y1673860D02*
D03*
X1951990D02*
D03*
X1911350D02*
D03*
X1931670D02*
D03*
Y1694180D02*
D03*
X1911350D02*
D03*
X1346200Y1673860D02*
D03*
X1366520D02*
D03*
X1386840D02*
D03*
Y1694180D02*
D03*
X1366520D02*
D03*
X1346200D02*
D03*
X1407160D02*
D03*
X1427480D02*
D03*
X1447800D02*
D03*
Y1673860D02*
D03*
X1427480D02*
D03*
X1407160D02*
D03*
X1468120D02*
D03*
X1488440D02*
D03*
X1508760D02*
D03*
Y1694180D02*
D03*
X1488440D02*
D03*
X1468120D02*
D03*
X1568450D02*
D03*
X1588770D02*
D03*
X1609090D02*
D03*
Y1673860D02*
D03*
X1588770D02*
D03*
X1568450D02*
D03*
X1527810D02*
D03*
X1548130D02*
D03*
Y1694180D02*
D03*
X1527810D02*
D03*
X1628140D02*
D03*
X1648460D02*
D03*
Y1673860D02*
D03*
X1628140D02*
D03*
X1668780D02*
D03*
X1689100D02*
D03*
X1709420D02*
D03*
Y1694180D02*
D03*
X1689100D02*
D03*
X1668780D02*
D03*
X1691640Y1362710D02*
D03*
Y1343660D02*
D03*
X1737360Y1330960D02*
D03*
X1718310D02*
D03*
X1784350Y1340439D02*
D03*
X1765300D02*
D03*
X436880Y1228090D02*
D03*
Y1248410D02*
D03*
X416560D02*
D03*
Y1228090D02*
D03*
X477520D02*
D03*
Y1248410D02*
D03*
Y1268730D02*
D03*
X457200D02*
D03*
Y1248410D02*
D03*
Y1228090D02*
D03*
Y1289050D02*
D03*
X477520D02*
D03*
X1441450Y1346200D02*
D03*
X1461770D02*
D03*
X1480820D02*
D03*
X1421130D02*
D03*
X1400810D02*
D03*
X1381760D02*
D03*
X1361440D02*
D03*
X1625600Y1306830D02*
D03*
Y1327150D02*
D03*
Y1347470D02*
D03*
X1645920D02*
D03*
Y1327150D02*
D03*
Y1306830D02*
D03*
X1664970D02*
D03*
Y1327150D02*
D03*
Y1347470D02*
D03*
X1605280Y1306830D02*
D03*
Y1327150D02*
D03*
Y1347470D02*
D03*
X1584960D02*
D03*
Y1327150D02*
D03*
Y1306830D02*
D03*
X1565910D02*
D03*
Y1327150D02*
D03*
Y1347470D02*
D03*
X1545590D02*
D03*
Y1327150D02*
D03*
Y1306830D02*
D03*
X1699260Y1202690D02*
D03*
X1719580D02*
D03*
X1739900D02*
D03*
Y1182370D02*
D03*
X1719580D02*
D03*
X1699260D02*
D03*
Y1163320D02*
D03*
X1719580D02*
D03*
X1739900D02*
D03*
X1699260Y1223010D02*
D03*
X1719580D02*
D03*
X1739900D02*
D03*
Y1243330D02*
D03*
X1719580D02*
D03*
X1699260D02*
D03*
Y1262380D02*
D03*
X1719580D02*
D03*
X1739900D02*
D03*
Y1282700D02*
D03*
X1719580D02*
D03*
X1699260D02*
D03*
X1758950Y1202690D02*
D03*
Y1182370D02*
D03*
Y1163320D02*
D03*
Y1223010D02*
D03*
Y1243330D02*
D03*
Y1262380D02*
D03*
Y1282700D02*
D03*
X1587500Y1143000D02*
D03*
Y1163320D02*
D03*
X1567180D02*
D03*
Y1143000D02*
D03*
X1384300Y1036320D02*
D03*
Y1016000D02*
D03*
X1363980Y995680D02*
D03*
X1323340D02*
D03*
X1343660D02*
D03*
X1303020D02*
D03*
Y975360D02*
D03*
X1323340Y955040D02*
D03*
X1343660D02*
D03*
Y975360D02*
D03*
X1323340D02*
D03*
X1384300Y995680D02*
D03*
X1445260Y975360D02*
D03*
X1384300D02*
D03*
X1363980D02*
D03*
Y955040D02*
D03*
X1384300D02*
D03*
X1404620D02*
D03*
X1424940D02*
D03*
Y975360D02*
D03*
X1404620D02*
D03*
X1424940Y1036320D02*
D03*
X1404620D02*
D03*
X1424940Y1056640D02*
D03*
Y1016000D02*
D03*
X1404620D02*
D03*
Y995680D02*
D03*
X1424940D02*
D03*
X1445260D02*
D03*
X1465580D02*
D03*
X1485900Y1016000D02*
D03*
X1465580D02*
D03*
X1445260D02*
D03*
Y1056640D02*
D03*
X1465580D02*
D03*
X1485900D02*
D03*
Y1036320D02*
D03*
X1465580D02*
D03*
X1445260D02*
D03*
Y1076960D02*
D03*
X1465580D02*
D03*
X1485900D02*
D03*
Y1097280D02*
D03*
X1465580D02*
D03*
X1445260D02*
D03*
Y1116330D02*
D03*
X1465580D02*
D03*
X1485900D02*
D03*
Y1136650D02*
D03*
X1465580D02*
D03*
X1445260D02*
D03*
X1506220D02*
D03*
Y1116330D02*
D03*
Y1097280D02*
D03*
Y1076960D02*
D03*
Y1036320D02*
D03*
Y1056640D02*
D03*
X1278108Y1183614D02*
D03*
X1257788D02*
D03*
Y1164564D02*
D03*
X1278108D02*
D03*
X1093769Y896700D02*
D03*
X1073449D02*
D03*
Y877650D02*
D03*
X1093769D02*
D03*
X1094286Y861117D02*
D03*
X1073966D02*
D03*
Y842067D02*
D03*
X1094286D02*
D03*
X1297860Y826062D02*
D03*
X1318180D02*
D03*
X1338500D02*
D03*
Y846382D02*
D03*
X1318180D02*
D03*
X1297860D02*
D03*
Y865432D02*
D03*
X1318180D02*
D03*
X1338500D02*
D03*
Y885752D02*
D03*
X1318180D02*
D03*
X1297860D02*
D03*
X1358820D02*
D03*
Y865432D02*
D03*
Y846382D02*
D03*
Y826062D02*
D03*
X1671032Y995593D02*
D03*
Y1015913D02*
D03*
X1650712D02*
D03*
Y995593D02*
D03*
X1631662D02*
D03*
Y1015913D02*
D03*
X1611342D02*
D03*
Y995593D02*
D03*
X1538822Y870578D02*
D03*
X1559142D02*
D03*
Y890898D02*
D03*
X1538822D02*
D03*
Y909948D02*
D03*
X1559142D02*
D03*
Y930268D02*
D03*
X1538822D02*
D03*
X1485240Y746379D02*
D03*
X1505560D02*
D03*
X1525880D02*
D03*
X1485240Y766699D02*
D03*
X1505560D02*
D03*
X1525880D02*
D03*
Y787019D02*
D03*
X1505560D02*
D03*
X1485240D02*
D03*
Y806069D02*
D03*
X1505560D02*
D03*
X1525880D02*
D03*
Y826389D02*
D03*
X1505560D02*
D03*
X1485240D02*
D03*
X1546200D02*
D03*
X1566520D02*
D03*
Y806069D02*
D03*
X1546200D02*
D03*
Y787019D02*
D03*
X1566520D02*
D03*
Y766699D02*
D03*
X1546200D02*
D03*
X1566520Y746379D02*
D03*
X1546200D02*
D03*
X1744736Y964394D02*
D03*
X1763786Y984714D02*
D03*
Y964394D02*
D03*
X403860Y561340D02*
D03*
X424180D02*
D03*
X444500D02*
D03*
Y541020D02*
D03*
X424180D02*
D03*
X403860D02*
D03*
Y521970D02*
D03*
X424180D02*
D03*
X444500D02*
D03*
Y501650D02*
D03*
X424180D02*
D03*
X403860D02*
D03*
Y581660D02*
D03*
X424180D02*
D03*
X444500D02*
D03*
Y601980D02*
D03*
X424180D02*
D03*
X403860D02*
D03*
Y621030D02*
D03*
X424180D02*
D03*
X444500D02*
D03*
Y641350D02*
D03*
X424180D02*
D03*
X403860D02*
D03*
X464820D02*
D03*
X485140D02*
D03*
X505460D02*
D03*
Y621030D02*
D03*
X485140D02*
D03*
X464820D02*
D03*
Y601980D02*
D03*
X485140D02*
D03*
X505460D02*
D03*
Y581660D02*
D03*
X485140D02*
D03*
X464820D02*
D03*
Y501650D02*
D03*
X485140D02*
D03*
X505460D02*
D03*
Y521970D02*
D03*
X485140D02*
D03*
X464820D02*
D03*
Y541020D02*
D03*
X485140D02*
D03*
X505460D02*
D03*
Y561340D02*
D03*
X485140D02*
D03*
X464820D02*
D03*
X525780D02*
D03*
X546100D02*
D03*
X566420D02*
D03*
Y541020D02*
D03*
X546100D02*
D03*
X525780D02*
D03*
Y521970D02*
D03*
X546100D02*
D03*
X566420D02*
D03*
Y501650D02*
D03*
X546100D02*
D03*
X525780D02*
D03*
Y581660D02*
D03*
X546100D02*
D03*
X566420D02*
D03*
Y601980D02*
D03*
X546100D02*
D03*
X525780D02*
D03*
Y621030D02*
D03*
X546100D02*
D03*
X566420D02*
D03*
Y641350D02*
D03*
X546100D02*
D03*
X525780D02*
D03*
X626110D02*
D03*
X646430D02*
D03*
X666750D02*
D03*
Y621030D02*
D03*
X646430D02*
D03*
X626110D02*
D03*
Y601980D02*
D03*
X646430D02*
D03*
X666750D02*
D03*
Y581660D02*
D03*
X646430D02*
D03*
X626110D02*
D03*
Y501650D02*
D03*
X646430D02*
D03*
X666750D02*
D03*
Y521970D02*
D03*
X646430D02*
D03*
X626110D02*
D03*
Y541020D02*
D03*
X646430D02*
D03*
X666750D02*
D03*
Y561340D02*
D03*
X646430D02*
D03*
X626110D02*
D03*
X585470D02*
D03*
X605790D02*
D03*
Y541020D02*
D03*
X585470D02*
D03*
Y521970D02*
D03*
X605790D02*
D03*
Y501650D02*
D03*
X585470D02*
D03*
Y581660D02*
D03*
X605790D02*
D03*
Y601980D02*
D03*
X585470D02*
D03*
Y621030D02*
D03*
X605790D02*
D03*
Y641350D02*
D03*
X585470D02*
D03*
X845820Y1436370D02*
D03*
X866140D02*
D03*
Y1416050D02*
D03*
X845820D02*
D03*
Y1456690D02*
D03*
X866140D02*
D03*
Y1477010D02*
D03*
X845820D02*
D03*
Y1496060D02*
D03*
X866140D02*
D03*
X825500D02*
D03*
X805180D02*
D03*
X784860D02*
D03*
Y1477010D02*
D03*
X805180D02*
D03*
X825500D02*
D03*
Y1456690D02*
D03*
X805180D02*
D03*
X784860D02*
D03*
Y1416050D02*
D03*
X805180D02*
D03*
X825500D02*
D03*
Y1436370D02*
D03*
X805180D02*
D03*
X784860D02*
D03*
X1070610Y1295400D02*
D03*
Y1275080D02*
D03*
X1130300D02*
D03*
X1111250D02*
D03*
Y1295400D02*
D03*
X1090930D02*
D03*
Y1275080D02*
D03*
X990600Y1295400D02*
D03*
Y1275080D02*
D03*
X1050290Y1295400D02*
D03*
Y1275080D02*
D03*
X1031240D02*
D03*
Y1295400D02*
D03*
X1010920D02*
D03*
Y1275080D02*
D03*
X910590Y1295400D02*
D03*
Y1275080D02*
D03*
X970280Y1295400D02*
D03*
Y1275080D02*
D03*
X951230D02*
D03*
Y1295400D02*
D03*
X930910D02*
D03*
Y1275080D02*
D03*
X1094286Y806201D02*
D03*
X1073966D02*
D03*
Y825251D02*
D03*
X1094286D02*
D03*
X1209040Y984250D02*
D03*
X1229360Y963930D02*
D03*
X1209040D02*
D03*
X1229360Y943610D02*
D03*
X1209040D02*
D03*
X1229360Y984250D02*
D03*
Y1004570D02*
D03*
X1209040D02*
D03*
Y1125220D02*
D03*
X1229360D02*
D03*
Y1104900D02*
D03*
X1209040D02*
D03*
Y1085850D02*
D03*
X1229360D02*
D03*
Y1065530D02*
D03*
X1209040D02*
D03*
Y1024890D02*
D03*
X1229360D02*
D03*
Y1045210D02*
D03*
X1209040D02*
D03*
Y1245870D02*
D03*
X1229360D02*
D03*
Y1225550D02*
D03*
X1209040D02*
D03*
Y1206500D02*
D03*
X1229360D02*
D03*
Y1186180D02*
D03*
X1209040D02*
D03*
Y1145540D02*
D03*
X1229360D02*
D03*
Y1165860D02*
D03*
X1209040D02*
D03*
X1023620Y925830D02*
D03*
X1003300D02*
D03*
X943610Y885190D02*
D03*
Y905510D02*
D03*
X963930D02*
D03*
Y885190D02*
D03*
X982980D02*
D03*
Y905510D02*
D03*
X1003300D02*
D03*
Y885190D02*
D03*
Y824230D02*
D03*
Y844550D02*
D03*
Y864870D02*
D03*
X982980D02*
D03*
Y844550D02*
D03*
Y824230D02*
D03*
X963930D02*
D03*
Y844550D02*
D03*
Y864870D02*
D03*
X943610D02*
D03*
Y844550D02*
D03*
Y824230D02*
D03*
Y803910D02*
D03*
X963930D02*
D03*
X982980D02*
D03*
X1003300D02*
D03*
X436880Y1268730D02*
D03*
Y1289050D02*
D03*
X375920D02*
D03*
X396240D02*
D03*
X416560D02*
D03*
Y1268730D02*
D03*
X396240D02*
D03*
X375920D02*
D03*
Y1309370D02*
D03*
X396240D02*
D03*
X416560D02*
D03*
Y1329690D02*
D03*
X396240D02*
D03*
X375920D02*
D03*
X436880D02*
D03*
X457200D02*
D03*
X477520D02*
D03*
Y1309370D02*
D03*
X457200D02*
D03*
X436880D02*
D03*
X497840D02*
D03*
X518160D02*
D03*
X538480D02*
D03*
Y1329690D02*
D03*
X518160D02*
D03*
X497840D02*
D03*
X355600Y1374140D02*
D03*
X335280D02*
D03*
X314960D02*
D03*
Y1394460D02*
D03*
X335280D02*
D03*
X355600D02*
D03*
X294640D02*
D03*
Y1374140D02*
D03*
X497840Y1394460D02*
D03*
X518160D02*
D03*
X538480D02*
D03*
Y1374140D02*
D03*
X518160D02*
D03*
X497840D02*
D03*
X436880D02*
D03*
X457200D02*
D03*
X477520D02*
D03*
Y1394460D02*
D03*
X457200D02*
D03*
X436880D02*
D03*
X375920D02*
D03*
X396240D02*
D03*
X416560D02*
D03*
Y1374140D02*
D03*
X396240D02*
D03*
X375920D02*
D03*
X1063822Y1662430D02*
D03*
X1082872D02*
D03*
X1103192D02*
D03*
Y1682750D02*
D03*
X1082872D02*
D03*
X1063822D02*
D03*
X1010698Y1574800D02*
D03*
X1031018D02*
D03*
X1050068D02*
D03*
X1189990D02*
D03*
X1170940D02*
D03*
X1071880Y1595120D02*
D03*
X1090930D02*
D03*
X1111250D02*
D03*
X1150620D02*
D03*
X1131570D02*
D03*
Y1574800D02*
D03*
X1150620D02*
D03*
X1111250D02*
D03*
X1090930D02*
D03*
X1071880D02*
D03*
X1170940Y1692910D02*
D03*
Y1672590D02*
D03*
Y1653540D02*
D03*
Y1633220D02*
D03*
Y1595120D02*
D03*
Y1612900D02*
D03*
X1191260D02*
D03*
Y1595120D02*
D03*
Y1633220D02*
D03*
Y1653540D02*
D03*
Y1672590D02*
D03*
Y1692910D02*
D03*
X350690Y1001400D02*
D03*
X386250D02*
D03*
X368470D02*
D03*
X386250Y1026800D02*
D03*
X368470D02*
D03*
X350690D02*
D03*
X368470Y1052200D02*
D03*
X386250D02*
D03*
X350690D02*
D03*
X278300Y1052200D02*
D03*
X260520D02*
D03*
X313860D02*
D03*
X296080D02*
D03*
Y1001400D02*
D03*
X313860D02*
D03*
X296080Y1026800D02*
D03*
X313860D02*
D03*
X278300Y1001400D02*
D03*
X260520D02*
D03*
Y1026800D02*
D03*
X278300D02*
D03*
X1377950Y1981200D02*
D03*
X1398270D02*
D03*
X1418590D02*
D03*
Y1960880D02*
D03*
X1398270D02*
D03*
X1377950D02*
D03*
Y1941830D02*
D03*
X1398270D02*
D03*
X1418590D02*
D03*
Y1921510D02*
D03*
X1398270D02*
D03*
X1377950D02*
D03*
X1337310D02*
D03*
X1357630D02*
D03*
Y1941830D02*
D03*
X1337310D02*
D03*
Y1960880D02*
D03*
X1357630D02*
D03*
Y1981200D02*
D03*
X1337310D02*
D03*
X1236980D02*
D03*
X1257300D02*
D03*
Y1960880D02*
D03*
X1236980D02*
D03*
Y1941830D02*
D03*
X1257300D02*
D03*
Y1921510D02*
D03*
X1236980D02*
D03*
Y1841500D02*
D03*
X1257300D02*
D03*
Y1861820D02*
D03*
X1236980D02*
D03*
Y1880870D02*
D03*
X1257300D02*
D03*
Y1901190D02*
D03*
X1236980D02*
D03*
X1277620D02*
D03*
X1297940D02*
D03*
X1318260D02*
D03*
Y1880870D02*
D03*
X1297940D02*
D03*
X1277620D02*
D03*
Y1861820D02*
D03*
X1297940D02*
D03*
X1318260D02*
D03*
Y1841500D02*
D03*
X1297940D02*
D03*
X1277620D02*
D03*
Y1921510D02*
D03*
X1297940D02*
D03*
X1318260D02*
D03*
Y1941830D02*
D03*
X1297940D02*
D03*
X1277620D02*
D03*
Y1960880D02*
D03*
X1297940D02*
D03*
X1318260D02*
D03*
Y1981200D02*
D03*
X1297940D02*
D03*
X1277620D02*
D03*
X1177290D02*
D03*
X1197610D02*
D03*
X1217930D02*
D03*
Y1960880D02*
D03*
X1197610D02*
D03*
X1177290D02*
D03*
Y1941830D02*
D03*
X1197610D02*
D03*
X1217930D02*
D03*
Y1921510D02*
D03*
X1197610D02*
D03*
X1177290D02*
D03*
Y1841500D02*
D03*
X1197610D02*
D03*
X1217930D02*
D03*
Y1861820D02*
D03*
X1197610D02*
D03*
X1177290D02*
D03*
Y1880870D02*
D03*
X1197610D02*
D03*
X1217930D02*
D03*
Y1901190D02*
D03*
X1197610D02*
D03*
X1177290D02*
D03*
X1116330D02*
D03*
X1136650D02*
D03*
X1156970D02*
D03*
Y1880870D02*
D03*
X1136650D02*
D03*
X1116330D02*
D03*
Y1861820D02*
D03*
X1136650D02*
D03*
X1156970D02*
D03*
Y1841500D02*
D03*
X1136650D02*
D03*
X1116330D02*
D03*
Y1921510D02*
D03*
X1136650D02*
D03*
X1156970D02*
D03*
Y1941830D02*
D03*
X1136650D02*
D03*
X1116330D02*
D03*
Y1960880D02*
D03*
X1136650D02*
D03*
X1156970D02*
D03*
Y1981200D02*
D03*
X1136650D02*
D03*
X1116330D02*
D03*
X1055370D02*
D03*
X1075690D02*
D03*
X1096010D02*
D03*
Y1960880D02*
D03*
X1075690D02*
D03*
X1055370D02*
D03*
Y1941830D02*
D03*
X1075690D02*
D03*
X1096010D02*
D03*
Y1921510D02*
D03*
X1075690D02*
D03*
X1055370D02*
D03*
Y1841500D02*
D03*
X1075690D02*
D03*
X1096010D02*
D03*
Y1861820D02*
D03*
X1075690D02*
D03*
X1055370D02*
D03*
Y1880870D02*
D03*
X1075690D02*
D03*
X1096010D02*
D03*
Y1901190D02*
D03*
X1075690D02*
D03*
X1055370D02*
D03*
X760730Y1663700D02*
D03*
X720090Y1823720D02*
D03*
X740410Y1803400D02*
D03*
Y1823720D02*
D03*
X781050Y1743710D02*
D03*
X801370D02*
D03*
Y1723390D02*
D03*
X781050D02*
D03*
Y1704340D02*
D03*
X801370D02*
D03*
Y1684020D02*
D03*
X781050D02*
D03*
Y1764030D02*
D03*
X801370D02*
D03*
Y1784350D02*
D03*
X781050D02*
D03*
Y1803400D02*
D03*
X801370D02*
D03*
Y1823720D02*
D03*
X781050D02*
D03*
X760730D02*
D03*
Y1803400D02*
D03*
Y1784350D02*
D03*
Y1764030D02*
D03*
Y1684020D02*
D03*
Y1704340D02*
D03*
Y1723390D02*
D03*
Y1743710D02*
D03*
X720090Y1903730D02*
D03*
X740410D02*
D03*
X760730D02*
D03*
Y1883410D02*
D03*
X740410D02*
D03*
X720090D02*
D03*
Y1864360D02*
D03*
X740410D02*
D03*
X760730D02*
D03*
Y1844040D02*
D03*
X740410D02*
D03*
X720090D02*
D03*
Y1924050D02*
D03*
X740410D02*
D03*
X760730D02*
D03*
Y1944370D02*
D03*
X740410D02*
D03*
X720090D02*
D03*
Y1963420D02*
D03*
X740410D02*
D03*
X760730D02*
D03*
Y1983740D02*
D03*
X740410D02*
D03*
X720090D02*
D03*
X781050D02*
D03*
X801370D02*
D03*
X821690D02*
D03*
Y1963420D02*
D03*
X801370D02*
D03*
X781050D02*
D03*
Y1944370D02*
D03*
X801370D02*
D03*
X821690D02*
D03*
Y1924050D02*
D03*
X801370D02*
D03*
X781050D02*
D03*
Y1844040D02*
D03*
X801370D02*
D03*
X821690D02*
D03*
Y1864360D02*
D03*
X801370D02*
D03*
X781050D02*
D03*
Y1883410D02*
D03*
X801370D02*
D03*
X821690D02*
D03*
Y1903730D02*
D03*
X801370D02*
D03*
X781050D02*
D03*
X1945640Y1228090D02*
D03*
X763022Y1592177D02*
D03*
X795773D02*
D03*
X923290Y1963420D02*
D03*
Y1983740D02*
D03*
X902970D02*
D03*
Y1963420D02*
D03*
X842010Y1903730D02*
D03*
X862330D02*
D03*
X882650D02*
D03*
Y1883410D02*
D03*
X862330D02*
D03*
X842010D02*
D03*
Y1864360D02*
D03*
X862330D02*
D03*
X882650D02*
D03*
Y1844040D02*
D03*
X862330D02*
D03*
X842010D02*
D03*
Y1924050D02*
D03*
X862330D02*
D03*
X882650D02*
D03*
Y1944370D02*
D03*
X862330D02*
D03*
X842010D02*
D03*
Y1963420D02*
D03*
X862330D02*
D03*
X882650D02*
D03*
Y1983740D02*
D03*
X862330D02*
D03*
X842010D02*
D03*
X866314Y1725007D02*
D03*
X984773D02*
D03*
X1882394Y1714500D02*
D03*
X1392841Y1511378D02*
D03*
X1403000D02*
D03*
Y1521537D02*
D03*
X1392841D02*
D03*
X1413161D02*
D03*
X1423320D02*
D03*
Y1511378D02*
D03*
X1413161D02*
D03*
X1453801D02*
D03*
X1463961D02*
D03*
Y1521537D02*
D03*
X1453801D02*
D03*
X1433481D02*
D03*
X1443640D02*
D03*
Y1511378D02*
D03*
X1433481D02*
D03*
X1386661Y1769711D02*
D03*
Y1759551D02*
D03*
X1376501D02*
D03*
X1386661Y1749391D02*
D03*
X1376501D02*
D03*
X1447621Y1729071D02*
D03*
X1457781D02*
D03*
Y1739231D02*
D03*
X1447621D02*
D03*
X1467941D02*
D03*
X1478101D02*
D03*
Y1729071D02*
D03*
X1467941D02*
D03*
X1488261Y1739231D02*
D03*
Y1729071D02*
D03*
X1406981D02*
D03*
X1417141D02*
D03*
Y1739231D02*
D03*
X1406981D02*
D03*
X1427301D02*
D03*
X1437461D02*
D03*
Y1729071D02*
D03*
X1427301D02*
D03*
X1386661D02*
D03*
X1396821D02*
D03*
Y1739231D02*
D03*
X1386661D02*
D03*
X1366341D02*
D03*
X1376501D02*
D03*
Y1729071D02*
D03*
X1366341D02*
D03*
X1379495Y1427558D02*
D03*
X1371215D02*
D03*
X1389040Y1438227D02*
D03*
Y1427558D02*
D03*
Y1416889D02*
D03*
X1371215Y1438227D02*
D03*
Y1416889D02*
D03*
X1379495D02*
D03*
Y1438149D02*
D03*
X1741738Y1405306D02*
D03*
Y1416813D02*
D03*
X1753168Y1405306D02*
D03*
Y1416813D02*
D03*
Y1392056D02*
D03*
X1741738D02*
D03*
X1730308D02*
D03*
X1732280Y1416813D02*
D03*
Y1405306D02*
D03*
X1788022Y1617754D02*
D03*
X1889760Y1867535D02*
D03*
X1803398Y1505712D02*
D03*
X1866900Y1465580D02*
D03*
X1858010D02*
D03*
X1831340D02*
D03*
X1849120D02*
D03*
X1840230Y1426210D02*
D03*
X1831340Y1452880D02*
D03*
X1840230Y1438910D02*
D03*
X1874520Y1450340D02*
D03*
X1883410D02*
D03*
X1866900D02*
D03*
X1849120D02*
D03*
X1858010D02*
D03*
X1931670Y1224280D02*
D03*
X1916430D02*
D03*
X1903730Y1243330D02*
D03*
Y1235710D02*
D03*
Y1228090D02*
D03*
X1939290Y1224280D02*
D03*
X1924050D02*
D03*
X1908810D02*
D03*
X1629156Y1400463D02*
D03*
X1653861Y1422400D02*
D03*
X1477621Y550829D02*
D03*
X1386098Y542934D02*
D03*
X1400175Y541682D02*
D03*
X1484490Y551054D02*
D03*
X1393962Y536808D02*
D03*
X1425944Y453656D02*
D03*
X1426210Y514350D02*
D03*
X1427480Y461010D02*
D03*
X1426210Y468630D02*
D03*
X1380470Y545836D02*
D03*
X1274674Y496836D02*
D03*
X1265071Y426196D02*
D03*
X1265008Y420148D02*
D03*
X1231358Y459702D02*
D03*
X1248278Y482905D02*
D03*
X1226109Y456533D02*
D03*
X1254952Y463980D02*
D03*
X1257533Y500788D02*
D03*
X1311980Y559770D02*
D03*
X1333171Y571977D02*
D03*
X1336461Y576175D02*
D03*
X1409379Y431165D02*
D03*
X1339179Y421671D02*
D03*
X1341095Y416067D02*
D03*
X1320437Y416131D02*
D03*
X1327139D02*
D03*
X1257945Y471994D02*
D03*
X1258221Y458917D02*
D03*
X1252837Y497455D02*
D03*
X1269822Y494620D02*
D03*
X1288173Y420148D02*
D03*
X1288208Y414187D02*
D03*
X1278691Y472636D02*
D03*
X1291065Y506373D02*
D03*
X1282348Y492477D02*
D03*
X1287135Y496217D02*
D03*
X1274304Y469603D02*
D03*
X1416629Y431132D02*
D03*
X1249778Y488623D02*
D03*
X1262380Y474980D02*
D03*
X1052500Y1030005D02*
D03*
X1032500D02*
D03*
X1002511Y1039990D02*
D03*
X972515Y1020011D02*
D03*
X1295890Y509075D02*
D03*
X655342Y1369726D02*
D03*
X662242Y1372686D02*
D03*
X655342Y1376562D02*
D03*
Y1351651D02*
D03*
X662242Y1366590D02*
D03*
Y1357954D02*
D03*
X655342Y1357912D02*
D03*
X662242Y1351858D02*
D03*
X1343003Y568522D02*
D03*
X1347236Y571737D02*
D03*
X1325086Y555594D02*
D03*
X1328980Y558800D02*
D03*
X1307512Y556349D02*
D03*
X569579Y1031862D02*
D03*
X548060Y1032570D02*
D03*
X560240Y1037100D02*
D03*
X532935Y1031724D02*
D03*
X624715Y953512D02*
D03*
X631750D02*
D03*
X637500Y953650D02*
D03*
X554816Y952880D02*
D03*
X568749Y954159D02*
D03*
X542460Y953100D02*
D03*
X606314Y954568D02*
D03*
X613297Y954459D02*
D03*
X1032510Y1090000D02*
D03*
X1042510Y1070000D02*
D03*
X1032510D02*
D03*
Y1080000D02*
D03*
X1012510D02*
D03*
X1022510D02*
D03*
X1032510Y1060000D02*
D03*
X1012510D02*
D03*
Y1050000D02*
D03*
X1022510Y1070000D02*
D03*
X1032510Y1050000D02*
D03*
X1022510Y1060028D02*
D03*
X1012510Y1070000D02*
D03*
X1052510Y1200000D02*
D03*
X952490Y1200000D02*
D03*
X972490D02*
D03*
X932490D02*
D03*
X922490D02*
D03*
X1022500Y1200010D02*
D03*
X1042510Y1200000D02*
D03*
X1012500Y1200010D02*
D03*
X1032500Y1200010D02*
D03*
X962490Y1200000D02*
D03*
X912490D02*
D03*
X1052510Y1190000D02*
D03*
X912510D02*
D03*
X972490D02*
D03*
X952490D02*
D03*
X992490D02*
D03*
X1062510D02*
D03*
X1012500Y1190010D02*
D03*
X932490Y1190000D02*
D03*
X1022500Y1190010D02*
D03*
X982490Y1070000D02*
D03*
X972490Y1080000D02*
D03*
Y1070000D02*
D03*
Y1090000D02*
D03*
X972488Y1060028D02*
D03*
X982490Y1050001D02*
D03*
X972488Y1050001D02*
D03*
X972500Y1039990D02*
D03*
X982490Y1090000D02*
D03*
Y1080000D02*
D03*
X962516Y1090007D02*
D03*
X982490Y1060028D02*
D03*
X982500Y1039990D02*
D03*
X1012510Y1090000D02*
D03*
X1022510D02*
D03*
X1052510Y1060000D02*
D03*
X1062510Y1090000D02*
D03*
X992490Y1070000D02*
D03*
X992500Y1020000D02*
D03*
X992490Y1060000D02*
D03*
Y1120000D02*
D03*
Y1110000D02*
D03*
X992500Y1039989D02*
D03*
X992500Y1010000D02*
D03*
X992490Y1090000D02*
D03*
Y1080000D02*
D03*
Y1050001D02*
D03*
X1052510Y1150000D02*
D03*
X1042710Y1150000D02*
D03*
X1042510Y1180000D02*
D03*
X1042500Y1140010D02*
D03*
X1042710Y1160000D02*
D03*
X1042510Y1170000D02*
D03*
Y1120000D02*
D03*
X1072510Y1180000D02*
D03*
Y1120000D02*
D03*
X1052510Y1180000D02*
D03*
Y1170000D02*
D03*
X1062510Y1150000D02*
D03*
Y1180000D02*
D03*
X972490Y1110000D02*
D03*
X982490Y1120000D02*
D03*
Y1110000D02*
D03*
X972490Y1120000D02*
D03*
X1012510Y1110000D02*
D03*
X1032510Y1120000D02*
D03*
X1012510D02*
D03*
X1032510Y1110000D02*
D03*
X1022510Y1120000D02*
D03*
Y1110000D02*
D03*
X1072510Y1220000D02*
D03*
X1062510D02*
D03*
Y1210000D02*
D03*
X982490D02*
D03*
X1072510D02*
D03*
X992490Y1220000D02*
D03*
X1042510D02*
D03*
X982490D02*
D03*
X1042510Y1210000D02*
D03*
X1012500Y1210010D02*
D03*
X1052500Y990000D02*
D03*
X1012510Y1000000D02*
D03*
X1032510Y1000001D02*
D03*
X1052510Y1000000D02*
D03*
X1062500D02*
D03*
X1012510Y980000D02*
D03*
X1042510Y990000D02*
D03*
X1032510D02*
D03*
X1072500D02*
D03*
X1052510Y980000D02*
D03*
X1072510D02*
D03*
X1062510Y990001D02*
D03*
X1072500Y1000000D02*
D03*
X1032510Y980000D02*
D03*
X1022500Y1220010D02*
D03*
X962490Y1229994D02*
D03*
X922490Y1220000D02*
D03*
X912490D02*
D03*
X932490D02*
D03*
X962490D02*
D03*
X952490D02*
D03*
X942490D02*
D03*
X972490D02*
D03*
X1032500Y1220010D02*
D03*
X1032510Y1020000D02*
D03*
X1012510Y1040000D02*
D03*
X1022500Y1010000D02*
D03*
X1032510Y1010000D02*
D03*
X1022510Y1040000D02*
D03*
X1012510Y1010000D02*
D03*
X1042510Y1040000D02*
D03*
X1062500Y1020000D02*
D03*
X1022500D02*
D03*
X1042500D02*
D03*
X1072510Y1040000D02*
D03*
X1042510Y1030000D02*
D03*
X1062510D02*
D03*
X1072510Y1010000D02*
D03*
X932490Y1210000D02*
D03*
X972490Y1210000D02*
D03*
X922603Y1210000D02*
D03*
X962490Y1210000D02*
D03*
X952490D02*
D03*
X912490Y1210000D02*
D03*
X982500Y1029990D02*
D03*
X972500Y1010000D02*
D03*
X972500Y1029990D02*
D03*
X982500Y1020000D02*
D03*
Y1009990D02*
D03*
X609500Y972000D02*
D03*
X617500Y972000D02*
D03*
X577500Y972000D02*
D03*
X601500D02*
D03*
X625500D02*
D03*
X593500D02*
D03*
X633500D02*
D03*
X601500Y964000D02*
D03*
X585500D02*
D03*
X593500Y980000D02*
D03*
X585500D02*
D03*
X617500Y980000D02*
D03*
X633500Y980000D02*
D03*
X609500D02*
D03*
X601500D02*
D03*
X577500Y1004000D02*
D03*
X593500Y1004000D02*
D03*
X617500Y1004000D02*
D03*
X633500Y1012000D02*
D03*
X609500Y1004000D02*
D03*
X260520Y1103000D02*
D03*
Y1128400D02*
D03*
Y1153800D02*
D03*
X350690Y925200D02*
D03*
X386250D02*
D03*
X368470D02*
D03*
X313860D02*
D03*
X296080D02*
D03*
X278300D02*
D03*
X428033Y926470D02*
D03*
Y944250D02*
D03*
X428020Y935360D02*
D03*
X428033Y917555D02*
D03*
X599610Y899800D02*
D03*
X580560D02*
D03*
X589450Y882020D02*
D03*
X571670D02*
D03*
X551275Y865193D02*
D03*
X569055D02*
D03*
X655415Y875353D02*
D03*
X637635D02*
D03*
Y898213D02*
D03*
X368470Y1153800D02*
D03*
X386250D02*
D03*
X296080D02*
D03*
X278300D02*
D03*
X404030D02*
D03*
Y1179200D02*
D03*
X278300Y950600D02*
D03*
X657500Y964000D02*
D03*
X585500Y956000D02*
D03*
X600880Y937900D02*
D03*
X605960Y946790D02*
D03*
X649500Y964000D02*
D03*
X641500Y964000D02*
D03*
X594360Y911860D02*
D03*
Y923290D02*
D03*
X594530Y946790D02*
D03*
X588180Y937900D02*
D03*
X557700D02*
D03*
X581830Y946790D02*
D03*
X551350Y937900D02*
D03*
X260520Y950600D02*
D03*
Y976000D02*
D03*
Y1077600D02*
D03*
Y925200D02*
D03*
X867510Y1075000D02*
D03*
X882510Y1120001D02*
D03*
X882490Y1140000D02*
D03*
X882500Y1000000D02*
D03*
X867510Y1035020D02*
D03*
X860550Y1095001D02*
D03*
X872500Y1059991D02*
D03*
X882500Y1060000D02*
D03*
X867510Y1045001D02*
D03*
X882500Y1090000D02*
D03*
X657500Y972000D02*
D03*
X649500Y1012000D02*
D03*
Y1028000D02*
D03*
X657500D02*
D03*
X649500Y972000D02*
D03*
Y1020000D02*
D03*
X657500Y980000D02*
D03*
X962500Y979990D02*
D03*
X972500Y979990D02*
D03*
X942500Y979990D02*
D03*
X902500D02*
D03*
X872500Y980000D02*
D03*
X882510D02*
D03*
X982500Y979990D02*
D03*
X902500Y969990D02*
D03*
X882510Y970000D02*
D03*
X892500Y969990D02*
D03*
X962500Y969990D02*
D03*
X972500Y969990D02*
D03*
X580390Y1087120D02*
D03*
X593500Y1020000D02*
D03*
X593500Y1012001D02*
D03*
X617500Y1012001D02*
D03*
X633500Y1020000D02*
D03*
X605500Y1037100D02*
D03*
X593501Y1028000D02*
D03*
X621500Y1037100D02*
D03*
X613500D02*
D03*
X577501Y1028000D02*
D03*
X278300Y1077600D02*
D03*
Y976000D02*
D03*
Y1128400D02*
D03*
Y1103000D02*
D03*
X313860Y1077600D02*
D03*
X296080Y1103000D02*
D03*
Y1128400D02*
D03*
Y1077600D02*
D03*
X368470D02*
D03*
X404030Y1103000D02*
D03*
X386250Y1077600D02*
D03*
Y1103000D02*
D03*
X368470D02*
D03*
X350690Y1077600D02*
D03*
Y950600D02*
D03*
X428033Y953140D02*
D03*
X368470Y950600D02*
D03*
X386250D02*
D03*
X313860D02*
D03*
X428033Y962032D02*
D03*
X296080Y950600D02*
D03*
X549910Y1089660D02*
D03*
X537210Y1085850D02*
D03*
X566420Y1089660D02*
D03*
X537210Y1064260D02*
D03*
Y1075690D02*
D03*
X560070D02*
D03*
X404030Y1128400D02*
D03*
X386250D02*
D03*
X368470D02*
D03*
X553423Y1003999D02*
D03*
X561500Y1020000D02*
D03*
X577500D02*
D03*
X561500Y972000D02*
D03*
X569500Y1012000D02*
D03*
X569500Y1004000D02*
D03*
X569500Y1020001D02*
D03*
X561500Y1012000D02*
D03*
X577500Y1012001D02*
D03*
X569500Y972000D02*
D03*
X428033Y1077600D02*
D03*
X922500Y989991D02*
D03*
X942500Y999990D02*
D03*
X932500Y989990D02*
D03*
X922500Y999990D02*
D03*
X912510Y1030000D02*
D03*
X932510Y1030001D02*
D03*
X912510Y1020000D02*
D03*
X942500Y1020000D02*
D03*
X942510Y1030000D02*
D03*
X962510Y1100000D02*
D03*
X962490Y1070000D02*
D03*
X962503Y1189943D02*
D03*
X962500Y1019990D02*
D03*
X962500Y990025D02*
D03*
X962501Y1030025D02*
D03*
X962500Y1010000D02*
D03*
Y999990D02*
D03*
X962510Y1050000D02*
D03*
X952510Y1090000D02*
D03*
X942510Y1090000D02*
D03*
X962500Y1110010D02*
D03*
X952510Y1100000D02*
D03*
X952500Y1120000D02*
D03*
Y1080000D02*
D03*
X942510Y1100000D02*
D03*
X942500Y1079990D02*
D03*
X902490Y1130000D02*
D03*
Y1140000D02*
D03*
X902510Y1110000D02*
D03*
X902490Y1160000D02*
D03*
Y1180000D02*
D03*
X912510Y1100000D02*
D03*
X912510Y1080000D02*
D03*
Y1050000D02*
D03*
X912638Y1130089D02*
D03*
X912510Y1090000D02*
D03*
X912490Y1120000D02*
D03*
X922590Y1099921D02*
D03*
X922490Y1180000D02*
D03*
Y1150000D02*
D03*
X932490Y1120000D02*
D03*
X922490Y1130000D02*
D03*
X922510Y1040000D02*
D03*
X932590Y1090000D02*
D03*
X932470Y1080034D02*
D03*
X922550Y1090080D02*
D03*
X932549Y1070000D02*
D03*
X932510Y1100000D02*
D03*
X922510Y1070000D02*
D03*
X932510Y1060000D02*
D03*
X932510Y1050000D02*
D03*
X932490Y1180000D02*
D03*
X892479Y1090080D02*
D03*
X892550Y1099921D02*
D03*
X902470Y1080028D02*
D03*
X892510Y1110001D02*
D03*
Y1070000D02*
D03*
X902510Y1020000D02*
D03*
Y1040000D02*
D03*
X892455Y990000D02*
D03*
X892509Y1030020D02*
D03*
X902510Y1050001D02*
D03*
X892510Y1000001D02*
D03*
X892510Y1050000D02*
D03*
X892500Y1060000D02*
D03*
X892510Y1010015D02*
D03*
X1052510Y970000D02*
D03*
X1072510D02*
D03*
X1092510Y1190000D02*
D03*
Y970000D02*
D03*
X1102510Y1160000D02*
D03*
Y1140000D02*
D03*
X1092500Y1130010D02*
D03*
X1102500Y1180010D02*
D03*
X1092510Y1120000D02*
D03*
X1102510Y970000D02*
D03*
X1092510Y980000D02*
D03*
Y1210000D02*
D03*
Y1230000D02*
D03*
Y1220000D02*
D03*
X1112500Y1230010D02*
D03*
X1082510Y1210000D02*
D03*
X1132510Y970000D02*
D03*
X1122510Y1120000D02*
D03*
X1082500Y1200010D02*
D03*
X1082510Y1050000D02*
D03*
Y1190000D02*
D03*
Y1150000D02*
D03*
Y1180000D02*
D03*
Y1020000D02*
D03*
X1042510Y1230000D02*
D03*
X992490Y1230000D02*
D03*
X1072510D02*
D03*
X1062510D02*
D03*
X1082510Y1220000D02*
D03*
X902490D02*
D03*
X942503Y1230000D02*
D03*
X902490D02*
D03*
X972490D02*
D03*
X932490D02*
D03*
X922490Y1230000D02*
D03*
X1082510Y1230000D02*
D03*
X982490Y1230090D02*
D03*
X1122510Y1160000D02*
D03*
X1132500Y1230010D02*
D03*
X1122500Y1180010D02*
D03*
X1122500Y1200010D02*
D03*
X1122510Y1140000D02*
D03*
X882510Y1220000D02*
D03*
X892490Y1220000D02*
D03*
X882490Y1180000D02*
D03*
X892510Y1190000D02*
D03*
X882490Y1160000D02*
D03*
X912490Y1230000D02*
D03*
X892490D02*
D03*
X952490D02*
D03*
X1092510Y990001D02*
D03*
X1082510Y1000000D02*
D03*
X1122510Y1050000D02*
D03*
Y990000D02*
D03*
Y1030000D02*
D03*
X1102510Y1040000D02*
D03*
Y1030000D02*
D03*
Y1010000D02*
D03*
X1122510Y1090000D02*
D03*
Y1010000D02*
D03*
X1082510Y1070000D02*
D03*
X1102510Y1090000D02*
D03*
X1122510Y1070000D02*
D03*
X1022710Y1150000D02*
D03*
X1032490Y1140000D02*
D03*
X1022510Y1130000D02*
D03*
X1032510D02*
D03*
X1012510D02*
D03*
Y1150000D02*
D03*
X1032510Y1180000D02*
D03*
X1022510D02*
D03*
X952490D02*
D03*
X962490D02*
D03*
X992490Y1180000D02*
D03*
X972490Y1180000D02*
D03*
X982490Y1170000D02*
D03*
X962490Y1170000D02*
D03*
X972490Y1160000D02*
D03*
X952490Y1150000D02*
D03*
X942490D02*
D03*
X962490Y1130000D02*
D03*
X972490Y1130000D02*
D03*
X992490D02*
D03*
X982490D02*
D03*
X972490Y1140000D02*
D03*
X992490D02*
D03*
X1032510Y1170000D02*
D03*
X1012510Y1170000D02*
D03*
X1012500Y1160010D02*
D03*
X1022510Y1170000D02*
D03*
X1032490Y1160000D02*
D03*
X313860Y976000D02*
D03*
X296080D02*
D03*
X368470D02*
D03*
X428033Y1033150D02*
D03*
Y1059795D02*
D03*
Y979810D02*
D03*
Y970895D02*
D03*
X428033Y1050930D02*
D03*
X428033Y988675D02*
D03*
Y1042015D02*
D03*
Y1024286D02*
D03*
Y997590D02*
D03*
Y1006455D02*
D03*
Y1015370D02*
D03*
X545635Y964000D02*
D03*
X545500Y1012001D02*
D03*
X537547Y1012048D02*
D03*
X529194Y963600D02*
D03*
X545500Y972000D02*
D03*
X537500Y964000D02*
D03*
X537500Y1020000D02*
D03*
X545500Y980000D02*
D03*
X545500Y1020000D02*
D03*
X529500Y1020001D02*
D03*
X537500Y972000D02*
D03*
X386250Y976000D02*
D03*
X350690D02*
D03*
X866314Y1764037D02*
D03*
Y1750407D02*
D03*
X1664208Y1839468D02*
D03*
X1697990Y1873758D02*
D03*
X1689100Y1874266D02*
D03*
X1686951Y1057600D02*
D03*
X1687830Y1094740D02*
D03*
Y1104900D02*
D03*
X1397542Y441325D02*
D03*
X1466850Y426720D02*
D03*
X1477010Y433070D02*
D03*
X1513840Y431800D02*
D03*
Y422910D02*
D03*
X1526540D02*
D03*
Y431800D02*
D03*
X1539240Y422910D02*
D03*
Y431800D02*
D03*
X1551940D02*
D03*
Y422910D02*
D03*
X1563370Y431800D02*
D03*
Y422910D02*
D03*
X1645920Y427990D02*
D03*
Y436880D02*
D03*
Y445770D02*
D03*
X1654810Y427990D02*
D03*
Y436880D02*
D03*
Y445770D02*
D03*
X1673860Y427990D02*
D03*
Y436880D02*
D03*
Y445770D02*
D03*
X1682750Y427990D02*
D03*
Y436880D02*
D03*
Y445770D02*
D03*
X1699260Y427990D02*
D03*
Y436880D02*
D03*
Y445770D02*
D03*
X1708150Y427990D02*
D03*
Y436880D02*
D03*
Y445770D02*
D03*
X1351280Y499110D02*
D03*
X1397000Y514350D02*
D03*
X1557020Y447040D02*
D03*
X1565910D02*
D03*
X1582420Y554990D02*
D03*
Y491490D02*
D03*
X1592589Y537338D02*
D03*
X1592589Y510668D02*
D03*
X1628140Y552450D02*
D03*
Y491236D02*
D03*
Y496570D02*
D03*
X1628246Y558037D02*
D03*
X1699260Y455930D02*
D03*
Y464820D02*
D03*
Y473710D02*
D03*
X1708150Y455930D02*
D03*
Y464820D02*
D03*
Y473710D02*
D03*
X1737360Y455930D02*
D03*
X1746123Y560070D02*
D03*
X1751457D02*
D03*
X1760220Y454660D02*
D03*
X1775460Y473710D02*
D03*
Y482600D02*
D03*
X1736090Y746760D02*
D03*
Y762000D02*
D03*
X1823720Y760730D02*
D03*
Y767080D02*
D03*
D229*
X1681537Y1408307D02*
D03*
X1691537D02*
D03*
X1701537D02*
D03*
Y1418307D02*
D03*
X1691537D02*
D03*
X1681537D02*
D03*
Y1428307D02*
D03*
X1691537D02*
D03*
X1701537D02*
D03*
X779273Y1565081D02*
D03*
Y1555081D02*
D03*
Y1545081D02*
D03*
X789273D02*
D03*
Y1555081D02*
D03*
Y1565081D02*
D03*
X799273D02*
D03*
Y1555081D02*
D03*
Y1545081D02*
D03*
X1506810Y1414611D02*
D03*
X1496810D02*
D03*
X1486810D02*
D03*
Y1404611D02*
D03*
X1496810D02*
D03*
X1506810D02*
D03*
Y1394611D02*
D03*
X1496810D02*
D03*
X1486810D02*
D03*
D230*
X1922719Y1165576D02*
D03*
Y1173376D02*
D03*
Y1181176D02*
D03*
X1905519D02*
D03*
Y1173376D02*
D03*
Y1165576D02*
D03*
X683862Y1368680D02*
D03*
X689612Y1378180D02*
D03*
X678112D02*
D03*
X683862Y1387680D02*
D03*
X1802899Y1404533D02*
D03*
X1812899D02*
D03*
Y1384533D02*
D03*
X1822899D02*
D03*
Y1404533D02*
D03*
Y1394533D02*
D03*
X1812899D02*
D03*
X1802899Y1384533D02*
D03*
Y1394533D02*
D03*
X978880Y1417248D02*
D03*
X989880D02*
D03*
X1000880D02*
D03*
X1011880D02*
D03*
X1022880D02*
D03*
X978880Y1406248D02*
D03*
X989880D02*
D03*
X1000880D02*
D03*
X1011880D02*
D03*
X1022880D02*
D03*
X978880Y1395249D02*
D03*
X989880D02*
D03*
X1000880D02*
D03*
X1011880D02*
D03*
X1022880D02*
D03*
X978880Y1384248D02*
D03*
X989880D02*
D03*
X1000880D02*
D03*
X1011880D02*
D03*
X1022880D02*
D03*
X978880Y1373248D02*
D03*
X989880D02*
D03*
X1000880D02*
D03*
X1011880D02*
D03*
X1022880D02*
D03*
X1607963Y1587234D02*
D03*
Y1576234D02*
D03*
Y1565234D02*
D03*
Y1554234D02*
D03*
Y1543234D02*
D03*
X1596963Y1587234D02*
D03*
Y1576234D02*
D03*
Y1565234D02*
D03*
Y1554234D02*
D03*
Y1543234D02*
D03*
X1585963Y1587234D02*
D03*
Y1576234D02*
D03*
Y1565234D02*
D03*
Y1554234D02*
D03*
Y1543234D02*
D03*
X1574963Y1587234D02*
D03*
Y1576234D02*
D03*
Y1565234D02*
D03*
Y1554234D02*
D03*
Y1543234D02*
D03*
X1563963Y1587234D02*
D03*
Y1576234D02*
D03*
Y1565234D02*
D03*
Y1554234D02*
D03*
Y1543234D02*
D03*
X1807793Y1573274D02*
D03*
X1818793D02*
D03*
X1807793Y1562274D02*
D03*
X1818793D02*
D03*
X1655076Y1770728D02*
D03*
Y1781729D02*
D03*
Y1792728D02*
D03*
Y1803728D02*
D03*
Y1814728D02*
D03*
X1666077Y1770728D02*
D03*
Y1781729D02*
D03*
Y1792728D02*
D03*
Y1803728D02*
D03*
Y1814728D02*
D03*
X1677076Y1770728D02*
D03*
Y1781729D02*
D03*
Y1792728D02*
D03*
Y1803728D02*
D03*
Y1814728D02*
D03*
X1688076Y1770728D02*
D03*
Y1781729D02*
D03*
Y1792728D02*
D03*
Y1803728D02*
D03*
Y1814728D02*
D03*
X1699076Y1770728D02*
D03*
Y1781729D02*
D03*
Y1792728D02*
D03*
Y1803728D02*
D03*
Y1814728D02*
D03*
X1768170Y794200D02*
D03*
X1779170D02*
D03*
X1790170D02*
D03*
X1768170Y783200D02*
D03*
X1779170D02*
D03*
X1790170D02*
D03*
X1768170Y772200D02*
D03*
X1779170D02*
D03*
X1790170D02*
D03*
X1768170Y761200D02*
D03*
X1779170D02*
D03*
X1790170D02*
D03*
X1768170Y750200D02*
D03*
X1779170D02*
D03*
X1790170D02*
D03*
X1768170Y739200D02*
D03*
X1779170D02*
D03*
X1790170D02*
D03*
X1768170Y728200D02*
D03*
X1779170D02*
D03*
X1790170D02*
D03*
X1768170Y717200D02*
D03*
X1779170D02*
D03*
X1790170D02*
D03*
X1768170Y706200D02*
D03*
X1779170D02*
D03*
X1790170D02*
D03*
D231*
X1594000Y1083000D02*
D03*
X1578760D02*
D03*
X1563520D02*
D03*
X1624480Y1067760D02*
D03*
X1616860Y1060140D02*
D03*
X1632100D02*
D03*
Y1075380D02*
D03*
Y1090620D02*
D03*
Y1105860D02*
D03*
X1624480Y1083000D02*
D03*
Y1098240D02*
D03*
X1616860Y1075380D02*
D03*
Y1090620D02*
D03*
Y1105860D02*
D03*
X1609240Y1067760D02*
D03*
Y1083000D02*
D03*
Y1098240D02*
D03*
X1601620Y1060140D02*
D03*
Y1075380D02*
D03*
Y1090620D02*
D03*
Y1105860D02*
D03*
X1594000Y1067760D02*
D03*
Y1098240D02*
D03*
X1586380Y1060140D02*
D03*
Y1075380D02*
D03*
Y1090620D02*
D03*
Y1105860D02*
D03*
X1578760Y1067760D02*
D03*
Y1098240D02*
D03*
X1571140Y1060140D02*
D03*
Y1075380D02*
D03*
Y1090620D02*
D03*
Y1105860D02*
D03*
X1563520Y1067760D02*
D03*
Y1098240D02*
D03*
X1555900Y1105860D02*
D03*
Y1090620D02*
D03*
Y1075380D02*
D03*
Y1060140D02*
D03*
M02*
