G04*
G04 #@! TF.GenerationSoftware,Altium Limited,Altium Designer,23.11.1 (41)*
G04*
G04 Layer_Color=8388736*
%FSLAX44Y44*%
%MOMM*%
G71*
G04*
G04 #@! TF.SameCoordinates,04611707-018F-4F9C-9273-AB504833585F*
G04*
G04*
G04 #@! TF.FilePolarity,Negative*
G04*
G01*
G75*
%ADD41R,3.1000X5.1600*%
G04:AMPARAMS|DCode=99|XSize=4.5016mm|YSize=2.6016mm|CornerRadius=0.6758mm|HoleSize=0mm|Usage=FLASHONLY|Rotation=0.000|XOffset=0mm|YOffset=0mm|HoleType=Round|Shape=RoundedRectangle|*
%AMROUNDEDRECTD99*
21,1,4.5016,1.2500,0,0,0.0*
21,1,3.1500,2.6016,0,0,0.0*
1,1,1.3516,1.5750,-0.6250*
1,1,1.3516,-1.5750,-0.6250*
1,1,1.3516,-1.5750,0.6250*
1,1,1.3516,1.5750,0.6250*
%
%ADD99ROUNDEDRECTD99*%
G04:AMPARAMS|DCode=100|XSize=3.15mm|YSize=3.15mm|CornerRadius=0.1575mm|HoleSize=0mm|Usage=FLASHONLY|Rotation=180.000|XOffset=0mm|YOffset=0mm|HoleType=Round|Shape=RoundedRectangle|*
%AMROUNDEDRECTD100*
21,1,3.1500,2.8350,0,0,180.0*
21,1,2.8350,3.1500,0,0,180.0*
1,1,0.3150,-1.4175,1.4175*
1,1,0.3150,1.4175,1.4175*
1,1,0.3150,1.4175,-1.4175*
1,1,0.3150,-1.4175,-1.4175*
%
%ADD100ROUNDEDRECTD100*%
G04:AMPARAMS|DCode=101|XSize=0.49mm|YSize=1.14mm|CornerRadius=0.1575mm|HoleSize=0mm|Usage=FLASHONLY|Rotation=270.000|XOffset=0mm|YOffset=0mm|HoleType=Round|Shape=RoundedRectangle|*
%AMROUNDEDRECTD101*
21,1,0.4900,0.8250,0,0,270.0*
21,1,0.1750,1.1400,0,0,270.0*
1,1,0.3150,-0.4125,-0.0875*
1,1,0.3150,-0.4125,0.0875*
1,1,0.3150,0.4125,0.0875*
1,1,0.3150,0.4125,-0.0875*
%
%ADD101ROUNDEDRECTD101*%
G04:AMPARAMS|DCode=102|XSize=0.49mm|YSize=1.14mm|CornerRadius=0.1575mm|HoleSize=0mm|Usage=FLASHONLY|Rotation=180.000|XOffset=0mm|YOffset=0mm|HoleType=Round|Shape=RoundedRectangle|*
%AMROUNDEDRECTD102*
21,1,0.4900,0.8250,0,0,180.0*
21,1,0.1750,1.1400,0,0,180.0*
1,1,0.3150,-0.0875,0.4125*
1,1,0.3150,0.0875,0.4125*
1,1,0.3150,0.0875,-0.4125*
1,1,0.3150,-0.0875,-0.4125*
%
%ADD102ROUNDEDRECTD102*%
G04:AMPARAMS|DCode=103|XSize=4.5016mm|YSize=2.6016mm|CornerRadius=0.6758mm|HoleSize=0mm|Usage=FLASHONLY|Rotation=270.000|XOffset=0mm|YOffset=0mm|HoleType=Round|Shape=RoundedRectangle|*
%AMROUNDEDRECTD103*
21,1,4.5016,1.2500,0,0,270.0*
21,1,3.1500,2.6016,0,0,270.0*
1,1,1.3516,-0.6250,-1.5750*
1,1,1.3516,-0.6250,1.5750*
1,1,1.3516,0.6250,1.5750*
1,1,1.3516,0.6250,-1.5750*
%
%ADD103ROUNDEDRECTD103*%
%ADD104C,2.2990*%
%ADD105R,1.2400X2.3900*%
%ADD106R,1.5000X1.3400*%
%ADD107R,2.1400X3.1500*%
%ADD108R,3.2000X2.3000*%
%ADD109R,3.2400X2.3400*%
%ADD110R,1.0900X0.7400*%
%ADD111R,1.7400X1.8400*%
%ADD112R,0.7400X1.0900*%
G04:AMPARAMS|DCode=113|XSize=0.6096mm|YSize=0.6096mm|CornerRadius=0.2032mm|HoleSize=0mm|Usage=FLASHONLY|Rotation=0.000|XOffset=0mm|YOffset=0mm|HoleType=Round|Shape=RoundedRectangle|*
%AMROUNDEDRECTD113*
21,1,0.6096,0.2032,0,0,0.0*
21,1,0.2032,0.6096,0,0,0.0*
1,1,0.4064,0.1016,-0.1016*
1,1,0.4064,-0.1016,-0.1016*
1,1,0.4064,-0.1016,0.1016*
1,1,0.4064,0.1016,0.1016*
%
%ADD113ROUNDEDRECTD113*%
G04:AMPARAMS|DCode=114|XSize=1.905mm|YSize=1.2954mm|CornerRadius=0.2537mm|HoleSize=0mm|Usage=FLASHONLY|Rotation=270.000|XOffset=0mm|YOffset=0mm|HoleType=Round|Shape=RoundedRectangle|*
%AMROUNDEDRECTD114*
21,1,1.9050,0.7879,0,0,270.0*
21,1,1.3975,1.2954,0,0,270.0*
1,1,0.5075,-0.3940,-0.6988*
1,1,0.5075,-0.3940,0.6988*
1,1,0.5075,0.3940,0.6988*
1,1,0.5075,0.3940,-0.6988*
%
%ADD114ROUNDEDRECTD114*%
G04:AMPARAMS|DCode=115|XSize=0.6096mm|YSize=0.6096mm|CornerRadius=0.2032mm|HoleSize=0mm|Usage=FLASHONLY|Rotation=270.000|XOffset=0mm|YOffset=0mm|HoleType=Round|Shape=RoundedRectangle|*
%AMROUNDEDRECTD115*
21,1,0.6096,0.2032,0,0,270.0*
21,1,0.2032,0.6096,0,0,270.0*
1,1,0.4064,-0.1016,-0.1016*
1,1,0.4064,-0.1016,0.1016*
1,1,0.4064,0.1016,0.1016*
1,1,0.4064,0.1016,-0.1016*
%
%ADD115ROUNDEDRECTD115*%
G04:AMPARAMS|DCode=116|XSize=1.905mm|YSize=1.2954mm|CornerRadius=0.2537mm|HoleSize=0mm|Usage=FLASHONLY|Rotation=180.000|XOffset=0mm|YOffset=0mm|HoleType=Round|Shape=RoundedRectangle|*
%AMROUNDEDRECTD116*
21,1,1.9050,0.7879,0,0,180.0*
21,1,1.3975,1.2954,0,0,180.0*
1,1,0.5075,-0.6988,0.3940*
1,1,0.5075,0.6988,0.3940*
1,1,0.5075,0.6988,-0.3940*
1,1,0.5075,-0.6988,-0.3940*
%
%ADD116ROUNDEDRECTD116*%
G04:AMPARAMS|DCode=117|XSize=1.4986mm|YSize=1.1938mm|CornerRadius=0.2529mm|HoleSize=0mm|Usage=FLASHONLY|Rotation=0.000|XOffset=0mm|YOffset=0mm|HoleType=Round|Shape=RoundedRectangle|*
%AMROUNDEDRECTD117*
21,1,1.4986,0.6881,0,0,0.0*
21,1,0.9929,1.1938,0,0,0.0*
1,1,0.5057,0.4964,-0.3440*
1,1,0.5057,-0.4964,-0.3440*
1,1,0.5057,-0.4964,0.3440*
1,1,0.5057,0.4964,0.3440*
%
%ADD117ROUNDEDRECTD117*%
%ADD118R,1.1900X0.7400*%
G04:AMPARAMS|DCode=119|XSize=2.4632mm|YSize=2.3632mm|CornerRadius=0.6416mm|HoleSize=0mm|Usage=FLASHONLY|Rotation=180.000|XOffset=0mm|YOffset=0mm|HoleType=Round|Shape=RoundedRectangle|*
%AMROUNDEDRECTD119*
21,1,2.4632,1.0800,0,0,180.0*
21,1,1.1800,2.3632,0,0,180.0*
1,1,1.2832,-0.5900,0.5400*
1,1,1.2832,0.5900,0.5400*
1,1,1.2832,0.5900,-0.5400*
1,1,1.2832,-0.5900,-0.5400*
%
%ADD119ROUNDEDRECTD119*%
%ADD120C,3.0000*%
G04:AMPARAMS|DCode=121|XSize=0.38mm|YSize=0.74mm|CornerRadius=0.1192mm|HoleSize=0mm|Usage=FLASHONLY|Rotation=90.000|XOffset=0mm|YOffset=0mm|HoleType=Round|Shape=RoundedRectangle|*
%AMROUNDEDRECTD121*
21,1,0.3800,0.5016,0,0,90.0*
21,1,0.1416,0.7400,0,0,90.0*
1,1,0.2384,0.2508,0.0708*
1,1,0.2384,0.2508,-0.0708*
1,1,0.2384,-0.2508,-0.0708*
1,1,0.2384,-0.2508,0.0708*
%
%ADD121ROUNDEDRECTD121*%
G04:AMPARAMS|DCode=122|XSize=2.54mm|YSize=1.79mm|CornerRadius=0.1113mm|HoleSize=0mm|Usage=FLASHONLY|Rotation=90.000|XOffset=0mm|YOffset=0mm|HoleType=Round|Shape=RoundedRectangle|*
%AMROUNDEDRECTD122*
21,1,2.5400,1.5675,0,0,90.0*
21,1,2.3175,1.7900,0,0,90.0*
1,1,0.2225,0.7838,1.1588*
1,1,0.2225,0.7838,-1.1588*
1,1,0.2225,-0.7838,-1.1588*
1,1,0.2225,-0.7838,1.1588*
%
%ADD122ROUNDEDRECTD122*%
G04:AMPARAMS|DCode=123|XSize=0.9906mm|YSize=0.9652mm|CornerRadius=0.2019mm|HoleSize=0mm|Usage=FLASHONLY|Rotation=0.000|XOffset=0mm|YOffset=0mm|HoleType=Round|Shape=RoundedRectangle|*
%AMROUNDEDRECTD123*
21,1,0.9906,0.5613,0,0,0.0*
21,1,0.5867,0.9652,0,0,0.0*
1,1,0.4039,0.2934,-0.2807*
1,1,0.4039,-0.2934,-0.2807*
1,1,0.4039,-0.2934,0.2807*
1,1,0.4039,0.2934,0.2807*
%
%ADD123ROUNDEDRECTD123*%
%ADD124R,0.4064X0.5588*%
G04:AMPARAMS|DCode=125|XSize=1.4986mm|YSize=1.1938mm|CornerRadius=0.2529mm|HoleSize=0mm|Usage=FLASHONLY|Rotation=270.000|XOffset=0mm|YOffset=0mm|HoleType=Round|Shape=RoundedRectangle|*
%AMROUNDEDRECTD125*
21,1,1.4986,0.6881,0,0,270.0*
21,1,0.9929,1.1938,0,0,270.0*
1,1,0.5057,-0.3440,-0.4964*
1,1,0.5057,-0.3440,0.4964*
1,1,0.5057,0.3440,0.4964*
1,1,0.5057,0.3440,-0.4964*
%
%ADD125ROUNDEDRECTD125*%
%ADD126C,0.5516*%
%ADD127C,0.5500*%
%ADD128O,0.5500X0.5500*%
G04:AMPARAMS|DCode=129|XSize=0.54mm|YSize=0.84mm|CornerRadius=0.17mm|HoleSize=0mm|Usage=FLASHONLY|Rotation=180.000|XOffset=0mm|YOffset=0mm|HoleType=Round|Shape=RoundedRectangle|*
%AMROUNDEDRECTD129*
21,1,0.5400,0.5000,0,0,180.0*
21,1,0.2000,0.8400,0,0,180.0*
1,1,0.3400,-0.1000,0.2500*
1,1,0.3400,0.1000,0.2500*
1,1,0.3400,0.1000,-0.2500*
1,1,0.3400,-0.1000,-0.2500*
%
%ADD129ROUNDEDRECTD129*%
%ADD130R,1.6900X2.0900*%
G04:AMPARAMS|DCode=131|XSize=3.15mm|YSize=3.15mm|CornerRadius=0.1575mm|HoleSize=0mm|Usage=FLASHONLY|Rotation=90.000|XOffset=0mm|YOffset=0mm|HoleType=Round|Shape=RoundedRectangle|*
%AMROUNDEDRECTD131*
21,1,3.1500,2.8350,0,0,90.0*
21,1,2.8350,3.1500,0,0,90.0*
1,1,0.3150,1.4175,1.4175*
1,1,0.3150,1.4175,-1.4175*
1,1,0.3150,-1.4175,-1.4175*
1,1,0.3150,-1.4175,1.4175*
%
%ADD131ROUNDEDRECTD131*%
G04:AMPARAMS|DCode=132|XSize=1.09mm|YSize=0.44mm|CornerRadius=0.145mm|HoleSize=0mm|Usage=FLASHONLY|Rotation=180.000|XOffset=0mm|YOffset=0mm|HoleType=Round|Shape=RoundedRectangle|*
%AMROUNDEDRECTD132*
21,1,1.0900,0.1500,0,0,180.0*
21,1,0.8000,0.4400,0,0,180.0*
1,1,0.2900,-0.4000,0.0750*
1,1,0.2900,0.4000,0.0750*
1,1,0.2900,0.4000,-0.0750*
1,1,0.2900,-0.4000,-0.0750*
%
%ADD132ROUNDEDRECTD132*%
%ADD133R,3.1500X3.1500*%
G04:AMPARAMS|DCode=134|XSize=0.9906mm|YSize=0.9652mm|CornerRadius=0.2019mm|HoleSize=0mm|Usage=FLASHONLY|Rotation=90.000|XOffset=0mm|YOffset=0mm|HoleType=Round|Shape=RoundedRectangle|*
%AMROUNDEDRECTD134*
21,1,0.9906,0.5613,0,0,90.0*
21,1,0.5867,0.9652,0,0,90.0*
1,1,0.4039,0.2807,0.2934*
1,1,0.4039,0.2807,-0.2934*
1,1,0.4039,-0.2807,-0.2934*
1,1,0.4039,-0.2807,0.2934*
%
%ADD134ROUNDEDRECTD134*%
G04:AMPARAMS|DCode=135|XSize=1.7mm|YSize=3.6mm|CornerRadius=0.25mm|HoleSize=0mm|Usage=FLASHONLY|Rotation=0.000|XOffset=0mm|YOffset=0mm|HoleType=Round|Shape=RoundedRectangle|*
%AMROUNDEDRECTD135*
21,1,1.7000,3.1000,0,0,0.0*
21,1,1.2000,3.6000,0,0,0.0*
1,1,0.5000,0.6000,-1.5500*
1,1,0.5000,-0.6000,-1.5500*
1,1,0.5000,-0.6000,1.5500*
1,1,0.5000,0.6000,1.5500*
%
%ADD135ROUNDEDRECTD135*%
%ADD136R,1.5400X2.8900*%
%ADD137O,0.9400X0.3700*%
%ADD138O,0.3700X0.9400*%
%ADD139R,7.5400X7.5400*%
%ADD140O,0.5400X1.9400*%
%ADD141R,7.5400X7.5400*%
%ADD142R,1.4516X2.3016*%
%ADD143R,2.2500X2.2500*%
%ADD144O,0.3500X0.9500*%
%ADD145O,0.9500X0.3500*%
G04:AMPARAMS|DCode=146|XSize=0.608mm|YSize=0.608mm|CornerRadius=0.2024mm|HoleSize=0mm|Usage=FLASHONLY|Rotation=90.000|XOffset=0mm|YOffset=0mm|HoleType=Round|Shape=RoundedRectangle|*
%AMROUNDEDRECTD146*
21,1,0.6080,0.2032,0,0,90.0*
21,1,0.2032,0.6080,0,0,90.0*
1,1,0.4048,0.1016,0.1016*
1,1,0.4048,0.1016,-0.1016*
1,1,0.4048,-0.1016,-0.1016*
1,1,0.4048,-0.1016,0.1016*
%
%ADD146ROUNDEDRECTD146*%
%ADD147O,0.9900X0.4200*%
%ADD148R,5.7400X5.7400*%
%ADD149O,0.4200X0.9900*%
%ADD150O,1.7016X0.4016*%
%ADD151O,3.0226X0.8636*%
%ADD152R,1.5016X1.3016*%
%ADD153R,1.5016X1.1016*%
G04:AMPARAMS|DCode=154|XSize=0.4mm|YSize=0.55mm|CornerRadius=0.125mm|HoleSize=0mm|Usage=FLASHONLY|Rotation=90.000|XOffset=0mm|YOffset=0mm|HoleType=Round|Shape=RoundedRectangle|*
%AMROUNDEDRECTD154*
21,1,0.4000,0.3000,0,0,90.0*
21,1,0.1500,0.5500,0,0,90.0*
1,1,0.2500,0.1500,0.0750*
1,1,0.2500,0.1500,-0.0750*
1,1,0.2500,-0.1500,-0.0750*
1,1,0.2500,-0.1500,0.0750*
%
%ADD154ROUNDEDRECTD154*%
%ADD155R,2.4400X2.9400*%
%ADD156R,2.9400X2.4400*%
%ADD157R,1.5200X0.7400*%
G04:AMPARAMS|DCode=158|XSize=1.7mm|YSize=3.6mm|CornerRadius=0.25mm|HoleSize=0mm|Usage=FLASHONLY|Rotation=270.000|XOffset=0mm|YOffset=0mm|HoleType=Round|Shape=RoundedRectangle|*
%AMROUNDEDRECTD158*
21,1,1.7000,3.1000,0,0,270.0*
21,1,1.2000,3.6000,0,0,270.0*
1,1,0.5000,-1.5500,-0.6000*
1,1,0.5000,-1.5500,0.6000*
1,1,0.5000,1.5500,0.6000*
1,1,0.5000,1.5500,-0.6000*
%
%ADD158ROUNDEDRECTD158*%
G04:AMPARAMS|DCode=159|XSize=3.5016mm|YSize=3.5016mm|CornerRadius=0mm|HoleSize=0mm|Usage=FLASHONLY|Rotation=180.000|XOffset=0mm|YOffset=0mm|HoleType=Round|Shape=RoundedRectangle|*
%AMROUNDEDRECTD159*
21,1,3.5016,3.5016,0,0,180.0*
21,1,3.5016,3.5016,0,0,180.0*
1,1,0.0000,-1.7508,1.7508*
1,1,0.0000,1.7508,1.7508*
1,1,0.0000,1.7508,-1.7508*
1,1,0.0000,-1.7508,-1.7508*
%
%ADD159ROUNDEDRECTD159*%
%ADD160R,0.3516X0.9016*%
%ADD161R,0.9016X0.3516*%
G04:AMPARAMS|DCode=162|XSize=0.79mm|YSize=0.99mm|CornerRadius=0.2325mm|HoleSize=0mm|Usage=FLASHONLY|Rotation=180.000|XOffset=0mm|YOffset=0mm|HoleType=Round|Shape=RoundedRectangle|*
%AMROUNDEDRECTD162*
21,1,0.7900,0.5250,0,0,180.0*
21,1,0.3250,0.9900,0,0,180.0*
1,1,0.4650,-0.1625,0.2625*
1,1,0.4650,0.1625,0.2625*
1,1,0.4650,0.1625,-0.2625*
1,1,0.4650,-0.1625,-0.2625*
%
%ADD162ROUNDEDRECTD162*%
%ADD163R,8.6800X5.4900*%
G04:AMPARAMS|DCode=164|XSize=3.2mm|YSize=1.03mm|CornerRadius=0.2925mm|HoleSize=0mm|Usage=FLASHONLY|Rotation=180.000|XOffset=0mm|YOffset=0mm|HoleType=Round|Shape=RoundedRectangle|*
%AMROUNDEDRECTD164*
21,1,3.2000,0.4450,0,0,180.0*
21,1,2.6150,1.0300,0,0,180.0*
1,1,0.5850,-1.3075,0.2225*
1,1,0.5850,1.3075,0.2225*
1,1,0.5850,1.3075,-0.2225*
1,1,0.5850,-1.3075,-0.2225*
%
%ADD164ROUNDEDRECTD164*%
%ADD165R,2.4390X0.6990*%
G04:AMPARAMS|DCode=166|XSize=1.34mm|YSize=1.34mm|CornerRadius=0.25mm|HoleSize=0mm|Usage=FLASHONLY|Rotation=270.000|XOffset=0mm|YOffset=0mm|HoleType=Round|Shape=RoundedRectangle|*
%AMROUNDEDRECTD166*
21,1,1.3400,0.8400,0,0,270.0*
21,1,0.8400,1.3400,0,0,270.0*
1,1,0.5000,-0.4200,-0.4200*
1,1,0.5000,-0.4200,0.4200*
1,1,0.5000,0.4200,0.4200*
1,1,0.5000,0.4200,-0.4200*
%
%ADD166ROUNDEDRECTD166*%
G04:AMPARAMS|DCode=167|XSize=1.34mm|YSize=1.34mm|CornerRadius=0.37mm|HoleSize=0mm|Usage=FLASHONLY|Rotation=270.000|XOffset=0mm|YOffset=0mm|HoleType=Round|Shape=RoundedRectangle|*
%AMROUNDEDRECTD167*
21,1,1.3400,0.6000,0,0,270.0*
21,1,0.6000,1.3400,0,0,270.0*
1,1,0.7400,-0.3000,-0.3000*
1,1,0.7400,-0.3000,0.3000*
1,1,0.7400,0.3000,0.3000*
1,1,0.7400,0.3000,-0.3000*
%
%ADD167ROUNDEDRECTD167*%
%ADD168R,4.0132X4.4450*%
G04:AMPARAMS|DCode=169|XSize=1.1016mm|YSize=0.9016mm|CornerRadius=0.2508mm|HoleSize=0mm|Usage=FLASHONLY|Rotation=0.000|XOffset=0mm|YOffset=0mm|HoleType=Round|Shape=RoundedRectangle|*
%AMROUNDEDRECTD169*
21,1,1.1016,0.4000,0,0,0.0*
21,1,0.6000,0.9016,0,0,0.0*
1,1,0.5016,0.3000,-0.2000*
1,1,0.5016,-0.3000,-0.2000*
1,1,0.5016,-0.3000,0.2000*
1,1,0.5016,0.3000,0.2000*
%
%ADD169ROUNDEDRECTD169*%
%ADD170C,6.3400*%
%ADD171C,2.3016*%
%ADD172C,3.9116*%
G04:AMPARAMS|DCode=173|XSize=1.6256mm|YSize=1.6256mm|CornerRadius=0mm|HoleSize=0mm|Usage=FLASHONLY|Rotation=90.000|XOffset=0mm|YOffset=0mm|HoleType=Round|Shape=Octagon|*
%AMOCTAGOND173*
4,1,8,0.4064,0.8128,-0.4064,0.8128,-0.8128,0.4064,-0.8128,-0.4064,-0.4064,-0.8128,0.4064,-0.8128,0.8128,-0.4064,0.8128,0.4064,0.4064,0.8128,0.0*
%
%ADD173OCTAGOND173*%

%ADD174C,1.6256*%
%ADD175C,3.1400*%
%ADD176C,1.7400*%
%ADD177C,0.7016*%
%ADD178R,2.1450X2.1450*%
%ADD179C,2.1450*%
%ADD180C,3.1372*%
%ADD181R,3.1400X3.1400*%
%ADD182C,0.4064*%
%ADD183C,0.6604*%
%ADD184C,0.3000*%
%ADD185C,0.6016*%
%ADD186C,0.6096*%
G36*
X682239Y1395880D02*
X682267D01*
X682294Y1395875D01*
X682322Y1395873D01*
X682348Y1395867D01*
X682376Y1395862D01*
X682402Y1395854D01*
X682429Y1395847D01*
X682454Y1395837D01*
X682480Y1395828D01*
X682664Y1395752D01*
X682689Y1395740D01*
X682714Y1395729D01*
X682738Y1395715D01*
X682762Y1395702D01*
X682785Y1395686D01*
X682808Y1395672D01*
X682829Y1395654D01*
X682852Y1395638D01*
X682871Y1395618D01*
X682892Y1395600D01*
X683033Y1395459D01*
X683051Y1395438D01*
X683070Y1395419D01*
X683086Y1395397D01*
X683104Y1395376D01*
X683119Y1395352D01*
X683135Y1395330D01*
X683148Y1395305D01*
X683162Y1395282D01*
X683172Y1395256D01*
X683185Y1395232D01*
X683261Y1395048D01*
X683270Y1395022D01*
X683280Y1394996D01*
X683287Y1394969D01*
X683295Y1394943D01*
X683299Y1394916D01*
X683306Y1394889D01*
X683308Y1394861D01*
X683312Y1394834D01*
Y1394807D01*
X683315Y1394779D01*
Y1394680D01*
Y1361680D01*
Y1361580D01*
X683312Y1361553D01*
Y1361525D01*
X683308Y1361498D01*
X683306Y1361470D01*
X683299Y1361443D01*
X683295Y1361416D01*
X683287Y1361390D01*
X683280Y1361363D01*
X683270Y1361338D01*
X683261Y1361311D01*
X683185Y1361128D01*
X683172Y1361103D01*
X683162Y1361078D01*
X683148Y1361054D01*
X683135Y1361030D01*
X683119Y1361007D01*
X683104Y1360984D01*
X683086Y1360963D01*
X683070Y1360940D01*
X683051Y1360921D01*
X683033Y1360900D01*
X682892Y1360759D01*
X682871Y1360741D01*
X682851Y1360722D01*
X682829Y1360706D01*
X682808Y1360688D01*
X682785Y1360673D01*
X682762Y1360657D01*
X682738Y1360645D01*
X682714Y1360630D01*
X682689Y1360620D01*
X682664Y1360607D01*
X682480Y1360531D01*
X682454Y1360522D01*
X682429Y1360512D01*
X682402Y1360506D01*
X682376Y1360497D01*
X682348Y1360493D01*
X682322Y1360486D01*
X682294Y1360484D01*
X682267Y1360480D01*
X682239D01*
X682212Y1360477D01*
X680513D01*
X680485Y1360480D01*
X680458D01*
X680431Y1360484D01*
X680403Y1360486D01*
X680376Y1360493D01*
X680349Y1360497D01*
X680323Y1360506D01*
X680296Y1360512D01*
X680270Y1360522D01*
X680244Y1360531D01*
X680061Y1360607D01*
X680036Y1360620D01*
X680010Y1360630D01*
X679987Y1360645D01*
X679962Y1360657D01*
X679940Y1360673D01*
X679916Y1360688D01*
X679896Y1360706D01*
X679873Y1360722D01*
X679854Y1360741D01*
X679833Y1360759D01*
X679692Y1360900D01*
X679674Y1360921D01*
X679654Y1360941D01*
X679638Y1360963D01*
X679620Y1360984D01*
X679606Y1361007D01*
X679590Y1361030D01*
X679577Y1361054D01*
X679563Y1361078D01*
X679552Y1361103D01*
X679540Y1361128D01*
X679464Y1361312D01*
X679455Y1361338D01*
X679445Y1361363D01*
X679438Y1361390D01*
X679430Y1361416D01*
X679425Y1361444D01*
X679419Y1361470D01*
X679417Y1361498D01*
X679412Y1361525D01*
Y1361553D01*
X679410Y1361580D01*
Y1361680D01*
Y1394680D01*
Y1394779D01*
X679412Y1394807D01*
Y1394834D01*
X679417Y1394861D01*
X679419Y1394889D01*
X679425Y1394916D01*
X679430Y1394943D01*
X679438Y1394969D01*
X679445Y1394996D01*
X679455Y1395021D01*
X679464Y1395048D01*
X679540Y1395231D01*
X679552Y1395256D01*
X679563Y1395282D01*
X679577Y1395305D01*
X679590Y1395330D01*
X679606Y1395352D01*
X679620Y1395376D01*
X679638Y1395396D01*
X679654Y1395419D01*
X679674Y1395439D01*
X679692Y1395459D01*
X679833Y1395600D01*
X679854Y1395618D01*
X679873Y1395637D01*
X679895Y1395654D01*
X679916Y1395672D01*
X679940Y1395686D01*
X679962Y1395702D01*
X679987Y1395715D01*
X680010Y1395729D01*
X680036Y1395740D01*
X680060Y1395752D01*
X680244Y1395828D01*
X680270Y1395837D01*
X680296Y1395847D01*
X680323Y1395854D01*
X680349Y1395862D01*
X680376Y1395867D01*
X680403Y1395873D01*
X680431Y1395875D01*
X680458Y1395880D01*
X680485D01*
X680513Y1395882D01*
X682212D01*
X682239Y1395880D01*
D02*
G37*
G36*
X687239D02*
X687267D01*
X687294Y1395875D01*
X687322Y1395873D01*
X687348Y1395867D01*
X687376Y1395862D01*
X687402Y1395854D01*
X687429Y1395847D01*
X687454Y1395837D01*
X687480Y1395828D01*
X687664Y1395752D01*
X687689Y1395740D01*
X687714Y1395729D01*
X687738Y1395715D01*
X687763Y1395702D01*
X687785Y1395686D01*
X687808Y1395672D01*
X687829Y1395654D01*
X687852Y1395638D01*
X687871Y1395618D01*
X687892Y1395600D01*
X688033Y1395459D01*
X688051Y1395438D01*
X688070Y1395419D01*
X688086Y1395397D01*
X688104Y1395376D01*
X688119Y1395352D01*
X688135Y1395330D01*
X688148Y1395305D01*
X688162Y1395282D01*
X688172Y1395256D01*
X688185Y1395232D01*
X688261Y1395048D01*
X688270Y1395022D01*
X688280Y1394996D01*
X688287Y1394969D01*
X688295Y1394943D01*
X688299Y1394916D01*
X688306Y1394889D01*
X688308Y1394861D01*
X688312Y1394834D01*
Y1394807D01*
X688315Y1394779D01*
Y1394680D01*
Y1361680D01*
Y1361580D01*
X688312Y1361553D01*
Y1361525D01*
X688308Y1361498D01*
X688306Y1361470D01*
X688299Y1361443D01*
X688295Y1361416D01*
X688287Y1361390D01*
X688280Y1361363D01*
X688270Y1361338D01*
X688261Y1361311D01*
X688185Y1361128D01*
X688172Y1361103D01*
X688162Y1361078D01*
X688148Y1361054D01*
X688135Y1361030D01*
X688119Y1361007D01*
X688104Y1360984D01*
X688086Y1360963D01*
X688070Y1360940D01*
X688051Y1360921D01*
X688033Y1360900D01*
X687892Y1360759D01*
X687871Y1360741D01*
X687851Y1360722D01*
X687829Y1360706D01*
X687808Y1360688D01*
X687785Y1360673D01*
X687762Y1360657D01*
X687738Y1360645D01*
X687714Y1360630D01*
X687689Y1360620D01*
X687664Y1360607D01*
X687480Y1360531D01*
X687454Y1360522D01*
X687429Y1360512D01*
X687402Y1360506D01*
X687376Y1360497D01*
X687348Y1360493D01*
X687322Y1360486D01*
X687294Y1360484D01*
X687267Y1360480D01*
X687239D01*
X687212Y1360477D01*
X685513D01*
X685485Y1360480D01*
X685458D01*
X685431Y1360484D01*
X685403Y1360486D01*
X685376Y1360493D01*
X685349Y1360497D01*
X685323Y1360506D01*
X685296Y1360512D01*
X685271Y1360522D01*
X685244Y1360531D01*
X685061Y1360607D01*
X685036Y1360620D01*
X685010Y1360630D01*
X684987Y1360645D01*
X684962Y1360657D01*
X684940Y1360673D01*
X684916Y1360688D01*
X684896Y1360706D01*
X684873Y1360722D01*
X684854Y1360741D01*
X684833Y1360759D01*
X684692Y1360900D01*
X684674Y1360921D01*
X684654Y1360941D01*
X684638Y1360963D01*
X684620Y1360984D01*
X684606Y1361007D01*
X684590Y1361030D01*
X684577Y1361054D01*
X684563Y1361078D01*
X684552Y1361103D01*
X684540Y1361128D01*
X684464Y1361312D01*
X684455Y1361338D01*
X684445Y1361363D01*
X684438Y1361390D01*
X684430Y1361416D01*
X684425Y1361444D01*
X684419Y1361470D01*
X684417Y1361498D01*
X684412Y1361525D01*
Y1361553D01*
X684410Y1361580D01*
Y1361680D01*
Y1394680D01*
Y1394779D01*
X684412Y1394807D01*
Y1394834D01*
X684417Y1394861D01*
X684419Y1394889D01*
X684425Y1394916D01*
X684430Y1394943D01*
X684438Y1394969D01*
X684445Y1394996D01*
X684455Y1395021D01*
X684464Y1395048D01*
X684540Y1395231D01*
X684552Y1395256D01*
X684563Y1395282D01*
X684577Y1395305D01*
X684590Y1395330D01*
X684606Y1395352D01*
X684620Y1395376D01*
X684638Y1395396D01*
X684654Y1395419D01*
X684674Y1395439D01*
X684692Y1395459D01*
X684833Y1395600D01*
X684854Y1395618D01*
X684873Y1395637D01*
X684895Y1395654D01*
X684916Y1395672D01*
X684940Y1395686D01*
X684962Y1395702D01*
X684987Y1395715D01*
X685010Y1395729D01*
X685036Y1395740D01*
X685060Y1395752D01*
X685244Y1395828D01*
X685270Y1395837D01*
X685296Y1395847D01*
X685323Y1395854D01*
X685349Y1395862D01*
X685376Y1395867D01*
X685403Y1395873D01*
X685431Y1395875D01*
X685458Y1395880D01*
X685485D01*
X685513Y1395882D01*
X687212D01*
X687239Y1395880D01*
D02*
G37*
G36*
X1961029Y1165069D02*
X1961136Y1165044D01*
X1961178Y1165026D01*
X1961238Y1165002D01*
X1961332Y1164944D01*
X1961415Y1164872D01*
Y1164872D01*
X1961415D01*
X1961487Y1164789D01*
X1961544Y1164695D01*
X1961569Y1164635D01*
X1961587Y1164593D01*
X1961612Y1164486D01*
X1961621Y1164376D01*
D01*
Y1164376D01*
Y1147376D01*
X1961612Y1147266D01*
X1961587Y1147159D01*
X1961544Y1147057D01*
X1961487Y1146963D01*
X1961415Y1146879D01*
X1961332Y1146808D01*
X1961238Y1146750D01*
X1961136Y1146708D01*
X1961029Y1146682D01*
X1960919Y1146674D01*
X1944919D01*
D01*
X1944919D01*
X1944809Y1146682D01*
X1944702Y1146708D01*
X1944600Y1146750D01*
X1944506Y1146808D01*
X1944422Y1146879D01*
X1944351Y1146963D01*
X1944293Y1147057D01*
X1944251Y1147159D01*
X1944225Y1147266D01*
X1944217Y1147376D01*
Y1147376D01*
D01*
X1944217Y1156876D01*
X1944219Y1156906D01*
X1944220Y1156936D01*
X1944223Y1156961D01*
X1944225Y1156986D01*
X1944233Y1157015D01*
X1944238Y1157045D01*
X1944245Y1157068D01*
X1944251Y1157093D01*
X1944263Y1157121D01*
X1944272Y1157149D01*
X1944284Y1157171D01*
X1944293Y1157195D01*
X1944309Y1157220D01*
X1944323Y1157247D01*
X1944338Y1157267D01*
X1944351Y1157289D01*
X1944371Y1157311D01*
X1944388Y1157336D01*
X1950888Y1164835D01*
X1950906Y1164853D01*
X1950922Y1164872D01*
X1950945Y1164891D01*
X1950967Y1164913D01*
X1950987Y1164927D01*
X1951006Y1164943D01*
X1951032Y1164959D01*
X1951056Y1164977D01*
X1951079Y1164988D01*
X1951100Y1165001D01*
X1951128Y1165013D01*
X1951155Y1165026D01*
X1951179Y1165034D01*
X1951202Y1165043D01*
X1951231Y1165050D01*
X1951260Y1165059D01*
X1951284Y1165063D01*
X1951309Y1165069D01*
X1951339Y1165071D01*
X1951369Y1165076D01*
X1951394Y1165076D01*
X1951419Y1165078D01*
X1960919Y1165078D01*
D01*
X1960919D01*
X1961029Y1165069D01*
D02*
G37*
D41*
X1779170Y750200D02*
D03*
D99*
X374470Y1487170D02*
D03*
X458470D02*
D03*
X374470Y1602740D02*
D03*
X458470D02*
D03*
X1217063Y1759551D02*
D03*
X1301063D02*
D03*
X458470Y1835150D02*
D03*
X374470D02*
D03*
X459054Y1718576D02*
D03*
X375054D02*
D03*
X896864Y865037D02*
D03*
X812864D02*
D03*
X649140Y840110D02*
D03*
X565140D02*
D03*
X931031Y1884903D02*
D03*
X1015031D02*
D03*
X1494282Y890524D02*
D03*
X1410282D02*
D03*
X1578809Y1226536D02*
D03*
X1662809D02*
D03*
X1224743Y1568704D02*
D03*
X1308743D02*
D03*
D100*
X1691537Y1418307D02*
D03*
X1496810Y1404611D02*
D03*
D101*
X1715536Y1405306D02*
D03*
Y1411806D02*
D03*
Y1418307D02*
D03*
Y1424806D02*
D03*
Y1431306D02*
D03*
X1667537Y1411806D02*
D03*
Y1405306D02*
D03*
Y1431306D02*
D03*
Y1424806D02*
D03*
Y1418307D02*
D03*
X765273Y1542080D02*
D03*
X813273D02*
D03*
Y1548580D02*
D03*
Y1555081D02*
D03*
Y1561580D02*
D03*
Y1568080D02*
D03*
X765273D02*
D03*
Y1561580D02*
D03*
Y1555081D02*
D03*
Y1548580D02*
D03*
X1472810Y1417611D02*
D03*
Y1411111D02*
D03*
Y1404611D02*
D03*
Y1398111D02*
D03*
Y1391611D02*
D03*
X1520810Y1411111D02*
D03*
Y1417611D02*
D03*
Y1391611D02*
D03*
Y1398111D02*
D03*
Y1404611D02*
D03*
D102*
X1704536Y1394307D02*
D03*
Y1442307D02*
D03*
X1698036D02*
D03*
X1691537D02*
D03*
X1685037D02*
D03*
X1678536D02*
D03*
Y1394307D02*
D03*
X1685037D02*
D03*
X1691537D02*
D03*
X1698036D02*
D03*
X776273Y1531080D02*
D03*
X782772D02*
D03*
X789273D02*
D03*
X795773D02*
D03*
X802272D02*
D03*
X782772Y1579080D02*
D03*
X776273D02*
D03*
X802272D02*
D03*
X795773D02*
D03*
X789273D02*
D03*
X1483810Y1428611D02*
D03*
Y1380611D02*
D03*
X1490310D02*
D03*
X1496810D02*
D03*
X1503310D02*
D03*
X1509810D02*
D03*
Y1428611D02*
D03*
X1503310D02*
D03*
X1496810D02*
D03*
X1490310D02*
D03*
X1825898Y1370534D02*
D03*
X1819398D02*
D03*
X1812899D02*
D03*
X1806399D02*
D03*
X1799899D02*
D03*
Y1418534D02*
D03*
X1806399D02*
D03*
X1812899D02*
D03*
X1819398D02*
D03*
X1825898D02*
D03*
D103*
X1419310Y1553464D02*
D03*
Y1637464D02*
D03*
X1102822Y1803332D02*
D03*
Y1719333D02*
D03*
X1445171Y1856071D02*
D03*
Y1772071D02*
D03*
D104*
X1154560Y646348D02*
D03*
Y697148D02*
D03*
Y773348D02*
D03*
X995810Y646348D02*
D03*
Y697148D02*
D03*
Y671748D02*
D03*
Y747948D02*
D03*
Y722548D02*
D03*
X1027560Y773348D02*
D03*
X995810D02*
D03*
X1004109Y1674207D02*
D03*
Y1725007D02*
D03*
Y1801207D02*
D03*
X845359Y1674207D02*
D03*
Y1725007D02*
D03*
Y1699607D02*
D03*
Y1775807D02*
D03*
Y1750407D02*
D03*
X877109Y1801207D02*
D03*
X845359D02*
D03*
X1444334Y1175960D02*
D03*
X1349084D02*
D03*
X1507834Y1207710D02*
D03*
Y1175960D02*
D03*
Y1271210D02*
D03*
X1349084Y1302960D02*
D03*
X1507834Y1239460D02*
D03*
Y1302960D02*
D03*
X1317334Y1175960D02*
D03*
Y1271210D02*
D03*
Y1302960D02*
D03*
D105*
X1914119Y1173376D02*
D03*
D106*
X1888619Y1246976D02*
D03*
D107*
X1885419Y1219576D02*
D03*
D108*
X1925119Y1242276D02*
D03*
D109*
X1924919Y1207476D02*
D03*
D110*
X1956169Y1206376D02*
D03*
Y1197376D02*
D03*
Y1188376D02*
D03*
Y1179376D02*
D03*
Y1170376D02*
D03*
Y1215376D02*
D03*
Y1224376D02*
D03*
Y1233376D02*
D03*
Y1242376D02*
D03*
X1867669D02*
D03*
Y1233376D02*
D03*
Y1224376D02*
D03*
Y1215376D02*
D03*
Y1170376D02*
D03*
Y1179376D02*
D03*
Y1188376D02*
D03*
Y1197376D02*
D03*
Y1206376D02*
D03*
D111*
X1952919Y1256876D02*
D03*
X1870919D02*
D03*
Y1155876D02*
D03*
D112*
X1911919Y1260626D02*
D03*
X1920919D02*
D03*
X1929919D02*
D03*
X1938919D02*
D03*
X1902919D02*
D03*
X1893919D02*
D03*
X1884919D02*
D03*
Y1152126D02*
D03*
X1893919D02*
D03*
X1902919D02*
D03*
X1938919D02*
D03*
X1929919D02*
D03*
X1920919D02*
D03*
X1911919D02*
D03*
D113*
X783101Y1601067D02*
D03*
Y1592177D02*
D03*
X1579372Y1413945D02*
D03*
Y1405055D02*
D03*
X1725927Y1103923D02*
D03*
Y1112813D02*
D03*
X1787259Y1231971D02*
D03*
Y1240861D02*
D03*
X668400Y1420694D02*
D03*
Y1429584D02*
D03*
X670730Y1031245D02*
D03*
Y1040135D02*
D03*
X1143974Y1182883D02*
D03*
Y1173993D02*
D03*
X1144186Y1026927D02*
D03*
Y1018037D02*
D03*
X1099101Y958465D02*
D03*
Y949575D02*
D03*
X963042Y736645D02*
D03*
Y727755D02*
D03*
X1444223Y1449047D02*
D03*
Y1457937D02*
D03*
X1903229Y1400088D02*
D03*
Y1408978D02*
D03*
X1853820Y1151631D02*
D03*
Y1160521D02*
D03*
X2729874Y54365D02*
D03*
Y45475D02*
D03*
X2661294Y54365D02*
D03*
Y45475D02*
D03*
X2587634Y54365D02*
D03*
Y45475D02*
D03*
X2516514Y54365D02*
D03*
Y45475D02*
D03*
X2445394Y54365D02*
D03*
Y45475D02*
D03*
X2374274Y54365D02*
D03*
Y45475D02*
D03*
X2303154Y54365D02*
D03*
Y45475D02*
D03*
X2232034Y54365D02*
D03*
Y45475D02*
D03*
X2160914Y54365D02*
D03*
Y45475D02*
D03*
X2089794Y54365D02*
D03*
Y45475D02*
D03*
X2018674Y54365D02*
D03*
Y45475D02*
D03*
X3395100Y54365D02*
D03*
Y45475D02*
D03*
X3323980Y54365D02*
D03*
Y45475D02*
D03*
X3265560Y54365D02*
D03*
Y45475D02*
D03*
X3207140Y54365D02*
D03*
Y45475D02*
D03*
X3148720Y54365D02*
D03*
Y45475D02*
D03*
X3090300Y54365D02*
D03*
Y45475D02*
D03*
X3032134Y54365D02*
D03*
Y45475D02*
D03*
X2915294Y54365D02*
D03*
Y45475D02*
D03*
X2856874Y54365D02*
D03*
Y45475D02*
D03*
X2803534Y54365D02*
D03*
Y45475D02*
D03*
X4441834D02*
D03*
Y54365D02*
D03*
X4370714Y45475D02*
D03*
Y54365D02*
D03*
X4299594Y45475D02*
D03*
Y54365D02*
D03*
X4228474Y45475D02*
D03*
Y54365D02*
D03*
X4157354Y45475D02*
D03*
Y54365D02*
D03*
X4086234Y45475D02*
D03*
Y54365D02*
D03*
X4020194Y45475D02*
D03*
Y54365D02*
D03*
X3949074Y45475D02*
D03*
Y54365D02*
D03*
X3890654Y45475D02*
D03*
Y54365D02*
D03*
X3832234Y45475D02*
D03*
Y54365D02*
D03*
X3774068Y45475D02*
D03*
Y54365D02*
D03*
X3715648Y45475D02*
D03*
Y54365D02*
D03*
X1423718Y783359D02*
D03*
Y774469D02*
D03*
X1410764Y656613D02*
D03*
Y665503D02*
D03*
Y774449D02*
D03*
Y783339D02*
D03*
X1424226Y665522D02*
D03*
Y656632D02*
D03*
X1071881Y1356827D02*
D03*
Y1365717D02*
D03*
Y1338031D02*
D03*
Y1346921D02*
D03*
X928625Y1422613D02*
D03*
Y1413723D02*
D03*
X1061975Y1394419D02*
D03*
Y1403309D02*
D03*
X1072135Y1394419D02*
D03*
Y1403309D02*
D03*
X1061975Y1375623D02*
D03*
Y1384513D02*
D03*
X1072135Y1375623D02*
D03*
Y1384513D02*
D03*
X1061975Y1338031D02*
D03*
Y1346921D02*
D03*
Y1356827D02*
D03*
Y1365717D02*
D03*
X939040Y1422864D02*
D03*
Y1413974D02*
D03*
X1062230Y1441155D02*
D03*
Y1432265D02*
D03*
X1061975Y1422356D02*
D03*
Y1413466D02*
D03*
X939040Y1351493D02*
D03*
Y1360383D02*
D03*
Y1370289D02*
D03*
Y1379179D02*
D03*
X939166Y1441663D02*
D03*
Y1432773D02*
D03*
X939040Y1389085D02*
D03*
Y1397975D02*
D03*
X1724290Y1755267D02*
D03*
Y1764157D02*
D03*
X1852422Y1809877D02*
D03*
Y1800987D02*
D03*
X1852422Y1782191D02*
D03*
Y1791081D02*
D03*
X1800858Y1609471D02*
D03*
Y1618361D02*
D03*
X1803398Y1525397D02*
D03*
Y1516507D02*
D03*
X1810766Y1602988D02*
D03*
Y1611878D02*
D03*
X1813306Y1523619D02*
D03*
Y1532509D02*
D03*
X1528999Y1554353D02*
D03*
Y1563243D02*
D03*
X1519091Y1554353D02*
D03*
Y1563243D02*
D03*
X1669542Y1736625D02*
D03*
Y1745515D02*
D03*
X1699076Y1736625D02*
D03*
Y1745515D02*
D03*
X1835390Y1612896D02*
D03*
Y1621786D02*
D03*
X1849256Y1583973D02*
D03*
Y1592863D02*
D03*
X1877963Y1592734D02*
D03*
Y1583844D02*
D03*
X1849256Y1551940D02*
D03*
Y1543050D02*
D03*
X1856994Y1522652D02*
D03*
Y1513762D02*
D03*
X1691913Y1520259D02*
D03*
Y1511369D02*
D03*
X1691861Y1616610D02*
D03*
Y1607720D02*
D03*
X1830103Y1733105D02*
D03*
Y1724215D02*
D03*
X1830107Y1828498D02*
D03*
Y1819608D02*
D03*
X1763417Y1739363D02*
D03*
Y1748253D02*
D03*
X1753491Y1734363D02*
D03*
Y1743253D02*
D03*
X1810900Y1838430D02*
D03*
Y1847320D02*
D03*
X1811485Y1742912D02*
D03*
Y1751802D02*
D03*
X1763163Y1849283D02*
D03*
Y1840394D02*
D03*
X1753237Y1854284D02*
D03*
Y1845394D02*
D03*
X1639784Y1702871D02*
D03*
Y1711761D02*
D03*
X1641132Y1886159D02*
D03*
Y1877269D02*
D03*
X1636498Y1865501D02*
D03*
Y1856611D02*
D03*
X1646498Y1865501D02*
D03*
Y1856611D02*
D03*
X1644909Y1721824D02*
D03*
Y1730714D02*
D03*
X1635001Y1721824D02*
D03*
Y1730714D02*
D03*
X1541559Y1400219D02*
D03*
Y1409109D02*
D03*
X1714500Y780415D02*
D03*
Y771525D02*
D03*
X1724660Y780415D02*
D03*
Y771525D02*
D03*
X1734820D02*
D03*
Y780415D02*
D03*
Y735965D02*
D03*
Y727075D02*
D03*
X1724660Y735965D02*
D03*
Y727075D02*
D03*
X1819910Y540385D02*
D03*
Y531495D02*
D03*
X1819910Y512445D02*
D03*
Y521335D02*
D03*
X1221740Y104775D02*
D03*
Y113665D02*
D03*
X1300480Y104775D02*
D03*
Y113665D02*
D03*
X1259840Y374015D02*
D03*
Y365125D02*
D03*
X1167130Y189230D02*
D03*
Y180340D02*
D03*
X1452880Y170815D02*
D03*
Y179705D02*
D03*
X1442720D02*
D03*
Y170815D02*
D03*
X1432560D02*
D03*
Y179705D02*
D03*
X1541780Y212725D02*
D03*
Y221615D02*
D03*
X1551940D02*
D03*
Y212725D02*
D03*
X1531620D02*
D03*
Y221615D02*
D03*
X1765300Y183515D02*
D03*
Y174625D02*
D03*
X1709420Y219075D02*
D03*
Y227965D02*
D03*
X1699260Y219075D02*
D03*
Y227965D02*
D03*
X1609090Y175895D02*
D03*
Y167005D02*
D03*
X1689100Y227965D02*
D03*
Y219075D02*
D03*
X1891030Y339725D02*
D03*
Y330835D02*
D03*
X1878330D02*
D03*
Y339725D02*
D03*
X1551940Y244475D02*
D03*
Y253365D02*
D03*
X1341120Y104775D02*
D03*
Y113665D02*
D03*
X1695450Y244475D02*
D03*
Y253365D02*
D03*
X1878330Y145415D02*
D03*
Y154305D02*
D03*
X1891030D02*
D03*
Y145415D02*
D03*
X1369060Y525145D02*
D03*
Y516255D02*
D03*
X1360170D02*
D03*
Y525145D02*
D03*
X1377950Y516255D02*
D03*
Y525145D02*
D03*
X1351280D02*
D03*
Y516255D02*
D03*
X1380490Y437515D02*
D03*
Y428625D02*
D03*
X1389380D02*
D03*
Y437515D02*
D03*
X1680210Y512445D02*
D03*
Y521335D02*
D03*
X1680210Y540385D02*
D03*
Y531495D02*
D03*
X1760117Y1373246D02*
D03*
Y1364356D02*
D03*
X1697990Y1067435D02*
D03*
Y1058545D02*
D03*
X675273Y71732D02*
D03*
Y80622D02*
D03*
X706053Y72680D02*
D03*
Y81570D02*
D03*
X615947Y75146D02*
D03*
Y84036D02*
D03*
X642851Y75417D02*
D03*
Y84307D02*
D03*
X1724406Y1824355D02*
D03*
Y1833245D02*
D03*
D114*
X807645Y1619364D02*
D03*
X778689D02*
D03*
X1830373Y1339193D02*
D03*
X1801417D02*
D03*
X1026838Y887608D02*
D03*
X1055794D02*
D03*
X1026584Y816234D02*
D03*
X1055540D02*
D03*
X1026838Y852048D02*
D03*
X1055794D02*
D03*
X984773Y1960121D02*
D03*
X955817D02*
D03*
X744632Y1522658D02*
D03*
X715676D02*
D03*
X1419562Y1134460D02*
D03*
X1390606D02*
D03*
Y1106960D02*
D03*
X1419562D02*
D03*
X1936285Y1282729D02*
D03*
X1907329D02*
D03*
X1936285Y1309148D02*
D03*
X1907329D02*
D03*
X3571630Y45856D02*
D03*
X3542674D02*
D03*
D115*
X791239Y1638344D02*
D03*
X782349D02*
D03*
X1849094Y1316642D02*
D03*
X1840204D02*
D03*
X1814110Y1357919D02*
D03*
X1805220D02*
D03*
X1334770Y453628D02*
D03*
X1343660D02*
D03*
X677268Y1410786D02*
D03*
X668378D02*
D03*
X637075Y1044580D02*
D03*
X645965D02*
D03*
X541825Y939170D02*
D03*
X532935D02*
D03*
X612945Y939170D02*
D03*
X621835D02*
D03*
X647870Y939171D02*
D03*
X638980D02*
D03*
X565955Y939170D02*
D03*
X574845D02*
D03*
X333545Y976000D02*
D03*
X324655D02*
D03*
X333545Y988700D02*
D03*
X324655D02*
D03*
X333545Y937900D02*
D03*
X324655D02*
D03*
X333545Y925200D02*
D03*
X324655D02*
D03*
X333545Y963300D02*
D03*
X324655D02*
D03*
X324655Y950600D02*
D03*
X333545D02*
D03*
X333545Y1026800D02*
D03*
X324655D02*
D03*
X333545Y1052200D02*
D03*
X324655D02*
D03*
Y1039500D02*
D03*
X333545D02*
D03*
Y1077600D02*
D03*
X324655D02*
D03*
X333545Y1064900D02*
D03*
X324655D02*
D03*
X333545Y1014100D02*
D03*
X324655D02*
D03*
X333545Y1001400D02*
D03*
X324655D02*
D03*
X418635Y953140D02*
D03*
X409745D02*
D03*
X418635Y979810D02*
D03*
X409745D02*
D03*
X418635Y997590D02*
D03*
X409745D02*
D03*
X418635Y944250D02*
D03*
X409745D02*
D03*
Y1015370D02*
D03*
X418635D02*
D03*
Y1050930D02*
D03*
X409745D02*
D03*
X418635Y926470D02*
D03*
X409745D02*
D03*
X418828Y1086494D02*
D03*
X409938D02*
D03*
X409745Y1068710D02*
D03*
X418635D02*
D03*
X409745Y1033150D02*
D03*
X418635D02*
D03*
Y962030D02*
D03*
X409745D02*
D03*
X545635Y1044580D02*
D03*
X554525D02*
D03*
X564685D02*
D03*
X573575D02*
D03*
X892091Y1241684D02*
D03*
X883201D02*
D03*
X908193Y958453D02*
D03*
X917083D02*
D03*
X938319Y958537D02*
D03*
X929429D02*
D03*
X963042Y695878D02*
D03*
X954152D02*
D03*
X966599Y1333078D02*
D03*
X957709D02*
D03*
X741035Y1504424D02*
D03*
X732145D02*
D03*
X1212723Y1425702D02*
D03*
X1203833D02*
D03*
X1802739Y1452890D02*
D03*
X1793849D02*
D03*
X1821789D02*
D03*
X1812899D02*
D03*
X1865364Y1132276D02*
D03*
X1856474D02*
D03*
X1884414D02*
D03*
X1875524D02*
D03*
X1930029Y1137737D02*
D03*
X1938919D02*
D03*
X879928Y109107D02*
D03*
X888818D02*
D03*
X879928Y119267D02*
D03*
X888818D02*
D03*
X764104Y108599D02*
D03*
X772994D02*
D03*
X763850Y118759D02*
D03*
X772740D02*
D03*
X860370Y74309D02*
D03*
X869260D02*
D03*
X974924Y72531D02*
D03*
X983814D02*
D03*
X1048132Y1333078D02*
D03*
X1039242D02*
D03*
X1014104D02*
D03*
X1022994D02*
D03*
X976507D02*
D03*
X985397D02*
D03*
X1004196D02*
D03*
X995306D02*
D03*
X1736217Y1802384D02*
D03*
X1727327D02*
D03*
X1735963Y1782064D02*
D03*
X1727073D02*
D03*
X1866773Y1842890D02*
D03*
X1857883D02*
D03*
X1858137Y1832982D02*
D03*
X1867027D02*
D03*
X1890395Y1747012D02*
D03*
X1899285D02*
D03*
X1913192Y1801878D02*
D03*
X1904302D02*
D03*
X1913255Y1791970D02*
D03*
X1904365D02*
D03*
X1899285Y1756918D02*
D03*
X1890395D02*
D03*
X1858146Y1567434D02*
D03*
X1849256D02*
D03*
X1777619D02*
D03*
X1768729D02*
D03*
X1642926Y1555757D02*
D03*
X1651817D02*
D03*
X1528999Y1523492D02*
D03*
X1520109D02*
D03*
X1634744Y1508252D02*
D03*
X1625854D02*
D03*
X1634871Y1498344D02*
D03*
X1625981D02*
D03*
X1681099Y1839976D02*
D03*
X1672209D02*
D03*
X1630045Y1632106D02*
D03*
X1621155D02*
D03*
X1586777Y1630469D02*
D03*
X1595667D02*
D03*
X1629791Y1622198D02*
D03*
X1620901D02*
D03*
X1343457Y1545844D02*
D03*
X1352346D02*
D03*
X1538351Y1622198D02*
D03*
X1547241D02*
D03*
X1537589Y1503521D02*
D03*
X1546479D02*
D03*
X1537589Y1493612D02*
D03*
X1546479D02*
D03*
X1712849Y1844192D02*
D03*
X1703959D02*
D03*
X1826333Y1602988D02*
D03*
X1835223D02*
D03*
X1859165Y1592734D02*
D03*
X1868055D02*
D03*
X1859165Y1543050D02*
D03*
X1868055D02*
D03*
X1848104Y1532560D02*
D03*
X1856994D02*
D03*
X1827476D02*
D03*
X1836366D02*
D03*
X1701821Y1520715D02*
D03*
X1710712D02*
D03*
X1701821Y1510806D02*
D03*
X1710712D02*
D03*
X1701769Y1607166D02*
D03*
X1710659D02*
D03*
X1701769Y1617074D02*
D03*
X1710659D02*
D03*
X1820808Y1838407D02*
D03*
X1829698D02*
D03*
X1820808Y1848336D02*
D03*
X1829698D02*
D03*
X1586566Y1789580D02*
D03*
X1595456D02*
D03*
X1586506Y1769763D02*
D03*
X1595396D02*
D03*
X1586628Y1799488D02*
D03*
X1595518D02*
D03*
X1586506Y1779671D02*
D03*
X1595396D02*
D03*
X1586689Y1809397D02*
D03*
X1595580D02*
D03*
X1586628Y1819305D02*
D03*
X1595518D02*
D03*
X1821393Y1752922D02*
D03*
X1830283D02*
D03*
X1821470Y1743014D02*
D03*
X1830360D02*
D03*
X1566646Y1813920D02*
D03*
X1575536D02*
D03*
X1566584Y1794691D02*
D03*
X1575474D02*
D03*
X1566462Y1774508D02*
D03*
X1575352D02*
D03*
X1838325Y736600D02*
D03*
X1829435D02*
D03*
Y748030D02*
D03*
X1838325D02*
D03*
X1772285Y807720D02*
D03*
X1781175D02*
D03*
X1835785Y800100D02*
D03*
X1826895D02*
D03*
X1838325Y698500D02*
D03*
X1829435D02*
D03*
X1772285Y693420D02*
D03*
X1781175D02*
D03*
X1148715Y180340D02*
D03*
X1157605D02*
D03*
X1784985Y265430D02*
D03*
X1776095D02*
D03*
X1543685Y306070D02*
D03*
X1552575D02*
D03*
X1543685Y293370D02*
D03*
X1552575D02*
D03*
X1543685Y281940D02*
D03*
X1552575D02*
D03*
X1543685Y266700D02*
D03*
X1552575D02*
D03*
X1687195Y306070D02*
D03*
X1696085D02*
D03*
X1687195Y293370D02*
D03*
X1696085D02*
D03*
X1687195Y280670D02*
D03*
X1696085D02*
D03*
X1687195Y267970D02*
D03*
X1696085D02*
D03*
X1467485Y462280D02*
D03*
X1476375D02*
D03*
X1402715Y525780D02*
D03*
X1393825D02*
D03*
X1345184Y480620D02*
D03*
X1336294D02*
D03*
Y489510D02*
D03*
X1345184D02*
D03*
X1430655Y501650D02*
D03*
X1421765D02*
D03*
X1336294Y471730D02*
D03*
X1345184D02*
D03*
X1653861Y1411806D02*
D03*
X1644971D02*
D03*
X1163955Y297180D02*
D03*
X1155065D02*
D03*
X1360118Y1757773D02*
D03*
X1351228D02*
D03*
D116*
X1858647Y1434053D02*
D03*
Y1405097D02*
D03*
X1196216Y726866D02*
D03*
Y697910D02*
D03*
X1272584Y1266438D02*
D03*
Y1237482D02*
D03*
X1560962Y1417339D02*
D03*
Y1388383D02*
D03*
X1885065Y1434310D02*
D03*
Y1405354D02*
D03*
X1836789Y1248311D02*
D03*
Y1277267D02*
D03*
X1808962Y1248351D02*
D03*
Y1277307D02*
D03*
X1462387Y1476479D02*
D03*
Y1447523D02*
D03*
X1494790Y461518D02*
D03*
Y432562D02*
D03*
X1449070Y461518D02*
D03*
Y432562D02*
D03*
X1741738Y1345813D02*
D03*
Y1374769D02*
D03*
X1715153Y1345739D02*
D03*
Y1374695D02*
D03*
X1706930Y1093922D02*
D03*
Y1122878D02*
D03*
D117*
X1839329Y1213175D02*
D03*
Y1196157D02*
D03*
X704912Y1406846D02*
D03*
Y1423864D02*
D03*
X728282Y1387926D02*
D03*
Y1405960D02*
D03*
X852069Y1161039D02*
D03*
Y1178057D02*
D03*
X1150451Y1139449D02*
D03*
Y1156467D02*
D03*
X1150536Y1069853D02*
D03*
Y1052835D02*
D03*
X1151044Y978667D02*
D03*
Y995685D02*
D03*
X1052510Y952077D02*
D03*
Y935059D02*
D03*
X1150451Y1204219D02*
D03*
Y1221237D02*
D03*
X1469390Y157861D02*
D03*
Y174879D02*
D03*
X1515110Y199771D02*
D03*
Y216789D02*
D03*
X1758950Y248031D02*
D03*
Y265049D02*
D03*
D118*
X781593Y1211907D02*
D03*
Y1202407D02*
D03*
Y1192907D02*
D03*
X807593D02*
D03*
Y1211907D02*
D03*
X1602358Y795904D02*
D03*
Y786404D02*
D03*
Y776905D02*
D03*
X1628358D02*
D03*
Y795904D02*
D03*
D119*
X1744000Y890500D02*
D03*
Y939500D02*
D03*
D120*
X670876Y1216591D02*
D03*
X914323Y1488885D02*
D03*
X484950Y849635D02*
D03*
X1454641Y351542D02*
D03*
X1627251Y671986D02*
D03*
X1763163Y1643002D02*
D03*
D121*
X669862Y1388180D02*
D03*
Y1383179D02*
D03*
Y1378180D02*
D03*
Y1373179D02*
D03*
Y1368180D02*
D03*
X697862Y1388180D02*
D03*
Y1383179D02*
D03*
Y1378180D02*
D03*
Y1373179D02*
D03*
Y1368180D02*
D03*
D122*
X683862Y1378180D02*
D03*
D123*
X646010Y1355704D02*
D03*
X631023D02*
D03*
X646136Y1373647D02*
D03*
X631151D02*
D03*
X646010Y1392219D02*
D03*
X631023D02*
D03*
X646010Y1410477D02*
D03*
X631023D02*
D03*
X1828012Y1438807D02*
D03*
X1813026D02*
D03*
D124*
X668378Y1401385D02*
D03*
X673966D02*
D03*
D125*
X555541Y921390D02*
D03*
X572559D02*
D03*
X613961Y921390D02*
D03*
X630979D02*
D03*
X320591Y1101730D02*
D03*
X337609D02*
D03*
X560621Y1062360D02*
D03*
X577639D02*
D03*
X972863Y952378D02*
D03*
X989881D02*
D03*
X876343Y949076D02*
D03*
X893361D02*
D03*
X1041951Y1248288D02*
D03*
X1058969D02*
D03*
X994575Y1248336D02*
D03*
X977557D02*
D03*
X2978667Y47380D02*
D03*
X2996701D02*
D03*
X3662181Y47888D02*
D03*
X3679199D02*
D03*
D126*
X653500Y1016001D02*
D03*
Y1008000D02*
D03*
Y976000D02*
D03*
X645500Y968000D02*
D03*
X637500Y1016001D02*
D03*
Y1008000D02*
D03*
Y968000D02*
D03*
X621500Y1008000D02*
D03*
X613500Y1016001D02*
D03*
Y968000D02*
D03*
X605500Y1016001D02*
D03*
X597500Y1008000D02*
D03*
Y976000D02*
D03*
Y968000D02*
D03*
X533500Y960000D02*
D03*
Y968000D02*
D03*
Y976000D02*
D03*
Y1008000D02*
D03*
Y1016001D02*
D03*
Y1024000D02*
D03*
X541500Y960000D02*
D03*
Y968000D02*
D03*
Y976000D02*
D03*
Y1008000D02*
D03*
Y1016001D02*
D03*
Y1024000D02*
D03*
X549500Y960000D02*
D03*
Y968000D02*
D03*
Y976000D02*
D03*
Y1008000D02*
D03*
Y1016001D02*
D03*
Y1024000D02*
D03*
X557500Y960000D02*
D03*
Y968000D02*
D03*
Y976000D02*
D03*
Y1008000D02*
D03*
Y1016001D02*
D03*
Y1024000D02*
D03*
X565500Y960000D02*
D03*
Y968000D02*
D03*
Y976000D02*
D03*
Y1008000D02*
D03*
Y1016001D02*
D03*
Y1024000D02*
D03*
X573500Y960000D02*
D03*
Y968000D02*
D03*
Y976000D02*
D03*
Y1008000D02*
D03*
Y1016001D02*
D03*
Y1024000D02*
D03*
X581500Y960000D02*
D03*
Y968000D02*
D03*
Y976000D02*
D03*
Y1008000D02*
D03*
Y1016001D02*
D03*
Y1024000D02*
D03*
X589500Y960000D02*
D03*
Y968000D02*
D03*
Y976000D02*
D03*
Y1008000D02*
D03*
Y1016001D02*
D03*
Y1024000D02*
D03*
X597500Y960000D02*
D03*
Y1016001D02*
D03*
Y1024000D02*
D03*
X605500Y960000D02*
D03*
Y968000D02*
D03*
Y976000D02*
D03*
Y1008000D02*
D03*
Y1024000D02*
D03*
X613500Y960000D02*
D03*
Y976000D02*
D03*
Y1008000D02*
D03*
Y1024000D02*
D03*
X621500Y960000D02*
D03*
Y968000D02*
D03*
Y976000D02*
D03*
Y1016001D02*
D03*
Y1024000D02*
D03*
X629500Y960000D02*
D03*
Y968000D02*
D03*
Y976000D02*
D03*
Y1008000D02*
D03*
Y1016001D02*
D03*
Y1024000D02*
D03*
X637500Y960000D02*
D03*
Y976000D02*
D03*
Y1024000D02*
D03*
X645500Y960000D02*
D03*
Y976000D02*
D03*
Y1008000D02*
D03*
Y1016001D02*
D03*
Y1024000D02*
D03*
X653500Y960000D02*
D03*
Y968000D02*
D03*
Y1024000D02*
D03*
D127*
X877510Y1225000D02*
D03*
Y1215000D02*
D03*
Y1195000D02*
D03*
Y1205000D02*
D03*
Y1185000D02*
D03*
Y1175000D02*
D03*
Y1155000D02*
D03*
Y1145000D02*
D03*
Y1135000D02*
D03*
Y1115000D02*
D03*
Y1125000D02*
D03*
Y1165000D02*
D03*
Y1095001D02*
D03*
Y1085001D02*
D03*
Y1075001D02*
D03*
Y1065001D02*
D03*
Y1045001D02*
D03*
Y995001D02*
D03*
Y1015001D02*
D03*
Y1025001D02*
D03*
Y1035001D02*
D03*
Y985001D02*
D03*
Y975000D02*
D03*
X887510Y1225000D02*
D03*
Y1215000D02*
D03*
Y1205000D02*
D03*
Y1195000D02*
D03*
Y1185000D02*
D03*
Y1175000D02*
D03*
Y1165000D02*
D03*
Y1155000D02*
D03*
Y1145000D02*
D03*
Y1135000D02*
D03*
Y1125000D02*
D03*
Y1115000D02*
D03*
Y1105001D02*
D03*
Y1095001D02*
D03*
Y1085001D02*
D03*
Y1075001D02*
D03*
Y1065001D02*
D03*
Y1055001D02*
D03*
Y1045001D02*
D03*
Y1035001D02*
D03*
Y1025001D02*
D03*
Y1015001D02*
D03*
Y995001D02*
D03*
Y985001D02*
D03*
Y975000D02*
D03*
X897510Y1225000D02*
D03*
Y1215000D02*
D03*
Y1205000D02*
D03*
Y1195000D02*
D03*
Y1185000D02*
D03*
Y1175000D02*
D03*
Y1165000D02*
D03*
Y1155000D02*
D03*
Y1145000D02*
D03*
Y1135000D02*
D03*
Y1125000D02*
D03*
Y1115000D02*
D03*
Y1105001D02*
D03*
Y1095001D02*
D03*
Y1085001D02*
D03*
Y1075001D02*
D03*
Y1065001D02*
D03*
Y1045001D02*
D03*
Y1035001D02*
D03*
Y1025001D02*
D03*
Y1015001D02*
D03*
Y1005001D02*
D03*
Y995001D02*
D03*
Y985001D02*
D03*
Y975000D02*
D03*
X907510Y1225000D02*
D03*
Y1215000D02*
D03*
Y1205000D02*
D03*
Y1195000D02*
D03*
Y1185000D02*
D03*
Y1175000D02*
D03*
Y1165000D02*
D03*
Y1155000D02*
D03*
Y1145000D02*
D03*
Y1135000D02*
D03*
Y1125000D02*
D03*
Y1115000D02*
D03*
Y1105001D02*
D03*
Y1095001D02*
D03*
Y1085001D02*
D03*
Y1075001D02*
D03*
Y1065001D02*
D03*
Y1055001D02*
D03*
Y1045001D02*
D03*
Y1035001D02*
D03*
Y1025001D02*
D03*
Y1015001D02*
D03*
Y1005001D02*
D03*
Y995001D02*
D03*
Y985001D02*
D03*
Y975000D02*
D03*
X917510Y1225000D02*
D03*
Y1215000D02*
D03*
Y1205000D02*
D03*
Y1195000D02*
D03*
Y1185000D02*
D03*
Y1175000D02*
D03*
Y1165000D02*
D03*
Y1155000D02*
D03*
Y1145000D02*
D03*
Y1135000D02*
D03*
Y1125000D02*
D03*
Y1115000D02*
D03*
Y1105001D02*
D03*
Y1095001D02*
D03*
Y1085001D02*
D03*
Y1075001D02*
D03*
Y1065001D02*
D03*
Y1055001D02*
D03*
Y1045001D02*
D03*
Y1035001D02*
D03*
Y1025001D02*
D03*
Y1015001D02*
D03*
Y1005001D02*
D03*
Y995001D02*
D03*
Y985001D02*
D03*
Y975000D02*
D03*
X927510Y1225000D02*
D03*
Y1215000D02*
D03*
Y1205000D02*
D03*
Y1195000D02*
D03*
Y1185000D02*
D03*
Y1175000D02*
D03*
Y1165000D02*
D03*
Y1155000D02*
D03*
Y1145000D02*
D03*
Y1135000D02*
D03*
Y1125000D02*
D03*
Y1115000D02*
D03*
Y1105001D02*
D03*
Y1095001D02*
D03*
Y1085001D02*
D03*
Y1075001D02*
D03*
Y1065001D02*
D03*
Y1055001D02*
D03*
Y1045001D02*
D03*
Y1035001D02*
D03*
Y1025001D02*
D03*
Y1015001D02*
D03*
Y1005001D02*
D03*
Y995001D02*
D03*
Y985001D02*
D03*
Y975000D02*
D03*
X937510Y1225000D02*
D03*
Y1215000D02*
D03*
Y1205000D02*
D03*
Y1195000D02*
D03*
Y1185000D02*
D03*
Y1175000D02*
D03*
Y1165000D02*
D03*
Y1155000D02*
D03*
Y1145000D02*
D03*
Y1135000D02*
D03*
Y1125000D02*
D03*
Y1115000D02*
D03*
Y1105001D02*
D03*
Y1095001D02*
D03*
Y1085001D02*
D03*
Y1075001D02*
D03*
Y1065001D02*
D03*
Y1055001D02*
D03*
Y1045001D02*
D03*
Y1035001D02*
D03*
Y1025001D02*
D03*
Y1015001D02*
D03*
Y1005001D02*
D03*
Y995001D02*
D03*
Y985001D02*
D03*
Y975000D02*
D03*
X947510Y1225000D02*
D03*
Y1215000D02*
D03*
Y1205000D02*
D03*
Y1195000D02*
D03*
Y1185000D02*
D03*
Y1175000D02*
D03*
Y1165000D02*
D03*
Y1155000D02*
D03*
Y1145000D02*
D03*
Y1135000D02*
D03*
Y1125000D02*
D03*
Y1115000D02*
D03*
Y1105001D02*
D03*
Y1095001D02*
D03*
Y1085001D02*
D03*
Y1075001D02*
D03*
Y1065001D02*
D03*
Y1055001D02*
D03*
Y1045001D02*
D03*
Y1035001D02*
D03*
Y1025001D02*
D03*
Y1015001D02*
D03*
Y1005001D02*
D03*
Y995001D02*
D03*
Y985001D02*
D03*
Y975000D02*
D03*
X957510Y1225000D02*
D03*
Y1215000D02*
D03*
Y1205000D02*
D03*
Y1195000D02*
D03*
Y1185000D02*
D03*
Y1175000D02*
D03*
Y1165000D02*
D03*
Y1155000D02*
D03*
Y1145000D02*
D03*
Y1135000D02*
D03*
Y1125000D02*
D03*
Y1115000D02*
D03*
Y1105001D02*
D03*
Y1095001D02*
D03*
Y1085001D02*
D03*
Y1075001D02*
D03*
Y1065001D02*
D03*
Y1055001D02*
D03*
Y1045001D02*
D03*
Y1035001D02*
D03*
Y1025001D02*
D03*
Y1015001D02*
D03*
Y1005001D02*
D03*
Y995001D02*
D03*
Y985001D02*
D03*
Y975000D02*
D03*
X967510Y1225000D02*
D03*
Y1215000D02*
D03*
Y1205000D02*
D03*
Y1195000D02*
D03*
Y1185000D02*
D03*
Y1175000D02*
D03*
Y1165000D02*
D03*
Y1155000D02*
D03*
Y1145000D02*
D03*
Y1135000D02*
D03*
Y1125000D02*
D03*
Y1115000D02*
D03*
Y1105001D02*
D03*
Y1095001D02*
D03*
Y1085001D02*
D03*
Y1075001D02*
D03*
Y1065001D02*
D03*
Y1055001D02*
D03*
Y1045001D02*
D03*
Y1035001D02*
D03*
Y1025001D02*
D03*
Y1015001D02*
D03*
Y1005001D02*
D03*
Y995001D02*
D03*
Y985001D02*
D03*
Y975000D02*
D03*
X977510Y1225000D02*
D03*
Y1215000D02*
D03*
Y1205000D02*
D03*
Y1195000D02*
D03*
Y1185000D02*
D03*
Y1175000D02*
D03*
Y1165000D02*
D03*
Y1155000D02*
D03*
Y1145000D02*
D03*
Y1135000D02*
D03*
Y1125000D02*
D03*
Y1115000D02*
D03*
Y1105001D02*
D03*
Y1095001D02*
D03*
Y1085001D02*
D03*
Y1075001D02*
D03*
Y1065001D02*
D03*
Y1055001D02*
D03*
Y1045001D02*
D03*
Y1035001D02*
D03*
Y1025001D02*
D03*
Y1015001D02*
D03*
Y1005001D02*
D03*
Y995001D02*
D03*
Y985001D02*
D03*
Y975000D02*
D03*
X987510Y1225000D02*
D03*
Y1215000D02*
D03*
Y1205000D02*
D03*
Y1195000D02*
D03*
Y1185000D02*
D03*
Y1175000D02*
D03*
Y1165000D02*
D03*
Y1155000D02*
D03*
Y1145000D02*
D03*
Y1135000D02*
D03*
Y1125000D02*
D03*
Y1115000D02*
D03*
Y1105001D02*
D03*
Y1095001D02*
D03*
Y1085001D02*
D03*
Y1075001D02*
D03*
Y1065001D02*
D03*
Y1055001D02*
D03*
Y1045001D02*
D03*
Y1035001D02*
D03*
Y1025001D02*
D03*
Y1015001D02*
D03*
Y1005001D02*
D03*
Y995001D02*
D03*
Y985001D02*
D03*
Y975000D02*
D03*
X997510Y1225000D02*
D03*
Y1215000D02*
D03*
Y1205000D02*
D03*
Y1195000D02*
D03*
Y1185000D02*
D03*
Y1175000D02*
D03*
Y1165000D02*
D03*
Y1155000D02*
D03*
Y1145000D02*
D03*
Y1135000D02*
D03*
Y1125000D02*
D03*
Y1115000D02*
D03*
Y1105001D02*
D03*
Y1095001D02*
D03*
Y1085001D02*
D03*
Y1075001D02*
D03*
Y1065001D02*
D03*
Y1055001D02*
D03*
Y1045001D02*
D03*
Y1035001D02*
D03*
Y1025001D02*
D03*
Y1015001D02*
D03*
Y1005001D02*
D03*
Y995001D02*
D03*
Y985001D02*
D03*
Y975000D02*
D03*
X1007510Y1225000D02*
D03*
Y1215000D02*
D03*
Y1205000D02*
D03*
Y1195000D02*
D03*
Y1185000D02*
D03*
Y1175000D02*
D03*
Y1165000D02*
D03*
Y1155000D02*
D03*
Y1145000D02*
D03*
Y1135000D02*
D03*
Y1125000D02*
D03*
Y1115000D02*
D03*
Y1105001D02*
D03*
Y1095001D02*
D03*
Y1085001D02*
D03*
Y1075001D02*
D03*
Y1065001D02*
D03*
Y1055001D02*
D03*
Y1045001D02*
D03*
Y1035001D02*
D03*
Y1025001D02*
D03*
Y1015001D02*
D03*
Y1005001D02*
D03*
Y995001D02*
D03*
Y985001D02*
D03*
Y975000D02*
D03*
X1017510Y1225000D02*
D03*
Y1215000D02*
D03*
Y1205000D02*
D03*
Y1195000D02*
D03*
Y1185000D02*
D03*
Y1175000D02*
D03*
Y1165000D02*
D03*
Y1155000D02*
D03*
Y1145000D02*
D03*
Y1135000D02*
D03*
Y1125000D02*
D03*
Y1115000D02*
D03*
Y1105001D02*
D03*
Y1095001D02*
D03*
Y1085001D02*
D03*
Y1075001D02*
D03*
Y1065001D02*
D03*
Y1055001D02*
D03*
Y1045001D02*
D03*
Y1035001D02*
D03*
Y1025001D02*
D03*
Y1015001D02*
D03*
Y1005001D02*
D03*
Y995001D02*
D03*
Y985001D02*
D03*
Y975000D02*
D03*
X1027510Y1225000D02*
D03*
Y1215000D02*
D03*
Y1205000D02*
D03*
Y1195000D02*
D03*
Y1185000D02*
D03*
Y1175000D02*
D03*
Y1165000D02*
D03*
Y1155000D02*
D03*
Y1145000D02*
D03*
Y1135000D02*
D03*
Y1125000D02*
D03*
Y1115000D02*
D03*
Y1105001D02*
D03*
Y1095001D02*
D03*
Y1085001D02*
D03*
Y1075001D02*
D03*
Y1065001D02*
D03*
Y1055001D02*
D03*
Y1045001D02*
D03*
Y1035001D02*
D03*
Y1025001D02*
D03*
Y1015001D02*
D03*
Y1005001D02*
D03*
Y995001D02*
D03*
Y985001D02*
D03*
Y975000D02*
D03*
X1037510Y1225000D02*
D03*
Y1215000D02*
D03*
Y1205000D02*
D03*
Y1195000D02*
D03*
Y1185000D02*
D03*
Y1175000D02*
D03*
Y1165000D02*
D03*
Y1155000D02*
D03*
Y1145000D02*
D03*
Y1135000D02*
D03*
Y1125000D02*
D03*
Y1115000D02*
D03*
Y1105001D02*
D03*
Y1095001D02*
D03*
Y1085001D02*
D03*
Y1075001D02*
D03*
Y1065001D02*
D03*
Y1055001D02*
D03*
Y1045001D02*
D03*
Y1035001D02*
D03*
Y1025001D02*
D03*
Y1015001D02*
D03*
Y1005001D02*
D03*
Y995001D02*
D03*
Y985001D02*
D03*
Y975000D02*
D03*
X1047510Y1225000D02*
D03*
Y1215000D02*
D03*
Y1205000D02*
D03*
Y1195000D02*
D03*
Y1185000D02*
D03*
Y1175000D02*
D03*
Y1165000D02*
D03*
Y1155000D02*
D03*
Y1145000D02*
D03*
Y1135000D02*
D03*
Y1125000D02*
D03*
Y1115000D02*
D03*
Y1105001D02*
D03*
Y1095001D02*
D03*
Y1085001D02*
D03*
Y1075001D02*
D03*
Y1065001D02*
D03*
Y1055001D02*
D03*
Y1045001D02*
D03*
Y1035001D02*
D03*
Y1025001D02*
D03*
Y1015001D02*
D03*
Y1005001D02*
D03*
Y995001D02*
D03*
Y985001D02*
D03*
Y975000D02*
D03*
X1057510Y1225000D02*
D03*
Y1215000D02*
D03*
Y1205000D02*
D03*
Y1195000D02*
D03*
Y1185000D02*
D03*
Y1175000D02*
D03*
Y1165000D02*
D03*
Y1155000D02*
D03*
Y1145000D02*
D03*
Y1135000D02*
D03*
Y1125000D02*
D03*
Y1115000D02*
D03*
Y1105001D02*
D03*
Y1095001D02*
D03*
Y1085001D02*
D03*
Y1075001D02*
D03*
Y1065001D02*
D03*
Y1055001D02*
D03*
Y1045001D02*
D03*
Y1035001D02*
D03*
Y1025001D02*
D03*
Y1015001D02*
D03*
Y1005001D02*
D03*
Y995001D02*
D03*
Y985001D02*
D03*
Y975000D02*
D03*
X1067510Y1225000D02*
D03*
Y1215000D02*
D03*
Y1205000D02*
D03*
Y1195000D02*
D03*
Y1185000D02*
D03*
Y1175000D02*
D03*
Y1165000D02*
D03*
Y1155000D02*
D03*
Y1145000D02*
D03*
Y1135000D02*
D03*
Y1125000D02*
D03*
Y1115000D02*
D03*
Y1105001D02*
D03*
Y1095001D02*
D03*
Y1085001D02*
D03*
Y1075001D02*
D03*
Y1065001D02*
D03*
Y1055001D02*
D03*
Y1045001D02*
D03*
Y1035001D02*
D03*
Y1025001D02*
D03*
Y1015001D02*
D03*
Y1005001D02*
D03*
Y995001D02*
D03*
Y985001D02*
D03*
Y975000D02*
D03*
X1077510Y1225000D02*
D03*
Y1215000D02*
D03*
Y1205000D02*
D03*
Y1195000D02*
D03*
Y1185000D02*
D03*
Y1175000D02*
D03*
Y1165000D02*
D03*
Y1155000D02*
D03*
Y1145000D02*
D03*
Y1135000D02*
D03*
Y1125000D02*
D03*
Y1115000D02*
D03*
Y1105001D02*
D03*
Y1095001D02*
D03*
Y1085001D02*
D03*
Y1075001D02*
D03*
Y1065001D02*
D03*
Y1055001D02*
D03*
Y1045001D02*
D03*
Y1035001D02*
D03*
Y1025001D02*
D03*
Y1015001D02*
D03*
Y1005001D02*
D03*
Y995001D02*
D03*
Y985001D02*
D03*
Y975000D02*
D03*
X1087510Y1225000D02*
D03*
Y1215000D02*
D03*
Y1205000D02*
D03*
Y1195000D02*
D03*
Y1185000D02*
D03*
Y1175000D02*
D03*
Y1165000D02*
D03*
Y1155000D02*
D03*
Y1145000D02*
D03*
Y1135000D02*
D03*
Y1125000D02*
D03*
Y1115000D02*
D03*
Y1105001D02*
D03*
Y1095001D02*
D03*
Y1085001D02*
D03*
Y1075001D02*
D03*
Y1065001D02*
D03*
Y1055001D02*
D03*
Y1045001D02*
D03*
Y1035001D02*
D03*
Y1025001D02*
D03*
Y1015001D02*
D03*
Y1005001D02*
D03*
Y995001D02*
D03*
Y985001D02*
D03*
Y975000D02*
D03*
X1097510Y1225000D02*
D03*
Y1215000D02*
D03*
Y1205000D02*
D03*
Y1195000D02*
D03*
Y1185000D02*
D03*
Y1175000D02*
D03*
Y1165000D02*
D03*
Y1155000D02*
D03*
Y1145000D02*
D03*
Y1135000D02*
D03*
Y1125000D02*
D03*
Y1115000D02*
D03*
Y1105001D02*
D03*
Y1095001D02*
D03*
Y1085001D02*
D03*
Y1075001D02*
D03*
Y1065001D02*
D03*
Y1055001D02*
D03*
Y1045001D02*
D03*
Y1035001D02*
D03*
Y1025001D02*
D03*
Y1015001D02*
D03*
Y1005001D02*
D03*
Y995001D02*
D03*
Y985001D02*
D03*
Y975000D02*
D03*
X1107510Y1225000D02*
D03*
Y1215000D02*
D03*
Y1205000D02*
D03*
Y1195000D02*
D03*
Y1185000D02*
D03*
Y1175000D02*
D03*
Y1165000D02*
D03*
Y1155000D02*
D03*
Y1145000D02*
D03*
Y1135000D02*
D03*
Y1125000D02*
D03*
Y1115000D02*
D03*
Y1105001D02*
D03*
Y1095001D02*
D03*
Y1085001D02*
D03*
Y1075001D02*
D03*
Y1065001D02*
D03*
Y1055001D02*
D03*
Y1045001D02*
D03*
Y1035001D02*
D03*
Y1025001D02*
D03*
Y1015001D02*
D03*
Y1005001D02*
D03*
Y995001D02*
D03*
Y985001D02*
D03*
Y975000D02*
D03*
X1117510Y1225000D02*
D03*
Y1215000D02*
D03*
Y1205000D02*
D03*
Y1195000D02*
D03*
Y1185000D02*
D03*
Y1175000D02*
D03*
Y1165000D02*
D03*
Y1155000D02*
D03*
Y1145000D02*
D03*
Y1135000D02*
D03*
Y1125000D02*
D03*
Y1115000D02*
D03*
Y1105001D02*
D03*
Y1095001D02*
D03*
Y1085001D02*
D03*
Y1075001D02*
D03*
Y1065001D02*
D03*
Y1055001D02*
D03*
Y1045001D02*
D03*
Y1035001D02*
D03*
Y1025001D02*
D03*
Y1015001D02*
D03*
Y1005001D02*
D03*
Y995001D02*
D03*
Y985001D02*
D03*
Y975000D02*
D03*
X1127510Y1225000D02*
D03*
Y1215000D02*
D03*
Y1205000D02*
D03*
Y1195000D02*
D03*
Y1185000D02*
D03*
Y1175000D02*
D03*
Y1165000D02*
D03*
Y1155000D02*
D03*
Y1145000D02*
D03*
Y1135000D02*
D03*
Y1125000D02*
D03*
Y1115000D02*
D03*
Y1105001D02*
D03*
Y1095001D02*
D03*
Y1085001D02*
D03*
Y1075001D02*
D03*
Y1065001D02*
D03*
Y1055001D02*
D03*
Y1045001D02*
D03*
Y1035001D02*
D03*
Y1025001D02*
D03*
Y1015001D02*
D03*
Y1005001D02*
D03*
Y995001D02*
D03*
Y985001D02*
D03*
Y975000D02*
D03*
X897510Y1055001D02*
D03*
X877510D02*
D03*
X887510Y1005001D02*
D03*
X877510D02*
D03*
D128*
Y1105001D02*
D03*
D129*
X1410764Y680486D02*
D03*
Y759486D02*
D03*
X1448864Y680486D02*
D03*
Y759486D02*
D03*
X1436164Y680486D02*
D03*
X1423464D02*
D03*
X1436164Y759486D02*
D03*
X1423464D02*
D03*
D130*
X1029972Y1474384D02*
D03*
X979172D02*
D03*
X1004572D02*
D03*
Y1516384D02*
D03*
X979172D02*
D03*
X1029972D02*
D03*
D131*
X789273Y1555081D02*
D03*
D132*
X1788899Y1407533D02*
D03*
X1836900D02*
D03*
X1788899Y1401033D02*
D03*
X1836900D02*
D03*
X1788899Y1381533D02*
D03*
X1836900D02*
D03*
X1788899Y1388033D02*
D03*
X1836900D02*
D03*
Y1394533D02*
D03*
X1788899D02*
D03*
D133*
X1812899D02*
D03*
D134*
X3602872Y50809D02*
D03*
Y35823D02*
D03*
X1629156Y1432941D02*
D03*
Y1417955D02*
D03*
X1728470Y1060323D02*
D03*
Y1045337D02*
D03*
D135*
X3468318Y36966D02*
D03*
X3508318D02*
D03*
X1626550Y435610D02*
D03*
X1586550D02*
D03*
D136*
X840365Y106027D02*
D03*
X800365Y38527D02*
D03*
Y106027D02*
D03*
X840365Y38527D02*
D03*
X1074045Y104757D02*
D03*
X1034045Y37257D02*
D03*
Y104757D02*
D03*
X1074045Y37257D02*
D03*
X952125Y38527D02*
D03*
X912125Y106027D02*
D03*
Y38527D02*
D03*
X952125Y106027D02*
D03*
D137*
X956130Y1432748D02*
D03*
Y1427748D02*
D03*
Y1422748D02*
D03*
Y1417748D02*
D03*
Y1412748D02*
D03*
Y1407748D02*
D03*
Y1402748D02*
D03*
Y1397748D02*
D03*
Y1392748D02*
D03*
Y1387748D02*
D03*
Y1382748D02*
D03*
Y1377748D02*
D03*
Y1372748D02*
D03*
Y1367748D02*
D03*
Y1362748D02*
D03*
Y1357748D02*
D03*
X1045630D02*
D03*
Y1362748D02*
D03*
Y1367748D02*
D03*
Y1372748D02*
D03*
Y1377748D02*
D03*
Y1382748D02*
D03*
Y1387748D02*
D03*
Y1392748D02*
D03*
Y1397748D02*
D03*
Y1402748D02*
D03*
Y1407748D02*
D03*
Y1412748D02*
D03*
Y1417748D02*
D03*
Y1422748D02*
D03*
Y1427748D02*
D03*
Y1432748D02*
D03*
X1541213Y1527734D02*
D03*
Y1532734D02*
D03*
Y1537734D02*
D03*
Y1542734D02*
D03*
Y1547734D02*
D03*
Y1552734D02*
D03*
Y1557734D02*
D03*
Y1562734D02*
D03*
Y1567734D02*
D03*
Y1572734D02*
D03*
Y1577734D02*
D03*
Y1582734D02*
D03*
Y1587734D02*
D03*
Y1592734D02*
D03*
Y1597734D02*
D03*
Y1602734D02*
D03*
X1630713D02*
D03*
Y1597734D02*
D03*
Y1592734D02*
D03*
Y1587734D02*
D03*
Y1582734D02*
D03*
Y1577734D02*
D03*
Y1572734D02*
D03*
Y1567734D02*
D03*
Y1562734D02*
D03*
Y1557734D02*
D03*
Y1552734D02*
D03*
Y1547734D02*
D03*
Y1542734D02*
D03*
Y1537734D02*
D03*
Y1532734D02*
D03*
Y1527734D02*
D03*
D138*
X963380Y1350498D02*
D03*
X968380D02*
D03*
X973380D02*
D03*
X978380D02*
D03*
X983380D02*
D03*
X988380D02*
D03*
X993380D02*
D03*
X998380D02*
D03*
X1003380D02*
D03*
X1008380D02*
D03*
X1013380D02*
D03*
X1018380D02*
D03*
X1023380D02*
D03*
X1028380D02*
D03*
X1033380D02*
D03*
X1038380D02*
D03*
Y1439998D02*
D03*
X1033380D02*
D03*
X1028380D02*
D03*
X1023380D02*
D03*
X1018380D02*
D03*
X1013380D02*
D03*
X1008380D02*
D03*
X1003380D02*
D03*
X998380D02*
D03*
X993380D02*
D03*
X988380D02*
D03*
X983380D02*
D03*
X978380D02*
D03*
X973380D02*
D03*
X968380D02*
D03*
X963380D02*
D03*
X1548463Y1609984D02*
D03*
X1553463D02*
D03*
X1558463D02*
D03*
X1563463D02*
D03*
X1568463D02*
D03*
X1573463D02*
D03*
X1578463D02*
D03*
X1583463D02*
D03*
X1588463D02*
D03*
X1593463D02*
D03*
X1598463D02*
D03*
X1603463D02*
D03*
X1608463D02*
D03*
X1613463D02*
D03*
X1618463D02*
D03*
X1623463D02*
D03*
Y1520484D02*
D03*
X1618463D02*
D03*
X1613463D02*
D03*
X1608463D02*
D03*
X1603463D02*
D03*
X1598463D02*
D03*
X1593463D02*
D03*
X1588463D02*
D03*
X1583463D02*
D03*
X1578463D02*
D03*
X1573463D02*
D03*
X1568463D02*
D03*
X1563463D02*
D03*
X1558463D02*
D03*
X1553463D02*
D03*
X1548463D02*
D03*
D139*
X1000880Y1395249D02*
D03*
D140*
X1888588Y1815768D02*
D03*
X1882088D02*
D03*
X1875588D02*
D03*
X1869088D02*
D03*
X1888588Y1774268D02*
D03*
X1882088D02*
D03*
X1875588D02*
D03*
X1869088D02*
D03*
D141*
X1585963Y1565234D02*
D03*
D142*
X2676398Y157604D02*
D03*
Y185804D02*
D03*
D143*
X1813293Y1567774D02*
D03*
D144*
X1825793Y1547274D02*
D03*
X1820793D02*
D03*
X1815793D02*
D03*
X1810792D02*
D03*
X1805793D02*
D03*
Y1588274D02*
D03*
X1810792D02*
D03*
X1815793D02*
D03*
X1820793D02*
D03*
X1825793D02*
D03*
X1800792D02*
D03*
Y1547274D02*
D03*
D145*
X1792792Y1560274D02*
D03*
Y1565274D02*
D03*
Y1570274D02*
D03*
Y1575274D02*
D03*
X1833793Y1580274D02*
D03*
Y1575274D02*
D03*
Y1570274D02*
D03*
Y1565274D02*
D03*
Y1560274D02*
D03*
Y1555274D02*
D03*
X1792792Y1580274D02*
D03*
Y1555274D02*
D03*
D146*
X1721115Y1521405D02*
D03*
X1730005D02*
D03*
X1721115Y1510117D02*
D03*
X1730005D02*
D03*
X1721198Y1617502D02*
D03*
X1730088D02*
D03*
X1721063Y1606214D02*
D03*
X1729953D02*
D03*
X1791606Y1848844D02*
D03*
X1800497D02*
D03*
X1791606Y1837542D02*
D03*
X1800497D02*
D03*
X1791861Y1753200D02*
D03*
X1800751D02*
D03*
X1791861Y1741903D02*
D03*
X1800750D02*
D03*
D147*
X1642327Y1810228D02*
D03*
Y1805229D02*
D03*
X1711826Y1820228D02*
D03*
Y1805229D02*
D03*
Y1800228D02*
D03*
Y1795229D02*
D03*
Y1790228D02*
D03*
Y1785228D02*
D03*
Y1780228D02*
D03*
Y1765228D02*
D03*
X1642327D02*
D03*
Y1770228D02*
D03*
Y1775228D02*
D03*
Y1780228D02*
D03*
Y1785228D02*
D03*
Y1790228D02*
D03*
Y1795229D02*
D03*
Y1800228D02*
D03*
Y1815229D02*
D03*
Y1820228D02*
D03*
X1711826Y1775228D02*
D03*
Y1770228D02*
D03*
Y1810228D02*
D03*
Y1815229D02*
D03*
D148*
X1677076Y1792728D02*
D03*
D149*
X1704576Y1757979D02*
D03*
X1699576D02*
D03*
X1694576D02*
D03*
X1689576D02*
D03*
X1684576D02*
D03*
X1679576D02*
D03*
X1674576D02*
D03*
X1669576D02*
D03*
X1664577D02*
D03*
X1659576D02*
D03*
X1654577D02*
D03*
X1649576D02*
D03*
Y1827478D02*
D03*
X1654577D02*
D03*
X1659576D02*
D03*
X1664577D02*
D03*
X1669576D02*
D03*
X1674576D02*
D03*
X1679576D02*
D03*
X1684576D02*
D03*
X1689576D02*
D03*
X1694576D02*
D03*
X1699576D02*
D03*
X1704576D02*
D03*
D150*
X1751170Y792450D02*
D03*
Y785950D02*
D03*
Y779450D02*
D03*
Y772950D02*
D03*
Y766450D02*
D03*
Y759950D02*
D03*
Y753450D02*
D03*
Y746950D02*
D03*
Y740450D02*
D03*
Y733950D02*
D03*
Y727450D02*
D03*
Y720950D02*
D03*
Y714450D02*
D03*
Y707950D02*
D03*
X1807170Y792450D02*
D03*
Y785950D02*
D03*
Y779450D02*
D03*
Y772950D02*
D03*
Y766450D02*
D03*
Y759950D02*
D03*
Y753450D02*
D03*
Y746950D02*
D03*
Y740450D02*
D03*
Y733950D02*
D03*
Y727450D02*
D03*
Y720950D02*
D03*
Y714450D02*
D03*
Y707950D02*
D03*
D151*
X1653540Y478790D02*
D03*
Y491490D02*
D03*
Y504190D02*
D03*
Y516890D02*
D03*
Y529590D02*
D03*
Y542290D02*
D03*
Y554990D02*
D03*
Y567690D02*
D03*
X1562100Y478790D02*
D03*
Y491490D02*
D03*
Y504190D02*
D03*
Y516890D02*
D03*
Y529590D02*
D03*
Y542290D02*
D03*
Y554990D02*
D03*
Y567690D02*
D03*
D152*
X1737790Y589260D02*
D03*
X1759790Y429280D02*
D03*
D153*
X1737790Y572060D02*
D03*
X1759790D02*
D03*
Y591260D02*
D03*
X1759790Y446480D02*
D03*
X1737790D02*
D03*
Y427280D02*
D03*
D154*
X1797920Y272970D02*
D03*
Y267970D02*
D03*
Y262970D02*
D03*
X1811420D02*
D03*
Y272970D02*
D03*
X1486770Y308690D02*
D03*
Y318690D02*
D03*
X1500270D02*
D03*
Y313690D02*
D03*
Y308690D02*
D03*
D155*
X1380480Y341030D02*
D03*
X1340480D02*
D03*
X1300480D02*
D03*
X1260480D02*
D03*
X1220480D02*
D03*
Y139030D02*
D03*
X1260480D02*
D03*
X1300480D02*
D03*
X1340480D02*
D03*
X1380480D02*
D03*
D156*
X1407730Y180030D02*
D03*
Y220030D02*
D03*
Y260030D02*
D03*
Y300030D02*
D03*
X1193230D02*
D03*
Y260030D02*
D03*
Y220030D02*
D03*
Y180030D02*
D03*
D157*
X1630930Y171450D02*
D03*
Y184150D02*
D03*
X1744730D02*
D03*
Y158750D02*
D03*
X1630930D02*
D03*
D158*
X1748790Y521650D02*
D03*
Y481650D02*
D03*
X1793000Y895000D02*
D03*
Y935000D02*
D03*
D159*
X1384380Y476870D02*
D03*
D160*
X1401880Y452369D02*
D03*
X1396880D02*
D03*
X1391880D02*
D03*
X1386880D02*
D03*
X1381879D02*
D03*
X1376880D02*
D03*
X1371879D02*
D03*
X1366880D02*
D03*
Y501370D02*
D03*
X1371879D02*
D03*
X1376880D02*
D03*
X1381879D02*
D03*
X1386880D02*
D03*
X1391880D02*
D03*
X1396880D02*
D03*
X1401880D02*
D03*
D161*
X1359879Y459370D02*
D03*
Y464369D02*
D03*
Y469370D02*
D03*
Y474369D02*
D03*
Y479370D02*
D03*
Y484370D02*
D03*
Y489370D02*
D03*
Y494370D02*
D03*
X1408880D02*
D03*
Y489370D02*
D03*
Y484370D02*
D03*
Y479370D02*
D03*
Y474369D02*
D03*
Y469370D02*
D03*
Y464369D02*
D03*
Y459370D02*
D03*
D162*
X1471290Y517020D02*
D03*
X1454790D02*
D03*
Y501520D02*
D03*
X1471290D02*
D03*
D163*
X1594000Y1083000D02*
D03*
D164*
X1667050Y1121100D02*
D03*
Y1108400D02*
D03*
Y1095700D02*
D03*
Y1083000D02*
D03*
Y1070300D02*
D03*
Y1057600D02*
D03*
Y1044900D02*
D03*
D165*
X1575245Y267970D02*
D03*
Y255270D02*
D03*
Y242570D02*
D03*
Y229870D02*
D03*
Y280670D02*
D03*
Y293370D02*
D03*
Y306070D02*
D03*
Y318770D02*
D03*
X1665795D02*
D03*
Y306070D02*
D03*
Y293370D02*
D03*
Y280670D02*
D03*
Y229870D02*
D03*
Y242570D02*
D03*
Y255270D02*
D03*
Y267970D02*
D03*
D166*
X1672000Y894000D02*
D03*
D167*
X1700000D02*
D03*
D168*
X1626870Y880010D02*
D03*
Y943710D02*
D03*
D169*
X674510Y28213D02*
D03*
Y44713D02*
D03*
X706052Y28997D02*
D03*
Y45497D02*
D03*
X614930Y29849D02*
D03*
Y46349D02*
D03*
X644374Y28940D02*
D03*
Y45440D02*
D03*
D170*
X1174400Y924704D02*
D03*
X824400Y1274704D02*
D03*
X45720Y1955800D02*
D03*
Y45720D02*
D03*
X1955800D02*
D03*
Y1955800D02*
D03*
D171*
X1927606Y1719326D02*
D03*
X1978406D02*
D03*
Y1770126D02*
D03*
X1927606D02*
D03*
X1953006Y1744726D02*
D03*
X1954530Y1573127D02*
D03*
X1929130Y1598527D02*
D03*
X1979930D02*
D03*
Y1547727D02*
D03*
X1929130D02*
D03*
X1954530Y1456287D02*
D03*
X1929130Y1481687D02*
D03*
X1979930D02*
D03*
Y1430887D02*
D03*
X1929130D02*
D03*
X1953006Y1861566D02*
D03*
X1927606Y1886966D02*
D03*
X1978406D02*
D03*
Y1836166D02*
D03*
X1927606D02*
D03*
D172*
X1933980Y591820D02*
D03*
Y464820D02*
D03*
D173*
X1908580Y563880D02*
D03*
D174*
Y543560D02*
D03*
Y523240D02*
D03*
Y502920D02*
D03*
X1890800Y553720D02*
D03*
Y533400D02*
D03*
Y513080D02*
D03*
Y492760D02*
D03*
X1842540Y596900D02*
D03*
Y482600D02*
D03*
Y459740D02*
D03*
Y574040D02*
D03*
D175*
X1884680Y301500D02*
D03*
Y181100D02*
D03*
X1797320Y982800D02*
D03*
Y1024800D02*
D03*
Y1066800D02*
D03*
X1852320Y982800D02*
D03*
Y1024800D02*
D03*
D176*
X1857680Y228800D02*
D03*
Y253800D02*
D03*
X1837680Y228800D02*
D03*
Y253800D02*
D03*
D177*
X1373680Y487570D02*
D03*
X1384380D02*
D03*
X1395080D02*
D03*
X1373680Y476870D02*
D03*
X1384380D02*
D03*
X1395080D02*
D03*
X1373680Y466170D02*
D03*
X1384380D02*
D03*
X1395080D02*
D03*
D178*
X1940560Y712800D02*
D03*
D179*
Y762800D02*
D03*
Y812800D02*
D03*
Y862800D02*
D03*
D180*
X1925320Y1066800D02*
D03*
Y982800D02*
D03*
D181*
X1852320Y1066800D02*
D03*
D182*
X537210Y1052830D02*
D03*
X428033Y1068710D02*
D03*
Y1086490D02*
D03*
X715122Y1266464D02*
D03*
Y1286784D02*
D03*
X735442D02*
D03*
Y1266464D02*
D03*
X754492D02*
D03*
Y1286784D02*
D03*
X694802Y1266464D02*
D03*
Y1286784D02*
D03*
X774812Y1266464D02*
D03*
Y1286784D02*
D03*
X314960Y1414795D02*
D03*
Y1496075D02*
D03*
Y1475755D02*
D03*
Y1455435D02*
D03*
Y1435115D02*
D03*
Y1678955D02*
D03*
Y1658635D02*
D03*
Y1638315D02*
D03*
Y1577355D02*
D03*
Y1597675D02*
D03*
Y1617995D02*
D03*
Y1557035D02*
D03*
Y1536715D02*
D03*
Y1516395D02*
D03*
Y1821180D02*
D03*
Y1841500D02*
D03*
Y1861820D02*
D03*
Y1800860D02*
D03*
Y1780540D02*
D03*
Y1760220D02*
D03*
Y1699260D02*
D03*
Y1719580D02*
D03*
Y1739900D02*
D03*
Y1882140D02*
D03*
X274320Y1272525D02*
D03*
Y1252205D02*
D03*
Y1292860D02*
D03*
Y1333500D02*
D03*
Y1353820D02*
D03*
Y1313180D02*
D03*
X546100Y1477025D02*
D03*
Y1497345D02*
D03*
Y1639585D02*
D03*
Y1659905D02*
D03*
Y1680225D02*
D03*
Y1619265D02*
D03*
Y1598945D02*
D03*
Y1578625D02*
D03*
Y1517665D02*
D03*
Y1537985D02*
D03*
Y1558305D02*
D03*
Y1863090D02*
D03*
Y1842770D02*
D03*
Y1822450D02*
D03*
Y1761490D02*
D03*
Y1781810D02*
D03*
Y1802130D02*
D03*
Y1741170D02*
D03*
Y1720850D02*
D03*
Y1700530D02*
D03*
Y1883410D02*
D03*
X525780Y1497345D02*
D03*
Y1477025D02*
D03*
X505460D02*
D03*
Y1497345D02*
D03*
Y1639585D02*
D03*
Y1659905D02*
D03*
Y1680225D02*
D03*
X525780D02*
D03*
Y1659905D02*
D03*
Y1639585D02*
D03*
Y1578625D02*
D03*
Y1598945D02*
D03*
Y1619265D02*
D03*
X505460D02*
D03*
Y1598945D02*
D03*
Y1578625D02*
D03*
Y1517665D02*
D03*
Y1537985D02*
D03*
Y1558305D02*
D03*
X525780D02*
D03*
Y1537985D02*
D03*
Y1517665D02*
D03*
X505460Y1863090D02*
D03*
Y1842770D02*
D03*
Y1822450D02*
D03*
X525780D02*
D03*
Y1842770D02*
D03*
Y1863090D02*
D03*
Y1802130D02*
D03*
Y1781810D02*
D03*
Y1761490D02*
D03*
X505460D02*
D03*
Y1781810D02*
D03*
Y1802130D02*
D03*
Y1741170D02*
D03*
Y1720850D02*
D03*
Y1700530D02*
D03*
X525780D02*
D03*
Y1720850D02*
D03*
Y1741170D02*
D03*
Y1883410D02*
D03*
X505460D02*
D03*
X274320Y1882140D02*
D03*
X294640D02*
D03*
Y1739900D02*
D03*
Y1719580D02*
D03*
Y1699260D02*
D03*
X274320D02*
D03*
Y1719580D02*
D03*
Y1739900D02*
D03*
Y1800860D02*
D03*
Y1780540D02*
D03*
Y1760220D02*
D03*
X294640D02*
D03*
Y1780540D02*
D03*
Y1800860D02*
D03*
Y1861820D02*
D03*
Y1841500D02*
D03*
Y1821180D02*
D03*
X274320D02*
D03*
Y1841500D02*
D03*
Y1861820D02*
D03*
X294640Y1516395D02*
D03*
Y1536715D02*
D03*
Y1557035D02*
D03*
X274320D02*
D03*
Y1536715D02*
D03*
Y1516395D02*
D03*
Y1577355D02*
D03*
Y1597675D02*
D03*
Y1617995D02*
D03*
X294640D02*
D03*
Y1597675D02*
D03*
Y1577355D02*
D03*
Y1638315D02*
D03*
Y1658635D02*
D03*
Y1678955D02*
D03*
X274320D02*
D03*
Y1658635D02*
D03*
Y1638315D02*
D03*
X294640Y1435115D02*
D03*
X274320D02*
D03*
Y1496075D02*
D03*
Y1475755D02*
D03*
Y1455435D02*
D03*
X294640D02*
D03*
Y1475755D02*
D03*
Y1496075D02*
D03*
X274320Y1414795D02*
D03*
X294640D02*
D03*
X274320Y1374140D02*
D03*
Y1394460D02*
D03*
X1520190Y1430020D02*
D03*
X1540510D02*
D03*
Y1450340D02*
D03*
X1520190D02*
D03*
X1560830D02*
D03*
X1581150D02*
D03*
Y1430020D02*
D03*
X1560830D02*
D03*
X1718310Y1389380D02*
D03*
X1483360Y1553030D02*
D03*
X1493520D02*
D03*
Y1542870D02*
D03*
X1483360D02*
D03*
X1883410Y1921510D02*
D03*
Y1941830D02*
D03*
Y1960880D02*
D03*
Y1981200D02*
D03*
X1822450D02*
D03*
X1842770D02*
D03*
X1863090D02*
D03*
Y1960880D02*
D03*
X1842770D02*
D03*
X1822450D02*
D03*
Y1941830D02*
D03*
X1842770D02*
D03*
X1863090D02*
D03*
Y1921510D02*
D03*
X1842770D02*
D03*
X1822450D02*
D03*
X1438910D02*
D03*
X1459230D02*
D03*
X1479550D02*
D03*
Y1941830D02*
D03*
X1459230D02*
D03*
X1438910D02*
D03*
Y1960880D02*
D03*
X1459230D02*
D03*
X1479550D02*
D03*
Y1981200D02*
D03*
X1459230D02*
D03*
X1438910D02*
D03*
X1499870D02*
D03*
X1520190D02*
D03*
X1540510D02*
D03*
Y1960880D02*
D03*
X1520190D02*
D03*
X1499870D02*
D03*
Y1941830D02*
D03*
X1520190D02*
D03*
X1540510D02*
D03*
Y1921510D02*
D03*
X1520190D02*
D03*
X1499870D02*
D03*
X1560830D02*
D03*
X1581150D02*
D03*
X1601470D02*
D03*
Y1941830D02*
D03*
X1581150D02*
D03*
X1560830D02*
D03*
Y1960880D02*
D03*
X1581150D02*
D03*
X1601470D02*
D03*
Y1981200D02*
D03*
X1581150D02*
D03*
X1560830D02*
D03*
X1661160D02*
D03*
X1681480D02*
D03*
X1701800D02*
D03*
Y1960880D02*
D03*
X1681480D02*
D03*
X1661160D02*
D03*
Y1941830D02*
D03*
X1681480D02*
D03*
X1701800D02*
D03*
X1661160Y1921510D02*
D03*
X1620520D02*
D03*
X1640840D02*
D03*
Y1941830D02*
D03*
X1620520D02*
D03*
Y1960880D02*
D03*
X1640840D02*
D03*
Y1981200D02*
D03*
X1620520D02*
D03*
X1720850D02*
D03*
X1741170D02*
D03*
Y1960880D02*
D03*
X1720850D02*
D03*
Y1941830D02*
D03*
X1741170D02*
D03*
Y1921510D02*
D03*
X1720850D02*
D03*
X1761490D02*
D03*
X1781810D02*
D03*
X1802130D02*
D03*
Y1941830D02*
D03*
X1781810D02*
D03*
X1761490D02*
D03*
Y1960880D02*
D03*
X1781810D02*
D03*
X1802130D02*
D03*
Y1981200D02*
D03*
X1781810D02*
D03*
X1761490D02*
D03*
X1984369Y1374726D02*
D03*
X1964049D02*
D03*
X1943729D02*
D03*
X1950048Y1502926D02*
D03*
X1970368D02*
D03*
Y1523246D02*
D03*
X1950048D02*
D03*
X1929728D02*
D03*
Y1502926D02*
D03*
X1931670Y1635760D02*
D03*
Y1656080D02*
D03*
X1951990D02*
D03*
X1972310D02*
D03*
Y1635760D02*
D03*
X1951990D02*
D03*
X1729740Y1673860D02*
D03*
X1750060D02*
D03*
X1770380D02*
D03*
Y1694180D02*
D03*
X1750060D02*
D03*
X1729740D02*
D03*
X1790700D02*
D03*
X1811020D02*
D03*
X1831340D02*
D03*
Y1673860D02*
D03*
X1811020D02*
D03*
X1790700D02*
D03*
X1851660D02*
D03*
X1871980D02*
D03*
X1892300D02*
D03*
Y1694180D02*
D03*
X1871980D02*
D03*
X1851660D02*
D03*
X1951990D02*
D03*
X1972310D02*
D03*
Y1673860D02*
D03*
X1951990D02*
D03*
X1911350D02*
D03*
X1931670D02*
D03*
Y1694180D02*
D03*
X1911350D02*
D03*
X1346200Y1673860D02*
D03*
X1366520D02*
D03*
X1386840D02*
D03*
Y1694180D02*
D03*
X1366520D02*
D03*
X1346200D02*
D03*
X1407160D02*
D03*
X1427480D02*
D03*
X1447800D02*
D03*
Y1673860D02*
D03*
X1427480D02*
D03*
X1407160D02*
D03*
X1468120D02*
D03*
X1488440D02*
D03*
X1508760D02*
D03*
Y1694180D02*
D03*
X1488440D02*
D03*
X1468120D02*
D03*
X1568450D02*
D03*
X1588770D02*
D03*
X1609090D02*
D03*
Y1673860D02*
D03*
X1588770D02*
D03*
X1568450D02*
D03*
X1527810D02*
D03*
X1548130D02*
D03*
Y1694180D02*
D03*
X1527810D02*
D03*
X1628140D02*
D03*
X1648460D02*
D03*
Y1673860D02*
D03*
X1628140D02*
D03*
X1668780D02*
D03*
X1689100D02*
D03*
X1709420D02*
D03*
Y1694180D02*
D03*
X1689100D02*
D03*
X1668780D02*
D03*
X1691640Y1362710D02*
D03*
Y1343660D02*
D03*
X1737360Y1330960D02*
D03*
X1718310D02*
D03*
X1784350Y1340439D02*
D03*
X1765300D02*
D03*
X436880Y1228090D02*
D03*
Y1248410D02*
D03*
X416560D02*
D03*
Y1228090D02*
D03*
X477520D02*
D03*
Y1248410D02*
D03*
Y1268730D02*
D03*
X457200D02*
D03*
Y1248410D02*
D03*
Y1228090D02*
D03*
Y1289050D02*
D03*
X477520D02*
D03*
X1441450Y1346200D02*
D03*
X1461770D02*
D03*
X1480820D02*
D03*
X1421130D02*
D03*
X1400810D02*
D03*
X1381760D02*
D03*
X1361440D02*
D03*
X1625600Y1306830D02*
D03*
Y1327150D02*
D03*
Y1347470D02*
D03*
X1645920D02*
D03*
Y1327150D02*
D03*
Y1306830D02*
D03*
X1664970D02*
D03*
Y1327150D02*
D03*
Y1347470D02*
D03*
X1605280Y1306830D02*
D03*
Y1327150D02*
D03*
Y1347470D02*
D03*
X1584960D02*
D03*
Y1327150D02*
D03*
Y1306830D02*
D03*
X1565910D02*
D03*
Y1327150D02*
D03*
Y1347470D02*
D03*
X1545590D02*
D03*
Y1327150D02*
D03*
Y1306830D02*
D03*
X1699260Y1202690D02*
D03*
X1719580D02*
D03*
X1739900D02*
D03*
Y1182370D02*
D03*
X1719580D02*
D03*
X1699260D02*
D03*
Y1163320D02*
D03*
X1719580D02*
D03*
X1739900D02*
D03*
X1699260Y1223010D02*
D03*
X1719580D02*
D03*
X1739900D02*
D03*
Y1243330D02*
D03*
X1719580D02*
D03*
X1699260D02*
D03*
Y1262380D02*
D03*
X1719580D02*
D03*
X1739900D02*
D03*
Y1282700D02*
D03*
X1719580D02*
D03*
X1699260D02*
D03*
X1758950Y1202690D02*
D03*
Y1182370D02*
D03*
Y1163320D02*
D03*
Y1223010D02*
D03*
Y1243330D02*
D03*
Y1262380D02*
D03*
Y1282700D02*
D03*
X1587500Y1143000D02*
D03*
Y1163320D02*
D03*
X1567180D02*
D03*
Y1143000D02*
D03*
X1384300Y1036320D02*
D03*
Y1016000D02*
D03*
X1363980Y995680D02*
D03*
X1323340D02*
D03*
X1343660D02*
D03*
X1303020D02*
D03*
Y975360D02*
D03*
X1323340Y955040D02*
D03*
X1343660D02*
D03*
Y975360D02*
D03*
X1323340D02*
D03*
X1384300Y995680D02*
D03*
X1445260Y975360D02*
D03*
X1384300D02*
D03*
X1363980D02*
D03*
Y955040D02*
D03*
X1384300D02*
D03*
X1404620D02*
D03*
X1424940D02*
D03*
Y975360D02*
D03*
X1404620D02*
D03*
X1424940Y1036320D02*
D03*
X1404620D02*
D03*
X1424940Y1056640D02*
D03*
Y1016000D02*
D03*
X1404620D02*
D03*
Y995680D02*
D03*
X1424940D02*
D03*
X1445260D02*
D03*
X1465580D02*
D03*
X1485900Y1016000D02*
D03*
X1465580D02*
D03*
X1445260D02*
D03*
Y1056640D02*
D03*
X1465580D02*
D03*
X1485900D02*
D03*
Y1036320D02*
D03*
X1465580D02*
D03*
X1445260D02*
D03*
Y1076960D02*
D03*
X1465580D02*
D03*
X1485900D02*
D03*
Y1097280D02*
D03*
X1465580D02*
D03*
X1445260D02*
D03*
Y1116330D02*
D03*
X1465580D02*
D03*
X1485900D02*
D03*
Y1136650D02*
D03*
X1465580D02*
D03*
X1445260D02*
D03*
X1506220D02*
D03*
Y1116330D02*
D03*
Y1097280D02*
D03*
Y1076960D02*
D03*
Y1036320D02*
D03*
Y1056640D02*
D03*
X1278108Y1183614D02*
D03*
X1257788D02*
D03*
Y1164564D02*
D03*
X1278108D02*
D03*
X1093769Y896700D02*
D03*
X1073449D02*
D03*
Y877650D02*
D03*
X1093769D02*
D03*
X1094286Y861117D02*
D03*
X1073966D02*
D03*
Y842067D02*
D03*
X1094286D02*
D03*
X1297860Y826062D02*
D03*
X1318180D02*
D03*
X1338500D02*
D03*
Y846382D02*
D03*
X1318180D02*
D03*
X1297860D02*
D03*
Y865432D02*
D03*
X1318180D02*
D03*
X1338500D02*
D03*
Y885752D02*
D03*
X1318180D02*
D03*
X1297860D02*
D03*
X1358820D02*
D03*
Y865432D02*
D03*
Y846382D02*
D03*
Y826062D02*
D03*
X1671032Y995593D02*
D03*
Y1015913D02*
D03*
X1650712D02*
D03*
Y995593D02*
D03*
X1631662D02*
D03*
Y1015913D02*
D03*
X1611342D02*
D03*
Y995593D02*
D03*
X1538822Y870578D02*
D03*
X1559142D02*
D03*
Y890898D02*
D03*
X1538822D02*
D03*
Y909948D02*
D03*
X1559142D02*
D03*
Y930268D02*
D03*
X1538822D02*
D03*
X1485240Y746379D02*
D03*
X1505560D02*
D03*
X1525880D02*
D03*
X1485240Y766699D02*
D03*
X1505560D02*
D03*
X1525880D02*
D03*
Y787019D02*
D03*
X1505560D02*
D03*
X1485240D02*
D03*
Y806069D02*
D03*
X1505560D02*
D03*
X1525880D02*
D03*
Y826389D02*
D03*
X1505560D02*
D03*
X1485240D02*
D03*
X1546200D02*
D03*
X1566520D02*
D03*
Y806069D02*
D03*
X1546200D02*
D03*
Y787019D02*
D03*
X1566520D02*
D03*
Y766699D02*
D03*
X1546200D02*
D03*
X1566520Y746379D02*
D03*
X1546200D02*
D03*
X1744736Y964394D02*
D03*
X1763786Y984714D02*
D03*
Y964394D02*
D03*
X403860Y561340D02*
D03*
X424180D02*
D03*
X444500D02*
D03*
Y541020D02*
D03*
X424180D02*
D03*
X403860D02*
D03*
Y521970D02*
D03*
X424180D02*
D03*
X444500D02*
D03*
Y501650D02*
D03*
X424180D02*
D03*
X403860D02*
D03*
Y581660D02*
D03*
X424180D02*
D03*
X444500D02*
D03*
Y601980D02*
D03*
X424180D02*
D03*
X403860D02*
D03*
Y621030D02*
D03*
X424180D02*
D03*
X444500D02*
D03*
Y641350D02*
D03*
X424180D02*
D03*
X403860D02*
D03*
X464820D02*
D03*
X485140D02*
D03*
X505460D02*
D03*
Y621030D02*
D03*
X485140D02*
D03*
X464820D02*
D03*
Y601980D02*
D03*
X485140D02*
D03*
X505460D02*
D03*
Y581660D02*
D03*
X485140D02*
D03*
X464820D02*
D03*
Y501650D02*
D03*
X485140D02*
D03*
X505460D02*
D03*
Y521970D02*
D03*
X485140D02*
D03*
X464820D02*
D03*
Y541020D02*
D03*
X485140D02*
D03*
X505460D02*
D03*
Y561340D02*
D03*
X485140D02*
D03*
X464820D02*
D03*
X525780D02*
D03*
X546100D02*
D03*
X566420D02*
D03*
Y541020D02*
D03*
X546100D02*
D03*
X525780D02*
D03*
Y521970D02*
D03*
X546100D02*
D03*
X566420D02*
D03*
Y501650D02*
D03*
X546100D02*
D03*
X525780D02*
D03*
Y581660D02*
D03*
X546100D02*
D03*
X566420D02*
D03*
Y601980D02*
D03*
X546100D02*
D03*
X525780D02*
D03*
Y621030D02*
D03*
X546100D02*
D03*
X566420D02*
D03*
Y641350D02*
D03*
X546100D02*
D03*
X525780D02*
D03*
X626110D02*
D03*
X646430D02*
D03*
X666750D02*
D03*
Y621030D02*
D03*
X646430D02*
D03*
X626110D02*
D03*
Y601980D02*
D03*
X646430D02*
D03*
X666750D02*
D03*
Y581660D02*
D03*
X646430D02*
D03*
X626110D02*
D03*
Y501650D02*
D03*
X646430D02*
D03*
X666750D02*
D03*
Y521970D02*
D03*
X646430D02*
D03*
X626110D02*
D03*
Y541020D02*
D03*
X646430D02*
D03*
X666750D02*
D03*
Y561340D02*
D03*
X646430D02*
D03*
X626110D02*
D03*
X585470D02*
D03*
X605790D02*
D03*
Y541020D02*
D03*
X585470D02*
D03*
Y521970D02*
D03*
X605790D02*
D03*
Y501650D02*
D03*
X585470D02*
D03*
Y581660D02*
D03*
X605790D02*
D03*
Y601980D02*
D03*
X585470D02*
D03*
Y621030D02*
D03*
X605790D02*
D03*
Y641350D02*
D03*
X585470D02*
D03*
X845820Y1436370D02*
D03*
X866140D02*
D03*
Y1416050D02*
D03*
X845820D02*
D03*
Y1456690D02*
D03*
X866140D02*
D03*
Y1477010D02*
D03*
X845820D02*
D03*
Y1496060D02*
D03*
X866140D02*
D03*
X825500D02*
D03*
X805180D02*
D03*
X784860D02*
D03*
Y1477010D02*
D03*
X805180D02*
D03*
X825500D02*
D03*
Y1456690D02*
D03*
X805180D02*
D03*
X784860D02*
D03*
Y1416050D02*
D03*
X805180D02*
D03*
X825500D02*
D03*
Y1436370D02*
D03*
X805180D02*
D03*
X784860D02*
D03*
X1070610Y1295400D02*
D03*
Y1275080D02*
D03*
X1130300D02*
D03*
X1111250D02*
D03*
Y1295400D02*
D03*
X1090930D02*
D03*
Y1275080D02*
D03*
X990600Y1295400D02*
D03*
Y1275080D02*
D03*
X1050290Y1295400D02*
D03*
Y1275080D02*
D03*
X1031240D02*
D03*
Y1295400D02*
D03*
X1010920D02*
D03*
Y1275080D02*
D03*
X910590Y1295400D02*
D03*
Y1275080D02*
D03*
X970280Y1295400D02*
D03*
Y1275080D02*
D03*
X951230D02*
D03*
Y1295400D02*
D03*
X930910D02*
D03*
Y1275080D02*
D03*
X1094286Y806201D02*
D03*
X1073966D02*
D03*
Y825251D02*
D03*
X1094286D02*
D03*
X1209040Y984250D02*
D03*
X1229360Y963930D02*
D03*
X1209040D02*
D03*
X1229360Y943610D02*
D03*
X1209040D02*
D03*
X1229360Y984250D02*
D03*
Y1004570D02*
D03*
X1209040D02*
D03*
Y1125220D02*
D03*
X1229360D02*
D03*
Y1104900D02*
D03*
X1209040D02*
D03*
Y1085850D02*
D03*
X1229360D02*
D03*
Y1065530D02*
D03*
X1209040D02*
D03*
Y1024890D02*
D03*
X1229360D02*
D03*
Y1045210D02*
D03*
X1209040D02*
D03*
Y1245870D02*
D03*
X1229360D02*
D03*
Y1225550D02*
D03*
X1209040D02*
D03*
Y1206500D02*
D03*
X1229360D02*
D03*
Y1186180D02*
D03*
X1209040D02*
D03*
Y1145540D02*
D03*
X1229360D02*
D03*
Y1165860D02*
D03*
X1209040D02*
D03*
X1023620Y925830D02*
D03*
X1003300D02*
D03*
X943610Y885190D02*
D03*
Y905510D02*
D03*
X963930D02*
D03*
Y885190D02*
D03*
X982980D02*
D03*
Y905510D02*
D03*
X1003300D02*
D03*
Y885190D02*
D03*
Y824230D02*
D03*
Y844550D02*
D03*
Y864870D02*
D03*
X982980D02*
D03*
Y844550D02*
D03*
Y824230D02*
D03*
X963930D02*
D03*
Y844550D02*
D03*
Y864870D02*
D03*
X943610D02*
D03*
Y844550D02*
D03*
Y824230D02*
D03*
Y803910D02*
D03*
X963930D02*
D03*
X982980D02*
D03*
X1003300D02*
D03*
X436880Y1268730D02*
D03*
Y1289050D02*
D03*
X375920D02*
D03*
X396240D02*
D03*
X416560D02*
D03*
Y1268730D02*
D03*
X396240D02*
D03*
X375920D02*
D03*
Y1309370D02*
D03*
X396240D02*
D03*
X416560D02*
D03*
Y1329690D02*
D03*
X396240D02*
D03*
X375920D02*
D03*
X436880D02*
D03*
X457200D02*
D03*
X477520D02*
D03*
Y1309370D02*
D03*
X457200D02*
D03*
X436880D02*
D03*
X497840D02*
D03*
X518160D02*
D03*
X538480D02*
D03*
Y1329690D02*
D03*
X518160D02*
D03*
X497840D02*
D03*
X355600Y1374140D02*
D03*
X335280D02*
D03*
X314960D02*
D03*
Y1394460D02*
D03*
X335280D02*
D03*
X355600D02*
D03*
X294640D02*
D03*
Y1374140D02*
D03*
X497840Y1394460D02*
D03*
X518160D02*
D03*
X538480D02*
D03*
Y1374140D02*
D03*
X518160D02*
D03*
X497840D02*
D03*
X436880D02*
D03*
X457200D02*
D03*
X477520D02*
D03*
Y1394460D02*
D03*
X457200D02*
D03*
X436880D02*
D03*
X375920D02*
D03*
X396240D02*
D03*
X416560D02*
D03*
Y1374140D02*
D03*
X396240D02*
D03*
X375920D02*
D03*
X1063822Y1662430D02*
D03*
X1082872D02*
D03*
X1103192D02*
D03*
Y1682750D02*
D03*
X1082872D02*
D03*
X1063822D02*
D03*
X1010698Y1574800D02*
D03*
X1031018D02*
D03*
X1050068D02*
D03*
X1189990D02*
D03*
X1170940D02*
D03*
X1071880Y1595120D02*
D03*
X1090930D02*
D03*
X1111250D02*
D03*
X1150620D02*
D03*
X1131570D02*
D03*
Y1574800D02*
D03*
X1150620D02*
D03*
X1111250D02*
D03*
X1090930D02*
D03*
X1071880D02*
D03*
X1170940Y1692910D02*
D03*
Y1672590D02*
D03*
Y1653540D02*
D03*
Y1633220D02*
D03*
Y1595120D02*
D03*
Y1612900D02*
D03*
X1191260D02*
D03*
Y1595120D02*
D03*
Y1633220D02*
D03*
Y1653540D02*
D03*
Y1672590D02*
D03*
Y1692910D02*
D03*
X350690Y1001400D02*
D03*
X386250D02*
D03*
X368470D02*
D03*
X386250Y1026800D02*
D03*
X368470D02*
D03*
X350690D02*
D03*
X368470Y1052200D02*
D03*
X386250D02*
D03*
X350690D02*
D03*
X278300Y1052200D02*
D03*
X260520D02*
D03*
X313860D02*
D03*
X296080D02*
D03*
Y1001400D02*
D03*
X313860D02*
D03*
X296080Y1026800D02*
D03*
X313860D02*
D03*
X278300Y1001400D02*
D03*
X260520D02*
D03*
Y1026800D02*
D03*
X278300D02*
D03*
X1377950Y1981200D02*
D03*
X1398270D02*
D03*
X1418590D02*
D03*
Y1960880D02*
D03*
X1398270D02*
D03*
X1377950D02*
D03*
Y1941830D02*
D03*
X1398270D02*
D03*
X1418590D02*
D03*
Y1921510D02*
D03*
X1398270D02*
D03*
X1377950D02*
D03*
X1337310D02*
D03*
X1357630D02*
D03*
Y1941830D02*
D03*
X1337310D02*
D03*
Y1960880D02*
D03*
X1357630D02*
D03*
Y1981200D02*
D03*
X1337310D02*
D03*
X1236980D02*
D03*
X1257300D02*
D03*
Y1960880D02*
D03*
X1236980D02*
D03*
Y1941830D02*
D03*
X1257300D02*
D03*
Y1921510D02*
D03*
X1236980D02*
D03*
Y1841500D02*
D03*
X1257300D02*
D03*
Y1861820D02*
D03*
X1236980D02*
D03*
Y1880870D02*
D03*
X1257300D02*
D03*
Y1901190D02*
D03*
X1236980D02*
D03*
X1277620D02*
D03*
X1297940D02*
D03*
X1318260D02*
D03*
Y1880870D02*
D03*
X1297940D02*
D03*
X1277620D02*
D03*
Y1861820D02*
D03*
X1297940D02*
D03*
X1318260D02*
D03*
Y1841500D02*
D03*
X1297940D02*
D03*
X1277620D02*
D03*
Y1921510D02*
D03*
X1297940D02*
D03*
X1318260D02*
D03*
Y1941830D02*
D03*
X1297940D02*
D03*
X1277620D02*
D03*
Y1960880D02*
D03*
X1297940D02*
D03*
X1318260D02*
D03*
Y1981200D02*
D03*
X1297940D02*
D03*
X1277620D02*
D03*
X1177290D02*
D03*
X1197610D02*
D03*
X1217930D02*
D03*
Y1960880D02*
D03*
X1197610D02*
D03*
X1177290D02*
D03*
Y1941830D02*
D03*
X1197610D02*
D03*
X1217930D02*
D03*
Y1921510D02*
D03*
X1197610D02*
D03*
X1177290D02*
D03*
Y1841500D02*
D03*
X1197610D02*
D03*
X1217930D02*
D03*
Y1861820D02*
D03*
X1197610D02*
D03*
X1177290D02*
D03*
Y1880870D02*
D03*
X1197610D02*
D03*
X1217930D02*
D03*
Y1901190D02*
D03*
X1197610D02*
D03*
X1177290D02*
D03*
X1116330D02*
D03*
X1136650D02*
D03*
X1156970D02*
D03*
Y1880870D02*
D03*
X1136650D02*
D03*
X1116330D02*
D03*
Y1861820D02*
D03*
X1136650D02*
D03*
X1156970D02*
D03*
Y1841500D02*
D03*
X1136650D02*
D03*
X1116330D02*
D03*
Y1921510D02*
D03*
X1136650D02*
D03*
X1156970D02*
D03*
Y1941830D02*
D03*
X1136650D02*
D03*
X1116330D02*
D03*
Y1960880D02*
D03*
X1136650D02*
D03*
X1156970D02*
D03*
Y1981200D02*
D03*
X1136650D02*
D03*
X1116330D02*
D03*
X1055370D02*
D03*
X1075690D02*
D03*
X1096010D02*
D03*
Y1960880D02*
D03*
X1075690D02*
D03*
X1055370D02*
D03*
Y1941830D02*
D03*
X1075690D02*
D03*
X1096010D02*
D03*
Y1921510D02*
D03*
X1075690D02*
D03*
X1055370D02*
D03*
Y1841500D02*
D03*
X1075690D02*
D03*
X1096010D02*
D03*
Y1861820D02*
D03*
X1075690D02*
D03*
X1055370D02*
D03*
Y1880870D02*
D03*
X1075690D02*
D03*
X1096010D02*
D03*
Y1901190D02*
D03*
X1075690D02*
D03*
X1055370D02*
D03*
X760730Y1663700D02*
D03*
X720090Y1823720D02*
D03*
X740410Y1803400D02*
D03*
Y1823720D02*
D03*
X781050Y1743710D02*
D03*
X801370D02*
D03*
Y1723390D02*
D03*
X781050D02*
D03*
Y1704340D02*
D03*
X801370D02*
D03*
Y1684020D02*
D03*
X781050D02*
D03*
Y1764030D02*
D03*
X801370D02*
D03*
Y1784350D02*
D03*
X781050D02*
D03*
Y1803400D02*
D03*
X801370D02*
D03*
Y1823720D02*
D03*
X781050D02*
D03*
X760730D02*
D03*
Y1803400D02*
D03*
Y1784350D02*
D03*
Y1764030D02*
D03*
Y1684020D02*
D03*
Y1704340D02*
D03*
Y1723390D02*
D03*
Y1743710D02*
D03*
X720090Y1903730D02*
D03*
X740410D02*
D03*
X760730D02*
D03*
Y1883410D02*
D03*
X740410D02*
D03*
X720090D02*
D03*
Y1864360D02*
D03*
X740410D02*
D03*
X760730D02*
D03*
Y1844040D02*
D03*
X740410D02*
D03*
X720090D02*
D03*
Y1924050D02*
D03*
X740410D02*
D03*
X760730D02*
D03*
Y1944370D02*
D03*
X740410D02*
D03*
X720090D02*
D03*
Y1963420D02*
D03*
X740410D02*
D03*
X760730D02*
D03*
Y1983740D02*
D03*
X740410D02*
D03*
X720090D02*
D03*
X781050D02*
D03*
X801370D02*
D03*
X821690D02*
D03*
Y1963420D02*
D03*
X801370D02*
D03*
X781050D02*
D03*
Y1944370D02*
D03*
X801370D02*
D03*
X821690D02*
D03*
Y1924050D02*
D03*
X801370D02*
D03*
X781050D02*
D03*
Y1844040D02*
D03*
X801370D02*
D03*
X821690D02*
D03*
Y1864360D02*
D03*
X801370D02*
D03*
X781050D02*
D03*
Y1883410D02*
D03*
X801370D02*
D03*
X821690D02*
D03*
Y1903730D02*
D03*
X801370D02*
D03*
X781050D02*
D03*
X1945640Y1228090D02*
D03*
X763022Y1592177D02*
D03*
X795773D02*
D03*
X923290Y1963420D02*
D03*
Y1983740D02*
D03*
X902970D02*
D03*
Y1963420D02*
D03*
X842010Y1903730D02*
D03*
X862330D02*
D03*
X882650D02*
D03*
Y1883410D02*
D03*
X862330D02*
D03*
X842010D02*
D03*
Y1864360D02*
D03*
X862330D02*
D03*
X882650D02*
D03*
Y1844040D02*
D03*
X862330D02*
D03*
X842010D02*
D03*
Y1924050D02*
D03*
X862330D02*
D03*
X882650D02*
D03*
Y1944370D02*
D03*
X862330D02*
D03*
X842010D02*
D03*
Y1963420D02*
D03*
X862330D02*
D03*
X882650D02*
D03*
Y1983740D02*
D03*
X862330D02*
D03*
X842010D02*
D03*
X866314Y1725007D02*
D03*
X984773D02*
D03*
X1882394Y1714500D02*
D03*
X1392841Y1511378D02*
D03*
X1403000D02*
D03*
Y1521537D02*
D03*
X1392841D02*
D03*
X1413161D02*
D03*
X1423320D02*
D03*
Y1511378D02*
D03*
X1413161D02*
D03*
X1453801D02*
D03*
X1463961D02*
D03*
Y1521537D02*
D03*
X1453801D02*
D03*
X1433481D02*
D03*
X1443640D02*
D03*
Y1511378D02*
D03*
X1433481D02*
D03*
X1386661Y1769711D02*
D03*
Y1759551D02*
D03*
X1376501D02*
D03*
X1386661Y1749391D02*
D03*
X1376501D02*
D03*
X1447621Y1729071D02*
D03*
X1457781D02*
D03*
Y1739231D02*
D03*
X1447621D02*
D03*
X1467941D02*
D03*
X1478101D02*
D03*
Y1729071D02*
D03*
X1467941D02*
D03*
X1488261Y1739231D02*
D03*
Y1729071D02*
D03*
X1406981D02*
D03*
X1417141D02*
D03*
Y1739231D02*
D03*
X1406981D02*
D03*
X1427301D02*
D03*
X1437461D02*
D03*
Y1729071D02*
D03*
X1427301D02*
D03*
X1386661D02*
D03*
X1396821D02*
D03*
Y1739231D02*
D03*
X1386661D02*
D03*
X1366341D02*
D03*
X1376501D02*
D03*
Y1729071D02*
D03*
X1366341D02*
D03*
X1379495Y1427558D02*
D03*
X1371215D02*
D03*
X1389040Y1438227D02*
D03*
Y1427558D02*
D03*
Y1416889D02*
D03*
X1371215Y1438227D02*
D03*
Y1416889D02*
D03*
X1379495D02*
D03*
Y1438149D02*
D03*
X1741738Y1405306D02*
D03*
Y1416813D02*
D03*
X1753168Y1405306D02*
D03*
Y1416813D02*
D03*
Y1392056D02*
D03*
X1741738D02*
D03*
X1730308D02*
D03*
X1732280Y1416813D02*
D03*
Y1405306D02*
D03*
X1788022Y1617754D02*
D03*
X1889760Y1867535D02*
D03*
X1803398Y1505712D02*
D03*
X1866900Y1465580D02*
D03*
X1858010D02*
D03*
X1831340D02*
D03*
X1849120D02*
D03*
X1840230Y1426210D02*
D03*
X1831340Y1452880D02*
D03*
X1840230Y1438910D02*
D03*
X1874520Y1450340D02*
D03*
X1883410D02*
D03*
X1866900D02*
D03*
X1849120D02*
D03*
X1858010D02*
D03*
X1931670Y1224280D02*
D03*
X1916430D02*
D03*
X1903730Y1243330D02*
D03*
Y1235710D02*
D03*
Y1228090D02*
D03*
X1939290Y1224280D02*
D03*
X1924050D02*
D03*
X1908810D02*
D03*
X1629156Y1400463D02*
D03*
X1653861Y1422400D02*
D03*
X1477621Y550829D02*
D03*
X1386098Y542934D02*
D03*
X1400175Y541682D02*
D03*
X1484490Y551054D02*
D03*
X1393962Y536808D02*
D03*
X1425944Y453656D02*
D03*
X1426210Y514350D02*
D03*
X1427480Y461010D02*
D03*
X1426210Y468630D02*
D03*
X1380470Y545836D02*
D03*
X1274674Y496836D02*
D03*
X1265071Y426196D02*
D03*
X1265008Y420148D02*
D03*
X1231358Y459702D02*
D03*
X1248278Y482905D02*
D03*
X1226109Y456533D02*
D03*
X1254952Y463980D02*
D03*
X1257533Y500788D02*
D03*
X1311980Y559770D02*
D03*
X1333171Y571977D02*
D03*
X1336461Y576175D02*
D03*
X1409379Y431165D02*
D03*
X1339179Y421671D02*
D03*
X1341095Y416067D02*
D03*
X1320437Y416131D02*
D03*
X1327139D02*
D03*
X1257945Y471994D02*
D03*
X1258221Y458917D02*
D03*
X1252837Y497455D02*
D03*
X1269822Y494620D02*
D03*
X1288173Y420148D02*
D03*
X1288208Y414187D02*
D03*
X1278691Y472636D02*
D03*
X1291065Y506373D02*
D03*
X1282348Y492477D02*
D03*
X1287135Y496217D02*
D03*
X1274304Y469603D02*
D03*
X1416629Y431132D02*
D03*
X1249778Y488623D02*
D03*
X1262380Y474980D02*
D03*
X1052500Y1030005D02*
D03*
X1032500D02*
D03*
X1002511Y1039990D02*
D03*
X972515Y1020011D02*
D03*
X1295890Y509075D02*
D03*
X655342Y1369726D02*
D03*
X662242Y1372686D02*
D03*
X655342Y1376562D02*
D03*
Y1351651D02*
D03*
X662242Y1366590D02*
D03*
Y1357954D02*
D03*
X655342Y1357912D02*
D03*
X662242Y1351858D02*
D03*
X1343003Y568522D02*
D03*
X1347236Y571737D02*
D03*
X1325086Y555594D02*
D03*
X1328980Y558800D02*
D03*
X1307512Y556349D02*
D03*
X569579Y1031862D02*
D03*
X548060Y1032570D02*
D03*
X560240Y1037100D02*
D03*
X532935Y1031724D02*
D03*
X624715Y953512D02*
D03*
X631750D02*
D03*
X637500Y953650D02*
D03*
X554816Y952880D02*
D03*
X568749Y954159D02*
D03*
X542460Y953100D02*
D03*
X606314Y954568D02*
D03*
X613297Y954459D02*
D03*
X1032510Y1090000D02*
D03*
X1042510Y1070000D02*
D03*
X1032510D02*
D03*
Y1080000D02*
D03*
X1012510D02*
D03*
X1022510D02*
D03*
X1032510Y1060000D02*
D03*
X1012510D02*
D03*
Y1050000D02*
D03*
X1022510Y1070000D02*
D03*
X1032510Y1050000D02*
D03*
X1022510Y1060028D02*
D03*
X1012510Y1070000D02*
D03*
X1052510Y1200000D02*
D03*
X952490Y1200000D02*
D03*
X972490D02*
D03*
X932490D02*
D03*
X922490D02*
D03*
X1022500Y1200010D02*
D03*
X1042510Y1200000D02*
D03*
X1012500Y1200010D02*
D03*
X1032500Y1200010D02*
D03*
X962490Y1200000D02*
D03*
X912490D02*
D03*
X1052510Y1190000D02*
D03*
X912510D02*
D03*
X972490D02*
D03*
X952490D02*
D03*
X992490D02*
D03*
X1062510D02*
D03*
X1012500Y1190010D02*
D03*
X932490Y1190000D02*
D03*
X1022500Y1190010D02*
D03*
X982490Y1070000D02*
D03*
X972490Y1080000D02*
D03*
Y1070000D02*
D03*
Y1090000D02*
D03*
X972488Y1060028D02*
D03*
X982490Y1050001D02*
D03*
X972488Y1050001D02*
D03*
X972500Y1039990D02*
D03*
X982490Y1090000D02*
D03*
Y1080000D02*
D03*
X962516Y1090007D02*
D03*
X982490Y1060028D02*
D03*
X982500Y1039990D02*
D03*
X1012510Y1090000D02*
D03*
X1022510D02*
D03*
X1052510Y1060000D02*
D03*
X1062510Y1090000D02*
D03*
X992490Y1070000D02*
D03*
X992500Y1020000D02*
D03*
X992490Y1060000D02*
D03*
Y1120000D02*
D03*
Y1110000D02*
D03*
X992500Y1039989D02*
D03*
X992500Y1010000D02*
D03*
X992490Y1090000D02*
D03*
Y1080000D02*
D03*
Y1050001D02*
D03*
X1052510Y1150000D02*
D03*
X1042710Y1150000D02*
D03*
X1042510Y1180000D02*
D03*
X1042500Y1140010D02*
D03*
X1042710Y1160000D02*
D03*
X1042510Y1170000D02*
D03*
Y1120000D02*
D03*
X1072510Y1180000D02*
D03*
Y1120000D02*
D03*
X1052510Y1180000D02*
D03*
Y1170000D02*
D03*
X1062510Y1150000D02*
D03*
Y1180000D02*
D03*
X972490Y1110000D02*
D03*
X982490Y1120000D02*
D03*
Y1110000D02*
D03*
X972490Y1120000D02*
D03*
X1012510Y1110000D02*
D03*
X1032510Y1120000D02*
D03*
X1012510D02*
D03*
X1032510Y1110000D02*
D03*
X1022510Y1120000D02*
D03*
Y1110000D02*
D03*
X1072510Y1220000D02*
D03*
X1062510D02*
D03*
Y1210000D02*
D03*
X982490D02*
D03*
X1072510D02*
D03*
X992490Y1220000D02*
D03*
X1042510D02*
D03*
X982490D02*
D03*
X1042510Y1210000D02*
D03*
X1012500Y1210010D02*
D03*
X1052500Y990000D02*
D03*
X1012510Y1000000D02*
D03*
X1032510Y1000001D02*
D03*
X1052510Y1000000D02*
D03*
X1062500D02*
D03*
X1012510Y980000D02*
D03*
X1042510Y990000D02*
D03*
X1032510D02*
D03*
X1072500D02*
D03*
X1052510Y980000D02*
D03*
X1072510D02*
D03*
X1062510Y990001D02*
D03*
X1072500Y1000000D02*
D03*
X1032510Y980000D02*
D03*
X1022500Y1220010D02*
D03*
X962490Y1229994D02*
D03*
X922490Y1220000D02*
D03*
X912490D02*
D03*
X932490D02*
D03*
X962490D02*
D03*
X952490D02*
D03*
X942490D02*
D03*
X972490D02*
D03*
X1032500Y1220010D02*
D03*
X1032510Y1020000D02*
D03*
X1012510Y1040000D02*
D03*
X1022500Y1010000D02*
D03*
X1032510Y1010000D02*
D03*
X1022510Y1040000D02*
D03*
X1012510Y1010000D02*
D03*
X1042510Y1040000D02*
D03*
X1062500Y1020000D02*
D03*
X1022500D02*
D03*
X1042500D02*
D03*
X1072510Y1040000D02*
D03*
X1042510Y1030000D02*
D03*
X1062510D02*
D03*
X1072510Y1010000D02*
D03*
X932490Y1210000D02*
D03*
X972490Y1210000D02*
D03*
X922603Y1210000D02*
D03*
X962490Y1210000D02*
D03*
X952490D02*
D03*
X912490Y1210000D02*
D03*
X982500Y1029990D02*
D03*
X972500Y1010000D02*
D03*
X972500Y1029990D02*
D03*
X982500Y1020000D02*
D03*
Y1009990D02*
D03*
X609500Y972000D02*
D03*
X617500Y972000D02*
D03*
X577500Y972000D02*
D03*
X601500D02*
D03*
X625500D02*
D03*
X593500D02*
D03*
X633500D02*
D03*
X601500Y964000D02*
D03*
X585500D02*
D03*
X593500Y980000D02*
D03*
X585500D02*
D03*
X617500Y980000D02*
D03*
X633500Y980000D02*
D03*
X609500D02*
D03*
X601500D02*
D03*
X577500Y1004000D02*
D03*
X593500Y1004000D02*
D03*
X617500Y1004000D02*
D03*
X633500Y1012000D02*
D03*
X609500Y1004000D02*
D03*
X260520Y1103000D02*
D03*
Y1128400D02*
D03*
Y1153800D02*
D03*
X350690Y925200D02*
D03*
X386250D02*
D03*
X368470D02*
D03*
X313860D02*
D03*
X296080D02*
D03*
X278300D02*
D03*
X428033Y926470D02*
D03*
Y944250D02*
D03*
X428020Y935360D02*
D03*
X428033Y917555D02*
D03*
X599610Y899800D02*
D03*
X580560D02*
D03*
X589450Y882020D02*
D03*
X571670D02*
D03*
X551275Y865193D02*
D03*
X569055D02*
D03*
X655415Y875353D02*
D03*
X637635D02*
D03*
Y898213D02*
D03*
X368470Y1153800D02*
D03*
X386250D02*
D03*
X296080D02*
D03*
X278300D02*
D03*
X404030D02*
D03*
Y1179200D02*
D03*
X278300Y950600D02*
D03*
X657500Y964000D02*
D03*
X585500Y956000D02*
D03*
X600880Y937900D02*
D03*
X605960Y946790D02*
D03*
X649500Y964000D02*
D03*
X641500Y964000D02*
D03*
X594360Y911860D02*
D03*
Y923290D02*
D03*
X594530Y946790D02*
D03*
X588180Y937900D02*
D03*
X557700D02*
D03*
X581830Y946790D02*
D03*
X551350Y937900D02*
D03*
X260520Y950600D02*
D03*
Y976000D02*
D03*
Y1077600D02*
D03*
Y925200D02*
D03*
X867510Y1075000D02*
D03*
X882510Y1120001D02*
D03*
X882490Y1140000D02*
D03*
X882500Y1000000D02*
D03*
X867510Y1035020D02*
D03*
X860550Y1095001D02*
D03*
X872500Y1059991D02*
D03*
X882500Y1060000D02*
D03*
X867510Y1045001D02*
D03*
X882500Y1090000D02*
D03*
X657500Y972000D02*
D03*
X649500Y1012000D02*
D03*
Y1028000D02*
D03*
X657500D02*
D03*
X649500Y972000D02*
D03*
Y1020000D02*
D03*
X657500Y980000D02*
D03*
X962500Y979990D02*
D03*
X972500Y979990D02*
D03*
X942500Y979990D02*
D03*
X902500D02*
D03*
X872500Y980000D02*
D03*
X882510D02*
D03*
X982500Y979990D02*
D03*
X902500Y969990D02*
D03*
X882510Y970000D02*
D03*
X892500Y969990D02*
D03*
X962500Y969990D02*
D03*
X972500Y969990D02*
D03*
X580390Y1087120D02*
D03*
X593500Y1020000D02*
D03*
X593500Y1012001D02*
D03*
X617500Y1012001D02*
D03*
X633500Y1020000D02*
D03*
X605500Y1037100D02*
D03*
X593501Y1028000D02*
D03*
X621500Y1037100D02*
D03*
X613500D02*
D03*
X577501Y1028000D02*
D03*
X278300Y1077600D02*
D03*
Y976000D02*
D03*
Y1128400D02*
D03*
Y1103000D02*
D03*
X313860Y1077600D02*
D03*
X296080Y1103000D02*
D03*
Y1128400D02*
D03*
Y1077600D02*
D03*
X368470D02*
D03*
X404030Y1103000D02*
D03*
X386250Y1077600D02*
D03*
Y1103000D02*
D03*
X368470D02*
D03*
X350690Y1077600D02*
D03*
Y950600D02*
D03*
X428033Y953140D02*
D03*
X368470Y950600D02*
D03*
X386250D02*
D03*
X313860D02*
D03*
X428033Y962032D02*
D03*
X296080Y950600D02*
D03*
X549910Y1089660D02*
D03*
X537210Y1085850D02*
D03*
X566420Y1089660D02*
D03*
X537210Y1064260D02*
D03*
Y1075690D02*
D03*
X560070D02*
D03*
X404030Y1128400D02*
D03*
X386250D02*
D03*
X368470D02*
D03*
X553423Y1003999D02*
D03*
X561500Y1020000D02*
D03*
X577500D02*
D03*
X561500Y972000D02*
D03*
X569500Y1012000D02*
D03*
X569500Y1004000D02*
D03*
X569500Y1020001D02*
D03*
X561500Y1012000D02*
D03*
X577500Y1012001D02*
D03*
X569500Y972000D02*
D03*
X428033Y1077600D02*
D03*
X922500Y989991D02*
D03*
X942500Y999990D02*
D03*
X932500Y989990D02*
D03*
X922500Y999990D02*
D03*
X912510Y1030000D02*
D03*
X932510Y1030001D02*
D03*
X912510Y1020000D02*
D03*
X942500Y1020000D02*
D03*
X942510Y1030000D02*
D03*
X962510Y1100000D02*
D03*
X962490Y1070000D02*
D03*
X962503Y1189943D02*
D03*
X962500Y1019990D02*
D03*
X962500Y990025D02*
D03*
X962501Y1030025D02*
D03*
X962500Y1010000D02*
D03*
Y999990D02*
D03*
X962510Y1050000D02*
D03*
X952510Y1090000D02*
D03*
X942510Y1090000D02*
D03*
X962500Y1110010D02*
D03*
X952510Y1100000D02*
D03*
X952500Y1120000D02*
D03*
Y1080000D02*
D03*
X942510Y1100000D02*
D03*
X942500Y1079990D02*
D03*
X902490Y1130000D02*
D03*
Y1140000D02*
D03*
X902510Y1110000D02*
D03*
X902490Y1160000D02*
D03*
Y1180000D02*
D03*
X912510Y1100000D02*
D03*
X912510Y1080000D02*
D03*
Y1050000D02*
D03*
X912638Y1130089D02*
D03*
X912510Y1090000D02*
D03*
X912490Y1120000D02*
D03*
X922590Y1099921D02*
D03*
X922490Y1180000D02*
D03*
Y1150000D02*
D03*
X932490Y1120000D02*
D03*
X922490Y1130000D02*
D03*
X922510Y1040000D02*
D03*
X932590Y1090000D02*
D03*
X932470Y1080034D02*
D03*
X922550Y1090080D02*
D03*
X932549Y1070000D02*
D03*
X932510Y1100000D02*
D03*
X922510Y1070000D02*
D03*
X932510Y1060000D02*
D03*
X932510Y1050000D02*
D03*
X932490Y1180000D02*
D03*
X892479Y1090080D02*
D03*
X892550Y1099921D02*
D03*
X902470Y1080028D02*
D03*
X892510Y1110001D02*
D03*
Y1070000D02*
D03*
X902510Y1020000D02*
D03*
Y1040000D02*
D03*
X892455Y990000D02*
D03*
X892509Y1030020D02*
D03*
X902510Y1050001D02*
D03*
X892510Y1000001D02*
D03*
X892510Y1050000D02*
D03*
X892500Y1060000D02*
D03*
X892510Y1010015D02*
D03*
X1052510Y970000D02*
D03*
X1072510D02*
D03*
X1092510Y1190000D02*
D03*
Y970000D02*
D03*
X1102510Y1160000D02*
D03*
Y1140000D02*
D03*
X1092500Y1130010D02*
D03*
X1102500Y1180010D02*
D03*
X1092510Y1120000D02*
D03*
X1102510Y970000D02*
D03*
X1092510Y980000D02*
D03*
Y1210000D02*
D03*
Y1230000D02*
D03*
Y1220000D02*
D03*
X1112500Y1230010D02*
D03*
X1082510Y1210000D02*
D03*
X1132510Y970000D02*
D03*
X1122510Y1120000D02*
D03*
X1082500Y1200010D02*
D03*
X1082510Y1050000D02*
D03*
Y1190000D02*
D03*
Y1150000D02*
D03*
Y1180000D02*
D03*
Y1020000D02*
D03*
X1042510Y1230000D02*
D03*
X992490Y1230000D02*
D03*
X1072510D02*
D03*
X1062510D02*
D03*
X1082510Y1220000D02*
D03*
X902490D02*
D03*
X942503Y1230000D02*
D03*
X902490D02*
D03*
X972490D02*
D03*
X932490D02*
D03*
X922490Y1230000D02*
D03*
X1082510Y1230000D02*
D03*
X982490Y1230090D02*
D03*
X1122510Y1160000D02*
D03*
X1132500Y1230010D02*
D03*
X1122500Y1180010D02*
D03*
X1122500Y1200010D02*
D03*
X1122510Y1140000D02*
D03*
X882510Y1220000D02*
D03*
X892490Y1220000D02*
D03*
X882490Y1180000D02*
D03*
X892510Y1190000D02*
D03*
X882490Y1160000D02*
D03*
X912490Y1230000D02*
D03*
X892490D02*
D03*
X952490D02*
D03*
X1092510Y990001D02*
D03*
X1082510Y1000000D02*
D03*
X1122510Y1050000D02*
D03*
Y990000D02*
D03*
Y1030000D02*
D03*
X1102510Y1040000D02*
D03*
Y1030000D02*
D03*
Y1010000D02*
D03*
X1122510Y1090000D02*
D03*
Y1010000D02*
D03*
X1082510Y1070000D02*
D03*
X1102510Y1090000D02*
D03*
X1122510Y1070000D02*
D03*
X1022710Y1150000D02*
D03*
X1032490Y1140000D02*
D03*
X1022510Y1130000D02*
D03*
X1032510D02*
D03*
X1012510D02*
D03*
Y1150000D02*
D03*
X1032510Y1180000D02*
D03*
X1022510D02*
D03*
X952490D02*
D03*
X962490D02*
D03*
X992490Y1180000D02*
D03*
X972490Y1180000D02*
D03*
X982490Y1170000D02*
D03*
X962490Y1170000D02*
D03*
X972490Y1160000D02*
D03*
X952490Y1150000D02*
D03*
X942490D02*
D03*
X962490Y1130000D02*
D03*
X972490Y1130000D02*
D03*
X992490D02*
D03*
X982490D02*
D03*
X972490Y1140000D02*
D03*
X992490D02*
D03*
X1032510Y1170000D02*
D03*
X1012510Y1170000D02*
D03*
X1012500Y1160010D02*
D03*
X1022510Y1170000D02*
D03*
X1032490Y1160000D02*
D03*
X313860Y976000D02*
D03*
X296080D02*
D03*
X368470D02*
D03*
X428033Y1033150D02*
D03*
Y1059795D02*
D03*
Y979810D02*
D03*
Y970895D02*
D03*
X428033Y1050930D02*
D03*
X428033Y988675D02*
D03*
Y1042015D02*
D03*
Y1024286D02*
D03*
Y997590D02*
D03*
Y1006455D02*
D03*
Y1015370D02*
D03*
X545635Y964000D02*
D03*
X545500Y1012001D02*
D03*
X537547Y1012048D02*
D03*
X529194Y963600D02*
D03*
X545500Y972000D02*
D03*
X537500Y964000D02*
D03*
X537500Y1020000D02*
D03*
X545500Y980000D02*
D03*
X545500Y1020000D02*
D03*
X529500Y1020001D02*
D03*
X537500Y972000D02*
D03*
X386250Y976000D02*
D03*
X350690D02*
D03*
X866314Y1764037D02*
D03*
Y1750407D02*
D03*
X1664208Y1839468D02*
D03*
X1697990Y1873758D02*
D03*
X1689100Y1874266D02*
D03*
X1686951Y1057600D02*
D03*
X1687830Y1094740D02*
D03*
Y1104900D02*
D03*
X1397542Y441325D02*
D03*
X1466850Y426720D02*
D03*
X1477010Y433070D02*
D03*
X1513840Y431800D02*
D03*
Y422910D02*
D03*
X1526540D02*
D03*
Y431800D02*
D03*
X1539240Y422910D02*
D03*
Y431800D02*
D03*
X1551940D02*
D03*
Y422910D02*
D03*
X1563370Y431800D02*
D03*
Y422910D02*
D03*
X1645920Y427990D02*
D03*
Y436880D02*
D03*
Y445770D02*
D03*
X1654810Y427990D02*
D03*
Y436880D02*
D03*
Y445770D02*
D03*
X1673860Y427990D02*
D03*
Y436880D02*
D03*
Y445770D02*
D03*
X1682750Y427990D02*
D03*
Y436880D02*
D03*
Y445770D02*
D03*
X1699260Y427990D02*
D03*
Y436880D02*
D03*
Y445770D02*
D03*
X1708150Y427990D02*
D03*
Y436880D02*
D03*
Y445770D02*
D03*
X1351280Y499110D02*
D03*
X1397000Y514350D02*
D03*
X1557020Y447040D02*
D03*
X1565910D02*
D03*
X1582420Y554990D02*
D03*
Y491490D02*
D03*
X1592589Y537338D02*
D03*
X1592589Y510668D02*
D03*
X1628140Y552450D02*
D03*
Y491236D02*
D03*
Y496570D02*
D03*
X1628246Y558037D02*
D03*
X1699260Y455930D02*
D03*
Y464820D02*
D03*
Y473710D02*
D03*
X1708150Y455930D02*
D03*
Y464820D02*
D03*
Y473710D02*
D03*
X1737360Y455930D02*
D03*
X1746123Y560070D02*
D03*
X1751457D02*
D03*
X1760220Y454660D02*
D03*
X1775460Y473710D02*
D03*
Y482600D02*
D03*
X1736090Y746760D02*
D03*
Y762000D02*
D03*
X1823720Y760730D02*
D03*
Y767080D02*
D03*
D183*
X1681537Y1408307D02*
D03*
X1691537D02*
D03*
X1701537D02*
D03*
Y1418307D02*
D03*
X1691537D02*
D03*
X1681537D02*
D03*
Y1428307D02*
D03*
X1691537D02*
D03*
X1701537D02*
D03*
X779273Y1565081D02*
D03*
Y1555081D02*
D03*
Y1545081D02*
D03*
X789273D02*
D03*
Y1555081D02*
D03*
Y1565081D02*
D03*
X799273D02*
D03*
Y1555081D02*
D03*
Y1545081D02*
D03*
X1506810Y1414611D02*
D03*
X1496810D02*
D03*
X1486810D02*
D03*
Y1404611D02*
D03*
X1496810D02*
D03*
X1506810D02*
D03*
Y1394611D02*
D03*
X1496810D02*
D03*
X1486810D02*
D03*
D184*
X1922719Y1165576D02*
D03*
Y1173376D02*
D03*
Y1181176D02*
D03*
X1905519D02*
D03*
Y1173376D02*
D03*
Y1165576D02*
D03*
X1802899Y1404533D02*
D03*
X1812899D02*
D03*
Y1384533D02*
D03*
X1822899D02*
D03*
Y1404533D02*
D03*
Y1394533D02*
D03*
X1812899D02*
D03*
X1802899Y1384533D02*
D03*
Y1394533D02*
D03*
D185*
X978880Y1417248D02*
D03*
X989880D02*
D03*
X1000880D02*
D03*
X1011880D02*
D03*
X1022880D02*
D03*
X978880Y1406248D02*
D03*
X989880D02*
D03*
X1000880D02*
D03*
X1011880D02*
D03*
X1022880D02*
D03*
X978880Y1395249D02*
D03*
X989880D02*
D03*
X1000880D02*
D03*
X1011880D02*
D03*
X1022880D02*
D03*
X978880Y1384248D02*
D03*
X989880D02*
D03*
X1000880D02*
D03*
X1011880D02*
D03*
X1022880D02*
D03*
X978880Y1373248D02*
D03*
X989880D02*
D03*
X1000880D02*
D03*
X1011880D02*
D03*
X1022880D02*
D03*
X1607963Y1587234D02*
D03*
Y1576234D02*
D03*
Y1565234D02*
D03*
Y1554234D02*
D03*
Y1543234D02*
D03*
X1596963Y1587234D02*
D03*
Y1576234D02*
D03*
Y1565234D02*
D03*
Y1554234D02*
D03*
Y1543234D02*
D03*
X1585963Y1587234D02*
D03*
Y1576234D02*
D03*
Y1565234D02*
D03*
Y1554234D02*
D03*
Y1543234D02*
D03*
X1574963Y1587234D02*
D03*
Y1576234D02*
D03*
Y1565234D02*
D03*
Y1554234D02*
D03*
Y1543234D02*
D03*
X1563963Y1587234D02*
D03*
Y1576234D02*
D03*
Y1565234D02*
D03*
Y1554234D02*
D03*
Y1543234D02*
D03*
X1807793Y1573274D02*
D03*
X1818793D02*
D03*
X1807793Y1562274D02*
D03*
X1818793D02*
D03*
X1655076Y1770728D02*
D03*
Y1781729D02*
D03*
Y1792728D02*
D03*
Y1803728D02*
D03*
Y1814728D02*
D03*
X1666077Y1770728D02*
D03*
Y1781729D02*
D03*
Y1792728D02*
D03*
Y1803728D02*
D03*
Y1814728D02*
D03*
X1677076Y1770728D02*
D03*
Y1781729D02*
D03*
Y1792728D02*
D03*
Y1803728D02*
D03*
Y1814728D02*
D03*
X1688076Y1770728D02*
D03*
Y1781729D02*
D03*
Y1792728D02*
D03*
Y1803728D02*
D03*
Y1814728D02*
D03*
X1699076Y1770728D02*
D03*
Y1781729D02*
D03*
Y1792728D02*
D03*
Y1803728D02*
D03*
Y1814728D02*
D03*
X1768170Y794200D02*
D03*
X1779170D02*
D03*
X1790170D02*
D03*
X1768170Y783200D02*
D03*
X1779170D02*
D03*
X1790170D02*
D03*
X1768170Y772200D02*
D03*
X1779170D02*
D03*
X1790170D02*
D03*
X1768170Y761200D02*
D03*
X1779170D02*
D03*
X1790170D02*
D03*
X1768170Y750200D02*
D03*
X1779170D02*
D03*
X1790170D02*
D03*
X1768170Y739200D02*
D03*
X1779170D02*
D03*
X1790170D02*
D03*
X1768170Y728200D02*
D03*
X1779170D02*
D03*
X1790170D02*
D03*
X1768170Y717200D02*
D03*
X1779170D02*
D03*
X1790170D02*
D03*
X1768170Y706200D02*
D03*
X1779170D02*
D03*
X1790170D02*
D03*
D186*
X1594000Y1083000D02*
D03*
X1578760D02*
D03*
X1563520D02*
D03*
X1624480Y1067760D02*
D03*
X1616860Y1060140D02*
D03*
X1632100D02*
D03*
Y1075380D02*
D03*
Y1090620D02*
D03*
Y1105860D02*
D03*
X1624480Y1083000D02*
D03*
Y1098240D02*
D03*
X1616860Y1075380D02*
D03*
Y1090620D02*
D03*
Y1105860D02*
D03*
X1609240Y1067760D02*
D03*
Y1083000D02*
D03*
Y1098240D02*
D03*
X1601620Y1060140D02*
D03*
Y1075380D02*
D03*
Y1090620D02*
D03*
Y1105860D02*
D03*
X1594000Y1067760D02*
D03*
Y1098240D02*
D03*
X1586380Y1060140D02*
D03*
Y1075380D02*
D03*
Y1090620D02*
D03*
Y1105860D02*
D03*
X1578760Y1067760D02*
D03*
Y1098240D02*
D03*
X1571140Y1060140D02*
D03*
Y1075380D02*
D03*
Y1090620D02*
D03*
Y1105860D02*
D03*
X1563520Y1067760D02*
D03*
Y1098240D02*
D03*
X1555900Y1105860D02*
D03*
Y1090620D02*
D03*
Y1075380D02*
D03*
Y1060140D02*
D03*
M02*
