G04*
G04 #@! TF.GenerationSoftware,Altium Limited,Altium Designer,23.11.1 (41)*
G04*
G04 Layer_Color=32896*
%FSLAX44Y44*%
%MOMM*%
G71*
G04*
G04 #@! TF.SameCoordinates,838A1BA1-0531-4938-89FD-2D76D54D1B47*
G04*
G04*
G04 #@! TF.FilePolarity,Positive*
G04*
G01*
G75*
%ADD10C,0.2540*%
%ADD13C,0.2000*%
%ADD14C,0.1270*%
%ADD16C,0.1524*%
%ADD17C,0.1999*%
%ADD22C,0.1778*%
D10*
X993289Y1788633D02*
Y1811493D01*
X947061Y1788633D02*
X993289D01*
X947061D02*
Y1811493D01*
X993289D01*
X993409Y1902213D02*
Y1925073D01*
X947181Y1902213D02*
X993409D01*
X947181D02*
Y1925073D01*
X993409D01*
X993409Y1875797D02*
Y1898657D01*
X947181Y1875797D02*
X993409D01*
X947181D02*
Y1898657D01*
X993409D01*
X993409Y1849052D02*
Y1871912D01*
X947181Y1849052D02*
X993409D01*
X947181D02*
Y1871912D01*
X993409D01*
Y1820722D02*
Y1843582D01*
X947181Y1820722D02*
X993409D01*
X947181D02*
Y1843582D01*
X993409D01*
X1655953Y1481960D02*
Y1501264D01*
X1622679Y1481960D02*
X1655953D01*
X1622679D02*
Y1501264D01*
X1655953D01*
X1889128Y1726057D02*
X1908432D01*
X1889128D02*
Y1759331D01*
X1908432D01*
Y1726057D02*
Y1759331D01*
X1707896Y1848358D02*
Y1867662D01*
X1674622Y1848358D02*
X1707896D01*
X1674622D02*
Y1867662D01*
X1707896D01*
X1764411Y1810004D02*
Y1829308D01*
X1731137Y1810004D02*
X1764411D01*
X1731137D02*
Y1829308D01*
X1764411D01*
X964735Y942726D02*
X998009D01*
Y962030D01*
X964735D02*
X998009D01*
X964735Y942726D02*
Y962030D01*
X556557Y1112398D02*
Y1131702D01*
X523283Y1112398D02*
X556557D01*
X523283D02*
Y1131702D01*
X556557D01*
X1064176Y804804D02*
Y827664D01*
X1017948Y804804D02*
X1064176D01*
X1017948D02*
Y827664D01*
X1064176D01*
X1064430Y840618D02*
Y863478D01*
X1018202Y840618D02*
X1064430D01*
X1018202D02*
Y863478D01*
X1064430D01*
X1035767Y1745060D02*
Y1791288D01*
Y1745060D02*
X1058626D01*
Y1791288D01*
X1035767D02*
X1058626D01*
X816281Y1607934D02*
Y1630794D01*
X770053Y1607934D02*
X816281D01*
X770053D02*
Y1630794D01*
X816281D01*
X707040Y1511228D02*
Y1534088D01*
X753269D01*
Y1511228D02*
Y1534088D01*
X707040Y1511228D02*
X753269D01*
X1381970Y1150530D02*
Y1173390D01*
X1428198D01*
Y1150530D02*
Y1173390D01*
X1381970Y1150530D02*
X1428198D01*
X1381970Y1123030D02*
X1428198D01*
Y1145890D01*
X1381970D02*
X1428198D01*
X1381970Y1123030D02*
Y1145890D01*
Y1178030D02*
X1428198D01*
Y1200890D01*
X1381970D02*
X1428198D01*
X1381970Y1178030D02*
Y1200890D01*
X1792781Y1327763D02*
X1839009D01*
Y1350623D01*
X1792781D02*
X1839009D01*
X1792781Y1327763D02*
Y1350623D01*
X1851406Y1829054D02*
X1870710D01*
X1851406D02*
Y1862328D01*
X1870710D01*
Y1829054D02*
Y1862328D01*
X1518666Y1614424D02*
X1551940D01*
Y1633728D01*
X1518666D02*
X1551940D01*
X1518666Y1614424D02*
Y1633728D01*
X1450957Y1438858D02*
Y1485086D01*
Y1438858D02*
X1473817D01*
Y1485086D01*
X1450957D02*
X1473817D01*
X1572392Y1379747D02*
Y1425975D01*
X1549532D02*
X1572392D01*
X1549532Y1379747D02*
Y1425975D01*
Y1379747D02*
X1572392D01*
X1315720Y541274D02*
X1338580D01*
Y495046D02*
Y541274D01*
X1315720Y495046D02*
X1338580D01*
X1315720D02*
Y541274D01*
X1730773Y375974D02*
Y396294D01*
X1696483Y375974D02*
X1730773D01*
X1696483D02*
Y396294D01*
X1730773D01*
X1768475Y375920D02*
Y396240D01*
X1734185Y375920D02*
X1768475D01*
X1734185D02*
Y396240D01*
X1768475D01*
X1726583Y1337103D02*
Y1383331D01*
X1703723D02*
X1726583D01*
X1703723Y1337103D02*
Y1383331D01*
Y1337103D02*
X1726583D01*
D13*
X757345Y365525D02*
X779595D01*
X768345Y354774D02*
Y376274D01*
X762095Y332024D02*
Y349024D01*
X742346Y368774D02*
X761845Y349275D01*
X660095Y368774D02*
X742346D01*
X660095Y332524D02*
Y368524D01*
X761845Y282525D02*
Y299524D01*
X742346Y263024D02*
X761845Y282525D01*
X660095Y263024D02*
X742346D01*
X660095D02*
Y299024D01*
X659915Y378595D02*
Y414595D01*
Y378595D02*
X742166D01*
X761665Y398095D01*
Y415095D01*
X659915Y448095D02*
Y484095D01*
Y484345D02*
X742166D01*
X761665Y464845D01*
X761915Y447595D02*
Y464595D01*
X768166Y470345D02*
Y491845D01*
X757165Y481094D02*
X779415D01*
X757749Y596931D02*
X779999D01*
X768749Y586181D02*
Y607681D01*
X762499Y563431D02*
Y580430D01*
X742749Y600181D02*
X762249Y580681D01*
X660499Y600181D02*
X742749D01*
X660499Y563931D02*
Y599931D01*
X762249Y513931D02*
Y530930D01*
X742749Y494431D02*
X762249Y513931D01*
X660499Y494431D02*
X742749D01*
X660499D02*
Y530431D01*
X1522517Y1744509D02*
Y1766759D01*
X1511768Y1755759D02*
X1533268D01*
X1489017Y1762009D02*
X1506018D01*
X1506268Y1762259D02*
X1525768Y1781759D01*
Y1864009D01*
X1489518D02*
X1525518D01*
X1439517Y1762259D02*
X1456517D01*
X1420017Y1781759D02*
X1439517Y1762259D01*
X1420017Y1781759D02*
Y1864009D01*
X1456018D01*
X1969928Y1356072D02*
X1992178D01*
X1980928Y1345322D02*
Y1366822D01*
X1974678Y1322572D02*
Y1339572D01*
X1954928Y1359322D02*
X1974428Y1339822D01*
X1872678Y1359322D02*
X1954928D01*
X1872678Y1323072D02*
Y1359072D01*
X1974428Y1273072D02*
Y1290072D01*
X1954928Y1253572D02*
X1974428Y1273072D01*
X1872678Y1253572D02*
X1954928D01*
X1872678D02*
Y1289572D01*
X902864Y914787D02*
X925114D01*
X913865Y904037D02*
Y925537D01*
X907614Y881287D02*
Y898287D01*
X887865Y918037D02*
X907364Y898537D01*
X805614Y918037D02*
X887865D01*
X805614Y881787D02*
Y917787D01*
X907364Y831787D02*
Y848787D01*
X887865Y812287D02*
X907364Y831787D01*
X805614Y812287D02*
X887865D01*
X805614D02*
Y848287D01*
X964866Y1603025D02*
Y1639025D01*
X882616D02*
X964866D01*
X863116Y1619525D02*
X882616Y1639025D01*
X863116Y1602525D02*
Y1619525D01*
X964866Y1533525D02*
Y1569525D01*
X882616Y1533275D02*
X964866D01*
X863116Y1552775D02*
X882616Y1533275D01*
X862866Y1553025D02*
Y1570025D01*
X856616Y1525775D02*
Y1547275D01*
X845366Y1536525D02*
X867616D01*
X1346866Y1477230D02*
X1369116D01*
X1357866Y1466480D02*
Y1487980D01*
X1351616Y1443730D02*
Y1460730D01*
X1331866Y1480480D02*
X1351366Y1460980D01*
X1249616Y1480480D02*
X1331866D01*
X1249616Y1444230D02*
Y1480230D01*
X1351366Y1394230D02*
Y1411230D01*
X1331866Y1374730D02*
X1351366Y1394230D01*
X1249616Y1374730D02*
X1331866D01*
X1249616D02*
Y1410730D01*
X496250Y1158660D02*
X518500D01*
X507500Y1147910D02*
Y1169410D01*
X513750Y1175161D02*
Y1192160D01*
X514000Y1174910D02*
X533500Y1155411D01*
X615750D01*
Y1155660D02*
Y1191660D01*
X514000Y1224660D02*
Y1241660D01*
X533500Y1261160D01*
X615750D01*
Y1225160D02*
Y1261160D01*
X278490Y1195950D02*
Y1231950D01*
X360740D01*
X380240Y1212450D01*
Y1195450D02*
Y1212450D01*
X278490Y1126451D02*
Y1162450D01*
Y1126201D02*
X360740D01*
X380240Y1145700D01*
X380490Y1145951D02*
Y1162950D01*
X386740Y1118700D02*
Y1140201D01*
X375740Y1129450D02*
X397990D01*
X1156304Y662493D02*
Y684743D01*
X1145554Y673743D02*
X1167054D01*
X1122804Y679993D02*
X1139804D01*
X1140054Y680242D02*
X1159554Y699743D01*
Y781993D01*
X1123304D02*
X1159304D01*
X1073304Y680242D02*
X1090304D01*
X1053804Y699743D02*
X1073304Y680242D01*
X1053804Y699743D02*
Y781993D01*
X1089804D01*
X1265431Y1121474D02*
X1301431D01*
X1265431Y1039224D02*
Y1121474D01*
Y1039224D02*
X1284931Y1019724D01*
X1301932D01*
X1334931Y1121474D02*
X1370931D01*
X1371181Y1039224D02*
Y1121474D01*
X1351682Y1019724D02*
X1371181Y1039224D01*
X1334431Y1019474D02*
X1351431D01*
X1357181Y1013224D02*
X1378681D01*
X1367932Y1001974D02*
Y1024224D01*
X1403032Y837774D02*
Y873774D01*
Y837774D02*
X1485282D01*
X1504782Y857274D01*
Y874274D01*
X1403032Y907274D02*
Y943274D01*
Y943524D02*
X1485282D01*
X1504782Y924024D01*
X1505032Y906774D02*
Y923774D01*
X1511282Y929524D02*
Y951024D01*
X1500282Y940274D02*
X1522532D01*
X1116325Y1549718D02*
X1152325D01*
X1116325Y1467468D02*
Y1549718D01*
Y1467468D02*
X1135825Y1447968D01*
X1152824D01*
X1185825Y1549718D02*
X1221825D01*
X1222075Y1467468D02*
Y1549718D01*
X1202574Y1447968D02*
X1222075Y1467468D01*
X1185325Y1447718D02*
X1202325D01*
X1208074Y1441468D02*
X1229575D01*
X1218824Y1430218D02*
Y1452468D01*
X1244634Y1310470D02*
Y1332720D01*
X1233884Y1321470D02*
X1255384D01*
X1261134Y1315220D02*
X1278134D01*
X1241384Y1295470D02*
X1260884Y1314970D01*
X1241384Y1213220D02*
Y1295470D01*
X1241634Y1213220D02*
X1277634D01*
X1310634Y1314970D02*
X1327634D01*
X1347134Y1295470D01*
Y1213220D02*
Y1295470D01*
X1311134Y1213220D02*
X1347134D01*
X1571559Y1173786D02*
Y1209786D01*
Y1173786D02*
X1653810D01*
X1673309Y1193286D01*
Y1210286D01*
X1571559Y1243286D02*
Y1279286D01*
Y1279536D02*
X1653810D01*
X1673309Y1260036D01*
X1673559Y1242786D02*
Y1259786D01*
X1679810Y1265536D02*
Y1287036D01*
X1668810Y1276286D02*
X1691059D01*
X3482478Y-94704D02*
Y-58704D01*
X3400228D02*
X3482478D01*
X3380728Y-78204D02*
X3400228Y-58704D01*
X3380728Y-95204D02*
Y-78204D01*
X3482478Y-164204D02*
Y-128204D01*
X3400228Y-164454D02*
X3482478D01*
X3380728Y-144954D02*
X3400228Y-164454D01*
X3380478Y-144704D02*
Y-127704D01*
X3374228Y-171954D02*
Y-150454D01*
X3362978Y-161204D02*
X3385228D01*
X3634878Y-94704D02*
Y-58704D01*
X3552628D02*
X3634878D01*
X3533128Y-78204D02*
X3552628Y-58704D01*
X3533128Y-95204D02*
Y-78204D01*
X3634878Y-164204D02*
Y-128204D01*
X3552628Y-164454D02*
X3634878D01*
X3533128Y-144954D02*
X3552628Y-164454D01*
X3532878Y-144704D02*
Y-127704D01*
X3526628Y-171954D02*
Y-150454D01*
X3515378Y-161204D02*
X3537628D01*
X1406480Y1644280D02*
X1442480D01*
X1406480Y1562030D02*
Y1644280D01*
Y1562030D02*
X1425980Y1542530D01*
X1442980D01*
X1475980Y1644280D02*
X1511980D01*
X1512230Y1562030D02*
Y1644280D01*
X1492730Y1542530D02*
X1512230Y1562030D01*
X1475480Y1542280D02*
X1492480D01*
X1498230Y1536030D02*
X1519730D01*
X1508980Y1524780D02*
Y1547030D01*
X1192608Y1236334D02*
X1228608D01*
Y1318584D01*
X1209109Y1338084D02*
X1228608Y1318584D01*
X1192109Y1338084D02*
X1209109D01*
X1123108Y1236334D02*
X1159108D01*
X1122858D02*
Y1318584D01*
X1142358Y1338084D01*
X1142608Y1338334D02*
X1159609D01*
X1115358Y1344584D02*
X1136858D01*
X1126109Y1333584D02*
Y1355834D01*
D14*
X926467Y1427679D02*
Y1435299D01*
X942977D01*
Y1427679D02*
Y1435299D01*
X926467Y1427679D02*
X942977D01*
X1058419Y1435694D02*
X1074930D01*
X1058419Y1428074D02*
Y1435694D01*
Y1428074D02*
X1074930D01*
Y1435694D01*
X1058038Y1404706D02*
Y1412326D01*
X1074548D01*
Y1404706D02*
Y1412326D01*
X1058038Y1404706D02*
X1074548D01*
X1665605Y1761998D02*
X1682115D01*
X1665605Y1754378D02*
Y1761998D01*
Y1754378D02*
X1682115D01*
Y1761998D01*
X1686687Y1754124D02*
X1703197D01*
Y1761744D01*
X1686687D02*
X1703197D01*
X1686687Y1754124D02*
Y1761744D01*
X1637728Y1873459D02*
Y1889969D01*
Y1873459D02*
X1645348D01*
Y1889969D01*
X1637728D02*
X1645348D01*
X1688592Y1824228D02*
X1705102D01*
Y1831848D01*
X1688592D02*
X1705102D01*
X1688592Y1824228D02*
Y1831848D01*
X1668145Y1832102D02*
X1684655D01*
X1668145Y1824482D02*
Y1832102D01*
Y1824482D02*
X1684655D01*
Y1832102D01*
X1716024Y1794005D02*
Y1810515D01*
X1708404D02*
X1716024D01*
X1708404Y1794005D02*
Y1810515D01*
Y1794005D02*
X1716024D01*
X1739773Y1782569D02*
Y1790189D01*
X1723263Y1782569D02*
X1739773D01*
X1723263D02*
Y1790189D01*
X1739773D01*
X938680Y1186755D02*
X946300D01*
X938680D02*
Y1203265D01*
X946300D01*
Y1186755D02*
Y1203265D01*
X1701800Y1113155D02*
Y1129665D01*
X1694180D02*
X1701800D01*
X1694180Y1113155D02*
Y1129665D01*
Y1113155D02*
X1701800D01*
X654366Y1233101D02*
X687386D01*
X654366Y1200081D02*
X687386D01*
Y1233101D01*
X654366Y1200081D02*
Y1233101D01*
X897812Y1472375D02*
Y1505395D01*
X930833Y1472375D02*
Y1505395D01*
X897812Y1472375D02*
X930833D01*
X897812Y1505395D02*
X930833D01*
X630261Y1355753D02*
X646771D01*
Y1363374D01*
X630261D02*
X646771D01*
X630261Y1355753D02*
Y1363374D01*
X999787Y1215268D02*
X1016297D01*
Y1222888D01*
X999787D02*
X1016297D01*
X999787Y1215268D02*
Y1222888D01*
Y1182248D02*
X1016297D01*
X999787Y1174628D02*
Y1182248D01*
Y1174628D02*
X1016297D01*
Y1182248D01*
X911522Y1158753D02*
X919142D01*
X911522D02*
Y1175263D01*
X919142D01*
Y1158753D02*
Y1175263D01*
X919777Y975238D02*
Y982858D01*
X936287D01*
Y975238D02*
Y982858D01*
X919777Y975238D02*
X936287D01*
X915332Y987303D02*
Y1003813D01*
X907712D02*
X915332D01*
X907712Y987303D02*
Y1003813D01*
Y987303D02*
X915332D01*
X949622Y992383D02*
X957242D01*
X949622D02*
Y1008893D01*
X957242D01*
Y992383D02*
Y1008893D01*
X940097Y1073028D02*
X956607D01*
X940097Y1065408D02*
Y1073028D01*
Y1065408D02*
X956607D01*
Y1073028D01*
X948987Y1038738D02*
Y1046358D01*
X932477Y1038738D02*
X948987D01*
X932477D02*
Y1046358D01*
X948987D01*
X999152Y1099063D02*
X1006772D01*
X999152D02*
Y1115573D01*
X1006772D01*
Y1099063D02*
Y1115573D01*
X995977Y1095888D02*
Y1103508D01*
X979467Y1095888D02*
X995977D01*
X979467D02*
Y1103508D01*
X995977D01*
X948352Y1157483D02*
X955972D01*
X948352D02*
Y1173993D01*
X955972D01*
Y1157483D02*
Y1173993D01*
X1020107Y1133988D02*
Y1141608D01*
X1003597Y1133988D02*
X1020107D01*
X1003597D02*
Y1141608D01*
X1020107D01*
X889932Y1142243D02*
X897552D01*
X889932D02*
Y1158753D01*
X897552D01*
Y1142243D02*
Y1158753D01*
X405935Y1073790D02*
X422445D01*
Y1081410D01*
X405935D02*
X422445D01*
X405935Y1073790D02*
Y1081410D01*
X422445Y931550D02*
Y939170D01*
X405935Y931550D02*
X422445D01*
X405935D02*
Y939170D01*
X422445D01*
X405935Y913770D02*
Y921390D01*
X422445D01*
Y913770D02*
Y921390D01*
X405935Y913770D02*
X422445D01*
X422445Y1002670D02*
Y1010290D01*
X405935Y1002670D02*
X422445D01*
X405935D02*
Y1010290D01*
X422445D01*
X405935Y1020450D02*
X422445D01*
Y1028070D01*
X405935D02*
X422445D01*
X405935Y1020450D02*
Y1028070D01*
X405935Y1063630D02*
X422445D01*
X405935Y1056010D02*
Y1063630D01*
Y1056010D02*
X422445D01*
Y1063630D01*
Y1038230D02*
Y1045850D01*
X405935Y1038230D02*
X422445D01*
X405935D02*
Y1045850D01*
X422445D01*
X422445Y967110D02*
Y974730D01*
X405935Y967110D02*
X422445D01*
X405935D02*
Y974730D01*
X422445D01*
X405935Y984890D02*
Y992510D01*
X422445D01*
Y984890D02*
Y992510D01*
X405935Y984890D02*
X422445D01*
X320845Y1061090D02*
Y1068710D01*
X337355D01*
Y1061090D02*
Y1068710D01*
X320845Y1061090D02*
X337355D01*
X320845Y1048390D02*
X337355D01*
Y1056010D01*
X320845D02*
X337355D01*
X320845Y1048390D02*
Y1056010D01*
Y1010290D02*
X337355D01*
Y1017910D01*
X320845D02*
X337355D01*
X320845Y1010290D02*
Y1017910D01*
Y1022990D02*
X337355D01*
Y1030610D01*
X320845D02*
X337355D01*
X320845Y1022990D02*
Y1030610D01*
Y997590D02*
X337355D01*
Y1005210D01*
X320845D02*
X337355D01*
X320845Y997590D02*
Y1005210D01*
Y1035690D02*
Y1043310D01*
X337355D01*
Y1035690D02*
Y1043310D01*
X320845Y1035690D02*
X337355D01*
X320845Y1073790D02*
X337355D01*
Y1081410D01*
X320845D02*
X337355D01*
X320845Y1073790D02*
Y1081410D01*
Y984890D02*
Y992510D01*
X337355D01*
Y984890D02*
Y992510D01*
X320845Y984890D02*
X337355D01*
X1005502Y1045723D02*
Y1062233D01*
X997882D02*
X1005502D01*
X997882Y1045723D02*
Y1062233D01*
Y1045723D02*
X1005502D01*
X1004867Y1026038D02*
Y1033658D01*
X1021377D01*
Y1026038D02*
Y1033658D01*
X1004867Y1026038D02*
X1021377D01*
X1013757Y966348D02*
X1030267D01*
Y973968D01*
X1013757D02*
X1030267D01*
X1013757Y966348D02*
Y973968D01*
X997882Y1002543D02*
X1005502D01*
Y986033D02*
Y1002543D01*
X997882Y986033D02*
X1005502D01*
X997882D02*
Y1002543D01*
X999152Y1078743D02*
Y1095253D01*
Y1078743D02*
X1006772D01*
Y1095253D01*
X999152D02*
X1006772D01*
X463085Y1118240D02*
X479595D01*
Y1125860D01*
X463085D02*
X479595D01*
X463085Y1118240D02*
Y1125860D01*
X1077141Y969589D02*
X1084761D01*
X1077141D02*
Y986099D01*
X1084761D01*
Y969589D02*
Y986099D01*
X1094402Y1154943D02*
Y1171453D01*
X1086782D02*
X1094402D01*
X1086782Y1154943D02*
Y1171453D01*
Y1154943D02*
X1094402D01*
X1104054Y976127D02*
X1111674D01*
X1104054D02*
Y992637D01*
X1111674D01*
Y976127D02*
Y992637D01*
X1069637Y1112398D02*
X1086147D01*
X1069637Y1104778D02*
Y1112398D01*
Y1104778D02*
X1086147D01*
Y1112398D01*
X1093092Y1026713D02*
Y1043223D01*
X1085472D02*
X1093092D01*
X1085472Y1026713D02*
Y1043223D01*
Y1026713D02*
X1093092D01*
X1063515Y1006180D02*
Y1013800D01*
X1047005Y1006180D02*
X1063515D01*
X1047005D02*
Y1013800D01*
X1063515D01*
X1009947Y1095888D02*
Y1103508D01*
X1026457D01*
Y1095888D02*
Y1103508D01*
X1009947Y1095888D02*
X1026457D01*
X1058207Y1067948D02*
X1074717D01*
X1058207Y1060328D02*
Y1067948D01*
Y1060328D02*
X1074717D01*
Y1067948D01*
X557065Y968380D02*
X573575D01*
Y960760D02*
Y968380D01*
X557065Y960760D02*
X573575D01*
X557065D02*
Y968380D01*
X320845Y946790D02*
X337355D01*
Y954410D01*
X320845D02*
X337355D01*
X320845Y946790D02*
Y954410D01*
X320845Y934090D02*
X337355D01*
Y941710D01*
X320845D02*
X337355D01*
X320845Y934090D02*
Y941710D01*
Y921390D02*
X337355D01*
Y929010D01*
X320845D02*
X337355D01*
X320845Y921390D02*
Y929010D01*
Y959490D02*
Y967110D01*
X337355D01*
Y959490D02*
Y967110D01*
X320845Y959490D02*
X337355D01*
X320845Y972190D02*
X337355D01*
Y979810D01*
X320845D02*
X337355D01*
X320845Y972190D02*
Y979810D01*
X468440Y866145D02*
X501460D01*
X468440Y833125D02*
X501460D01*
Y866145D01*
X468440Y833125D02*
Y866145D01*
X809195Y1729195D02*
X825705D01*
X809195Y1721575D02*
Y1729195D01*
Y1721575D02*
X825705D01*
Y1729195D01*
X874820Y1746956D02*
Y1763466D01*
Y1746956D02*
X882440D01*
Y1763466D01*
X874820D02*
X882440D01*
X1462236Y1235349D02*
X1478746D01*
Y1242969D01*
X1462236D02*
X1478746D01*
X1462236Y1235349D02*
Y1242969D01*
X1031496Y1320251D02*
Y1336761D01*
X1023876D02*
X1031496D01*
X1023876Y1320251D02*
Y1336761D01*
Y1320251D02*
X1031496D01*
X1740027Y1792478D02*
Y1800098D01*
X1723517Y1792478D02*
X1740027D01*
X1723517D02*
Y1800098D01*
X1740027D01*
X1708404Y1791716D02*
X1716024D01*
Y1775206D02*
Y1791716D01*
X1708404Y1775206D02*
X1716024D01*
X1708404D02*
Y1791716D01*
X1689354Y1898358D02*
X1696974D01*
Y1914868D01*
X1689354D02*
X1696974D01*
X1689354Y1898358D02*
Y1914868D01*
X1691894Y1879473D02*
Y1895983D01*
X1684274Y1879473D02*
X1691894D01*
X1684274D02*
Y1895983D01*
X1691894D01*
X1702265Y1879559D02*
Y1896069D01*
X1694645Y1879559D02*
X1702265D01*
X1694645D02*
Y1896069D01*
X1702265D01*
X1675892Y1732661D02*
Y1749171D01*
Y1732661D02*
X1683512D01*
Y1749171D01*
X1675892D02*
X1683512D01*
X1875282Y1854835D02*
Y1871345D01*
Y1854835D02*
X1882902D01*
Y1871345D01*
X1875282D02*
X1882902D01*
X1886204Y1721485D02*
Y1737995D01*
X1878584D02*
X1886204D01*
X1878584Y1721485D02*
Y1737995D01*
Y1721485D02*
X1886204D01*
X1808226Y1596012D02*
Y1651892D01*
Y1596012D02*
X1828546D01*
Y1651892D01*
X1808226D02*
X1828546D01*
X1813560Y1477772D02*
Y1533652D01*
Y1477772D02*
X1833880D01*
Y1533652D01*
X1813560D02*
X1833880D01*
X1665354Y1578861D02*
X1681864D01*
X1665354Y1571241D02*
Y1578861D01*
Y1571241D02*
X1681864D01*
Y1578861D01*
X1646555Y1571242D02*
Y1578862D01*
X1663065D01*
Y1571242D02*
Y1578862D01*
X1646555Y1571242D02*
X1663065D01*
X1646301Y1561333D02*
Y1568953D01*
X1662811D01*
Y1561333D02*
Y1568953D01*
X1646301Y1561333D02*
X1662811D01*
X1665099Y1568953D02*
X1681609D01*
X1665099Y1561333D02*
Y1568953D01*
Y1561333D02*
X1681609D01*
Y1568953D01*
X1684152Y1566164D02*
Y1573784D01*
X1700662D01*
Y1566164D02*
Y1573784D01*
X1684152Y1566164D02*
X1700662D01*
X1638427Y1504188D02*
Y1511808D01*
X1621917Y1504188D02*
X1638427D01*
X1621917D02*
Y1511808D01*
X1638427D01*
X1633601Y1617726D02*
Y1625346D01*
X1617091Y1617726D02*
X1633601D01*
X1617091D02*
Y1625346D01*
X1633601D01*
X1641097Y1718014D02*
Y1734524D01*
Y1718014D02*
X1648717D01*
Y1734524D01*
X1641097D02*
X1648717D01*
X1635807Y1699061D02*
X1643427D01*
X1635807D02*
Y1715571D01*
X1643427D01*
Y1699061D02*
Y1715571D01*
X1631191Y1718014D02*
Y1734524D01*
Y1718014D02*
X1638811D01*
Y1734524D01*
X1631191D02*
X1638811D01*
X1650215Y1852801D02*
Y1869311D01*
X1642594D02*
X1650215D01*
X1642594Y1852801D02*
Y1869311D01*
Y1852801D02*
X1650215D01*
X1640308D02*
Y1869311D01*
X1632688D02*
X1640308D01*
X1632688Y1852801D02*
Y1869311D01*
Y1852801D02*
X1640308D01*
X1562652Y1770698D02*
Y1778318D01*
X1579162D01*
Y1770698D02*
Y1778318D01*
X1562652Y1770698D02*
X1579162D01*
X1582696Y1773573D02*
X1599206D01*
X1582696Y1765953D02*
Y1773573D01*
Y1765953D02*
X1599206D01*
Y1773573D01*
X1582756Y1783481D02*
X1599266D01*
X1582756Y1775861D02*
Y1783481D01*
Y1775861D02*
X1599266D01*
Y1783481D01*
X1562774Y1790750D02*
Y1798370D01*
X1579284D01*
Y1790750D02*
Y1798370D01*
X1562774Y1790750D02*
X1579284D01*
X1582756Y1793390D02*
X1599266D01*
X1582756Y1785770D02*
Y1793390D01*
Y1785770D02*
X1599266D01*
Y1793390D01*
X1582818Y1803298D02*
X1599328D01*
X1582818Y1795678D02*
Y1803298D01*
Y1795678D02*
X1599328D01*
Y1803298D01*
X1599389Y1805587D02*
Y1813207D01*
X1582879Y1805587D02*
X1599389D01*
X1582879D02*
Y1813207D01*
X1599389D01*
X1582818Y1823115D02*
X1599328D01*
X1582818Y1815495D02*
Y1823115D01*
Y1815495D02*
X1599328D01*
Y1823115D01*
X1562836Y1810473D02*
Y1818093D01*
X1579346D01*
Y1810473D02*
Y1818093D01*
X1562836Y1810473D02*
X1579346D01*
X1710690Y758825D02*
X1718310D01*
X1710690D02*
Y775335D01*
X1718310D01*
Y758825D02*
Y775335D01*
X1720850Y758825D02*
Y775335D01*
Y758825D02*
X1728470D01*
Y775335D01*
X1720850D02*
X1728470D01*
X1830070Y771525D02*
X1837690D01*
Y755015D02*
Y771525D01*
X1830070Y755015D02*
X1837690D01*
X1830070D02*
Y771525D01*
X1695450Y741045D02*
Y757555D01*
Y741045D02*
X1703070D01*
Y757555D01*
X1695450D02*
X1703070D01*
X1695450Y758825D02*
Y775335D01*
Y758825D02*
X1703070D01*
Y775335D01*
X1695450D02*
X1703070D01*
X1707670Y153990D02*
Y193990D01*
X1647670Y153990D02*
X1707670D01*
X1647670D02*
Y193990D01*
X1707670D01*
X1400810Y493395D02*
X1408430D01*
Y476885D02*
Y493395D01*
X1400810Y476885D02*
X1408430D01*
X1400810D02*
Y493395D01*
X1383665Y492760D02*
Y500380D01*
X1367155Y492760D02*
X1383665D01*
X1367155D02*
Y500380D01*
X1383665D01*
X1588770Y542925D02*
X1596390D01*
X1588770D02*
Y559435D01*
X1596390D01*
Y542925D02*
Y559435D01*
X1588770Y504825D02*
X1596390D01*
Y488315D02*
Y504825D01*
X1588770Y488315D02*
X1596390D01*
X1588770D02*
Y504825D01*
X1459230Y445135D02*
Y461645D01*
X1451610D02*
X1459230D01*
X1451610Y445135D02*
Y461645D01*
Y445135D02*
X1459230D01*
X1446530D02*
Y461645D01*
X1438910D02*
X1446530D01*
X1438910Y445135D02*
Y461645D01*
Y445135D02*
X1446530D01*
X1419225Y510540D02*
Y518160D01*
X1402715Y510540D02*
X1419225D01*
X1402715D02*
Y518160D01*
X1419225D01*
X1657985Y1092200D02*
Y1099820D01*
X1674495D01*
Y1092200D02*
Y1099820D01*
X1657985Y1092200D02*
X1674495D01*
X1694180Y1107440D02*
X1701800D01*
Y1090930D02*
Y1107440D01*
X1694180Y1090930D02*
X1701800D01*
X1694180D02*
Y1107440D01*
X1694180Y1071245D02*
X1701800D01*
Y1054735D02*
Y1071245D01*
X1694180Y1054735D02*
X1701800D01*
X1694180D02*
Y1071245D01*
X1657985Y1104900D02*
X1674495D01*
Y1112520D01*
X1657985D02*
X1674495D01*
X1657985Y1104900D02*
Y1112520D01*
X1438131Y368052D02*
X1471151D01*
X1438131Y335032D02*
X1471151D01*
Y368052D01*
X1438131Y335032D02*
Y368052D01*
X1610741Y688496D02*
X1643761D01*
X1610741Y655476D02*
X1643761D01*
Y688496D01*
X1610741Y655476D02*
Y688496D01*
X1746653Y1659512D02*
X1779673D01*
X1746653Y1626492D02*
X1779673D01*
Y1659512D01*
X1746653Y1626492D02*
Y1659512D01*
D16*
X1798066Y1639192D02*
X1805686D01*
X1801876Y1635382D02*
Y1643002D01*
X1803400Y1520952D02*
X1811020D01*
X1807210Y1517142D02*
Y1524762D01*
X497549Y877237D02*
X501950D01*
Y873936D01*
X499750D01*
X501950D01*
Y870635D01*
X495348Y877237D02*
X493148D01*
X494248D01*
Y870635D01*
X495348D01*
X493148D01*
X489847Y877237D02*
Y870635D01*
X486546D01*
X485446Y871736D01*
Y876137D01*
X486546Y877237D01*
X489847D01*
X479944Y870635D02*
Y877237D01*
X483245Y873936D01*
X478844D01*
X1467240Y379143D02*
X1471641D01*
Y375843D01*
X1469440D01*
X1471641D01*
Y372542D01*
X1465039Y379143D02*
X1462838D01*
X1463939D01*
Y372542D01*
X1465039D01*
X1462838D01*
X1459538Y379143D02*
Y372542D01*
X1456237D01*
X1455136Y373642D01*
Y378043D01*
X1456237Y379143D01*
X1459538D01*
X1452936Y372542D02*
X1450735D01*
X1451835D01*
Y379143D01*
X1452936Y378043D01*
X1639850Y699588D02*
X1644251D01*
Y696287D01*
X1642051D01*
X1644251D01*
Y692986D01*
X1637649Y699588D02*
X1635449D01*
X1636549D01*
Y692986D01*
X1637649D01*
X1635449D01*
X1632148Y699588D02*
Y692986D01*
X1628847D01*
X1627747Y694086D01*
Y698487D01*
X1628847Y699588D01*
X1632148D01*
X1625546Y698487D02*
X1624446Y699588D01*
X1622245D01*
X1621145Y698487D01*
Y697387D01*
X1622245Y696287D01*
X1623345D01*
X1622245D01*
X1621145Y695186D01*
Y694086D01*
X1622245Y692986D01*
X1624446D01*
X1625546Y694086D01*
X1775762Y1670604D02*
X1780163D01*
Y1667303D01*
X1777962D01*
X1780163D01*
Y1664002D01*
X1773561Y1670604D02*
X1771360D01*
X1772461D01*
Y1664002D01*
X1773561D01*
X1771360D01*
X1768060Y1670604D02*
Y1664002D01*
X1764759D01*
X1763658Y1665102D01*
Y1669504D01*
X1764759Y1670604D01*
X1768060D01*
X1757056D02*
X1761458D01*
Y1667303D01*
X1759257Y1668403D01*
X1758157D01*
X1757056Y1667303D01*
Y1665102D01*
X1758157Y1664002D01*
X1760357D01*
X1761458Y1665102D01*
D17*
X913766Y1409786D02*
X942468D01*
Y1425026D01*
X913766D02*
X942468D01*
X913766Y1409786D02*
Y1425026D01*
X1057785Y1389974D02*
X1086487D01*
X1057785Y1374734D02*
Y1389974D01*
Y1374734D02*
X1086487D01*
Y1389974D01*
X624292Y1366027D02*
Y1381267D01*
X652995D01*
Y1366027D02*
Y1381267D01*
X624292Y1366027D02*
X652995D01*
D22*
X1012590Y1125392D02*
X1014071Y1126873D01*
X1017033D01*
X1018514Y1125392D01*
Y1119467D01*
X1017033Y1117986D01*
X1014071D01*
X1012590Y1119467D01*
X1009627Y1117986D02*
X1006665D01*
X1008146D01*
Y1126873D01*
X1009627Y1125392D01*
X1002222D02*
X1000740Y1126873D01*
X997778D01*
X996297Y1125392D01*
Y1123911D01*
X997778Y1122430D01*
X999259D01*
X997778D01*
X996297Y1120949D01*
Y1119467D01*
X997778Y1117986D01*
X1000740D01*
X1002222Y1119467D01*
X987410Y1126873D02*
X993334D01*
Y1122430D01*
X990372Y1123911D01*
X988891D01*
X987410Y1122430D01*
Y1119467D01*
X988891Y1117986D01*
X991853D01*
X993334Y1119467D01*
X311237Y978963D02*
X312719Y980444D01*
X315681D01*
X317162Y978963D01*
Y973038D01*
X315681Y971557D01*
X312719D01*
X311237Y973038D01*
X308275D02*
X306794Y971557D01*
X303831D01*
X302350Y973038D01*
Y978963D01*
X303831Y980444D01*
X306794D01*
X308275Y978963D01*
Y977481D01*
X306794Y976000D01*
X302350D01*
X299388Y973038D02*
X297907Y971557D01*
X294944D01*
X293463Y973038D01*
Y978963D01*
X294944Y980444D01*
X297907D01*
X299388Y978963D01*
Y977481D01*
X297907Y976000D01*
X293463D01*
X965253Y1826944D02*
X966734Y1828425D01*
X969697D01*
X971178Y1826944D01*
Y1821019D01*
X969697Y1819538D01*
X966734D01*
X965253Y1821019D01*
X962291Y1828425D02*
X956366D01*
Y1826944D01*
X962291Y1821019D01*
Y1819538D01*
X947479D02*
X953404D01*
X947479Y1825463D01*
Y1826944D01*
X948960Y1828425D01*
X951923D01*
X953404Y1826944D01*
X632891Y367643D02*
X634372Y369124D01*
X637335D01*
X638816Y367643D01*
Y361718D01*
X637335Y360237D01*
X634372D01*
X632891Y361718D01*
X629929Y360237D02*
X626966D01*
X628447D01*
Y369124D01*
X629929Y367643D01*
X618079Y360237D02*
Y369124D01*
X622523Y364681D01*
X616598D01*
X613635Y360237D02*
X610673D01*
X612154D01*
Y369124D01*
X613635Y367643D01*
X633602Y483321D02*
X635083Y484803D01*
X638046D01*
X639527Y483321D01*
Y477397D01*
X638046Y475916D01*
X635083D01*
X633602Y477397D01*
X630640Y475916D02*
X627677D01*
X629159D01*
Y484803D01*
X630640Y483321D01*
X617309Y484803D02*
X623234D01*
Y480359D01*
X620271Y481840D01*
X618790D01*
X617309Y480359D01*
Y477397D01*
X618790Y475916D01*
X621753D01*
X623234Y477397D01*
X608422Y484803D02*
X614347D01*
Y480359D01*
X611384Y481840D01*
X609903D01*
X608422Y480359D01*
Y477397D01*
X609903Y475916D01*
X612865D01*
X614347Y477397D01*
X634243Y599407D02*
X635724Y600888D01*
X638686D01*
X640167Y599407D01*
Y593482D01*
X638686Y592001D01*
X635724D01*
X634243Y593482D01*
X631280Y592001D02*
X628318D01*
X629799D01*
Y600888D01*
X631280Y599407D01*
X619431Y592001D02*
Y600888D01*
X623874Y596445D01*
X617949D01*
X614987Y599407D02*
X613506Y600888D01*
X610544D01*
X609062Y599407D01*
Y593482D01*
X610544Y592001D01*
X613506D01*
X614987Y593482D01*
Y599407D01*
X1016631Y1912747D02*
X1018112Y1914228D01*
X1021075D01*
X1022556Y1912747D01*
Y1906822D01*
X1021075Y1905341D01*
X1018112D01*
X1016631Y1906822D01*
X1007744Y1914228D02*
X1010706Y1912747D01*
X1013669Y1909784D01*
Y1906822D01*
X1012187Y1905341D01*
X1009225D01*
X1007744Y1906822D01*
Y1908303D01*
X1009225Y1909784D01*
X1013669D01*
X1004781Y1906822D02*
X1003300Y1905341D01*
X1000338D01*
X998857Y1906822D01*
Y1912747D01*
X1000338Y1914228D01*
X1003300D01*
X1004781Y1912747D01*
Y1911266D01*
X1003300Y1909784D01*
X998857D01*
X1015940Y1886494D02*
X1017422Y1887975D01*
X1020384D01*
X1021865Y1886494D01*
Y1880569D01*
X1020384Y1879088D01*
X1017422D01*
X1015940Y1880569D01*
X1012978Y1887975D02*
X1007053D01*
Y1886494D01*
X1012978Y1880569D01*
Y1879088D01*
X1004091Y1886494D02*
X1002610Y1887975D01*
X999648D01*
X998166Y1886494D01*
Y1880569D01*
X999648Y1879088D01*
X1002610D01*
X1004091Y1880569D01*
Y1886494D01*
X1016631Y1859091D02*
X1018113Y1860572D01*
X1021075D01*
X1022556Y1859091D01*
Y1853166D01*
X1021075Y1851685D01*
X1018113D01*
X1016631Y1853166D01*
X1007744Y1860572D02*
X1010707Y1859091D01*
X1013669Y1856129D01*
Y1853166D01*
X1012188Y1851685D01*
X1009225D01*
X1007744Y1853166D01*
Y1854647D01*
X1009225Y1856129D01*
X1013669D01*
X1004782Y1859091D02*
X1003301Y1860572D01*
X1000338D01*
X998857Y1859091D01*
Y1857610D01*
X1000338Y1856129D01*
X998857Y1854647D01*
Y1853166D01*
X1000338Y1851685D01*
X1003301D01*
X1004782Y1853166D01*
Y1854647D01*
X1003301Y1856129D01*
X1004782Y1857610D01*
Y1859091D01*
X1003301Y1856129D02*
X1000338D01*
X1013078Y1832378D02*
X1014559Y1833860D01*
X1017521D01*
X1019002Y1832378D01*
Y1826454D01*
X1017521Y1824972D01*
X1014559D01*
X1013078Y1826454D01*
X1010115Y1833860D02*
X1004190D01*
Y1832378D01*
X1010115Y1826454D01*
Y1824972D01*
X1001228D02*
X998266D01*
X999747D01*
Y1833860D01*
X1001228Y1832378D01*
X941937Y1439828D02*
Y1448715D01*
X937494D01*
X936013Y1447234D01*
Y1444271D01*
X937494Y1442790D01*
X941937D01*
X938975D02*
X936013Y1439828D01*
X927125Y1448715D02*
X933050D01*
Y1444271D01*
X930088Y1445753D01*
X928607D01*
X927125Y1444271D01*
Y1441309D01*
X928607Y1439828D01*
X931569D01*
X933050Y1441309D01*
X924163D02*
X922682Y1439828D01*
X919719D01*
X918238Y1441309D01*
Y1447234D01*
X919719Y1448715D01*
X922682D01*
X924163Y1447234D01*
Y1445753D01*
X922682Y1444271D01*
X918238D01*
X936345Y1405295D02*
X937827Y1406777D01*
X940789D01*
X942270Y1405295D01*
Y1399371D01*
X940789Y1397889D01*
X937827D01*
X936345Y1399371D01*
X933383Y1397889D02*
X930421D01*
X931902D01*
Y1406777D01*
X933383Y1405295D01*
X925977Y1399371D02*
X924496Y1397889D01*
X921534D01*
X920052Y1399371D01*
Y1405295D01*
X921534Y1406777D01*
X924496D01*
X925977Y1405295D01*
Y1403814D01*
X924496Y1402333D01*
X920052D01*
X917090Y1397889D02*
X914128D01*
X915609D01*
Y1406777D01*
X917090Y1405295D01*
X1073024Y1446913D02*
X1074506Y1448395D01*
X1077468D01*
X1078949Y1446913D01*
Y1440989D01*
X1077468Y1439508D01*
X1074506D01*
X1073024Y1440989D01*
X1070062Y1439508D02*
X1067100D01*
X1068581D01*
Y1448395D01*
X1070062Y1446913D01*
X1062656Y1440989D02*
X1061175Y1439508D01*
X1058213D01*
X1056731Y1440989D01*
Y1446913D01*
X1058213Y1448395D01*
X1061175D01*
X1062656Y1446913D01*
Y1445432D01*
X1061175Y1443951D01*
X1056731D01*
X1053769Y1446913D02*
X1052288Y1448395D01*
X1049325D01*
X1047844Y1446913D01*
Y1440989D01*
X1049325Y1439508D01*
X1052288D01*
X1053769Y1440989D01*
Y1446913D01*
X1076739Y1416048D02*
Y1424935D01*
X1072295D01*
X1070814Y1423454D01*
Y1420491D01*
X1072295Y1419010D01*
X1076739D01*
X1073776D02*
X1070814Y1416048D01*
X1061927Y1424935D02*
X1064889Y1423454D01*
X1067852Y1420491D01*
Y1417529D01*
X1066371Y1416048D01*
X1063408D01*
X1061927Y1417529D01*
Y1419010D01*
X1063408Y1420491D01*
X1067852D01*
X1058965Y1423454D02*
X1057484Y1424935D01*
X1054521D01*
X1053040Y1423454D01*
Y1417529D01*
X1054521Y1416048D01*
X1057484D01*
X1058965Y1417529D01*
Y1423454D01*
X1080489Y1400421D02*
X1081970Y1401902D01*
X1084932D01*
X1086413Y1400421D01*
Y1394496D01*
X1084932Y1393015D01*
X1081970D01*
X1080489Y1394496D01*
X1077526Y1393015D02*
X1074564D01*
X1076045D01*
Y1401902D01*
X1077526Y1400421D01*
X1070120Y1394496D02*
X1068639Y1393015D01*
X1065677D01*
X1064196Y1394496D01*
Y1400421D01*
X1065677Y1401902D01*
X1068639D01*
X1070120Y1400421D01*
Y1398939D01*
X1068639Y1397458D01*
X1064196D01*
X1055309Y1393015D02*
X1061233D01*
X1055309Y1398939D01*
Y1400421D01*
X1056790Y1401902D01*
X1059752D01*
X1061233Y1400421D01*
X1670086Y1513510D02*
X1671567Y1514991D01*
X1674529D01*
X1676011Y1513510D01*
Y1507585D01*
X1674529Y1506104D01*
X1671567D01*
X1670086Y1507585D01*
X1661199Y1506104D02*
X1667124D01*
X1661199Y1512029D01*
Y1513510D01*
X1662680Y1514991D01*
X1665642D01*
X1667124Y1513510D01*
X1652312Y1514991D02*
X1655274Y1513510D01*
X1658236Y1510548D01*
Y1507585D01*
X1656755Y1506104D01*
X1653793D01*
X1652312Y1507585D01*
Y1509067D01*
X1653793Y1510548D01*
X1658236D01*
X1649349Y1513510D02*
X1647868Y1514991D01*
X1644906D01*
X1643424Y1513510D01*
Y1507585D01*
X1644906Y1506104D01*
X1647868D01*
X1649349Y1507585D01*
Y1513510D01*
X1878929Y1755790D02*
X1880411Y1757271D01*
X1883373D01*
X1884854Y1755790D01*
Y1749866D01*
X1883373Y1748384D01*
X1880411D01*
X1878929Y1749866D01*
X1870042Y1748384D02*
X1875967D01*
X1870042Y1754309D01*
Y1755790D01*
X1871524Y1757271D01*
X1874486D01*
X1875967Y1755790D01*
X1861155Y1748384D02*
X1867080D01*
X1861155Y1754309D01*
Y1755790D01*
X1862637Y1757271D01*
X1865599D01*
X1867080Y1755790D01*
X1858193D02*
X1856712Y1757271D01*
X1853749D01*
X1852268Y1755790D01*
Y1754309D01*
X1853749Y1752828D01*
X1852268Y1751347D01*
Y1749866D01*
X1853749Y1748384D01*
X1856712D01*
X1858193Y1749866D01*
Y1751347D01*
X1856712Y1752828D01*
X1858193Y1754309D01*
Y1755790D01*
X1856712Y1752828D02*
X1853749D01*
X1521372Y1892825D02*
X1522854Y1894306D01*
X1525816D01*
X1527297Y1892825D01*
Y1886900D01*
X1525816Y1885419D01*
X1522854D01*
X1521372Y1886900D01*
X1512485Y1885419D02*
X1518410D01*
X1512485Y1891344D01*
Y1892825D01*
X1513966Y1894306D01*
X1516929D01*
X1518410Y1892825D01*
X1509523D02*
X1508042Y1894306D01*
X1505079D01*
X1503598Y1892825D01*
Y1891344D01*
X1505079Y1889863D01*
X1503598Y1888382D01*
Y1886900D01*
X1505079Y1885419D01*
X1508042D01*
X1509523Y1886900D01*
Y1888382D01*
X1508042Y1889863D01*
X1509523Y1891344D01*
Y1892825D01*
X1508042Y1889863D02*
X1505079D01*
X1500636Y1894306D02*
X1494711D01*
Y1892825D01*
X1500636Y1886900D01*
Y1885419D01*
X1666726Y1750863D02*
X1668207Y1752345D01*
X1671169D01*
X1672650Y1750863D01*
Y1744939D01*
X1671169Y1743457D01*
X1668207D01*
X1666726Y1744939D01*
X1657838Y1743457D02*
X1663763D01*
X1657838Y1749382D01*
Y1750863D01*
X1659320Y1752345D01*
X1662282D01*
X1663763Y1750863D01*
X1654876D02*
X1653395Y1752345D01*
X1650433D01*
X1648951Y1750863D01*
Y1749382D01*
X1650433Y1747901D01*
X1648951Y1746420D01*
Y1744939D01*
X1650433Y1743457D01*
X1653395D01*
X1654876Y1744939D01*
Y1746420D01*
X1653395Y1747901D01*
X1654876Y1749382D01*
Y1750863D01*
X1653395Y1747901D02*
X1650433D01*
X1640064Y1743457D02*
X1645989D01*
X1640064Y1749382D01*
Y1750863D01*
X1641546Y1752345D01*
X1644508D01*
X1645989Y1750863D01*
X1712084Y1749339D02*
X1713565Y1750821D01*
X1716528D01*
X1718009Y1749339D01*
Y1743415D01*
X1716528Y1741933D01*
X1713565D01*
X1712084Y1743415D01*
X1703197Y1741933D02*
X1709122D01*
X1703197Y1747858D01*
Y1749339D01*
X1704678Y1750821D01*
X1707641D01*
X1709122Y1749339D01*
X1700235D02*
X1698753Y1750821D01*
X1695791D01*
X1694310Y1749339D01*
Y1747858D01*
X1695791Y1746377D01*
X1694310Y1744896D01*
Y1743415D01*
X1695791Y1741933D01*
X1698753D01*
X1700235Y1743415D01*
Y1744896D01*
X1698753Y1746377D01*
X1700235Y1747858D01*
Y1749339D01*
X1698753Y1746377D02*
X1695791D01*
X1691348Y1741933D02*
X1688385D01*
X1689866D01*
Y1750821D01*
X1691348Y1749339D01*
X1638251Y1904912D02*
X1639733Y1906393D01*
X1642695D01*
X1644176Y1904912D01*
Y1898987D01*
X1642695Y1897506D01*
X1639733D01*
X1638251Y1898987D01*
X1629364Y1897506D02*
X1635289D01*
X1629364Y1903431D01*
Y1904912D01*
X1630845Y1906393D01*
X1633808D01*
X1635289Y1904912D01*
X1626402D02*
X1624921Y1906393D01*
X1621958D01*
X1620477Y1904912D01*
Y1903431D01*
X1621958Y1901950D01*
X1623439D01*
X1621958D01*
X1620477Y1900468D01*
Y1898987D01*
X1621958Y1897506D01*
X1624921D01*
X1626402Y1898987D01*
X1617515Y1906393D02*
X1611590D01*
Y1904912D01*
X1617515Y1898987D01*
Y1897506D01*
X1739395Y1861316D02*
X1740876Y1862797D01*
X1743838D01*
X1745319Y1861316D01*
Y1855391D01*
X1743838Y1853910D01*
X1740876D01*
X1739395Y1855391D01*
X1730507Y1853910D02*
X1736432D01*
X1730507Y1859835D01*
Y1861316D01*
X1731989Y1862797D01*
X1734951D01*
X1736432Y1861316D01*
X1727545D02*
X1726064Y1862797D01*
X1723102D01*
X1721620Y1861316D01*
Y1859835D01*
X1723102Y1858353D01*
X1721620Y1856872D01*
Y1855391D01*
X1723102Y1853910D01*
X1726064D01*
X1727545Y1855391D01*
Y1856872D01*
X1726064Y1858353D01*
X1727545Y1859835D01*
Y1861316D01*
X1726064Y1858353D02*
X1723102D01*
X1712733Y1862797D02*
X1715696Y1861316D01*
X1718658Y1858353D01*
Y1855391D01*
X1717177Y1853910D01*
X1714214D01*
X1712733Y1855391D01*
Y1856872D01*
X1714214Y1858353D01*
X1718658D01*
X1705499Y1843005D02*
X1706980Y1844486D01*
X1709943D01*
X1711424Y1843005D01*
Y1837080D01*
X1709943Y1835599D01*
X1706980D01*
X1705499Y1837080D01*
X1696612Y1835599D02*
X1702537D01*
X1696612Y1841524D01*
Y1843005D01*
X1698093Y1844486D01*
X1701055D01*
X1702537Y1843005D01*
X1693649D02*
X1692168Y1844486D01*
X1689206D01*
X1687725Y1843005D01*
Y1841524D01*
X1689206Y1840043D01*
X1687725Y1838562D01*
Y1837080D01*
X1689206Y1835599D01*
X1692168D01*
X1693649Y1837080D01*
Y1838562D01*
X1692168Y1840043D01*
X1693649Y1841524D01*
Y1843005D01*
X1692168Y1840043D02*
X1689206D01*
X1684762Y1843005D02*
X1683281Y1844486D01*
X1680319D01*
X1678838Y1843005D01*
Y1841524D01*
X1680319Y1840043D01*
X1678838Y1838562D01*
Y1837080D01*
X1680319Y1835599D01*
X1683281D01*
X1684762Y1837080D01*
Y1838562D01*
X1683281Y1840043D01*
X1684762Y1841524D01*
Y1843005D01*
X1683281Y1840043D02*
X1680319D01*
X1668987Y1842570D02*
X1670468Y1844051D01*
X1673431D01*
X1674912Y1842570D01*
Y1836645D01*
X1673431Y1835164D01*
X1670468D01*
X1668987Y1836645D01*
X1660100Y1835164D02*
X1666025D01*
X1660100Y1841088D01*
Y1842570D01*
X1661581Y1844051D01*
X1664544D01*
X1666025Y1842570D01*
X1657138D02*
X1655657Y1844051D01*
X1652694D01*
X1651213Y1842570D01*
Y1841088D01*
X1652694Y1839607D01*
X1651213Y1838126D01*
Y1836645D01*
X1652694Y1835164D01*
X1655657D01*
X1657138Y1836645D01*
Y1838126D01*
X1655657Y1839607D01*
X1657138Y1841088D01*
Y1842570D01*
X1655657Y1839607D02*
X1652694D01*
X1642326Y1844051D02*
X1648251D01*
Y1839607D01*
X1645288Y1841088D01*
X1643807D01*
X1642326Y1839607D01*
Y1836645D01*
X1643807Y1835164D01*
X1646770D01*
X1648251Y1836645D01*
X1758686Y1840498D02*
X1760168Y1841979D01*
X1763130D01*
X1764611Y1840498D01*
Y1834573D01*
X1763130Y1833092D01*
X1760168D01*
X1758686Y1834573D01*
X1749799Y1833092D02*
X1755724D01*
X1749799Y1839017D01*
Y1840498D01*
X1751280Y1841979D01*
X1754243D01*
X1755724Y1840498D01*
X1740912Y1841979D02*
X1743875Y1840498D01*
X1746837Y1837535D01*
Y1834573D01*
X1745356Y1833092D01*
X1742393D01*
X1740912Y1834573D01*
Y1836054D01*
X1742393Y1837535D01*
X1746837D01*
X1737950Y1834573D02*
X1736469Y1833092D01*
X1733506D01*
X1732025Y1834573D01*
Y1840498D01*
X1733506Y1841979D01*
X1736469D01*
X1737950Y1840498D01*
Y1839017D01*
X1736469Y1837535D01*
X1732025D01*
X1723707Y1818776D02*
X1725188Y1817295D01*
Y1814332D01*
X1723707Y1812851D01*
X1717782D01*
X1716301Y1814332D01*
Y1817295D01*
X1717782Y1818776D01*
X1716301Y1827663D02*
Y1821738D01*
X1722225Y1827663D01*
X1723707D01*
X1725188Y1826182D01*
Y1823219D01*
X1723707Y1821738D01*
X1725188Y1836550D02*
X1723707Y1833588D01*
X1720744Y1830625D01*
X1717782D01*
X1716301Y1832106D01*
Y1835069D01*
X1717782Y1836550D01*
X1719263D01*
X1720744Y1835069D01*
Y1830625D01*
X1723707Y1839512D02*
X1725188Y1840994D01*
Y1843956D01*
X1723707Y1845437D01*
X1722225D01*
X1720744Y1843956D01*
Y1842475D01*
Y1843956D01*
X1719263Y1845437D01*
X1717782D01*
X1716301Y1843956D01*
Y1840994D01*
X1717782Y1839512D01*
X1745500Y1776628D02*
X1746982Y1778109D01*
X1749944D01*
X1751425Y1776628D01*
Y1770703D01*
X1749944Y1769222D01*
X1746982D01*
X1745500Y1770703D01*
X1736613Y1769222D02*
X1742538D01*
X1736613Y1775147D01*
Y1776628D01*
X1738094Y1778109D01*
X1741057D01*
X1742538Y1776628D01*
X1727726Y1778109D02*
X1730688Y1776628D01*
X1733651Y1773666D01*
Y1770703D01*
X1732170Y1769222D01*
X1729207D01*
X1727726Y1770703D01*
Y1772184D01*
X1729207Y1773666D01*
X1733651D01*
X1720320Y1769222D02*
Y1778109D01*
X1724764Y1773666D01*
X1718839D01*
X1773741Y1781176D02*
Y1790064D01*
X1769297D01*
X1767816Y1788582D01*
Y1785620D01*
X1769297Y1784139D01*
X1773741D01*
X1770778D02*
X1767816Y1781176D01*
X1764853D02*
X1761891D01*
X1763372D01*
Y1790064D01*
X1764853Y1788582D01*
X1757447D02*
X1755966Y1790064D01*
X1753004D01*
X1751523Y1788582D01*
Y1782658D01*
X1753004Y1781176D01*
X1755966D01*
X1757447Y1782658D01*
Y1788582D01*
X1748560Y1790064D02*
X1742635D01*
Y1788582D01*
X1748560Y1782658D01*
Y1781176D01*
X934071Y1187206D02*
X935552Y1185725D01*
Y1182763D01*
X934071Y1181282D01*
X928146D01*
X926665Y1182763D01*
Y1185725D01*
X928146Y1187206D01*
X926665Y1190169D02*
Y1193131D01*
Y1191650D01*
X935552D01*
X934071Y1190169D01*
X935552Y1203499D02*
Y1197575D01*
X931109D01*
X932590Y1200537D01*
Y1202018D01*
X931109Y1203499D01*
X928146D01*
X926665Y1202018D01*
Y1199056D01*
X928146Y1197575D01*
X934071Y1206462D02*
X935552Y1207943D01*
Y1210905D01*
X934071Y1212386D01*
X932590D01*
X931109Y1210905D01*
Y1209424D01*
Y1210905D01*
X929627Y1212386D01*
X928146D01*
X926665Y1210905D01*
Y1207943D01*
X928146Y1206462D01*
X681565Y1246902D02*
X687490D01*
Y1242459D01*
X684528D01*
X687490D01*
Y1238015D01*
X678603Y1246902D02*
X675640D01*
X677122D01*
Y1238015D01*
X678603D01*
X675640D01*
X671197Y1246902D02*
Y1238015D01*
X666753D01*
X665272Y1239497D01*
Y1245421D01*
X666753Y1246902D01*
X671197D01*
X656385D02*
X659348Y1245421D01*
X662310Y1242459D01*
Y1239497D01*
X660829Y1238015D01*
X657866D01*
X656385Y1239497D01*
Y1240978D01*
X657866Y1242459D01*
X662310D01*
X924036Y1518711D02*
X929961D01*
Y1514268D01*
X926998D01*
X929961D01*
Y1509824D01*
X921074Y1518711D02*
X918111D01*
X919593D01*
Y1509824D01*
X921074D01*
X918111D01*
X913668Y1518711D02*
Y1509824D01*
X909224D01*
X907743Y1511305D01*
Y1517230D01*
X909224Y1518711D01*
X913668D01*
X898856Y1509824D02*
X904781D01*
X898856Y1515749D01*
Y1517230D01*
X900337Y1518711D01*
X903299D01*
X904781Y1517230D01*
X3492807Y-41226D02*
X3494289Y-39745D01*
X3497251D01*
X3498732Y-41226D01*
Y-47151D01*
X3497251Y-48632D01*
X3494289D01*
X3492807Y-47151D01*
X3489845Y-39745D02*
X3483920Y-48632D01*
Y-39745D02*
X3489845Y-48632D01*
X3480958Y-41226D02*
X3479477Y-39745D01*
X3476514D01*
X3475033Y-41226D01*
Y-42707D01*
X3476514Y-44188D01*
X3477995D01*
X3476514D01*
X3475033Y-45670D01*
Y-47151D01*
X3476514Y-48632D01*
X3479477D01*
X3480958Y-47151D01*
X3645207Y-41226D02*
X3646689Y-39745D01*
X3649651D01*
X3651132Y-41226D01*
Y-47151D01*
X3649651Y-48632D01*
X3646689D01*
X3645207Y-47151D01*
X3642245Y-39745D02*
X3636320Y-48632D01*
Y-39745D02*
X3642245Y-48632D01*
X3627433D02*
X3633358D01*
X3627433Y-42707D01*
Y-41226D01*
X3628914Y-39745D01*
X3631877D01*
X3633358Y-41226D01*
X1891166Y1887607D02*
Y1878720D01*
X1885241D01*
X1882279Y1880201D02*
X1880798Y1878720D01*
X1877835D01*
X1876354Y1880201D01*
Y1886126D01*
X1877835Y1887607D01*
X1880798D01*
X1882279Y1886126D01*
Y1884645D01*
X1880798Y1883164D01*
X1876354D01*
X1874814Y1734184D02*
Y1725296D01*
X1868889D01*
X1865927Y1732702D02*
X1864446Y1734184D01*
X1861483D01*
X1860002Y1732702D01*
Y1731221D01*
X1861483Y1729740D01*
X1860002Y1728259D01*
Y1726778D01*
X1861483Y1725296D01*
X1864446D01*
X1865927Y1726778D01*
Y1728259D01*
X1864446Y1729740D01*
X1865927Y1731221D01*
Y1732702D01*
X1864446Y1729740D02*
X1861483D01*
X1827329Y1548560D02*
X1828810Y1550041D01*
X1831773D01*
X1833254Y1548560D01*
Y1542635D01*
X1831773Y1541154D01*
X1828810D01*
X1827329Y1542635D01*
X1818442Y1541154D02*
X1824367D01*
X1818442Y1547079D01*
Y1548560D01*
X1819923Y1550041D01*
X1822886D01*
X1824367Y1548560D01*
X1811036Y1541154D02*
Y1550041D01*
X1815480Y1545598D01*
X1809555D01*
X1806593Y1550041D02*
X1800668D01*
Y1548560D01*
X1806593Y1542635D01*
Y1541154D01*
X1821995Y1666670D02*
X1823477Y1668151D01*
X1826439D01*
X1827920Y1666670D01*
Y1660745D01*
X1826439Y1659264D01*
X1823477D01*
X1821995Y1660745D01*
X1813108Y1659264D02*
X1819033D01*
X1813108Y1665189D01*
Y1666670D01*
X1814589Y1668151D01*
X1817552D01*
X1819033Y1666670D01*
X1805702Y1659264D02*
Y1668151D01*
X1810146Y1663708D01*
X1804221D01*
X1795334Y1659264D02*
X1801259D01*
X1795334Y1665189D01*
Y1666670D01*
X1796815Y1668151D01*
X1799778D01*
X1801259Y1666670D01*
X311237Y953563D02*
X312719Y955044D01*
X315681D01*
X317162Y953563D01*
Y947638D01*
X315681Y946157D01*
X312719D01*
X311237Y947638D01*
X308275Y946157D02*
X305313D01*
X306794D01*
Y955044D01*
X308275Y953563D01*
X300869D02*
X299388Y955044D01*
X296425D01*
X294944Y953563D01*
Y947638D01*
X296425Y946157D01*
X299388D01*
X300869Y947638D01*
Y953563D01*
X286057Y946157D02*
X291982D01*
X286057Y952081D01*
Y953563D01*
X287538Y955044D01*
X290501D01*
X291982Y953563D01*
X402252Y913137D02*
Y922024D01*
X397808D01*
X396327Y920543D01*
Y917580D01*
X397808Y916099D01*
X402252D01*
X399290D02*
X396327Y913137D01*
X393365Y920543D02*
X391884Y922024D01*
X388921D01*
X387440Y920543D01*
Y919061D01*
X388921Y917580D01*
X390403D01*
X388921D01*
X387440Y916099D01*
Y914618D01*
X388921Y913137D01*
X391884D01*
X393365Y914618D01*
X380034Y913137D02*
Y922024D01*
X384478Y917580D01*
X378553D01*
X402252Y930917D02*
Y939804D01*
X397808D01*
X396327Y938323D01*
Y935360D01*
X397808Y933879D01*
X402252D01*
X399290D02*
X396327Y930917D01*
X387440D02*
X393365D01*
X387440Y936841D01*
Y938323D01*
X388921Y939804D01*
X391884D01*
X393365Y938323D01*
X378553Y939804D02*
X384478D01*
Y935360D01*
X381515Y936841D01*
X380034D01*
X378553Y935360D01*
Y932398D01*
X380034Y930917D01*
X382997D01*
X384478Y932398D01*
X402252Y966477D02*
Y975364D01*
X397808D01*
X396327Y973883D01*
Y970920D01*
X397808Y969439D01*
X402252D01*
X399290D02*
X396327Y966477D01*
X393365Y973883D02*
X391884Y975364D01*
X388921D01*
X387440Y973883D01*
Y972401D01*
X388921Y970920D01*
X390403D01*
X388921D01*
X387440Y969439D01*
Y967958D01*
X388921Y966477D01*
X391884D01*
X393365Y967958D01*
X384478Y973883D02*
X382997Y975364D01*
X380034D01*
X378553Y973883D01*
Y967958D01*
X380034Y966477D01*
X382997D01*
X384478Y967958D01*
Y973883D01*
X402252Y984257D02*
Y993144D01*
X397808D01*
X396327Y991663D01*
Y988700D01*
X397808Y987219D01*
X402252D01*
X399290D02*
X396327Y984257D01*
X393365Y991663D02*
X391884Y993144D01*
X388921D01*
X387440Y991663D01*
Y990181D01*
X388921Y988700D01*
X390403D01*
X388921D01*
X387440Y987219D01*
Y985738D01*
X388921Y984257D01*
X391884D01*
X393365Y985738D01*
X384478Y993144D02*
X378553D01*
Y991663D01*
X384478Y985738D01*
Y984257D01*
X402252Y1002037D02*
Y1010924D01*
X397808D01*
X396327Y1009443D01*
Y1006480D01*
X397808Y1004999D01*
X402252D01*
X399290D02*
X396327Y1002037D01*
X387440D02*
X393365D01*
X387440Y1007961D01*
Y1009443D01*
X388921Y1010924D01*
X391884D01*
X393365Y1009443D01*
X380034Y1002037D02*
Y1010924D01*
X384478Y1006480D01*
X378553D01*
X402252Y1019817D02*
Y1028704D01*
X397808D01*
X396327Y1027223D01*
Y1024260D01*
X397808Y1022779D01*
X402252D01*
X399290D02*
X396327Y1019817D01*
X393365Y1027223D02*
X391884Y1028704D01*
X388921D01*
X387440Y1027223D01*
Y1025741D01*
X388921Y1024260D01*
X390403D01*
X388921D01*
X387440Y1022779D01*
Y1021298D01*
X388921Y1019817D01*
X391884D01*
X393365Y1021298D01*
X384478Y1027223D02*
X382997Y1028704D01*
X380034D01*
X378553Y1027223D01*
Y1025741D01*
X380034Y1024260D01*
X378553Y1022779D01*
Y1021298D01*
X380034Y1019817D01*
X382997D01*
X384478Y1021298D01*
Y1022779D01*
X382997Y1024260D01*
X384478Y1025741D01*
Y1027223D01*
X382997Y1024260D02*
X380034D01*
X402252Y1037597D02*
Y1046484D01*
X397808D01*
X396327Y1045003D01*
Y1042040D01*
X397808Y1040559D01*
X402252D01*
X399290D02*
X396327Y1037597D01*
X387440D02*
X393365D01*
X387440Y1043521D01*
Y1045003D01*
X388921Y1046484D01*
X391884D01*
X393365Y1045003D01*
X378553Y1046484D02*
X381515Y1045003D01*
X384478Y1042040D01*
Y1039078D01*
X382997Y1037597D01*
X380034D01*
X378553Y1039078D01*
Y1040559D01*
X380034Y1042040D01*
X384478D01*
X402252Y1055377D02*
Y1064264D01*
X397808D01*
X396327Y1062783D01*
Y1059820D01*
X397808Y1058339D01*
X402252D01*
X399290D02*
X396327Y1055377D01*
X393365D02*
X390403D01*
X391884D01*
Y1064264D01*
X393365Y1062783D01*
X385959Y1056858D02*
X384478Y1055377D01*
X381516D01*
X380034Y1056858D01*
Y1062783D01*
X381516Y1064264D01*
X384478D01*
X385959Y1062783D01*
Y1061301D01*
X384478Y1059820D01*
X380034D01*
X402252Y1073157D02*
Y1082044D01*
X397808D01*
X396327Y1080563D01*
Y1077600D01*
X397808Y1076119D01*
X402252D01*
X399290D02*
X396327Y1073157D01*
X393365Y1080563D02*
X391884Y1082044D01*
X388921D01*
X387440Y1080563D01*
Y1079081D01*
X388921Y1077600D01*
X390403D01*
X388921D01*
X387440Y1076119D01*
Y1074638D01*
X388921Y1073157D01*
X391884D01*
X393365Y1074638D01*
X378553Y1082044D02*
X381515Y1080563D01*
X384478Y1077600D01*
Y1074638D01*
X382997Y1073157D01*
X380034D01*
X378553Y1074638D01*
Y1076119D01*
X380034Y1077600D01*
X384478D01*
X311237Y966263D02*
X312719Y967744D01*
X315681D01*
X317162Y966263D01*
Y960338D01*
X315681Y958857D01*
X312719D01*
X311237Y960338D01*
X308275Y958857D02*
X305313D01*
X306794D01*
Y967744D01*
X308275Y966263D01*
X300869Y958857D02*
X297907D01*
X299388D01*
Y967744D01*
X300869Y966263D01*
X293463D02*
X291982Y967744D01*
X289020D01*
X287538Y966263D01*
Y964781D01*
X289020Y963300D01*
X290501D01*
X289020D01*
X287538Y961819D01*
Y960338D01*
X289020Y958857D01*
X291982D01*
X293463Y960338D01*
X311237Y991663D02*
X312719Y993144D01*
X315681D01*
X317162Y991663D01*
Y985738D01*
X315681Y984257D01*
X312719D01*
X311237Y985738D01*
X308275Y984257D02*
X305313D01*
X306794D01*
Y993144D01*
X308275Y991663D01*
X300869Y984257D02*
X297907D01*
X299388D01*
Y993144D01*
X300869Y991663D01*
X287538Y984257D02*
X293463D01*
X287538Y990181D01*
Y991663D01*
X289020Y993144D01*
X291982D01*
X293463Y991663D01*
X311237Y1067863D02*
X312719Y1069344D01*
X315681D01*
X317162Y1067863D01*
Y1061938D01*
X315681Y1060457D01*
X312719D01*
X311237Y1061938D01*
X308275Y1060457D02*
X305313D01*
X306794D01*
Y1069344D01*
X308275Y1067863D01*
X300869Y1060457D02*
X297907D01*
X299388D01*
Y1069344D01*
X300869Y1067863D01*
X293463Y1060457D02*
X290501D01*
X291982D01*
Y1069344D01*
X293463Y1067863D01*
X1729009Y811152D02*
X1720122D01*
Y806709D01*
X1721603Y805227D01*
X1724566D01*
X1726047Y806709D01*
Y811152D01*
Y808190D02*
X1729009Y805227D01*
Y802265D02*
Y799303D01*
Y800784D01*
X1720122D01*
X1721603Y802265D01*
X1720122Y788934D02*
Y794859D01*
X1724566D01*
X1723085Y791897D01*
Y790416D01*
X1724566Y788934D01*
X1727528D01*
X1729009Y790416D01*
Y793378D01*
X1727528Y794859D01*
Y785972D02*
X1729009Y784491D01*
Y781528D01*
X1727528Y780047D01*
X1721603D01*
X1720122Y781528D01*
Y784491D01*
X1721603Y785972D01*
X1723085D01*
X1724566Y784491D01*
Y780047D01*
X1692402Y762636D02*
Y771524D01*
X1687958D01*
X1686477Y770042D01*
Y767080D01*
X1687958Y765599D01*
X1692402D01*
X1689440D02*
X1686477Y762636D01*
X1683515D02*
X1680553D01*
X1682034D01*
Y771524D01*
X1683515Y770042D01*
X1670184Y771524D02*
X1676109D01*
Y767080D01*
X1673147Y768561D01*
X1671665D01*
X1670184Y767080D01*
Y764118D01*
X1671665Y762636D01*
X1674628D01*
X1676109Y764118D01*
X1661297Y771524D02*
X1667222D01*
Y767080D01*
X1664259Y768561D01*
X1662778D01*
X1661297Y767080D01*
Y764118D01*
X1662778Y762636D01*
X1665741D01*
X1667222Y764118D01*
X1692402Y744856D02*
Y753744D01*
X1687958D01*
X1686477Y752262D01*
Y749300D01*
X1687958Y747819D01*
X1692402D01*
X1689440D02*
X1686477Y744856D01*
X1683515D02*
X1680553D01*
X1682034D01*
Y753744D01*
X1683515Y752262D01*
X1670184Y753744D02*
X1676109D01*
Y749300D01*
X1673147Y750781D01*
X1671665D01*
X1670184Y749300D01*
Y746338D01*
X1671665Y744856D01*
X1674628D01*
X1676109Y746338D01*
X1662778Y744856D02*
Y753744D01*
X1667222Y749300D01*
X1661297D01*
X1675002Y1558602D02*
X1666114D01*
Y1554159D01*
X1667596Y1552678D01*
X1670558D01*
X1672039Y1554159D01*
Y1558602D01*
Y1555640D02*
X1675002Y1552678D01*
Y1549715D02*
Y1546753D01*
Y1548234D01*
X1666114D01*
X1667596Y1549715D01*
X1666114Y1536385D02*
Y1542309D01*
X1670558D01*
X1669077Y1539347D01*
Y1537866D01*
X1670558Y1536385D01*
X1673520D01*
X1675002Y1537866D01*
Y1540828D01*
X1673520Y1542309D01*
X1667596Y1533422D02*
X1666114Y1531941D01*
Y1528979D01*
X1667596Y1527498D01*
X1669077D01*
X1670558Y1528979D01*
Y1530460D01*
Y1528979D01*
X1672039Y1527498D01*
X1673520D01*
X1675002Y1528979D01*
Y1531941D01*
X1673520Y1533422D01*
X1674240Y1612959D02*
X1665352D01*
Y1608515D01*
X1666834Y1607034D01*
X1669796D01*
X1671277Y1608515D01*
Y1612959D01*
Y1609996D02*
X1674240Y1607034D01*
Y1604071D02*
Y1601109D01*
Y1602590D01*
X1665352D01*
X1666834Y1604071D01*
X1665352Y1590741D02*
Y1596665D01*
X1669796D01*
X1668315Y1593703D01*
Y1592222D01*
X1669796Y1590741D01*
X1672758D01*
X1674240Y1592222D01*
Y1595184D01*
X1672758Y1596665D01*
X1674240Y1581853D02*
Y1587778D01*
X1668315Y1581853D01*
X1666834D01*
X1665352Y1583335D01*
Y1586297D01*
X1666834Y1587778D01*
X1632793Y1785083D02*
Y1793970D01*
X1628350D01*
X1626868Y1792489D01*
Y1789526D01*
X1628350Y1788045D01*
X1632793D01*
X1629831D02*
X1626868Y1785083D01*
X1623906D02*
X1620944D01*
X1622425D01*
Y1793970D01*
X1623906Y1792489D01*
X1616500D02*
X1615019Y1793970D01*
X1612056D01*
X1610575Y1792489D01*
Y1791007D01*
X1612056Y1789526D01*
X1613538D01*
X1612056D01*
X1610575Y1788045D01*
Y1786564D01*
X1612056Y1785083D01*
X1615019D01*
X1616500Y1786564D01*
X1601688Y1793970D02*
X1604651Y1792489D01*
X1607613Y1789526D01*
Y1786564D01*
X1606132Y1785083D01*
X1603169D01*
X1601688Y1786564D01*
Y1788045D01*
X1603169Y1789526D01*
X1607613D01*
X1633099Y1808757D02*
Y1817644D01*
X1628656D01*
X1627174Y1816163D01*
Y1813200D01*
X1628656Y1811719D01*
X1633099D01*
X1630137D02*
X1627174Y1808757D01*
X1624212D02*
X1621250D01*
X1622731D01*
Y1817644D01*
X1624212Y1816163D01*
X1616806D02*
X1615325Y1817644D01*
X1612363D01*
X1610881Y1816163D01*
Y1814681D01*
X1612363Y1813200D01*
X1613844D01*
X1612363D01*
X1610881Y1811719D01*
Y1810238D01*
X1612363Y1808757D01*
X1615325D01*
X1616806Y1810238D01*
X1601994Y1817644D02*
X1607919D01*
Y1813200D01*
X1604957Y1814681D01*
X1603475D01*
X1601994Y1813200D01*
Y1810238D01*
X1603475Y1808757D01*
X1606438D01*
X1607919Y1810238D01*
X1632997Y1797021D02*
Y1805909D01*
X1628554D01*
X1627072Y1804427D01*
Y1801465D01*
X1628554Y1799984D01*
X1632997D01*
X1630035D02*
X1627072Y1797021D01*
X1624110D02*
X1621148D01*
X1622629D01*
Y1805909D01*
X1624110Y1804427D01*
X1616704D02*
X1615223Y1805909D01*
X1612260D01*
X1610779Y1804427D01*
Y1802946D01*
X1612260Y1801465D01*
X1613742D01*
X1612260D01*
X1610779Y1799984D01*
Y1798503D01*
X1612260Y1797021D01*
X1615223D01*
X1616704Y1798503D01*
X1603373Y1797021D02*
Y1805909D01*
X1607817Y1801465D01*
X1601892D01*
X1632691Y1821308D02*
Y1830195D01*
X1628248D01*
X1626766Y1828714D01*
Y1825752D01*
X1628248Y1824271D01*
X1632691D01*
X1629729D02*
X1626766Y1821308D01*
X1623804D02*
X1620842D01*
X1622323D01*
Y1830195D01*
X1623804Y1828714D01*
X1616398D02*
X1614917Y1830195D01*
X1611954D01*
X1610473Y1828714D01*
Y1827233D01*
X1611954Y1825752D01*
X1613436D01*
X1611954D01*
X1610473Y1824271D01*
Y1822789D01*
X1611954Y1821308D01*
X1614917D01*
X1616398Y1822789D01*
X1607511Y1828714D02*
X1606030Y1830195D01*
X1603067D01*
X1601586Y1828714D01*
Y1827233D01*
X1603067Y1825752D01*
X1604548D01*
X1603067D01*
X1601586Y1824271D01*
Y1822789D01*
X1603067Y1821308D01*
X1606030D01*
X1607511Y1822789D01*
X1663062Y1878513D02*
X1654175D01*
Y1874070D01*
X1655657Y1872589D01*
X1658619D01*
X1660100Y1874070D01*
Y1878513D01*
Y1875551D02*
X1663062Y1872589D01*
Y1869626D02*
Y1866664D01*
Y1868145D01*
X1654175D01*
X1655657Y1869626D01*
X1663062Y1856296D02*
Y1862220D01*
X1657138Y1856296D01*
X1655657D01*
X1654175Y1857777D01*
Y1860739D01*
X1655657Y1862220D01*
Y1853333D02*
X1654175Y1851852D01*
Y1848890D01*
X1655657Y1847409D01*
X1657138D01*
X1658619Y1848890D01*
X1660100Y1847409D01*
X1661581D01*
X1663062Y1848890D01*
Y1851852D01*
X1661581Y1853333D01*
X1660100D01*
X1658619Y1851852D01*
X1657138Y1853333D01*
X1655657D01*
X1658619Y1851852D02*
Y1848890D01*
X1632750Y1773134D02*
Y1782021D01*
X1628306D01*
X1626825Y1780540D01*
Y1777578D01*
X1628306Y1776096D01*
X1632750D01*
X1629787D02*
X1626825Y1773134D01*
X1623862D02*
X1620900D01*
X1622381D01*
Y1782021D01*
X1623862Y1780540D01*
X1610532Y1773134D02*
X1616456D01*
X1610532Y1779059D01*
Y1780540D01*
X1612013Y1782021D01*
X1614975D01*
X1616456Y1780540D01*
X1607569Y1782021D02*
X1601645D01*
Y1780540D01*
X1607569Y1774615D01*
Y1773134D01*
X1628948Y1876522D02*
X1620061D01*
Y1872078D01*
X1621542Y1870597D01*
X1624505D01*
X1625986Y1872078D01*
Y1876522D01*
Y1873559D02*
X1628948Y1870597D01*
Y1867635D02*
Y1864672D01*
Y1866154D01*
X1620061D01*
X1621542Y1867635D01*
X1628948Y1854304D02*
Y1860229D01*
X1623024Y1854304D01*
X1621542D01*
X1620061Y1855785D01*
Y1858748D01*
X1621542Y1860229D01*
X1620061Y1845417D02*
X1621542Y1848379D01*
X1624505Y1851342D01*
X1627467D01*
X1628948Y1849861D01*
Y1846898D01*
X1627467Y1845417D01*
X1625986D01*
X1624505Y1846898D01*
Y1851342D01*
X1632938Y1761509D02*
Y1770396D01*
X1628494D01*
X1627013Y1768915D01*
Y1765953D01*
X1628494Y1764471D01*
X1632938D01*
X1629975D02*
X1627013Y1761509D01*
X1624050D02*
X1621088D01*
X1622569D01*
Y1770396D01*
X1624050Y1768915D01*
X1610720Y1761509D02*
X1616645D01*
X1610720Y1767434D01*
Y1768915D01*
X1612201Y1770396D01*
X1615163D01*
X1616645Y1768915D01*
X1601833Y1770396D02*
X1607758D01*
Y1765953D01*
X1604795Y1767434D01*
X1603314D01*
X1601833Y1765953D01*
Y1762990D01*
X1603314Y1761509D01*
X1606276D01*
X1607758Y1762990D01*
X1628999Y1738729D02*
X1620112D01*
Y1734286D01*
X1621594Y1732805D01*
X1624556D01*
X1626037Y1734286D01*
Y1738729D01*
Y1735767D02*
X1628999Y1732805D01*
Y1729842D02*
Y1726880D01*
Y1728361D01*
X1620112D01*
X1621594Y1729842D01*
X1628999Y1722436D02*
Y1719474D01*
Y1720955D01*
X1620112D01*
X1621594Y1722436D01*
X1627518Y1715030D02*
X1628999Y1713549D01*
Y1710587D01*
X1627518Y1709106D01*
X1621594D01*
X1620112Y1710587D01*
Y1713549D01*
X1621594Y1715030D01*
X1623075D01*
X1624556Y1713549D01*
Y1709106D01*
X1660801Y1739964D02*
X1651914D01*
Y1735521D01*
X1653395Y1734039D01*
X1656357D01*
X1657838Y1735521D01*
Y1739964D01*
Y1737002D02*
X1660801Y1734039D01*
Y1731077D02*
Y1728115D01*
Y1729596D01*
X1651914D01*
X1653395Y1731077D01*
X1660801Y1723671D02*
Y1720709D01*
Y1722190D01*
X1651914D01*
X1653395Y1723671D01*
X1651914Y1716265D02*
Y1710340D01*
X1653395D01*
X1659320Y1716265D01*
X1660801D01*
X1680936Y1880554D02*
X1672049D01*
Y1884998D01*
X1673531Y1886479D01*
X1676493D01*
X1677974Y1884998D01*
Y1880554D01*
Y1883517D02*
X1680936Y1886479D01*
Y1889441D02*
Y1892404D01*
Y1890923D01*
X1672049D01*
X1673531Y1889441D01*
X1680936Y1896847D02*
Y1899810D01*
Y1898329D01*
X1672049D01*
X1673531Y1896847D01*
X1680936Y1904253D02*
Y1907216D01*
Y1905734D01*
X1672049D01*
X1673531Y1904253D01*
X1715134Y1880536D02*
X1706246D01*
Y1884980D01*
X1707728Y1886461D01*
X1710690D01*
X1712171Y1884980D01*
Y1880536D01*
Y1883499D02*
X1715134Y1886461D01*
Y1889423D02*
Y1892386D01*
Y1890904D01*
X1706246D01*
X1707728Y1889423D01*
X1715134Y1896829D02*
Y1899792D01*
Y1898310D01*
X1706246D01*
X1707728Y1896829D01*
Y1904235D02*
X1706246Y1905716D01*
Y1908679D01*
X1707728Y1910160D01*
X1713652D01*
X1715134Y1908679D01*
Y1905716D01*
X1713652Y1904235D01*
X1707728D01*
X1685670Y1729798D02*
X1676782D01*
Y1725355D01*
X1678264Y1723874D01*
X1681226D01*
X1682707Y1725355D01*
Y1729798D01*
Y1726836D02*
X1685670Y1723874D01*
Y1720911D02*
Y1717949D01*
Y1719430D01*
X1676782D01*
X1678264Y1720911D01*
Y1713505D02*
X1676782Y1712024D01*
Y1709062D01*
X1678264Y1707581D01*
X1684188D01*
X1685670Y1709062D01*
Y1712024D01*
X1684188Y1713505D01*
X1678264D01*
X1685670Y1698694D02*
Y1704618D01*
X1679745Y1698694D01*
X1678264D01*
X1676782Y1700175D01*
Y1703137D01*
X1678264Y1704618D01*
X1445337Y509906D02*
Y518794D01*
X1440894D01*
X1439412Y517312D01*
Y514350D01*
X1440894Y512869D01*
X1445337D01*
X1442375D02*
X1439412Y509906D01*
X1436450Y517312D02*
X1434969Y518794D01*
X1432006D01*
X1430525Y517312D01*
Y515831D01*
X1432006Y514350D01*
X1430525Y512869D01*
Y511388D01*
X1432006Y509906D01*
X1434969D01*
X1436450Y511388D01*
Y512869D01*
X1434969Y514350D01*
X1436450Y515831D01*
Y517312D01*
X1434969Y514350D02*
X1432006D01*
X1427563Y517312D02*
X1426082Y518794D01*
X1423119D01*
X1421638Y517312D01*
Y511388D01*
X1423119Y509906D01*
X1426082D01*
X1427563Y511388D01*
Y517312D01*
X1767332Y399288D02*
Y408175D01*
X1762888D01*
X1761407Y406694D01*
Y403732D01*
X1762888Y402250D01*
X1767332D01*
X1764370D02*
X1761407Y399288D01*
X1758445Y408175D02*
X1752520D01*
Y406694D01*
X1758445Y400769D01*
Y399288D01*
X1749558Y408175D02*
X1743633D01*
Y406694D01*
X1749558Y400769D01*
Y399288D01*
X1697626Y372926D02*
Y364039D01*
X1702070D01*
X1703551Y365520D01*
Y368483D01*
X1702070Y369964D01*
X1697626D01*
X1700589D02*
X1703551Y372926D01*
X1706513Y364039D02*
X1712438D01*
Y365520D01*
X1706513Y371445D01*
Y372926D01*
X1721325Y364039D02*
X1718363Y365520D01*
X1715401Y368483D01*
Y371445D01*
X1716882Y372926D01*
X1719844D01*
X1721325Y371445D01*
Y369964D01*
X1719844Y368483D01*
X1715401D01*
X1030360Y1344304D02*
Y1353191D01*
X1025917D01*
X1024435Y1351710D01*
Y1348748D01*
X1025917Y1347266D01*
X1030360D01*
X1027398D02*
X1024435Y1344304D01*
X1015548Y1353191D02*
X1018511Y1351710D01*
X1021473Y1348748D01*
Y1345785D01*
X1019992Y1344304D01*
X1017029D01*
X1015548Y1345785D01*
Y1347266D01*
X1017029Y1348748D01*
X1021473D01*
X1012586Y1344304D02*
X1009623D01*
X1011105D01*
Y1353191D01*
X1012586Y1351710D01*
X917364Y974605D02*
Y983492D01*
X912921D01*
X911439Y982011D01*
Y979048D01*
X912921Y977567D01*
X917364D01*
X914402D02*
X911439Y974605D01*
X904033D02*
Y983492D01*
X908477Y979048D01*
X902552D01*
X899590Y982011D02*
X898109Y983492D01*
X895146D01*
X893665Y982011D01*
Y980529D01*
X895146Y979048D01*
X893665Y977567D01*
Y976086D01*
X895146Y974605D01*
X898109D01*
X899590Y976086D01*
Y977567D01*
X898109Y979048D01*
X899590Y980529D01*
Y982011D01*
X898109Y979048D02*
X895146D01*
X997249Y1004956D02*
X1006136D01*
Y1009400D01*
X1004654Y1010881D01*
X1001692D01*
X1000211Y1009400D01*
Y1004956D01*
Y1007919D02*
X997249Y1010881D01*
Y1018287D02*
X1006136D01*
X1001692Y1013843D01*
Y1019768D01*
X1006136Y1022730D02*
Y1028655D01*
X1004654D01*
X998730Y1022730D01*
X997249D01*
X1002454Y1025405D02*
Y1034292D01*
X998010D01*
X996529Y1032811D01*
Y1029848D01*
X998010Y1028367D01*
X1002454D01*
X999492D02*
X996529Y1025405D01*
X989123D02*
Y1034292D01*
X993567Y1029848D01*
X987642D01*
X978755Y1034292D02*
X981717Y1032811D01*
X984680Y1029848D01*
Y1026886D01*
X983199Y1025405D01*
X980236D01*
X978755Y1026886D01*
Y1028367D01*
X980236Y1029848D01*
X984680D01*
X1118190Y995179D02*
Y1004066D01*
X1113746D01*
X1112265Y1002585D01*
Y999622D01*
X1113746Y998141D01*
X1118190D01*
X1115227D02*
X1112265Y995179D01*
X1104859D02*
Y1004066D01*
X1109303Y999622D01*
X1103378D01*
X1094491Y995179D02*
X1100415D01*
X1094491Y1001103D01*
Y1002585D01*
X1095972Y1004066D01*
X1098934D01*
X1100415Y1002585D01*
X1090304Y988959D02*
Y997846D01*
X1085860D01*
X1084379Y996365D01*
Y993402D01*
X1085860Y991921D01*
X1090304D01*
X1087341D02*
X1084379Y988959D01*
X1076973D02*
Y997846D01*
X1081417Y993402D01*
X1075492D01*
X1072530Y988959D02*
X1069567D01*
X1071048D01*
Y997846D01*
X1072530Y996365D01*
X572291Y948825D02*
Y957712D01*
X567848D01*
X566367Y956231D01*
Y953269D01*
X567848Y951787D01*
X572291D01*
X569329D02*
X566367Y948825D01*
X563404Y956231D02*
X561923Y957712D01*
X558961D01*
X557479Y956231D01*
Y954750D01*
X558961Y953269D01*
X560442D01*
X558961D01*
X557479Y951787D01*
Y950306D01*
X558961Y948825D01*
X561923D01*
X563404Y950306D01*
X554517D02*
X553036Y948825D01*
X550073D01*
X548592Y950306D01*
Y956231D01*
X550073Y957712D01*
X553036D01*
X554517Y956231D01*
Y954750D01*
X553036Y953269D01*
X548592D01*
X889391Y1709461D02*
Y1718348D01*
X884947D01*
X883466Y1716866D01*
Y1713904D01*
X884947Y1712423D01*
X889391D01*
X886429D02*
X883466Y1709461D01*
X880504D02*
X877541D01*
X879023D01*
Y1718348D01*
X880504Y1716866D01*
X873098Y1718348D02*
X867173D01*
Y1716866D01*
X873098Y1710942D01*
Y1709461D01*
X824620Y1736734D02*
Y1745621D01*
X820176D01*
X818695Y1744140D01*
Y1741178D01*
X820176Y1739696D01*
X824620D01*
X821658D02*
X818695Y1736734D01*
X815733D02*
X812770D01*
X814252D01*
Y1745621D01*
X815733Y1744140D01*
X802402Y1745621D02*
X805365Y1744140D01*
X808327Y1741178D01*
Y1738215D01*
X806846Y1736734D01*
X803883D01*
X802402Y1738215D01*
Y1739696D01*
X803883Y1741178D01*
X808327D01*
X1673352Y1080265D02*
Y1089152D01*
X1668908D01*
X1667427Y1087671D01*
Y1084708D01*
X1668908Y1083227D01*
X1673352D01*
X1670390D02*
X1667427Y1080265D01*
X1658540Y1089152D02*
X1664465D01*
Y1084708D01*
X1661503Y1086190D01*
X1660021D01*
X1658540Y1084708D01*
Y1081746D01*
X1660021Y1080265D01*
X1662984D01*
X1664465Y1081746D01*
X1704848Y1055878D02*
X1713735D01*
Y1060322D01*
X1712254Y1061803D01*
X1709292D01*
X1707810Y1060322D01*
Y1055878D01*
Y1058840D02*
X1704848Y1061803D01*
Y1069209D02*
X1713735D01*
X1709292Y1064765D01*
Y1070690D01*
X1465376Y1249253D02*
X1474263D01*
Y1253697D01*
X1472782Y1255178D01*
X1469820D01*
X1468339Y1253697D01*
Y1249253D01*
Y1252216D02*
X1465376Y1255178D01*
X1472782Y1258140D02*
X1474263Y1259622D01*
Y1262584D01*
X1472782Y1264065D01*
X1471301D01*
X1469820Y1262584D01*
Y1261103D01*
Y1262584D01*
X1468339Y1264065D01*
X1466857D01*
X1465376Y1262584D01*
Y1259622D01*
X1466857Y1258140D01*
X1704848Y1092708D02*
X1713735D01*
Y1097152D01*
X1712254Y1098633D01*
X1709292D01*
X1707810Y1097152D01*
Y1092708D01*
Y1095670D02*
X1704848Y1098633D01*
Y1107520D02*
Y1101595D01*
X1710773Y1107520D01*
X1712254D01*
X1713735Y1106039D01*
Y1103076D01*
X1712254Y1101595D01*
X1693546Y1132078D02*
X1702434D01*
Y1136522D01*
X1700952Y1138003D01*
X1697990D01*
X1696509Y1136522D01*
Y1132078D01*
Y1135040D02*
X1693546Y1138003D01*
Y1140965D02*
Y1143928D01*
Y1142446D01*
X1702434D01*
X1700952Y1140965D01*
X1706586Y804409D02*
X1705105Y805891D01*
Y808853D01*
X1706586Y810334D01*
X1712511D01*
X1713992Y808853D01*
Y805891D01*
X1712511Y804409D01*
X1713992Y795522D02*
Y801447D01*
X1708067Y795522D01*
X1706586D01*
X1705105Y797003D01*
Y799966D01*
X1706586Y801447D01*
X1712511Y792560D02*
X1713992Y791079D01*
Y788116D01*
X1712511Y786635D01*
X1706586D01*
X1705105Y788116D01*
Y791079D01*
X1706586Y792560D01*
X1708067D01*
X1709548Y791079D01*
Y786635D01*
X1705105Y783673D02*
Y777748D01*
X1706586D01*
X1712511Y783673D01*
X1713992D01*
X1846663Y760657D02*
X1845182Y759175D01*
X1842219D01*
X1840738Y760657D01*
Y766581D01*
X1842219Y768063D01*
X1845182D01*
X1846663Y766581D01*
X1855550Y768063D02*
X1849625D01*
X1855550Y762138D01*
Y760657D01*
X1854069Y759175D01*
X1851106D01*
X1849625Y760657D01*
X1858512Y766581D02*
X1859993Y768063D01*
X1862956D01*
X1864437Y766581D01*
Y760657D01*
X1862956Y759175D01*
X1859993D01*
X1858512Y760657D01*
Y762138D01*
X1859993Y763619D01*
X1864437D01*
X1871843Y768063D02*
Y759175D01*
X1867399Y763619D01*
X1873324D01*
X1502371Y964057D02*
X1503852Y965538D01*
X1506815D01*
X1508296Y964057D01*
Y958132D01*
X1506815Y956651D01*
X1503852D01*
X1502371Y958132D01*
X1493484Y956651D02*
X1499409D01*
X1493484Y962576D01*
Y964057D01*
X1494965Y965538D01*
X1497928D01*
X1499409Y964057D01*
X1490522Y958132D02*
X1489041Y956651D01*
X1486078D01*
X1484597Y958132D01*
Y964057D01*
X1486078Y965538D01*
X1489041D01*
X1490522Y964057D01*
Y962576D01*
X1489041Y961095D01*
X1484597D01*
X1481635Y956651D02*
X1478672D01*
X1480153D01*
Y965538D01*
X1481635Y964057D01*
X1513131Y1676576D02*
X1514612Y1678057D01*
X1517575D01*
X1519056Y1676576D01*
Y1670651D01*
X1517575Y1669170D01*
X1514612D01*
X1513131Y1670651D01*
X1504244Y1669170D02*
X1510169D01*
X1504244Y1675095D01*
Y1676576D01*
X1505725Y1678057D01*
X1508688D01*
X1510169Y1676576D01*
X1501282Y1678057D02*
X1495357D01*
Y1676576D01*
X1501282Y1670651D01*
Y1669170D01*
X1492395Y1670651D02*
X1490914Y1669170D01*
X1487951D01*
X1486470Y1670651D01*
Y1676576D01*
X1487951Y1678057D01*
X1490914D01*
X1492395Y1676576D01*
Y1675095D01*
X1490914Y1673614D01*
X1486470D01*
X1545389Y1649144D02*
X1546871Y1650625D01*
X1549833D01*
X1551314Y1649144D01*
Y1643219D01*
X1549833Y1641738D01*
X1546871D01*
X1545389Y1643219D01*
X1536502Y1641738D02*
X1542427D01*
X1536502Y1647663D01*
Y1649144D01*
X1537983Y1650625D01*
X1540946D01*
X1542427Y1649144D01*
X1533540Y1650625D02*
X1527615D01*
Y1649144D01*
X1533540Y1643219D01*
Y1641738D01*
X1524653Y1649144D02*
X1523172Y1650625D01*
X1520209D01*
X1518728Y1649144D01*
Y1647663D01*
X1520209Y1646182D01*
X1518728Y1644700D01*
Y1643219D01*
X1520209Y1641738D01*
X1523172D01*
X1524653Y1643219D01*
Y1644700D01*
X1523172Y1646182D01*
X1524653Y1647663D01*
Y1649144D01*
X1523172Y1646182D02*
X1520209D01*
X1632445Y1523144D02*
X1633926Y1524625D01*
X1636888D01*
X1638370Y1523144D01*
Y1517220D01*
X1636888Y1515738D01*
X1633926D01*
X1632445Y1517220D01*
X1623558Y1515738D02*
X1629482D01*
X1623558Y1521663D01*
Y1523144D01*
X1625039Y1524625D01*
X1628001D01*
X1629482Y1523144D01*
X1614671Y1524625D02*
X1620595D01*
Y1520182D01*
X1617633Y1521663D01*
X1616152D01*
X1614671Y1520182D01*
Y1517220D01*
X1616152Y1515738D01*
X1619114D01*
X1620595Y1517220D01*
X1611708D02*
X1610227Y1515738D01*
X1607265D01*
X1605783Y1517220D01*
Y1523144D01*
X1607265Y1524625D01*
X1610227D01*
X1611708Y1523144D01*
Y1521663D01*
X1610227Y1520182D01*
X1605783D01*
X1626415Y1640254D02*
X1627897Y1641735D01*
X1630859D01*
X1632340Y1640254D01*
Y1634329D01*
X1630859Y1632848D01*
X1627897D01*
X1626415Y1634329D01*
X1617528Y1632848D02*
X1623453D01*
X1617528Y1638773D01*
Y1640254D01*
X1619009Y1641735D01*
X1621972D01*
X1623453Y1640254D01*
X1608641Y1641735D02*
X1614566D01*
Y1637292D01*
X1611603Y1638773D01*
X1610122D01*
X1608641Y1637292D01*
Y1634329D01*
X1610122Y1632848D01*
X1613085D01*
X1614566Y1634329D01*
X1599754Y1641735D02*
X1605679D01*
Y1637292D01*
X1602716Y1638773D01*
X1601235D01*
X1599754Y1637292D01*
Y1634329D01*
X1601235Y1632848D01*
X1604198D01*
X1605679Y1634329D01*
X1686392Y1557228D02*
X1684910Y1558710D01*
Y1561672D01*
X1686392Y1563153D01*
X1692316D01*
X1693798Y1561672D01*
Y1558710D01*
X1692316Y1557228D01*
X1693798Y1548341D02*
Y1554266D01*
X1687873Y1548341D01*
X1686392D01*
X1684910Y1549822D01*
Y1552785D01*
X1686392Y1554266D01*
X1684910Y1539454D02*
Y1545379D01*
X1689354D01*
X1687873Y1542416D01*
Y1540935D01*
X1689354Y1539454D01*
X1692316D01*
X1693798Y1540935D01*
Y1543898D01*
X1692316Y1545379D01*
X1693798Y1530567D02*
Y1536492D01*
X1687873Y1530567D01*
X1686392D01*
X1684910Y1532048D01*
Y1535011D01*
X1686392Y1536492D01*
X1648546Y1606547D02*
X1647064Y1608028D01*
Y1610991D01*
X1648546Y1612472D01*
X1654470D01*
X1655952Y1610991D01*
Y1608028D01*
X1654470Y1606547D01*
X1655952Y1597660D02*
Y1603585D01*
X1650027Y1597660D01*
X1648546D01*
X1647064Y1599141D01*
Y1602104D01*
X1648546Y1603585D01*
X1647064Y1588773D02*
Y1594698D01*
X1651508D01*
X1650027Y1591735D01*
Y1590254D01*
X1651508Y1588773D01*
X1654470D01*
X1655952Y1590254D01*
Y1593216D01*
X1654470Y1594698D01*
X1655952Y1585811D02*
Y1582848D01*
Y1584329D01*
X1647064D01*
X1648546Y1585811D01*
X1648689Y1552060D02*
X1647208Y1553542D01*
Y1556504D01*
X1648689Y1557985D01*
X1654614D01*
X1656095Y1556504D01*
Y1553542D01*
X1654614Y1552060D01*
X1656095Y1543173D02*
Y1549098D01*
X1650170Y1543173D01*
X1648689D01*
X1647208Y1544655D01*
Y1547617D01*
X1648689Y1549098D01*
X1647208Y1534286D02*
Y1540211D01*
X1651652D01*
X1650170Y1537249D01*
Y1535767D01*
X1651652Y1534286D01*
X1654614D01*
X1656095Y1535767D01*
Y1538730D01*
X1654614Y1540211D01*
X1648689Y1531324D02*
X1647208Y1529843D01*
Y1526880D01*
X1648689Y1525399D01*
X1654614D01*
X1656095Y1526880D01*
Y1529843D01*
X1654614Y1531324D01*
X1648689D01*
X1554242Y1797289D02*
X1555723Y1798770D01*
X1558686D01*
X1560167Y1797289D01*
Y1791364D01*
X1558686Y1789883D01*
X1555723D01*
X1554242Y1791364D01*
X1545355Y1789883D02*
X1551280D01*
X1545355Y1795808D01*
Y1797289D01*
X1546836Y1798770D01*
X1549799D01*
X1551280Y1797289D01*
X1537949Y1789883D02*
Y1798770D01*
X1542393Y1794327D01*
X1536468D01*
X1533506Y1789883D02*
X1530543D01*
X1532024D01*
Y1798770D01*
X1533506Y1797289D01*
X1572982Y1828780D02*
X1574464Y1830261D01*
X1577426D01*
X1578907Y1828780D01*
Y1822855D01*
X1577426Y1821374D01*
X1574464D01*
X1572982Y1822855D01*
X1564095Y1821374D02*
X1570020D01*
X1564095Y1827298D01*
Y1828780D01*
X1565576Y1830261D01*
X1568539D01*
X1570020Y1828780D01*
X1556689Y1821374D02*
Y1830261D01*
X1561133Y1825817D01*
X1555208D01*
X1552246Y1828780D02*
X1550764Y1830261D01*
X1547802D01*
X1546321Y1828780D01*
Y1822855D01*
X1547802Y1821374D01*
X1550764D01*
X1552246Y1822855D01*
Y1828780D01*
X1572074Y1764890D02*
X1573555Y1766371D01*
X1576518D01*
X1577999Y1764890D01*
Y1758965D01*
X1576518Y1757484D01*
X1573555D01*
X1572074Y1758965D01*
X1563187Y1757484D02*
X1569112D01*
X1563187Y1763409D01*
Y1764890D01*
X1564668Y1766371D01*
X1567630D01*
X1569112Y1764890D01*
X1560225D02*
X1558743Y1766371D01*
X1555781D01*
X1554300Y1764890D01*
Y1763409D01*
X1555781Y1761928D01*
X1557262D01*
X1555781D01*
X1554300Y1760446D01*
Y1758965D01*
X1555781Y1757484D01*
X1558743D01*
X1560225Y1758965D01*
X1545413Y1766371D02*
X1548375Y1764890D01*
X1551337Y1761928D01*
Y1758965D01*
X1549856Y1757484D01*
X1546894D01*
X1545413Y1758965D01*
Y1760446D01*
X1546894Y1761928D01*
X1551337D01*
X1864159Y1877744D02*
X1865641Y1879225D01*
X1868603D01*
X1870084Y1877744D01*
Y1871819D01*
X1868603Y1870338D01*
X1865641D01*
X1864159Y1871819D01*
X1855272Y1870338D02*
X1861197D01*
X1855272Y1876263D01*
Y1877744D01*
X1856753Y1879225D01*
X1859716D01*
X1861197Y1877744D01*
X1852310D02*
X1850829Y1879225D01*
X1847866D01*
X1846385Y1877744D01*
Y1876263D01*
X1847866Y1874782D01*
X1849347D01*
X1847866D01*
X1846385Y1873300D01*
Y1871819D01*
X1847866Y1870338D01*
X1850829D01*
X1852310Y1871819D01*
X1843423Y1877744D02*
X1841942Y1879225D01*
X1838979D01*
X1837498Y1877744D01*
Y1876263D01*
X1838979Y1874782D01*
X1840460D01*
X1838979D01*
X1837498Y1873300D01*
Y1871819D01*
X1838979Y1870338D01*
X1841942D01*
X1843423Y1871819D01*
X1637399Y1689495D02*
X1635918Y1690976D01*
Y1693939D01*
X1637399Y1695420D01*
X1643324D01*
X1644805Y1693939D01*
Y1690976D01*
X1643324Y1689495D01*
X1644805Y1680608D02*
Y1686533D01*
X1638880Y1680608D01*
X1637399D01*
X1635918Y1682089D01*
Y1685052D01*
X1637399Y1686533D01*
X1644805Y1671721D02*
Y1677646D01*
X1638880Y1671721D01*
X1637399D01*
X1635918Y1673202D01*
Y1676164D01*
X1637399Y1677646D01*
X1635918Y1662834D02*
X1637399Y1665796D01*
X1640361Y1668759D01*
X1643324D01*
X1644805Y1667277D01*
Y1664315D01*
X1643324Y1662834D01*
X1641843D01*
X1640361Y1664315D01*
Y1668759D01*
X1690202Y1924604D02*
X1688720Y1923123D01*
Y1920160D01*
X1690202Y1918679D01*
X1696126D01*
X1697608Y1920160D01*
Y1923123D01*
X1696126Y1924604D01*
X1697608Y1933491D02*
Y1927566D01*
X1691683Y1933491D01*
X1690202D01*
X1688720Y1932010D01*
Y1929047D01*
X1690202Y1927566D01*
X1697608Y1942378D02*
Y1936453D01*
X1691683Y1942378D01*
X1690202D01*
X1688720Y1940897D01*
Y1937934D01*
X1690202Y1936453D01*
X1688720Y1951265D02*
Y1945340D01*
X1693164D01*
X1691683Y1948303D01*
Y1949784D01*
X1693164Y1951265D01*
X1696126D01*
X1697608Y1949784D01*
Y1946821D01*
X1696126Y1945340D01*
X1769318Y1800012D02*
X1770800Y1801494D01*
X1773762D01*
X1775243Y1800012D01*
Y1794088D01*
X1773762Y1792606D01*
X1770800D01*
X1769318Y1794088D01*
X1760431Y1792606D02*
X1766356D01*
X1760431Y1798531D01*
Y1800012D01*
X1761912Y1801494D01*
X1764875D01*
X1766356Y1800012D01*
X1751544Y1792606D02*
X1757469D01*
X1751544Y1798531D01*
Y1800012D01*
X1753025Y1801494D01*
X1755988D01*
X1757469Y1800012D01*
X1748582D02*
X1747101Y1801494D01*
X1744138D01*
X1742657Y1800012D01*
Y1798531D01*
X1744138Y1797050D01*
X1745619D01*
X1744138D01*
X1742657Y1795569D01*
Y1794088D01*
X1744138Y1792606D01*
X1747101D01*
X1748582Y1794088D01*
X1654893Y143216D02*
X1653412Y141735D01*
X1650449D01*
X1648968Y143216D01*
Y149141D01*
X1650449Y150622D01*
X1653412D01*
X1654893Y149141D01*
X1663780Y150622D02*
X1657855D01*
X1663780Y144697D01*
Y143216D01*
X1662299Y141735D01*
X1659336D01*
X1657855Y143216D01*
X1666742D02*
X1668223Y141735D01*
X1671186D01*
X1672667Y143216D01*
Y149141D01*
X1671186Y150622D01*
X1668223D01*
X1666742Y149141D01*
Y143216D01*
X1675629Y149141D02*
X1677111Y150622D01*
X1680073D01*
X1681554Y149141D01*
Y143216D01*
X1680073Y141735D01*
X1677111D01*
X1675629Y143216D01*
Y144697D01*
X1677111Y146178D01*
X1681554D01*
X1595542Y567773D02*
X1597024Y566292D01*
Y563329D01*
X1595542Y561848D01*
X1589618D01*
X1588136Y563329D01*
Y566292D01*
X1589618Y567773D01*
X1588136Y576660D02*
Y570735D01*
X1594061Y576660D01*
X1595542D01*
X1597024Y575179D01*
Y572216D01*
X1595542Y570735D01*
Y579622D02*
X1597024Y581103D01*
Y584066D01*
X1595542Y585547D01*
X1589618D01*
X1588136Y584066D01*
Y581103D01*
X1589618Y579622D01*
X1595542D01*
X1588136Y588509D02*
Y591472D01*
Y589991D01*
X1597024D01*
X1595542Y588509D01*
Y513163D02*
X1597024Y511682D01*
Y508719D01*
X1595542Y507238D01*
X1589618D01*
X1588136Y508719D01*
Y511682D01*
X1589618Y513163D01*
X1588136Y522050D02*
Y516125D01*
X1594061Y522050D01*
X1595542D01*
X1597024Y520569D01*
Y517606D01*
X1595542Y516125D01*
Y525012D02*
X1597024Y526493D01*
Y529456D01*
X1595542Y530937D01*
X1589618D01*
X1588136Y529456D01*
Y526493D01*
X1589618Y525012D01*
X1595542D01*
Y533899D02*
X1597024Y535381D01*
Y538343D01*
X1595542Y539824D01*
X1589618D01*
X1588136Y538343D01*
Y535381D01*
X1589618Y533899D01*
X1595542D01*
X1332147Y552236D02*
X1333629Y553717D01*
X1336591D01*
X1338072Y552236D01*
Y546311D01*
X1336591Y544830D01*
X1333629D01*
X1332147Y546311D01*
X1329185Y544830D02*
X1326223D01*
X1327704D01*
Y553717D01*
X1329185Y552236D01*
X1321779Y546311D02*
X1320298Y544830D01*
X1317336D01*
X1315854Y546311D01*
Y552236D01*
X1317336Y553717D01*
X1320298D01*
X1321779Y552236D01*
Y550755D01*
X1320298Y549274D01*
X1315854D01*
X1312892Y546311D02*
X1311411Y544830D01*
X1308448D01*
X1306967Y546311D01*
Y552236D01*
X1308448Y553717D01*
X1311411D01*
X1312892Y552236D01*
Y550755D01*
X1311411Y549274D01*
X1306967D01*
X1375663Y511261D02*
X1377144Y512743D01*
X1380107D01*
X1381588Y511261D01*
Y505337D01*
X1380107Y503855D01*
X1377144D01*
X1375663Y505337D01*
X1372701Y503855D02*
X1369738D01*
X1371220D01*
Y512743D01*
X1372701Y511261D01*
X1365295Y505337D02*
X1363814Y503855D01*
X1360851D01*
X1359370Y505337D01*
Y511261D01*
X1360851Y512743D01*
X1363814D01*
X1365295Y511261D01*
Y509780D01*
X1363814Y508299D01*
X1359370D01*
X1356408Y511261D02*
X1354927Y512743D01*
X1351964D01*
X1350483Y511261D01*
Y509780D01*
X1351964Y508299D01*
X1350483Y506818D01*
Y505337D01*
X1351964Y503855D01*
X1354927D01*
X1356408Y505337D01*
Y506818D01*
X1354927Y508299D01*
X1356408Y509780D01*
Y511261D01*
X1354927Y508299D02*
X1351964D01*
X1445682Y417542D02*
X1447164Y416061D01*
Y413098D01*
X1445682Y411617D01*
X1439758D01*
X1438276Y413098D01*
Y416061D01*
X1439758Y417542D01*
X1438276Y420504D02*
Y423467D01*
Y421985D01*
X1447164D01*
X1445682Y420504D01*
X1439758Y427910D02*
X1438276Y429391D01*
Y432354D01*
X1439758Y433835D01*
X1445682D01*
X1447164Y432354D01*
Y429391D01*
X1445682Y427910D01*
X1444201D01*
X1442720Y429391D01*
Y433835D01*
X1447164Y436797D02*
Y442722D01*
X1445682D01*
X1439758Y436797D01*
X1438276D01*
X1458382Y417542D02*
X1459864Y416061D01*
Y413098D01*
X1458382Y411617D01*
X1452458D01*
X1450976Y413098D01*
Y416061D01*
X1452458Y417542D01*
X1450976Y420504D02*
Y423467D01*
Y421985D01*
X1459864D01*
X1458382Y420504D01*
X1452458Y427910D02*
X1450976Y429391D01*
Y432354D01*
X1452458Y433835D01*
X1458382D01*
X1459864Y432354D01*
Y429391D01*
X1458382Y427910D01*
X1456901D01*
X1455420Y429391D01*
Y433835D01*
X1459864Y442722D02*
X1458382Y439760D01*
X1455420Y436797D01*
X1452458D01*
X1450976Y438278D01*
Y441241D01*
X1452458Y442722D01*
X1453939D01*
X1455420Y441241D01*
Y436797D01*
X1414248Y503214D02*
X1415729Y504695D01*
X1418691D01*
X1420172Y503214D01*
Y497289D01*
X1418691Y495808D01*
X1415729D01*
X1414248Y497289D01*
X1411285Y495808D02*
X1408323D01*
X1409804D01*
Y504695D01*
X1411285Y503214D01*
X1403879Y497289D02*
X1402398Y495808D01*
X1399436D01*
X1397955Y497289D01*
Y503214D01*
X1399436Y504695D01*
X1402398D01*
X1403879Y503214D01*
Y501733D01*
X1402398Y500252D01*
X1397955D01*
X1389068Y504695D02*
X1394992D01*
Y500252D01*
X1392030Y501733D01*
X1390549D01*
X1389068Y500252D01*
Y497289D01*
X1390549Y495808D01*
X1393511D01*
X1394992Y497289D01*
X1224079Y1371014D02*
X1225561Y1372495D01*
X1228523D01*
X1230004Y1371014D01*
Y1365089D01*
X1228523Y1363608D01*
X1225561D01*
X1224079Y1365089D01*
X1221117Y1363608D02*
X1218155D01*
X1219636D01*
Y1372495D01*
X1221117Y1371014D01*
X1213711D02*
X1212230Y1372495D01*
X1209267D01*
X1207786Y1371014D01*
Y1369533D01*
X1209267Y1368052D01*
X1207786Y1366570D01*
Y1365089D01*
X1209267Y1363608D01*
X1212230D01*
X1213711Y1365089D01*
Y1366570D01*
X1212230Y1368052D01*
X1213711Y1369533D01*
Y1371014D01*
X1212230Y1368052D02*
X1209267D01*
X1204824Y1365089D02*
X1203343Y1363608D01*
X1200380D01*
X1198899Y1365089D01*
Y1371014D01*
X1200380Y1372495D01*
X1203343D01*
X1204824Y1371014D01*
Y1369533D01*
X1203343Y1368052D01*
X1198899D01*
X1369736Y1382546D02*
X1371218Y1381065D01*
Y1378103D01*
X1369736Y1376622D01*
X1363812D01*
X1362330Y1378103D01*
Y1381065D01*
X1363812Y1382546D01*
X1362330Y1385509D02*
Y1388471D01*
Y1386990D01*
X1371218D01*
X1369736Y1385509D01*
X1371218Y1392915D02*
Y1398839D01*
X1369736D01*
X1363812Y1392915D01*
X1362330D01*
X1369736Y1401802D02*
X1371218Y1403283D01*
Y1406245D01*
X1369736Y1407726D01*
X1368255D01*
X1366774Y1406245D01*
X1365293Y1407726D01*
X1363812D01*
X1362330Y1406245D01*
Y1403283D01*
X1363812Y1401802D01*
X1365293D01*
X1366774Y1403283D01*
X1368255Y1401802D01*
X1369736D01*
X1366774Y1403283D02*
Y1406245D01*
X1184754Y1427794D02*
X1183273Y1426313D01*
X1180311D01*
X1178830Y1427794D01*
Y1433719D01*
X1180311Y1435200D01*
X1183273D01*
X1184754Y1433719D01*
X1187717Y1435200D02*
X1190679D01*
X1189198D01*
Y1426313D01*
X1187717Y1427794D01*
X1195123Y1426313D02*
X1201048D01*
Y1427794D01*
X1195123Y1433719D01*
Y1435200D01*
X1204010Y1426313D02*
X1209935D01*
Y1427794D01*
X1204010Y1433719D01*
Y1435200D01*
X1093554Y1179791D02*
X1095036Y1178310D01*
Y1175347D01*
X1093554Y1173866D01*
X1087630D01*
X1086149Y1175347D01*
Y1178310D01*
X1087630Y1179791D01*
X1086149Y1182753D02*
Y1185716D01*
Y1184234D01*
X1095036D01*
X1093554Y1182753D01*
X1095036Y1196084D02*
X1093554Y1193122D01*
X1090592Y1190159D01*
X1087630D01*
X1086149Y1191640D01*
Y1194603D01*
X1087630Y1196084D01*
X1089111D01*
X1090592Y1194603D01*
Y1190159D01*
X1095036Y1204971D02*
Y1199046D01*
X1090592D01*
X1092073Y1202009D01*
Y1203490D01*
X1090592Y1204971D01*
X1087630D01*
X1086149Y1203490D01*
Y1200528D01*
X1087630Y1199046D01*
X907224Y1156623D02*
X908705Y1155142D01*
Y1152179D01*
X907224Y1150698D01*
X901299D01*
X899818Y1152179D01*
Y1155142D01*
X901299Y1156623D01*
X899818Y1159585D02*
Y1162548D01*
Y1161067D01*
X908705D01*
X907224Y1159585D01*
X908705Y1172916D02*
X907224Y1169954D01*
X904261Y1166991D01*
X901299D01*
X899818Y1168473D01*
Y1171435D01*
X901299Y1172916D01*
X902780D01*
X904261Y1171435D01*
Y1166991D01*
X899818Y1180322D02*
X908705D01*
X904261Y1175879D01*
Y1181803D01*
X885321Y1140777D02*
X886802Y1139296D01*
Y1136333D01*
X885321Y1134852D01*
X879397D01*
X877915Y1136333D01*
Y1139296D01*
X879397Y1140777D01*
X877915Y1143739D02*
Y1146701D01*
Y1145220D01*
X886802D01*
X885321Y1143739D01*
X886802Y1157070D02*
X885321Y1154107D01*
X882359Y1151145D01*
X879397D01*
X877915Y1152626D01*
Y1155589D01*
X879397Y1157070D01*
X880878D01*
X882359Y1155589D01*
Y1151145D01*
X885321Y1160032D02*
X886802Y1161513D01*
Y1164476D01*
X885321Y1165957D01*
X883840D01*
X882359Y1164476D01*
Y1162995D01*
Y1164476D01*
X880878Y1165957D01*
X879397D01*
X877915Y1164476D01*
Y1161513D01*
X879397Y1160032D01*
X931759Y1072181D02*
X933241Y1073662D01*
X936203D01*
X937684Y1072181D01*
Y1066256D01*
X936203Y1064775D01*
X933241D01*
X931759Y1066256D01*
X928797Y1064775D02*
X925835D01*
X927316D01*
Y1073662D01*
X928797Y1072181D01*
X915466Y1073662D02*
X918429Y1072181D01*
X921391Y1069218D01*
Y1066256D01*
X919910Y1064775D01*
X916947D01*
X915466Y1066256D01*
Y1067737D01*
X916947Y1069218D01*
X921391D01*
X906579Y1064775D02*
X912504D01*
X906579Y1070699D01*
Y1072181D01*
X908060Y1073662D01*
X911023D01*
X912504Y1072181D01*
X924139Y1045511D02*
X925620Y1046992D01*
X928583D01*
X930064Y1045511D01*
Y1039586D01*
X928583Y1038105D01*
X925620D01*
X924139Y1039586D01*
X921177Y1038105D02*
X918215D01*
X919696D01*
Y1046992D01*
X921177Y1045511D01*
X907846Y1046992D02*
X910809Y1045511D01*
X913771Y1042548D01*
Y1039586D01*
X912290Y1038105D01*
X909327D01*
X907846Y1039586D01*
Y1041067D01*
X909327Y1042548D01*
X913771D01*
X904884Y1038105D02*
X901921D01*
X903403D01*
Y1046992D01*
X904884Y1045511D01*
X914484Y1012151D02*
X915966Y1010670D01*
Y1007707D01*
X914484Y1006226D01*
X908560D01*
X907078Y1007707D01*
Y1010670D01*
X908560Y1012151D01*
X907078Y1015113D02*
Y1018076D01*
Y1016594D01*
X915966D01*
X914484Y1015113D01*
X915966Y1028444D02*
X914484Y1025482D01*
X911522Y1022519D01*
X908560D01*
X907078Y1024000D01*
Y1026963D01*
X908560Y1028444D01*
X910041D01*
X911522Y1026963D01*
Y1022519D01*
X914484Y1031406D02*
X915966Y1032888D01*
Y1035850D01*
X914484Y1037331D01*
X908560D01*
X907078Y1035850D01*
Y1032888D01*
X908560Y1031406D01*
X914484D01*
X1014484Y1585571D02*
X1015965Y1587052D01*
X1018927D01*
X1020408Y1585571D01*
Y1579646D01*
X1018927Y1578165D01*
X1015965D01*
X1014484Y1579646D01*
X1011521Y1578165D02*
X1008559D01*
X1010040D01*
Y1587052D01*
X1011521Y1585571D01*
X998191Y1587052D02*
X1004115D01*
Y1582608D01*
X1001153Y1584090D01*
X999672D01*
X998191Y1582608D01*
Y1579646D01*
X999672Y1578165D01*
X1002634D01*
X1004115Y1579646D01*
X990785Y1578165D02*
Y1587052D01*
X995228Y1582608D01*
X989304D01*
X1038605Y967196D02*
X1037124Y965715D01*
X1034161D01*
X1032680Y967196D01*
Y973121D01*
X1034161Y974602D01*
X1037124D01*
X1038605Y973121D01*
X1041567Y974602D02*
X1044529D01*
X1043048D01*
Y965715D01*
X1041567Y967196D01*
X1054898Y965715D02*
X1048973D01*
Y970158D01*
X1051936Y968677D01*
X1053417D01*
X1054898Y970158D01*
Y973121D01*
X1053417Y974602D01*
X1050454D01*
X1048973Y973121D01*
X1063785Y974602D02*
X1057860D01*
X1063785Y968677D01*
Y967196D01*
X1062304Y965715D01*
X1059341D01*
X1057860Y967196D01*
X1092244Y1051561D02*
X1093726Y1050080D01*
Y1047117D01*
X1092244Y1045636D01*
X1086320D01*
X1084838Y1047117D01*
Y1050080D01*
X1086320Y1051561D01*
X1084838Y1054523D02*
Y1057486D01*
Y1056004D01*
X1093726D01*
X1092244Y1054523D01*
X1093726Y1067854D02*
Y1061929D01*
X1089282D01*
X1090763Y1064892D01*
Y1066373D01*
X1089282Y1067854D01*
X1086320D01*
X1084838Y1066373D01*
Y1063410D01*
X1086320Y1061929D01*
X1092244Y1070816D02*
X1093726Y1072298D01*
Y1075260D01*
X1092244Y1076741D01*
X1086320D01*
X1084838Y1075260D01*
Y1072298D01*
X1086320Y1070816D01*
X1092244D01*
X1049869Y1067101D02*
X1051350Y1068582D01*
X1054313D01*
X1055794Y1067101D01*
Y1061176D01*
X1054313Y1059695D01*
X1051350D01*
X1049869Y1061176D01*
X1046907Y1059695D02*
X1043945D01*
X1045426D01*
Y1068582D01*
X1046907Y1067101D01*
X1035058Y1059695D02*
Y1068582D01*
X1039501Y1064138D01*
X1033576D01*
X1030614Y1061176D02*
X1029133Y1059695D01*
X1026170D01*
X1024689Y1061176D01*
Y1067101D01*
X1026170Y1068582D01*
X1029133D01*
X1030614Y1067101D01*
Y1065619D01*
X1029133Y1064138D01*
X1024689D01*
X991449Y1181401D02*
X992931Y1182882D01*
X995893D01*
X997374Y1181401D01*
Y1175476D01*
X995893Y1173995D01*
X992931D01*
X991449Y1175476D01*
X988487Y1173995D02*
X985525D01*
X987006D01*
Y1182882D01*
X988487Y1181401D01*
X976637Y1173995D02*
Y1182882D01*
X981081Y1178438D01*
X975156D01*
X972194Y1182882D02*
X966269D01*
Y1181401D01*
X972194Y1175476D01*
Y1173995D01*
X991449Y1222041D02*
X992931Y1223522D01*
X995893D01*
X997374Y1222041D01*
Y1216116D01*
X995893Y1214635D01*
X992931D01*
X991449Y1216116D01*
X988487Y1214635D02*
X985525D01*
X987006D01*
Y1223522D01*
X988487Y1222041D01*
X976637Y1214635D02*
Y1223522D01*
X981081Y1219078D01*
X975156D01*
X966269Y1223522D02*
X969231Y1222041D01*
X972194Y1219078D01*
Y1216116D01*
X970713Y1214635D01*
X967750D01*
X966269Y1216116D01*
Y1217597D01*
X967750Y1219078D01*
X972194D01*
X1054050Y1102661D02*
X1055531Y1104142D01*
X1058494D01*
X1059975Y1102661D01*
Y1096736D01*
X1058494Y1095255D01*
X1055531D01*
X1054050Y1096736D01*
X1051088Y1095255D02*
X1048126D01*
X1049607D01*
Y1104142D01*
X1051088Y1102661D01*
X1043682D02*
X1042201Y1104142D01*
X1039238D01*
X1037757Y1102661D01*
Y1101179D01*
X1039238Y1099698D01*
X1040720D01*
X1039238D01*
X1037757Y1098217D01*
Y1096736D01*
X1039238Y1095255D01*
X1042201D01*
X1043682Y1096736D01*
X1034795Y1102661D02*
X1033314Y1104142D01*
X1030351D01*
X1028870Y1102661D01*
Y1101179D01*
X1030351Y1099698D01*
X1028870Y1098217D01*
Y1096736D01*
X1030351Y1095255D01*
X1033314D01*
X1034795Y1096736D01*
Y1098217D01*
X1033314Y1099698D01*
X1034795Y1101179D01*
Y1102661D01*
X1033314Y1099698D02*
X1030351D01*
X971129Y1102661D02*
X972610Y1104142D01*
X975573D01*
X977054Y1102661D01*
Y1096736D01*
X975573Y1095255D01*
X972610D01*
X971129Y1096736D01*
X968167Y1095255D02*
X965205D01*
X966686D01*
Y1104142D01*
X968167Y1102661D01*
X960761D02*
X959280Y1104142D01*
X956318D01*
X954836Y1102661D01*
Y1101179D01*
X956318Y1099698D01*
X957799D01*
X956318D01*
X954836Y1098217D01*
Y1096736D01*
X956318Y1095255D01*
X959280D01*
X960761Y1096736D01*
X951874Y1104142D02*
X945949D01*
Y1102661D01*
X951874Y1096736D01*
Y1095255D01*
X1012590Y1074849D02*
X1014071Y1076330D01*
X1017033D01*
X1018514Y1074849D01*
Y1068924D01*
X1017033Y1067443D01*
X1014071D01*
X1012590Y1068924D01*
X1009627Y1067443D02*
X1006665D01*
X1008146D01*
Y1076330D01*
X1009627Y1074849D01*
X1002222D02*
X1000740Y1076330D01*
X997778D01*
X996297Y1074849D01*
Y1073368D01*
X997778Y1071887D01*
X999259D01*
X997778D01*
X996297Y1070406D01*
Y1068924D01*
X997778Y1067443D01*
X1000740D01*
X1002222Y1068924D01*
X987410Y1076330D02*
X990372Y1074849D01*
X993334Y1071887D01*
Y1068924D01*
X991853Y1067443D01*
X988891D01*
X987410Y1068924D01*
Y1070406D01*
X988891Y1071887D01*
X993334D01*
X988909Y1056941D02*
X990390Y1058422D01*
X993353D01*
X994834Y1056941D01*
Y1051016D01*
X993353Y1049535D01*
X990390D01*
X988909Y1051016D01*
X985947Y1049535D02*
X982985D01*
X984466D01*
Y1058422D01*
X985947Y1056941D01*
X978541D02*
X977060Y1058422D01*
X974098D01*
X972616Y1056941D01*
Y1055459D01*
X974098Y1053978D01*
X975579D01*
X974098D01*
X972616Y1052497D01*
Y1051016D01*
X974098Y1049535D01*
X977060D01*
X978541Y1051016D01*
X965210Y1049535D02*
Y1058422D01*
X969654Y1053978D01*
X963729D01*
X956394Y1017231D02*
X957876Y1015750D01*
Y1012787D01*
X956394Y1011306D01*
X950470D01*
X948988Y1012787D01*
Y1015750D01*
X950470Y1017231D01*
X948988Y1020193D02*
Y1023156D01*
Y1021674D01*
X957876D01*
X956394Y1020193D01*
Y1027599D02*
X957876Y1029080D01*
Y1032043D01*
X956394Y1033524D01*
X954913D01*
X953432Y1032043D01*
Y1030562D01*
Y1032043D01*
X951951Y1033524D01*
X950470D01*
X948988Y1032043D01*
Y1029080D01*
X950470Y1027599D01*
X956394Y1036486D02*
X957876Y1037968D01*
Y1040930D01*
X956394Y1042411D01*
X954913D01*
X953432Y1040930D01*
Y1039449D01*
Y1040930D01*
X951951Y1042411D01*
X950470D01*
X948988Y1040930D01*
Y1037968D01*
X950470Y1036486D01*
X1113740Y1111551D02*
X1115221Y1113032D01*
X1118184D01*
X1119665Y1111551D01*
Y1105626D01*
X1118184Y1104145D01*
X1115221D01*
X1113740Y1105626D01*
X1110778Y1104145D02*
X1107815D01*
X1109297D01*
Y1113032D01*
X1110778Y1111551D01*
X1103372D02*
X1101891Y1113032D01*
X1098928D01*
X1097447Y1111551D01*
Y1110069D01*
X1098928Y1108588D01*
X1100410D01*
X1098928D01*
X1097447Y1107107D01*
Y1105626D01*
X1098928Y1104145D01*
X1101891D01*
X1103372Y1105626D01*
X1088560Y1104145D02*
X1094485D01*
X1088560Y1110069D01*
Y1111551D01*
X1090041Y1113032D01*
X1093004D01*
X1094485Y1111551D01*
X1038667Y1012953D02*
X1040149Y1014434D01*
X1043111D01*
X1044592Y1012953D01*
Y1007028D01*
X1043111Y1005547D01*
X1040149D01*
X1038667Y1007028D01*
X1035705Y1005547D02*
X1032743D01*
X1034224D01*
Y1014434D01*
X1035705Y1012953D01*
X1028299D02*
X1026818Y1014434D01*
X1023856D01*
X1022374Y1012953D01*
Y1011471D01*
X1023856Y1009990D01*
X1025337D01*
X1023856D01*
X1022374Y1008509D01*
Y1007028D01*
X1023856Y1005547D01*
X1026818D01*
X1028299Y1007028D01*
X1019412Y1005547D02*
X1016450D01*
X1017931D01*
Y1014434D01*
X1019412Y1012953D01*
X995259Y1140761D02*
X996740Y1142242D01*
X999703D01*
X1001184Y1140761D01*
Y1134836D01*
X999703Y1133355D01*
X996740D01*
X995259Y1134836D01*
X992297Y1133355D02*
X989335D01*
X990816D01*
Y1142242D01*
X992297Y1140761D01*
X984891D02*
X983410Y1142242D01*
X980447D01*
X978966Y1140761D01*
Y1139279D01*
X980447Y1137798D01*
X981929D01*
X980447D01*
X978966Y1136317D01*
Y1134836D01*
X980447Y1133355D01*
X983410D01*
X984891Y1134836D01*
X976004Y1140761D02*
X974523Y1142242D01*
X971560D01*
X970079Y1140761D01*
Y1134836D01*
X971560Y1133355D01*
X974523D01*
X976004Y1134836D01*
Y1140761D01*
X943862Y1153597D02*
X945343Y1152115D01*
Y1149153D01*
X943862Y1147672D01*
X937937D01*
X936456Y1149153D01*
Y1152115D01*
X937937Y1153597D01*
X936456Y1156559D02*
Y1159521D01*
Y1158040D01*
X945343D01*
X943862Y1156559D01*
X936456Y1169890D02*
Y1163965D01*
X942381Y1169890D01*
X943862D01*
X945343Y1168408D01*
Y1165446D01*
X943862Y1163965D01*
X937937Y1172852D02*
X936456Y1174333D01*
Y1177296D01*
X937937Y1178777D01*
X943862D01*
X945343Y1177296D01*
Y1174333D01*
X943862Y1172852D01*
X942381D01*
X940900Y1174333D01*
Y1178777D01*
X991302Y936548D02*
X992783Y938029D01*
X995746D01*
X997227Y936548D01*
Y930623D01*
X995746Y929142D01*
X992783D01*
X991302Y930623D01*
X988340Y929142D02*
X985378D01*
X986859D01*
Y938029D01*
X988340Y936548D01*
X975009Y929142D02*
X980934D01*
X975009Y935066D01*
Y936548D01*
X976490Y938029D01*
X979453D01*
X980934Y936548D01*
X972047Y938029D02*
X966122D01*
Y936548D01*
X972047Y930623D01*
Y929142D01*
X812947Y925446D02*
X811466Y923965D01*
X808503D01*
X807022Y925446D01*
Y931371D01*
X808503Y932852D01*
X811466D01*
X812947Y931371D01*
X815910Y932852D02*
X818872D01*
X817391D01*
Y923965D01*
X815910Y925446D01*
X829240Y932852D02*
X823315D01*
X829240Y926927D01*
Y925446D01*
X827759Y923965D01*
X824797D01*
X823315Y925446D01*
X832203D02*
X833684Y923965D01*
X836646D01*
X838127Y925446D01*
Y926927D01*
X836646Y928409D01*
X835165D01*
X836646D01*
X838127Y929890D01*
Y931371D01*
X836646Y932852D01*
X833684D01*
X832203Y931371D01*
X598157Y1278683D02*
X599638Y1280164D01*
X602601D01*
X604082Y1278683D01*
Y1272758D01*
X602601Y1271277D01*
X599638D01*
X598157Y1272758D01*
X595195Y1271277D02*
X592232D01*
X593714D01*
Y1280164D01*
X595195Y1278683D01*
X587789Y1271277D02*
X584827D01*
X586308D01*
Y1280164D01*
X587789Y1278683D01*
X580383D02*
X578902Y1280164D01*
X575939D01*
X574458Y1278683D01*
Y1277201D01*
X575939Y1275720D01*
X574458Y1274239D01*
Y1272758D01*
X575939Y1271277D01*
X578902D01*
X580383Y1272758D01*
Y1274239D01*
X578902Y1275720D01*
X580383Y1277201D01*
Y1278683D01*
X578902Y1275720D02*
X575939D01*
X560323Y1101436D02*
X558842Y1099955D01*
X555879D01*
X554398Y1101436D01*
Y1107361D01*
X555879Y1108842D01*
X558842D01*
X560323Y1107361D01*
X563285Y1108842D02*
X566248D01*
X564766D01*
Y1099955D01*
X563285Y1101436D01*
X570691Y1108842D02*
X573653D01*
X572172D01*
Y1099955D01*
X570691Y1101436D01*
X578097Y1099955D02*
X584022D01*
Y1101436D01*
X578097Y1107361D01*
Y1108842D01*
X446023Y1106259D02*
X444542Y1104778D01*
X441579D01*
X440098Y1106259D01*
Y1112184D01*
X441579Y1113665D01*
X444542D01*
X446023Y1112184D01*
X448985Y1113665D02*
X451948D01*
X450466D01*
Y1104778D01*
X448985Y1106259D01*
X456391Y1113665D02*
X459353D01*
X457872D01*
Y1104778D01*
X456391Y1106259D01*
X469722Y1104778D02*
X466759Y1106259D01*
X463797Y1109222D01*
Y1112184D01*
X465278Y1113665D01*
X468241D01*
X469722Y1112184D01*
Y1110703D01*
X468241Y1109222D01*
X463797D01*
X352967Y1244264D02*
X354448Y1245745D01*
X357411D01*
X358892Y1244264D01*
Y1238339D01*
X357411Y1236858D01*
X354448D01*
X352967Y1238339D01*
X350005Y1236858D02*
X347042D01*
X348524D01*
Y1245745D01*
X350005Y1244264D01*
X342599Y1236858D02*
X339636D01*
X341118D01*
Y1245745D01*
X342599Y1244264D01*
X329268Y1245745D02*
X335193D01*
Y1241302D01*
X332230Y1242783D01*
X330749D01*
X329268Y1241302D01*
Y1238339D01*
X330749Y1236858D01*
X333712D01*
X335193Y1238339D01*
X311237Y928163D02*
X312719Y929644D01*
X315681D01*
X317162Y928163D01*
Y922238D01*
X315681Y920757D01*
X312719D01*
X311237Y922238D01*
X308275Y920757D02*
X305313D01*
X306794D01*
Y929644D01*
X308275Y928163D01*
X300869D02*
X299388Y929644D01*
X296425D01*
X294944Y928163D01*
Y922238D01*
X296425Y920757D01*
X299388D01*
X300869Y922238D01*
Y928163D01*
X291982Y920757D02*
X289020D01*
X290501D01*
Y929644D01*
X291982Y928163D01*
X311237Y940863D02*
X312719Y942344D01*
X315681D01*
X317162Y940863D01*
Y934938D01*
X315681Y933457D01*
X312719D01*
X311237Y934938D01*
X308275Y933457D02*
X305313D01*
X306794D01*
Y942344D01*
X308275Y940863D01*
X300869D02*
X299388Y942344D01*
X296425D01*
X294944Y940863D01*
Y934938D01*
X296425Y933457D01*
X299388D01*
X300869Y934938D01*
Y940863D01*
X291982D02*
X290501Y942344D01*
X287538D01*
X286057Y940863D01*
Y934938D01*
X287538Y933457D01*
X290501D01*
X291982Y934938D01*
Y940863D01*
X311237Y1004363D02*
X312719Y1005844D01*
X315681D01*
X317162Y1004363D01*
Y998438D01*
X315681Y996957D01*
X312719D01*
X311237Y998438D01*
X308275D02*
X306794Y996957D01*
X303831D01*
X302350Y998438D01*
Y1004363D01*
X303831Y1005844D01*
X306794D01*
X308275Y1004363D01*
Y1002881D01*
X306794Y1001400D01*
X302350D01*
X299388Y1004363D02*
X297907Y1005844D01*
X294944D01*
X293463Y1004363D01*
Y1002881D01*
X294944Y1001400D01*
X293463Y999919D01*
Y998438D01*
X294944Y996957D01*
X297907D01*
X299388Y998438D01*
Y999919D01*
X297907Y1001400D01*
X299388Y1002881D01*
Y1004363D01*
X297907Y1001400D02*
X294944D01*
X311237Y1017063D02*
X312719Y1018544D01*
X315681D01*
X317162Y1017063D01*
Y1011138D01*
X315681Y1009657D01*
X312719D01*
X311237Y1011138D01*
X308275D02*
X306794Y1009657D01*
X303831D01*
X302350Y1011138D01*
Y1017063D01*
X303831Y1018544D01*
X306794D01*
X308275Y1017063D01*
Y1015581D01*
X306794Y1014100D01*
X302350D01*
X299388Y1018544D02*
X293463D01*
Y1017063D01*
X299388Y1011138D01*
Y1009657D01*
X311237Y1029763D02*
X312719Y1031244D01*
X315681D01*
X317162Y1029763D01*
Y1023838D01*
X315681Y1022357D01*
X312719D01*
X311237Y1023838D01*
X308275D02*
X306794Y1022357D01*
X303831D01*
X302350Y1023838D01*
Y1029763D01*
X303831Y1031244D01*
X306794D01*
X308275Y1029763D01*
Y1028281D01*
X306794Y1026800D01*
X302350D01*
X293463Y1031244D02*
X296425Y1029763D01*
X299388Y1026800D01*
Y1023838D01*
X297907Y1022357D01*
X294944D01*
X293463Y1023838D01*
Y1025319D01*
X294944Y1026800D01*
X299388D01*
X311237Y1042463D02*
X312719Y1043944D01*
X315681D01*
X317162Y1042463D01*
Y1036538D01*
X315681Y1035057D01*
X312719D01*
X311237Y1036538D01*
X308275D02*
X306794Y1035057D01*
X303831D01*
X302350Y1036538D01*
Y1042463D01*
X303831Y1043944D01*
X306794D01*
X308275Y1042463D01*
Y1040981D01*
X306794Y1039500D01*
X302350D01*
X293463Y1043944D02*
X299388D01*
Y1039500D01*
X296425Y1040981D01*
X294944D01*
X293463Y1039500D01*
Y1036538D01*
X294944Y1035057D01*
X297907D01*
X299388Y1036538D01*
X311237Y1055163D02*
X312719Y1056644D01*
X315681D01*
X317162Y1055163D01*
Y1049238D01*
X315681Y1047757D01*
X312719D01*
X311237Y1049238D01*
X308275D02*
X306794Y1047757D01*
X303831D01*
X302350Y1049238D01*
Y1055163D01*
X303831Y1056644D01*
X306794D01*
X308275Y1055163D01*
Y1053681D01*
X306794Y1052200D01*
X302350D01*
X294944Y1047757D02*
Y1056644D01*
X299388Y1052200D01*
X293463D01*
X311237Y1080563D02*
X312719Y1082044D01*
X315681D01*
X317162Y1080563D01*
Y1074638D01*
X315681Y1073157D01*
X312719D01*
X311237Y1074638D01*
X308275D02*
X306794Y1073157D01*
X303831D01*
X302350Y1074638D01*
Y1080563D01*
X303831Y1082044D01*
X306794D01*
X308275Y1080563D01*
Y1079081D01*
X306794Y1077600D01*
X302350D01*
X299388Y1080563D02*
X297907Y1082044D01*
X294944D01*
X293463Y1080563D01*
Y1079081D01*
X294944Y1077600D01*
X296425D01*
X294944D01*
X293463Y1076119D01*
Y1074638D01*
X294944Y1073157D01*
X297907D01*
X299388Y1074638D01*
X746813Y1549576D02*
X748295Y1551057D01*
X751257D01*
X752738Y1549576D01*
Y1543651D01*
X751257Y1542170D01*
X748295D01*
X746813Y1543651D01*
X743851Y1551057D02*
X737926D01*
Y1549576D01*
X743851Y1543651D01*
Y1542170D01*
X730520D02*
Y1551057D01*
X734964Y1546614D01*
X729039D01*
X1459424Y1507573D02*
X1457943Y1509054D01*
Y1512016D01*
X1459424Y1513497D01*
X1465349D01*
X1466830Y1512016D01*
Y1509054D01*
X1465349Y1507573D01*
X1457943Y1498686D02*
X1459424Y1501648D01*
X1462387Y1504610D01*
X1465349D01*
X1466830Y1503129D01*
Y1500167D01*
X1465349Y1498686D01*
X1463868D01*
X1462387Y1500167D01*
Y1504610D01*
X1457943Y1489798D02*
X1459424Y1492761D01*
X1462387Y1495723D01*
X1465349D01*
X1466830Y1494242D01*
Y1491280D01*
X1465349Y1489798D01*
X1463868D01*
X1462387Y1491280D01*
Y1495723D01*
X612691Y1362639D02*
X614173Y1364120D01*
X617135D01*
X618616Y1362639D01*
Y1356714D01*
X617135Y1355233D01*
X614173D01*
X612691Y1356714D01*
X603804Y1364120D02*
X606767Y1362639D01*
X609729Y1359677D01*
Y1356714D01*
X608248Y1355233D01*
X605285D01*
X603804Y1356714D01*
Y1358195D01*
X605285Y1359677D01*
X609729D01*
X600842Y1362639D02*
X599361Y1364120D01*
X596398D01*
X594917Y1362639D01*
Y1361158D01*
X596398Y1359677D01*
X597879D01*
X596398D01*
X594917Y1358195D01*
Y1356714D01*
X596398Y1355233D01*
X599361D01*
X600842Y1356714D01*
X603382Y1370684D02*
X601900Y1369203D01*
X598938D01*
X597457Y1370684D01*
Y1376609D01*
X598938Y1378090D01*
X601900D01*
X603382Y1376609D01*
X612269Y1369203D02*
X609306Y1370684D01*
X606344Y1373647D01*
Y1376609D01*
X607825Y1378090D01*
X610788D01*
X612269Y1376609D01*
Y1375128D01*
X610788Y1373647D01*
X606344D01*
X615231Y1370684D02*
X616712Y1369203D01*
X619675D01*
X621156Y1370684D01*
Y1376609D01*
X619675Y1378090D01*
X616712D01*
X615231Y1376609D01*
Y1370684D01*
X798098Y1635381D02*
X796617Y1633900D01*
X793654D01*
X792173Y1635381D01*
Y1641306D01*
X793654Y1642787D01*
X796617D01*
X798098Y1641306D01*
X806985Y1633900D02*
X801060D01*
Y1638344D01*
X804022Y1636862D01*
X805504D01*
X806985Y1638344D01*
Y1641306D01*
X805504Y1642787D01*
X802541D01*
X801060Y1641306D01*
X814391Y1642787D02*
Y1633900D01*
X809947Y1638344D01*
X815872D01*
X1578049Y1405020D02*
X1576568Y1406501D01*
Y1409463D01*
X1578049Y1410945D01*
X1583974D01*
X1585455Y1409463D01*
Y1406501D01*
X1583974Y1405020D01*
X1576568Y1396133D02*
Y1402057D01*
X1581011D01*
X1579530Y1399095D01*
Y1397614D01*
X1581011Y1396133D01*
X1583974D01*
X1585455Y1397614D01*
Y1400576D01*
X1583974Y1402057D01*
X1585455Y1393170D02*
Y1390208D01*
Y1391689D01*
X1576568D01*
X1578049Y1393170D01*
X1052121Y1806878D02*
X1053603Y1808359D01*
X1056565D01*
X1058046Y1806878D01*
Y1800953D01*
X1056565Y1799472D01*
X1053603D01*
X1052121Y1800953D01*
X1043234Y1808359D02*
X1049159D01*
Y1803916D01*
X1046197Y1805397D01*
X1044715D01*
X1043234Y1803916D01*
Y1800953D01*
X1044715Y1799472D01*
X1047678D01*
X1049159Y1800953D01*
X1040272Y1806878D02*
X1038791Y1808359D01*
X1035828D01*
X1034347Y1806878D01*
Y1805397D01*
X1035828Y1803916D01*
X1037309D01*
X1035828D01*
X1034347Y1802434D01*
Y1800953D01*
X1035828Y1799472D01*
X1038791D01*
X1040272Y1800953D01*
X1074419Y842607D02*
X1072938Y841126D01*
X1069975D01*
X1068494Y842607D01*
Y848532D01*
X1069975Y850013D01*
X1072938D01*
X1074419Y848532D01*
X1081825Y850013D02*
Y841126D01*
X1077381Y845570D01*
X1083306D01*
X1092193Y850013D02*
X1086268D01*
X1092193Y844089D01*
Y842607D01*
X1090712Y841126D01*
X1087749D01*
X1086268Y842607D01*
X1074165Y806793D02*
X1072684Y805312D01*
X1069721D01*
X1068240Y806793D01*
Y812718D01*
X1069721Y814199D01*
X1072684D01*
X1074165Y812718D01*
X1081571Y814199D02*
Y805312D01*
X1077127Y809756D01*
X1083052D01*
X1086014Y814199D02*
X1088977D01*
X1087495D01*
Y805312D01*
X1086014Y806793D01*
X1832663Y1366188D02*
X1834144Y1367669D01*
X1837107D01*
X1838588Y1366188D01*
Y1360263D01*
X1837107Y1358782D01*
X1834144D01*
X1832663Y1360263D01*
X1829701Y1366188D02*
X1828220Y1367669D01*
X1825257D01*
X1823776Y1366188D01*
Y1364707D01*
X1825257Y1363226D01*
X1826738D01*
X1825257D01*
X1823776Y1361744D01*
Y1360263D01*
X1825257Y1358782D01*
X1828220D01*
X1829701Y1360263D01*
X1816370Y1358782D02*
Y1367669D01*
X1820814Y1363226D01*
X1814889D01*
X1985571Y1382190D02*
X1987052Y1383671D01*
X1990015D01*
X1991496Y1382190D01*
Y1376265D01*
X1990015Y1374784D01*
X1987052D01*
X1985571Y1376265D01*
X1976684Y1374784D02*
X1982609D01*
X1976684Y1380709D01*
Y1382190D01*
X1978165Y1383671D01*
X1981128D01*
X1982609Y1382190D01*
X1973722Y1383671D02*
X1967797D01*
Y1382190D01*
X1973722Y1376265D01*
Y1374784D01*
X1178359Y814246D02*
X1179840Y815727D01*
X1182803D01*
X1184284Y814246D01*
Y808321D01*
X1182803Y806840D01*
X1179840D01*
X1178359Y808321D01*
X1169472Y806840D02*
X1175397D01*
X1169472Y812765D01*
Y814246D01*
X1170953Y815727D01*
X1173916D01*
X1175397Y814246D01*
X1160585Y815727D02*
X1163547Y814246D01*
X1166510Y811284D01*
Y808321D01*
X1165029Y806840D01*
X1162066D01*
X1160585Y808321D01*
Y809802D01*
X1162066Y811284D01*
X1166510D01*
X1369622Y1167885D02*
X1368140Y1169366D01*
Y1172328D01*
X1369622Y1173810D01*
X1375546D01*
X1377027Y1172328D01*
Y1169366D01*
X1375546Y1167885D01*
X1377027Y1158998D02*
Y1164922D01*
X1371103Y1158998D01*
X1369622D01*
X1368140Y1160479D01*
Y1163441D01*
X1369622Y1164922D01*
X1377027Y1150110D02*
Y1156035D01*
X1371103Y1150110D01*
X1369622D01*
X1368140Y1151592D01*
Y1154554D01*
X1369622Y1156035D01*
X1440546Y1128535D02*
X1442028Y1127054D01*
Y1124092D01*
X1440546Y1122610D01*
X1434622D01*
X1433141Y1124092D01*
Y1127054D01*
X1434622Y1128535D01*
X1433141Y1137422D02*
Y1131498D01*
X1439065Y1137422D01*
X1440546D01*
X1442028Y1135941D01*
Y1132979D01*
X1440546Y1131498D01*
Y1140385D02*
X1442028Y1141866D01*
Y1144828D01*
X1440546Y1146310D01*
X1434622D01*
X1433141Y1144828D01*
Y1141866D01*
X1434622Y1140385D01*
X1440546D01*
X1368400Y1194257D02*
X1366919Y1195739D01*
Y1198701D01*
X1368400Y1200182D01*
X1374325D01*
X1375806Y1198701D01*
Y1195739D01*
X1374325Y1194257D01*
X1375806Y1191295D02*
Y1188333D01*
Y1189814D01*
X1366919D01*
X1368400Y1191295D01*
X1374325Y1183889D02*
X1375806Y1182408D01*
Y1179445D01*
X1374325Y1177964D01*
X1368400D01*
X1366919Y1179445D01*
Y1182408D01*
X1368400Y1183889D01*
X1369881D01*
X1371362Y1182408D01*
Y1177964D01*
X1349528Y999839D02*
X1351009Y1001320D01*
X1353971D01*
X1355452Y999839D01*
Y993914D01*
X1353971Y992433D01*
X1351009D01*
X1349528Y993914D01*
X1346565Y992433D02*
X1343603D01*
X1345084D01*
Y1001320D01*
X1346565Y999839D01*
X1339159Y1001320D02*
X1333235D01*
Y999839D01*
X1339159Y993914D01*
Y992433D01*
X1720337Y1330902D02*
X1721819Y1332383D01*
X1724781D01*
X1726262Y1330902D01*
Y1324977D01*
X1724781Y1323496D01*
X1721819D01*
X1720337Y1324977D01*
X1717375Y1323496D02*
X1714413D01*
X1715894D01*
Y1332383D01*
X1717375Y1330902D01*
X1704044Y1332383D02*
X1709969D01*
Y1327940D01*
X1707007Y1329421D01*
X1705525D01*
X1704044Y1327940D01*
Y1324977D01*
X1705525Y1323496D01*
X1708488D01*
X1709969Y1324977D01*
X1646217Y1292870D02*
X1647698Y1294351D01*
X1650660D01*
X1652142Y1292870D01*
Y1286945D01*
X1650660Y1285464D01*
X1647698D01*
X1646217Y1286945D01*
X1643254Y1294351D02*
X1637330D01*
Y1292870D01*
X1643254Y1286945D01*
Y1285464D01*
X1261585Y1340530D02*
X1263066Y1342011D01*
X1266029D01*
X1267510Y1340530D01*
Y1334605D01*
X1266029Y1333124D01*
X1263066D01*
X1261585Y1334605D01*
X1258623Y1340530D02*
X1257141Y1342011D01*
X1254179D01*
X1252698Y1340530D01*
Y1339049D01*
X1254179Y1337568D01*
X1255660D01*
X1254179D01*
X1252698Y1336086D01*
Y1334605D01*
X1254179Y1333124D01*
X1257141D01*
X1258623Y1334605D01*
X1667427Y1122974D02*
X1668908Y1124455D01*
X1671871D01*
X1673352Y1122974D01*
Y1117049D01*
X1671871Y1115568D01*
X1668908D01*
X1667427Y1117049D01*
X1658540Y1115568D02*
X1664465D01*
X1658540Y1121493D01*
Y1122974D01*
X1660021Y1124455D01*
X1662984D01*
X1664465Y1122974D01*
M02*
