M48
;Layer_Color=9474304
;FILE_FORMAT=2:3
INCH,LZ
;TYPE=PLATED
T01F00S00C0.006
T02F00S00C0.008
T03F00S00C0.010
T04F00S00C0.012
T05F00S00C0.014
T06F00S00C0.035
T07F00S00C0.051
T08F00S00C0.065
T09F00S00C0.071
T10F00S00C0.091
T11F00S00C0.128
T12F00S00C0.130
;TYPE=NON_PLATED
T13F00S00C0.118
%
T01
X07Y001
Y002
Y003
X07098Y003
X071Y002
X072
Y001
X071
X072Y003
X06898Y003
X068Y003
Y002
X067
X066
Y001
X067
X068
X069
Y002
X06698Y003
X066Y003
X06498Y003
X064Y003
Y002
X063
Y001
X062
X061
X06
Y002
Y003
X06098Y003
X061Y002
X062
Y003
X06298Y003
X065Y002
Y001
X064
X059
X058
Y002
Y003
X05898Y003
X059Y002
X057
Y001
X056
X055
Y002
X054
Y003
X05498Y003
X056Y003
X05698Y003
X056Y002
X054Y001
X053
X052
Y002
Y003
X05298Y003
X053Y002
X051
Y001
X05
X049
X048
Y002
Y003
X04898Y003
X049Y002
X05
Y003
X05098Y003
X04698
X046Y003
Y002
Y001
X047
Y002
X045
Y001
X044
X043
Y002
Y003
X04398Y003
X04498
X044Y002
X042
Y001
X041
X04
Y002
X039
Y003
X03998Y003
X041Y003
X04198Y003
X041Y002
X039Y001
X038
X037
Y002
Y003
X03798Y003
X038Y002
X036
Y001
X035
X034
X033
Y002
Y003
X03398Y003
X034Y002
X035
Y003
X03598Y003
X03198
X031Y003
Y002
Y001
X032
Y002
X03
Y001
X029
X028
Y002
X027
X026
X025
Y001
X026
X027
Y003
X02798Y003
X029Y003
X02998Y003
X029Y002
X02598Y003
X025Y003
X02398Y003
X023Y003
Y002
Y001
X024
Y002
X02392Y01118
X02312
Y01198
Y01278
Y01358
X02392
Y01278
Y01198
X03142Y01203
X03222
X03302
Y01283
Y01363
X03222
Y01283
X03142
Y01363
X02232Y01358
Y01278
Y01198
Y01118
X02198Y003
X021Y003
Y002
X02
X019
Y001
X02
X021
X022
Y002
X01998Y003
X019Y003
X01798Y003
X017Y003
Y002
X016
Y001
X015
X014
X013
X012
X011
Y002
Y003
X01198Y003
X012Y002
X013
Y003
X01398Y003
X014Y002
X015
Y003
X01598Y003
X018Y002
Y001
X017
X01
Y002
X009
X008
Y001
X009
Y003
X00998Y003
X00798
X008Y004
Y005
Y006
Y007
Y008
Y009
Y01
Y011
X007
X007Y01002
X007Y009
X007Y00802
X00702Y00704
Y00604
Y00504
Y00404
X00701Y00304
X00702Y00204
Y00104
X007Y01202
X007Y013
X008
Y012
X006
Y011
X005
Y01
X006
Y009
Y008
Y007
X005
X004
Y008
X005
Y009
X004
X003
X003Y00802
Y00702
X002Y007
X001
Y008
Y009
X002
Y008
Y01
X001
Y011
X002
X003
X003Y01002
X004Y01
Y011
Y012
X005
Y013
X006
X004
X003
X003Y01202
X002Y012
Y013
X001
Y012
Y014
X002
Y015
Y016
X001
Y017
Y018
Y019
X002
X003
X003Y01802
X002Y018
Y017
X003
X003Y01602
X004Y016
Y017
Y018
Y019
X005
Y018
Y017
X006
Y016
X005
Y015
X006
Y014
X005
X004
Y015
X003
X003Y01402
X001Y015
Y02
X002
Y021
Y022
Y023
X001
Y022
Y021
X003
X003Y02002
X004Y02
Y021
Y022
Y023
X003
X003Y02202
Y02402
X003Y025
X002
X001
Y024
X002
X004
X005
Y023
Y022
Y021
X006
Y02
Y019
Y018
X005Y02
X006Y022
Y023
Y024
Y025
Y026
Y027
Y028
Y029
X005
X004
Y028
X005
Y027
Y026
Y025
X004
Y026
Y027
X003
X003Y02602
X002Y026
X001
Y027
Y028
X002
Y029
X003
X003Y02802
X002Y027
X001Y029
X007
X007Y02802
X008Y028
Y029
Y027
X007
X007Y02602
X008Y026
Y025
Y024
Y023
Y022
Y021
X007
X007Y02002
X007Y019
X007Y01802
X007Y017
X007Y01602
X008Y016
Y017
Y018
Y019
Y02
X007Y02202
X007Y023
X007Y02402
X007Y025
Y015
X007Y01402
X008Y014
Y015
X02232Y01518
Y01438
Y01598
Y01678
Y01758
Y01838
Y01918
Y01998
Y02078
Y02158
Y02238
Y02318
Y02398
Y02478
Y02558
Y02638
Y02718
Y02798
X02312
Y02718
Y02638
Y02558
X02392
Y02638
Y02718
Y02798
Y02478
X02312
Y02398
Y02318
Y02238
Y02158
X02392
Y02238
Y02318
Y02398
Y02078
Y01998
X02312
Y02078
Y01918
X02392
Y01838
X02312
Y01758
Y01678
Y01598
Y01518
Y01438
X02392
Y01518
Y01598
Y01678
Y01758
X03142Y01763
Y01843
X03222
Y01763
Y01683
X03302
Y01603
X03222
X03142
Y01683
Y01523
Y01443
X03222
X03302
Y01523
X03222
X03302Y01763
Y01843
Y01923
Y02003
Y02083
Y02163
X03222
X03142
Y02243
Y02323
X03222
X03302
Y02243
X03222
Y02403
X03142
Y02483
Y02563
Y02643
Y02723
Y02803
X03222
Y02723
Y02643
X03302
Y02723
Y02803
Y02563
Y02483
X03222
Y02563
X03302Y02403
X03222Y02083
Y02003
X03142
Y02083
Y01923
X03222
X03846Y02424
X03926
X04006
X04083
X04163
X04243
X04326Y02423
X04406
X04486
X04568
X04648
X04648Y02501
Y02581
Y02661
X04728
Y02581
Y02501
X04728Y02423
Y02343
X04648
X04439Y02514
X04359
X04279
Y02594
X04359
X04439
X04196Y02595
Y02515
X04116
X04036
Y02595
X04116
X05148Y0219
X05168Y02207
X05232Y022
X05215Y02181
X05249Y02252
X05272Y02241
X05304Y02251
X05339Y02252
X0532Y01965
X05103Y02011
X05083Y01994
X05078Y01941
X05049Y01939
X05022Y01966
X04999Y01947
X04962Y01966
X04932Y01958
X0492Y01924
X0493Y01901
X0492Y01858
X04953
X04939Y01829
X04954Y01807
X05017Y01849
X05051
X05072Y01631
X05071Y01604
X0498Y01652
X04981Y01678
X05199Y01638
X05227Y01646
X05272Y01636
X05272Y0166
X05147Y02097
X04848Y0181
X04827Y01797
X05502Y01737
X05549Y01697
X05577Y01697
X05614Y01786
X0562Y01815
X05615Y01845
Y02025
X055
X05488Y02113
Y02138
X05457
Y02166
X05817Y02169
X05844Y0217
X0623Y02185
X0627Y02116
X0627Y02011
X0623Y01935
X0641Y01934
Y01955
Y02175
X0641Y02197
X06875Y02205
X06896
X0693Y0179
X0684Y01795
X06725
X0669
Y0183
Y01865
X06725
Y0183
Y01755
X0669
Y0172
Y01685
X06725
Y0172
X06625
X0659
Y01685
X06625
Y01755
X0659
X06515
X0648
Y0172
Y01685
X06515
Y0172
X06155Y017
Y01665
X0611
Y017
X0606
Y01665
X0601
Y017
X0596
Y01665
X05815Y01705
X05775Y0168
X0613Y0176
X06165
X06167Y02787
X06087
Y02867
X06167
X06247Y02867
Y02787
X06327
X06407
Y02867
X06327
X06487
X06567
X06643Y02867
Y02787
X06567Y02787
X06487
X06784Y02902
Y02927
X06007Y02867
X05927
X05847
Y02787
X05927
X06007
X07128Y02922
X0699Y019
Y01865
X07128Y02982
X06944Y03797
Y03877
X06869Y03797
X06579Y0392
Y04
X06499
X06424
Y0392
X06499
X06344
Y04
X06642Y04164
X06645Y0431
Y0435
X06605Y04474
X06562
X06512
X067
X06734Y04473
X0593Y04475
X0585
Y04395
Y0432
Y0424
Y0416
X0577
X0569
X0561
Y0408
X0553
X0545
Y04
Y0392
Y0384
Y0376
X0553
X0561
Y0384
X0569
Y0392
X0561
Y04
X0553
Y0392
Y0384
X0577Y0392
Y04
X0585
Y0408
X0577
X0569
Y04
Y0424
X0577
Y0432
Y04395
X0569
Y0432
Y04475
X0577
X0593Y04395
Y0432
Y0424
Y0416
Y0408
X06058Y03662
Y03582
Y03507
Y03427
X06138
Y03507
Y03582
Y03662
X06167Y03253
X06087
X06007
Y03173
Y03098
Y03018
Y02938
X05927
X05847
Y03018
X05927
Y03098
Y03173
X05847
Y03098
Y03253
X05927
X06087Y03173
Y03098
X06167
Y03173
X06247Y03173
Y03098
X06327
Y03173
X06407
Y03098
X06487
Y03173
X06567
Y03098
X06643Y03098
Y03173
Y03018
X06567Y03018
Y02938
X06643Y02938
X06487Y02938
Y03018
X06407
X06327
X06247
Y02938
X06327
X06407
X06167Y02938
Y03018
X06087
Y02938
X0535Y03252
X0527
X0519
X0511
Y03332
Y03407
X0519
Y03332
X0527
Y03407
Y03487
X0519
X0511
X0535
Y03407
Y03332
X0537Y0376
X0529
X0521
Y0384
Y0392
X0529
X0537
Y0384
X0529
X0513
Y0392
X0484Y03955
Y03875
X0476
Y03795
X0484
Y03715
X0476
Y03955
Y04035
X0484
Y04115
Y04195
Y04275
Y0435
Y0443
X0476
Y0435
Y04275
Y04195
Y04115
X0453Y04105
Y04042
Y04008
X04532Y03966
X04419Y03976
Y03898
X04459Y03819
X04532Y03799
X04356Y03773
X04341Y03819
X04301Y03819
Y03858
Y03898
X04262Y03937
X04222
X04183
X04144
X04144Y03898
X04104
X04065
Y03858
X03986
Y03937
Y03976
X04026Y03976
Y04016
X04065
X04104
X04104Y04055
X04144Y04055
X04183Y04055
X04183Y04016
X04222Y03976
X04262Y04016
X04222Y04094
X04262Y04134
Y04213
X04104
X04065
Y04252
Y04291
X04026
X03986
Y04252
X04026
Y04213
Y04173
X03986Y04173
Y04134
Y04094
X04026
X04065Y04055
X04104Y04094
X04065Y04134
Y04173
X04144
X04183Y04291
X04222Y04409
X04301
X04301Y04449
X04341Y04488
X04419
Y04409
Y04291
X04341
X04419Y04213
Y04134
Y04055
X04341
Y04094
Y03976
X04222Y03898
X04183Y03898
X04222Y03858
Y03819
X04144
Y03858
X04065Y03937
Y03976
X03907Y03976
X03907Y04016
X03868
Y04055
X03868Y04094
X03829
X03829Y04055
X03829Y04016
X03829Y03976
X03868Y03976
Y03858
X03829Y03858
Y03819
X03831Y03696
X0395Y03645
X0403
X0395Y03565
X0387
Y03485
X0395
Y03405
Y03325
Y03245
X0387
Y03325
Y03405
Y03165
X0395
X04228Y03174
Y03249
Y03315
Y0339
X04226Y03455
Y0353
X04306
Y03455
X04308Y0339
Y03315
Y03249
Y03174
X03947Y04094
X03907Y04094
X03907Y04134
Y04173
Y04213
X03868
Y04173
X03829
X03829Y04213
Y04252
Y04291
X03868
Y04252
X03907
Y04291
Y0437
Y04409
Y04449
X03868
Y04409
Y0437
X03829
Y04409
Y04449
Y04488
X03907
X03986Y04449
X04026
Y04409
X03986
Y0437
X04026
X04065
Y04409
X04104
X04065Y04449
X04065Y04488
X04104Y04488
X03986Y04213
X03868Y04134
X03829Y04134
X0453Y04257
X04529Y04438
X03789Y04449
X0375Y04409
X03789Y0437
X03789Y04331
X03789Y04291
X0375Y04291
X03711Y04291
X03672Y04291
X03671Y04331
X03632Y0433
X03632Y04292
X03593Y04291
Y04252
X03553Y04252
X03514Y04213
X03514Y04173
X03474
X03435Y04173
X03415Y04114
Y04075
X03514Y04055
X03553Y04094
X03553Y04134
X03514Y04134
X03593Y04134
X03632Y04094
X03593Y04055
Y04016
X03553Y04016
X03514Y03976
X03514Y03937
X03474Y03937
X03514Y03898
X03474Y03858
X03474Y03819
X03514Y03819
X03553
Y03858
X03632Y03898
X03632Y03937
X03711
X03711Y03858
X03671Y03898
X03789Y03898
X03789Y03937
Y03976
X03789Y04016
X03789Y04055
X03789Y04134
X03789Y04213
X0375Y04252
X03711Y04252
X03671Y04252
X03671Y04213
X03632
X03671Y04173
X03671Y04134
X03671Y04055
X03711Y04055
X03711Y04016
X03789Y03858
Y03819
X03611Y0374
X03567Y03737
X03401Y03736
X03435Y03858
X03415Y04232
X03388Y04311
X03474Y04291
X03514Y04292
X03514Y0433
X03514Y0437
X03553Y0437
X03592Y04409
X03593Y04449
X03632Y04449
X03671Y04409
X03711Y04331
X0375Y04331
X03593Y04331
X03553Y04449
Y04488
X03474
X03474Y04409
X03728Y03565
X03795
Y03485
X03728
Y03405
X03795
Y03325
X03728
Y03245
X03795
Y03165
X03728
X03078Y0338
X0304
Y03429
X03078
X0258Y03446
X0251
Y03536
X02361Y03543
X0234Y0359
Y03635
X02316Y03693
X02366
X02386Y03728
X02387Y03758
X02415Y03758
X02453Y03755
X02478
X0251Y03755
X02526Y03795
X02557Y03795
X02589
Y03827
X02589Y03858
X02557Y03827
X02494
Y03858
X02463Y03827
X02431Y03827
Y03858
X024Y03858
Y03827
X02368
X02337
Y03858
X02368
Y03795
X02305
X02305Y03764
X02291Y03728
X02341
X02274Y03827
X02305Y03858
X02274Y03953
X02274Y03984
X02274Y04016
X02274Y04047
X02337Y04047
X02337Y04016
X02337Y03984
X02337Y03953
X024Y03953
X02431
X02431Y03984
X02494Y03984
Y04016
X02557
Y03984
Y04047
X02589
X02512Y04083
X02478
X02447
X02415
X02384
X02285Y0428
X02286Y03543
X02321Y03473
X02251
X0224Y03406
X0217
X02171Y03693
X02196
X02184Y03751
X02136Y03752
X02148Y03795
X02116
X02116Y03827
X02148Y03827
Y03858
X02211Y03827
X02242
X02239Y03757
X02083Y03794
X02085Y04016
X02116Y04016
X02148Y04016
X02148Y03984
X02116Y03984
X02179Y03953
X02242Y03953
X02242Y03984
X02211
X02211Y04016
X02242Y04016
X02242Y04062
X02206Y04083
X02158Y04065
X02098Y04062
X02115Y04145
Y0419
Y0425
Y0429
X02165
X0223
X02205Y04236
X01685Y04243
Y04278
Y04208
X01685Y04172
X01685Y04138
X01685Y04102
Y04068
Y04033
Y03998
Y03962
Y03928
Y03892
Y03858
Y03822
Y03788
Y03753
Y03718
X01685Y03683
X01685Y03648
Y03612
X01521Y03643
X01451
X01381
Y03743
X01451
X01521
Y03843
X01451
X01381
Y03943
X01451
X01521
Y04043
X01451
X01381
Y04143
X01451
X01521
Y04243
X01451
X01381
X01236
X01166
X01096
X01026
Y04143
X01096
X01166
X01236
Y04043
X01166
X01096
X01026
Y03943
X01096
X01166
X01236
Y03843
X01166
X01096
X01026
Y03743
X01096
X01166
X01236
Y03643
X01166
X01096
X01026
X008Y036
Y037
Y038
Y039
Y04
Y041
X007
X007Y04002
X007Y039
X007Y03802
X007Y037
X007Y03602
X007Y035
X007Y03402
X008Y034
Y035
Y033
Y032
Y031
Y03
X007Y03002
X007Y031
X007Y03202
X007Y033
X007Y04202
Y04302
X007Y044
X008
Y043
Y042
X01026Y04343
X01096
X01166
Y04443
X01096
X01026
X01451
X01521
X01591
Y04343
X01521
X01451
X006Y043
Y044
X005
X004
Y043
X005
Y042
X004
Y041
Y04
X005
Y041
X006
Y04
Y039
X005
Y038
X006
Y037
Y036
X005
Y037
X004
X003
X003Y03602
X002Y036
Y037
X001
Y036
Y035
Y034
Y033
X002
X003
X003Y03202
X002Y032
Y031
X001
Y03
X002
X003Y03002
X003Y031
X004
Y03
X005
X006
Y031
X005
Y032
X006
Y033
Y034
Y035
X005
Y034
Y033
X004
Y032
Y034
Y035
Y036
Y038
Y039
X003
X003Y03802
X002Y038
X001
Y039
Y04
X002
Y041
Y042
Y043
X001
Y044
X002
X003
X003Y04302
Y04202
X003Y041
X003Y04002
X002Y039
X001Y041
Y042
X006
X003Y035
X003Y03402
X002Y034
Y035
X001Y032
Y045
Y046
X002
X003
X003Y04502
X002Y045
X004
Y046
X005
Y045
X006
Y046
Y047
X005
Y048
Y049
Y05
Y051
X006
Y052
Y053
Y054
Y055
Y056
X005
X004
Y057
Y058
X003
X003Y05702
X002Y057
Y058
X001
Y057
Y056
Y055
X002
Y056
X003
X003Y05502
X004Y055
X005
Y054
Y053
Y052
X004
X003
X003Y05102
X002Y051
Y052
X001
Y051
Y05
Y049
Y048
X002
X003
X003Y04702
X002Y047
X001
X004
Y048
Y049
Y05
Y051
Y053
Y054
X003
X003Y05302
X002Y053
X001
Y054
X002
Y05
Y049
X003Y04902
X003Y05
X006
Y049
Y048
Y057
X005
Y058
X006
Y059
X005
Y06
X006
X004
X003
X003Y05902
X002Y059
Y06
X001
Y059
X004
X007Y05902
X007Y06
X008
Y059
Y058
Y057
Y056
X007
X007Y05502
X008Y055
Y054
X007
X007Y05302
X008Y053
Y052
Y051
Y05
X007
X007Y04902
X008Y049
Y048
Y047
Y046
Y045
X007Y04502
X007Y046
X007Y04702
X007Y048
X007Y05102
X007Y052
X0108Y0517
Y0509
Y0501
Y0493
Y0525
Y0533
Y0541
Y0549
X0116
X0124
Y0541
X0132
X014
Y0549
X0132
X0148
X0156
X0164
X0172
Y0541
X018
X0188
X0196
Y0549
X0204
X0212
Y0541
X0204
Y05235
Y05155
X0196
X0188
Y05075
Y04995
Y04915
Y04835
X018
X0172
Y04915
X0164
Y04835
Y04995
X0172
X018
Y04915
Y05075
X0172
X0164
X0156
X0148
Y04995
X0156
Y05155
X0148
Y05235
X0156
X0164
Y05155
X0172
Y05235
X018
X0188
X0196
X0212
Y05155
X018
Y0549
X0188
X0164Y0541
X0156
X0148
X0116
X007Y05702
X007Y058
X01026Y04543
X01096
X01166
X01451
X01521
X01591
Y04643
X02735Y04986
X02815
Y05066
X02895
X0297
Y04986
X02895
X0305
Y05066
X02735
X02607Y05322
Y05346
X0258Y05346
Y05321
Y05393
Y0542
X02607Y05404
Y0538
X02927Y05359
X0309Y05575
X0317
X0325
X0333
Y05655
X0341
Y05575
Y05735
X0333
Y05815
Y0589
X0341
Y05815
X0325
Y0589
X0317
Y05815
X0309
Y0589
Y05735
X0317
X0325
Y05655
X0317
X0309
X03585Y051
Y0502
X03665
X03745
Y051
X03665
X03671Y04843
Y04803
X03632
Y04843
X03592Y04843
Y04803
X03553
Y04843
X03514
Y04803
X0354Y04889
X03448
X03435Y04843
X03355Y04688
X03474Y04646
X03553
X03514Y04685
X03593
X03592Y04724
Y04764
X03632Y04764
X03671Y04764
Y04724
X03632
Y04646
X03671
Y04685
X0375Y04685
Y04646
X03789
X03789Y04685
X03789Y04724
X0375
Y04764
X03789
X03789Y04803
Y04842
X0375Y04843
X03711
X03711Y04803
X0375
X038Y04915
X03789Y04606
X0375Y04528
X03711
X03632
Y04567
X03553Y04567
X03474
X03354Y04525
X03829Y04567
Y04646
Y04685
Y04724
Y04764
X03868
Y04803
X03907
X03829
Y04843
X03868Y04843
X03967Y04915
X04054Y04915
X0406Y0502
X04135
X04215
Y051
X04295
X04375
Y0502
X0445
X04295
X04222Y04915
Y04843
X04183
Y04803
X04222
Y04764
X04183
X04262
X04301
Y04803
Y04843
X04262
Y04803
X04262Y04724
X04262Y04685
Y04646
X04222
X04183
Y04685
X04144
Y04724
X04104Y04724
X04104Y04764
X04104Y04803
Y04843
X04065Y04803
X04026
X03986Y04764
X03986Y04724
Y04685
X04026Y04685
Y04724
X04065
X04065Y04646
X04104
X04144Y04646
Y04606
X04104Y04606
X04065Y04606
X04026Y04606
X03986
X03986Y04567
X03986Y04528
X04026Y04528
X04065Y04567
X04105Y04567
Y04528
X04144Y04528
X04183
X04262
Y04566
X04341Y04567
X04419
X04419Y04646
X04341
X04301Y04685
X04419Y04724
X04529Y04703
X04529Y04674
Y04595
X04504Y04612
X04459Y04843
X0438Y04843
X0476Y04825
Y0475
X0484
Y04825
Y04905
X0476
Y0467
X0484
Y0459
Y0451
X0476
Y0459
X04952Y04585
Y0466
X05032
Y04585
X0536Y053
X04135Y051
X0406
X0398
X039
Y0502
X0398
X0382
Y051
X03907Y04685
Y04646
X03868Y04606
X04026Y04646
X05797Y04801
X05858Y04879
X0583Y053
X05755
X05675
X05595
X05515
X0544
X05431Y05578
X05398
Y0562
X05431
X05469
Y05662
X05431Y05662
X05398Y05662
X05469Y05578
X05484Y0595
X05524
Y0599
X05484
X05564
X05604
Y0595
X05564
X05644
Y0599
X05684
X05724
Y0595
X05764
Y0599
X05684Y0595
X05985Y0571
Y0563
X06065
Y0571
X06145
X06225
Y0563
X06145
X06034Y05531
X06085Y05305
X06165
X0624
X0632
X064
Y05225
Y05145
X0648
X06555
Y05225
X0648
Y05305
X06555
X0666Y0529
Y05365
X06765Y0547
X06812Y05481
X06857
X06902
Y05533
X06857
X0682
Y05578
X06857
X06902
X0684Y0524
X06765
X0677Y0505
Y0497
Y04895
Y04815
Y04735
X0669
Y04655
Y0458
X0677
Y04655
X0685
Y0458
X06925
Y04655
Y04735
X0685
Y04815
X06925
Y04895
X0685
Y0497
X06925
Y0505
X0685
X0669
Y0497
Y04895
Y04815
X0625Y0458
Y045
X0617
Y0458
X06165Y05145
X0624
X0632
Y05225
X0624
X06165
X06085
Y05145
X06414Y05514
X06511Y056
X07245Y05615
Y05665
X0728Y0571
X07315
X0735
X0738
X07415
X0735Y0577
X07315
X0728
X0721
Y0572
X071Y05928
X07597Y05917
X07677
X07757
Y05997
X07677
X07597
X07652Y05412
X07732
X07812
X07664Y04826
X07639Y04826
X07614Y04826
X07588Y04826
X07562Y04826
X07538Y04826
X0751Y04826
X07497Y04848
Y04873
X07025Y05277
X0695
X07039Y06369
X0705Y0659
X0697
Y0667
X0705
X0713
X0721
Y0659
X0713
X0737
X07525
X07605
Y0652
Y0644
X07685
Y0652
Y0659
Y0667
X07765
Y0659
Y0652
Y0644
X07605Y0667
X07525
X07411Y0675
X0729Y0667
X0744Y07352
X07415Y07565
X07335
X07255
X07175
X07095
X07015
X06935
X06855
X06775
X0654
X0646
X0638
X06305
X06225
X06145
X06065
X05985
X05905
X05825
X05745
X05665
X05585
X05505
X05425
X05459Y06967
Y06927
X05419
Y06887
X05459
Y06847
Y06807
X05499
X05539
X05579
Y06847
X05539
X05499
X05419
X05379
Y06807
X05419
X0538Y0667
Y0659
X0546
Y0667
X0554
X0562
X057
Y0659
X0562
X0554
X0578
X0586
X0594
X06015
X06095
X06175
Y0667
X06255
X06335
X0641
X0649
Y0659
X0641
X06335
X06255
X06095Y0667
X06015
X0594
X0586
X0578
X05779Y06807
X05739
X05699
Y06847
X05739
X05779
X05819
Y06807
X05859
Y06847
X05659
X05619
Y06807
X05659
X0584Y06114
X0588
Y06074
X0584
X0657Y0659
X0665
X0673
X0681
X0689
Y0667
X0681
X0673
X0665
X0657
X06552Y07242
X0665Y07379
X06685Y07377
X0519Y07405
Y0733
X0511
Y07405
Y07485
X0503
X0495
Y07565
X0487
X04795
X04715
X04635
Y07485
Y07405
Y0733
Y0725
X04715
X04795
X0487
X0495
Y0733
Y07405
X0487
Y0733
X04795
Y07405
X04715
Y0733
Y07485
X04795
X0487
X0503Y07405
Y0733
Y0725
X0511
X0519
Y07485
Y07565
X05265
X05345
X0511
X0503
X04555
Y07485
X04475
X04395
Y07405
Y0733
X04475
Y07405
X04555
Y0733
Y0725
X04475
X04395
X04315
X04235
X04155
Y0733
Y07405
X04235
Y0733
X04315
Y07405
Y07485
Y07565
X04395
X04475
X04235
X04155
Y07485
X04235
X04263Y06625
X04188
Y06545
X04263
X04343
Y06625
X0461Y06665
Y06585
Y0651
Y0643
Y0635
Y0628
Y062
X04685
X0469Y0628
Y0635
Y0643
Y0651
Y06585
Y06665
X0453Y0628
X04455
X04375
X04295
X0422
Y062
X04295
X04375
X04455
X0453
X04134
X04059
X03979
X053Y0659
Y0667
X03411Y06891
Y06945
X03459Y07018
X03475Y0726
Y0734
Y07415
Y07495
X03395
X03315
X03235
Y07575
X03155
X03075
X02995
Y07495
X02915
X02835
Y07415
Y0734
X02915
Y07415
X02995
Y0734
Y0726
Y0718
X02915
X02835
Y0726
X02915
Y071
X02995
Y07025
X03075
Y071
X03155
Y07025
Y06945
Y06865
X03075
Y06785
Y0671
X03155
Y06785
X03267Y06792
X03155Y0663
X03075
X02995
Y0655
Y0671
Y06785
Y06865
Y06945
X03075
Y0718
X03155
Y0726
X03075
Y0734
Y07415
X03155
Y0734
X03235
Y07415
X03315
Y0734
X03395
Y07415
Y0726
X03315
X03235
X03155Y07495
X03075
X02915Y07575
X02835
X03315
X03395
X03475
X03242Y06375
X03149Y0645
X03133Y06268
X03004
X03309Y0627
Y06221
X008Y062
Y063
Y064
X007
X007Y06302
X007Y062
X007Y06102
X008Y061
Y065
Y066
X007
X007Y06502
Y06702
X007Y068
X008
Y067
Y069
Y07
X007
X007Y06902
Y07102
X007Y072
X008
Y073
Y074
Y075
X007
X007Y07402
Y07302
Y07602
X008Y076
Y071
X006
Y07
Y069
Y068
X005
X004
Y069
Y07
X003
X003Y06902
X002Y069
Y07
X001
Y069
Y068
Y067
Y066
X002
X003
X003Y06502
X002Y065
X001
Y064
Y063
X002
Y064
X003
X003Y06302
X004Y063
Y064
Y065
Y066
X005
Y065
Y064
X006
Y063
X005
Y062
X006
Y061
X005
X004
Y062
X003
X003Y06102
X002Y061
X001
Y062
X002
Y067
Y068
X003
X003Y06702
X004Y067
X005
X006
Y066
Y065
X005Y069
Y07
Y071
Y072
X006
X004
X003
X003Y07102
X002Y071
Y072
X001
Y071
X004
X007Y077
X008
Y078
X007
X009
Y077
X01
X011
Y078
X01
X012
Y077
X013
X014
Y078
X015
X016
X017
Y077
X016
X015
X013Y078
X018
Y077
X019
X02
X021
Y078
X02
X019
X022
Y077
X023
Y078
X024
Y077
X025
X026
Y078
X027
X028
X029
Y077
X028
X027
X03
X031
Y078
X03
X032
Y077
X033
X034
X035
Y078
X034
X033
X036
Y077
X037
X038
Y078
X037
X025
X039
X04
Y077
X039
X04155Y0772
Y07645
X04235
Y0772
Y078
X04155
X04315
X04395
Y0772
Y07645
X04475
Y0772
X04555
Y07645
X04635
Y0772
Y078
X04715
X04795
X0487
X0495
Y0772
Y07645
X0487
Y0772
X04795
Y07645
X04715
Y0772
X04555Y078
X04475
X04315Y0772
Y07645
X0503
Y0772
X0511
Y07645
X0519
X05265
Y0772
X0519
Y078
X05265
X05345
Y0772
Y07645
X0511Y078
X0503
X05425
X05505
X05585
X05665
Y0772
Y07645
X05745
Y0772
X05825
Y07645
X05905
Y0772
Y078
X05825
X05745
X05985
X06065
Y0772
Y07645
X05985
Y0772
X06145
Y07645
X06225
Y0772
X06305
Y07645
X0638
Y0772
X0646
Y07645
X0654
Y0772
Y078
X0662
X067
X06775
X06855
Y0772
Y07645
X06775
X067
Y0772
X06775
X0662
Y07645
X0646Y078
X0638
X06305
X06225
X06145
X05585Y0772
Y07645
X05505
Y0772
X05425
Y07645
X06935
Y0772
Y078
X07015
Y0772
Y07645
X07095
Y0772
X07175
Y07645
X07255
Y0772
Y078
X07175
X07095
X07335
X07415
Y0772
Y07645
X07335
Y0772
T02
X06916Y02796
Y02839
Y02882
Y02926
X06959
X07002
Y02882
X06959
Y02839
X07002
Y02796
X06959
Y02969
Y03012
X07002
Y02969
Y03055
Y03099
X06959
Y03055
Y03142
X07002
X06916
Y03099
Y03055
Y03012
Y02969
X02692Y05389
X02715Y05426
X0267
X02692Y05463
X03854Y0545
Y05493
Y05536
Y0558
X03897
X0394
X03984
X04027
Y05536
Y05493
X03984
Y05536
X0394
X03897
Y05493
X0394
Y0545
X03897
Y05406
X0394
X03984
Y0545
X04027
Y05406
X03854
X07117Y06151
Y06194
X07161
Y06151
X06331Y06162
Y06206
Y06249
X06287
X06244
Y06206
X06287
Y06162
X06244
Y06119
X06287
Y06076
X06244
X06201
Y06119
X06157
Y06076
Y06162
X06201
Y06206
X06157
Y06249
X06201
X06331Y06119
Y06076
X06516Y06971
Y07015
Y07058
Y07101
Y07145
X06559
Y07101
X06603
Y07145
X06646
Y07101
X06689
Y07145
Y07058
X06646
Y07015
X06689
Y06971
X06646
X06603
X06559
Y07015
Y07058
X06603
Y07015
T03
X06126Y04174
X06186
X06246
X06306
X06366
X06396Y04204
X06426Y04174
Y04234
Y04294
Y04354
X06396Y04324
Y04264
X06366Y04234
Y04294
Y04354
X06336Y04324
Y04264
X06276
X06216
X06156
X06186Y04234
X06246
X06306
X06336Y04204
X06276
X06216
X06156
X06126Y04234
Y04294
X06186
X06246
X06306
Y04354
X06276Y04324
X06246Y04354
X06216Y04324
X06186Y04354
X06156Y04324
X06126Y04354
T04
X05854Y05491
Y0553
Y05569
X05893
X05932
Y0553
X05893
Y05491
X05932
X0662Y05545
X0666
X06699
Y05584
X0666
X0662
Y05623
X0666
X06699
X07098Y0553
X07137
X07177
Y0549
Y05451
X07137
Y0549
X07098
Y05451
X07502Y0465
Y0462
Y04589
X0757
Y0462
Y0465
X03147Y06083
Y06122
Y06162
X03107
Y06122
Y06083
X03068
Y06122
Y06162
T05
X05408Y01835
Y01877
Y0192
X0545
X05492
Y01877
X0545
Y01835
X05492
T06
X07235Y00901
X07314
Y00999
X07235
X07254Y0181
Y019
X07444Y0194
Y0202
Y021
Y0218
X07514Y0222
Y0214
Y0206
Y0198
X07254Y0226
Y0235
T07
X0764Y02806
Y03003
Y032
Y03397
T08
X07595Y05633
X07695Y05733
X07595Y05833
X07795
Y05633
Y06093
X07695Y06193
X07595Y06293
X07795
X07595Y06093
X07589Y06769
X07789
Y06969
X07589
X07689Y06869
Y07329
X07589Y07429
X07789
Y07229
X07589
T09
X07076Y03869
Y04035
Y042
X07293
Y04035
Y03869
T10
X0742Y00713
Y01187
T11
X07614Y0183
Y0233
T12
X077Y0018
X0018
X04624Y03641
X03246Y05019
X0018Y077
X077
T13
X0758Y03869
Y042
M30
