%TF.GenerationSoftware,Altium Limited,Altium Designer,23.11.1 (41)*%
G04 Layer_Color=8388736*
%FSLAX45Y45*%
%MOMM*%
%TF.SameCoordinates,75D3B97C-BFDA-4FAF-9EB3-CC348FD6A853*%
%TF.FilePolarity,Negative*%
%TF.FileFunction,Soldermask,Top*%
%TF.Part,Single*%
G01*
G75*
%TA.AperFunction,SMDPad,CuDef*%
G04:AMPARAMS|DCode=30|XSize=3.15mm|YSize=3.15mm|CornerRadius=0.1575mm|HoleSize=0mm|Usage=FLASHONLY|Rotation=90.000|XOffset=0mm|YOffset=0mm|HoleType=Round|Shape=RoundedRectangle|*
%AMROUNDEDRECTD30*
21,1,3.15000,2.83500,0,0,90.0*
21,1,2.83500,3.15000,0,0,90.0*
1,1,0.31500,1.41750,1.41750*
1,1,0.31500,1.41750,-1.41750*
1,1,0.31500,-1.41750,-1.41750*
1,1,0.31500,-1.41750,1.41750*
%
%ADD30ROUNDEDRECTD30*%
G04:AMPARAMS|DCode=31|XSize=3.15mm|YSize=3.15mm|CornerRadius=0.1575mm|HoleSize=0mm|Usage=FLASHONLY|Rotation=180.000|XOffset=0mm|YOffset=0mm|HoleType=Round|Shape=RoundedRectangle|*
%AMROUNDEDRECTD31*
21,1,3.15000,2.83500,0,0,180.0*
21,1,2.83500,3.15000,0,0,180.0*
1,1,0.31500,-1.41750,1.41750*
1,1,0.31500,1.41750,1.41750*
1,1,0.31500,1.41750,-1.41750*
1,1,0.31500,-1.41750,-1.41750*
%
%ADD31ROUNDEDRECTD31*%
%ADD47R,3.15000X3.15000*%
%TA.AperFunction,NonConductor*%
%ADD123R,3.09997X5.16001*%
%TA.AperFunction,SMDPad,CuDef*%
%ADD124O,1.70160X0.40160*%
G04:AMPARAMS|DCode=125|XSize=0.6096mm|YSize=0.6096mm|CornerRadius=0.2032mm|HoleSize=0mm|Usage=FLASHONLY|Rotation=90.000|XOffset=0mm|YOffset=0mm|HoleType=Round|Shape=RoundedRectangle|*
%AMROUNDEDRECTD125*
21,1,0.60960,0.20320,0,0,90.0*
21,1,0.20320,0.60960,0,0,90.0*
1,1,0.40640,0.10160,0.10160*
1,1,0.40640,0.10160,-0.10160*
1,1,0.40640,-0.10160,-0.10160*
1,1,0.40640,-0.10160,0.10160*
%
%ADD125ROUNDEDRECTD125*%
G04:AMPARAMS|DCode=126|XSize=0.6096mm|YSize=0.6096mm|CornerRadius=0.2032mm|HoleSize=0mm|Usage=FLASHONLY|Rotation=0.000|XOffset=0mm|YOffset=0mm|HoleType=Round|Shape=RoundedRectangle|*
%AMROUNDEDRECTD126*
21,1,0.60960,0.20320,0,0,0.0*
21,1,0.20320,0.60960,0,0,0.0*
1,1,0.40640,0.10160,-0.10160*
1,1,0.40640,-0.10160,-0.10160*
1,1,0.40640,-0.10160,0.10160*
1,1,0.40640,0.10160,0.10160*
%
%ADD126ROUNDEDRECTD126*%
%ADD127R,1.54000X2.89000*%
G04:AMPARAMS|DCode=128|XSize=1.4986mm|YSize=1.1938mm|CornerRadius=0.25286mm|HoleSize=0mm|Usage=FLASHONLY|Rotation=180.000|XOffset=0mm|YOffset=0mm|HoleType=Round|Shape=RoundedRectangle|*
%AMROUNDEDRECTD128*
21,1,1.49860,0.68809,0,0,180.0*
21,1,0.99289,1.19380,0,0,180.0*
1,1,0.50571,-0.49644,0.34404*
1,1,0.50571,0.49644,0.34404*
1,1,0.50571,0.49644,-0.34404*
1,1,0.50571,-0.49644,-0.34404*
%
%ADD128ROUNDEDRECTD128*%
G04:AMPARAMS|DCode=129|XSize=4.5016mm|YSize=2.6016mm|CornerRadius=0.6758mm|HoleSize=0mm|Usage=FLASHONLY|Rotation=0.000|XOffset=0mm|YOffset=0mm|HoleType=Round|Shape=RoundedRectangle|*
%AMROUNDEDRECTD129*
21,1,4.50160,1.25000,0,0,0.0*
21,1,3.15000,2.60160,0,0,0.0*
1,1,1.35160,1.57500,-0.62500*
1,1,1.35160,-1.57500,-0.62500*
1,1,1.35160,-1.57500,0.62500*
1,1,1.35160,1.57500,0.62500*
%
%ADD129ROUNDEDRECTD129*%
G04:AMPARAMS|DCode=130|XSize=1.905mm|YSize=1.2954mm|CornerRadius=0.25375mm|HoleSize=0mm|Usage=FLASHONLY|Rotation=90.000|XOffset=0mm|YOffset=0mm|HoleType=Round|Shape=RoundedRectangle|*
%AMROUNDEDRECTD130*
21,1,1.90500,0.78791,0,0,90.0*
21,1,1.39751,1.29540,0,0,90.0*
1,1,0.50749,0.39395,0.69875*
1,1,0.50749,0.39395,-0.69875*
1,1,0.50749,-0.39395,-0.69875*
1,1,0.50749,-0.39395,0.69875*
%
%ADD130ROUNDEDRECTD130*%
G04:AMPARAMS|DCode=131|XSize=1.905mm|YSize=1.2954mm|CornerRadius=0.25375mm|HoleSize=0mm|Usage=FLASHONLY|Rotation=180.000|XOffset=0mm|YOffset=0mm|HoleType=Round|Shape=RoundedRectangle|*
%AMROUNDEDRECTD131*
21,1,1.90500,0.78791,0,0,180.0*
21,1,1.39751,1.29540,0,0,180.0*
1,1,0.50749,-0.69875,0.39395*
1,1,0.50749,0.69875,0.39395*
1,1,0.50749,0.69875,-0.39395*
1,1,0.50749,-0.69875,-0.39395*
%
%ADD131ROUNDEDRECTD131*%
G04:AMPARAMS|DCode=132|XSize=1.1016mm|YSize=0.9016mm|CornerRadius=0.2508mm|HoleSize=0mm|Usage=FLASHONLY|Rotation=0.000|XOffset=0mm|YOffset=0mm|HoleType=Round|Shape=RoundedRectangle|*
%AMROUNDEDRECTD132*
21,1,1.10160,0.40000,0,0,0.0*
21,1,0.60000,0.90160,0,0,0.0*
1,1,0.50160,0.30000,-0.20000*
1,1,0.50160,-0.30000,-0.20000*
1,1,0.50160,-0.30000,0.20000*
1,1,0.50160,0.30000,0.20000*
%
%ADD132ROUNDEDRECTD132*%
%ADD133R,1.74000X1.84000*%
%ADD134R,1.09000X0.74000*%
%ADD135R,0.74000X1.09000*%
%ADD136R,3.24000X2.34000*%
%ADD137R,3.20000X2.30000*%
%ADD138R,2.14000X3.15000*%
%ADD139R,1.50000X1.34000*%
%ADD140R,1.24000X2.39000*%
G04:AMPARAMS|DCode=141|XSize=0.49mm|YSize=1.14mm|CornerRadius=0.1575mm|HoleSize=0mm|Usage=FLASHONLY|Rotation=90.000|XOffset=0mm|YOffset=0mm|HoleType=Round|Shape=RoundedRectangle|*
%AMROUNDEDRECTD141*
21,1,0.49000,0.82500,0,0,90.0*
21,1,0.17500,1.14000,0,0,90.0*
1,1,0.31500,0.41250,0.08750*
1,1,0.31500,0.41250,-0.08750*
1,1,0.31500,-0.41250,-0.08750*
1,1,0.31500,-0.41250,0.08750*
%
%ADD141ROUNDEDRECTD141*%
G04:AMPARAMS|DCode=142|XSize=0.49mm|YSize=1.14mm|CornerRadius=0.1575mm|HoleSize=0mm|Usage=FLASHONLY|Rotation=0.000|XOffset=0mm|YOffset=0mm|HoleType=Round|Shape=RoundedRectangle|*
%AMROUNDEDRECTD142*
21,1,0.49000,0.82500,0,0,0.0*
21,1,0.17500,1.14000,0,0,0.0*
1,1,0.31500,0.08750,-0.41250*
1,1,0.31500,-0.08750,-0.41250*
1,1,0.31500,-0.08750,0.41250*
1,1,0.31500,0.08750,0.41250*
%
%ADD142ROUNDEDRECTD142*%
G04:AMPARAMS|DCode=143|XSize=4.5016mm|YSize=2.6016mm|CornerRadius=0.6758mm|HoleSize=0mm|Usage=FLASHONLY|Rotation=270.000|XOffset=0mm|YOffset=0mm|HoleType=Round|Shape=RoundedRectangle|*
%AMROUNDEDRECTD143*
21,1,4.50160,1.25000,0,0,270.0*
21,1,3.15000,2.60160,0,0,270.0*
1,1,1.35160,-0.62500,-1.57500*
1,1,1.35160,-0.62500,1.57500*
1,1,1.35160,0.62500,1.57500*
1,1,1.35160,0.62500,-1.57500*
%
%ADD143ROUNDEDRECTD143*%
%TA.AperFunction,BGAPad,CuDef*%
%ADD144C,2.29900*%
%TA.AperFunction,SMDPad,CuDef*%
%ADD145R,1.19000X0.74000*%
G04:AMPARAMS|DCode=146|XSize=2.4632mm|YSize=2.3632mm|CornerRadius=0.6416mm|HoleSize=0mm|Usage=FLASHONLY|Rotation=180.000|XOffset=0mm|YOffset=0mm|HoleType=Round|Shape=RoundedRectangle|*
%AMROUNDEDRECTD146*
21,1,2.46320,1.08000,0,0,180.0*
21,1,1.18000,2.36320,0,0,180.0*
1,1,1.28320,-0.59000,0.54000*
1,1,1.28320,0.59000,0.54000*
1,1,1.28320,0.59000,-0.54000*
1,1,1.28320,-0.59000,-0.54000*
%
%ADD146ROUNDEDRECTD146*%
%ADD147C,3.00000*%
G04:AMPARAMS|DCode=148|XSize=0.38mm|YSize=0.74mm|CornerRadius=0.1192mm|HoleSize=0mm|Usage=FLASHONLY|Rotation=90.000|XOffset=0mm|YOffset=0mm|HoleType=Round|Shape=RoundedRectangle|*
%AMROUNDEDRECTD148*
21,1,0.38000,0.50160,0,0,90.0*
21,1,0.14160,0.74000,0,0,90.0*
1,1,0.23840,0.25080,0.07080*
1,1,0.23840,0.25080,-0.07080*
1,1,0.23840,-0.25080,-0.07080*
1,1,0.23840,-0.25080,0.07080*
%
%ADD148ROUNDEDRECTD148*%
G04:AMPARAMS|DCode=149|XSize=2.54mm|YSize=1.79mm|CornerRadius=0.11125mm|HoleSize=0mm|Usage=FLASHONLY|Rotation=90.000|XOffset=0mm|YOffset=0mm|HoleType=Round|Shape=RoundedRectangle|*
%AMROUNDEDRECTD149*
21,1,2.54000,1.56750,0,0,90.0*
21,1,2.31750,1.79000,0,0,90.0*
1,1,0.22250,0.78375,1.15875*
1,1,0.22250,0.78375,-1.15875*
1,1,0.22250,-0.78375,-1.15875*
1,1,0.22250,-0.78375,1.15875*
%
%ADD149ROUNDEDRECTD149*%
G04:AMPARAMS|DCode=150|XSize=0.9906mm|YSize=0.9652mm|CornerRadius=0.20193mm|HoleSize=0mm|Usage=FLASHONLY|Rotation=0.000|XOffset=0mm|YOffset=0mm|HoleType=Round|Shape=RoundedRectangle|*
%AMROUNDEDRECTD150*
21,1,0.99060,0.56134,0,0,0.0*
21,1,0.58674,0.96520,0,0,0.0*
1,1,0.40386,0.29337,-0.28067*
1,1,0.40386,-0.29337,-0.28067*
1,1,0.40386,-0.29337,0.28067*
1,1,0.40386,0.29337,0.28067*
%
%ADD150ROUNDEDRECTD150*%
%ADD151R,0.40640X0.55880*%
G04:AMPARAMS|DCode=152|XSize=1.4986mm|YSize=1.1938mm|CornerRadius=0.25286mm|HoleSize=0mm|Usage=FLASHONLY|Rotation=270.000|XOffset=0mm|YOffset=0mm|HoleType=Round|Shape=RoundedRectangle|*
%AMROUNDEDRECTD152*
21,1,1.49860,0.68809,0,0,270.0*
21,1,0.99289,1.19380,0,0,270.0*
1,1,0.50571,-0.34404,-0.49644*
1,1,0.50571,-0.34404,0.49644*
1,1,0.50571,0.34404,0.49644*
1,1,0.50571,0.34404,-0.49644*
%
%ADD152ROUNDEDRECTD152*%
%TA.AperFunction,BGAPad,CuDef*%
%ADD153C,0.55160*%
%ADD154C,0.55000*%
%TA.AperFunction,SMDPad,CuDef*%
%ADD155O,0.54999X0.55000*%
G04:AMPARAMS|DCode=156|XSize=0.54mm|YSize=0.84mm|CornerRadius=0.17mm|HoleSize=0mm|Usage=FLASHONLY|Rotation=180.000|XOffset=0mm|YOffset=0mm|HoleType=Round|Shape=RoundedRectangle|*
%AMROUNDEDRECTD156*
21,1,0.54000,0.50000,0,0,180.0*
21,1,0.20000,0.84000,0,0,180.0*
1,1,0.34000,-0.10000,0.25000*
1,1,0.34000,0.10000,0.25000*
1,1,0.34000,0.10000,-0.25000*
1,1,0.34000,-0.10000,-0.25000*
%
%ADD156ROUNDEDRECTD156*%
%ADD157R,1.69000X2.09000*%
G04:AMPARAMS|DCode=158|XSize=1.09mm|YSize=0.44mm|CornerRadius=0.145mm|HoleSize=0mm|Usage=FLASHONLY|Rotation=180.000|XOffset=0mm|YOffset=0mm|HoleType=Round|Shape=RoundedRectangle|*
%AMROUNDEDRECTD158*
21,1,1.09000,0.15000,0,0,180.0*
21,1,0.80000,0.44000,0,0,180.0*
1,1,0.29000,-0.40000,0.07500*
1,1,0.29000,0.40000,0.07500*
1,1,0.29000,0.40000,-0.07500*
1,1,0.29000,-0.40000,-0.07500*
%
%ADD158ROUNDEDRECTD158*%
%ADD159O,0.94000X0.37000*%
%ADD160O,0.37000X0.94000*%
%ADD161R,7.54000X7.54000*%
%ADD162O,0.54000X1.94000*%
%ADD163R,7.54000X7.54000*%
%ADD164R,2.25000X2.25000*%
%ADD165O,0.35000X0.95000*%
%ADD166O,0.95000X0.35000*%
G04:AMPARAMS|DCode=167|XSize=0.608mm|YSize=0.608mm|CornerRadius=0.2024mm|HoleSize=0mm|Usage=FLASHONLY|Rotation=90.000|XOffset=0mm|YOffset=0mm|HoleType=Round|Shape=RoundedRectangle|*
%AMROUNDEDRECTD167*
21,1,0.60800,0.20320,0,0,90.0*
21,1,0.20320,0.60800,0,0,90.0*
1,1,0.40480,0.10160,0.10160*
1,1,0.40480,0.10160,-0.10160*
1,1,0.40480,-0.10160,-0.10160*
1,1,0.40480,-0.10160,0.10160*
%
%ADD167ROUNDEDRECTD167*%
%ADD168O,0.99000X0.42000*%
%ADD169R,5.74000X5.74000*%
%ADD170O,0.42000X0.99000*%
G04:AMPARAMS|DCode=171|XSize=0.9906mm|YSize=0.9652mm|CornerRadius=0.20193mm|HoleSize=0mm|Usage=FLASHONLY|Rotation=270.000|XOffset=0mm|YOffset=0mm|HoleType=Round|Shape=RoundedRectangle|*
%AMROUNDEDRECTD171*
21,1,0.99060,0.56134,0,0,270.0*
21,1,0.58674,0.96520,0,0,270.0*
1,1,0.40386,-0.28067,-0.29337*
1,1,0.40386,-0.28067,0.29337*
1,1,0.40386,0.28067,0.29337*
1,1,0.40386,0.28067,-0.29337*
%
%ADD171ROUNDEDRECTD171*%
%ADD172O,3.02260X0.86360*%
%ADD173R,1.50160X1.30160*%
%ADD174R,1.50160X1.10160*%
G04:AMPARAMS|DCode=175|XSize=0.4mm|YSize=0.55mm|CornerRadius=0.125mm|HoleSize=0mm|Usage=FLASHONLY|Rotation=90.000|XOffset=0mm|YOffset=0mm|HoleType=Round|Shape=RoundedRectangle|*
%AMROUNDEDRECTD175*
21,1,0.40000,0.30000,0,0,90.0*
21,1,0.15000,0.55000,0,0,90.0*
1,1,0.25000,0.15000,0.07500*
1,1,0.25000,0.15000,-0.07500*
1,1,0.25000,-0.15000,-0.07500*
1,1,0.25000,-0.15000,0.07500*
%
%ADD175ROUNDEDRECTD175*%
%ADD176R,2.44000X2.94000*%
%ADD177R,2.94000X2.44000*%
%ADD178R,1.52000X0.74000*%
G04:AMPARAMS|DCode=179|XSize=1.7mm|YSize=3.6mm|CornerRadius=0.25mm|HoleSize=0mm|Usage=FLASHONLY|Rotation=180.000|XOffset=0mm|YOffset=0mm|HoleType=Round|Shape=RoundedRectangle|*
%AMROUNDEDRECTD179*
21,1,1.70000,3.10000,0,0,180.0*
21,1,1.20000,3.60000,0,0,180.0*
1,1,0.50000,-0.60000,1.55000*
1,1,0.50000,0.60000,1.55000*
1,1,0.50000,0.60000,-1.55000*
1,1,0.50000,-0.60000,-1.55000*
%
%ADD179ROUNDEDRECTD179*%
G04:AMPARAMS|DCode=180|XSize=1.7mm|YSize=3.6mm|CornerRadius=0.25mm|HoleSize=0mm|Usage=FLASHONLY|Rotation=270.000|XOffset=0mm|YOffset=0mm|HoleType=Round|Shape=RoundedRectangle|*
%AMROUNDEDRECTD180*
21,1,1.70000,3.10000,0,0,270.0*
21,1,1.20000,3.60000,0,0,270.0*
1,1,0.50000,-1.55000,-0.60000*
1,1,0.50000,-1.55000,0.60000*
1,1,0.50000,1.55000,0.60000*
1,1,0.50000,1.55000,-0.60000*
%
%ADD180ROUNDEDRECTD180*%
G04:AMPARAMS|DCode=181|XSize=3.5016mm|YSize=3.5016mm|CornerRadius=0mm|HoleSize=0mm|Usage=FLASHONLY|Rotation=180.000|XOffset=0mm|YOffset=0mm|HoleType=Round|Shape=RoundedRectangle|*
%AMROUNDEDRECTD181*
21,1,3.50160,3.50160,0,0,180.0*
21,1,3.50160,3.50160,0,0,180.0*
1,1,0.00000,-1.75080,1.75080*
1,1,0.00000,1.75080,1.75080*
1,1,0.00000,1.75080,-1.75080*
1,1,0.00000,-1.75080,-1.75080*
%
%ADD181ROUNDEDRECTD181*%
%ADD182R,0.35160X0.90160*%
%ADD183R,0.90160X0.35160*%
G04:AMPARAMS|DCode=184|XSize=0.79mm|YSize=0.99mm|CornerRadius=0.2325mm|HoleSize=0mm|Usage=FLASHONLY|Rotation=180.000|XOffset=0mm|YOffset=0mm|HoleType=Round|Shape=RoundedRectangle|*
%AMROUNDEDRECTD184*
21,1,0.79000,0.52500,0,0,180.0*
21,1,0.32500,0.99000,0,0,180.0*
1,1,0.46500,-0.16250,0.26250*
1,1,0.46500,0.16250,0.26250*
1,1,0.46500,0.16250,-0.26250*
1,1,0.46500,-0.16250,-0.26250*
%
%ADD184ROUNDEDRECTD184*%
%ADD185R,8.67999X5.49000*%
G04:AMPARAMS|DCode=186|XSize=3.2mm|YSize=1.03mm|CornerRadius=0.2925mm|HoleSize=0mm|Usage=FLASHONLY|Rotation=180.000|XOffset=0mm|YOffset=0mm|HoleType=Round|Shape=RoundedRectangle|*
%AMROUNDEDRECTD186*
21,1,3.20000,0.44500,0,0,180.0*
21,1,2.61500,1.03000,0,0,180.0*
1,1,0.58500,-1.30750,0.22250*
1,1,0.58500,1.30750,0.22250*
1,1,0.58500,1.30750,-0.22250*
1,1,0.58500,-1.30750,-0.22250*
%
%ADD186ROUNDEDRECTD186*%
%ADD187R,2.43900X0.69900*%
G04:AMPARAMS|DCode=188|XSize=1.34mm|YSize=1.34mm|CornerRadius=0.25mm|HoleSize=0mm|Usage=FLASHONLY|Rotation=270.000|XOffset=0mm|YOffset=0mm|HoleType=Round|Shape=RoundedRectangle|*
%AMROUNDEDRECTD188*
21,1,1.34000,0.84000,0,0,270.0*
21,1,0.84000,1.34000,0,0,270.0*
1,1,0.50000,-0.42000,-0.42000*
1,1,0.50000,-0.42000,0.42000*
1,1,0.50000,0.42000,0.42000*
1,1,0.50000,0.42000,-0.42000*
%
%ADD188ROUNDEDRECTD188*%
G04:AMPARAMS|DCode=189|XSize=1.34mm|YSize=1.34mm|CornerRadius=0.37mm|HoleSize=0mm|Usage=FLASHONLY|Rotation=270.000|XOffset=0mm|YOffset=0mm|HoleType=Round|Shape=RoundedRectangle|*
%AMROUNDEDRECTD189*
21,1,1.34000,0.60000,0,0,270.0*
21,1,0.60000,1.34000,0,0,270.0*
1,1,0.74000,-0.30000,-0.30000*
1,1,0.74000,-0.30000,0.30000*
1,1,0.74000,0.30000,0.30000*
1,1,0.74000,0.30000,-0.30000*
%
%ADD189ROUNDEDRECTD189*%
%ADD190R,4.01320X4.44500*%
%TA.AperFunction,ComponentPad*%
%ADD191C,6.34000*%
%ADD192C,2.30160*%
%ADD193C,3.91160*%
G04:AMPARAMS|DCode=194|XSize=1.6256mm|YSize=1.6256mm|CornerRadius=0mm|HoleSize=0mm|Usage=FLASHONLY|Rotation=90.000|XOffset=0mm|YOffset=0mm|HoleType=Round|Shape=Octagon|*
%AMOCTAGOND194*
4,1,8,0.40640,0.81280,-0.40640,0.81280,-0.81280,0.40640,-0.81280,-0.40640,-0.40640,-0.81280,0.40640,-0.81280,0.81280,-0.40640,0.81280,0.40640,0.40640,0.81280,0.0*
%
%ADD194OCTAGOND194*%

%ADD195C,1.62560*%
%ADD196C,3.14000*%
%ADD197C,1.74000*%
%ADD198C,0.70160*%
%ADD199R,2.14500X2.14500*%
%ADD200C,2.14500*%
%ADD201C,3.13720*%
%ADD202R,3.14000X3.14000*%
%TA.AperFunction,ViaPad*%
%ADD203C,0.40640*%
%ADD204C,0.60160*%
%ADD205C,0.30000*%
%ADD206C,0.66040*%
%ADD207C,0.60960*%
G36*
X6822393Y13958797D02*
X6822669D01*
X6822941Y13958752D01*
X6823216Y13958733D01*
X6823485Y13958667D01*
X6823757Y13958624D01*
X6824020Y13958539D01*
X6824288Y13958475D01*
X6824542Y13958369D01*
X6824805Y13958284D01*
X6826643Y13957523D01*
X6826890Y13957397D01*
X6827143Y13957292D01*
X6827377Y13957149D01*
X6827624Y13957022D01*
X6827849Y13956859D01*
X6828083Y13956715D01*
X6828291Y13956537D01*
X6828516Y13956375D01*
X6828712Y13956178D01*
X6828921Y13956000D01*
X6830327Y13954594D01*
X6830507Y13954382D01*
X6830701Y13954189D01*
X6830863Y13953966D01*
X6831043Y13953757D01*
X6831186Y13953522D01*
X6831349Y13953297D01*
X6831475Y13953050D01*
X6831619Y13952815D01*
X6831723Y13952563D01*
X6831849Y13952316D01*
X6832610Y13950478D01*
X6832696Y13950217D01*
X6832801Y13949960D01*
X6832866Y13949693D01*
X6832951Y13949431D01*
X6832994Y13949159D01*
X6833059Y13948889D01*
X6833081Y13948611D01*
X6833123Y13948341D01*
Y13948068D01*
X6833145Y13947791D01*
Y13946797D01*
Y13616797D01*
Y13615802D01*
X6833123Y13615527D01*
Y13615251D01*
X6833080Y13614980D01*
X6833059Y13614703D01*
X6832994Y13614435D01*
X6832951Y13614163D01*
X6832866Y13613901D01*
X6832801Y13613632D01*
X6832696Y13613377D01*
X6832611Y13613115D01*
X6831849Y13611276D01*
X6831724Y13611031D01*
X6831619Y13610777D01*
X6831475Y13610542D01*
X6831349Y13610297D01*
X6831186Y13610071D01*
X6831043Y13609837D01*
X6830864Y13609628D01*
X6830702Y13609404D01*
X6830506Y13609209D01*
X6830327Y13609000D01*
X6828921Y13607593D01*
X6828712Y13607414D01*
X6828515Y13607217D01*
X6828291Y13607056D01*
X6828083Y13606877D01*
X6827848Y13606734D01*
X6827624Y13606570D01*
X6827378Y13606445D01*
X6827143Y13606300D01*
X6826888Y13606197D01*
X6826642Y13606070D01*
X6824804Y13605309D01*
X6824541Y13605225D01*
X6824288Y13605119D01*
X6824020Y13605055D01*
X6823756Y13604968D01*
X6823484Y13604926D01*
X6823216Y13604861D01*
X6822940Y13604840D01*
X6822668Y13604797D01*
X6822393D01*
X6822118Y13604774D01*
X6805129D01*
X6804854Y13604797D01*
X6804578D01*
X6804306Y13604840D01*
X6804031Y13604861D01*
X6803763Y13604926D01*
X6803490Y13604968D01*
X6803227Y13605055D01*
X6802959Y13605119D01*
X6802705Y13605225D01*
X6802443Y13605309D01*
X6800605Y13606070D01*
X6800357Y13606197D01*
X6800103Y13606300D01*
X6799870Y13606445D01*
X6799623Y13606570D01*
X6799398Y13606734D01*
X6799164Y13606877D01*
X6798956Y13607056D01*
X6798732Y13607217D01*
X6798535Y13607414D01*
X6798326Y13607593D01*
X6796920Y13609000D01*
X6796741Y13609209D01*
X6796545Y13609406D01*
X6796382Y13609628D01*
X6796204Y13609837D01*
X6796060Y13610072D01*
X6795897Y13610297D01*
X6795772Y13610542D01*
X6795628Y13610777D01*
X6795523Y13611032D01*
X6795397Y13611278D01*
X6794636Y13613116D01*
X6794551Y13613379D01*
X6794446Y13613632D01*
X6794381Y13613901D01*
X6794296Y13614165D01*
X6794253Y13614436D01*
X6794188Y13614703D01*
X6794167Y13614980D01*
X6794124Y13615253D01*
Y13615527D01*
X6794102Y13615802D01*
Y13616797D01*
Y13946797D01*
Y13947791D01*
X6794124Y13948067D01*
Y13948341D01*
X6794167Y13948615D01*
X6794188Y13948889D01*
X6794253Y13949158D01*
X6794296Y13949429D01*
X6794381Y13949693D01*
X6794446Y13949960D01*
X6794551Y13950214D01*
X6794636Y13950478D01*
X6795397Y13952315D01*
X6795523Y13952562D01*
X6795628Y13952815D01*
X6795772Y13953050D01*
X6795897Y13953297D01*
X6796061Y13953522D01*
X6796204Y13953757D01*
X6796382Y13953964D01*
X6796545Y13954189D01*
X6796741Y13954385D01*
X6796920Y13954594D01*
X6798326Y13956000D01*
X6798537Y13956180D01*
X6798731Y13956374D01*
X6798954Y13956535D01*
X6799164Y13956715D01*
X6799398Y13956859D01*
X6799622Y13957022D01*
X6799870Y13957149D01*
X6800103Y13957292D01*
X6800357Y13957397D01*
X6800604Y13957523D01*
X6802442Y13958282D01*
X6802704Y13958369D01*
X6802959Y13958475D01*
X6803227Y13958539D01*
X6803489Y13958624D01*
X6803761Y13958667D01*
X6804031Y13958733D01*
X6804308Y13958754D01*
X6804578Y13958797D01*
X6804852D01*
X6805129Y13958818D01*
X6822118D01*
X6822393Y13958797D01*
D02*
G37*
G36*
X6872393D02*
X6872669D01*
X6872942Y13958752D01*
X6873216Y13958733D01*
X6873485Y13958667D01*
X6873757Y13958624D01*
X6874020Y13958539D01*
X6874288Y13958475D01*
X6874542Y13958369D01*
X6874805Y13958284D01*
X6876643Y13957523D01*
X6876890Y13957397D01*
X6877143Y13957292D01*
X6877377Y13957149D01*
X6877625Y13957022D01*
X6877849Y13956859D01*
X6878083Y13956715D01*
X6878292Y13956537D01*
X6878516Y13956375D01*
X6878712Y13956178D01*
X6878921Y13956000D01*
X6880327Y13954594D01*
X6880507Y13954382D01*
X6880702Y13954189D01*
X6880863Y13953966D01*
X6881043Y13953757D01*
X6881186Y13953522D01*
X6881349Y13953297D01*
X6881475Y13953050D01*
X6881619Y13952815D01*
X6881724Y13952563D01*
X6881850Y13952316D01*
X6882611Y13950478D01*
X6882696Y13950217D01*
X6882802Y13949960D01*
X6882866Y13949693D01*
X6882951Y13949431D01*
X6882994Y13949159D01*
X6883059Y13948889D01*
X6883081Y13948611D01*
X6883123Y13948341D01*
Y13948068D01*
X6883145Y13947791D01*
Y13946797D01*
Y13616797D01*
Y13615802D01*
X6883124Y13615527D01*
Y13615251D01*
X6883080Y13614980D01*
X6883059Y13614703D01*
X6882994Y13614435D01*
X6882951Y13614163D01*
X6882866Y13613901D01*
X6882802Y13613632D01*
X6882696Y13613377D01*
X6882611Y13613115D01*
X6881850Y13611276D01*
X6881724Y13611031D01*
X6881619Y13610777D01*
X6881475Y13610542D01*
X6881349Y13610297D01*
X6881186Y13610071D01*
X6881043Y13609837D01*
X6880865Y13609628D01*
X6880702Y13609404D01*
X6880506Y13609209D01*
X6880327Y13609000D01*
X6878921Y13607593D01*
X6878712Y13607414D01*
X6878515Y13607217D01*
X6878292Y13607056D01*
X6878083Y13606877D01*
X6877848Y13606734D01*
X6877624Y13606570D01*
X6877378Y13606445D01*
X6877143Y13606300D01*
X6876888Y13606197D01*
X6876642Y13606070D01*
X6874804Y13605309D01*
X6874541Y13605225D01*
X6874288Y13605119D01*
X6874020Y13605055D01*
X6873757Y13604968D01*
X6873484Y13604926D01*
X6873216Y13604861D01*
X6872941Y13604840D01*
X6872668Y13604797D01*
X6872393D01*
X6872118Y13604774D01*
X6855129D01*
X6854854Y13604797D01*
X6854579D01*
X6854306Y13604840D01*
X6854031Y13604861D01*
X6853763Y13604926D01*
X6853490Y13604968D01*
X6853227Y13605055D01*
X6852959Y13605119D01*
X6852706Y13605225D01*
X6852443Y13605309D01*
X6850605Y13606070D01*
X6850358Y13606197D01*
X6850104Y13606300D01*
X6849870Y13606445D01*
X6849623Y13606570D01*
X6849398Y13606734D01*
X6849164Y13606877D01*
X6848956Y13607056D01*
X6848732Y13607217D01*
X6848535Y13607414D01*
X6848326Y13607593D01*
X6846920Y13609000D01*
X6846741Y13609209D01*
X6846545Y13609406D01*
X6846382Y13609628D01*
X6846204Y13609837D01*
X6846060Y13610072D01*
X6845897Y13610297D01*
X6845772Y13610542D01*
X6845628Y13610777D01*
X6845523Y13611032D01*
X6845397Y13611278D01*
X6844636Y13613116D01*
X6844551Y13613379D01*
X6844446Y13613632D01*
X6844382Y13613901D01*
X6844296Y13614165D01*
X6844253Y13614436D01*
X6844188Y13614703D01*
X6844167Y13614980D01*
X6844124Y13615253D01*
Y13615527D01*
X6844102Y13615802D01*
Y13616797D01*
Y13946797D01*
Y13947791D01*
X6844124Y13948067D01*
Y13948341D01*
X6844167Y13948615D01*
X6844188Y13948889D01*
X6844253Y13949158D01*
X6844296Y13949429D01*
X6844382Y13949693D01*
X6844446Y13949960D01*
X6844551Y13950214D01*
X6844636Y13950478D01*
X6845397Y13952315D01*
X6845523Y13952562D01*
X6845628Y13952815D01*
X6845772Y13953050D01*
X6845897Y13953297D01*
X6846061Y13953522D01*
X6846204Y13953757D01*
X6846382Y13953964D01*
X6846545Y13954189D01*
X6846741Y13954385D01*
X6846920Y13954594D01*
X6848326Y13956000D01*
X6848537Y13956180D01*
X6848731Y13956374D01*
X6848954Y13956535D01*
X6849164Y13956715D01*
X6849398Y13956859D01*
X6849623Y13957022D01*
X6849870Y13957149D01*
X6850104Y13957292D01*
X6850357Y13957397D01*
X6850604Y13957523D01*
X6852442Y13958282D01*
X6852704Y13958369D01*
X6852959Y13958475D01*
X6853227Y13958539D01*
X6853489Y13958624D01*
X6853762Y13958667D01*
X6854031Y13958733D01*
X6854308Y13958754D01*
X6854578Y13958797D01*
X6854852D01*
X6855129Y13958818D01*
X6872118D01*
X6872393Y13958797D01*
D02*
G37*
G36*
X19610287Y11650694D02*
X19611359Y11650437D01*
X19611780Y11650262D01*
X19612376Y11650015D01*
X19613316Y11649439D01*
X19614153Y11648724D01*
Y11648724D01*
X19614154D01*
X19614870Y11647886D01*
X19615445Y11646946D01*
X19615692Y11646350D01*
X19615868Y11645929D01*
X19616124Y11644857D01*
X19616209Y11643759D01*
D01*
Y11643759D01*
Y11473759D01*
X19616124Y11472660D01*
X19615868Y11471589D01*
X19615445Y11470571D01*
X19614870Y11469631D01*
X19614154Y11468794D01*
X19613316Y11468078D01*
X19612376Y11467502D01*
X19611359Y11467081D01*
X19610287Y11466823D01*
X19609189Y11466737D01*
X19449190D01*
D01*
X19449188D01*
X19448090Y11466823D01*
X19447018Y11467081D01*
X19446001Y11467502D01*
X19445061Y11468078D01*
X19444225Y11468794D01*
X19443507Y11469631D01*
X19442932Y11470571D01*
X19442511Y11471589D01*
X19442253Y11472660D01*
X19442168Y11473759D01*
Y11473759D01*
D01*
X19442169Y11568759D01*
X19442194Y11569061D01*
X19442195Y11569360D01*
X19442235Y11569606D01*
X19442255Y11569857D01*
X19442326Y11570151D01*
X19442375Y11570447D01*
X19442455Y11570685D01*
X19442513Y11570928D01*
X19442628Y11571207D01*
X19442723Y11571493D01*
X19442838Y11571715D01*
X19442934Y11571946D01*
X19443091Y11572203D01*
X19443230Y11572471D01*
X19443381Y11572673D01*
X19443510Y11572886D01*
X19443706Y11573114D01*
X19443884Y11573357D01*
X19508882Y11648353D01*
X19509061Y11648529D01*
X19509222Y11648719D01*
X19509451Y11648914D01*
X19509666Y11649127D01*
X19509872Y11649273D01*
X19510062Y11649435D01*
X19510316Y11649592D01*
X19510564Y11649768D01*
X19510786Y11649880D01*
X19511002Y11650011D01*
X19511279Y11650126D01*
X19511548Y11650261D01*
X19511786Y11650336D01*
X19512019Y11650433D01*
X19512314Y11650503D01*
X19512599Y11650594D01*
X19512843Y11650631D01*
X19513091Y11650690D01*
X19513394Y11650714D01*
X19513689Y11650758D01*
X19513936Y11650756D01*
X19514188Y11650776D01*
X19609187Y11650780D01*
D01*
X19609189D01*
X19610287Y11650694D01*
D02*
G37*
D30*
X7892727Y15550806D02*
D03*
D31*
X16915366Y14183066D02*
D03*
X14968103Y14046107D02*
D03*
D47*
X18128987Y13945331D02*
D03*
D123*
X17675589Y7540837D02*
D03*
D124*
X17395589Y7963337D02*
D03*
Y7898339D02*
D03*
Y7833335D02*
D03*
Y7768337D02*
D03*
Y7703338D02*
D03*
Y7638339D02*
D03*
Y7573336D02*
D03*
Y7508337D02*
D03*
Y7443338D02*
D03*
Y7378340D02*
D03*
Y7313336D02*
D03*
Y7248338D02*
D03*
Y7183339D02*
D03*
Y7118335D02*
D03*
X17955591Y7963337D02*
D03*
Y7898339D02*
D03*
Y7833335D02*
D03*
Y7768337D02*
D03*
Y7703338D02*
D03*
Y7638339D02*
D03*
Y7573336D02*
D03*
Y7508337D02*
D03*
Y7443338D02*
D03*
Y7378340D02*
D03*
Y7313336D02*
D03*
Y7248338D02*
D03*
Y7183339D02*
D03*
Y7118335D02*
D03*
D125*
X17655540Y8108638D02*
D03*
X17744440D02*
D03*
X17655540Y6965638D02*
D03*
X17744440D02*
D03*
X17172940Y8057838D02*
D03*
X17084039D02*
D03*
X17172940Y7676838D02*
D03*
X17084039D02*
D03*
Y7562538D02*
D03*
X17172940D02*
D03*
X7321448Y15044241D02*
D03*
X7410348D02*
D03*
X18104544Y13574355D02*
D03*
X18193443D02*
D03*
X8035290Y16012003D02*
D03*
X7946390D02*
D03*
X16722090Y18399760D02*
D03*
X16810989D02*
D03*
X17039590Y18441919D02*
D03*
X17128490D02*
D03*
X7912389Y16383437D02*
D03*
X7823489D02*
D03*
X18490936Y13166417D02*
D03*
X18402037D02*
D03*
X13347701Y4536283D02*
D03*
X13436600D02*
D03*
X6772684Y14107858D02*
D03*
X6683784D02*
D03*
X6370752Y10445804D02*
D03*
X6459652D02*
D03*
X5418252Y9391701D02*
D03*
X5329352D02*
D03*
X6129452Y9391704D02*
D03*
X6218352D02*
D03*
X6478701Y9391705D02*
D03*
X6389801D02*
D03*
X5659550Y9391701D02*
D03*
X5748450D02*
D03*
X3335450Y9760001D02*
D03*
X3246550D02*
D03*
X3335450Y9887001D02*
D03*
X3246550D02*
D03*
X3335450Y9379001D02*
D03*
X3246550D02*
D03*
X3335450Y9252001D02*
D03*
X3246550D02*
D03*
X3335450Y9633001D02*
D03*
X3246550D02*
D03*
X3246551Y9506002D02*
D03*
X3335451D02*
D03*
X3335450Y10268001D02*
D03*
X3246550D02*
D03*
X3335450Y10522001D02*
D03*
X3246550D02*
D03*
Y10395001D02*
D03*
X3335450D02*
D03*
Y10776001D02*
D03*
X3246550D02*
D03*
X3335450Y10649001D02*
D03*
X3246550D02*
D03*
X3335450Y10141001D02*
D03*
X3246550D02*
D03*
X3335450Y10014001D02*
D03*
X3246550D02*
D03*
X4186350Y9531401D02*
D03*
X4097450D02*
D03*
X4186350Y9798101D02*
D03*
X4097450D02*
D03*
X4186350Y9975901D02*
D03*
X4097450D02*
D03*
X4186350Y9442501D02*
D03*
X4097450D02*
D03*
Y10153701D02*
D03*
X4186350D02*
D03*
Y10509301D02*
D03*
X4097450D02*
D03*
X4186350Y9264701D02*
D03*
X4097450D02*
D03*
X4188282Y10864944D02*
D03*
X4099382D02*
D03*
X4097450Y10687101D02*
D03*
X4186350D02*
D03*
X4097450Y10331501D02*
D03*
X4186350D02*
D03*
Y9620301D02*
D03*
X4097450D02*
D03*
X5456352Y10445804D02*
D03*
X5545252D02*
D03*
X5646850D02*
D03*
X5735750D02*
D03*
X8920911Y12416842D02*
D03*
X8832011D02*
D03*
X9081926Y9584527D02*
D03*
X9170826D02*
D03*
X9630415Y6958782D02*
D03*
X9541515D02*
D03*
X9665985Y13330779D02*
D03*
X9577085D02*
D03*
X12127230Y14257021D02*
D03*
X12038330D02*
D03*
X18027386Y14528897D02*
D03*
X17938487D02*
D03*
X18217886D02*
D03*
X18128987D02*
D03*
X18653638Y11322759D02*
D03*
X18564738D02*
D03*
X18844138D02*
D03*
X18755238D02*
D03*
X19300287Y11377369D02*
D03*
X19389188D02*
D03*
X8782049Y2080263D02*
D03*
X8870949D02*
D03*
X8782049Y2181860D02*
D03*
X8870949D02*
D03*
X7623809Y2075183D02*
D03*
X7712709D02*
D03*
X7621269Y2176780D02*
D03*
X7710169D02*
D03*
X8586469Y1732283D02*
D03*
X8675369D02*
D03*
X9732009Y1714503D02*
D03*
X9820909D02*
D03*
X10481325Y13330779D02*
D03*
X10392425D02*
D03*
X10141041D02*
D03*
X10229941D02*
D03*
X9765071D02*
D03*
X9853971D02*
D03*
X10041956D02*
D03*
X9953056D02*
D03*
X17362170Y18023840D02*
D03*
X17273270D02*
D03*
X17359630Y17820641D02*
D03*
X17270731D02*
D03*
X18667731Y18428902D02*
D03*
X18578830D02*
D03*
X18581371Y18329816D02*
D03*
X18670270D02*
D03*
X18903951Y17470119D02*
D03*
X18992850D02*
D03*
X19131915Y18018784D02*
D03*
X19043016D02*
D03*
X19132550Y17919699D02*
D03*
X19043649D02*
D03*
X18992850Y17569180D02*
D03*
X18903951D02*
D03*
X18581461Y15674339D02*
D03*
X18492561D02*
D03*
X17776190D02*
D03*
X17687289D02*
D03*
X16429265Y15557574D02*
D03*
X16518166D02*
D03*
X15289992Y15234920D02*
D03*
X15201093D02*
D03*
X16347440Y15082520D02*
D03*
X16258540D02*
D03*
X16348711Y14983435D02*
D03*
X16259810D02*
D03*
X16300450Y16321063D02*
D03*
X16211549D02*
D03*
X15867767Y16304691D02*
D03*
X15956668D02*
D03*
X16297910Y16221979D02*
D03*
X16209010D02*
D03*
X13434566Y15458440D02*
D03*
X13523465D02*
D03*
X15383510Y16221979D02*
D03*
X15472411D02*
D03*
X15375890Y15035205D02*
D03*
X15464790D02*
D03*
X15375890Y14936119D02*
D03*
X15464790D02*
D03*
X18263327Y16029877D02*
D03*
X18352226D02*
D03*
X18591647Y15927342D02*
D03*
X18680547D02*
D03*
X18591647Y15430501D02*
D03*
X18680547D02*
D03*
X18481039Y15325604D02*
D03*
X18569940D02*
D03*
X18274757D02*
D03*
X18363657D02*
D03*
X17018214Y15207146D02*
D03*
X17107115D02*
D03*
X17018214Y15108061D02*
D03*
X17107115D02*
D03*
X17017693Y16071655D02*
D03*
X17106593D02*
D03*
X17017693Y16170741D02*
D03*
X17106593D02*
D03*
X18208084Y18384067D02*
D03*
X18296983D02*
D03*
X18208084Y18483363D02*
D03*
X18296983D02*
D03*
X15865662Y17895798D02*
D03*
X15954561D02*
D03*
X15865057Y17697626D02*
D03*
X15953957D02*
D03*
X15866280Y17994882D02*
D03*
X15955179D02*
D03*
X15865057Y17796712D02*
D03*
X15953957D02*
D03*
X15866895Y18093968D02*
D03*
X15955795D02*
D03*
X15866280Y18193053D02*
D03*
X15955179D02*
D03*
X18213933Y17529222D02*
D03*
X18302834D02*
D03*
X18214703Y17430136D02*
D03*
X18303604D02*
D03*
X15666457Y18139200D02*
D03*
X15755356D02*
D03*
X15665839Y17946913D02*
D03*
X15754738D02*
D03*
X15664616Y17745081D02*
D03*
X15753516D02*
D03*
X12147550Y1165860D02*
D03*
X12236450D02*
D03*
X12952730Y1150620D02*
D03*
X13041631D02*
D03*
X11487150Y1803400D02*
D03*
X11576050D02*
D03*
X17849850Y2654300D02*
D03*
X17760950D02*
D03*
X13362939Y1163320D02*
D03*
X13451840D02*
D03*
X15436850Y3060700D02*
D03*
X15525751D02*
D03*
X15436850Y2933700D02*
D03*
X15525751D02*
D03*
X15436850Y2819400D02*
D03*
X15525751D02*
D03*
X15436850Y2667000D02*
D03*
X15525751D02*
D03*
X16871950Y3060700D02*
D03*
X16960851D02*
D03*
X16871950Y2933700D02*
D03*
X16960851D02*
D03*
X16871950Y2806700D02*
D03*
X16960851D02*
D03*
X16871950Y2679700D02*
D03*
X16960851D02*
D03*
X14674849Y4622800D02*
D03*
X14763750D02*
D03*
X14027150Y5257799D02*
D03*
X13938251D02*
D03*
X13451840Y4806196D02*
D03*
X13362939D02*
D03*
Y4895096D02*
D03*
X13451840D02*
D03*
X14306551Y5016499D02*
D03*
X14217650D02*
D03*
X13362939Y4717296D02*
D03*
X13451840D02*
D03*
X16538608Y14118062D02*
D03*
X16449709D02*
D03*
X11639550Y2971800D02*
D03*
X11550650D02*
D03*
X13601184Y17577727D02*
D03*
X13512283D02*
D03*
D126*
X18322290Y7327588D02*
D03*
Y7238688D02*
D03*
X18220689Y7772088D02*
D03*
Y7683188D02*
D03*
Y7327588D02*
D03*
Y7238688D02*
D03*
X18119090Y7772088D02*
D03*
Y7683188D02*
D03*
Y7238688D02*
D03*
Y7327588D02*
D03*
X17156503Y7053943D02*
D03*
Y6965043D02*
D03*
X18538205Y11605209D02*
D03*
Y11516309D02*
D03*
X7106258Y13567348D02*
D03*
Y13656247D02*
D03*
X15419395Y14108057D02*
D03*
Y14019157D02*
D03*
X17244060Y18332449D02*
D03*
Y18243550D02*
D03*
X15793719Y14139453D02*
D03*
Y14050552D02*
D03*
X17259274Y11039232D02*
D03*
Y11128132D02*
D03*
X17872588Y12319709D02*
D03*
Y12408609D02*
D03*
X6684002Y14206944D02*
D03*
Y14295844D02*
D03*
X6707300Y10312451D02*
D03*
Y10401351D02*
D03*
X11439736Y11873282D02*
D03*
Y11784382D02*
D03*
X11441861Y10269272D02*
D03*
Y10180372D02*
D03*
X10991011Y9584648D02*
D03*
Y9495748D02*
D03*
X9630415Y7366452D02*
D03*
Y7277552D02*
D03*
X14442232Y14490471D02*
D03*
Y14579372D02*
D03*
X19032291Y14000880D02*
D03*
Y14089781D02*
D03*
X14237180Y7833589D02*
D03*
Y7744689D02*
D03*
X14107637Y6566129D02*
D03*
Y6655029D02*
D03*
Y7744494D02*
D03*
Y7833394D02*
D03*
X14242261Y6655223D02*
D03*
Y6566323D02*
D03*
X10718815Y13568269D02*
D03*
Y13657169D02*
D03*
Y13380309D02*
D03*
Y13469209D02*
D03*
X9286255Y14226129D02*
D03*
Y14137228D02*
D03*
X10619755Y13944189D02*
D03*
Y14033089D02*
D03*
X10721355Y13944189D02*
D03*
Y14033089D02*
D03*
X10619755Y13756229D02*
D03*
Y13845129D02*
D03*
X10721355Y13756229D02*
D03*
Y13845129D02*
D03*
X10619755Y13380309D02*
D03*
Y13469209D02*
D03*
Y13568269D02*
D03*
Y13657169D02*
D03*
X9390395Y14228642D02*
D03*
Y14139743D02*
D03*
X10622295Y14411549D02*
D03*
Y14322649D02*
D03*
X10619755Y14223563D02*
D03*
Y14134663D02*
D03*
X9390395Y13514929D02*
D03*
Y13603828D02*
D03*
Y13702888D02*
D03*
Y13791789D02*
D03*
X9391665Y14416629D02*
D03*
Y14327728D02*
D03*
X9390395Y13890849D02*
D03*
Y13979749D02*
D03*
X17242899Y17552670D02*
D03*
Y17641570D02*
D03*
X18524220Y18098770D02*
D03*
Y18009869D02*
D03*
X18524219Y17821910D02*
D03*
Y17910809D02*
D03*
X18008575Y16094710D02*
D03*
Y16183611D02*
D03*
X18033975Y15253970D02*
D03*
Y15165070D02*
D03*
X18107660Y16029877D02*
D03*
Y16118776D02*
D03*
X18133060Y15236189D02*
D03*
Y15325090D02*
D03*
X15289992Y15543530D02*
D03*
Y15632430D02*
D03*
X15190907Y15543530D02*
D03*
Y15632430D02*
D03*
X16695421Y17366248D02*
D03*
Y17455147D02*
D03*
X16990764Y17366248D02*
D03*
Y17455147D02*
D03*
X18353897Y16128961D02*
D03*
Y16217860D02*
D03*
X18492561Y15839729D02*
D03*
Y15928629D02*
D03*
X18779633Y15927342D02*
D03*
Y15838441D02*
D03*
X18492561Y15519402D02*
D03*
Y15430501D02*
D03*
X18569940Y15226518D02*
D03*
Y15137617D02*
D03*
X16919130Y15202592D02*
D03*
Y15113693D02*
D03*
X16918608Y16166103D02*
D03*
Y16077202D02*
D03*
X18301028Y17331052D02*
D03*
Y17242151D02*
D03*
X18301065Y18284982D02*
D03*
Y18196082D02*
D03*
X17634171Y17393631D02*
D03*
Y17482532D02*
D03*
X17534909Y17343634D02*
D03*
Y17432533D02*
D03*
X18108998Y18384303D02*
D03*
Y18473203D02*
D03*
X18114848Y17429123D02*
D03*
Y17518024D02*
D03*
X17631630Y18492834D02*
D03*
Y18403935D02*
D03*
X17532368Y18542838D02*
D03*
Y18453937D02*
D03*
X16397842Y17028711D02*
D03*
Y17117612D02*
D03*
X16411322Y18861591D02*
D03*
Y18772690D02*
D03*
X16364984Y18655009D02*
D03*
Y18566110D02*
D03*
X16464983Y18655009D02*
D03*
Y18566110D02*
D03*
X16449092Y17218239D02*
D03*
Y17307140D02*
D03*
X16350006Y17218239D02*
D03*
Y17307140D02*
D03*
X18199100Y5403850D02*
D03*
Y5314950D02*
D03*
X18199101Y5124450D02*
D03*
Y5213350D02*
D03*
X12598400Y3740150D02*
D03*
Y3651250D02*
D03*
X11671300Y1892300D02*
D03*
Y1803400D02*
D03*
X14528799Y1708150D02*
D03*
Y1797050D02*
D03*
X14427200D02*
D03*
Y1708150D02*
D03*
X14325600D02*
D03*
Y1797050D02*
D03*
X15417799Y2127250D02*
D03*
Y2216150D02*
D03*
X15519400D02*
D03*
Y2127250D02*
D03*
X15316200D02*
D03*
Y2216150D02*
D03*
X17653000Y1835150D02*
D03*
Y1746250D02*
D03*
X17094200Y2190750D02*
D03*
Y2279650D02*
D03*
X16992599Y2190750D02*
D03*
Y2279650D02*
D03*
X16090900Y1758950D02*
D03*
Y1670050D02*
D03*
X16891000Y2279650D02*
D03*
Y2190750D02*
D03*
X18910300Y3397250D02*
D03*
Y3308350D02*
D03*
X18783299D02*
D03*
Y3397250D02*
D03*
X15519400Y2444750D02*
D03*
Y2533650D02*
D03*
X16954500Y2444750D02*
D03*
Y2533650D02*
D03*
X18783299Y1454150D02*
D03*
Y1543050D02*
D03*
X18910300D02*
D03*
Y1454150D02*
D03*
X13690601Y5251450D02*
D03*
Y5162550D02*
D03*
X13601701D02*
D03*
Y5251450D02*
D03*
X13779501Y5162550D02*
D03*
Y5251450D02*
D03*
X13512801D02*
D03*
Y5162550D02*
D03*
X13804900Y4375150D02*
D03*
Y4286250D02*
D03*
X13893799D02*
D03*
Y4375150D02*
D03*
X16802100Y5124450D02*
D03*
Y5213350D02*
D03*
X16802101Y5403850D02*
D03*
Y5314950D02*
D03*
X17601167Y13732455D02*
D03*
Y13643556D02*
D03*
X16979900Y10674349D02*
D03*
Y10585449D02*
D03*
X6799580Y1371600D02*
D03*
Y1460500D02*
D03*
X7127240Y1366520D02*
D03*
Y1455420D02*
D03*
X6215379Y1369060D02*
D03*
Y1457960D02*
D03*
X6507480Y1369060D02*
D03*
Y1457960D02*
D03*
D127*
X8386420Y1374460D02*
D03*
X7986420Y2049460D02*
D03*
Y1374460D02*
D03*
X8386420Y2049460D02*
D03*
X9504020D02*
D03*
X9104020Y1374460D02*
D03*
Y2049460D02*
D03*
X9504020Y1374460D02*
D03*
X10535261Y2026599D02*
D03*
X10135262Y1351599D02*
D03*
Y2026599D02*
D03*
X10535261Y1351599D02*
D03*
D128*
X7272019Y13440411D02*
D03*
Y13610591D02*
D03*
X7282823Y14059598D02*
D03*
Y13879259D02*
D03*
X18393288Y12131749D02*
D03*
Y11961569D02*
D03*
X7049117Y14068463D02*
D03*
Y14238643D02*
D03*
X8520695Y11610392D02*
D03*
Y11780572D02*
D03*
X11504506Y11394492D02*
D03*
Y11564672D02*
D03*
X11505361Y10698532D02*
D03*
Y10528352D02*
D03*
X11510441Y9786672D02*
D03*
Y9956852D02*
D03*
X10525100Y9520771D02*
D03*
Y9350591D02*
D03*
X11504506Y12042192D02*
D03*
Y12212372D02*
D03*
X14693900Y1578610D02*
D03*
Y1748790D02*
D03*
X15151100Y1997710D02*
D03*
Y2167890D02*
D03*
X17589500Y2480310D02*
D03*
Y2650490D02*
D03*
D129*
X6671655Y6637545D02*
D03*
X7511654D02*
D03*
Y4313445D02*
D03*
X6671655D02*
D03*
X7511654Y3157745D02*
D03*
X6671655D02*
D03*
X6677492Y5471809D02*
D03*
X7517490D02*
D03*
X12170631Y17595506D02*
D03*
X13010634D02*
D03*
X8968642Y8650370D02*
D03*
X8128639D02*
D03*
X6491401Y8401102D02*
D03*
X5651402D02*
D03*
X9260159Y18849026D02*
D03*
X10100157D02*
D03*
X14942821Y8905240D02*
D03*
X14102821D02*
D03*
X15788091Y12265363D02*
D03*
X16628094D02*
D03*
X12247427Y15687041D02*
D03*
X13087431D02*
D03*
D130*
X14195621Y11069602D02*
D03*
X13906061D02*
D03*
X8076450Y16193639D02*
D03*
X7786890D02*
D03*
X18301186Y13351286D02*
D03*
X18011626D02*
D03*
X10268381Y8876082D02*
D03*
X10557941D02*
D03*
X10265841Y8162342D02*
D03*
X10555401D02*
D03*
X10268381Y8520482D02*
D03*
X10557941D02*
D03*
X7446325Y15226576D02*
D03*
X7156765D02*
D03*
X14195621Y11344602D02*
D03*
X13906061D02*
D03*
X19362846Y12827292D02*
D03*
X19073286D02*
D03*
X19362846Y13091476D02*
D03*
X19073286D02*
D03*
D131*
X18586470Y14050970D02*
D03*
Y14340530D02*
D03*
X18850655Y14053535D02*
D03*
Y14343095D02*
D03*
X11962161Y7268662D02*
D03*
Y6979102D02*
D03*
X12725840Y12664381D02*
D03*
Y12374821D02*
D03*
X15609621Y14173387D02*
D03*
Y13883827D02*
D03*
X18367888Y12483114D02*
D03*
Y12772674D02*
D03*
X18089621Y12483513D02*
D03*
Y12773073D02*
D03*
X14623866Y14764790D02*
D03*
Y14475230D02*
D03*
X14947900Y4615180D02*
D03*
Y4325620D02*
D03*
X14490701Y4615180D02*
D03*
Y4325620D02*
D03*
X17417377Y13458134D02*
D03*
Y13747694D02*
D03*
X17151529Y13457388D02*
D03*
Y13746948D02*
D03*
X17069296Y10939219D02*
D03*
Y11228779D02*
D03*
D132*
X7127239Y1217879D02*
D03*
Y1052880D02*
D03*
X6799579Y1217879D02*
D03*
Y1052880D02*
D03*
X6507479Y1217879D02*
D03*
Y1052880D02*
D03*
X6215379Y1220171D02*
D03*
Y1055173D02*
D03*
D133*
X18709187Y11558760D02*
D03*
Y12568761D02*
D03*
X19529185D02*
D03*
D134*
X18676691Y12063758D02*
D03*
Y11973761D02*
D03*
Y11883758D02*
D03*
Y11793761D02*
D03*
Y11703759D02*
D03*
Y12153760D02*
D03*
Y12243758D02*
D03*
Y12333760D02*
D03*
Y12423757D02*
D03*
X19561688D02*
D03*
Y12333760D02*
D03*
Y12243758D02*
D03*
Y12153760D02*
D03*
Y11703759D02*
D03*
Y11793761D02*
D03*
Y11883758D02*
D03*
Y11973761D02*
D03*
Y12063758D02*
D03*
D135*
X19119189Y11521260D02*
D03*
X19209187D02*
D03*
X19299190D02*
D03*
X19389188D02*
D03*
X19029187D02*
D03*
X18939191D02*
D03*
X18849188D02*
D03*
Y12606261D02*
D03*
X18939191D02*
D03*
X19029187D02*
D03*
X19389188D02*
D03*
X19299190D02*
D03*
X19209187D02*
D03*
X19119189D02*
D03*
D136*
X19249187Y12074761D02*
D03*
D137*
X19251189Y12422756D02*
D03*
D138*
X18854185Y12195757D02*
D03*
D139*
X18886189Y12469757D02*
D03*
D140*
X19141191Y11733761D02*
D03*
D141*
X7652728Y15485802D02*
D03*
Y15550806D02*
D03*
Y15615804D02*
D03*
Y15680801D02*
D03*
X8132727D02*
D03*
Y15615804D02*
D03*
Y15550806D02*
D03*
Y15485802D02*
D03*
Y15420802D02*
D03*
X7652728D02*
D03*
X17155365Y14053064D02*
D03*
Y14118062D02*
D03*
Y14183066D02*
D03*
Y14248064D02*
D03*
Y14313063D02*
D03*
X16675366Y14118062D02*
D03*
Y14053064D02*
D03*
Y14313063D02*
D03*
Y14248064D02*
D03*
Y14183066D02*
D03*
X14728104Y14176109D02*
D03*
Y14111111D02*
D03*
Y14046107D02*
D03*
Y13981108D02*
D03*
Y13916110D02*
D03*
X15208102Y14111111D02*
D03*
Y14176109D02*
D03*
Y13916110D02*
D03*
Y13981108D02*
D03*
Y14046107D02*
D03*
D142*
X7892727Y15790804D02*
D03*
X7957726D02*
D03*
X8022724D02*
D03*
X7762725D02*
D03*
X7827723D02*
D03*
X8022724Y15310805D02*
D03*
X7957726D02*
D03*
X7892727D02*
D03*
X7827723D02*
D03*
X7762725D02*
D03*
X17045363Y13943066D02*
D03*
Y14423065D02*
D03*
X16980365D02*
D03*
X16915366D02*
D03*
X16850368D02*
D03*
X16785364D02*
D03*
Y13943066D02*
D03*
X16850368D02*
D03*
X16915366D02*
D03*
X16980365D02*
D03*
X14838101Y14286107D02*
D03*
Y13806108D02*
D03*
X14903099D02*
D03*
X14968103D02*
D03*
X15033102D02*
D03*
X15098100D02*
D03*
Y14286107D02*
D03*
X15033102D02*
D03*
X14968103D02*
D03*
X14903099D02*
D03*
X18258984Y13705338D02*
D03*
X18193985D02*
D03*
X18128987D02*
D03*
X18063988D02*
D03*
X17998985D02*
D03*
Y14185336D02*
D03*
X18063988D02*
D03*
X18128987D02*
D03*
X18193985D02*
D03*
X18258984D02*
D03*
D143*
X14193103Y15534641D02*
D03*
Y16374643D02*
D03*
X11028225Y18033324D02*
D03*
Y17193326D02*
D03*
X14451707Y18560707D02*
D03*
Y17720709D02*
D03*
D144*
X11545601Y6463482D02*
D03*
Y6971482D02*
D03*
Y7733482D02*
D03*
X9958101Y6463482D02*
D03*
Y6971482D02*
D03*
Y6717482D02*
D03*
Y7479482D02*
D03*
Y7225482D02*
D03*
X10275601Y7733482D02*
D03*
X9958101D02*
D03*
X10041086Y16742072D02*
D03*
Y17250072D02*
D03*
Y18012071D02*
D03*
X8453586Y16742072D02*
D03*
Y17250072D02*
D03*
Y16996071D02*
D03*
Y17758070D02*
D03*
Y17504071D02*
D03*
X8771086Y18012071D02*
D03*
X8453586D02*
D03*
X14443341Y11759600D02*
D03*
X13490842D02*
D03*
X15078342Y12077100D02*
D03*
Y11759600D02*
D03*
Y12712100D02*
D03*
X13490842Y13029601D02*
D03*
X15078342Y12394600D02*
D03*
Y13029601D02*
D03*
X13173341Y11759600D02*
D03*
Y12712100D02*
D03*
Y13029601D02*
D03*
D145*
X7815932Y12119069D02*
D03*
Y12024068D02*
D03*
Y11929072D02*
D03*
X8075931D02*
D03*
Y12119069D02*
D03*
X16937813Y6723169D02*
D03*
Y6628168D02*
D03*
Y6533172D02*
D03*
X17197813D02*
D03*
Y6723169D02*
D03*
D146*
X17440002Y8904998D02*
D03*
Y9394999D02*
D03*
D147*
X6708761Y12165912D02*
D03*
X9143225Y14888853D02*
D03*
X4849502Y8496352D02*
D03*
X14546410Y3515416D02*
D03*
X16272511Y6719859D02*
D03*
X17631630Y16430020D02*
D03*
D148*
X6698623Y13881798D02*
D03*
Y13831795D02*
D03*
Y13781798D02*
D03*
Y13731795D02*
D03*
Y13681798D02*
D03*
X6978622Y13881798D02*
D03*
Y13831795D02*
D03*
Y13781798D02*
D03*
Y13731795D02*
D03*
Y13681798D02*
D03*
D149*
X6838622Y13781798D02*
D03*
D150*
X6460095Y13557039D02*
D03*
X6310235D02*
D03*
X6461365Y13736465D02*
D03*
X6311505D02*
D03*
X6460095Y13922189D02*
D03*
X6310235D02*
D03*
X6460095Y14104765D02*
D03*
X6310235D02*
D03*
X18280116Y14388066D02*
D03*
X18130257D02*
D03*
D151*
X6683784Y14013853D02*
D03*
X6739664D02*
D03*
D152*
X5555410Y9213901D02*
D03*
X5725590D02*
D03*
X6139612Y9213904D02*
D03*
X6309792D02*
D03*
X3205910Y11017301D02*
D03*
X3376090D02*
D03*
X5606210Y10623601D02*
D03*
X5776390D02*
D03*
X9728631Y9523782D02*
D03*
X9898811D02*
D03*
X8763431Y9490762D02*
D03*
X8933611D02*
D03*
X10419511Y12482882D02*
D03*
X10589691D02*
D03*
X9945748Y12483363D02*
D03*
X9775568D02*
D03*
D153*
X6535002Y10160005D02*
D03*
Y10080000D02*
D03*
Y9760001D02*
D03*
X6455002Y9680001D02*
D03*
X6375002Y10160005D02*
D03*
Y10080000D02*
D03*
Y9680001D02*
D03*
X6215002Y10080000D02*
D03*
X6135002Y10160005D02*
D03*
Y9680001D02*
D03*
X6055003Y10160005D02*
D03*
X5975003Y10080000D02*
D03*
Y9760001D02*
D03*
Y9680001D02*
D03*
X5334999Y9600001D02*
D03*
Y9680001D02*
D03*
Y9760001D02*
D03*
Y10080000D02*
D03*
Y10160005D02*
D03*
Y10240005D02*
D03*
X5414999Y9600001D02*
D03*
Y9680001D02*
D03*
Y9760001D02*
D03*
Y10080000D02*
D03*
Y10160005D02*
D03*
Y10240005D02*
D03*
X5494999Y9600001D02*
D03*
Y9680001D02*
D03*
Y9760001D02*
D03*
Y10080000D02*
D03*
Y10160005D02*
D03*
Y10240005D02*
D03*
X5574999Y9600001D02*
D03*
Y9680001D02*
D03*
Y9760001D02*
D03*
Y10080000D02*
D03*
Y10160005D02*
D03*
Y10240005D02*
D03*
X5654998Y9600001D02*
D03*
Y9680001D02*
D03*
Y9760001D02*
D03*
Y10080000D02*
D03*
Y10160005D02*
D03*
Y10240005D02*
D03*
X5734998Y9600001D02*
D03*
Y9680001D02*
D03*
Y9760001D02*
D03*
Y10080000D02*
D03*
Y10160005D02*
D03*
Y10240005D02*
D03*
X5814998Y9600001D02*
D03*
Y9680001D02*
D03*
Y9760001D02*
D03*
Y10080000D02*
D03*
Y10160005D02*
D03*
Y10240005D02*
D03*
X5895003Y9600001D02*
D03*
Y9680001D02*
D03*
Y9760001D02*
D03*
Y10080000D02*
D03*
Y10160005D02*
D03*
Y10240005D02*
D03*
X5975003Y9600001D02*
D03*
Y10160005D02*
D03*
Y10240005D02*
D03*
X6055003Y9600001D02*
D03*
Y9680001D02*
D03*
Y9760001D02*
D03*
Y10080000D02*
D03*
Y10240005D02*
D03*
X6135002Y9600001D02*
D03*
Y9760001D02*
D03*
Y10080000D02*
D03*
Y10240005D02*
D03*
X6215002Y9600001D02*
D03*
Y9680001D02*
D03*
Y9760001D02*
D03*
Y10160005D02*
D03*
Y10240005D02*
D03*
X6295002Y9600001D02*
D03*
Y9680001D02*
D03*
Y9760001D02*
D03*
Y10080000D02*
D03*
Y10160005D02*
D03*
Y10240005D02*
D03*
X6375002Y9600001D02*
D03*
Y9760001D02*
D03*
Y10240005D02*
D03*
X6455002Y9600001D02*
D03*
Y9760001D02*
D03*
Y10080000D02*
D03*
Y10160005D02*
D03*
Y10240005D02*
D03*
X6535002Y9600001D02*
D03*
Y9680001D02*
D03*
Y10240005D02*
D03*
D154*
X8775100Y12250002D02*
D03*
Y12150002D02*
D03*
Y11950003D02*
D03*
Y12050003D02*
D03*
Y11850003D02*
D03*
Y11750003D02*
D03*
Y11550004D02*
D03*
Y11450004D02*
D03*
Y11350004D02*
D03*
Y11150004D02*
D03*
Y11250004D02*
D03*
Y11650003D02*
D03*
Y10950005D02*
D03*
Y10850005D02*
D03*
Y10750005D02*
D03*
Y10650005D02*
D03*
Y10450006D02*
D03*
Y9950007D02*
D03*
Y10150006D02*
D03*
Y10250006D02*
D03*
Y10350006D02*
D03*
Y9850007D02*
D03*
Y9750002D02*
D03*
X8875100Y12250002D02*
D03*
Y12150002D02*
D03*
Y12050003D02*
D03*
Y11950003D02*
D03*
Y11850003D02*
D03*
Y11750003D02*
D03*
Y11650003D02*
D03*
Y11550004D02*
D03*
Y11450004D02*
D03*
Y11350004D02*
D03*
Y11250004D02*
D03*
Y11150004D02*
D03*
Y11050005D02*
D03*
Y10950005D02*
D03*
Y10850005D02*
D03*
Y10750005D02*
D03*
Y10650005D02*
D03*
Y10550006D02*
D03*
Y10450006D02*
D03*
Y10350006D02*
D03*
Y10250006D02*
D03*
Y10150006D02*
D03*
Y9950007D02*
D03*
Y9850007D02*
D03*
Y9750002D02*
D03*
X8975100Y12250002D02*
D03*
Y12150002D02*
D03*
Y12050003D02*
D03*
Y11950003D02*
D03*
Y11850003D02*
D03*
Y11750003D02*
D03*
Y11650003D02*
D03*
Y11550004D02*
D03*
Y11450004D02*
D03*
Y11350004D02*
D03*
Y11250004D02*
D03*
Y11150004D02*
D03*
Y11050005D02*
D03*
Y10950005D02*
D03*
Y10850005D02*
D03*
Y10750005D02*
D03*
Y10650005D02*
D03*
Y10450006D02*
D03*
Y10350006D02*
D03*
Y10250006D02*
D03*
Y10150006D02*
D03*
Y10050007D02*
D03*
Y9950007D02*
D03*
Y9850007D02*
D03*
Y9750002D02*
D03*
X9075100Y12250002D02*
D03*
Y12150002D02*
D03*
Y12050003D02*
D03*
Y11950003D02*
D03*
Y11850003D02*
D03*
Y11750003D02*
D03*
Y11650003D02*
D03*
Y11550004D02*
D03*
Y11450004D02*
D03*
Y11350004D02*
D03*
Y11250004D02*
D03*
Y11150004D02*
D03*
Y11050005D02*
D03*
Y10950005D02*
D03*
Y10850005D02*
D03*
Y10750005D02*
D03*
Y10650005D02*
D03*
Y10550006D02*
D03*
Y10450006D02*
D03*
Y10350006D02*
D03*
Y10250006D02*
D03*
Y10150006D02*
D03*
Y10050007D02*
D03*
Y9950007D02*
D03*
Y9850007D02*
D03*
Y9750002D02*
D03*
X9175100Y12250002D02*
D03*
Y12150002D02*
D03*
Y12050003D02*
D03*
Y11950003D02*
D03*
Y11850003D02*
D03*
Y11750003D02*
D03*
Y11650003D02*
D03*
Y11550004D02*
D03*
Y11450004D02*
D03*
Y11350004D02*
D03*
Y11250004D02*
D03*
Y11150004D02*
D03*
Y11050005D02*
D03*
Y10950005D02*
D03*
Y10850005D02*
D03*
Y10750005D02*
D03*
Y10650005D02*
D03*
Y10550006D02*
D03*
Y10450006D02*
D03*
Y10350006D02*
D03*
Y10250006D02*
D03*
Y10150006D02*
D03*
Y10050007D02*
D03*
Y9950007D02*
D03*
Y9850007D02*
D03*
Y9750002D02*
D03*
X9275099Y12250002D02*
D03*
Y12150002D02*
D03*
Y12050003D02*
D03*
Y11950003D02*
D03*
Y11850003D02*
D03*
Y11750003D02*
D03*
Y11650003D02*
D03*
Y11550004D02*
D03*
Y11450004D02*
D03*
Y11350004D02*
D03*
Y11250004D02*
D03*
Y11150004D02*
D03*
Y11050005D02*
D03*
Y10950005D02*
D03*
Y10850005D02*
D03*
Y10750005D02*
D03*
Y10650005D02*
D03*
Y10550006D02*
D03*
Y10450006D02*
D03*
Y10350006D02*
D03*
Y10250006D02*
D03*
Y10150006D02*
D03*
Y10050007D02*
D03*
Y9950007D02*
D03*
Y9850007D02*
D03*
Y9750002D02*
D03*
X9375099Y12250002D02*
D03*
Y12150002D02*
D03*
Y12050003D02*
D03*
Y11950003D02*
D03*
Y11850003D02*
D03*
Y11750003D02*
D03*
Y11650003D02*
D03*
Y11550004D02*
D03*
Y11450004D02*
D03*
Y11350004D02*
D03*
Y11250004D02*
D03*
Y11150004D02*
D03*
Y11050005D02*
D03*
Y10950005D02*
D03*
Y10850005D02*
D03*
Y10750005D02*
D03*
Y10650005D02*
D03*
Y10550006D02*
D03*
Y10450006D02*
D03*
Y10350006D02*
D03*
Y10250006D02*
D03*
Y10150006D02*
D03*
Y10050007D02*
D03*
Y9950007D02*
D03*
Y9850007D02*
D03*
Y9750002D02*
D03*
X9475099Y12250002D02*
D03*
Y12150002D02*
D03*
Y12050003D02*
D03*
Y11950003D02*
D03*
Y11850003D02*
D03*
Y11750003D02*
D03*
Y11650003D02*
D03*
Y11550004D02*
D03*
Y11450004D02*
D03*
Y11350004D02*
D03*
Y11250004D02*
D03*
Y11150004D02*
D03*
Y11050005D02*
D03*
Y10950005D02*
D03*
Y10850005D02*
D03*
Y10750005D02*
D03*
Y10650005D02*
D03*
Y10550006D02*
D03*
Y10450006D02*
D03*
Y10350006D02*
D03*
Y10250006D02*
D03*
Y10150006D02*
D03*
Y10050007D02*
D03*
Y9950007D02*
D03*
Y9850007D02*
D03*
Y9750002D02*
D03*
X9575099Y12250002D02*
D03*
Y12150002D02*
D03*
Y12050003D02*
D03*
Y11950003D02*
D03*
Y11850003D02*
D03*
Y11750003D02*
D03*
Y11650003D02*
D03*
Y11550004D02*
D03*
Y11450004D02*
D03*
Y11350004D02*
D03*
Y11250004D02*
D03*
Y11150004D02*
D03*
Y11050005D02*
D03*
Y10950005D02*
D03*
Y10850005D02*
D03*
Y10750005D02*
D03*
Y10650005D02*
D03*
Y10550006D02*
D03*
Y10450006D02*
D03*
Y10350006D02*
D03*
Y10250006D02*
D03*
Y10150006D02*
D03*
Y10050007D02*
D03*
Y9950007D02*
D03*
Y9850007D02*
D03*
Y9750002D02*
D03*
X9675099Y12250002D02*
D03*
Y12150002D02*
D03*
Y12050003D02*
D03*
Y11950003D02*
D03*
Y11850003D02*
D03*
Y11750003D02*
D03*
Y11650003D02*
D03*
Y11550004D02*
D03*
Y11450004D02*
D03*
Y11350004D02*
D03*
Y11250004D02*
D03*
Y11150004D02*
D03*
Y11050005D02*
D03*
Y10950005D02*
D03*
Y10850005D02*
D03*
Y10750005D02*
D03*
Y10650005D02*
D03*
Y10550006D02*
D03*
Y10450006D02*
D03*
Y10350006D02*
D03*
Y10250006D02*
D03*
Y10150006D02*
D03*
Y10050007D02*
D03*
Y9950007D02*
D03*
Y9850007D02*
D03*
Y9750002D02*
D03*
X9775098Y12250002D02*
D03*
Y12150002D02*
D03*
Y12050003D02*
D03*
Y11950003D02*
D03*
Y11850003D02*
D03*
Y11750003D02*
D03*
Y11650003D02*
D03*
Y11550004D02*
D03*
Y11450004D02*
D03*
Y11350004D02*
D03*
Y11250004D02*
D03*
Y11150004D02*
D03*
Y11050005D02*
D03*
Y10950005D02*
D03*
Y10850005D02*
D03*
Y10750005D02*
D03*
Y10650005D02*
D03*
Y10550006D02*
D03*
Y10450006D02*
D03*
Y10350006D02*
D03*
Y10250006D02*
D03*
Y10150006D02*
D03*
Y10050007D02*
D03*
Y9950007D02*
D03*
Y9850007D02*
D03*
Y9750002D02*
D03*
X9875103Y12250002D02*
D03*
Y12150002D02*
D03*
Y12050003D02*
D03*
Y11950003D02*
D03*
Y11850003D02*
D03*
Y11750003D02*
D03*
Y11650003D02*
D03*
Y11550004D02*
D03*
Y11450004D02*
D03*
Y11350004D02*
D03*
Y11250004D02*
D03*
Y11150004D02*
D03*
Y11050005D02*
D03*
Y10950005D02*
D03*
Y10850005D02*
D03*
Y10750005D02*
D03*
Y10650005D02*
D03*
Y10550006D02*
D03*
Y10450006D02*
D03*
Y10350006D02*
D03*
Y10250006D02*
D03*
Y10150006D02*
D03*
Y10050007D02*
D03*
Y9950007D02*
D03*
Y9850007D02*
D03*
Y9750002D02*
D03*
X9975103Y12250002D02*
D03*
Y12150002D02*
D03*
Y12050003D02*
D03*
Y11950003D02*
D03*
Y11850003D02*
D03*
Y11750003D02*
D03*
Y11650003D02*
D03*
Y11550004D02*
D03*
Y11450004D02*
D03*
Y11350004D02*
D03*
Y11250004D02*
D03*
Y11150004D02*
D03*
Y11050005D02*
D03*
Y10950005D02*
D03*
Y10850005D02*
D03*
Y10750005D02*
D03*
Y10650005D02*
D03*
Y10550006D02*
D03*
Y10450006D02*
D03*
Y10350006D02*
D03*
Y10250006D02*
D03*
Y10150006D02*
D03*
Y10050007D02*
D03*
Y9950007D02*
D03*
Y9850007D02*
D03*
Y9750002D02*
D03*
X10075103Y12250002D02*
D03*
Y12150002D02*
D03*
Y12050003D02*
D03*
Y11950003D02*
D03*
Y11850003D02*
D03*
Y11750003D02*
D03*
Y11650003D02*
D03*
Y11550004D02*
D03*
Y11450004D02*
D03*
Y11350004D02*
D03*
Y11250004D02*
D03*
Y11150004D02*
D03*
Y11050005D02*
D03*
Y10950005D02*
D03*
Y10850005D02*
D03*
Y10750005D02*
D03*
Y10650005D02*
D03*
Y10550006D02*
D03*
Y10450006D02*
D03*
Y10350006D02*
D03*
Y10250006D02*
D03*
Y10150006D02*
D03*
Y10050007D02*
D03*
Y9950007D02*
D03*
Y9850007D02*
D03*
Y9750002D02*
D03*
X10175103Y12250002D02*
D03*
Y12150002D02*
D03*
Y12050003D02*
D03*
Y11950003D02*
D03*
Y11850003D02*
D03*
Y11750003D02*
D03*
Y11650003D02*
D03*
Y11550004D02*
D03*
Y11450004D02*
D03*
Y11350004D02*
D03*
Y11250004D02*
D03*
Y11150004D02*
D03*
Y11050005D02*
D03*
Y10950005D02*
D03*
Y10850005D02*
D03*
Y10750005D02*
D03*
Y10650005D02*
D03*
Y10550006D02*
D03*
Y10450006D02*
D03*
Y10350006D02*
D03*
Y10250006D02*
D03*
Y10150006D02*
D03*
Y10050007D02*
D03*
Y9950007D02*
D03*
Y9850007D02*
D03*
Y9750002D02*
D03*
X10275102Y12250002D02*
D03*
Y12150002D02*
D03*
Y12050003D02*
D03*
Y11950003D02*
D03*
Y11850003D02*
D03*
Y11750003D02*
D03*
Y11650003D02*
D03*
Y11550004D02*
D03*
Y11450004D02*
D03*
Y11350004D02*
D03*
Y11250004D02*
D03*
Y11150004D02*
D03*
Y11050005D02*
D03*
Y10950005D02*
D03*
Y10850005D02*
D03*
Y10750005D02*
D03*
Y10650005D02*
D03*
Y10550006D02*
D03*
Y10450006D02*
D03*
Y10350006D02*
D03*
Y10250006D02*
D03*
Y10150006D02*
D03*
Y10050007D02*
D03*
Y9950007D02*
D03*
Y9850007D02*
D03*
Y9750002D02*
D03*
X10375102Y12250002D02*
D03*
Y12150002D02*
D03*
Y12050003D02*
D03*
Y11950003D02*
D03*
Y11850003D02*
D03*
Y11750003D02*
D03*
Y11650003D02*
D03*
Y11550004D02*
D03*
Y11450004D02*
D03*
Y11350004D02*
D03*
Y11250004D02*
D03*
Y11150004D02*
D03*
Y11050005D02*
D03*
Y10950005D02*
D03*
Y10850005D02*
D03*
Y10750005D02*
D03*
Y10650005D02*
D03*
Y10550006D02*
D03*
Y10450006D02*
D03*
Y10350006D02*
D03*
Y10250006D02*
D03*
Y10150006D02*
D03*
Y10050007D02*
D03*
Y9950007D02*
D03*
Y9850007D02*
D03*
Y9750002D02*
D03*
X10475102Y12250002D02*
D03*
Y12150002D02*
D03*
Y12050003D02*
D03*
Y11950003D02*
D03*
Y11850003D02*
D03*
Y11750003D02*
D03*
Y11650003D02*
D03*
Y11550004D02*
D03*
Y11450004D02*
D03*
Y11350004D02*
D03*
Y11250004D02*
D03*
Y11150004D02*
D03*
Y11050005D02*
D03*
Y10950005D02*
D03*
Y10850005D02*
D03*
Y10750005D02*
D03*
Y10650005D02*
D03*
Y10550006D02*
D03*
Y10450006D02*
D03*
Y10350006D02*
D03*
Y10250006D02*
D03*
Y10150006D02*
D03*
Y10050007D02*
D03*
Y9950007D02*
D03*
Y9850007D02*
D03*
Y9750002D02*
D03*
X10575102Y12250002D02*
D03*
Y12150002D02*
D03*
Y12050003D02*
D03*
Y11950003D02*
D03*
Y11850003D02*
D03*
Y11750003D02*
D03*
Y11650003D02*
D03*
Y11550004D02*
D03*
Y11450004D02*
D03*
Y11350004D02*
D03*
Y11250004D02*
D03*
Y11150004D02*
D03*
Y11050005D02*
D03*
Y10950005D02*
D03*
Y10850005D02*
D03*
Y10750005D02*
D03*
Y10650005D02*
D03*
Y10550006D02*
D03*
Y10450006D02*
D03*
Y10350006D02*
D03*
Y10250006D02*
D03*
Y10150006D02*
D03*
Y10050007D02*
D03*
Y9950007D02*
D03*
Y9850007D02*
D03*
Y9750002D02*
D03*
X10675102Y12250002D02*
D03*
Y12150002D02*
D03*
Y12050003D02*
D03*
Y11950003D02*
D03*
Y11850003D02*
D03*
Y11750003D02*
D03*
Y11650003D02*
D03*
Y11550004D02*
D03*
Y11450004D02*
D03*
Y11350004D02*
D03*
Y11250004D02*
D03*
Y11150004D02*
D03*
Y11050005D02*
D03*
Y10950005D02*
D03*
Y10850005D02*
D03*
Y10750005D02*
D03*
Y10650005D02*
D03*
Y10550006D02*
D03*
Y10450006D02*
D03*
Y10350006D02*
D03*
Y10250006D02*
D03*
Y10150006D02*
D03*
Y10050007D02*
D03*
Y9950007D02*
D03*
Y9850007D02*
D03*
Y9750002D02*
D03*
X10775101Y12250002D02*
D03*
Y12150002D02*
D03*
Y12050003D02*
D03*
Y11950003D02*
D03*
Y11850003D02*
D03*
Y11750003D02*
D03*
Y11650003D02*
D03*
Y11550004D02*
D03*
Y11450004D02*
D03*
Y11350004D02*
D03*
Y11250004D02*
D03*
Y11150004D02*
D03*
Y11050005D02*
D03*
Y10950005D02*
D03*
Y10850005D02*
D03*
Y10750005D02*
D03*
Y10650005D02*
D03*
Y10550006D02*
D03*
Y10450006D02*
D03*
Y10350006D02*
D03*
Y10250006D02*
D03*
Y10150006D02*
D03*
Y10050007D02*
D03*
Y9950007D02*
D03*
Y9850007D02*
D03*
Y9750002D02*
D03*
X10875101Y12250002D02*
D03*
Y12150002D02*
D03*
Y12050003D02*
D03*
Y11950003D02*
D03*
Y11850003D02*
D03*
Y11750003D02*
D03*
Y11650003D02*
D03*
Y11550004D02*
D03*
Y11450004D02*
D03*
Y11350004D02*
D03*
Y11250004D02*
D03*
Y11150004D02*
D03*
Y11050005D02*
D03*
Y10950005D02*
D03*
Y10850005D02*
D03*
Y10750005D02*
D03*
Y10650005D02*
D03*
Y10550006D02*
D03*
Y10450006D02*
D03*
Y10350006D02*
D03*
Y10250006D02*
D03*
Y10150006D02*
D03*
Y10050007D02*
D03*
Y9950007D02*
D03*
Y9850007D02*
D03*
Y9750002D02*
D03*
X10975101Y12250002D02*
D03*
Y12150002D02*
D03*
Y12050003D02*
D03*
Y11950003D02*
D03*
Y11850003D02*
D03*
Y11750003D02*
D03*
Y11650003D02*
D03*
Y11550004D02*
D03*
Y11450004D02*
D03*
Y11350004D02*
D03*
Y11250004D02*
D03*
Y11150004D02*
D03*
Y11050005D02*
D03*
Y10950005D02*
D03*
Y10850005D02*
D03*
Y10750005D02*
D03*
Y10650005D02*
D03*
Y10550006D02*
D03*
Y10450006D02*
D03*
Y10350006D02*
D03*
Y10250006D02*
D03*
Y10150006D02*
D03*
Y10050007D02*
D03*
Y9950007D02*
D03*
Y9850007D02*
D03*
Y9750002D02*
D03*
X11075101Y12250002D02*
D03*
Y12150002D02*
D03*
Y12050003D02*
D03*
Y11950003D02*
D03*
Y11850003D02*
D03*
Y11750003D02*
D03*
Y11650003D02*
D03*
Y11550004D02*
D03*
Y11450004D02*
D03*
Y11350004D02*
D03*
Y11250004D02*
D03*
Y11150004D02*
D03*
Y11050005D02*
D03*
Y10950005D02*
D03*
Y10850005D02*
D03*
Y10750005D02*
D03*
Y10650005D02*
D03*
Y10550006D02*
D03*
Y10450006D02*
D03*
Y10350006D02*
D03*
Y10250006D02*
D03*
Y10150006D02*
D03*
Y10050007D02*
D03*
Y9950007D02*
D03*
Y9850007D02*
D03*
Y9750002D02*
D03*
X11175101Y12250002D02*
D03*
Y12150002D02*
D03*
Y12050003D02*
D03*
Y11950003D02*
D03*
Y11850003D02*
D03*
Y11750003D02*
D03*
Y11650003D02*
D03*
Y11550004D02*
D03*
Y11450004D02*
D03*
Y11350004D02*
D03*
Y11250004D02*
D03*
Y11150004D02*
D03*
Y11050005D02*
D03*
Y10950005D02*
D03*
Y10850005D02*
D03*
Y10750005D02*
D03*
Y10650005D02*
D03*
Y10550006D02*
D03*
Y10450006D02*
D03*
Y10350006D02*
D03*
Y10250006D02*
D03*
Y10150006D02*
D03*
Y10050007D02*
D03*
Y9950007D02*
D03*
Y9850007D02*
D03*
Y9750002D02*
D03*
X11275100Y12250002D02*
D03*
Y12150002D02*
D03*
Y12050003D02*
D03*
Y11950003D02*
D03*
Y11850003D02*
D03*
Y11750003D02*
D03*
Y11650003D02*
D03*
Y11550004D02*
D03*
Y11450004D02*
D03*
Y11350004D02*
D03*
Y11250004D02*
D03*
Y11150004D02*
D03*
Y11050005D02*
D03*
Y10950005D02*
D03*
Y10850005D02*
D03*
Y10750005D02*
D03*
Y10650005D02*
D03*
Y10550006D02*
D03*
Y10450006D02*
D03*
Y10350006D02*
D03*
Y10250006D02*
D03*
Y10150006D02*
D03*
Y10050007D02*
D03*
Y9950007D02*
D03*
Y9850007D02*
D03*
Y9750002D02*
D03*
X8975100Y10550006D02*
D03*
X8775100D02*
D03*
X8875100Y10050007D02*
D03*
X8775100D02*
D03*
D155*
Y11050005D02*
D03*
D156*
X14107639Y6804859D02*
D03*
Y7594859D02*
D03*
X14488638Y6804859D02*
D03*
Y7594859D02*
D03*
X14361639Y6804859D02*
D03*
X14234639D02*
D03*
X14361639Y7594859D02*
D03*
X14234639D02*
D03*
D157*
X10299718Y14743839D02*
D03*
X9791718D02*
D03*
X10045718D02*
D03*
Y15163837D02*
D03*
X9791718D02*
D03*
X10299718D02*
D03*
D158*
X17888992Y14075328D02*
D03*
X18368997D02*
D03*
X17888992Y14010330D02*
D03*
X18368997D02*
D03*
X17888992Y13815329D02*
D03*
X18368997D02*
D03*
X17888992Y13880328D02*
D03*
X18368997D02*
D03*
Y13945331D02*
D03*
X17888992D02*
D03*
D159*
X9561301Y14327480D02*
D03*
Y14277483D02*
D03*
Y14227480D02*
D03*
Y14177483D02*
D03*
Y14127481D02*
D03*
Y14077483D02*
D03*
Y14027481D02*
D03*
Y13977483D02*
D03*
Y13927481D02*
D03*
Y13877484D02*
D03*
Y13827481D02*
D03*
Y13777484D02*
D03*
Y13727481D02*
D03*
Y13677484D02*
D03*
Y13627483D02*
D03*
Y13577484D02*
D03*
X10456301D02*
D03*
Y13627483D02*
D03*
Y13677484D02*
D03*
Y13727481D02*
D03*
Y13777484D02*
D03*
Y13827481D02*
D03*
Y13877484D02*
D03*
Y13927481D02*
D03*
Y13977483D02*
D03*
Y14027481D02*
D03*
Y14077483D02*
D03*
Y14127481D02*
D03*
Y14177483D02*
D03*
Y14227480D02*
D03*
Y14277483D02*
D03*
Y14327480D02*
D03*
X15412126Y15277341D02*
D03*
Y15327338D02*
D03*
Y15377341D02*
D03*
Y15427338D02*
D03*
Y15477341D02*
D03*
Y15527338D02*
D03*
Y15577341D02*
D03*
Y15627338D02*
D03*
Y15677341D02*
D03*
Y15727344D02*
D03*
Y15777341D02*
D03*
Y15827342D02*
D03*
Y15877341D02*
D03*
Y15927342D02*
D03*
Y15977341D02*
D03*
Y16027342D02*
D03*
X16307126D02*
D03*
Y15977341D02*
D03*
Y15927342D02*
D03*
Y15877341D02*
D03*
Y15827342D02*
D03*
Y15777341D02*
D03*
Y15727344D02*
D03*
Y15677341D02*
D03*
Y15627338D02*
D03*
Y15577341D02*
D03*
Y15527338D02*
D03*
Y15477341D02*
D03*
Y15427338D02*
D03*
Y15377341D02*
D03*
Y15327338D02*
D03*
Y15277341D02*
D03*
D160*
X9633803Y13504982D02*
D03*
X9683800D02*
D03*
X9733803D02*
D03*
X9783800D02*
D03*
X9833803D02*
D03*
X9883800D02*
D03*
X9933802D02*
D03*
X9983800D02*
D03*
X10033802D02*
D03*
X10083799D02*
D03*
X10133802D02*
D03*
X10183799D02*
D03*
X10233802D02*
D03*
X10283799D02*
D03*
X10333802D02*
D03*
X10383799D02*
D03*
Y14399982D02*
D03*
X10333802D02*
D03*
X10283799D02*
D03*
X10233802D02*
D03*
X10183799D02*
D03*
X10133802D02*
D03*
X10083799D02*
D03*
X10033802D02*
D03*
X9983800D02*
D03*
X9933802D02*
D03*
X9883800D02*
D03*
X9833803D02*
D03*
X9783800D02*
D03*
X9733803D02*
D03*
X9683800D02*
D03*
X9633803D02*
D03*
X15484628Y16099838D02*
D03*
X15534625D02*
D03*
X15584628D02*
D03*
X15634625D02*
D03*
X15684628D02*
D03*
X15734625D02*
D03*
X15784627D02*
D03*
X15834625D02*
D03*
X15884627D02*
D03*
X15934630D02*
D03*
X15984627D02*
D03*
X16034628D02*
D03*
X16084627D02*
D03*
X16134628D02*
D03*
X16184627D02*
D03*
X16234628D02*
D03*
Y15204839D02*
D03*
X16184627D02*
D03*
X16134628D02*
D03*
X16084627D02*
D03*
X16034628D02*
D03*
X15984627D02*
D03*
X15934630D02*
D03*
X15884627D02*
D03*
X15834625D02*
D03*
X15784627D02*
D03*
X15734625D02*
D03*
X15684628D02*
D03*
X15634625D02*
D03*
X15584628D02*
D03*
X15534625D02*
D03*
X15484628D02*
D03*
D161*
X10008798Y13952486D02*
D03*
D162*
X18885880Y18157680D02*
D03*
X18820882D02*
D03*
X18755878D02*
D03*
X18690878D02*
D03*
X18885880Y17742679D02*
D03*
X18820882D02*
D03*
X18755878D02*
D03*
X18690878D02*
D03*
D163*
X15859628Y15652342D02*
D03*
D164*
X18132927Y15677740D02*
D03*
D165*
X18257925Y15472742D02*
D03*
X18207928D02*
D03*
X18157925D02*
D03*
X18107922D02*
D03*
X18057925D02*
D03*
Y15882738D02*
D03*
X18107922D02*
D03*
X18157925D02*
D03*
X18207928D02*
D03*
X18257925D02*
D03*
X18007924D02*
D03*
Y15472742D02*
D03*
D166*
X17927924Y15602739D02*
D03*
Y15652740D02*
D03*
Y15702739D02*
D03*
Y15752740D02*
D03*
X18337926Y15802739D02*
D03*
Y15752740D02*
D03*
Y15702739D02*
D03*
Y15652740D02*
D03*
Y15602739D02*
D03*
Y15552742D02*
D03*
X17927924Y15802739D02*
D03*
Y15552742D02*
D03*
D167*
X17211148Y15214046D02*
D03*
X17300047D02*
D03*
X17211148Y15101166D02*
D03*
X17300047D02*
D03*
X17211981Y16175023D02*
D03*
X17300880D02*
D03*
X17210632Y16062140D02*
D03*
X17299532D02*
D03*
X17916064Y18488445D02*
D03*
X18004965D02*
D03*
X17916064Y18375415D02*
D03*
X18004965D02*
D03*
X17918607Y17532004D02*
D03*
X18007506D02*
D03*
X17918605Y17419031D02*
D03*
X18007504D02*
D03*
D168*
X16423267Y18102284D02*
D03*
Y18052286D02*
D03*
X17118265Y18202283D02*
D03*
Y18052286D02*
D03*
Y18002284D02*
D03*
Y17952286D02*
D03*
Y17902284D02*
D03*
Y17852283D02*
D03*
Y17802284D02*
D03*
Y17652283D02*
D03*
X16423267D02*
D03*
Y17702284D02*
D03*
Y17752283D02*
D03*
Y17802284D02*
D03*
Y17852283D02*
D03*
Y17902284D02*
D03*
Y17952286D02*
D03*
Y18002284D02*
D03*
Y18152286D02*
D03*
Y18202283D02*
D03*
X17118265Y17752283D02*
D03*
Y17702284D02*
D03*
Y18102284D02*
D03*
Y18152286D02*
D03*
D169*
X16770763Y17927283D02*
D03*
D170*
X17045764Y17579785D02*
D03*
X16995761D02*
D03*
X16945764D02*
D03*
X16895761D02*
D03*
X16845764D02*
D03*
X16795763D02*
D03*
X16745764D02*
D03*
X16695763D02*
D03*
X16645766D02*
D03*
X16595763D02*
D03*
X16545766D02*
D03*
X16495763D02*
D03*
Y18274785D02*
D03*
X16545766D02*
D03*
X16595763D02*
D03*
X16645766D02*
D03*
X16695763D02*
D03*
X16745764D02*
D03*
X16795763D02*
D03*
X16845764D02*
D03*
X16895761D02*
D03*
X16945764D02*
D03*
X16995761D02*
D03*
X17045764D02*
D03*
D171*
X16291560Y14329410D02*
D03*
Y14179550D02*
D03*
X17284700Y10603230D02*
D03*
Y10453370D02*
D03*
D172*
X16535399Y4787899D02*
D03*
Y4914899D02*
D03*
Y5041899D02*
D03*
Y5168899D02*
D03*
Y5295899D02*
D03*
Y5422899D02*
D03*
Y5549899D02*
D03*
Y5676899D02*
D03*
X15620999Y4787899D02*
D03*
Y4914899D02*
D03*
Y5041899D02*
D03*
Y5168899D02*
D03*
Y5295899D02*
D03*
Y5422899D02*
D03*
Y5549899D02*
D03*
Y5676899D02*
D03*
D173*
X17377901Y5892600D02*
D03*
X17597899Y4292802D02*
D03*
D174*
X17377901Y5720602D02*
D03*
X17597900D02*
D03*
Y5912600D02*
D03*
X17597899Y4464801D02*
D03*
X17377899D02*
D03*
Y4272802D02*
D03*
D175*
X17979198Y2729700D02*
D03*
Y2679698D02*
D03*
Y2629701D02*
D03*
X18114198D02*
D03*
Y2729700D02*
D03*
X14867702Y3086899D02*
D03*
Y3186898D02*
D03*
X15002702D02*
D03*
Y3136901D02*
D03*
Y3086899D02*
D03*
D176*
X13804799Y3410301D02*
D03*
X13404800D02*
D03*
X13004800D02*
D03*
X12604802D02*
D03*
X12204798D02*
D03*
Y1390299D02*
D03*
X12604802D02*
D03*
X13004800D02*
D03*
X13404800D02*
D03*
X13804799D02*
D03*
D177*
X14077301Y1800301D02*
D03*
Y2200300D02*
D03*
Y2600300D02*
D03*
Y3000299D02*
D03*
X11932301D02*
D03*
Y2600300D02*
D03*
Y2200300D02*
D03*
Y1800301D02*
D03*
D178*
X16309300Y1714500D02*
D03*
Y1841500D02*
D03*
X17447301D02*
D03*
Y1587500D02*
D03*
X16309300D02*
D03*
D179*
X16265498Y4356100D02*
D03*
X15865498D02*
D03*
D180*
X17487900Y5216498D02*
D03*
Y4816499D02*
D03*
X17930002Y8950002D02*
D03*
Y9350001D02*
D03*
D181*
X13843797Y4768698D02*
D03*
D182*
X14018797Y4523694D02*
D03*
X13968796D02*
D03*
X13918799D02*
D03*
X13868796D02*
D03*
X13818794D02*
D03*
X13768796D02*
D03*
X13718794D02*
D03*
X13668797D02*
D03*
Y5013696D02*
D03*
X13718794D02*
D03*
X13768796D02*
D03*
X13818794D02*
D03*
X13868796D02*
D03*
X13918799D02*
D03*
X13968796D02*
D03*
X14018797D02*
D03*
D183*
X13598795Y4593697D02*
D03*
Y4643694D02*
D03*
Y4693696D02*
D03*
Y4743694D02*
D03*
Y4793696D02*
D03*
Y4843699D02*
D03*
Y4893696D02*
D03*
Y4943699D02*
D03*
X14088795D02*
D03*
Y4893696D02*
D03*
Y4843699D02*
D03*
Y4793696D02*
D03*
Y4743694D02*
D03*
Y4693696D02*
D03*
Y4643694D02*
D03*
Y4593697D02*
D03*
D184*
X14712898Y5170202D02*
D03*
X14547900D02*
D03*
Y5015201D02*
D03*
X14712898D02*
D03*
D185*
X15939998Y10829999D02*
D03*
D186*
X16670502Y11210999D02*
D03*
Y11083999D02*
D03*
Y10956999D02*
D03*
Y10829999D02*
D03*
Y10702999D02*
D03*
Y10575999D02*
D03*
Y10448999D02*
D03*
D187*
X15752451Y2679699D02*
D03*
Y2552699D02*
D03*
Y2425699D02*
D03*
Y2298699D02*
D03*
Y2806699D02*
D03*
Y2933699D02*
D03*
Y3060699D02*
D03*
Y3187699D02*
D03*
X16657951D02*
D03*
Y3060699D02*
D03*
Y2933699D02*
D03*
Y2806699D02*
D03*
Y2298699D02*
D03*
Y2425699D02*
D03*
Y2552699D02*
D03*
Y2679699D02*
D03*
D188*
X16719998Y8939999D02*
D03*
D189*
X17000003D02*
D03*
D190*
X16268703Y8800101D02*
D03*
Y9437102D02*
D03*
D191*
X457199Y457199D02*
D03*
Y19557999D02*
D03*
X11744001Y9247042D02*
D03*
X8244001Y12747042D02*
D03*
X19557999Y457199D02*
D03*
Y19557999D02*
D03*
D192*
X19276059Y17193259D02*
D03*
X19784059D02*
D03*
Y17701259D02*
D03*
X19276059D02*
D03*
X19530058Y17447260D02*
D03*
X19545297Y15731273D02*
D03*
X19291296Y15985274D02*
D03*
X19799297D02*
D03*
Y15477274D02*
D03*
X19291296D02*
D03*
X19545297Y14562872D02*
D03*
X19291296Y14816873D02*
D03*
X19799297D02*
D03*
Y14308873D02*
D03*
X19291296D02*
D03*
X19530058Y18615659D02*
D03*
X19276059Y18869659D02*
D03*
X19784059D02*
D03*
Y18361659D02*
D03*
X19276059D02*
D03*
D193*
X19339796Y5918199D02*
D03*
Y4648199D02*
D03*
D194*
X19085797Y5638799D02*
D03*
D195*
Y5435599D02*
D03*
Y5232399D02*
D03*
Y5029199D02*
D03*
X18907997Y5537199D02*
D03*
Y5333999D02*
D03*
Y5130799D02*
D03*
Y4927599D02*
D03*
X18425397Y5968999D02*
D03*
Y4825999D02*
D03*
Y4597399D02*
D03*
Y5740399D02*
D03*
D196*
X18846799Y3014999D02*
D03*
Y1810998D02*
D03*
X17973201Y9828000D02*
D03*
Y10248000D02*
D03*
Y10667999D02*
D03*
X18523198Y9828000D02*
D03*
Y10248000D02*
D03*
D197*
X18576802Y2288000D02*
D03*
Y2538002D02*
D03*
X18376802Y2288000D02*
D03*
Y2538002D02*
D03*
D198*
X13736798Y4875698D02*
D03*
X13843797D02*
D03*
X13950798D02*
D03*
X13736798Y4768698D02*
D03*
X13843797D02*
D03*
X13950798D02*
D03*
X13736798Y4661698D02*
D03*
X13843797D02*
D03*
X13950798D02*
D03*
D199*
X19405598Y7128001D02*
D03*
D200*
Y7628000D02*
D03*
Y8127999D02*
D03*
Y8627998D02*
D03*
D201*
X19253198Y10667999D02*
D03*
Y9828000D02*
D03*
D202*
X18523198Y10667999D02*
D03*
D203*
X16873743Y8059072D02*
D03*
Y7868572D02*
D03*
Y7665372D02*
D03*
Y7462172D02*
D03*
X16872916Y7077949D02*
D03*
Y7281149D02*
D03*
X15461176Y7079564D02*
D03*
X15664375D02*
D03*
X15461176Y7282764D02*
D03*
X15664375D02*
D03*
X15257976D02*
D03*
X15054776D02*
D03*
X14851576D02*
D03*
X15257976Y7079564D02*
D03*
X15054776D02*
D03*
X14851576D02*
D03*
X15866982Y7078035D02*
D03*
X16070181D02*
D03*
X16273381D02*
D03*
X15866982Y7281235D02*
D03*
X16070181D02*
D03*
X16273381D02*
D03*
X16679781D02*
D03*
X16476581D02*
D03*
X16679781Y7078035D02*
D03*
X16476581D02*
D03*
X16477409Y7462258D02*
D03*
X16680609D02*
D03*
X16477409Y7665458D02*
D03*
X16680609D02*
D03*
Y7868658D02*
D03*
X16477409D02*
D03*
Y8059158D02*
D03*
X16680609D02*
D03*
X16274210D02*
D03*
X16071008D02*
D03*
X15867809D02*
D03*
Y7868658D02*
D03*
X16071008D02*
D03*
X16274210D02*
D03*
Y7665458D02*
D03*
X16071008D02*
D03*
X15867809D02*
D03*
X16274210Y7462258D02*
D03*
X16071008D02*
D03*
X15867809D02*
D03*
X18106390Y7575238D02*
D03*
Y7422838D02*
D03*
X17230090Y7435538D02*
D03*
Y7372038D02*
D03*
X1016000Y1778000D02*
D03*
X761377Y1782217D02*
D03*
X508000Y1778000D02*
D03*
X254000D02*
D03*
X1270000D02*
D03*
X1524000D02*
D03*
X1779853Y772706D02*
D03*
X1784070Y519329D02*
D03*
Y265329D02*
D03*
Y1789329D02*
D03*
Y1535329D02*
D03*
Y1027329D02*
D03*
Y1281329D02*
D03*
X1778000Y19050000D02*
D03*
X2032000D02*
D03*
X1777377Y18800217D02*
D03*
X2032000Y18796001D02*
D03*
Y19303999D02*
D03*
X1777377Y19308217D02*
D03*
X2032000Y19812000D02*
D03*
Y19558000D02*
D03*
X1778000Y19812000D02*
D03*
Y19558000D02*
D03*
X2286000D02*
D03*
Y19812000D02*
D03*
X10160000D02*
D03*
Y19558000D02*
D03*
X9652000D02*
D03*
Y19812000D02*
D03*
X9906000Y19558000D02*
D03*
Y19812000D02*
D03*
X8890000D02*
D03*
Y19558000D02*
D03*
X8636000Y19812000D02*
D03*
Y19558000D02*
D03*
X9144000D02*
D03*
Y19812000D02*
D03*
X9398000Y19558000D02*
D03*
Y19812000D02*
D03*
X7366000D02*
D03*
Y19558000D02*
D03*
X7112000Y19812000D02*
D03*
Y19558000D02*
D03*
X6604000D02*
D03*
Y19812000D02*
D03*
X6858000Y19558000D02*
D03*
Y19812000D02*
D03*
X7874000D02*
D03*
Y19558000D02*
D03*
X7620000Y19812000D02*
D03*
Y19558000D02*
D03*
X8128000D02*
D03*
Y19812000D02*
D03*
X8382000Y19558000D02*
D03*
Y19812000D02*
D03*
X4318000D02*
D03*
Y19558000D02*
D03*
X4064000Y19812000D02*
D03*
Y19558000D02*
D03*
X3556000D02*
D03*
Y19812000D02*
D03*
X3810000Y19558000D02*
D03*
Y19812000D02*
D03*
X2794000D02*
D03*
Y19558000D02*
D03*
X2540000Y19812000D02*
D03*
Y19558000D02*
D03*
X3048000D02*
D03*
Y19812000D02*
D03*
X3302000Y19558000D02*
D03*
Y19812000D02*
D03*
X5334000D02*
D03*
Y19558000D02*
D03*
X5080000Y19812000D02*
D03*
Y19558000D02*
D03*
X4572000D02*
D03*
Y19812000D02*
D03*
X4826000Y19558000D02*
D03*
Y19812000D02*
D03*
X5842000D02*
D03*
Y19558000D02*
D03*
X5588000Y19812000D02*
D03*
Y19558000D02*
D03*
X6096000D02*
D03*
Y19812000D02*
D03*
X6350000Y19558000D02*
D03*
Y19812000D02*
D03*
X2032000Y1270000D02*
D03*
Y1016000D02*
D03*
Y1524000D02*
D03*
Y1778000D02*
D03*
X1270000Y2794000D02*
D03*
X1524000D02*
D03*
X1778000D02*
D03*
X2032000D02*
D03*
X1270000Y2540000D02*
D03*
X1524000D02*
D03*
X1777377Y2544217D02*
D03*
X2032000Y2540000D02*
D03*
Y2032000D02*
D03*
X1777377Y2036217D02*
D03*
X1524000Y2032000D02*
D03*
X1270000D02*
D03*
X2032000Y2286000D02*
D03*
X1778000D02*
D03*
X1524000D02*
D03*
X1270000D02*
D03*
X254000D02*
D03*
X508000D02*
D03*
X762000D02*
D03*
X1016000D02*
D03*
X254000Y2032000D02*
D03*
X508000D02*
D03*
X761377Y2036217D02*
D03*
X1016000Y2032000D02*
D03*
Y2540000D02*
D03*
X761377Y2544217D02*
D03*
X508000Y2540000D02*
D03*
X254000D02*
D03*
X1016000Y2794000D02*
D03*
X762000D02*
D03*
X508000D02*
D03*
X254000D02*
D03*
X2794000Y254000D02*
D03*
Y508000D02*
D03*
Y762000D02*
D03*
X3048000Y254000D02*
D03*
Y508000D02*
D03*
X3043783Y761377D02*
D03*
X3302000Y762000D02*
D03*
Y508000D02*
D03*
Y254000D02*
D03*
X2032000D02*
D03*
Y508000D02*
D03*
X2027783Y761377D02*
D03*
X2535783D02*
D03*
X2540000Y508000D02*
D03*
Y254000D02*
D03*
X2286000Y762000D02*
D03*
Y508000D02*
D03*
Y254000D02*
D03*
X15239999D02*
D03*
Y508000D02*
D03*
Y762000D02*
D03*
X15494000Y254000D02*
D03*
Y508000D02*
D03*
X15489783Y761377D02*
D03*
X15997783D02*
D03*
X16002000Y508000D02*
D03*
Y254000D02*
D03*
X15748000Y762000D02*
D03*
Y508000D02*
D03*
Y254000D02*
D03*
X16764000D02*
D03*
Y508000D02*
D03*
Y762000D02*
D03*
X17017999Y254000D02*
D03*
Y508000D02*
D03*
X17013783Y761377D02*
D03*
X16505783D02*
D03*
X16510001Y508000D02*
D03*
Y254000D02*
D03*
X16256000Y762000D02*
D03*
Y508000D02*
D03*
Y254000D02*
D03*
X18288000D02*
D03*
Y508000D02*
D03*
Y762000D02*
D03*
X17780000Y254000D02*
D03*
Y508000D02*
D03*
Y762000D02*
D03*
X18034000Y254000D02*
D03*
Y508000D02*
D03*
X18029784Y761377D02*
D03*
X17521783D02*
D03*
X17525999Y508000D02*
D03*
Y254000D02*
D03*
X17272000Y762000D02*
D03*
Y508000D02*
D03*
Y254000D02*
D03*
X13208000D02*
D03*
Y508000D02*
D03*
Y762000D02*
D03*
X13462000Y254000D02*
D03*
Y508000D02*
D03*
X13457784Y761377D02*
D03*
X13965784D02*
D03*
X13970000Y508000D02*
D03*
Y254000D02*
D03*
X13716000Y762000D02*
D03*
Y508000D02*
D03*
Y254000D02*
D03*
X14732001D02*
D03*
Y508000D02*
D03*
Y762000D02*
D03*
X14986000Y254000D02*
D03*
Y508000D02*
D03*
X14981783Y761377D02*
D03*
X14473782D02*
D03*
X14478000Y508000D02*
D03*
Y254000D02*
D03*
X14224001Y762000D02*
D03*
Y508000D02*
D03*
Y254000D02*
D03*
X12192000D02*
D03*
Y508000D02*
D03*
Y762000D02*
D03*
X12446000Y254000D02*
D03*
Y508000D02*
D03*
X12441783Y761377D02*
D03*
X12949783D02*
D03*
X12953999Y508000D02*
D03*
Y254000D02*
D03*
X12700000Y762000D02*
D03*
Y508000D02*
D03*
Y254000D02*
D03*
X11684000D02*
D03*
Y508000D02*
D03*
Y762000D02*
D03*
X11938000Y254000D02*
D03*
Y508000D02*
D03*
X11933783Y761377D02*
D03*
X11425783D02*
D03*
X11430000Y508000D02*
D03*
Y254000D02*
D03*
X3556000D02*
D03*
Y508000D02*
D03*
X3551783Y761377D02*
D03*
X4059783D02*
D03*
X4064000Y508000D02*
D03*
Y254000D02*
D03*
X3810000Y762000D02*
D03*
Y508000D02*
D03*
Y254000D02*
D03*
X4826000D02*
D03*
Y508000D02*
D03*
Y762000D02*
D03*
X5080000Y254000D02*
D03*
Y508000D02*
D03*
X5075783Y761377D02*
D03*
X4567783D02*
D03*
X4572000Y508000D02*
D03*
Y254000D02*
D03*
X4318000Y762000D02*
D03*
Y508000D02*
D03*
Y254000D02*
D03*
X6350000D02*
D03*
Y508000D02*
D03*
Y762000D02*
D03*
X6604000Y254000D02*
D03*
Y508000D02*
D03*
X6599783Y761377D02*
D03*
X7107783D02*
D03*
X7112000Y508000D02*
D03*
Y254000D02*
D03*
X6858000Y762000D02*
D03*
Y508000D02*
D03*
Y254000D02*
D03*
X5842000D02*
D03*
Y508000D02*
D03*
Y762000D02*
D03*
X6096000Y254000D02*
D03*
Y508000D02*
D03*
X6091783Y761377D02*
D03*
X5583783D02*
D03*
X5588000Y508000D02*
D03*
Y254000D02*
D03*
X5334000Y762000D02*
D03*
Y508000D02*
D03*
Y254000D02*
D03*
X9398000D02*
D03*
Y508000D02*
D03*
Y762000D02*
D03*
X9652000Y254000D02*
D03*
Y508000D02*
D03*
X9647783Y761377D02*
D03*
X10155783D02*
D03*
X10160000Y508000D02*
D03*
Y254000D02*
D03*
X9906000Y762000D02*
D03*
Y508000D02*
D03*
Y254000D02*
D03*
X10922000D02*
D03*
Y508000D02*
D03*
Y762000D02*
D03*
X11176000Y254000D02*
D03*
Y508000D02*
D03*
X11171783Y761377D02*
D03*
X10663783D02*
D03*
X10668000Y508000D02*
D03*
Y254000D02*
D03*
X10414000Y762000D02*
D03*
Y508000D02*
D03*
Y254000D02*
D03*
X8382000D02*
D03*
Y508000D02*
D03*
Y762000D02*
D03*
X8636000Y254000D02*
D03*
Y508000D02*
D03*
X8631783Y761377D02*
D03*
X9139783D02*
D03*
X9144000Y508000D02*
D03*
Y254000D02*
D03*
X8890000Y762000D02*
D03*
Y508000D02*
D03*
Y254000D02*
D03*
X7874000D02*
D03*
Y508000D02*
D03*
Y762000D02*
D03*
X8128000Y254000D02*
D03*
Y508000D02*
D03*
X8123783Y761377D02*
D03*
X7615783D02*
D03*
X7620000Y508000D02*
D03*
Y254000D02*
D03*
X7366000Y762000D02*
D03*
Y508000D02*
D03*
Y254000D02*
D03*
X254000Y14732001D02*
D03*
X508000D02*
D03*
X762000D02*
D03*
X1016000D02*
D03*
X254000Y14478000D02*
D03*
X508000D02*
D03*
X761377Y14482217D02*
D03*
X1016000Y14478000D02*
D03*
Y13970000D02*
D03*
X761377Y13974217D02*
D03*
X508000Y13970000D02*
D03*
X254000D02*
D03*
X1016000Y14224001D02*
D03*
X762000D02*
D03*
X508000D02*
D03*
X254000D02*
D03*
X1270000D02*
D03*
X1524000D02*
D03*
X1778000D02*
D03*
X2032000D02*
D03*
X1270000Y13970000D02*
D03*
X1524000D02*
D03*
X1777377Y13974217D02*
D03*
X2032000Y13970000D02*
D03*
Y14478000D02*
D03*
X1777377Y14482217D02*
D03*
X1524000Y14478000D02*
D03*
X1270000D02*
D03*
X2032000Y14732001D02*
D03*
X1778000D02*
D03*
X1524000D02*
D03*
X1270000D02*
D03*
Y13716000D02*
D03*
X1524000D02*
D03*
X1778000D02*
D03*
X2032000D02*
D03*
X1270000Y13462000D02*
D03*
X1524000D02*
D03*
X1777377Y13466217D02*
D03*
X2032000Y13462000D02*
D03*
Y12953999D02*
D03*
X1777377Y12958217D02*
D03*
X1524000Y12953999D02*
D03*
X1270000D02*
D03*
X2032000Y13208000D02*
D03*
X1778000D02*
D03*
X1524000D02*
D03*
X1270000D02*
D03*
X254000D02*
D03*
X508000D02*
D03*
X762000D02*
D03*
X1016000D02*
D03*
X254000Y12953999D02*
D03*
X508000D02*
D03*
X761377Y12958217D02*
D03*
X1016000Y12953999D02*
D03*
Y13462000D02*
D03*
X761377Y13466217D02*
D03*
X508000Y13462000D02*
D03*
X254000D02*
D03*
X1016000Y13716000D02*
D03*
X762000D02*
D03*
X508000D02*
D03*
X254000D02*
D03*
Y11684000D02*
D03*
X508000D02*
D03*
X762000D02*
D03*
X1016000D02*
D03*
X254000Y11430000D02*
D03*
X508000D02*
D03*
X761377Y11434217D02*
D03*
X1016000Y11430000D02*
D03*
Y10922000D02*
D03*
X761377Y10926217D02*
D03*
X508000Y10922000D02*
D03*
X254000D02*
D03*
X1016000Y11176000D02*
D03*
X762000D02*
D03*
X508000D02*
D03*
X254000D02*
D03*
X1270000D02*
D03*
X1524000D02*
D03*
X1778000D02*
D03*
X2032000D02*
D03*
X1270000Y10922000D02*
D03*
X1524000D02*
D03*
X1777377Y10926217D02*
D03*
X2032000Y10922000D02*
D03*
Y11430000D02*
D03*
X1777377Y11434217D02*
D03*
X1524000Y11430000D02*
D03*
X1270000D02*
D03*
X2032000Y11684000D02*
D03*
X1778000D02*
D03*
X1524000D02*
D03*
X1270000D02*
D03*
Y12700000D02*
D03*
X1524000D02*
D03*
X1778000D02*
D03*
X2032000D02*
D03*
X1270000Y12446000D02*
D03*
X1524000D02*
D03*
X1777377Y12450217D02*
D03*
X2032000Y12446000D02*
D03*
Y11938000D02*
D03*
X1777377Y11942217D02*
D03*
X1524000Y11938000D02*
D03*
X1270000D02*
D03*
X2032000Y12192000D02*
D03*
X1778000D02*
D03*
X1524000D02*
D03*
X1270000D02*
D03*
X254000D02*
D03*
X508000D02*
D03*
X762000D02*
D03*
X1016000D02*
D03*
X254000Y11938000D02*
D03*
X508000D02*
D03*
X761377Y11942217D02*
D03*
X1016000Y11938000D02*
D03*
Y12446000D02*
D03*
X761377Y12450217D02*
D03*
X508000Y12446000D02*
D03*
X254000D02*
D03*
X1016000Y12700000D02*
D03*
X762000D02*
D03*
X508000D02*
D03*
X254000D02*
D03*
Y16764000D02*
D03*
X508000D02*
D03*
X762000D02*
D03*
X1016000D02*
D03*
X254000Y16510001D02*
D03*
X508000D02*
D03*
X761377Y16514217D02*
D03*
X1016000Y16510001D02*
D03*
Y16002000D02*
D03*
X761377Y16006216D02*
D03*
X508000Y16002000D02*
D03*
X254000D02*
D03*
X1016000Y16256000D02*
D03*
X762000D02*
D03*
X508000D02*
D03*
X254000D02*
D03*
X1270000D02*
D03*
X1524000D02*
D03*
X1778000D02*
D03*
X2032000D02*
D03*
X1270000Y16002000D02*
D03*
X1524000D02*
D03*
X1777377Y16006216D02*
D03*
X2032000Y16002000D02*
D03*
Y16510001D02*
D03*
X1777377Y16514217D02*
D03*
X1524000Y16510001D02*
D03*
X1270000D02*
D03*
X2032000Y16764000D02*
D03*
X1778000D02*
D03*
X1524000D02*
D03*
X1270000D02*
D03*
Y15748000D02*
D03*
X1524000D02*
D03*
X1778000D02*
D03*
X2032000D02*
D03*
X1270000Y15494000D02*
D03*
X1524000D02*
D03*
X1777377Y15498216D02*
D03*
X2032000Y15494000D02*
D03*
Y14986000D02*
D03*
X1777377Y14990218D02*
D03*
X1524000Y14986000D02*
D03*
X1270000D02*
D03*
X2032000Y15239999D02*
D03*
X1778000D02*
D03*
X1524000D02*
D03*
X1270000D02*
D03*
X254000D02*
D03*
X508000D02*
D03*
X762000D02*
D03*
X1016000D02*
D03*
X254000Y14986000D02*
D03*
X508000D02*
D03*
X761377Y14990218D02*
D03*
X1016000Y14986000D02*
D03*
Y15494000D02*
D03*
X761377Y15498216D02*
D03*
X508000Y15494000D02*
D03*
X254000D02*
D03*
X1016000Y15748000D02*
D03*
X762000D02*
D03*
X508000D02*
D03*
X254000D02*
D03*
Y17780000D02*
D03*
X508000D02*
D03*
X762000D02*
D03*
X1016000D02*
D03*
X254000Y17525999D02*
D03*
X508000D02*
D03*
X761377Y17530217D02*
D03*
X1016000Y17525999D02*
D03*
Y17017999D02*
D03*
X761377Y17022217D02*
D03*
X508000Y17017999D02*
D03*
X254000D02*
D03*
X1016000Y17272000D02*
D03*
X762000D02*
D03*
X508000D02*
D03*
X254000D02*
D03*
X1270000D02*
D03*
X1524000D02*
D03*
X1778000D02*
D03*
X2032000D02*
D03*
X1270000Y17017999D02*
D03*
X1524000D02*
D03*
X1777377Y17022217D02*
D03*
X2032000Y17017999D02*
D03*
Y17525999D02*
D03*
X1777377Y17530217D02*
D03*
X1524000Y17525999D02*
D03*
X1270000D02*
D03*
X2032000Y17780000D02*
D03*
X1778000D02*
D03*
X1524000D02*
D03*
X1270000D02*
D03*
X1777377Y18546217D02*
D03*
X2032000Y18542000D02*
D03*
Y18034000D02*
D03*
X1777377Y18038217D02*
D03*
X1524000Y18034000D02*
D03*
X1270000D02*
D03*
X2032000Y18288000D02*
D03*
X1778000D02*
D03*
X1524000D02*
D03*
X1270000D02*
D03*
X254000D02*
D03*
X508000D02*
D03*
X762000D02*
D03*
X1016000D02*
D03*
X254000Y18034000D02*
D03*
X508000D02*
D03*
X761377Y18038217D02*
D03*
X1016000Y18034000D02*
D03*
X254000Y10668000D02*
D03*
X508000D02*
D03*
X761377Y10672217D02*
D03*
X1016000Y10668000D02*
D03*
Y10160000D02*
D03*
X761377Y10164217D02*
D03*
X508000Y10160000D02*
D03*
X254000D02*
D03*
X1016000Y10414000D02*
D03*
X762000D02*
D03*
X508000D02*
D03*
X254000D02*
D03*
X1270000D02*
D03*
X1524000D02*
D03*
X1778000D02*
D03*
X2032000D02*
D03*
X1270000Y10160000D02*
D03*
X1524000D02*
D03*
X1777377Y10164217D02*
D03*
X2032000Y10160000D02*
D03*
Y10668000D02*
D03*
X1777377Y10672217D02*
D03*
X1524000Y10668000D02*
D03*
X1270000D02*
D03*
Y9906000D02*
D03*
X1524000D02*
D03*
X1778000D02*
D03*
X2032000D02*
D03*
X1270000Y9652000D02*
D03*
X1524000D02*
D03*
X1777377Y9656217D02*
D03*
X2032000Y9652000D02*
D03*
Y9144000D02*
D03*
X1777377Y9148217D02*
D03*
X1524000Y9144000D02*
D03*
X1270000D02*
D03*
X2032000Y9398000D02*
D03*
X1778000D02*
D03*
X1524000D02*
D03*
X1270000D02*
D03*
X254000D02*
D03*
X508000D02*
D03*
X762000D02*
D03*
X1016000D02*
D03*
X254000Y9144000D02*
D03*
X508000D02*
D03*
X761377Y9148217D02*
D03*
X1016000Y9144000D02*
D03*
Y9652000D02*
D03*
X761377Y9656217D02*
D03*
X508000Y9652000D02*
D03*
X254000D02*
D03*
X1016000Y9906000D02*
D03*
X762000D02*
D03*
X508000D02*
D03*
X254000D02*
D03*
Y7874000D02*
D03*
X508000D02*
D03*
X762000D02*
D03*
X1016000D02*
D03*
X254000Y7620000D02*
D03*
X508000D02*
D03*
X761377Y7624217D02*
D03*
X1016000Y7620000D02*
D03*
Y7112000D02*
D03*
X761377Y7116217D02*
D03*
X508000Y7112000D02*
D03*
X254000D02*
D03*
X1016000Y7366000D02*
D03*
X762000D02*
D03*
X508000D02*
D03*
X254000D02*
D03*
X1270000D02*
D03*
X1524000D02*
D03*
X1778000D02*
D03*
X2032000D02*
D03*
X1270000Y7112000D02*
D03*
X1524000D02*
D03*
X1777377Y7116217D02*
D03*
X2032000Y7112000D02*
D03*
Y7620000D02*
D03*
X1777377Y7624217D02*
D03*
X1524000Y7620000D02*
D03*
X1270000D02*
D03*
X2032000Y7874000D02*
D03*
X1778000D02*
D03*
X1524000D02*
D03*
X1270000D02*
D03*
Y8890000D02*
D03*
X1524000D02*
D03*
X1778000D02*
D03*
X2032000D02*
D03*
X1270000Y8636000D02*
D03*
X1524000D02*
D03*
X1777377Y8640217D02*
D03*
X2032000Y8636000D02*
D03*
Y8128000D02*
D03*
X1777377Y8132217D02*
D03*
X1524000Y8128000D02*
D03*
X1270000D02*
D03*
X2032000Y8382000D02*
D03*
X1778000D02*
D03*
X1524000D02*
D03*
X1270000D02*
D03*
X254000D02*
D03*
X508000D02*
D03*
X762000D02*
D03*
X1016000D02*
D03*
X254000Y8128000D02*
D03*
X508000D02*
D03*
X761377Y8132217D02*
D03*
X1016000Y8128000D02*
D03*
Y8636000D02*
D03*
X761377Y8640217D02*
D03*
X508000Y8636000D02*
D03*
X254000D02*
D03*
X1016000Y8890000D02*
D03*
X762000D02*
D03*
X508000D02*
D03*
X254000D02*
D03*
Y4826000D02*
D03*
X508000D02*
D03*
X762000D02*
D03*
X1016000D02*
D03*
X254000Y4572000D02*
D03*
X508000D02*
D03*
X761377Y4576217D02*
D03*
X1016000Y4572000D02*
D03*
Y4064000D02*
D03*
X761377Y4068217D02*
D03*
X508000Y4064000D02*
D03*
X254000D02*
D03*
X1016000Y4318000D02*
D03*
X762000D02*
D03*
X508000D02*
D03*
X254000D02*
D03*
X1270000D02*
D03*
X1524000D02*
D03*
X1778000D02*
D03*
X2032000D02*
D03*
X1270000Y4064000D02*
D03*
X1524000D02*
D03*
X1777377Y4068217D02*
D03*
X2032000Y4064000D02*
D03*
Y4572000D02*
D03*
X1777377Y4576217D02*
D03*
X1524000Y4572000D02*
D03*
X1270000D02*
D03*
X2032000Y4826000D02*
D03*
X1778000D02*
D03*
X1524000D02*
D03*
X1270000D02*
D03*
Y3810000D02*
D03*
X1524000D02*
D03*
X1778000D02*
D03*
X2032000D02*
D03*
X1270000Y3556000D02*
D03*
X1524000D02*
D03*
X1777377Y3560217D02*
D03*
X2032000Y3556000D02*
D03*
Y3048000D02*
D03*
X1777377Y3052217D02*
D03*
X1524000Y3048000D02*
D03*
X1270000D02*
D03*
X2032000Y3302000D02*
D03*
X1778000D02*
D03*
X1524000D02*
D03*
X1270000D02*
D03*
X254000D02*
D03*
X508000D02*
D03*
X762000D02*
D03*
X1016000D02*
D03*
X254000Y3048000D02*
D03*
X508000D02*
D03*
X761377Y3052217D02*
D03*
X1016000Y3048000D02*
D03*
Y3556000D02*
D03*
X761377Y3560217D02*
D03*
X508000Y3556000D02*
D03*
X254000D02*
D03*
X1016000Y3810000D02*
D03*
X762000D02*
D03*
X508000D02*
D03*
X254000D02*
D03*
Y5842000D02*
D03*
X508000D02*
D03*
X762000D02*
D03*
X1016000D02*
D03*
X254000Y5588000D02*
D03*
X508000D02*
D03*
X761377Y5592217D02*
D03*
X1016000Y5588000D02*
D03*
Y5080000D02*
D03*
X761377Y5084217D02*
D03*
X508000Y5080000D02*
D03*
X254000D02*
D03*
X1016000Y5334000D02*
D03*
X762000D02*
D03*
X508000D02*
D03*
X254000D02*
D03*
X1270000D02*
D03*
X1524000D02*
D03*
X1778000D02*
D03*
X2032000D02*
D03*
X1270000Y5080000D02*
D03*
X1524000D02*
D03*
X1777377Y5084217D02*
D03*
X2032000Y5080000D02*
D03*
Y5588000D02*
D03*
X1777377Y5592217D02*
D03*
X1524000Y5588000D02*
D03*
X1270000D02*
D03*
X2032000Y5842000D02*
D03*
X1778000D02*
D03*
X1524000D02*
D03*
X1270000D02*
D03*
Y6858000D02*
D03*
X1524000D02*
D03*
X1778000D02*
D03*
X2032000D02*
D03*
X1270000Y6604000D02*
D03*
X1524000D02*
D03*
X1777377Y6608217D02*
D03*
X2032000Y6604000D02*
D03*
Y6096000D02*
D03*
X1777377Y6100217D02*
D03*
X1524000Y6096000D02*
D03*
X1270000D02*
D03*
X2032000Y6350000D02*
D03*
X1778000D02*
D03*
X1524000D02*
D03*
X1270000D02*
D03*
X254000D02*
D03*
X508000D02*
D03*
X762000D02*
D03*
X1016000D02*
D03*
X254000Y6096000D02*
D03*
X508000D02*
D03*
X761377Y6100217D02*
D03*
X1016000Y6096000D02*
D03*
Y6604000D02*
D03*
X761377Y6608217D02*
D03*
X508000Y6604000D02*
D03*
X254000D02*
D03*
X1016000Y6858000D02*
D03*
X762000D02*
D03*
X508000D02*
D03*
X254000D02*
D03*
X7721600Y8584660D02*
D03*
Y8709660D02*
D03*
X7818120D02*
D03*
Y8584660D02*
D03*
X5372100Y10795000D02*
D03*
Y10642600D02*
D03*
Y10528300D02*
D03*
X7544918Y12664638D02*
D03*
Y12867838D02*
D03*
X7354418D02*
D03*
X7434580Y13610591D02*
D03*
X6380912Y10371003D02*
D03*
X6295002D02*
D03*
X5600700Y10759887D02*
D03*
X11503399Y11944924D02*
D03*
X6295002Y9536490D02*
D03*
X6230912D02*
D03*
X12497783Y4719937D02*
D03*
X12582209Y4589165D02*
D03*
X12828964Y4696025D02*
D03*
X12545494Y4644789D02*
D03*
X12743040Y4696025D02*
D03*
X12579447Y4719937D02*
D03*
X13073380Y5326380D02*
D03*
X8234680Y16193639D02*
D03*
X7997351Y16383437D02*
D03*
X8404860Y15925252D02*
D03*
Y15800252D02*
D03*
X9972040Y6158139D02*
D03*
X10175240D02*
D03*
X9768840D02*
D03*
X11191240Y6154420D02*
D03*
X11394440D02*
D03*
X10777220Y6158139D02*
D03*
X10988040Y6154420D02*
D03*
X10370820Y6158139D02*
D03*
X10574020D02*
D03*
X10868660Y6385560D02*
D03*
X11071860D02*
D03*
X11275060D02*
D03*
X10251440Y6389279D02*
D03*
X10454640D02*
D03*
X10657840D02*
D03*
X11805920Y5951220D02*
D03*
X11602720Y6154420D02*
D03*
X11805920D02*
D03*
X12009120D02*
D03*
Y5951220D02*
D03*
X11805951Y6759111D02*
D03*
Y6555911D02*
D03*
X12009151Y6759111D02*
D03*
Y6555911D02*
D03*
Y6352711D02*
D03*
X11805951D02*
D03*
X11275060Y6588760D02*
D03*
X11071860D02*
D03*
X10868660D02*
D03*
X10657840Y6592479D02*
D03*
X10454640D02*
D03*
X10251440D02*
D03*
X14724380Y12194540D02*
D03*
X14879729Y12391923D02*
D03*
X5670154Y5075590D02*
D03*
Y6294645D02*
D03*
Y6091445D02*
D03*
Y5888245D02*
D03*
Y5481845D02*
D03*
Y5278645D02*
D03*
X7981554Y7120145D02*
D03*
Y6916945D02*
D03*
X8184754D02*
D03*
X7981554Y6713745D02*
D03*
X8184754D02*
D03*
X8387954D02*
D03*
Y6916945D02*
D03*
X8184754Y7120145D02*
D03*
X8387954D02*
D03*
X7981554Y5900945D02*
D03*
Y5494545D02*
D03*
X8184754D02*
D03*
Y5900945D02*
D03*
X8387954Y5494545D02*
D03*
Y5900945D02*
D03*
X7981554Y5697745D02*
D03*
X5873354Y5888245D02*
D03*
X8184754Y5697745D02*
D03*
X5873354Y5481845D02*
D03*
X5670154Y5685045D02*
D03*
X5873354D02*
D03*
X8387954Y5697745D02*
D03*
X7981554Y6104145D02*
D03*
Y6510545D02*
D03*
Y6307345D02*
D03*
X8184754D02*
D03*
X8387954D02*
D03*
X8184754Y6510545D02*
D03*
X8387954D02*
D03*
X8184754Y6104145D02*
D03*
X8387954D02*
D03*
X7981554Y5088290D02*
D03*
Y5291345D02*
D03*
X8184754D02*
D03*
Y5088290D02*
D03*
X8387954D02*
D03*
Y5291345D02*
D03*
X5670154Y6497845D02*
D03*
Y6701045D02*
D03*
X5873354Y6497845D02*
D03*
Y6701045D02*
D03*
Y7107445D02*
D03*
Y6904245D02*
D03*
X5670154D02*
D03*
Y7107445D02*
D03*
X6076554Y6701045D02*
D03*
Y7107445D02*
D03*
Y6904245D02*
D03*
Y6497845D02*
D03*
X5873354Y6294645D02*
D03*
X6076554Y5481845D02*
D03*
Y5685045D02*
D03*
Y6294645D02*
D03*
Y5888245D02*
D03*
X5873354Y6091445D02*
D03*
X6076554D02*
D03*
X5873354Y5278645D02*
D03*
Y5075590D02*
D03*
X6076554D02*
D03*
Y5278645D02*
D03*
X5873354Y3043590D02*
D03*
Y3449990D02*
D03*
Y3246790D02*
D03*
Y2840390D02*
D03*
X5670154D02*
D03*
X8387954Y3665890D02*
D03*
X8184754D02*
D03*
X8387954Y4275490D02*
D03*
X7981554Y4681890D02*
D03*
Y3665890D02*
D03*
Y4275490D02*
D03*
Y4072290D02*
D03*
X8184754Y3869090D02*
D03*
Y4072290D02*
D03*
Y4478690D02*
D03*
Y4681890D02*
D03*
Y4275490D02*
D03*
X8387954Y3869090D02*
D03*
Y4072290D02*
D03*
Y4681890D02*
D03*
Y4478690D02*
D03*
X5670154Y4262790D02*
D03*
Y3856390D02*
D03*
Y3246790D02*
D03*
Y3449990D02*
D03*
Y3653190D02*
D03*
Y4872390D02*
D03*
Y4465990D02*
D03*
Y4059590D02*
D03*
Y4669190D02*
D03*
X8184754Y3462690D02*
D03*
X8387954Y3259490D02*
D03*
Y3056290D02*
D03*
Y3462690D02*
D03*
X8184754Y3056290D02*
D03*
X7981554D02*
D03*
X8184754Y3259490D02*
D03*
X7981554Y3462690D02*
D03*
Y3259490D02*
D03*
X5873354Y4872390D02*
D03*
X5670154Y3043590D02*
D03*
X6076554Y3246790D02*
D03*
Y3043590D02*
D03*
Y3449990D02*
D03*
Y2840390D02*
D03*
Y4872390D02*
D03*
X5873354Y3653190D02*
D03*
Y3856390D02*
D03*
Y4059590D02*
D03*
Y4262790D02*
D03*
Y4669190D02*
D03*
Y4465990D02*
D03*
X6076554Y3856390D02*
D03*
Y3653190D02*
D03*
Y4465990D02*
D03*
Y4669190D02*
D03*
Y4059590D02*
D03*
Y4262790D02*
D03*
X7981554Y3869090D02*
D03*
Y4478690D02*
D03*
Y4885090D02*
D03*
X8184754D02*
D03*
X8387954D02*
D03*
X8299296Y17251961D02*
D03*
X8786301Y17825337D02*
D03*
X16869511Y10575999D02*
D03*
X17104660Y11361659D02*
D03*
X17017999Y11363399D02*
D03*
X16776532D02*
D03*
X16666692D02*
D03*
X16539752D02*
D03*
X19075400Y12258652D02*
D03*
X12755631Y4993070D02*
D03*
X15326540Y14048006D02*
D03*
X9060990Y9490762D02*
D03*
X8637778Y9488434D02*
D03*
X9731064Y9388221D02*
D03*
X8520695Y11907587D02*
D03*
X8519264Y11492921D02*
D03*
X8725100Y12300002D02*
D03*
X8991010Y12416842D02*
D03*
X8759190D02*
D03*
X9652598Y12483363D02*
D03*
X10075103D02*
D03*
X10725100Y12482882D02*
D03*
X10297602D02*
D03*
X11440789Y11714788D02*
D03*
X11504506Y11872503D02*
D03*
Y11672503D02*
D03*
Y11272504D02*
D03*
X11505361Y10812847D02*
D03*
X11506601Y10427506D02*
D03*
Y10180372D02*
D03*
Y10267313D02*
D03*
X11510441Y9650002D02*
D03*
Y10072507D02*
D03*
X11063877Y9584243D02*
D03*
X9170780Y9498538D02*
D03*
X10825100Y11597692D02*
D03*
X9224901Y11600232D02*
D03*
X10525001Y9900002D02*
D03*
X10525100Y9700002D02*
D03*
X4280330Y10687101D02*
D03*
Y10864900D02*
D03*
X7151218Y12664638D02*
D03*
Y12867838D02*
D03*
X7354418Y12664638D02*
D03*
X6948018D02*
D03*
Y12867838D02*
D03*
X7748118Y12664638D02*
D03*
Y12867838D02*
D03*
X2743200Y12725254D02*
D03*
Y12522054D02*
D03*
Y12928600D02*
D03*
Y13335001D02*
D03*
Y13538200D02*
D03*
Y13131799D02*
D03*
Y13741400D02*
D03*
Y13944600D02*
D03*
X15201900Y14300200D02*
D03*
X15405099D02*
D03*
Y14503400D02*
D03*
X15201900D02*
D03*
X15608299D02*
D03*
X15811501D02*
D03*
Y14300200D02*
D03*
X15608299D02*
D03*
X17183099Y13893800D02*
D03*
X14833600Y15530302D02*
D03*
X14935201D02*
D03*
Y15428702D02*
D03*
X14833600D02*
D03*
X18834100Y19215100D02*
D03*
Y19418300D02*
D03*
Y19608800D02*
D03*
Y19812000D02*
D03*
X18224500D02*
D03*
X18427699D02*
D03*
X18630901D02*
D03*
Y19608800D02*
D03*
X18427699D02*
D03*
X18224500D02*
D03*
Y19418300D02*
D03*
X18427699D02*
D03*
X18630901D02*
D03*
Y19215100D02*
D03*
X18427699D02*
D03*
X18224500D02*
D03*
X14389101D02*
D03*
X14592300D02*
D03*
X14795500D02*
D03*
Y19418300D02*
D03*
X14592300D02*
D03*
X14389101D02*
D03*
Y19608800D02*
D03*
X14592300D02*
D03*
X14795500D02*
D03*
Y19812000D02*
D03*
X14592300D02*
D03*
X14389101D02*
D03*
X14998700D02*
D03*
X15201900D02*
D03*
X15405099D02*
D03*
Y19608800D02*
D03*
X15201900D02*
D03*
X14998700D02*
D03*
Y19418300D02*
D03*
X15201900D02*
D03*
X15405099D02*
D03*
Y19215100D02*
D03*
X15201900D02*
D03*
X14998700D02*
D03*
X15608299D02*
D03*
X15811501D02*
D03*
X16014700D02*
D03*
Y19418300D02*
D03*
X15811501D02*
D03*
X15608299D02*
D03*
Y19608800D02*
D03*
X15811501D02*
D03*
X16014700D02*
D03*
Y19812000D02*
D03*
X15811501D02*
D03*
X15608299D02*
D03*
X16611600D02*
D03*
X16814799D02*
D03*
X17017999D02*
D03*
Y19608800D02*
D03*
X16814799D02*
D03*
X16611600D02*
D03*
Y19418300D02*
D03*
X16814799D02*
D03*
X17017999D02*
D03*
X16611600Y19215100D02*
D03*
X16205200D02*
D03*
X16408400D02*
D03*
Y19418300D02*
D03*
X16205200D02*
D03*
Y19608800D02*
D03*
X16408400D02*
D03*
Y19812000D02*
D03*
X16205200D02*
D03*
X17208501D02*
D03*
X17411700D02*
D03*
Y19608800D02*
D03*
X17208501D02*
D03*
Y19418300D02*
D03*
X17411700D02*
D03*
Y19215100D02*
D03*
X17208501D02*
D03*
X17614900D02*
D03*
X17818100D02*
D03*
X18021300D02*
D03*
Y19418300D02*
D03*
X17818100D02*
D03*
X17614900D02*
D03*
Y19608800D02*
D03*
X17818100D02*
D03*
X18021300D02*
D03*
Y19812000D02*
D03*
X17818100D02*
D03*
X17614900D02*
D03*
X19843686Y13747263D02*
D03*
X19640488D02*
D03*
X19437286D02*
D03*
X19500482Y15029259D02*
D03*
X19703682D02*
D03*
Y15232458D02*
D03*
X19500482D02*
D03*
X19297282D02*
D03*
Y15029259D02*
D03*
X19316701Y16357600D02*
D03*
Y16560800D02*
D03*
X19519901D02*
D03*
X19723100D02*
D03*
Y16357600D02*
D03*
X19519901D02*
D03*
X17297400Y16738600D02*
D03*
X17500600D02*
D03*
X17703799D02*
D03*
Y16941800D02*
D03*
X17500600D02*
D03*
X17297400D02*
D03*
X17907001D02*
D03*
X18110201D02*
D03*
X18313400D02*
D03*
Y16738600D02*
D03*
X18110201D02*
D03*
X17907001D02*
D03*
X18719800D02*
D03*
X18516600Y16941800D02*
D03*
X19519901D02*
D03*
X19723100D02*
D03*
Y16738600D02*
D03*
X19519901D02*
D03*
X19113499D02*
D03*
X19316701D02*
D03*
Y16941800D02*
D03*
X19113499D02*
D03*
X13462000Y16738600D02*
D03*
X13665199D02*
D03*
X13868401D02*
D03*
Y16941800D02*
D03*
X13665199D02*
D03*
X13462000D02*
D03*
X14071600D02*
D03*
X14274800D02*
D03*
X14478000D02*
D03*
Y16738600D02*
D03*
X14274800D02*
D03*
X14071600D02*
D03*
X14681200D02*
D03*
X14884399D02*
D03*
X15087601D02*
D03*
Y16941800D02*
D03*
X14884399D02*
D03*
X14681200D02*
D03*
X15684500D02*
D03*
X15887700D02*
D03*
X16090900D02*
D03*
Y16738600D02*
D03*
X15887700D02*
D03*
X15684500D02*
D03*
X15278101D02*
D03*
X15481300D02*
D03*
Y16941800D02*
D03*
X15278101D02*
D03*
X16281400D02*
D03*
X16484599D02*
D03*
Y16738600D02*
D03*
X16281400D02*
D03*
X16687801D02*
D03*
X16891000D02*
D03*
X17094200D02*
D03*
Y16941800D02*
D03*
X16891000D02*
D03*
X16687801D02*
D03*
X16916400Y13627100D02*
D03*
Y13436600D02*
D03*
X17373599Y13309599D02*
D03*
X17183099D02*
D03*
X17843500Y13404388D02*
D03*
X17653000D02*
D03*
X4368800Y12280900D02*
D03*
Y12484100D02*
D03*
X4165600D02*
D03*
Y12280900D02*
D03*
X4775200D02*
D03*
Y12484100D02*
D03*
Y12687300D02*
D03*
X4572000D02*
D03*
Y12484100D02*
D03*
Y12280900D02*
D03*
Y12890500D02*
D03*
X4775200D02*
D03*
X14414500Y13462000D02*
D03*
X14617700D02*
D03*
X14808200D02*
D03*
X14211301D02*
D03*
X14008099D02*
D03*
X13817599D02*
D03*
X13614400D02*
D03*
X16256000Y13068300D02*
D03*
Y13271500D02*
D03*
Y13474699D02*
D03*
X16459200D02*
D03*
Y13271500D02*
D03*
Y13068300D02*
D03*
X16649699D02*
D03*
Y13271500D02*
D03*
Y13474699D02*
D03*
X16052800Y13068300D02*
D03*
Y13271500D02*
D03*
Y13474699D02*
D03*
X15849600D02*
D03*
Y13271500D02*
D03*
Y13068300D02*
D03*
X15659100D02*
D03*
Y13271500D02*
D03*
Y13474699D02*
D03*
X15455901D02*
D03*
Y13271500D02*
D03*
Y13068300D02*
D03*
X16992599Y12026900D02*
D03*
X17195799D02*
D03*
X17399001D02*
D03*
Y11823700D02*
D03*
X17195799D02*
D03*
X16992599D02*
D03*
Y11633200D02*
D03*
X17195799D02*
D03*
X17399001D02*
D03*
X16992599Y12230100D02*
D03*
X17195799D02*
D03*
X17399001D02*
D03*
Y12433300D02*
D03*
X17195799D02*
D03*
X16992599D02*
D03*
Y12623800D02*
D03*
X17195799D02*
D03*
X17399001D02*
D03*
Y12827000D02*
D03*
X17195799D02*
D03*
X16992599D02*
D03*
X17589500Y12026900D02*
D03*
Y11823700D02*
D03*
Y11633200D02*
D03*
Y12230100D02*
D03*
Y12433300D02*
D03*
Y12623800D02*
D03*
Y12827000D02*
D03*
X15875000Y11430000D02*
D03*
Y11633200D02*
D03*
X15671800D02*
D03*
Y11430000D02*
D03*
X13842999Y10363200D02*
D03*
Y10160000D02*
D03*
X13639799Y9956800D02*
D03*
X13233400D02*
D03*
X13436600D02*
D03*
X13030200D02*
D03*
Y9753600D02*
D03*
X13233400Y9550400D02*
D03*
X13436600D02*
D03*
Y9753600D02*
D03*
X13233400D02*
D03*
X13842999Y9956800D02*
D03*
X14452600Y9753600D02*
D03*
X13842999D02*
D03*
X13639799D02*
D03*
Y9550400D02*
D03*
X13842999D02*
D03*
X14046201D02*
D03*
X14249400D02*
D03*
Y9753600D02*
D03*
X14046201D02*
D03*
X14249400Y10363200D02*
D03*
X14046201D02*
D03*
X14249400Y10566400D02*
D03*
Y10160000D02*
D03*
X14046201D02*
D03*
Y9956800D02*
D03*
X14249400D02*
D03*
X14452600D02*
D03*
X14655800D02*
D03*
X14859000Y10160000D02*
D03*
X14655800D02*
D03*
X14452600D02*
D03*
Y10566400D02*
D03*
X14655800D02*
D03*
X14859000D02*
D03*
Y10363200D02*
D03*
X14655800D02*
D03*
X14452600D02*
D03*
Y10769600D02*
D03*
X14655800D02*
D03*
X14859000D02*
D03*
Y10972800D02*
D03*
X14655800D02*
D03*
X14452600D02*
D03*
Y11163300D02*
D03*
X14655800D02*
D03*
X14859000D02*
D03*
Y11366500D02*
D03*
X14655800D02*
D03*
X14452600D02*
D03*
X15062199D02*
D03*
Y11163300D02*
D03*
Y10972800D02*
D03*
Y10769600D02*
D03*
Y10363200D02*
D03*
Y10566400D02*
D03*
X12781084Y11836143D02*
D03*
X12577884D02*
D03*
Y11645643D02*
D03*
X12781084D02*
D03*
X10937690Y8966995D02*
D03*
X10734490D02*
D03*
Y8776495D02*
D03*
X10937690D02*
D03*
X10942858Y8611174D02*
D03*
X10739658D02*
D03*
Y8420674D02*
D03*
X10942858D02*
D03*
X12978603Y8260624D02*
D03*
X13181802D02*
D03*
X13385002D02*
D03*
Y8463824D02*
D03*
X13181802D02*
D03*
X12978603D02*
D03*
Y8654324D02*
D03*
X13181802D02*
D03*
X13385002D02*
D03*
Y8857524D02*
D03*
X13181802D02*
D03*
X12978603D02*
D03*
X13588202D02*
D03*
Y8654324D02*
D03*
Y8463824D02*
D03*
Y8260624D02*
D03*
X16710316Y9955931D02*
D03*
Y10159131D02*
D03*
X16507117D02*
D03*
Y9955931D02*
D03*
X16316617D02*
D03*
Y10159131D02*
D03*
X16113417D02*
D03*
Y9955931D02*
D03*
X15388223Y8705776D02*
D03*
X15591425D02*
D03*
Y8908976D02*
D03*
X15388223D02*
D03*
Y9099476D02*
D03*
X15591425D02*
D03*
Y9302676D02*
D03*
X15388223D02*
D03*
X14852403Y7463787D02*
D03*
X15055605D02*
D03*
X15258804D02*
D03*
X14852403Y7666987D02*
D03*
X15055605D02*
D03*
X15258804D02*
D03*
Y7870187D02*
D03*
X15055605D02*
D03*
X14852403D02*
D03*
Y8060687D02*
D03*
X15055605D02*
D03*
X15258804D02*
D03*
Y8263887D02*
D03*
X15055605D02*
D03*
X14852403D02*
D03*
X15462004D02*
D03*
X15665204D02*
D03*
Y8060687D02*
D03*
X15462004D02*
D03*
Y7870187D02*
D03*
X15665204D02*
D03*
Y7666987D02*
D03*
X15462004D02*
D03*
X15665204Y7463787D02*
D03*
X15462004D02*
D03*
X17447357Y9643941D02*
D03*
X17637857Y9847141D02*
D03*
Y9643941D02*
D03*
X8458200Y14363699D02*
D03*
X8661400D02*
D03*
Y14160500D02*
D03*
X8458200D02*
D03*
Y14566901D02*
D03*
X8661400D02*
D03*
Y14770100D02*
D03*
X8458200D02*
D03*
Y14960600D02*
D03*
X8661400D02*
D03*
X8255000D02*
D03*
X8051800D02*
D03*
X7848600D02*
D03*
Y14770100D02*
D03*
X8051800D02*
D03*
X8255000D02*
D03*
Y14566901D02*
D03*
X8051800D02*
D03*
X7848600D02*
D03*
Y14160500D02*
D03*
X8051800D02*
D03*
X8255000D02*
D03*
Y14363699D02*
D03*
X8051800D02*
D03*
X7848600D02*
D03*
X10706100Y12953999D02*
D03*
Y12750800D02*
D03*
X11303000D02*
D03*
X11112500D02*
D03*
Y12953999D02*
D03*
X10909300D02*
D03*
Y12750800D02*
D03*
X9906000Y12953999D02*
D03*
Y12750800D02*
D03*
X10502900Y12953999D02*
D03*
Y12750800D02*
D03*
X10312400D02*
D03*
Y12953999D02*
D03*
X10109200D02*
D03*
Y12750800D02*
D03*
X9105900Y12953999D02*
D03*
Y12750800D02*
D03*
X9702800Y12953999D02*
D03*
Y12750800D02*
D03*
X9512300D02*
D03*
Y12953999D02*
D03*
X9309100D02*
D03*
Y12750800D02*
D03*
X10942858Y8062012D02*
D03*
X10739658D02*
D03*
Y8252512D02*
D03*
X10942858D02*
D03*
X12090400Y9842500D02*
D03*
X12293600Y9639300D02*
D03*
X12090400D02*
D03*
X12293600Y9436100D02*
D03*
X12090400D02*
D03*
X12293600Y9842500D02*
D03*
Y10045700D02*
D03*
X12090400D02*
D03*
Y11252200D02*
D03*
X12293600D02*
D03*
Y11049000D02*
D03*
X12090400D02*
D03*
Y10858500D02*
D03*
X12293600D02*
D03*
Y10655300D02*
D03*
X12090400D02*
D03*
Y10248900D02*
D03*
X12293600D02*
D03*
Y10452100D02*
D03*
X12090400D02*
D03*
Y12458700D02*
D03*
X12293600D02*
D03*
Y12255500D02*
D03*
X12090400D02*
D03*
Y12065000D02*
D03*
X12293600D02*
D03*
Y11861800D02*
D03*
X12090400D02*
D03*
Y11455400D02*
D03*
X12293600D02*
D03*
Y11658600D02*
D03*
X12090400D02*
D03*
X10236200Y9258300D02*
D03*
X10033000D02*
D03*
X9469120Y8851900D02*
D03*
Y9055100D02*
D03*
X9639300D02*
D03*
Y8851900D02*
D03*
X9829800D02*
D03*
Y9055100D02*
D03*
X10033000D02*
D03*
Y8851900D02*
D03*
Y8242300D02*
D03*
Y8445500D02*
D03*
Y8648700D02*
D03*
X9829800D02*
D03*
Y8445500D02*
D03*
Y8242300D02*
D03*
X9639300D02*
D03*
Y8445500D02*
D03*
Y8648700D02*
D03*
X9469120D02*
D03*
Y8445500D02*
D03*
Y8242300D02*
D03*
Y8039100D02*
D03*
X9639300D02*
D03*
X9829800D02*
D03*
X10033000D02*
D03*
X4368800Y12687300D02*
D03*
Y12890500D02*
D03*
X3759200D02*
D03*
X3962400D02*
D03*
X4165600D02*
D03*
Y12687300D02*
D03*
X3962400D02*
D03*
X3759200D02*
D03*
Y13093700D02*
D03*
X3962400D02*
D03*
X4165600D02*
D03*
Y13296899D02*
D03*
X3962400D02*
D03*
X3759200D02*
D03*
X4368800D02*
D03*
X4572000D02*
D03*
X4775200D02*
D03*
Y13093700D02*
D03*
X4572000D02*
D03*
X4368800D02*
D03*
X4978400D02*
D03*
X5181600D02*
D03*
X5384800D02*
D03*
Y13296899D02*
D03*
X5181600D02*
D03*
X4978400D02*
D03*
X3556000Y13741400D02*
D03*
X3352800D02*
D03*
X3149600D02*
D03*
Y13944600D02*
D03*
X3352800D02*
D03*
X3556000D02*
D03*
X2946400D02*
D03*
Y13741400D02*
D03*
X4978400Y13944600D02*
D03*
X5181600D02*
D03*
X5384800D02*
D03*
Y13741400D02*
D03*
X5181600D02*
D03*
X4978400D02*
D03*
X4368800D02*
D03*
X4572000D02*
D03*
X4775200D02*
D03*
Y13944600D02*
D03*
X4572000D02*
D03*
X4368800D02*
D03*
X3759200D02*
D03*
X3962400D02*
D03*
X4165600D02*
D03*
Y13741400D02*
D03*
X3962400D02*
D03*
X3759200D02*
D03*
X10638224Y16624300D02*
D03*
X10828724D02*
D03*
X11031924D02*
D03*
Y16827499D02*
D03*
X10828724D02*
D03*
X10638224D02*
D03*
X10106982Y15748000D02*
D03*
X10310182D02*
D03*
X10500682D02*
D03*
X11899900D02*
D03*
X11709400D02*
D03*
X10718800Y15951199D02*
D03*
X10909300D02*
D03*
X11112500D02*
D03*
X11506200D02*
D03*
X11315700D02*
D03*
Y15748000D02*
D03*
X11506200D02*
D03*
X11112500D02*
D03*
X10909300D02*
D03*
X10718800D02*
D03*
X11709400Y16929100D02*
D03*
Y16725900D02*
D03*
Y16535400D02*
D03*
Y16332201D02*
D03*
Y15951199D02*
D03*
Y16128999D02*
D03*
X11912600D02*
D03*
Y15951199D02*
D03*
Y16332201D02*
D03*
Y16535400D02*
D03*
Y16725900D02*
D03*
Y16929100D02*
D03*
X3506901Y10014000D02*
D03*
X3862501D02*
D03*
X3684701D02*
D03*
X3862501Y10268000D02*
D03*
X3684701D02*
D03*
X3506901D02*
D03*
X3684701Y10522000D02*
D03*
X3862501D02*
D03*
X3506901D02*
D03*
X2783001Y10522002D02*
D03*
X2605201D02*
D03*
X3138601D02*
D03*
X2960801D02*
D03*
Y10014000D02*
D03*
X3138601D02*
D03*
X2960801Y10268000D02*
D03*
X3138601D02*
D03*
X2783001Y10014000D02*
D03*
X2605201D02*
D03*
Y10268000D02*
D03*
X2783001D02*
D03*
X13779500Y19812000D02*
D03*
X13982700D02*
D03*
X14185899D02*
D03*
Y19608800D02*
D03*
X13982700D02*
D03*
X13779500D02*
D03*
Y19418300D02*
D03*
X13982700D02*
D03*
X14185899D02*
D03*
Y19215100D02*
D03*
X13982700D02*
D03*
X13779500D02*
D03*
X13373100D02*
D03*
X13576300D02*
D03*
Y19418300D02*
D03*
X13373100D02*
D03*
Y19608800D02*
D03*
X13576300D02*
D03*
Y19812000D02*
D03*
X13373100D02*
D03*
X12369800D02*
D03*
X12573000D02*
D03*
Y19608800D02*
D03*
X12369800D02*
D03*
Y19418300D02*
D03*
X12573000D02*
D03*
Y19215100D02*
D03*
X12369800D02*
D03*
Y18414999D02*
D03*
X12573000D02*
D03*
Y18618201D02*
D03*
X12369800D02*
D03*
Y18808701D02*
D03*
X12573000D02*
D03*
Y19011900D02*
D03*
X12369800D02*
D03*
X12776200D02*
D03*
X12979401D02*
D03*
X13182600D02*
D03*
Y18808701D02*
D03*
X12979401D02*
D03*
X12776200D02*
D03*
Y18618201D02*
D03*
X12979401D02*
D03*
X13182600D02*
D03*
Y18414999D02*
D03*
X12979401D02*
D03*
X12776200D02*
D03*
Y19215100D02*
D03*
X12979401D02*
D03*
X13182600D02*
D03*
Y19418300D02*
D03*
X12979401D02*
D03*
X12776200D02*
D03*
Y19608800D02*
D03*
X12979401D02*
D03*
X13182600D02*
D03*
Y19812000D02*
D03*
X12979401D02*
D03*
X12776200D02*
D03*
X11772900D02*
D03*
X11976100D02*
D03*
X12179300D02*
D03*
Y19608800D02*
D03*
X11976100D02*
D03*
X11772900D02*
D03*
Y19418300D02*
D03*
X11976100D02*
D03*
X12179300D02*
D03*
Y19215100D02*
D03*
X11976100D02*
D03*
X11772900D02*
D03*
Y18414999D02*
D03*
X11976100D02*
D03*
X12179300D02*
D03*
Y18618201D02*
D03*
X11976100D02*
D03*
X11772900D02*
D03*
Y18808701D02*
D03*
X11976100D02*
D03*
X12179300D02*
D03*
Y19011900D02*
D03*
X11976100D02*
D03*
X11772900D02*
D03*
X11163300D02*
D03*
X11366500D02*
D03*
X11569700D02*
D03*
Y18808701D02*
D03*
X11366500D02*
D03*
X11163300D02*
D03*
Y18618201D02*
D03*
X11366500D02*
D03*
X11569700D02*
D03*
Y18414999D02*
D03*
X11366500D02*
D03*
X11163300D02*
D03*
Y19215100D02*
D03*
X11366500D02*
D03*
X11569700D02*
D03*
Y19418300D02*
D03*
X11366500D02*
D03*
X11163300D02*
D03*
Y19608800D02*
D03*
X11366500D02*
D03*
X11569700D02*
D03*
Y19812000D02*
D03*
X11366500D02*
D03*
X11163300D02*
D03*
X10553700D02*
D03*
X10756900D02*
D03*
X10960100D02*
D03*
Y19608800D02*
D03*
X10756900D02*
D03*
X10553700D02*
D03*
Y19418300D02*
D03*
X10756900D02*
D03*
X10960100D02*
D03*
Y19215100D02*
D03*
X10756900D02*
D03*
X10553700D02*
D03*
Y18414999D02*
D03*
X10756900D02*
D03*
X10960100D02*
D03*
Y18618201D02*
D03*
X10756900D02*
D03*
X10553700D02*
D03*
Y18808701D02*
D03*
X10756900D02*
D03*
X10960100D02*
D03*
Y19011900D02*
D03*
X10756900D02*
D03*
X10553700D02*
D03*
X7607300Y16637000D02*
D03*
X7200900Y18237199D02*
D03*
X7404100Y18034000D02*
D03*
Y18237199D02*
D03*
X7810500Y17437100D02*
D03*
X8013700D02*
D03*
Y17233900D02*
D03*
X7810500D02*
D03*
Y17043401D02*
D03*
X8013700D02*
D03*
Y16840199D02*
D03*
X7810500D02*
D03*
Y17640300D02*
D03*
X8013700D02*
D03*
Y17843500D02*
D03*
X7810500D02*
D03*
Y18034000D02*
D03*
X8013700D02*
D03*
Y18237199D02*
D03*
X7810500D02*
D03*
X7607300D02*
D03*
Y18034000D02*
D03*
Y17843500D02*
D03*
Y17640300D02*
D03*
Y16840199D02*
D03*
Y17043401D02*
D03*
Y17233900D02*
D03*
Y17437100D02*
D03*
X7200900Y19037300D02*
D03*
X7404100D02*
D03*
X7607300D02*
D03*
Y18834100D02*
D03*
X7404100D02*
D03*
X7200900D02*
D03*
Y18643600D02*
D03*
X7404100D02*
D03*
X7607300D02*
D03*
Y18440401D02*
D03*
X7404100D02*
D03*
X7200900D02*
D03*
Y19240500D02*
D03*
X7404100D02*
D03*
X7607300D02*
D03*
X8216900D02*
D03*
X8013700D02*
D03*
X7810500D02*
D03*
Y18440401D02*
D03*
X8013700D02*
D03*
X8216900D02*
D03*
Y18643600D02*
D03*
X8013700D02*
D03*
X7810500D02*
D03*
Y18834100D02*
D03*
X8013700D02*
D03*
X8216900D02*
D03*
Y19037300D02*
D03*
X8013700D02*
D03*
X7810500D02*
D03*
X19467162Y12258652D02*
D03*
X7630218Y15921773D02*
D03*
X7957726D02*
D03*
X8420100Y19037300D02*
D03*
X8623300D02*
D03*
X8826500D02*
D03*
Y18834100D02*
D03*
X8623300D02*
D03*
X8420100D02*
D03*
Y18643600D02*
D03*
X8623300D02*
D03*
X8826500D02*
D03*
Y18440401D02*
D03*
X8623300D02*
D03*
X8420100D02*
D03*
Y19240500D02*
D03*
X8623300D02*
D03*
X8826500D02*
D03*
X18823940Y17145000D02*
D03*
X13928406Y15113776D02*
D03*
X14030005D02*
D03*
Y15215375D02*
D03*
X13928406D02*
D03*
X14131606D02*
D03*
X14233205D02*
D03*
Y15113776D02*
D03*
X14131606D02*
D03*
X14538005D02*
D03*
X14639606D02*
D03*
Y15215375D02*
D03*
X14538005D02*
D03*
X14334805D02*
D03*
X14436404D02*
D03*
Y15113776D02*
D03*
X14334805D02*
D03*
X13866614Y17697107D02*
D03*
Y17595506D02*
D03*
X13765015D02*
D03*
X13866614Y17493907D02*
D03*
X13765015D02*
D03*
X14476215Y17290707D02*
D03*
X14577814D02*
D03*
Y17392307D02*
D03*
X14476215D02*
D03*
X14679414D02*
D03*
X14781013D02*
D03*
Y17290707D02*
D03*
X14679414D02*
D03*
X14882614Y17392307D02*
D03*
Y17290707D02*
D03*
X14069814D02*
D03*
X14171414D02*
D03*
Y17392307D02*
D03*
X14069814D02*
D03*
X14273013D02*
D03*
X14374614D02*
D03*
Y17290707D02*
D03*
X14273013D02*
D03*
X13866614D02*
D03*
X13968214D02*
D03*
Y17392307D02*
D03*
X13866614D02*
D03*
X13663414D02*
D03*
X13765015D02*
D03*
Y17290707D02*
D03*
X13663414D02*
D03*
X13794951Y14275580D02*
D03*
X13712154D02*
D03*
X13890401Y14382274D02*
D03*
Y14275580D02*
D03*
Y14168886D02*
D03*
X13712154Y14382274D02*
D03*
Y14168886D02*
D03*
X13794951D02*
D03*
Y14381494D02*
D03*
X17417377Y14053064D02*
D03*
Y14168129D02*
D03*
X17531677Y14053064D02*
D03*
Y14168129D02*
D03*
Y13920557D02*
D03*
X17417377D02*
D03*
X17303078D02*
D03*
X17322800Y14168129D02*
D03*
Y14053064D02*
D03*
X17880219Y16177539D02*
D03*
X18897600Y18675349D02*
D03*
X18033975Y15057120D02*
D03*
X18669000Y14655800D02*
D03*
X18580099D02*
D03*
X18313400D02*
D03*
X18491200D02*
D03*
X18402299Y14262100D02*
D03*
X18313400Y14528799D02*
D03*
X18402299Y14389101D02*
D03*
X18745200Y14503400D02*
D03*
X18834100D02*
D03*
X18669000D02*
D03*
X18491200D02*
D03*
X18580099D02*
D03*
X19340709Y12256880D02*
D03*
X19208751Y12258311D02*
D03*
X19041161Y12376859D02*
D03*
Y12312756D02*
D03*
X19404187Y12258660D02*
D03*
X19274654Y12258713D02*
D03*
X19146867Y12257909D02*
D03*
X16291560Y14004626D02*
D03*
X16538608Y14224001D02*
D03*
X14776205Y5508290D02*
D03*
X13860983Y5429336D02*
D03*
X13939624D02*
D03*
X14844901Y5510543D02*
D03*
X13939624Y5368079D02*
D03*
X14259438Y4536562D02*
D03*
X14262100Y5143500D02*
D03*
X14274800Y4610100D02*
D03*
X14262100Y4686300D02*
D03*
X13860983Y5500741D02*
D03*
X12650711Y4261962D02*
D03*
X12649235Y4197152D02*
D03*
X12313582Y4597016D02*
D03*
X12522769Y4828162D02*
D03*
X12261091Y4565334D02*
D03*
X12603458Y4993314D02*
D03*
X13126987Y5605450D02*
D03*
X13331709Y5719766D02*
D03*
X13392139Y5692033D02*
D03*
X14093794Y4311650D02*
D03*
X13391789Y4216712D02*
D03*
X13392078Y4155683D02*
D03*
X13204366Y4161311D02*
D03*
X13276562Y4181022D02*
D03*
X12528365Y4974551D02*
D03*
X12698223Y4946196D02*
D03*
X12880461Y4074862D02*
D03*
X12882076Y4141866D02*
D03*
X12910648Y5063735D02*
D03*
X12823483Y4924770D02*
D03*
X12899284Y4930122D02*
D03*
X14166286Y4311322D02*
D03*
X12497783Y4886233D02*
D03*
X10525001Y10300055D02*
D03*
X10325001D02*
D03*
X10025107Y10399904D02*
D03*
X9725147Y10200109D02*
D03*
X12962054Y5106995D02*
D03*
X6553418Y13697258D02*
D03*
X6622423Y13726859D02*
D03*
X6553418Y13765617D02*
D03*
Y13516515D02*
D03*
X6622423Y13665898D02*
D03*
Y13579538D02*
D03*
X6553418Y13579124D02*
D03*
X6622423Y13518578D02*
D03*
X13560083Y5721192D02*
D03*
X13472360Y5717373D02*
D03*
X13245384Y5540807D02*
D03*
X13289799Y5587999D02*
D03*
X13075121Y5563489D02*
D03*
X5695788Y10318625D02*
D03*
X5480595Y10325704D02*
D03*
X5602401Y10371003D02*
D03*
X5329351Y10317237D02*
D03*
X6375005Y9536500D02*
D03*
X5548163Y9528799D02*
D03*
X5687490Y9541591D02*
D03*
X5424601Y9531001D02*
D03*
X6063135Y9545681D02*
D03*
X6132972Y9544594D02*
D03*
X10325100Y10900002D02*
D03*
X10425100Y10700002D02*
D03*
X10325100D02*
D03*
Y10800002D02*
D03*
X10125100D02*
D03*
X10225100D02*
D03*
X10325100Y10600002D02*
D03*
X10125100D02*
D03*
Y10500002D02*
D03*
X10225100Y10700002D02*
D03*
X10325100Y10500004D02*
D03*
X10225100Y10600280D02*
D03*
X10125100Y10700002D02*
D03*
X10525100Y12000002D02*
D03*
X9524901Y12000002D02*
D03*
X9724901D02*
D03*
X9324901D02*
D03*
X9224901D02*
D03*
X10225001Y12000102D02*
D03*
X10425100Y12000002D02*
D03*
X10125001Y12000102D02*
D03*
X10325001Y12000102D02*
D03*
X9624901Y12000002D02*
D03*
X9124901D02*
D03*
X10525100Y11900002D02*
D03*
X9125100D02*
D03*
X9724901D02*
D03*
X9524901D02*
D03*
X9924901D02*
D03*
X10625100D02*
D03*
X10125001Y11900102D02*
D03*
X9324901Y11900002D02*
D03*
X10225001Y11900102D02*
D03*
X9824901Y10700002D02*
D03*
X9724901Y10800002D02*
D03*
Y10700002D02*
D03*
Y10900002D02*
D03*
X9724885Y10600280D02*
D03*
X9824901Y10500005D02*
D03*
X9724885Y10500007D02*
D03*
X9725001Y10399903D02*
D03*
X9824901Y10900002D02*
D03*
Y10800002D02*
D03*
X9625162Y10900068D02*
D03*
X9824901Y10600280D02*
D03*
X9825001Y10399903D02*
D03*
X10125100Y10900002D02*
D03*
X10225100D02*
D03*
X10525100Y10600002D02*
D03*
X10625100Y10900002D02*
D03*
X9924901Y10700002D02*
D03*
X9925001Y10200002D02*
D03*
X9924901Y10600002D02*
D03*
Y11200002D02*
D03*
Y11100002D02*
D03*
X9925004Y10399886D02*
D03*
X9925001Y10100002D02*
D03*
X9924901Y10900002D02*
D03*
Y10800002D02*
D03*
Y10500005D02*
D03*
X10525100Y11500002D02*
D03*
X10427099Y11499999D02*
D03*
X10425100Y11800003D02*
D03*
X10425001Y11400102D02*
D03*
X10427099Y11599999D02*
D03*
X10425100Y11700000D02*
D03*
Y11200002D02*
D03*
X10725100Y11800003D02*
D03*
Y11200002D02*
D03*
X10525100Y11800001D02*
D03*
Y11700003D02*
D03*
X10625100Y11500002D02*
D03*
Y11800003D02*
D03*
X9724901Y11100002D02*
D03*
X9824901Y11200002D02*
D03*
Y11100002D02*
D03*
X9724901Y11200002D02*
D03*
X10125100Y11100002D02*
D03*
X10325100Y11200002D02*
D03*
X10125100D02*
D03*
X10325100Y11100002D02*
D03*
X10225100Y11200002D02*
D03*
Y11100002D02*
D03*
X10725100Y12200003D02*
D03*
X10625100D02*
D03*
Y12100002D02*
D03*
X9824901D02*
D03*
X10725100D02*
D03*
X9924901Y12200003D02*
D03*
X10425100D02*
D03*
X9824901D02*
D03*
X10425100Y12100000D02*
D03*
X10125001Y12100102D02*
D03*
X10125100Y10000002D02*
D03*
X10325100Y10000006D02*
D03*
X10525100Y10000002D02*
D03*
X10625001D02*
D03*
X10125100Y9800002D02*
D03*
X10425100Y9900002D02*
D03*
X10325100D02*
D03*
X10725001D02*
D03*
X10525100Y9800002D02*
D03*
X10725100D02*
D03*
X10625100Y9900006D02*
D03*
X10725001Y10000002D02*
D03*
X10325100Y9800002D02*
D03*
X10225001Y12200102D02*
D03*
X9624902Y12299937D02*
D03*
X9224901Y12200003D02*
D03*
X9124901D02*
D03*
X9324901D02*
D03*
X9624902D02*
D03*
X9524901D02*
D03*
X9424901D02*
D03*
X9724901D02*
D03*
X10325001Y12200102D02*
D03*
X10325100Y10200002D02*
D03*
X10125100Y10400002D02*
D03*
X10225001Y10100002D02*
D03*
X10325100Y10100002D02*
D03*
X10225100Y10400002D02*
D03*
X10125100Y10100002D02*
D03*
X10425100Y10400002D02*
D03*
X10625001Y10200002D02*
D03*
X10225001D02*
D03*
X10425001D02*
D03*
X10725100Y10400002D02*
D03*
X10425100Y10300002D02*
D03*
X10625100D02*
D03*
X10725100Y10100002D02*
D03*
X9324901Y12100002D02*
D03*
X9724901Y12100002D02*
D03*
X9226034Y12100001D02*
D03*
X9624901Y12100002D02*
D03*
X9524901D02*
D03*
X9124901Y12100002D02*
D03*
X9825001Y10299903D02*
D03*
X9725001Y10100002D02*
D03*
X9725001Y10299903D02*
D03*
X9825001Y10200002D02*
D03*
Y10099903D02*
D03*
X6095001Y9720002D02*
D03*
X6175001Y9720001D02*
D03*
X5775001Y9720002D02*
D03*
X6015001D02*
D03*
X6255001D02*
D03*
X5935001D02*
D03*
X6335001D02*
D03*
X6015001Y9640002D02*
D03*
X5855001D02*
D03*
X5935001Y9800002D02*
D03*
X5855001D02*
D03*
X6175001Y9800000D02*
D03*
X6335001Y9800002D02*
D03*
X6095001D02*
D03*
X6015001D02*
D03*
X5775001Y10040002D02*
D03*
X5935001Y10040003D02*
D03*
X6175001Y10040002D02*
D03*
X6335001Y10120002D02*
D03*
X6095001Y10040002D02*
D03*
X2605201Y11030002D02*
D03*
Y11284002D02*
D03*
Y11538002D02*
D03*
X3506901Y9252002D02*
D03*
X3862501D02*
D03*
X3684701D02*
D03*
X3138601D02*
D03*
X2960801D02*
D03*
X2783001D02*
D03*
X4280330Y9264701D02*
D03*
Y9442501D02*
D03*
X4280201Y9353604D02*
D03*
X4280330Y9175547D02*
D03*
X5996101Y8998002D02*
D03*
X5805601D02*
D03*
X5894501Y8820202D02*
D03*
X5716701D02*
D03*
X5512748Y8651931D02*
D03*
X5690548D02*
D03*
X6554148Y8753531D02*
D03*
X6376348D02*
D03*
Y8982131D02*
D03*
X3684701Y11538002D02*
D03*
X3862501D02*
D03*
X2960801D02*
D03*
X2783001D02*
D03*
X4040301D02*
D03*
Y11792002D02*
D03*
X2783001Y9506002D02*
D03*
X6575001Y9640002D02*
D03*
X5855001Y9560002D02*
D03*
X6008801Y9379002D02*
D03*
X6059601Y9467902D02*
D03*
X6495001Y9640002D02*
D03*
X6415003Y9640005D02*
D03*
X5943600Y9118600D02*
D03*
Y9232900D02*
D03*
X5945301Y9467902D02*
D03*
X5881801Y9379002D02*
D03*
X5577001D02*
D03*
X5818301Y9467902D02*
D03*
X5513501Y9379002D02*
D03*
X2605201Y9506002D02*
D03*
Y9760002D02*
D03*
Y10776002D02*
D03*
Y9252002D02*
D03*
X8675101Y10750002D02*
D03*
X8825100Y11200006D02*
D03*
X8824901Y11400003D02*
D03*
X8825001Y10000002D02*
D03*
X8675101Y10350203D02*
D03*
X8605500Y10950005D02*
D03*
X8725001Y10599906D02*
D03*
X8825001Y10600002D02*
D03*
X8675101Y10450008D02*
D03*
X8825001Y10900002D02*
D03*
X6575001Y9720002D02*
D03*
X6495001Y10120002D02*
D03*
Y10280002D02*
D03*
X6575001D02*
D03*
X6495001Y9720002D02*
D03*
Y10200002D02*
D03*
X6575001Y9800000D02*
D03*
X9625001Y9799903D02*
D03*
X9725001Y9799904D02*
D03*
X9425001Y9799903D02*
D03*
X9025001D02*
D03*
X8725001Y9800002D02*
D03*
X8825096D02*
D03*
X9825001Y9799903D02*
D03*
X9025001Y9699903D02*
D03*
X8825100Y9700002D02*
D03*
X8925001Y9699903D02*
D03*
X9625001Y9699903D02*
D03*
X9725001Y9699903D02*
D03*
X5803900Y10871200D02*
D03*
X5935002Y10199997D02*
D03*
X5935001Y10120007D02*
D03*
X6175004Y10120008D02*
D03*
X6335001Y10200002D02*
D03*
X6055003Y10371003D02*
D03*
X5935005Y10280003D02*
D03*
X6215003Y10371003D02*
D03*
X6135002D02*
D03*
X5775006Y10280002D02*
D03*
X2783001Y10776002D02*
D03*
Y9760002D02*
D03*
Y11284002D02*
D03*
Y11030002D02*
D03*
X3138601Y10776002D02*
D03*
X2960801Y11030002D02*
D03*
Y11284002D02*
D03*
Y10776002D02*
D03*
X3684701D02*
D03*
X4040301Y11030002D02*
D03*
X3862501Y10776002D02*
D03*
Y11030002D02*
D03*
X3684701D02*
D03*
X3506901Y10776002D02*
D03*
Y9506002D02*
D03*
X4280330Y9531401D02*
D03*
X3684701Y9506002D02*
D03*
X3862501D02*
D03*
X3138601D02*
D03*
X4280330Y9620321D02*
D03*
X2960801Y9506002D02*
D03*
X5499100Y10896600D02*
D03*
X5372100D02*
D03*
X5664200D02*
D03*
X4040301Y11284002D02*
D03*
X3862501D02*
D03*
X3684701D02*
D03*
X5534226Y10039990D02*
D03*
X5614996Y10200002D02*
D03*
X5775001D02*
D03*
X5615001Y9720002D02*
D03*
X5695001Y10120002D02*
D03*
X5694996Y10039998D02*
D03*
X5695001Y10200005D02*
D03*
X5615001Y10120002D02*
D03*
X5775000Y10120008D02*
D03*
X5695001Y9720002D02*
D03*
X4280330Y10776001D02*
D03*
X9225003Y9899907D02*
D03*
X9425001Y9999903D02*
D03*
X9325001Y9899903D02*
D03*
X9225001Y9999903D02*
D03*
X9125100Y10300002D02*
D03*
X9325102Y10300006D02*
D03*
X9125100Y10200004D02*
D03*
X9425001Y10200002D02*
D03*
X9425100Y10300002D02*
D03*
X9625100Y11000003D02*
D03*
X9624901Y10700002D02*
D03*
X9625033Y11899435D02*
D03*
X9625001Y10199903D02*
D03*
X9625004Y9900252D02*
D03*
X9625006Y10300253D02*
D03*
X9625001Y10100002D02*
D03*
Y9999903D02*
D03*
X9625100Y10500002D02*
D03*
X9525097Y10900004D02*
D03*
X9425097Y10900003D02*
D03*
X9624997Y11100102D02*
D03*
X9525100Y11000003D02*
D03*
X9525001Y11200002D02*
D03*
Y10800002D02*
D03*
X9425100Y11000003D02*
D03*
X9425001Y10799903D02*
D03*
X9024901Y11300003D02*
D03*
Y11400003D02*
D03*
X9025100Y11100004D02*
D03*
X9024901Y11600002D02*
D03*
Y11800003D02*
D03*
X9125097Y11000004D02*
D03*
X9125100Y10800002D02*
D03*
Y10500002D02*
D03*
X9126376Y11300892D02*
D03*
X9125100Y10900002D02*
D03*
X9124901Y11200002D02*
D03*
X9225897Y10999207D02*
D03*
X9224901Y11800003D02*
D03*
Y11500002D02*
D03*
X9324901Y11200002D02*
D03*
X9224901Y11299998D02*
D03*
X9225096Y10400004D02*
D03*
X9325897Y10900004D02*
D03*
X9324700Y10800342D02*
D03*
X9225500Y10900803D02*
D03*
X9325491Y10700002D02*
D03*
X9325100Y11000003D02*
D03*
X9225100Y10700002D02*
D03*
X9325099Y10600002D02*
D03*
X9325100Y10500004D02*
D03*
X9324901Y11800003D02*
D03*
X8924795Y10900803D02*
D03*
X8925499Y10999207D02*
D03*
X9024701Y10800280D02*
D03*
X8925100Y11100006D02*
D03*
Y10700002D02*
D03*
X9025100Y10200002D02*
D03*
Y10400002D02*
D03*
X8924549Y9900002D02*
D03*
X8925093Y10300201D02*
D03*
X9025099Y10500007D02*
D03*
X8925102Y10000005D02*
D03*
X8925101Y10500003D02*
D03*
X8925001Y10600002D02*
D03*
X8925096Y10100153D02*
D03*
X10725100Y9700002D02*
D03*
X10925100Y11900002D02*
D03*
Y9700003D02*
D03*
X11025100Y11600002D02*
D03*
Y11400003D02*
D03*
X10925001Y11300102D02*
D03*
X11025001Y11800102D02*
D03*
X10925100Y11200002D02*
D03*
X11025100Y9700002D02*
D03*
X10925100Y9800002D02*
D03*
Y12100002D02*
D03*
Y12300003D02*
D03*
Y12200003D02*
D03*
X11125001Y12300102D02*
D03*
X10825100Y12100002D02*
D03*
X11325100Y9700002D02*
D03*
X11225100Y11200002D02*
D03*
X10825001Y12000102D02*
D03*
X10825100Y10500002D02*
D03*
Y11900002D02*
D03*
Y11500002D02*
D03*
Y11800003D02*
D03*
Y10200002D02*
D03*
X10425100Y12300002D02*
D03*
X10725100Y12300003D02*
D03*
X10625100D02*
D03*
X10825100Y12200003D02*
D03*
X9024901D02*
D03*
X9425032Y12300003D02*
D03*
X9024901D02*
D03*
X9724901D02*
D03*
X9324901D02*
D03*
X9224901Y12300001D02*
D03*
X10825100Y12300003D02*
D03*
X9824901Y12300903D02*
D03*
X11225100Y11600002D02*
D03*
X11325001Y12300102D02*
D03*
X11225001Y11800102D02*
D03*
X11225001Y12000102D02*
D03*
X11225100Y11400003D02*
D03*
X8924901Y12200003D02*
D03*
X8824901Y11800003D02*
D03*
X8925100Y11900002D02*
D03*
X8824901Y11600002D02*
D03*
X9124901Y12300003D02*
D03*
X8924901D02*
D03*
X9524901D02*
D03*
X10925100Y9900005D02*
D03*
X10825100Y10000002D02*
D03*
X11225100Y10500002D02*
D03*
Y9900002D02*
D03*
Y10300002D02*
D03*
X11025100Y10400002D02*
D03*
Y10300002D02*
D03*
Y10100002D02*
D03*
X11225100Y10900002D02*
D03*
Y10100002D02*
D03*
X10825100Y10700002D02*
D03*
X11025100Y10900002D02*
D03*
X11225100Y10700002D02*
D03*
X10227099Y11499999D02*
D03*
X10324901Y11400000D02*
D03*
X10225100Y11300003D02*
D03*
X10325100D02*
D03*
X10125100D02*
D03*
Y11500001D02*
D03*
X10325100Y11800003D02*
D03*
X10225100D02*
D03*
X9524901D02*
D03*
X9624901D02*
D03*
X9924901Y11800002D02*
D03*
X9724901Y11800003D02*
D03*
X9824901Y11700003D02*
D03*
X9624901Y11700002D02*
D03*
X9724901Y11600002D02*
D03*
X9524901Y11500002D02*
D03*
X9424901D02*
D03*
X9624901Y11300003D02*
D03*
X9724901Y11300002D02*
D03*
X9924901D02*
D03*
X9824901D02*
D03*
X9724901Y11400003D02*
D03*
X9924901D02*
D03*
X10325100Y11700000D02*
D03*
X10125100Y11700003D02*
D03*
X10125001Y11600102D02*
D03*
X10225100Y11700003D02*
D03*
X10324899Y11599999D02*
D03*
X3138601Y9760002D02*
D03*
X2960801D02*
D03*
X3684701D02*
D03*
X4280330Y10331501D02*
D03*
Y10597947D02*
D03*
Y9798101D02*
D03*
Y9708947D02*
D03*
X4280330Y10509301D02*
D03*
X4280330Y9886747D02*
D03*
Y10420147D02*
D03*
Y10242855D02*
D03*
Y9975901D02*
D03*
Y10064547D02*
D03*
Y10153701D02*
D03*
X5456352Y9640002D02*
D03*
X5454999Y10120008D02*
D03*
X5375475Y10120480D02*
D03*
X5291943Y9636005D02*
D03*
X5454998Y9720002D02*
D03*
X5375001Y9640002D02*
D03*
X5375002Y10200004D02*
D03*
X5454998Y9800002D02*
D03*
X5454997Y10200004D02*
D03*
X5295002Y10200007D02*
D03*
X5374998Y9720003D02*
D03*
X3862501Y9760002D02*
D03*
X3506901D02*
D03*
X8663136Y17640366D02*
D03*
Y17504071D02*
D03*
X16642081Y18394679D02*
D03*
X16979900Y18737579D02*
D03*
X16891000Y18742661D02*
D03*
X16878300Y10947400D02*
D03*
Y11049000D02*
D03*
X13975420Y4413250D02*
D03*
X14668500Y4267200D02*
D03*
X14770100Y4330700D02*
D03*
X15138400Y4318000D02*
D03*
Y4229100D02*
D03*
X15265401D02*
D03*
Y4318000D02*
D03*
X15392400Y4229100D02*
D03*
Y4318000D02*
D03*
X15519400D02*
D03*
Y4229100D02*
D03*
X15633701Y4318000D02*
D03*
Y4229100D02*
D03*
X16459200Y4279900D02*
D03*
Y4368800D02*
D03*
Y4457700D02*
D03*
X16548100Y4279900D02*
D03*
Y4368800D02*
D03*
Y4457700D02*
D03*
X16738600Y4279900D02*
D03*
Y4368800D02*
D03*
Y4457700D02*
D03*
X16827499Y4279900D02*
D03*
Y4368800D02*
D03*
Y4457700D02*
D03*
X16992599Y4279900D02*
D03*
Y4368800D02*
D03*
Y4457700D02*
D03*
X17081500Y4279900D02*
D03*
Y4368800D02*
D03*
Y4457700D02*
D03*
X13512801Y4991100D02*
D03*
X13970000Y5143500D02*
D03*
X15570200Y4470400D02*
D03*
X15659100D02*
D03*
X15824200Y5549900D02*
D03*
Y4914900D02*
D03*
X15925887Y5373385D02*
D03*
X15925888Y5106684D02*
D03*
X16281400Y5524500D02*
D03*
Y4912360D02*
D03*
Y4965700D02*
D03*
X16282463Y5580369D02*
D03*
X16992599Y4559300D02*
D03*
Y4648200D02*
D03*
Y4737100D02*
D03*
X17081500Y4559300D02*
D03*
Y4648200D02*
D03*
Y4737100D02*
D03*
X17373599Y4559300D02*
D03*
X17461230Y5600700D02*
D03*
X17514571D02*
D03*
X17602200Y4546600D02*
D03*
X17754601Y4737100D02*
D03*
Y4826000D02*
D03*
D204*
X17565590Y7980838D02*
D03*
X17675592D02*
D03*
X17785590D02*
D03*
X17565590Y7870836D02*
D03*
X17675592D02*
D03*
X17785590D02*
D03*
X17565590Y7760838D02*
D03*
X17675592D02*
D03*
X17785590D02*
D03*
X17565590Y7650836D02*
D03*
X17675592D02*
D03*
X17785590D02*
D03*
X17565590Y7540839D02*
D03*
X17675592D02*
D03*
X17785590D02*
D03*
X17565590Y7430837D02*
D03*
X17675592D02*
D03*
X17785590D02*
D03*
X17565590Y7320839D02*
D03*
X17675592D02*
D03*
X17785590D02*
D03*
X17565590Y7210837D02*
D03*
X17675592D02*
D03*
X17785590D02*
D03*
X17565590Y7100840D02*
D03*
X17675592D02*
D03*
X17785590D02*
D03*
X9788799Y14172484D02*
D03*
X9898801D02*
D03*
X10008798D02*
D03*
X10118801D02*
D03*
X10228803D02*
D03*
X9788799Y14062482D02*
D03*
X9898801D02*
D03*
X10008798D02*
D03*
X10118801D02*
D03*
X10228803D02*
D03*
X9788799Y13952486D02*
D03*
X9898801D02*
D03*
X10008798D02*
D03*
X10118801D02*
D03*
X10228803D02*
D03*
X9788799Y13842482D02*
D03*
X9898801D02*
D03*
X10008798D02*
D03*
X10118801D02*
D03*
X10228803D02*
D03*
X9788799Y13732480D02*
D03*
X9898801D02*
D03*
X10008798D02*
D03*
X10118801D02*
D03*
X10228803D02*
D03*
X16079628Y15872340D02*
D03*
Y15762338D02*
D03*
Y15652342D02*
D03*
Y15542339D02*
D03*
Y15432343D02*
D03*
X15969626Y15872340D02*
D03*
Y15762338D02*
D03*
Y15652342D02*
D03*
Y15542339D02*
D03*
Y15432343D02*
D03*
X15859628Y15872340D02*
D03*
Y15762338D02*
D03*
Y15652342D02*
D03*
Y15542339D02*
D03*
Y15432343D02*
D03*
X15749626Y15872340D02*
D03*
Y15762338D02*
D03*
Y15652342D02*
D03*
Y15542339D02*
D03*
Y15432343D02*
D03*
X15639629Y15872340D02*
D03*
Y15762338D02*
D03*
Y15652342D02*
D03*
Y15542339D02*
D03*
Y15432343D02*
D03*
X18077927Y15732741D02*
D03*
X18187927D02*
D03*
X18077927Y15622739D02*
D03*
X18187927D02*
D03*
X16550763Y17707283D02*
D03*
Y17817285D02*
D03*
Y17927283D02*
D03*
Y18037285D02*
D03*
Y18147282D02*
D03*
X16660767Y17707283D02*
D03*
Y17817285D02*
D03*
Y17927283D02*
D03*
Y18037285D02*
D03*
Y18147282D02*
D03*
X16770763Y17707283D02*
D03*
Y17817285D02*
D03*
Y17927283D02*
D03*
Y18037285D02*
D03*
Y18147282D02*
D03*
X16880765Y17707283D02*
D03*
Y17817285D02*
D03*
Y17927283D02*
D03*
Y18037285D02*
D03*
Y18147282D02*
D03*
X16990762Y17707283D02*
D03*
Y17817285D02*
D03*
Y17927283D02*
D03*
Y18037285D02*
D03*
Y18147282D02*
D03*
D205*
X19055186Y11655758D02*
D03*
Y11733761D02*
D03*
Y11811759D02*
D03*
X19227190D02*
D03*
Y11733761D02*
D03*
Y11655758D02*
D03*
X18028987Y14045331D02*
D03*
X18128987D02*
D03*
Y13845331D02*
D03*
X18228987D02*
D03*
Y14045331D02*
D03*
Y13945331D02*
D03*
X18128987D02*
D03*
X18028987Y13845331D02*
D03*
Y13945331D02*
D03*
D206*
X7992727Y15450806D02*
D03*
Y15550806D02*
D03*
Y15650806D02*
D03*
X7892727D02*
D03*
Y15550806D02*
D03*
Y15450806D02*
D03*
X7792727D02*
D03*
Y15550806D02*
D03*
Y15650806D02*
D03*
X16815366Y14083066D02*
D03*
X16915366D02*
D03*
X17015366D02*
D03*
Y14183066D02*
D03*
X16915366D02*
D03*
X16815366D02*
D03*
Y14283066D02*
D03*
X16915366D02*
D03*
X17015366D02*
D03*
X15068103Y14146107D02*
D03*
X14968103D02*
D03*
X14868103D02*
D03*
Y14046107D02*
D03*
X14968103D02*
D03*
X15068103D02*
D03*
Y13946107D02*
D03*
X14968103D02*
D03*
X14868103D02*
D03*
D207*
X15939998Y10829999D02*
D03*
X15787598D02*
D03*
X15635197D02*
D03*
X16244798Y10677599D02*
D03*
X16168597Y10601399D02*
D03*
X16320998D02*
D03*
Y10753799D02*
D03*
Y10906199D02*
D03*
Y11058599D02*
D03*
X16244798Y10829999D02*
D03*
Y10982399D02*
D03*
X16168597Y10753799D02*
D03*
Y10906199D02*
D03*
Y11058599D02*
D03*
X16092398Y10677599D02*
D03*
Y10829999D02*
D03*
Y10982399D02*
D03*
X16016199Y10601399D02*
D03*
Y10753799D02*
D03*
Y10906199D02*
D03*
Y11058599D02*
D03*
X15939998Y10677599D02*
D03*
Y10982399D02*
D03*
X15863799Y10601399D02*
D03*
Y10753799D02*
D03*
Y10906199D02*
D03*
Y11058599D02*
D03*
X15787598Y10677599D02*
D03*
Y10982399D02*
D03*
X15711398Y10601399D02*
D03*
Y10753799D02*
D03*
Y10906199D02*
D03*
Y11058599D02*
D03*
X15635197Y10677599D02*
D03*
Y10982399D02*
D03*
X15558998Y11058599D02*
D03*
Y10906199D02*
D03*
Y10753799D02*
D03*
Y10601399D02*
D03*
%TF.MD5,50842b9543d22e7e149b0f3a070333f5*%
M02*
