%TF.GenerationSoftware,Altium Limited,Altium Designer,23.11.1 (41)*%
G04 Layer_Color=32896*
%FSLAX45Y45*%
%MOMM*%
%TF.SameCoordinates,75D3B97C-BFDA-4FAF-9EB3-CC348FD6A853*%
%TF.FilePolarity,Positive*%
%TF.FileFunction,Legend,Bot*%
%TF.Part,Single*%
G01*
G75*
%TA.AperFunction,NonConductor*%
%ADD104C,0.25400*%
%ADD106C,0.20000*%
%ADD107C,0.12700*%
%ADD109C,0.15240*%
%ADD110C,0.19990*%
%ADD116C,0.17780*%
D104*
X7070405Y15112276D02*
X7532685D01*
Y15340875D01*
X7070405D02*
X7532685D01*
X7070405Y15112276D02*
Y15340875D01*
X9932886Y17886333D02*
Y18114932D01*
X9470606Y17886333D02*
X9932886D01*
X9470606D02*
Y18114932D01*
X9932886D01*
X9934090Y18207224D02*
Y18435825D01*
X9471810Y18207224D02*
X9934090D01*
X9471810D02*
Y18435825D01*
X9934090D01*
X17925266Y13236986D02*
Y13465585D01*
X18387546D01*
Y13236986D02*
Y13465585D01*
X17925266Y13236986D02*
X18387546D01*
X9934090Y19022125D02*
Y19250726D01*
X9471810Y19022125D02*
X9934090D01*
X9471810D02*
Y19250726D01*
X9934090D01*
X9934090Y18757967D02*
Y18986566D01*
X9471810Y18757967D02*
X9934090D01*
X9471810D02*
Y18986566D01*
X9934090D01*
X9934090Y18490524D02*
Y18719124D01*
X9471810Y18490524D02*
X9934090D01*
X9471810D02*
Y18719124D01*
X9934090D01*
X16559531Y14819603D02*
Y15012643D01*
X16226790Y14819603D02*
X16559531D01*
X16226790D02*
Y15012643D01*
X16559531D01*
X18891275Y17260570D02*
X19084315D01*
X18891275D02*
Y17593311D01*
X19084315D01*
Y17260570D02*
Y17593311D01*
X17078960Y18483580D02*
Y18676620D01*
X16746220Y18483580D02*
X17078960D01*
X16746220D02*
Y18676620D01*
X17078960D01*
X17644110Y18100040D02*
Y18293079D01*
X17311369Y18100040D02*
X17644110D01*
X17311369D02*
Y18293079D01*
X17644110D01*
X9647351Y9427262D02*
X9980091D01*
Y9620302D01*
X9647351D02*
X9980091D01*
X9647351Y9427262D02*
Y9620302D01*
X10641761Y8048042D02*
Y8276642D01*
X10179481Y8048042D02*
X10641761D01*
X10179481D02*
Y8276642D01*
X10641761D01*
X10644301Y8406182D02*
Y8634782D01*
X10182021Y8406182D02*
X10644301D01*
X10182021D02*
Y8634782D01*
X10644301D01*
X10357665Y17450600D02*
Y17912878D01*
Y17450600D02*
X10586265D01*
Y17912878D01*
X10357665D02*
X10586265D01*
X8162810Y16079338D02*
Y16307938D01*
X7700530Y16079338D02*
X8162810D01*
X7700530D02*
Y16307938D01*
X8162810D01*
X13819701Y11505298D02*
Y11733898D01*
X14281981D01*
Y11505298D02*
Y11733898D01*
X13819701Y11505298D02*
X14281981D01*
X13819701Y11230298D02*
X14281981D01*
Y11458898D01*
X13819701D02*
X14281981D01*
X13819701Y11230298D02*
Y11458898D01*
Y11780298D02*
X14281981D01*
Y12008898D01*
X13819701D02*
X14281981D01*
X13819701Y11780298D02*
Y12008898D01*
X18514059Y18290540D02*
X18707100D01*
X18514059D02*
Y18623280D01*
X18707100D01*
Y18290540D02*
Y18623280D01*
X15186659Y16144240D02*
X15519400D01*
Y16337280D01*
X15186659D02*
X15519400D01*
X15186659Y16144240D02*
Y16337280D01*
X14509566Y14388579D02*
Y14850859D01*
Y14388579D02*
X14738165D01*
Y14850859D01*
X14509566D02*
X14738165D01*
X15723921Y13797467D02*
Y14259747D01*
X15495322D02*
X15723921D01*
X15495322Y13797467D02*
Y14259747D01*
Y13797467D02*
X15723921D01*
X13157201Y5412740D02*
X13385802D01*
Y4950460D02*
Y5412740D01*
X13157201Y4950460D02*
X13385802D01*
X13157201D02*
Y5412740D01*
X17307732Y3759744D02*
Y3962944D01*
X16964832Y3759744D02*
X17307732D01*
X16964832D02*
Y3962944D01*
X17307732D01*
X17684749Y3759200D02*
Y3962400D01*
X17341849Y3759200D02*
X17684749D01*
X17341849D02*
Y3962400D01*
X17684749D01*
X17265829Y13371028D02*
Y13833308D01*
X17037228D02*
X17265829D01*
X17037228Y13371028D02*
Y13833308D01*
Y13371028D02*
X17265829D01*
D106*
X7573453Y3655246D02*
X7795952D01*
X7683455Y3547743D02*
Y3762744D01*
X7620951Y3320245D02*
Y3490242D01*
X7423456Y3687743D02*
X7618452Y3492747D01*
X6600953Y3687743D02*
X7423456D01*
X6600953Y3325244D02*
Y3685243D01*
X7618452Y2825245D02*
Y2995242D01*
X7423456Y2630244D02*
X7618452Y2825245D01*
X6600953Y2630244D02*
X7423456D01*
X6600953D02*
Y2990243D01*
X6599153Y3785948D02*
Y4145947D01*
Y3785948D02*
X7421656D01*
X7616652Y3980949D01*
Y4150946D01*
X6599153Y4480948D02*
Y4840947D01*
Y4843446D02*
X7421656D01*
X7616652Y4648445D01*
X7619151Y4475949D02*
Y4645946D01*
X7681656Y4703447D02*
Y4918447D01*
X7571653Y4810944D02*
X7794152D01*
X7577490Y5969309D02*
X7799989D01*
X7687493Y5861806D02*
Y6076807D01*
X7624988Y5634308D02*
Y5804305D01*
X7427493Y6001806D02*
X7622489Y5806810D01*
X6604990Y6001806D02*
X7427493D01*
X6604990Y5639307D02*
Y5999306D01*
X7622489Y5139308D02*
Y5309305D01*
X7427493Y4944307D02*
X7622489Y5139308D01*
X6604990Y4944307D02*
X7427493D01*
X6604990D02*
Y5304306D01*
X15225174Y17445088D02*
Y17667587D01*
X15117676Y17557585D02*
X15332677D01*
X14890173Y17620090D02*
X15060176D01*
X15062675Y17622589D02*
X15257677Y17817589D01*
Y18640086D01*
X14895177D02*
X15255176D01*
X14395174Y17622589D02*
X14565175D01*
X14200172Y17817589D02*
X14395174Y17622589D01*
X14200172Y17817589D02*
Y18640086D01*
X14560178D01*
X19699280Y13560719D02*
X19921779D01*
X19809282Y13453217D02*
Y13668217D01*
X19746783Y13225719D02*
Y13395715D01*
X19549283Y13593216D02*
X19744284Y13398221D01*
X18726781Y13593216D02*
X19549283D01*
X18726781Y13230717D02*
Y13590717D01*
X19744284Y12730719D02*
Y12900722D01*
X19549283Y12535718D02*
X19744284Y12730719D01*
X18726781Y12535718D02*
X19549283D01*
X18726781D02*
Y12895717D01*
X9028642Y9147870D02*
X9251141D01*
X9138645Y9040372D02*
Y9255373D01*
X9076140Y8812874D02*
Y8982872D01*
X8878645Y9180372D02*
X9073641Y8985371D01*
X8056142Y9180372D02*
X8878645D01*
X8056142Y8817873D02*
Y9177872D01*
X9073641Y8317874D02*
Y8487871D01*
X8878645Y8122873D02*
X9073641Y8317874D01*
X8056142Y8122873D02*
X8878645D01*
X8056142D02*
Y8482873D01*
X9648660Y16030251D02*
Y16390250D01*
X8826157D02*
X9648660D01*
X8631161Y16195248D02*
X8826157Y16390250D01*
X8631161Y16025250D02*
Y16195248D01*
X9648660Y15335249D02*
Y15695248D01*
X8826157Y15332751D02*
X9648660D01*
X8631161Y15527753D02*
X8826157Y15332751D01*
X8628662Y15530251D02*
Y15700249D01*
X8566158Y15257750D02*
Y15472749D01*
X8453661Y15365253D02*
X8676160D01*
X13468660Y14772301D02*
X13691159D01*
X13578662Y14664803D02*
Y14879803D01*
X13516158Y14437305D02*
Y14607301D01*
X13318663Y14804800D02*
X13513660Y14609801D01*
X12496160Y14804800D02*
X13318663D01*
X12496160Y14442303D02*
Y14802303D01*
X13513660Y13942303D02*
Y14112302D01*
X13318663Y13747302D02*
X13513660Y13942303D01*
X12496160Y13747302D02*
X13318663D01*
X12496160D02*
Y14107301D01*
X2784901Y11959505D02*
Y12319504D01*
X3607398D01*
X3802399Y12124504D01*
Y11954501D02*
Y12124504D01*
X2784901Y11264505D02*
Y11624505D01*
Y11262006D02*
X3607398D01*
X3802399Y11457002D01*
X3804899Y11459506D02*
Y11629503D01*
X3867398Y11187005D02*
Y11402006D01*
X3757401Y11294503D02*
X3979900D01*
X11563040Y6624930D02*
Y6847429D01*
X11455537Y6737426D02*
X11670538D01*
X11228040Y6799926D02*
X11398037D01*
X11400541Y6802425D02*
X11595537Y6997426D01*
Y7819929D01*
X11233038D02*
X11593038D01*
X10733039Y6802425D02*
X10903042D01*
X10538039Y6997426D02*
X10733039Y6802425D01*
X10538039Y6997426D02*
Y7819929D01*
X10898038D01*
X12654314Y11214740D02*
X13014314D01*
X12654314Y10392242D02*
Y11214740D01*
Y10392242D02*
X12849315Y10197241D01*
X13019318D01*
X13349313Y11214740D02*
X13709312D01*
X13711813Y10392242D02*
Y11214740D01*
X13516817Y10197241D02*
X13711813Y10392242D01*
X13344315Y10194742D02*
X13514313D01*
X13571812Y10132243D02*
X13786813D01*
X13679317Y10019741D02*
Y10242240D01*
X14030321Y8377738D02*
Y8737742D01*
Y8377738D02*
X14852823D01*
X15047824Y8572739D01*
Y8742741D01*
X14030321Y9072743D02*
Y9432742D01*
Y9435241D02*
X14852823D01*
X15047824Y9240241D01*
X15050323Y9067739D02*
Y9237741D01*
X15112822Y9295242D02*
Y9510243D01*
X15002820Y9402740D02*
X15225323D01*
X11163247Y15497180D02*
X11523246D01*
X11163247Y14674677D02*
Y15497180D01*
Y14674677D02*
X11358248Y14479681D01*
X11528245D01*
X11858247Y15497180D02*
X12218246D01*
X12220745Y14674677D02*
Y15497180D01*
X12025744Y14479681D02*
X12220745Y14674677D01*
X11853248Y14477182D02*
X12023245D01*
X12080745Y14414677D02*
X12295746D01*
X12188243Y14302180D02*
Y14524680D01*
X12446339Y13104703D02*
Y13327200D01*
X12338841Y13214699D02*
X12553842D01*
X12611343Y13152200D02*
X12781340D01*
X12413842Y12954700D02*
X12608838Y13149701D01*
X12413842Y12132202D02*
Y12954700D01*
X12416342Y12132202D02*
X12776341D01*
X13106339Y13149701D02*
X13276340D01*
X13471341Y12954700D01*
Y12132202D02*
Y12954700D01*
X13111342Y12132202D02*
X13471341D01*
X15715594Y11737861D02*
Y12097860D01*
Y11737861D02*
X16538097D01*
X16733093Y11932862D01*
Y12102864D01*
X15715594Y12432861D02*
Y12792860D01*
Y12795359D02*
X16538097D01*
X16733093Y12600363D01*
X16735593Y12427862D02*
Y12597859D01*
X16798097Y12655360D02*
Y12870360D01*
X16688095Y12762862D02*
X16910594D01*
X14064796Y16442802D02*
X14424802D01*
X14064796Y15620299D02*
Y16442802D01*
Y15620299D02*
X14259798Y15425298D01*
X14429800D01*
X14759802Y16442802D02*
X15119801D01*
X15122301Y15620299D02*
Y16442802D01*
X14927299Y15425298D02*
X15122301Y15620299D01*
X14754799Y15422800D02*
X14924802D01*
X14982301Y15360300D02*
X15197302D01*
X15089799Y15247798D02*
Y15470302D01*
X11926084Y12363338D02*
X12286083D01*
Y13185835D01*
X12091087Y13380836D02*
X12286083Y13185835D01*
X11921085Y13380836D02*
X12091087D01*
X11231084Y12363338D02*
X11591083D01*
X11228584D02*
Y13185835D01*
X11423585Y13380836D01*
X11426085Y13383336D02*
X11596087D01*
X11153583Y13445840D02*
X11368584D01*
X11261086Y13335838D02*
Y13558337D01*
D107*
X18436591Y7467288D02*
X18512790D01*
X18436591D02*
Y7632388D01*
X18512790D01*
Y7467288D02*
Y7632388D01*
X18436591Y7289488D02*
X18512790D01*
X18436591D02*
Y7454588D01*
X18512790D01*
Y7289488D02*
Y7454588D01*
X18182590Y7289488D02*
X18258791D01*
X18182590D02*
Y7454588D01*
X18258791D01*
Y7289488D02*
Y7454588D01*
X18284190Y7289488D02*
Y7454588D01*
Y7289488D02*
X18360390D01*
Y7454588D01*
X18284190D02*
X18360390D01*
X17166589Y7327588D02*
Y7492688D01*
X17090390D02*
X17166589D01*
X17090390Y7327588D02*
Y7492688D01*
Y7327588D02*
X17166589D01*
X9264665Y14276788D02*
Y14352989D01*
X9429765D01*
Y14276788D02*
Y14352989D01*
X9264665Y14276788D02*
X9429765D01*
X10584195Y14356940D02*
X10749295D01*
X10584195Y14280739D02*
Y14356940D01*
Y14280739D02*
X10749295D01*
Y14356940D01*
X10580385Y14047060D02*
Y14123259D01*
X10745485D01*
Y14047060D02*
Y14123259D01*
X10580385Y14047060D02*
X10745485D01*
X16656050Y17619978D02*
X16821150D01*
X16656050Y17543779D02*
Y17619978D01*
Y17543779D02*
X16821150D01*
Y17619978D01*
X16866870Y17541241D02*
X17031970D01*
Y17617441D01*
X16866870D02*
X17031970D01*
X16866870Y17541241D02*
Y17617441D01*
X16377280Y18734590D02*
Y18899690D01*
Y18734590D02*
X16453479D01*
Y18899690D01*
X16377280D02*
X16453479D01*
X16885921Y18242281D02*
X17051019D01*
Y18318480D01*
X16885921D02*
X17051019D01*
X16885921Y18242281D02*
Y18318480D01*
X16681450Y18321019D02*
X16846550D01*
X16681450Y18244820D02*
Y18321019D01*
Y18244820D02*
X16846550D01*
Y18321019D01*
X17160240Y17940045D02*
Y18105145D01*
X17084039D02*
X17160240D01*
X17084039Y17940045D02*
Y18105145D01*
Y17940045D02*
X17160240D01*
X17397729Y17825693D02*
Y17901894D01*
X17232629Y17825693D02*
X17397729D01*
X17232629D02*
Y17901894D01*
X17397729D01*
X9386801Y11867551D02*
X9463001D01*
X9386801D02*
Y12032651D01*
X9463001D01*
Y11867551D02*
Y12032651D01*
X17017999Y11131551D02*
Y11296651D01*
X16941798D02*
X17017999D01*
X16941798Y11131551D02*
Y11296651D01*
Y11131551D02*
X17017999D01*
X6543661Y12331012D02*
X6873861D01*
X6543661Y12000812D02*
X6873861D01*
Y12331012D01*
X6543661Y12000812D02*
Y12331012D01*
X8978125Y14723753D02*
Y15053954D01*
X9308325Y14723753D02*
Y15053954D01*
X8978125Y14723753D02*
X9308325D01*
X8978125Y15053954D02*
X9308325D01*
X6302615Y13557535D02*
X6467715D01*
Y13633736D01*
X6302615D02*
X6467715D01*
X6302615Y13557535D02*
Y13633736D01*
X9997871Y12152682D02*
X10162971D01*
Y12228882D01*
X9997871D02*
X10162971D01*
X9997871Y12152682D02*
Y12228882D01*
Y11822482D02*
X10162971D01*
X9997871Y11746282D02*
Y11822482D01*
Y11746282D02*
X10162971D01*
Y11822482D01*
X9115221Y11587532D02*
X9191421D01*
X9115221D02*
Y11752632D01*
X9191421D01*
Y11587532D02*
Y11752632D01*
X9197771Y9752384D02*
Y9828584D01*
X9362871D01*
Y9752384D02*
Y9828584D01*
X9197771Y9752384D02*
X9362871D01*
X9153321Y9873032D02*
Y10038132D01*
X9077121D02*
X9153321D01*
X9077121Y9873032D02*
Y10038132D01*
Y9873032D02*
X9153321D01*
X9496221Y9923832D02*
X9572421D01*
X9496221D02*
Y10088932D01*
X9572421D01*
Y9923832D02*
Y10088932D01*
X9400971Y10730282D02*
X9566071D01*
X9400971Y10654082D02*
Y10730282D01*
Y10654082D02*
X9566071D01*
Y10730282D01*
X9489871Y10387382D02*
Y10463582D01*
X9324771Y10387382D02*
X9489871D01*
X9324771D02*
Y10463582D01*
X9489871D01*
X9991521Y10990632D02*
X10067721D01*
X9991521D02*
Y11155732D01*
X10067721D01*
Y10990632D02*
Y11155732D01*
X9959771Y10958882D02*
Y11035082D01*
X9794671Y10958882D02*
X9959771D01*
X9794671D02*
Y11035082D01*
X9959771D01*
X9483521Y11574832D02*
X9559721D01*
X9483521D02*
Y11739932D01*
X9559721D01*
Y11574832D02*
Y11739932D01*
X10201071Y11339882D02*
Y11416082D01*
X10035971Y11339882D02*
X10201071D01*
X10035971D02*
Y11416082D01*
X10201071D01*
X8899321Y11422432D02*
X8975521D01*
X8899321D02*
Y11587532D01*
X8975521D01*
Y11422432D02*
Y11587532D01*
X4059352Y10737904D02*
X4224452D01*
Y10814104D01*
X4059352D02*
X4224452D01*
X4059352Y10737904D02*
Y10814104D01*
X4224452Y9315504D02*
Y9391704D01*
X4059352Y9315504D02*
X4224452D01*
X4059352D02*
Y9391704D01*
X4224452D01*
X4059350Y9137701D02*
Y9213901D01*
X4224450D01*
Y9137701D02*
Y9213901D01*
X4059350Y9137701D02*
X4224450D01*
X4224452Y10026704D02*
Y10102904D01*
X4059352Y10026704D02*
X4224452D01*
X4059352D02*
Y10102904D01*
X4224452D01*
X4059352Y10204504D02*
X4224452D01*
Y10280704D01*
X4059352D02*
X4224452D01*
X4059352Y10204504D02*
Y10280704D01*
X4059350Y10636301D02*
X4224450D01*
X4059350Y10560101D02*
Y10636301D01*
Y10560101D02*
X4224450D01*
Y10636301D01*
Y10382301D02*
Y10458501D01*
X4059350Y10382301D02*
X4224450D01*
X4059350D02*
Y10458501D01*
X4224450D01*
X4224452Y9671104D02*
Y9747304D01*
X4059352Y9671104D02*
X4224452D01*
X4059352D02*
Y9747304D01*
X4224452D01*
X4059350Y9848901D02*
Y9925101D01*
X4224450D01*
Y9848901D02*
Y9925101D01*
X4059350Y9848901D02*
X4224450D01*
X3208450Y10610901D02*
Y10687101D01*
X3373550D01*
Y10610901D02*
Y10687101D01*
X3208450Y10610901D02*
X3373550D01*
X3208450Y10483901D02*
X3373550D01*
Y10560101D01*
X3208450D02*
X3373550D01*
X3208450Y10483901D02*
Y10560101D01*
Y10102901D02*
X3373550D01*
Y10179101D01*
X3208450D02*
X3373550D01*
X3208450Y10102901D02*
Y10179101D01*
Y10229901D02*
X3373550D01*
Y10306101D01*
X3208450D02*
X3373550D01*
X3208450Y10229901D02*
Y10306101D01*
Y9975901D02*
X3373550D01*
Y10052101D01*
X3208450D02*
X3373550D01*
X3208450Y9975901D02*
Y10052101D01*
Y10356901D02*
Y10433101D01*
X3373550D01*
Y10356901D02*
Y10433101D01*
X3208450Y10356901D02*
X3373550D01*
X3208450Y10737901D02*
X3373550D01*
Y10814101D01*
X3208450D02*
X3373550D01*
X3208450Y10737901D02*
Y10814101D01*
Y9848901D02*
Y9925101D01*
X3373550D01*
Y9848901D02*
Y9925101D01*
X3208450Y9848901D02*
X3373550D01*
X10055021Y10457232D02*
Y10622332D01*
X9978821D02*
X10055021D01*
X9978821Y10457232D02*
Y10622332D01*
Y10457232D02*
X10055021D01*
X10048671Y10260384D02*
Y10336584D01*
X10213771D01*
Y10260384D02*
Y10336584D01*
X10048671Y10260384D02*
X10213771D01*
X10137571Y9663482D02*
X10302671D01*
Y9739682D01*
X10137571D02*
X10302671D01*
X10137571Y9663482D02*
Y9739682D01*
X9978822Y10025432D02*
X10055022D01*
Y9860332D02*
Y10025432D01*
X9978822Y9860332D02*
X10055022D01*
X9978822D02*
Y10025432D01*
X9991521Y10787432D02*
Y10952532D01*
Y10787432D02*
X10067721D01*
Y10952532D01*
X9991521D02*
X10067721D01*
X10771414Y9695886D02*
X10847614D01*
X10771414D02*
Y9860986D01*
X10847614D01*
Y9695886D02*
Y9860986D01*
X10944021Y11549432D02*
Y11714532D01*
X10867821D02*
X10944021D01*
X10867821Y11549432D02*
Y11714532D01*
Y11549432D02*
X10944021D01*
X11040540Y9761272D02*
X11116740D01*
X11040540D02*
Y9926372D01*
X11116740D01*
Y9761272D02*
Y9926372D01*
X10696371Y11123982D02*
X10861471D01*
X10696371Y11047782D02*
Y11123982D01*
Y11047782D02*
X10861471D01*
Y11123982D01*
X10930921Y10267132D02*
Y10432232D01*
X10854721D02*
X10930921D01*
X10854721Y10267132D02*
Y10432232D01*
Y10267132D02*
X10930921D01*
X10635152Y10061803D02*
Y10138003D01*
X10470052Y10061803D02*
X10635152D01*
X10470052D02*
Y10138003D01*
X10635152D01*
X10099471Y10958882D02*
Y11035082D01*
X10264571D01*
Y10958882D02*
Y11035082D01*
X10099471Y10958882D02*
X10264571D01*
X10582071Y10679482D02*
X10747171D01*
X10582071Y10603282D02*
Y10679482D01*
Y10603282D02*
X10747171D01*
Y10679482D01*
X5570650Y9683804D02*
X5735750D01*
Y9607604D02*
Y9683804D01*
X5570650Y9607604D02*
X5735750D01*
X5570650D02*
Y9683804D01*
X3208451Y9467902D02*
X3373551D01*
Y9544102D01*
X3208451D02*
X3373551D01*
X3208451Y9467902D02*
Y9544102D01*
X3208450Y9340901D02*
X3373550D01*
Y9417101D01*
X3208450D02*
X3373550D01*
X3208450Y9340901D02*
Y9417101D01*
Y9213901D02*
X3373550D01*
Y9290101D01*
X3208450D02*
X3373550D01*
X3208450Y9213901D02*
Y9290101D01*
Y9594901D02*
Y9671101D01*
X3373550D01*
Y9594901D02*
Y9671101D01*
X3208450Y9594901D02*
X3373550D01*
X3208450Y9721901D02*
X3373550D01*
Y9798101D01*
X3208450D02*
X3373550D01*
X3208450Y9721901D02*
Y9798101D01*
X4684402Y8661452D02*
X5014602D01*
X4684402Y8331252D02*
X5014602D01*
Y8661452D01*
X4684402Y8331252D02*
Y8661452D01*
X8091955Y17291953D02*
X8257055D01*
X8091955Y17215752D02*
Y17291953D01*
Y17215752D02*
X8257055D01*
Y17291953D01*
X8748201Y17469556D02*
Y17634656D01*
Y17469556D02*
X8824401D01*
Y17634656D01*
X8748201D02*
X8824401D01*
X14622362Y12353494D02*
X14787460D01*
Y12429694D01*
X14622362D02*
X14787460D01*
X14622362Y12353494D02*
Y12429694D01*
X10314955Y13202509D02*
Y13367609D01*
X10238755D02*
X10314955D01*
X10238755Y13202509D02*
Y13367609D01*
Y13202509D02*
X10314955D01*
X17400270Y17924779D02*
Y18000980D01*
X17235170Y17924779D02*
X17400270D01*
X17235170D02*
Y18000980D01*
X17400270D01*
X17084039Y17917160D02*
X17160240D01*
Y17752060D02*
Y17917160D01*
X17084039Y17752060D02*
X17160240D01*
X17084039D02*
Y17917160D01*
X16893541Y18983575D02*
X16969740D01*
Y19148676D01*
X16893541D02*
X16969740D01*
X16893541Y18983575D02*
Y19148676D01*
X16918939Y18794730D02*
Y18959830D01*
X16842738Y18794730D02*
X16918939D01*
X16842738D02*
Y18959830D01*
X16918939D01*
X17022647Y18795592D02*
Y18960690D01*
X16946448Y18795592D02*
X17022647D01*
X16946448D02*
Y18960690D01*
X17022647D01*
X16758920Y17326610D02*
Y17491710D01*
Y17326610D02*
X16835121D01*
Y17491710D01*
X16758920D02*
X16835121D01*
X18752820Y18548351D02*
Y18713451D01*
Y18548351D02*
X18829021D01*
Y18713451D01*
X18752820D02*
X18829021D01*
X18862041Y17214850D02*
Y17379950D01*
X18785840D02*
X18862041D01*
X18785840Y17214850D02*
Y17379950D01*
Y17214850D02*
X18862041D01*
X18082260Y15960120D02*
Y16518919D01*
Y15960120D02*
X18285460D01*
Y16518919D01*
X18082260D02*
X18285460D01*
X18135600Y14777721D02*
Y15336520D01*
Y14777721D02*
X18338800D01*
Y15336520D01*
X18135600D02*
X18338800D01*
X16653535Y15788612D02*
X16818636D01*
X16653535Y15712413D02*
Y15788612D01*
Y15712413D02*
X16818636D01*
Y15788612D01*
X16465550Y15712416D02*
Y15788615D01*
X16630650D01*
Y15712416D02*
Y15788615D01*
X16465550Y15712416D02*
X16630650D01*
X16463010Y15613330D02*
Y15689529D01*
X16628110D01*
Y15613330D02*
Y15689529D01*
X16463010Y15613330D02*
X16628110D01*
X16650995Y15689528D02*
X16816095D01*
X16650995Y15613329D02*
Y15689528D01*
Y15613329D02*
X16816095D01*
Y15689528D01*
X16841521Y15661641D02*
Y15737840D01*
X17006621D01*
Y15661641D02*
Y15737840D01*
X16841521Y15661641D02*
X17006621D01*
X16384270Y15041879D02*
Y15118079D01*
X16219170Y15041879D02*
X16384270D01*
X16219170D02*
Y15118079D01*
X16384270D01*
X16336011Y16177258D02*
Y16253459D01*
X16170911Y16177258D02*
X16336011D01*
X16170911D02*
Y16253459D01*
X16336011D01*
X16410968Y17180139D02*
Y17345239D01*
Y17180139D02*
X16487167D01*
Y17345239D01*
X16410968D02*
X16487167D01*
X16358069Y16990611D02*
X16434270D01*
X16358069D02*
Y17155711D01*
X16434270D01*
Y16990611D02*
Y17155711D01*
X16311906Y17180139D02*
Y17345239D01*
Y17180139D02*
X16388106D01*
Y17345239D01*
X16311906D02*
X16388106D01*
X16502145Y18528011D02*
Y18693111D01*
X16425945D02*
X16502145D01*
X16425945Y18528011D02*
Y18693111D01*
Y18528011D02*
X16502145D01*
X16403084D02*
Y18693111D01*
X16326884D02*
X16403084D01*
X16326884Y18528011D02*
Y18693111D01*
Y18528011D02*
X16403084D01*
X15626517Y17706979D02*
Y17783180D01*
X15791615D01*
Y17706979D02*
Y17783180D01*
X15626517Y17706979D02*
X15791615D01*
X15826958Y17735725D02*
X15992056D01*
X15826958Y17659526D02*
Y17735725D01*
Y17659526D02*
X15992056D01*
Y17735725D01*
X15827560Y17834811D02*
X15992661D01*
X15827560Y17758611D02*
Y17834811D01*
Y17758611D02*
X15992661D01*
Y17834811D01*
X15639577Y17908813D02*
Y17985014D01*
X15804675D01*
Y17908813D02*
Y17985014D01*
X15639577Y17908813D02*
X15804675D01*
X15827560Y17933897D02*
X15992661D01*
X15827560Y17857697D02*
Y17933897D01*
Y17857697D02*
X15992661D01*
Y17933897D01*
X15828178Y18032982D02*
X15993279D01*
X15828178Y17956783D02*
Y18032982D01*
Y17956783D02*
X15993279D01*
Y18032982D01*
X15993895Y18055869D02*
Y18132068D01*
X15828795Y18055869D02*
X15993895D01*
X15828795D02*
Y18132068D01*
X15993895D01*
X15828178Y18231152D02*
X15993279D01*
X15828178Y18154953D02*
Y18231152D01*
Y18154953D02*
X15993279D01*
Y18231152D01*
X15628355Y18104732D02*
Y18180931D01*
X15793456D01*
Y18104732D02*
Y18180931D01*
X15628355Y18104732D02*
X15793456D01*
X17076698Y1539900D02*
Y1939900D01*
X16476701Y1539900D02*
X17076698D01*
X16476701D02*
Y1939900D01*
X17076698D01*
X14008101Y4933950D02*
X14084302D01*
Y4768850D02*
Y4933950D01*
X14008101Y4768850D02*
X14084302D01*
X14008101D02*
Y4933950D01*
X13836650Y4927599D02*
Y5003799D01*
X13671550Y4927599D02*
X13836650D01*
X13671550D02*
Y5003799D01*
X13836650D01*
X15887698Y5429250D02*
X15963899D01*
X15887698D02*
Y5594350D01*
X15963899D01*
Y5429250D02*
Y5594350D01*
X15887701Y5048250D02*
X15963901D01*
Y4883150D02*
Y5048250D01*
X15887701Y4883150D02*
X15963901D01*
X15887701D02*
Y5048250D01*
X14592299Y4451350D02*
Y4616450D01*
X14516100D02*
X14592299D01*
X14516100Y4451350D02*
Y4616450D01*
Y4451350D02*
X14592299D01*
X14465298D02*
Y4616450D01*
X14389099D02*
X14465298D01*
X14389099Y4451350D02*
Y4616450D01*
Y4451350D02*
X14465298D01*
X14192250Y5105399D02*
Y5181599D01*
X14027150Y5105399D02*
X14192250D01*
X14027150D02*
Y5181599D01*
X14192250D01*
X16579849Y10922001D02*
Y10998201D01*
X16744949D01*
Y10922001D02*
Y10998201D01*
X16579849Y10922001D02*
X16744949D01*
X16941800Y11074400D02*
X17017999D01*
Y10909300D02*
Y11074400D01*
X16941800Y10909300D02*
X17017999D01*
X16941800D02*
Y11074400D01*
X16941801Y10712450D02*
X17018002D01*
Y10547350D02*
Y10712450D01*
X16941801Y10547350D02*
X17018002D01*
X16941801D02*
Y10712450D01*
X16579849Y11049001D02*
X16744949D01*
Y11125201D01*
X16579849D02*
X16744949D01*
X16579849Y11049001D02*
Y11125201D01*
X14381310Y3680516D02*
X14711510D01*
X14381310Y3350316D02*
X14711510D01*
Y3680516D01*
X14381310Y3350316D02*
Y3680516D01*
X16107413Y6884959D02*
X16437611D01*
X16107413Y6554759D02*
X16437611D01*
Y6884959D01*
X16107413Y6554759D02*
Y6884959D01*
X17466530Y16595120D02*
X17796730D01*
X17466530Y16264920D02*
X17796730D01*
Y16595120D01*
X17466530Y16264920D02*
Y16595120D01*
D109*
X17980659Y16391920D02*
X18056860D01*
X18018761Y16353819D02*
Y16430020D01*
X18034000Y15209520D02*
X18110201D01*
X18072099Y15171420D02*
Y15247620D01*
X4975490Y8772371D02*
X5019502D01*
Y8739361D01*
X4997496D01*
X5019502D01*
Y8706352D01*
X4953483Y8772371D02*
X4931477D01*
X4942480D01*
Y8706352D01*
X4953483D01*
X4931477D01*
X4898468Y8772371D02*
Y8706352D01*
X4865458D01*
X4854455Y8717355D01*
Y8761368D01*
X4865458Y8772371D01*
X4898468D01*
X4799440Y8706352D02*
Y8772371D01*
X4832449Y8739361D01*
X4788437D01*
X14672397Y3791435D02*
X14716409D01*
Y3758425D01*
X14694403D01*
X14716409D01*
Y3725416D01*
X14650391Y3791435D02*
X14628384D01*
X14639388D01*
Y3725416D01*
X14650391D01*
X14628384D01*
X14595375Y3791435D02*
Y3725416D01*
X14562366D01*
X14551363Y3736419D01*
Y3780432D01*
X14562366Y3791435D01*
X14595375D01*
X14529356Y3725416D02*
X14507350D01*
X14518353D01*
Y3791435D01*
X14529356Y3780432D01*
X16398500Y6995877D02*
X16442513D01*
Y6962868D01*
X16420506D01*
X16442513D01*
Y6929859D01*
X16376494Y6995877D02*
X16354488D01*
X16365491D01*
Y6929859D01*
X16376494D01*
X16354488D01*
X16321478Y6995877D02*
Y6929859D01*
X16288469D01*
X16277466Y6940862D01*
Y6984874D01*
X16288469Y6995877D01*
X16321478D01*
X16255460Y6984874D02*
X16244456Y6995877D01*
X16222450D01*
X16211447Y6984874D01*
Y6973871D01*
X16222450Y6962868D01*
X16233453D01*
X16222450D01*
X16211447Y6951865D01*
Y6940862D01*
X16222450Y6929859D01*
X16244456D01*
X16255460Y6940862D01*
X17757617Y16706039D02*
X17801630D01*
Y16673029D01*
X17779623D01*
X17801630D01*
Y16640021D01*
X17735611Y16706039D02*
X17713605D01*
X17724608D01*
Y16640021D01*
X17735611D01*
X17713605D01*
X17680595Y16706039D02*
Y16640021D01*
X17647586D01*
X17636583Y16651022D01*
Y16695036D01*
X17647586Y16706039D01*
X17680595D01*
X17570564D02*
X17614577D01*
Y16673029D01*
X17592570Y16684032D01*
X17581567D01*
X17570564Y16673029D01*
Y16651022D01*
X17581567Y16640021D01*
X17603574D01*
X17614577Y16651022D01*
D110*
X9137665Y14097859D02*
X9424685D01*
Y14250259D01*
X9137665D02*
X9424685D01*
X9137665Y14097859D02*
Y14250259D01*
X10577845Y13899739D02*
X10864865D01*
X10577845Y13747339D02*
Y13899739D01*
Y13747339D02*
X10864865D01*
Y13899739D01*
X6242925Y13660266D02*
Y13812666D01*
X6529945D01*
Y13660266D02*
Y13812666D01*
X6242925Y13660266D02*
X6529945D01*
D116*
X3112373Y9789626D02*
X3127185Y9804438D01*
X3156809D01*
X3171621Y9789626D01*
Y9730379D01*
X3156809Y9715567D01*
X3127185D01*
X3112373Y9730379D01*
X3082749Y9715567D02*
X3053126D01*
X3067938D01*
Y9804438D01*
X3082749Y9789626D01*
X3008690D02*
X2993878Y9804438D01*
X2964255D01*
X2949443Y9789626D01*
Y9730379D01*
X2964255Y9715567D01*
X2993878D01*
X3008690Y9730379D01*
Y9789626D01*
X2919819D02*
X2905007Y9804438D01*
X2875383D01*
X2860571Y9789626D01*
Y9730379D01*
X2875383Y9715567D01*
X2905007D01*
X2919819Y9730379D01*
Y9789626D01*
X10125898Y11253922D02*
X10140710Y11268734D01*
X10170334D01*
X10185145Y11253922D01*
Y11194674D01*
X10170334Y11179862D01*
X10140710D01*
X10125898Y11194674D01*
X10096274Y11179862D02*
X10066650D01*
X10081462D01*
Y11268734D01*
X10096274Y11253922D01*
X10022215D02*
X10007403Y11268734D01*
X9977779D01*
X9962967Y11253922D01*
Y11239110D01*
X9977779Y11224298D01*
X9992591D01*
X9977779D01*
X9962967Y11209486D01*
Y11194674D01*
X9977779Y11179862D01*
X10007403D01*
X10022215Y11194674D01*
X9874096Y11268734D02*
X9903720Y11253922D01*
X9933344Y11224298D01*
Y11194674D01*
X9918532Y11179862D01*
X9888908D01*
X9874096Y11194674D01*
Y11209486D01*
X9888908Y11224298D01*
X9933344D01*
X18543269Y7594273D02*
Y7505402D01*
X18587704D01*
X18602518Y7520214D01*
Y7549838D01*
X18587704Y7564649D01*
X18543269D01*
X18572893D02*
X18602518Y7594273D01*
X18632141D02*
X18661765D01*
X18646953D01*
Y7505402D01*
X18632141Y7520214D01*
X18765448Y7505402D02*
X18706200D01*
Y7549838D01*
X18735825Y7535026D01*
X18750636D01*
X18765448Y7549838D01*
Y7579461D01*
X18750636Y7594273D01*
X18721011D01*
X18706200Y7579461D01*
X18839507Y7594273D02*
Y7505402D01*
X18795071Y7549838D01*
X18854318D01*
X18543269Y7416473D02*
Y7327602D01*
X18587704D01*
X18602518Y7342414D01*
Y7372038D01*
X18587704Y7386849D01*
X18543269D01*
X18572893D02*
X18602518Y7416473D01*
X18632141D02*
X18661765D01*
X18646953D01*
Y7327602D01*
X18632141Y7342414D01*
X18765448Y7327602D02*
X18706200D01*
Y7372038D01*
X18735825Y7357226D01*
X18750636D01*
X18765448Y7372038D01*
Y7401661D01*
X18750636Y7416473D01*
X18721011D01*
X18706200Y7401661D01*
X18854318Y7327602D02*
X18795071D01*
Y7372038D01*
X18824695Y7357226D01*
X18839507D01*
X18854318Y7372038D01*
Y7401661D01*
X18839507Y7416473D01*
X18809883D01*
X18795071Y7401661D01*
X18177197Y6931316D02*
X18266069D01*
Y6975752D01*
X18251257Y6990564D01*
X18221632D01*
X18206821Y6975752D01*
Y6931316D01*
Y6960940D02*
X18177197Y6990564D01*
Y7020187D02*
Y7049811D01*
Y7034999D01*
X18266069D01*
X18251257Y7020187D01*
X18266069Y7153494D02*
Y7094247D01*
X18221632D01*
X18236446Y7123870D01*
Y7138682D01*
X18221632Y7153494D01*
X18192009D01*
X18177197Y7138682D01*
Y7109058D01*
X18192009Y7094247D01*
Y7183118D02*
X18177197Y7197930D01*
Y7227553D01*
X18192009Y7242365D01*
X18251257D01*
X18266069Y7227553D01*
Y7197930D01*
X18251257Y7183118D01*
X18236446D01*
X18221632Y7197930D01*
Y7242365D01*
X18401430Y6998744D02*
X18416241Y6983932D01*
Y6954308D01*
X18401430Y6939496D01*
X18342181D01*
X18327370Y6954308D01*
Y6983932D01*
X18342181Y6998744D01*
X18327370Y7087615D02*
Y7028367D01*
X18386618Y7087615D01*
X18401430D01*
X18416241Y7072803D01*
Y7043179D01*
X18401430Y7028367D01*
X18342181Y7117239D02*
X18327370Y7132051D01*
Y7161674D01*
X18342181Y7176486D01*
X18401430D01*
X18416241Y7161674D01*
Y7132051D01*
X18401430Y7117239D01*
X18386618D01*
X18371806Y7132051D01*
Y7176486D01*
X18401430Y7206110D02*
X18416241Y7220922D01*
Y7250546D01*
X18401430Y7265358D01*
X18386618D01*
X18371806Y7250546D01*
X18356995Y7265358D01*
X18342181D01*
X18327370Y7250546D01*
Y7220922D01*
X18342181Y7206110D01*
X18356995D01*
X18371806Y7220922D01*
X18386618Y7206110D01*
X18401430D01*
X18371806Y7220922D02*
Y7250546D01*
X17000662Y7436270D02*
X17015474Y7451082D01*
X17045097D01*
X17059911Y7436270D01*
Y7377023D01*
X17045097Y7362211D01*
X17015474D01*
X17000662Y7377023D01*
X16911790Y7362211D02*
X16971039D01*
X16911790Y7421459D01*
Y7436270D01*
X16926604Y7451082D01*
X16956227D01*
X16971039Y7436270D01*
X16882167Y7377023D02*
X16867355Y7362211D01*
X16837732D01*
X16822920Y7377023D01*
Y7436270D01*
X16837732Y7451082D01*
X16867355D01*
X16882167Y7436270D01*
Y7421459D01*
X16867355Y7406647D01*
X16822920D01*
X16734048Y7451082D02*
X16793295D01*
Y7406647D01*
X16763672Y7421459D01*
X16748862D01*
X16734048Y7406647D01*
Y7377023D01*
X16748862Y7362211D01*
X16778484D01*
X16793295Y7377023D01*
X7468133Y15495760D02*
X7482945Y15510571D01*
X7512568D01*
X7527380Y15495760D01*
Y15436513D01*
X7512568Y15421700D01*
X7482945D01*
X7468133Y15436513D01*
X7438509Y15510571D02*
X7379261D01*
Y15495760D01*
X7438509Y15436513D01*
Y15421700D01*
X7290390Y15510571D02*
X7349638D01*
Y15466136D01*
X7320014Y15480948D01*
X7305202D01*
X7290390Y15466136D01*
Y15436513D01*
X7305202Y15421700D01*
X7334826D01*
X7349638Y15436513D01*
X10158617Y18041695D02*
X10173429Y18056506D01*
X10203053D01*
X10217865Y18041695D01*
Y17982446D01*
X10203053Y17967635D01*
X10173429D01*
X10158617Y17982446D01*
X10128994Y18056506D02*
X10069746D01*
Y18041695D01*
X10128994Y17982446D01*
Y17967635D01*
X10040122Y18041695D02*
X10025311Y18056506D01*
X9995687D01*
X9980875Y18041695D01*
Y18026883D01*
X9995687Y18012071D01*
X10010499D01*
X9995687D01*
X9980875Y17997260D01*
Y17982446D01*
X9995687Y17967635D01*
X10025311D01*
X10040122Y17982446D01*
X10145588Y18323782D02*
X10160400Y18338596D01*
X10190023D01*
X10204835Y18323782D01*
Y18264536D01*
X10190023Y18249724D01*
X10160400D01*
X10145588Y18264536D01*
X10115964Y18338596D02*
X10056716D01*
Y18323782D01*
X10115964Y18264536D01*
Y18249724D01*
X9967845D02*
X10027092D01*
X9967845Y18308972D01*
Y18323782D01*
X9982657Y18338596D01*
X10012281D01*
X10027092Y18323782D01*
X18205734Y13565878D02*
X18220546Y13580690D01*
X18250169D01*
X18264983Y13565878D01*
Y13506630D01*
X18250169Y13491818D01*
X18220546D01*
X18205734Y13506630D01*
X18176111Y13565878D02*
X18161299Y13580690D01*
X18131676D01*
X18116862Y13565878D01*
Y13551067D01*
X18131676Y13536253D01*
X18146487D01*
X18131676D01*
X18116862Y13521442D01*
Y13506630D01*
X18131676Y13491818D01*
X18161299D01*
X18176111Y13506630D01*
X18027992Y13580690D02*
X18087239D01*
Y13536253D01*
X18057616Y13551067D01*
X18042804D01*
X18027992Y13536253D01*
Y13506630D01*
X18042804Y13491818D01*
X18072427D01*
X18087239Y13506630D01*
X6328909Y3676429D02*
X6343721Y3691241D01*
X6373345D01*
X6388157Y3676429D01*
Y3617182D01*
X6373345Y3602370D01*
X6343721D01*
X6328909Y3617182D01*
X6299286Y3602370D02*
X6269662D01*
X6284474D01*
Y3691241D01*
X6299286Y3676429D01*
X6180791Y3602370D02*
Y3691241D01*
X6225226Y3646806D01*
X6165979D01*
X6077107Y3602370D02*
X6136355D01*
X6077107Y3661618D01*
Y3676429D01*
X6091919Y3691241D01*
X6121543D01*
X6136355Y3676429D01*
X6336020Y4833215D02*
X6350832Y4848027D01*
X6380456D01*
X6395268Y4833215D01*
Y4773967D01*
X6380456Y4759156D01*
X6350832D01*
X6336020Y4773967D01*
X6306396Y4759156D02*
X6276773D01*
X6291585D01*
Y4848027D01*
X6306396Y4833215D01*
X6173090Y4848027D02*
X6232337D01*
Y4803591D01*
X6202713Y4818403D01*
X6187902D01*
X6173090Y4803591D01*
Y4773967D01*
X6187902Y4759156D01*
X6217525D01*
X6232337Y4773967D01*
X6084218Y4848027D02*
X6113842Y4833215D01*
X6143466Y4803591D01*
Y4773967D01*
X6128654Y4759156D01*
X6099030D01*
X6084218Y4773967D01*
Y4788779D01*
X6099030Y4803591D01*
X6143466D01*
X6342426Y5994069D02*
X6357238Y6008881D01*
X6386862D01*
X6401674Y5994069D01*
Y5934821D01*
X6386862Y5920009D01*
X6357238D01*
X6342426Y5934821D01*
X6312802Y5920009D02*
X6283178D01*
X6297990D01*
Y6008881D01*
X6312802Y5994069D01*
X6194307Y5920009D02*
Y6008881D01*
X6238743Y5964445D01*
X6179495D01*
X6149872Y5920009D02*
X6120248D01*
X6135060D01*
Y6008881D01*
X6149872Y5994069D01*
X10166309Y19127467D02*
X10181121Y19142279D01*
X10210745D01*
X10225556Y19127467D01*
Y19068221D01*
X10210745Y19053407D01*
X10181121D01*
X10166309Y19068221D01*
X10136685Y19142279D02*
X10077438D01*
Y19127467D01*
X10136685Y19068221D01*
Y19053407D01*
X10047814Y19127467D02*
X10033002Y19142279D01*
X10003378D01*
X9988566Y19127467D01*
Y19068221D01*
X10003378Y19053407D01*
X10033002D01*
X10047814Y19068221D01*
Y19127467D01*
X10144593Y18864938D02*
X10159405Y18879750D01*
X10189029D01*
X10203841Y18864938D01*
Y18805690D01*
X10189029Y18790878D01*
X10159405D01*
X10144593Y18805690D01*
X10114969Y18879750D02*
X10055722D01*
Y18864938D01*
X10114969Y18805690D01*
Y18790878D01*
X10026098D02*
X9996474D01*
X10011286D01*
Y18879750D01*
X10026098Y18864938D01*
X10166314Y18590910D02*
X10181126Y18605722D01*
X10210750D01*
X10225561Y18590910D01*
Y18531662D01*
X10210750Y18516850D01*
X10181126D01*
X10166314Y18531662D01*
X10077443Y18605722D02*
X10107066Y18590910D01*
X10136690Y18561285D01*
Y18531662D01*
X10121878Y18516850D01*
X10092255D01*
X10077443Y18531662D01*
Y18546474D01*
X10092255Y18561285D01*
X10136690D01*
X10047819Y18531662D02*
X10033007Y18516850D01*
X10003383D01*
X9988571Y18531662D01*
Y18590910D01*
X10003383Y18605722D01*
X10033007D01*
X10047819Y18590910D01*
Y18576099D01*
X10033007Y18561285D01*
X9988571D01*
X9419373Y14398279D02*
Y14487151D01*
X9374938D01*
X9360126Y14472337D01*
Y14442714D01*
X9374938Y14427904D01*
X9419373D01*
X9389749D02*
X9360126Y14398279D01*
X9271254Y14487151D02*
X9330502D01*
Y14442714D01*
X9300878Y14457526D01*
X9286066D01*
X9271254Y14442714D01*
Y14413091D01*
X9286066Y14398279D01*
X9315690D01*
X9330502Y14413091D01*
X9241630D02*
X9226819Y14398279D01*
X9197195D01*
X9182383Y14413091D01*
Y14472337D01*
X9197195Y14487151D01*
X9226819D01*
X9241630Y14472337D01*
Y14457526D01*
X9226819Y14442714D01*
X9182383D01*
X9378265Y14052954D02*
X9393077Y14067766D01*
X9422701D01*
X9437513Y14052954D01*
Y13993706D01*
X9422701Y13978894D01*
X9393077D01*
X9378265Y13993706D01*
X9348641Y13978894D02*
X9319018D01*
X9333830D01*
Y14067766D01*
X9348641Y14052954D01*
X9274582Y13993706D02*
X9259770Y13978894D01*
X9230147D01*
X9215335Y13993706D01*
Y14052954D01*
X9230147Y14067766D01*
X9259770D01*
X9274582Y14052954D01*
Y14038142D01*
X9259770Y14023331D01*
X9215335D01*
X9126463Y13978894D02*
X9185711D01*
X9126463Y14038142D01*
Y14052954D01*
X9141275Y14067766D01*
X9170899D01*
X9185711Y14052954D01*
X10715432Y14469135D02*
X10730244Y14483948D01*
X10759867D01*
X10774679Y14469135D01*
Y14409888D01*
X10759867Y14395076D01*
X10730244D01*
X10715432Y14409888D01*
X10685808Y14395076D02*
X10656184D01*
X10670996D01*
Y14483948D01*
X10685808Y14469135D01*
X10611749Y14409888D02*
X10596937Y14395076D01*
X10567313D01*
X10552501Y14409888D01*
Y14469135D01*
X10567313Y14483948D01*
X10596937D01*
X10611749Y14469135D01*
Y14454323D01*
X10596937Y14439511D01*
X10552501D01*
X10522877Y14395076D02*
X10493254D01*
X10508066D01*
Y14483948D01*
X10522877Y14469135D01*
X10767389Y14160480D02*
Y14249350D01*
X10722954D01*
X10708142Y14234538D01*
Y14204913D01*
X10722954Y14190103D01*
X10767389D01*
X10737765D02*
X10708142Y14160480D01*
X10619270Y14249350D02*
X10648894Y14234538D01*
X10678518Y14204913D01*
Y14175291D01*
X10663706Y14160480D01*
X10634082D01*
X10619270Y14175291D01*
Y14190103D01*
X10634082Y14204913D01*
X10678518D01*
X10589647Y14234538D02*
X10574835Y14249350D01*
X10545211D01*
X10530399Y14234538D01*
Y14175291D01*
X10545211Y14160480D01*
X10574835D01*
X10589647Y14175291D01*
Y14234538D01*
X10804887Y14004205D02*
X10819699Y14019019D01*
X10849322D01*
X10864134Y14004205D01*
Y13944958D01*
X10849322Y13930147D01*
X10819699D01*
X10804887Y13944958D01*
X10775263Y13930147D02*
X10745639D01*
X10760451D01*
Y14019019D01*
X10775263Y14004205D01*
X10701204Y13944958D02*
X10686392Y13930147D01*
X10656768D01*
X10641956Y13944958D01*
Y14004205D01*
X10656768Y14019019D01*
X10686392D01*
X10701204Y14004205D01*
Y13989394D01*
X10686392Y13974582D01*
X10641956D01*
X10612332Y14004205D02*
X10597521Y14019019D01*
X10567897D01*
X10553085Y14004205D01*
Y13989394D01*
X10567897Y13974582D01*
X10582709D01*
X10567897D01*
X10553085Y13959770D01*
Y13944958D01*
X10567897Y13930147D01*
X10597521D01*
X10612332Y13944958D01*
X16686047Y15135103D02*
X16700859Y15149915D01*
X16730482D01*
X16745294Y15135103D01*
Y15075854D01*
X16730482Y15061044D01*
X16700859D01*
X16686047Y15075854D01*
X16597176Y15061044D02*
X16656422D01*
X16597176Y15120291D01*
Y15135103D01*
X16611987Y15149915D01*
X16641611D01*
X16656422Y15135103D01*
X16508304Y15149915D02*
X16537927Y15135103D01*
X16567552Y15105479D01*
Y15075854D01*
X16552740Y15061044D01*
X16523116D01*
X16508304Y15075854D01*
Y15090668D01*
X16523116Y15105479D01*
X16567552D01*
X16478680Y15061044D02*
X16449057D01*
X16463869D01*
Y15149915D01*
X16478680Y15135103D01*
X18789294Y17557903D02*
X18804108Y17572714D01*
X18833731D01*
X18848543Y17557903D01*
Y17498656D01*
X18833731Y17483842D01*
X18804108D01*
X18789294Y17498656D01*
X18700424Y17483842D02*
X18759673D01*
X18700424Y17543091D01*
Y17557903D01*
X18715236Y17572714D01*
X18744859D01*
X18759673Y17557903D01*
X18611552Y17483842D02*
X18670799D01*
X18611552Y17543091D01*
Y17557903D01*
X18626366Y17572714D01*
X18655989D01*
X18670799Y17557903D01*
X18581929Y17498656D02*
X18567117Y17483842D01*
X18537494D01*
X18522682Y17498656D01*
Y17557903D01*
X18537494Y17572714D01*
X18567117D01*
X18581929Y17557903D01*
Y17543091D01*
X18567117Y17528279D01*
X18522682D01*
X15213724Y18928252D02*
X15228535Y18943063D01*
X15258159D01*
X15272971Y18928252D01*
Y18869003D01*
X15258159Y18854192D01*
X15228535D01*
X15213724Y18869003D01*
X15124852Y18854192D02*
X15184099D01*
X15124852Y18913438D01*
Y18928252D01*
X15139664Y18943063D01*
X15169289D01*
X15184099Y18928252D01*
X15095229D02*
X15080415Y18943063D01*
X15050793D01*
X15035982Y18928252D01*
Y18913438D01*
X15050793Y18898627D01*
X15035982Y18883815D01*
Y18869003D01*
X15050793Y18854192D01*
X15080415D01*
X15095229Y18869003D01*
Y18883815D01*
X15080415Y18898627D01*
X15095229Y18913438D01*
Y18928252D01*
X15080415Y18898627D02*
X15050793D01*
X15006357Y18928252D02*
X14991545Y18943063D01*
X14961922D01*
X14947108Y18928252D01*
Y18913438D01*
X14961922Y18898627D01*
X14947108Y18883815D01*
Y18869003D01*
X14961922Y18854192D01*
X14991545D01*
X15006357Y18869003D01*
Y18883815D01*
X14991545Y18898627D01*
X15006357Y18913438D01*
Y18928252D01*
X14991545Y18898627D02*
X14961922D01*
X16667258Y17508633D02*
X16682069Y17523447D01*
X16711693D01*
X16726505Y17508633D01*
Y17449387D01*
X16711693Y17434573D01*
X16682069D01*
X16667258Y17449387D01*
X16578384Y17434573D02*
X16637633D01*
X16578384Y17493822D01*
Y17508633D01*
X16593198Y17523447D01*
X16622821D01*
X16637633Y17508633D01*
X16548763D02*
X16533949Y17523447D01*
X16504326D01*
X16489514Y17508633D01*
Y17493822D01*
X16504326Y17479010D01*
X16489514Y17464198D01*
Y17449387D01*
X16504326Y17434573D01*
X16533949D01*
X16548763Y17449387D01*
Y17464198D01*
X16533949Y17479010D01*
X16548763Y17493822D01*
Y17508633D01*
X16533949Y17479010D02*
X16504326D01*
X16459891Y17508633D02*
X16445079Y17523447D01*
X16415456D01*
X16400642Y17508633D01*
Y17493822D01*
X16415456Y17479010D01*
X16430267D01*
X16415456D01*
X16400642Y17464198D01*
Y17449387D01*
X16415456Y17434573D01*
X16445079D01*
X16459891Y17449387D01*
X17135654Y17493394D02*
X17150465Y17508206D01*
X17180089D01*
X17194901Y17493394D01*
Y17434146D01*
X17180089Y17419334D01*
X17150465D01*
X17135654Y17434146D01*
X17046782Y17419334D02*
X17106029D01*
X17046782Y17478581D01*
Y17493394D01*
X17061594Y17508206D01*
X17091219D01*
X17106029Y17493394D01*
X17017159D02*
X17002345Y17508206D01*
X16972722D01*
X16957910Y17493394D01*
Y17478581D01*
X16972722Y17463770D01*
X16957910Y17448958D01*
Y17434146D01*
X16972722Y17419334D01*
X17002345D01*
X17017159Y17434146D01*
Y17448958D01*
X17002345Y17463770D01*
X17017159Y17478581D01*
Y17493394D01*
X17002345Y17463770D02*
X16972722D01*
X16869038Y17419334D02*
X16928287D01*
X16869038Y17478581D01*
Y17493394D01*
X16883852Y17508206D01*
X16913475D01*
X16928287Y17493394D01*
X16382513Y19049121D02*
X16397325Y19063933D01*
X16426949D01*
X16441760Y19049121D01*
Y18989873D01*
X16426949Y18975063D01*
X16397325D01*
X16382513Y18989873D01*
X16293642Y18975063D02*
X16352888D01*
X16293642Y19034309D01*
Y19049121D01*
X16308453Y19063933D01*
X16338077D01*
X16352888Y19049121D01*
X16264018D02*
X16249207Y19063933D01*
X16219582D01*
X16204770Y19049121D01*
Y19034309D01*
X16219582Y19019498D01*
X16234393D01*
X16219582D01*
X16204770Y19004684D01*
Y18989873D01*
X16219582Y18975063D01*
X16249207D01*
X16264018Y18989873D01*
X16175146Y19049121D02*
X16160333Y19063933D01*
X16130711D01*
X16115900Y19049121D01*
Y19034309D01*
X16130711Y19019498D01*
X16115900Y19004684D01*
Y18989873D01*
X16130711Y18975063D01*
X16160333D01*
X16175146Y18989873D01*
Y19004684D01*
X16160333Y19019498D01*
X16175146Y19034309D01*
Y19049121D01*
X16160333Y19019498D02*
X16130711D01*
X17393945Y18613158D02*
X17408759Y18627969D01*
X17438380D01*
X17453194Y18613158D01*
Y18553909D01*
X17438380Y18539099D01*
X17408759D01*
X17393945Y18553909D01*
X17305074Y18539099D02*
X17364322D01*
X17305074Y18598346D01*
Y18613158D01*
X17319885Y18627969D01*
X17349510D01*
X17364322Y18613158D01*
X17275452D02*
X17260638Y18627969D01*
X17231015D01*
X17216203Y18613158D01*
Y18598346D01*
X17231015Y18583534D01*
X17216203Y18568723D01*
Y18553909D01*
X17231015Y18539099D01*
X17260638D01*
X17275452Y18553909D01*
Y18568723D01*
X17260638Y18583534D01*
X17275452Y18598346D01*
Y18613158D01*
X17260638Y18583534D02*
X17231015D01*
X17186578Y18627969D02*
X17127332D01*
Y18613158D01*
X17186578Y18553909D01*
Y18539099D01*
X17054990Y18430052D02*
X17069801Y18444864D01*
X17099426D01*
X17114238Y18430052D01*
Y18370804D01*
X17099426Y18355992D01*
X17069801D01*
X17054990Y18370804D01*
X16966119Y18355992D02*
X17025368D01*
X16966119Y18415240D01*
Y18430052D01*
X16980931Y18444864D01*
X17010555D01*
X17025368Y18430052D01*
X16936494D02*
X16921683Y18444864D01*
X16892059D01*
X16877248Y18430052D01*
Y18415240D01*
X16892059Y18400427D01*
X16877248Y18385616D01*
Y18370804D01*
X16892059Y18355992D01*
X16921683D01*
X16936494Y18370804D01*
Y18385616D01*
X16921683Y18400427D01*
X16936494Y18415240D01*
Y18430052D01*
X16921683Y18400427D02*
X16892059D01*
X16847624Y18370804D02*
X16832812Y18355992D01*
X16803188D01*
X16788376Y18370804D01*
Y18430052D01*
X16803188Y18444864D01*
X16832812D01*
X16847624Y18430052D01*
Y18415240D01*
X16832812Y18400427D01*
X16788376D01*
X16689873Y18425696D02*
X16704684Y18440508D01*
X16734309D01*
X16749120Y18425696D01*
Y18366447D01*
X16734309Y18351636D01*
X16704684D01*
X16689873Y18366447D01*
X16601003Y18351636D02*
X16660249D01*
X16601003Y18410884D01*
Y18425696D01*
X16615814Y18440508D01*
X16645438D01*
X16660249Y18425696D01*
X16571378D02*
X16556566Y18440508D01*
X16526942D01*
X16512131Y18425696D01*
Y18410884D01*
X16526942Y18396072D01*
X16512131Y18381261D01*
Y18366447D01*
X16526942Y18351636D01*
X16556566D01*
X16571378Y18366447D01*
Y18381261D01*
X16556566Y18396072D01*
X16571378Y18410884D01*
Y18425696D01*
X16556566Y18396072D02*
X16526942D01*
X16423259Y18440508D02*
X16452882Y18425696D01*
X16482507Y18396072D01*
Y18366447D01*
X16467696Y18351636D01*
X16438071D01*
X16423259Y18366447D01*
Y18381261D01*
X16438071Y18396072D01*
X16482507D01*
X17586864Y18404977D02*
X17601675Y18419789D01*
X17631300D01*
X17646111Y18404977D01*
Y18345729D01*
X17631300Y18330917D01*
X17601675D01*
X17586864Y18345729D01*
X17497992Y18330917D02*
X17557240D01*
X17497992Y18390166D01*
Y18404977D01*
X17512804Y18419789D01*
X17542429D01*
X17557240Y18404977D01*
X17468369Y18419789D02*
X17409122D01*
Y18404977D01*
X17468369Y18345729D01*
Y18330917D01*
X17379497Y18404977D02*
X17364687Y18419789D01*
X17335062D01*
X17320250Y18404977D01*
Y18345729D01*
X17335062Y18330917D01*
X17364687D01*
X17379497Y18345729D01*
Y18404977D01*
X17237067Y18187759D02*
X17251878Y18172948D01*
Y18143323D01*
X17237067Y18128511D01*
X17177820D01*
X17163008Y18143323D01*
Y18172948D01*
X17177820Y18187759D01*
X17163008Y18276630D02*
Y18217381D01*
X17222255Y18276630D01*
X17237067D01*
X17251878Y18261818D01*
Y18232195D01*
X17237067Y18217381D01*
X17251878Y18365501D02*
X17237067Y18335876D01*
X17207443Y18306255D01*
X17177820D01*
X17163008Y18321065D01*
Y18350690D01*
X17177820Y18365501D01*
X17192632D01*
X17207443Y18350690D01*
Y18306255D01*
X17163008Y18439561D02*
X17251878D01*
X17207443Y18395125D01*
Y18454373D01*
X17455003Y17766280D02*
X17469815Y17781091D01*
X17499438D01*
X17514250Y17766280D01*
Y17707031D01*
X17499438Y17692221D01*
X17469815D01*
X17455003Y17707031D01*
X17366132Y17692221D02*
X17425378D01*
X17366132Y17751468D01*
Y17766280D01*
X17380943Y17781091D01*
X17410567D01*
X17425378Y17766280D01*
X17277260Y17781091D02*
X17306883Y17766280D01*
X17336508Y17736656D01*
Y17707031D01*
X17321696Y17692221D01*
X17292072D01*
X17277260Y17707031D01*
Y17721844D01*
X17292072Y17736656D01*
X17336508D01*
X17188390Y17781091D02*
X17247636D01*
Y17736656D01*
X17218013Y17751468D01*
X17203201D01*
X17188390Y17736656D01*
Y17707031D01*
X17203201Y17692221D01*
X17232825D01*
X17247636Y17707031D01*
X17737405Y17811765D02*
Y17900636D01*
X17692969D01*
X17678157Y17885825D01*
Y17856200D01*
X17692969Y17841388D01*
X17737405D01*
X17707780D02*
X17678157Y17811765D01*
X17648534D02*
X17618910D01*
X17633722D01*
Y17900636D01*
X17648534Y17885825D01*
X17574474D02*
X17559662Y17900636D01*
X17530038D01*
X17515227Y17885825D01*
Y17826576D01*
X17530038Y17811765D01*
X17559662D01*
X17574474Y17826576D01*
Y17885825D01*
X17485603Y17900636D02*
X17426355D01*
Y17885825D01*
X17485603Y17826576D01*
Y17811765D01*
X9340710Y11872063D02*
X9355522Y11857251D01*
Y11827627D01*
X9340710Y11812815D01*
X9281462D01*
X9266651Y11827627D01*
Y11857251D01*
X9281462Y11872063D01*
X9266651Y11901687D02*
Y11931310D01*
Y11916498D01*
X9355522D01*
X9340710Y11901687D01*
X9355522Y12034993D02*
Y11975746D01*
X9311086D01*
X9325898Y12005370D01*
Y12020181D01*
X9311086Y12034993D01*
X9281462D01*
X9266651Y12020181D01*
Y11990558D01*
X9281462Y11975746D01*
X9266651Y12109053D02*
X9355522D01*
X9311086Y12064617D01*
Y12123865D01*
X6815653Y12469025D02*
X6874900D01*
Y12424590D01*
X6845277D01*
X6874900D01*
Y12380154D01*
X6786029Y12469025D02*
X6756405D01*
X6771217D01*
Y12380154D01*
X6786029D01*
X6756405D01*
X6711970Y12469025D02*
Y12380154D01*
X6667534D01*
X6652722Y12394966D01*
Y12454213D01*
X6667534Y12469025D01*
X6711970D01*
X6563851D02*
X6593475Y12454213D01*
X6623099Y12424590D01*
Y12394966D01*
X6608287Y12380154D01*
X6578663D01*
X6563851Y12394966D01*
Y12409778D01*
X6578663Y12424590D01*
X6623099D01*
X9240360Y15187114D02*
X9299608D01*
Y15142677D01*
X9269984D01*
X9299608D01*
Y15098244D01*
X9210737Y15187114D02*
X9181113D01*
X9195925D01*
Y15098244D01*
X9210737D01*
X9181113D01*
X9136677Y15187114D02*
Y15098244D01*
X9092242D01*
X9077430Y15113054D01*
Y15172302D01*
X9092242Y15187114D01*
X9136677D01*
X8988559Y15098244D02*
X9047806D01*
X8988559Y15157491D01*
Y15172302D01*
X9003371Y15187114D01*
X9032994D01*
X9047806Y15172302D01*
X18911659Y18876071D02*
Y18787199D01*
X18852412D01*
X18822789Y18802013D02*
X18807977Y18787199D01*
X18778352D01*
X18763541Y18802013D01*
Y18861259D01*
X18778352Y18876071D01*
X18807977D01*
X18822789Y18861259D01*
Y18846448D01*
X18807977Y18831636D01*
X18763541D01*
X18748138Y17341837D02*
Y17252963D01*
X18688892D01*
X18659268Y17327023D02*
X18644456Y17341837D01*
X18614832D01*
X18600020Y17327023D01*
Y17312212D01*
X18614832Y17297400D01*
X18600020Y17282588D01*
Y17267776D01*
X18614832Y17252963D01*
X18644456D01*
X18659268Y17267776D01*
Y17282588D01*
X18644456Y17297400D01*
X18659268Y17312212D01*
Y17327023D01*
X18644456Y17297400D02*
X18614832D01*
X18273293Y15485599D02*
X18288104Y15500410D01*
X18317728D01*
X18332539Y15485599D01*
Y15426352D01*
X18317728Y15411540D01*
X18288104D01*
X18273293Y15426352D01*
X18184421Y15411540D02*
X18243669D01*
X18184421Y15470789D01*
Y15485599D01*
X18199232Y15500410D01*
X18228857D01*
X18243669Y15485599D01*
X18110362Y15411540D02*
Y15500410D01*
X18154797Y15455975D01*
X18095551D01*
X18065926Y15485599D02*
X18051115Y15500410D01*
X18021490D01*
X18006679Y15485599D01*
Y15470789D01*
X18021490Y15455975D01*
X18006679Y15441164D01*
Y15426352D01*
X18021490Y15411540D01*
X18051115D01*
X18065926Y15426352D01*
Y15441164D01*
X18051115Y15455975D01*
X18065926Y15470789D01*
Y15485599D01*
X18051115Y15455975D02*
X18021490D01*
X18219952Y16666699D02*
X18234766Y16681511D01*
X18264388D01*
X18279201Y16666699D01*
Y16607452D01*
X18264388Y16592641D01*
X18234766D01*
X18219952Y16607452D01*
X18131081Y16592641D02*
X18190329D01*
X18131081Y16651888D01*
Y16666699D01*
X18145892Y16681511D01*
X18175517D01*
X18190329Y16666699D01*
X18057022Y16592641D02*
Y16681511D01*
X18101459Y16637076D01*
X18042210D01*
X18012585Y16666699D02*
X17997775Y16681511D01*
X17968150D01*
X17953339Y16666699D01*
Y16651888D01*
X17968150Y16637076D01*
X17982964D01*
X17968150D01*
X17953339Y16622264D01*
Y16607452D01*
X17968150Y16592641D01*
X17997775D01*
X18012585Y16607452D01*
X3112373Y9535626D02*
X3127185Y9550438D01*
X3156809D01*
X3171621Y9535626D01*
Y9476379D01*
X3156809Y9461567D01*
X3127185D01*
X3112373Y9476379D01*
X3082749Y9461567D02*
X3053126D01*
X3067938D01*
Y9550438D01*
X3082749Y9535626D01*
X3008690D02*
X2993878Y9550438D01*
X2964255D01*
X2949443Y9535626D01*
Y9476379D01*
X2964255Y9461567D01*
X2993878D01*
X3008690Y9476379D01*
Y9535626D01*
X2919819D02*
X2905007Y9550438D01*
X2875383D01*
X2860571Y9535626D01*
Y9520814D01*
X2875383Y9506002D01*
X2890195D01*
X2875383D01*
X2860571Y9491191D01*
Y9476379D01*
X2875383Y9461567D01*
X2905007D01*
X2919819Y9476379D01*
X4022521Y9131367D02*
Y9220238D01*
X3978085D01*
X3963273Y9205426D01*
Y9175802D01*
X3978085Y9160991D01*
X4022521D01*
X3992897D02*
X3963273Y9131367D01*
X3933649Y9205426D02*
X3918838Y9220238D01*
X3889214D01*
X3874402Y9205426D01*
Y9190614D01*
X3889214Y9175802D01*
X3904026D01*
X3889214D01*
X3874402Y9160991D01*
Y9146179D01*
X3889214Y9131367D01*
X3918838D01*
X3933649Y9146179D01*
X3800343Y9131367D02*
Y9220238D01*
X3844778Y9175802D01*
X3785531D01*
X4022521Y9309167D02*
Y9398038D01*
X3978085D01*
X3963273Y9383226D01*
Y9353602D01*
X3978085Y9338791D01*
X4022521D01*
X3992897D02*
X3963273Y9309167D01*
X3874402D02*
X3933649D01*
X3874402Y9368414D01*
Y9383226D01*
X3889214Y9398038D01*
X3918838D01*
X3933649Y9383226D01*
X3785531Y9398038D02*
X3844778D01*
Y9353602D01*
X3815154Y9368414D01*
X3800343D01*
X3785531Y9353602D01*
Y9323979D01*
X3800343Y9309167D01*
X3829966D01*
X3844778Y9323979D01*
X4022521Y9664767D02*
Y9753638D01*
X3978085D01*
X3963273Y9738826D01*
Y9709202D01*
X3978085Y9694391D01*
X4022521D01*
X3992897D02*
X3963273Y9664767D01*
X3933649Y9738826D02*
X3918838Y9753638D01*
X3889214D01*
X3874402Y9738826D01*
Y9724014D01*
X3889214Y9709202D01*
X3904026D01*
X3889214D01*
X3874402Y9694391D01*
Y9679579D01*
X3889214Y9664767D01*
X3918838D01*
X3933649Y9679579D01*
X3844778Y9738826D02*
X3829966Y9753638D01*
X3800343D01*
X3785531Y9738826D01*
Y9679579D01*
X3800343Y9664767D01*
X3829966D01*
X3844778Y9679579D01*
Y9738826D01*
X4022521Y9842567D02*
Y9931438D01*
X3978085D01*
X3963273Y9916626D01*
Y9887002D01*
X3978085Y9872191D01*
X4022521D01*
X3992897D02*
X3963273Y9842567D01*
X3933649Y9916626D02*
X3918838Y9931438D01*
X3889214D01*
X3874402Y9916626D01*
Y9901814D01*
X3889214Y9887002D01*
X3904026D01*
X3889214D01*
X3874402Y9872191D01*
Y9857379D01*
X3889214Y9842567D01*
X3918838D01*
X3933649Y9857379D01*
X3844778Y9931438D02*
X3785531D01*
Y9916626D01*
X3844778Y9857379D01*
Y9842567D01*
X4022521Y10020367D02*
Y10109238D01*
X3978085D01*
X3963273Y10094426D01*
Y10064802D01*
X3978085Y10049991D01*
X4022521D01*
X3992897D02*
X3963273Y10020367D01*
X3874402D02*
X3933649D01*
X3874402Y10079614D01*
Y10094426D01*
X3889214Y10109238D01*
X3918838D01*
X3933649Y10094426D01*
X3800343Y10020367D02*
Y10109238D01*
X3844778Y10064802D01*
X3785531D01*
X4022521Y10198167D02*
Y10287038D01*
X3978085D01*
X3963273Y10272226D01*
Y10242602D01*
X3978085Y10227791D01*
X4022521D01*
X3992897D02*
X3963273Y10198167D01*
X3933649Y10272226D02*
X3918838Y10287038D01*
X3889214D01*
X3874402Y10272226D01*
Y10257414D01*
X3889214Y10242602D01*
X3904026D01*
X3889214D01*
X3874402Y10227791D01*
Y10212979D01*
X3889214Y10198167D01*
X3918838D01*
X3933649Y10212979D01*
X3844778Y10272226D02*
X3829966Y10287038D01*
X3800343D01*
X3785531Y10272226D01*
Y10257414D01*
X3800343Y10242602D01*
X3785531Y10227791D01*
Y10212979D01*
X3800343Y10198167D01*
X3829966D01*
X3844778Y10212979D01*
Y10227791D01*
X3829966Y10242602D01*
X3844778Y10257414D01*
Y10272226D01*
X3829966Y10242602D02*
X3800343D01*
X4022521Y10375967D02*
Y10464838D01*
X3978085D01*
X3963273Y10450026D01*
Y10420402D01*
X3978085Y10405591D01*
X4022521D01*
X3992897D02*
X3963273Y10375967D01*
X3874402D02*
X3933649D01*
X3874402Y10435214D01*
Y10450026D01*
X3889214Y10464838D01*
X3918838D01*
X3933649Y10450026D01*
X3785531Y10464838D02*
X3815154Y10450026D01*
X3844778Y10420402D01*
Y10390779D01*
X3829966Y10375967D01*
X3800343D01*
X3785531Y10390779D01*
Y10405591D01*
X3800343Y10420402D01*
X3844778D01*
X4022521Y10553767D02*
Y10642638D01*
X3978085D01*
X3963273Y10627826D01*
Y10598202D01*
X3978085Y10583391D01*
X4022521D01*
X3992897D02*
X3963273Y10553767D01*
X3933649D02*
X3904026D01*
X3918838D01*
Y10642638D01*
X3933649Y10627826D01*
X3859590Y10568579D02*
X3844778Y10553767D01*
X3815155D01*
X3800343Y10568579D01*
Y10627826D01*
X3815155Y10642638D01*
X3844778D01*
X3859590Y10627826D01*
Y10613014D01*
X3844778Y10598202D01*
X3800343D01*
X4022521Y10731567D02*
Y10820438D01*
X3978085D01*
X3963273Y10805626D01*
Y10776002D01*
X3978085Y10761191D01*
X4022521D01*
X3992897D02*
X3963273Y10731567D01*
X3933649Y10805626D02*
X3918838Y10820438D01*
X3889214D01*
X3874402Y10805626D01*
Y10790814D01*
X3889214Y10776002D01*
X3904026D01*
X3889214D01*
X3874402Y10761191D01*
Y10746379D01*
X3889214Y10731567D01*
X3918838D01*
X3933649Y10746379D01*
X3785531Y10820438D02*
X3815154Y10805626D01*
X3844778Y10776002D01*
Y10746379D01*
X3829966Y10731567D01*
X3800343D01*
X3785531Y10746379D01*
Y10761191D01*
X3800343Y10776002D01*
X3844778D01*
X3112373Y9662626D02*
X3127185Y9677438D01*
X3156809D01*
X3171621Y9662626D01*
Y9603379D01*
X3156809Y9588567D01*
X3127185D01*
X3112373Y9603379D01*
X3082749Y9588567D02*
X3053126D01*
X3067938D01*
Y9677438D01*
X3082749Y9662626D01*
X3008690Y9588567D02*
X2979066D01*
X2993878D01*
Y9677438D01*
X3008690Y9662626D01*
X2890195Y9588567D02*
Y9677438D01*
X2934631Y9633002D01*
X2875383D01*
X3112373Y9916626D02*
X3127185Y9931438D01*
X3156809D01*
X3171621Y9916626D01*
Y9857379D01*
X3156809Y9842567D01*
X3127185D01*
X3112373Y9857379D01*
X3082749Y9842567D02*
X3053126D01*
X3067938D01*
Y9931438D01*
X3082749Y9916626D01*
X3008690Y9842567D02*
X2979066D01*
X2993878D01*
Y9931438D01*
X3008690Y9916626D01*
X2934631D02*
X2919819Y9931438D01*
X2890195D01*
X2875383Y9916626D01*
Y9901814D01*
X2890195Y9887002D01*
X2905007D01*
X2890195D01*
X2875383Y9872191D01*
Y9857379D01*
X2890195Y9842567D01*
X2919819D01*
X2934631Y9857379D01*
X3112373Y10678626D02*
X3127185Y10693438D01*
X3156809D01*
X3171621Y10678626D01*
Y10619379D01*
X3156809Y10604567D01*
X3127185D01*
X3112373Y10619379D01*
X3082749Y10604567D02*
X3053126D01*
X3067938D01*
Y10693438D01*
X3082749Y10678626D01*
X3008690Y10604567D02*
X2979066D01*
X2993878D01*
Y10693438D01*
X3008690Y10678626D01*
X2875383Y10604567D02*
X2934631D01*
X2875383Y10663814D01*
Y10678626D01*
X2890195Y10693438D01*
X2919819D01*
X2934631Y10678626D01*
X16750015Y15586024D02*
X16661143D01*
Y15541589D01*
X16675957Y15526778D01*
X16705580D01*
X16720392Y15541589D01*
Y15586024D01*
Y15556401D02*
X16750015Y15526778D01*
Y15497153D02*
Y15467529D01*
Y15482343D01*
X16661143D01*
X16675957Y15497153D01*
X16661143Y15363847D02*
Y15423094D01*
X16705580D01*
X16690768Y15393469D01*
Y15378659D01*
X16705580Y15363847D01*
X16735204D01*
X16750015Y15378659D01*
Y15408282D01*
X16735204Y15423094D01*
X16675957Y15334222D02*
X16661143Y15319411D01*
Y15289787D01*
X16675957Y15274976D01*
X16690768D01*
X16705580Y15289787D01*
Y15304599D01*
Y15289787D01*
X16720392Y15274976D01*
X16735204D01*
X16750015Y15289787D01*
Y15319411D01*
X16735204Y15334222D01*
X16742397Y16129585D02*
X16653523D01*
Y16085149D01*
X16668336Y16070337D01*
X16697960D01*
X16712772Y16085149D01*
Y16129585D01*
Y16099960D02*
X16742397Y16070337D01*
Y16040714D02*
Y16011090D01*
Y16025902D01*
X16653523D01*
X16668336Y16040714D01*
X16653523Y15907407D02*
Y15966653D01*
X16697960D01*
X16683148Y15937030D01*
Y15922218D01*
X16697960Y15907407D01*
X16727583D01*
X16742397Y15922218D01*
Y15951842D01*
X16727583Y15966653D01*
X16742397Y15818535D02*
Y15877783D01*
X16683148Y15818535D01*
X16668336D01*
X16653523Y15833347D01*
Y15862971D01*
X16668336Y15877783D01*
X16327931Y17850826D02*
Y17939697D01*
X16283496D01*
X16268683Y17924886D01*
Y17895262D01*
X16283496Y17880450D01*
X16327931D01*
X16298306D02*
X16268683Y17850826D01*
X16239059D02*
X16209436D01*
X16224248D01*
Y17939697D01*
X16239059Y17924886D01*
X16164999D02*
X16150189Y17939697D01*
X16120564D01*
X16105753Y17924886D01*
Y17910074D01*
X16120564Y17895262D01*
X16135378D01*
X16120564D01*
X16105753Y17880450D01*
Y17865639D01*
X16120564Y17850826D01*
X16150189D01*
X16164999Y17865639D01*
X16016882Y17939697D02*
X16046506Y17924886D01*
X16076129Y17895262D01*
Y17865639D01*
X16061317Y17850826D01*
X16031694D01*
X16016882Y17865639D01*
Y17880450D01*
X16031694Y17895262D01*
X16076129D01*
X16330991Y18087567D02*
Y18176437D01*
X16286555D01*
X16271744Y18161626D01*
Y18132002D01*
X16286555Y18117191D01*
X16330991D01*
X16301367D02*
X16271744Y18087567D01*
X16242120D02*
X16212495D01*
X16227309D01*
Y18176437D01*
X16242120Y18161626D01*
X16168060D02*
X16153249Y18176437D01*
X16123625D01*
X16108813Y18161626D01*
Y18146814D01*
X16123625Y18132002D01*
X16138437D01*
X16123625D01*
X16108813Y18117191D01*
Y18102377D01*
X16123625Y18087567D01*
X16153249D01*
X16168060Y18102377D01*
X16019942Y18176437D02*
X16079189D01*
Y18132002D01*
X16049567Y18146814D01*
X16034753D01*
X16019942Y18132002D01*
Y18102377D01*
X16034753Y18087567D01*
X16064378D01*
X16079189Y18102377D01*
X16329971Y17970215D02*
Y18059087D01*
X16285536D01*
X16270724Y18044273D01*
Y18014650D01*
X16285536Y17999838D01*
X16329971D01*
X16300346D02*
X16270724Y17970215D01*
X16241100D02*
X16211476D01*
X16226288D01*
Y18059087D01*
X16241100Y18044273D01*
X16167041D02*
X16152229Y18059087D01*
X16122604D01*
X16107793Y18044273D01*
Y18029462D01*
X16122604Y18014650D01*
X16137418D01*
X16122604D01*
X16107793Y17999838D01*
Y17985027D01*
X16122604Y17970215D01*
X16152229D01*
X16167041Y17985027D01*
X16033734Y17970215D02*
Y18059087D01*
X16078169Y18014650D01*
X16018922D01*
X16326910Y18213083D02*
Y18301955D01*
X16282475D01*
X16267664Y18287141D01*
Y18257520D01*
X16282475Y18242706D01*
X16326910D01*
X16297287D02*
X16267664Y18213083D01*
X16238040D02*
X16208417D01*
X16223228D01*
Y18301955D01*
X16238040Y18287141D01*
X16163980D02*
X16149168Y18301955D01*
X16119545D01*
X16104733Y18287141D01*
Y18272331D01*
X16119545Y18257520D01*
X16134357D01*
X16119545D01*
X16104733Y18242706D01*
Y18227895D01*
X16119545Y18213083D01*
X16149168D01*
X16163980Y18227895D01*
X16075108Y18287141D02*
X16060297Y18301955D01*
X16030675D01*
X16015862Y18287141D01*
Y18272331D01*
X16030675Y18257520D01*
X16045485D01*
X16030675D01*
X16015862Y18242706D01*
Y18227895D01*
X16030675Y18213083D01*
X16060297D01*
X16075108Y18227895D01*
X16630624Y18785135D02*
X16541754D01*
Y18740700D01*
X16556566Y18725888D01*
X16586189D01*
X16601003Y18740700D01*
Y18785135D01*
Y18755511D02*
X16630624Y18725888D01*
Y18696265D02*
Y18666640D01*
Y18681451D01*
X16541754D01*
X16556566Y18696265D01*
X16630624Y18562956D02*
Y18622205D01*
X16571378Y18562956D01*
X16556566D01*
X16541754Y18577769D01*
Y18607393D01*
X16556566Y18622205D01*
Y18533333D02*
X16541754Y18518523D01*
Y18488898D01*
X16556566Y18474086D01*
X16571378D01*
X16586189Y18488898D01*
X16601003Y18474086D01*
X16615814D01*
X16630624Y18488898D01*
Y18518523D01*
X16615814Y18533333D01*
X16601003D01*
X16586189Y18518523D01*
X16571378Y18533333D01*
X16556566D01*
X16586189Y18518523D02*
Y18488898D01*
X16327496Y17731340D02*
Y17820210D01*
X16283060D01*
X16268248Y17805399D01*
Y17775775D01*
X16283060Y17760963D01*
X16327496D01*
X16297871D02*
X16268248Y17731340D01*
X16238625D02*
X16209001D01*
X16223813D01*
Y17820210D01*
X16238625Y17805399D01*
X16105318Y17731340D02*
X16164565D01*
X16105318Y17790587D01*
Y17805399D01*
X16120129Y17820210D01*
X16149754D01*
X16164565Y17805399D01*
X16075694Y17820210D02*
X16016447D01*
Y17805399D01*
X16075694Y17746152D01*
Y17731340D01*
X16289484Y18765218D02*
X16200612D01*
Y18720782D01*
X16215424Y18705971D01*
X16245049D01*
X16259859Y18720782D01*
Y18765218D01*
Y18735594D02*
X16289484Y18705971D01*
Y18676347D02*
Y18646722D01*
Y18661536D01*
X16200612D01*
X16215424Y18676347D01*
X16289484Y18543040D02*
Y18602287D01*
X16230235Y18543040D01*
X16215424D01*
X16200612Y18557852D01*
Y18587476D01*
X16215424Y18602287D01*
X16200612Y18454169D02*
X16215424Y18483794D01*
X16245049Y18513416D01*
X16274670D01*
X16289484Y18498605D01*
Y18468980D01*
X16274670Y18454169D01*
X16259859D01*
X16245049Y18468980D01*
Y18513416D01*
X16329378Y17615089D02*
Y17703963D01*
X16284941D01*
X16270129Y17689149D01*
Y17659526D01*
X16284941Y17644714D01*
X16329378D01*
X16299753D02*
X16270129Y17615089D01*
X16240504D02*
X16210883D01*
X16225694D01*
Y17703963D01*
X16240504Y17689149D01*
X16107199Y17615089D02*
X16166446D01*
X16107199Y17674338D01*
Y17689149D01*
X16122011Y17703963D01*
X16151634D01*
X16166446Y17689149D01*
X16018327Y17703963D02*
X16077576D01*
Y17659526D01*
X16047951Y17674338D01*
X16033139D01*
X16018327Y17659526D01*
Y17629903D01*
X16033139Y17615089D01*
X16062762D01*
X16077576Y17629903D01*
X16289995Y17387294D02*
X16201125D01*
Y17342857D01*
X16215936Y17328046D01*
X16245560D01*
X16260371Y17342857D01*
Y17387294D01*
Y17357671D02*
X16289995Y17328046D01*
Y17298422D02*
Y17268799D01*
Y17283611D01*
X16201125D01*
X16215936Y17298422D01*
X16289995Y17224364D02*
Y17194740D01*
Y17209552D01*
X16201125D01*
X16215936Y17224364D01*
X16275183Y17150304D02*
X16289995Y17135492D01*
Y17105869D01*
X16275183Y17091055D01*
X16215936D01*
X16201125Y17105869D01*
Y17135492D01*
X16215936Y17150304D01*
X16230746D01*
X16245560Y17135492D01*
Y17091055D01*
X16608009Y17399641D02*
X16519138D01*
Y17355206D01*
X16533949Y17340395D01*
X16563574D01*
X16578384Y17355206D01*
Y17399641D01*
Y17370016D02*
X16608009Y17340395D01*
Y17310770D02*
Y17281146D01*
Y17295958D01*
X16519138D01*
X16533949Y17310770D01*
X16608009Y17236711D02*
Y17207088D01*
Y17221899D01*
X16519138D01*
X16533949Y17236711D01*
X16519138Y17162651D02*
Y17103404D01*
X16533949D01*
X16593198Y17162651D01*
X16608009D01*
X16809364Y18805544D02*
X16720494D01*
Y18849979D01*
X16735306Y18864790D01*
X16764931D01*
X16779741Y18849979D01*
Y18805544D01*
Y18835167D02*
X16809364Y18864790D01*
Y18894414D02*
Y18924039D01*
Y18909225D01*
X16720494D01*
X16735306Y18894414D01*
X16809364Y18968472D02*
Y18998097D01*
Y18983286D01*
X16720494D01*
X16735306Y18968472D01*
X16809364Y19042532D02*
Y19072156D01*
Y19057344D01*
X16720494D01*
X16735306Y19042532D01*
X17151337Y18805360D02*
X17062463D01*
Y18849797D01*
X17077277Y18864609D01*
X17106900D01*
X17121712Y18849797D01*
Y18805360D01*
Y18834985D02*
X17151337Y18864609D01*
Y18894234D02*
Y18923856D01*
Y18909044D01*
X17062463D01*
X17077277Y18894234D01*
X17151337Y18968292D02*
Y18997916D01*
Y18983104D01*
X17062463D01*
X17077277Y18968292D01*
Y19042351D02*
X17062463Y19057162D01*
Y19086787D01*
X17077277Y19101599D01*
X17136523D01*
X17151337Y19086787D01*
Y19057162D01*
X17136523Y19042351D01*
X17077277D01*
X16856696Y17297984D02*
X16767824D01*
Y17253549D01*
X16782635Y17238737D01*
X16812260D01*
X16827072Y17253549D01*
Y17297984D01*
Y17268361D02*
X16856696Y17238737D01*
Y17209113D02*
Y17179491D01*
Y17194302D01*
X16767824D01*
X16782635Y17209113D01*
Y17135054D02*
X16767824Y17120242D01*
Y17090619D01*
X16782635Y17075807D01*
X16841884D01*
X16856696Y17090619D01*
Y17120242D01*
X16841884Y17135054D01*
X16782635D01*
X16856696Y16986935D02*
Y17046182D01*
X16797449Y16986935D01*
X16782635D01*
X16767824Y17001747D01*
Y17031371D01*
X16782635Y17046182D01*
X14453371Y5099064D02*
Y5187936D01*
X14408936D01*
X14394122Y5173124D01*
Y5143500D01*
X14408936Y5128688D01*
X14453371D01*
X14423746D02*
X14394122Y5099064D01*
X14364499Y5173124D02*
X14349687Y5187936D01*
X14320062D01*
X14305251Y5173124D01*
Y5158312D01*
X14320062Y5143500D01*
X14305251Y5128688D01*
Y5113876D01*
X14320062Y5099064D01*
X14349687D01*
X14364499Y5113876D01*
Y5128688D01*
X14349687Y5143500D01*
X14364499Y5158312D01*
Y5173124D01*
X14349687Y5143500D02*
X14320062D01*
X14275629Y5173124D02*
X14260815Y5187936D01*
X14231192D01*
X14216380Y5173124D01*
Y5113876D01*
X14231192Y5099064D01*
X14260815D01*
X14275629Y5113876D01*
Y5173124D01*
X17673320Y3992880D02*
Y4081751D01*
X17628883D01*
X17614072Y4066939D01*
Y4037316D01*
X17628883Y4022504D01*
X17673320D01*
X17643697D02*
X17614072Y3992880D01*
X17584448Y4081751D02*
X17525201D01*
Y4066939D01*
X17584448Y4007692D01*
Y3992880D01*
X17495576Y4081751D02*
X17436330D01*
Y4066939D01*
X17495576Y4007692D01*
Y3992880D01*
X16976262Y3729264D02*
Y3640392D01*
X17020699D01*
X17035510Y3655204D01*
Y3684828D01*
X17020699Y3699640D01*
X16976262D01*
X17005885D02*
X17035510Y3729264D01*
X17065134Y3640392D02*
X17124380D01*
Y3655204D01*
X17065134Y3714452D01*
Y3729264D01*
X17213252Y3640392D02*
X17183629Y3655204D01*
X17154005Y3684828D01*
Y3714452D01*
X17168817Y3729264D01*
X17198441D01*
X17213252Y3714452D01*
Y3699640D01*
X17198441Y3684828D01*
X17154005D01*
X10303600Y13443040D02*
Y13531911D01*
X10259165D01*
X10244353Y13517099D01*
Y13487476D01*
X10259165Y13472664D01*
X10303600D01*
X10273976D02*
X10244353Y13443040D01*
X10155481Y13531911D02*
X10185105Y13517099D01*
X10214729Y13487476D01*
Y13457852D01*
X10199917Y13443040D01*
X10170293D01*
X10155481Y13457852D01*
Y13472664D01*
X10170293Y13487476D01*
X10214729D01*
X10125858Y13443040D02*
X10096234D01*
X10111046D01*
Y13531911D01*
X10125858Y13517099D01*
X9173641Y9746047D02*
Y9834918D01*
X9129205D01*
X9114393Y9820106D01*
Y9790482D01*
X9129205Y9775671D01*
X9173641D01*
X9144017D02*
X9114393Y9746047D01*
X9040334D02*
Y9834918D01*
X9084769Y9790482D01*
X9025522D01*
X8995898Y9820106D02*
X8981086Y9834918D01*
X8951463D01*
X8936651Y9820106D01*
Y9805294D01*
X8951463Y9790482D01*
X8936651Y9775671D01*
Y9760859D01*
X8951463Y9746047D01*
X8981086D01*
X8995898Y9760859D01*
Y9775671D01*
X8981086Y9790482D01*
X8995898Y9805294D01*
Y9820106D01*
X8981086Y9790482D02*
X8951463D01*
X9846577Y9851877D02*
X9935449D01*
Y9896312D01*
X9920637Y9911124D01*
X9891013D01*
X9876201Y9896312D01*
Y9851877D01*
Y9881500D02*
X9846577Y9911124D01*
Y9985183D02*
X9935449D01*
X9891013Y9940748D01*
Y9999995D01*
X9935449Y10029619D02*
Y10088867D01*
X9920637D01*
X9861389Y10029619D01*
X9846577D01*
X10007327Y10254048D02*
Y10342919D01*
X9962891D01*
X9948079Y10328107D01*
Y10298484D01*
X9962891Y10283672D01*
X10007327D01*
X9977703D02*
X9948079Y10254048D01*
X9874020D02*
Y10342919D01*
X9918456Y10298484D01*
X9859208D01*
X9770337Y10342919D02*
X9799961Y10328107D01*
X9829584Y10298484D01*
Y10268860D01*
X9814773Y10254048D01*
X9785149D01*
X9770337Y10268860D01*
Y10283672D01*
X9785149Y10298484D01*
X9829584D01*
X11181896Y9951787D02*
Y10040658D01*
X11137460D01*
X11122648Y10025846D01*
Y9996222D01*
X11137460Y9981411D01*
X11181896D01*
X11152272D02*
X11122648Y9951787D01*
X11048589D02*
Y10040658D01*
X11093025Y9996222D01*
X11033777D01*
X10944906Y9951787D02*
X11004153D01*
X10944906Y10011034D01*
Y10025846D01*
X10959718Y10040658D01*
X10989341D01*
X11004153Y10025846D01*
X10903038Y9889586D02*
Y9978457D01*
X10858603D01*
X10843791Y9963645D01*
Y9934022D01*
X10858603Y9919210D01*
X10903038D01*
X10873414D02*
X10843791Y9889586D01*
X10769731D02*
Y9978457D01*
X10814167Y9934022D01*
X10754919D01*
X10725296Y9889586D02*
X10695672D01*
X10710484D01*
Y9978457D01*
X10725296Y9963645D01*
X5722913Y9488251D02*
Y9577122D01*
X5678477D01*
X5663665Y9562310D01*
Y9532687D01*
X5678477Y9517875D01*
X5722913D01*
X5693289D02*
X5663665Y9488251D01*
X5634041Y9562310D02*
X5619230Y9577122D01*
X5589606D01*
X5574794Y9562310D01*
Y9547499D01*
X5589606Y9532687D01*
X5604418D01*
X5589606D01*
X5574794Y9517875D01*
Y9503063D01*
X5589606Y9488251D01*
X5619230D01*
X5634041Y9503063D01*
X5545170D02*
X5530358Y9488251D01*
X5500734D01*
X5485922Y9503063D01*
Y9562310D01*
X5500734Y9577122D01*
X5530358D01*
X5545170Y9562310D01*
Y9547499D01*
X5530358Y9532687D01*
X5485922D01*
X8893909Y17094606D02*
Y17183476D01*
X8849473D01*
X8834661Y17168665D01*
Y17139041D01*
X8849473Y17124229D01*
X8893909D01*
X8864285D02*
X8834661Y17094606D01*
X8805037D02*
X8775413D01*
X8790225D01*
Y17183476D01*
X8805037Y17168665D01*
X8730978Y17183476D02*
X8671730D01*
Y17168665D01*
X8730978Y17109418D01*
Y17094606D01*
X8246200Y17367340D02*
Y17456210D01*
X8201765D01*
X8186953Y17441399D01*
Y17411777D01*
X8201765Y17396964D01*
X8246200D01*
X8216576D02*
X8186953Y17367340D01*
X8157329D02*
X8127705D01*
X8142517D01*
Y17456210D01*
X8157329Y17441399D01*
X8024022Y17456210D02*
X8053646Y17441399D01*
X8083270Y17411777D01*
Y17382152D01*
X8068458Y17367340D01*
X8038834D01*
X8024022Y17382152D01*
Y17396964D01*
X8038834Y17411777D01*
X8083270D01*
X16733521Y10802649D02*
Y10891520D01*
X16689084D01*
X16674272Y10876708D01*
Y10847084D01*
X16689084Y10832272D01*
X16733521D01*
X16703896D02*
X16674272Y10802649D01*
X16585400Y10891520D02*
X16644649D01*
Y10847084D01*
X16615025Y10861896D01*
X16600214D01*
X16585400Y10847084D01*
Y10817460D01*
X16600214Y10802649D01*
X16629837D01*
X16644649Y10817460D01*
X17048480Y10558780D02*
X17137350D01*
Y10603216D01*
X17122539Y10618028D01*
X17092915D01*
X17078104Y10603216D01*
Y10558780D01*
Y10588404D02*
X17048480Y10618028D01*
Y10692087D02*
X17137350D01*
X17092915Y10647651D01*
Y10706899D01*
X14653761Y12492534D02*
X14742633D01*
Y12536970D01*
X14727821Y12551782D01*
X14698198D01*
X14683386Y12536970D01*
Y12492534D01*
Y12522158D02*
X14653761Y12551782D01*
X14727821Y12581405D02*
X14742633Y12596217D01*
Y12625841D01*
X14727821Y12640653D01*
X14713010D01*
X14698198Y12625841D01*
Y12611029D01*
Y12625841D01*
X14683386Y12640653D01*
X14668575D01*
X14653761Y12625841D01*
Y12596217D01*
X14668575Y12581405D01*
X17048480Y10927080D02*
X17137350D01*
Y10971516D01*
X17122539Y10986328D01*
X17092915D01*
X17078104Y10971516D01*
Y10927080D01*
Y10956704D02*
X17048480Y10986328D01*
Y11075199D02*
Y11015951D01*
X17107729Y11075199D01*
X17122539D01*
X17137350Y11060387D01*
Y11030763D01*
X17122539Y11015951D01*
X16935464Y11320780D02*
X17024336D01*
Y11365216D01*
X17009525Y11380028D01*
X16979900D01*
X16965088Y11365216D01*
Y11320780D01*
Y11350404D02*
X16935464Y11380028D01*
Y11409651D02*
Y11439275D01*
Y11424463D01*
X17024336D01*
X17009525Y11409651D01*
X15053336Y9640569D02*
X15068147Y9655381D01*
X15097771D01*
X15112582Y9640569D01*
Y9581321D01*
X15097771Y9566509D01*
X15068147D01*
X15053336Y9581321D01*
X14964464Y9566509D02*
X15023712D01*
X14964464Y9625757D01*
Y9640569D01*
X14979276Y9655381D01*
X15008900D01*
X15023712Y9640569D01*
X14934840Y9581321D02*
X14920029Y9566509D01*
X14890405D01*
X14875594Y9581321D01*
Y9640569D01*
X14890405Y9655381D01*
X14920029D01*
X14934840Y9640569D01*
Y9625757D01*
X14920029Y9610945D01*
X14875594D01*
X14786722Y9566509D02*
X14845969D01*
X14786722Y9625757D01*
Y9640569D01*
X14801534Y9655381D01*
X14831158D01*
X14845969Y9640569D01*
X15131313Y16765759D02*
X15146124Y16780571D01*
X15175748D01*
X15190559Y16765759D01*
Y16706512D01*
X15175748Y16691701D01*
X15146124D01*
X15131313Y16706512D01*
X15042441Y16691701D02*
X15101689D01*
X15042441Y16750948D01*
Y16765759D01*
X15057253Y16780571D01*
X15086877D01*
X15101689Y16765759D01*
X15012817D02*
X14998006Y16780571D01*
X14968382D01*
X14953571Y16765759D01*
Y16750948D01*
X14968382Y16736136D01*
X14953571Y16721324D01*
Y16706512D01*
X14968382Y16691701D01*
X14998006D01*
X15012817Y16706512D01*
Y16721324D01*
X14998006Y16736136D01*
X15012817Y16750948D01*
Y16765759D01*
X14998006Y16736136D02*
X14968382D01*
X14923946Y16765759D02*
X14909135Y16780571D01*
X14879510D01*
X14864699Y16765759D01*
Y16706512D01*
X14879510Y16691701D01*
X14909135D01*
X14923946Y16706512D01*
Y16765759D01*
X15453893Y16491438D02*
X15468706Y16506252D01*
X15498328D01*
X15513139Y16491438D01*
Y16432191D01*
X15498328Y16417380D01*
X15468706D01*
X15453893Y16432191D01*
X15365021Y16417380D02*
X15424269D01*
X15365021Y16476628D01*
Y16491438D01*
X15379832Y16506252D01*
X15409457D01*
X15424269Y16491438D01*
X15335397Y16506252D02*
X15276151D01*
Y16491438D01*
X15335397Y16432191D01*
Y16417380D01*
X15246526Y16432191D02*
X15231715Y16417380D01*
X15202090D01*
X15187279Y16432191D01*
Y16491438D01*
X15202090Y16506252D01*
X15231715D01*
X15246526Y16491438D01*
Y16476628D01*
X15231715Y16461816D01*
X15187279D01*
X16324448Y15231442D02*
X16339259Y15246254D01*
X16368884D01*
X16383696Y15231442D01*
Y15172195D01*
X16368884Y15157384D01*
X16339259D01*
X16324448Y15172195D01*
X16235577Y15157384D02*
X16294824D01*
X16235577Y15216631D01*
Y15231442D01*
X16250389Y15246254D01*
X16280013D01*
X16294824Y15231442D01*
X16146706Y15246254D02*
X16176329Y15231442D01*
X16205952Y15201819D01*
Y15172195D01*
X16191141Y15157384D01*
X16161517D01*
X16146706Y15172195D01*
Y15187007D01*
X16161517Y15201819D01*
X16205952D01*
X16117082Y15231442D02*
X16102271Y15246254D01*
X16072646D01*
X16057834Y15231442D01*
Y15172195D01*
X16072646Y15157384D01*
X16102271D01*
X16117082Y15172195D01*
Y15231442D01*
X16264153Y16402539D02*
X16278966Y16417351D01*
X16308588D01*
X16323399Y16402539D01*
Y16343292D01*
X16308588Y16328481D01*
X16278966D01*
X16264153Y16343292D01*
X16175281Y16328481D02*
X16234529D01*
X16175281Y16387727D01*
Y16402539D01*
X16190092Y16417351D01*
X16219717D01*
X16234529Y16402539D01*
X16086411Y16417351D02*
X16145657D01*
Y16372916D01*
X16116034Y16387727D01*
X16101222D01*
X16086411Y16372916D01*
Y16343292D01*
X16101222Y16328481D01*
X16130846D01*
X16145657Y16343292D01*
X15997539Y16417351D02*
X16027164Y16402539D01*
X16056786Y16372916D01*
Y16343292D01*
X16041975Y16328481D01*
X16012350D01*
X15997539Y16343292D01*
Y16358104D01*
X16012350Y16372916D01*
X16056786D01*
X16863916Y15572282D02*
X16849104Y15587096D01*
Y15616719D01*
X16863916Y15631531D01*
X16923164D01*
X16937976Y15616719D01*
Y15587096D01*
X16923164Y15572282D01*
X16937976Y15483412D02*
Y15542659D01*
X16878728Y15483412D01*
X16863916D01*
X16849104Y15498224D01*
Y15527847D01*
X16863916Y15542659D01*
X16849104Y15394540D02*
Y15453789D01*
X16893539D01*
X16878728Y15424164D01*
Y15409352D01*
X16893539Y15394540D01*
X16923164D01*
X16937976Y15409352D01*
Y15438976D01*
X16923164Y15453789D01*
X16863916Y15364917D02*
X16849104Y15350105D01*
Y15320480D01*
X16863916Y15305669D01*
X16878728D01*
X16893539Y15320480D01*
Y15335294D01*
Y15320480D01*
X16908353Y15305669D01*
X16923164D01*
X16937976Y15320480D01*
Y15350105D01*
X16923164Y15364917D01*
X16485455Y16080283D02*
X16470644Y16095094D01*
Y16124719D01*
X16485455Y16139531D01*
X16544704D01*
X16559515Y16124719D01*
Y16095094D01*
X16544704Y16080283D01*
X16559515Y15991412D02*
Y16050659D01*
X16500269Y15991412D01*
X16485455D01*
X16470644Y16006224D01*
Y16035847D01*
X16485455Y16050659D01*
X16470644Y15902541D02*
Y15961787D01*
X16515080D01*
X16500269Y15932164D01*
Y15917352D01*
X16515080Y15902541D01*
X16544704D01*
X16559515Y15917352D01*
Y15946976D01*
X16544704Y15961787D01*
X16559515Y15813669D02*
Y15872917D01*
X16500269Y15813669D01*
X16485455D01*
X16470644Y15828481D01*
Y15858105D01*
X16485455Y15872917D01*
X16486894Y15505792D02*
X16472083Y15520604D01*
Y15550227D01*
X16486894Y15565041D01*
X16546141D01*
X16560953Y15550227D01*
Y15520604D01*
X16546141Y15505792D01*
X16560953Y15416920D02*
Y15476167D01*
X16501704Y15416920D01*
X16486894D01*
X16472083Y15431734D01*
Y15461357D01*
X16486894Y15476167D01*
X16472083Y15328050D02*
Y15387297D01*
X16516518D01*
X16501704Y15357674D01*
Y15342862D01*
X16516518Y15328050D01*
X16546141D01*
X16560953Y15342862D01*
Y15372485D01*
X16546141Y15387297D01*
X16560953Y15298425D02*
Y15268802D01*
Y15283614D01*
X16472083D01*
X16486894Y15298425D01*
X15553871Y17977867D02*
X15568683Y17992679D01*
X15598306D01*
X15613120Y17977867D01*
Y17918619D01*
X15598306Y17903807D01*
X15568683D01*
X15553871Y17918619D01*
X15464999Y17903807D02*
X15524248D01*
X15464999Y17963055D01*
Y17977867D01*
X15479813Y17992679D01*
X15509436D01*
X15524248Y17977867D01*
X15390941Y17903807D02*
Y17992679D01*
X15435376Y17948244D01*
X15376129D01*
X15287257Y17903807D02*
X15346506D01*
X15287257Y17963055D01*
Y17977867D01*
X15302069Y17992679D01*
X15331693D01*
X15346506Y17977867D01*
X15715012Y18287798D02*
X15729823Y18302609D01*
X15759447D01*
X15774258Y18287798D01*
Y18228549D01*
X15759447Y18213737D01*
X15729823D01*
X15715012Y18228549D01*
X15626140Y18213737D02*
X15685387D01*
X15626140Y18272984D01*
Y18287798D01*
X15640952Y18302609D01*
X15670575D01*
X15685387Y18287798D01*
X15552080Y18213737D02*
Y18302609D01*
X15596516Y18258173D01*
X15537268D01*
X15507645Y18213737D02*
X15478021D01*
X15492833D01*
Y18302609D01*
X15507645Y18287798D01*
X15720741Y17648900D02*
X15735553Y17663712D01*
X15765176D01*
X15779990Y17648900D01*
Y17589653D01*
X15765176Y17574841D01*
X15735553D01*
X15720741Y17589653D01*
X15631870Y17574841D02*
X15691116D01*
X15631870Y17634088D01*
Y17648900D01*
X15646683Y17663712D01*
X15676305D01*
X15691116Y17648900D01*
X15602246D02*
X15587434Y17663712D01*
X15557809D01*
X15542998Y17648900D01*
Y17634088D01*
X15557809Y17619276D01*
X15572623D01*
X15557809D01*
X15542998Y17604465D01*
Y17589653D01*
X15557809Y17574841D01*
X15587434D01*
X15602246Y17589653D01*
X15513374Y17663712D02*
X15454128D01*
Y17648900D01*
X15513374Y17589653D01*
Y17574841D01*
X18641592Y18777438D02*
X18656406Y18792252D01*
X18686028D01*
X18700841Y18777438D01*
Y18718192D01*
X18686028Y18703380D01*
X18656406D01*
X18641592Y18718192D01*
X18552721Y18703380D02*
X18611969D01*
X18552721Y18762628D01*
Y18777438D01*
X18567532Y18792252D01*
X18597157D01*
X18611969Y18777438D01*
X18523099D02*
X18508286Y18792252D01*
X18478662D01*
X18463850Y18777438D01*
Y18762628D01*
X18478662Y18747816D01*
X18493474D01*
X18478662D01*
X18463850Y18733005D01*
Y18718192D01*
X18478662Y18703380D01*
X18508286D01*
X18523099Y18718192D01*
X18389790Y18703380D02*
Y18792252D01*
X18434225Y18747816D01*
X18374979D01*
X16373991Y16894951D02*
X16359180Y16909763D01*
Y16939388D01*
X16373991Y16954199D01*
X16433240D01*
X16448050Y16939388D01*
Y16909763D01*
X16433240Y16894951D01*
X16448050Y16806081D02*
Y16865327D01*
X16388803Y16806081D01*
X16373991D01*
X16359180Y16820892D01*
Y16850516D01*
X16373991Y16865327D01*
X16448050Y16717209D02*
Y16776456D01*
X16388803Y16717209D01*
X16373991D01*
X16359180Y16732021D01*
Y16761644D01*
X16373991Y16776456D01*
X16359180Y16687585D02*
Y16628337D01*
X16373991D01*
X16433240Y16687585D01*
X16448050D01*
X16902016Y19246037D02*
X16887204Y19231226D01*
Y19201601D01*
X16902016Y19186789D01*
X16961264D01*
X16976076Y19201601D01*
Y19231226D01*
X16961264Y19246037D01*
X16976076Y19334908D02*
Y19275661D01*
X16916827Y19334908D01*
X16902016D01*
X16887204Y19320096D01*
Y19290472D01*
X16902016Y19275661D01*
X16976076Y19423779D02*
Y19364532D01*
X16916827Y19423779D01*
X16902016D01*
X16887204Y19408968D01*
Y19379344D01*
X16902016Y19364532D01*
X16887204Y19512651D02*
X16902016Y19483028D01*
X16931641Y19453403D01*
X16961264D01*
X16976076Y19468214D01*
Y19497839D01*
X16961264Y19512651D01*
X16946452D01*
X16931641Y19497839D01*
Y19453403D01*
X17693182Y18000124D02*
X17707996Y18014935D01*
X17737619D01*
X17752431Y18000124D01*
Y17940875D01*
X17737619Y17926064D01*
X17707996D01*
X17693182Y17940875D01*
X17604312Y17926064D02*
X17663559D01*
X17604312Y17985312D01*
Y18000124D01*
X17619124Y18014935D01*
X17648747D01*
X17663559Y18000124D01*
X17515440Y17926064D02*
X17574689D01*
X17515440Y17985312D01*
Y18000124D01*
X17530252Y18014935D01*
X17559875D01*
X17574689Y18000124D01*
X17441380Y17926064D02*
Y18014935D01*
X17485817Y17970500D01*
X17426569D01*
X16548927Y1432161D02*
X16534116Y1417349D01*
X16504491D01*
X16489679Y1432161D01*
Y1491408D01*
X16504491Y1506220D01*
X16534116D01*
X16548927Y1491408D01*
X16637798Y1506220D02*
X16578551D01*
X16637798Y1446972D01*
Y1432161D01*
X16622986Y1417349D01*
X16593362D01*
X16578551Y1432161D01*
X16667422Y1506220D02*
X16697046D01*
X16682234D01*
Y1417349D01*
X16667422Y1432161D01*
X16741481D02*
X16756293Y1417349D01*
X16785918D01*
X16800729Y1432161D01*
Y1491408D01*
X16785918Y1506220D01*
X16756293D01*
X16741481Y1491408D01*
Y1432161D01*
X15955424Y5677728D02*
X15970236Y5662916D01*
Y5633292D01*
X15955424Y5618480D01*
X15896176D01*
X15881364Y5633292D01*
Y5662916D01*
X15896176Y5677728D01*
X15881364Y5766599D02*
Y5707351D01*
X15940611Y5766599D01*
X15955424D01*
X15970236Y5751787D01*
Y5722163D01*
X15955424Y5707351D01*
Y5796223D02*
X15970236Y5811034D01*
Y5840658D01*
X15955424Y5855470D01*
X15896176D01*
X15881364Y5840658D01*
Y5811034D01*
X15896176Y5796223D01*
X15955424D01*
X15881364Y5944341D02*
Y5885094D01*
X15940611Y5944341D01*
X15955424D01*
X15970236Y5929529D01*
Y5899906D01*
X15955424Y5885094D01*
Y5131628D02*
X15970236Y5116816D01*
Y5087192D01*
X15955424Y5072380D01*
X15896176D01*
X15881364Y5087192D01*
Y5116816D01*
X15896176Y5131628D01*
X15881364Y5220499D02*
Y5161251D01*
X15940611Y5220499D01*
X15955424D01*
X15970236Y5205687D01*
Y5176063D01*
X15955424Y5161251D01*
Y5250123D02*
X15970236Y5264934D01*
Y5294558D01*
X15955424Y5309370D01*
X15896176D01*
X15881364Y5294558D01*
Y5264934D01*
X15896176Y5250123D01*
X15955424D01*
X15881364Y5338994D02*
Y5368618D01*
Y5353806D01*
X15970236D01*
X15955424Y5338994D01*
X13321474Y5522359D02*
X13336285Y5537171D01*
X13365910D01*
X13380721Y5522359D01*
Y5463112D01*
X13365910Y5448300D01*
X13336285D01*
X13321474Y5463112D01*
X13232602Y5448300D02*
X13291850D01*
X13232602Y5507548D01*
Y5522359D01*
X13247414Y5537171D01*
X13277039D01*
X13291850Y5522359D01*
X13202979D02*
X13188167Y5537171D01*
X13158543D01*
X13143732Y5522359D01*
Y5463112D01*
X13158543Y5448300D01*
X13188167D01*
X13202979Y5463112D01*
Y5522359D01*
X13114107D02*
X13099297Y5537171D01*
X13069672D01*
X13054860Y5522359D01*
Y5463112D01*
X13069672Y5448300D01*
X13099297D01*
X13114107Y5463112D01*
Y5522359D01*
X13756633Y5112613D02*
X13771445Y5127425D01*
X13801070D01*
X13815880Y5112613D01*
Y5053366D01*
X13801070Y5038554D01*
X13771445D01*
X13756633Y5053366D01*
X13727010Y5038554D02*
X13697385D01*
X13712196D01*
Y5127425D01*
X13727010Y5112613D01*
X13652950Y5053366D02*
X13638138Y5038554D01*
X13608514D01*
X13593703Y5053366D01*
Y5112613D01*
X13608514Y5127425D01*
X13638138D01*
X13652950Y5112613D01*
Y5097802D01*
X13638138Y5082990D01*
X13593703D01*
X13564079Y5053366D02*
X13549268Y5038554D01*
X13519643D01*
X13504831Y5053366D01*
Y5112613D01*
X13519643Y5127425D01*
X13549268D01*
X13564079Y5112613D01*
Y5097802D01*
X13549268Y5082990D01*
X13504831D01*
X14456824Y4175418D02*
X14471635Y4160606D01*
Y4130982D01*
X14456824Y4116171D01*
X14397575D01*
X14382764Y4130982D01*
Y4160606D01*
X14397575Y4175418D01*
X14382764Y4205042D02*
Y4234666D01*
Y4219854D01*
X14471635D01*
X14456824Y4205042D01*
X14397575Y4279101D02*
X14382764Y4293913D01*
Y4323537D01*
X14397575Y4338349D01*
X14456824D01*
X14471635Y4323537D01*
Y4293913D01*
X14456824Y4279101D01*
X14442012D01*
X14427200Y4293913D01*
Y4338349D01*
X14456824Y4367972D02*
X14471635Y4382784D01*
Y4412408D01*
X14456824Y4427220D01*
X14442012D01*
X14427200Y4412408D01*
X14412389Y4427220D01*
X14397575D01*
X14382764Y4412408D01*
Y4382784D01*
X14397575Y4367972D01*
X14412389D01*
X14427200Y4382784D01*
X14442012Y4367972D01*
X14456824D01*
X14427200Y4382784D02*
Y4412408D01*
X14583824Y4175418D02*
X14598636Y4160606D01*
Y4130982D01*
X14583824Y4116171D01*
X14524576D01*
X14509764Y4130982D01*
Y4160606D01*
X14524576Y4175418D01*
X14509764Y4205042D02*
Y4234666D01*
Y4219854D01*
X14598636D01*
X14583824Y4205042D01*
X14524576Y4279101D02*
X14509764Y4293913D01*
Y4323537D01*
X14524576Y4338349D01*
X14583824D01*
X14598636Y4323537D01*
Y4293913D01*
X14583824Y4279101D01*
X14569012D01*
X14554201Y4293913D01*
Y4338349D01*
X14598636Y4367972D02*
Y4427220D01*
X14583824D01*
X14524576Y4367972D01*
X14509764D01*
X14142477Y5032139D02*
X14157289Y5046951D01*
X14186913D01*
X14201724Y5032139D01*
Y4972892D01*
X14186913Y4958080D01*
X14157289D01*
X14142477Y4972892D01*
X14112852Y4958080D02*
X14083231D01*
X14098042D01*
Y5046951D01*
X14112852Y5032139D01*
X14038794Y4972892D02*
X14023982Y4958080D01*
X13994359D01*
X13979547Y4972892D01*
Y5032139D01*
X13994359Y5046951D01*
X14023982D01*
X14038794Y5032139D01*
Y5017328D01*
X14023982Y5002516D01*
X13979547D01*
X13890675Y5046951D02*
X13920299Y5032139D01*
X13949924Y5002516D01*
Y4972892D01*
X13935110Y4958080D01*
X13905487D01*
X13890675Y4972892D01*
Y4987704D01*
X13905487Y5002516D01*
X13949924D01*
X12240793Y13710139D02*
X12255605Y13724951D01*
X12285228D01*
X12300040Y13710139D01*
Y13650893D01*
X12285228Y13636079D01*
X12255605D01*
X12240793Y13650893D01*
X12211169Y13636079D02*
X12181545D01*
X12196357D01*
Y13724951D01*
X12211169Y13710139D01*
X12137110Y13650893D02*
X12122298Y13636079D01*
X12092674D01*
X12077862Y13650893D01*
Y13710139D01*
X12092674Y13724951D01*
X12122298D01*
X12137110Y13710139D01*
Y13695328D01*
X12122298Y13680516D01*
X12077862D01*
X12048238Y13710139D02*
X12033427Y13724951D01*
X12003803D01*
X11988991Y13710139D01*
Y13650893D01*
X12003803Y13636079D01*
X12033427D01*
X12048238Y13650893D01*
Y13710139D01*
X13697363Y13825462D02*
X13712177Y13810651D01*
Y13781027D01*
X13697363Y13766216D01*
X13638116D01*
X13623305Y13781027D01*
Y13810651D01*
X13638116Y13825462D01*
X13623305Y13855087D02*
Y13884711D01*
Y13869897D01*
X13712177D01*
X13697363Y13855087D01*
X13712177Y13929146D02*
Y13988393D01*
X13697363D01*
X13638116Y13929146D01*
X13623305D01*
X13638116Y14018018D02*
X13623305Y14032829D01*
Y14062453D01*
X13638116Y14077264D01*
X13697363D01*
X13712177Y14062453D01*
Y14032829D01*
X13697363Y14018018D01*
X13682552D01*
X13667740Y14032829D01*
Y14077264D01*
X11847544Y14277937D02*
X11832732Y14263126D01*
X11803108D01*
X11788296Y14277937D01*
Y14337186D01*
X11803108Y14351996D01*
X11832732D01*
X11847544Y14337186D01*
X11877168Y14351996D02*
X11906792D01*
X11891980D01*
Y14263126D01*
X11877168Y14277937D01*
X11951227Y14263126D02*
X12010475D01*
Y14277937D01*
X11951227Y14337186D01*
Y14351996D01*
X12040098Y14277937D02*
X12054910Y14263126D01*
X12084534D01*
X12099346Y14277937D01*
Y14292749D01*
X12084534Y14307561D01*
X12099346Y14322372D01*
Y14337186D01*
X12084534Y14351996D01*
X12054910D01*
X12040098Y14337186D01*
Y14322372D01*
X12054910Y14307561D01*
X12040098Y14292749D01*
Y14277937D01*
X12054910Y14307561D02*
X12084534D01*
X10935544Y11797910D02*
X10950356Y11783098D01*
Y11753474D01*
X10935544Y11738662D01*
X10876297D01*
X10861485Y11753474D01*
Y11783098D01*
X10876297Y11797910D01*
X10861485Y11827533D02*
Y11857157D01*
Y11842345D01*
X10950356D01*
X10935544Y11827533D01*
X10950356Y11960840D02*
X10935544Y11931216D01*
X10905921Y11901593D01*
X10876297D01*
X10861485Y11916404D01*
Y11946028D01*
X10876297Y11960840D01*
X10891109D01*
X10905921Y11946028D01*
Y11901593D01*
X10950356Y12049711D02*
X10935544Y12020088D01*
X10905921Y11990464D01*
X10876297D01*
X10861485Y12005276D01*
Y12034899D01*
X10876297Y12049711D01*
X10891109D01*
X10905921Y12034899D01*
Y11990464D01*
X9072238Y11566230D02*
X9087050Y11551418D01*
Y11521795D01*
X9072238Y11506983D01*
X9012990D01*
X8998178Y11521795D01*
Y11551418D01*
X9012990Y11566230D01*
X8998178Y11595854D02*
Y11625478D01*
Y11610666D01*
X9087050D01*
X9072238Y11595854D01*
X9087050Y11729161D02*
X9072238Y11699537D01*
X9042614Y11669913D01*
X9012990D01*
X8998178Y11684725D01*
Y11714349D01*
X9012990Y11729161D01*
X9027802D01*
X9042614Y11714349D01*
Y11669913D01*
X9087050Y11818032D02*
Y11758785D01*
X9042614D01*
X9057426Y11788408D01*
Y11803220D01*
X9042614Y11818032D01*
X9012990D01*
X8998178Y11803220D01*
Y11773596D01*
X9012990Y11758785D01*
X8853212Y11407767D02*
X8868024Y11392955D01*
Y11363331D01*
X8853212Y11348519D01*
X8793965D01*
X8779153Y11363331D01*
Y11392955D01*
X8793965Y11407767D01*
X8779153Y11437391D02*
Y11467014D01*
Y11452202D01*
X8868024D01*
X8853212Y11437391D01*
X8868024Y11570697D02*
X8853212Y11541074D01*
X8823589Y11511450D01*
X8793965D01*
X8779153Y11526262D01*
Y11555885D01*
X8793965Y11570697D01*
X8808777D01*
X8823589Y11555885D01*
Y11511450D01*
X8779153Y11644757D02*
X8868024D01*
X8823589Y11600321D01*
Y11659569D01*
X9317593Y10721806D02*
X9332405Y10736618D01*
X9362029D01*
X9376841Y10721806D01*
Y10662559D01*
X9362029Y10647747D01*
X9332405D01*
X9317593Y10662559D01*
X9287969Y10647747D02*
X9258346D01*
X9273158D01*
Y10736618D01*
X9287969Y10721806D01*
X9154663Y10736618D02*
X9184286Y10721806D01*
X9213910Y10692182D01*
Y10662559D01*
X9199098Y10647747D01*
X9169475D01*
X9154663Y10662559D01*
Y10677371D01*
X9169475Y10692182D01*
X9213910D01*
X9125039Y10721806D02*
X9110227Y10736618D01*
X9080603D01*
X9065791Y10721806D01*
Y10706994D01*
X9080603Y10692182D01*
X9095415D01*
X9080603D01*
X9065791Y10677371D01*
Y10662559D01*
X9080603Y10647747D01*
X9110227D01*
X9125039Y10662559D01*
X9241393Y10455106D02*
X9256205Y10469918D01*
X9285829D01*
X9300641Y10455106D01*
Y10395859D01*
X9285829Y10381047D01*
X9256205D01*
X9241393Y10395859D01*
X9211769Y10381047D02*
X9182146D01*
X9196958D01*
Y10469918D01*
X9211769Y10455106D01*
X9078463Y10469918D02*
X9108086Y10455106D01*
X9137710Y10425482D01*
Y10395859D01*
X9122898Y10381047D01*
X9093275D01*
X9078463Y10395859D01*
Y10410671D01*
X9093275Y10425482D01*
X9137710D01*
X8989591Y10381047D02*
X9048839D01*
X8989591Y10440294D01*
Y10455106D01*
X9004403Y10469918D01*
X9034027D01*
X9048839Y10455106D01*
X9020634Y9942945D02*
X9035446Y9928133D01*
Y9898509D01*
X9020634Y9883697D01*
X8961386D01*
X8946574Y9898509D01*
Y9928133D01*
X8961386Y9942945D01*
X8946574Y9972568D02*
Y10002192D01*
Y9987380D01*
X9035446D01*
X9020634Y9972568D01*
X9035446Y10105875D02*
X9020634Y10076251D01*
X8991010Y10046628D01*
X8961386D01*
X8946574Y10061439D01*
Y10091063D01*
X8961386Y10105875D01*
X8976198D01*
X8991010Y10091063D01*
Y10046628D01*
X8946574Y10135499D02*
Y10165123D01*
Y10150311D01*
X9035446D01*
X9020634Y10135499D01*
X10144837Y15855708D02*
X10159649Y15870520D01*
X10189273D01*
X10204085Y15855708D01*
Y15796461D01*
X10189273Y15781648D01*
X10159649D01*
X10144837Y15796461D01*
X10115213Y15781648D02*
X10085590D01*
X10100402D01*
Y15870520D01*
X10115213Y15855708D01*
X9981907Y15870520D02*
X10041154D01*
Y15826085D01*
X10011530Y15840897D01*
X9996719D01*
X9981907Y15826085D01*
Y15796461D01*
X9996719Y15781648D01*
X10026342D01*
X10041154Y15796461D01*
X9893035Y15870520D02*
X9952283D01*
Y15826085D01*
X9922659Y15840897D01*
X9907847D01*
X9893035Y15826085D01*
Y15796461D01*
X9907847Y15781648D01*
X9937471D01*
X9952283Y15796461D01*
X10386048Y9671959D02*
X10371236Y9657147D01*
X10341612D01*
X10326800Y9671959D01*
Y9731206D01*
X10341612Y9746018D01*
X10371236D01*
X10386048Y9731206D01*
X10415672Y9746018D02*
X10445295D01*
X10430483D01*
Y9657147D01*
X10415672Y9671959D01*
X10548978Y9657147D02*
X10489731D01*
Y9701582D01*
X10519355Y9686770D01*
X10534166D01*
X10548978Y9701582D01*
Y9731206D01*
X10534166Y9746018D01*
X10504543D01*
X10489731Y9731206D01*
X10578602Y9671959D02*
X10593414Y9657147D01*
X10623038D01*
X10637850Y9671959D01*
Y9686770D01*
X10623038Y9701582D01*
X10608226D01*
X10623038D01*
X10637850Y9716394D01*
Y9731206D01*
X10623038Y9746018D01*
X10593414D01*
X10578602Y9731206D01*
X10922444Y10515610D02*
X10937257Y10500798D01*
Y10471174D01*
X10922444Y10456362D01*
X10863197D01*
X10848385Y10471174D01*
Y10500798D01*
X10863197Y10515610D01*
X10848385Y10545234D02*
Y10574857D01*
Y10560045D01*
X10937257D01*
X10922444Y10545234D01*
X10937257Y10678540D02*
Y10619293D01*
X10892821D01*
X10907633Y10648917D01*
Y10663728D01*
X10892821Y10678540D01*
X10863197D01*
X10848385Y10663728D01*
Y10634105D01*
X10863197Y10619293D01*
X10848385Y10708164D02*
Y10737788D01*
Y10722976D01*
X10937257D01*
X10922444Y10708164D01*
X10498693Y10671006D02*
X10513505Y10685818D01*
X10543129D01*
X10557941Y10671006D01*
Y10611759D01*
X10543129Y10596947D01*
X10513505D01*
X10498693Y10611759D01*
X10469069Y10596947D02*
X10439446D01*
X10454258D01*
Y10685818D01*
X10469069Y10671006D01*
X10335763Y10685818D02*
X10395010D01*
Y10641382D01*
X10365386Y10656194D01*
X10350575D01*
X10335763Y10641382D01*
Y10611759D01*
X10350575Y10596947D01*
X10380198D01*
X10395010Y10611759D01*
X10306139Y10671006D02*
X10291327Y10685818D01*
X10261703D01*
X10246891Y10671006D01*
Y10611759D01*
X10261703Y10596947D01*
X10291327D01*
X10306139Y10611759D01*
Y10671006D01*
X9914493Y11814006D02*
X9929305Y11828818D01*
X9958929D01*
X9973741Y11814006D01*
Y11754759D01*
X9958929Y11739947D01*
X9929305D01*
X9914493Y11754759D01*
X9884869Y11739947D02*
X9855246D01*
X9870058D01*
Y11828818D01*
X9884869Y11814006D01*
X9766375Y11739947D02*
Y11828818D01*
X9810810Y11784382D01*
X9751563D01*
X9721939Y11814006D02*
X9707127Y11828818D01*
X9677503D01*
X9662691Y11814006D01*
Y11799194D01*
X9677503Y11784382D01*
X9662691Y11769571D01*
Y11754759D01*
X9677503Y11739947D01*
X9707127D01*
X9721939Y11754759D01*
Y11769571D01*
X9707127Y11784382D01*
X9721939Y11799194D01*
Y11814006D01*
X9707127Y11784382D02*
X9677503D01*
X9914493Y12220406D02*
X9929305Y12235218D01*
X9958929D01*
X9973741Y12220406D01*
Y12161159D01*
X9958929Y12146347D01*
X9929305D01*
X9914493Y12161159D01*
X9884869Y12146347D02*
X9855246D01*
X9870058D01*
Y12235218D01*
X9884869Y12220406D01*
X9766375Y12146347D02*
Y12235218D01*
X9810810Y12190782D01*
X9751563D01*
X9721939Y12235218D02*
X9662691D01*
Y12220406D01*
X9721939Y12161159D01*
Y12146347D01*
X10540503Y11026606D02*
X10555315Y11041418D01*
X10584938D01*
X10599750Y11026606D01*
Y10967359D01*
X10584938Y10952547D01*
X10555315D01*
X10540503Y10967359D01*
X10510879Y10952547D02*
X10481255D01*
X10496067D01*
Y11041418D01*
X10510879Y11026606D01*
X10436820D02*
X10422008Y11041418D01*
X10392384D01*
X10377572Y11026606D01*
Y11011794D01*
X10392384Y10996982D01*
X10407196D01*
X10392384D01*
X10377572Y10982171D01*
Y10967359D01*
X10392384Y10952547D01*
X10422008D01*
X10436820Y10967359D01*
X10347948D02*
X10333137Y10952547D01*
X10303513D01*
X10288701Y10967359D01*
Y11026606D01*
X10303513Y11041418D01*
X10333137D01*
X10347948Y11026606D01*
Y11011794D01*
X10333137Y10996982D01*
X10288701D01*
X9711293Y11026606D02*
X9726105Y11041418D01*
X9755729D01*
X9770541Y11026606D01*
Y10967359D01*
X9755729Y10952547D01*
X9726105D01*
X9711293Y10967359D01*
X9681669Y10952547D02*
X9652046D01*
X9666858D01*
Y11041418D01*
X9681669Y11026606D01*
X9607610D02*
X9592798Y11041418D01*
X9563175D01*
X9548363Y11026606D01*
Y11011794D01*
X9563175Y10996982D01*
X9577986D01*
X9563175D01*
X9548363Y10982171D01*
Y10967359D01*
X9563175Y10952547D01*
X9592798D01*
X9607610Y10967359D01*
X9518739Y11026606D02*
X9503927Y11041418D01*
X9474303D01*
X9459491Y11026606D01*
Y11011794D01*
X9474303Y10996982D01*
X9459491Y10982171D01*
Y10967359D01*
X9474303Y10952547D01*
X9503927D01*
X9518739Y10967359D01*
Y10982171D01*
X9503927Y10996982D01*
X9518739Y11011794D01*
Y11026606D01*
X9503927Y10996982D02*
X9474303D01*
X10125898Y10748490D02*
X10140710Y10763302D01*
X10170334D01*
X10185145Y10748490D01*
Y10689243D01*
X10170334Y10674431D01*
X10140710D01*
X10125898Y10689243D01*
X10096274Y10674431D02*
X10066650D01*
X10081462D01*
Y10763302D01*
X10096274Y10748490D01*
X10022215D02*
X10007403Y10763302D01*
X9977779D01*
X9962967Y10748490D01*
Y10733679D01*
X9977779Y10718867D01*
X9992591D01*
X9977779D01*
X9962967Y10704055D01*
Y10689243D01*
X9977779Y10674431D01*
X10007403D01*
X10022215Y10689243D01*
X9933344Y10763302D02*
X9874096D01*
Y10748490D01*
X9933344Y10689243D01*
Y10674431D01*
X9889093Y10569406D02*
X9903905Y10584218D01*
X9933529D01*
X9948341Y10569406D01*
Y10510159D01*
X9933529Y10495347D01*
X9903905D01*
X9889093Y10510159D01*
X9859469Y10495347D02*
X9829846D01*
X9844658D01*
Y10584218D01*
X9859469Y10569406D01*
X9785410D02*
X9770598Y10584218D01*
X9740975D01*
X9726163Y10569406D01*
Y10554594D01*
X9740975Y10539782D01*
X9755786D01*
X9740975D01*
X9726163Y10524971D01*
Y10510159D01*
X9740975Y10495347D01*
X9770598D01*
X9785410Y10510159D01*
X9637291Y10584218D02*
X9696539D01*
Y10539782D01*
X9666915Y10554594D01*
X9652103D01*
X9637291Y10539782D01*
Y10510159D01*
X9652103Y10495347D01*
X9681727D01*
X9696539Y10510159D01*
X9604722Y10249534D02*
X9619534Y10234722D01*
Y10205098D01*
X9604722Y10190286D01*
X9545475D01*
X9530663Y10205098D01*
Y10234722D01*
X9545475Y10249534D01*
X9530663Y10279157D02*
Y10308781D01*
Y10293969D01*
X9619534D01*
X9604722Y10279157D01*
Y10353217D02*
X9619534Y10368029D01*
Y10397652D01*
X9604722Y10412464D01*
X9589910D01*
X9575098Y10397652D01*
Y10382841D01*
Y10397652D01*
X9560287Y10412464D01*
X9545475D01*
X9530663Y10397652D01*
Y10368029D01*
X9545475Y10353217D01*
X9530663Y10486524D02*
X9619534D01*
X9575098Y10442088D01*
Y10501336D01*
X11137403Y11115506D02*
X11152215Y11130318D01*
X11181838D01*
X11196650Y11115506D01*
Y11056259D01*
X11181838Y11041447D01*
X11152215D01*
X11137403Y11056259D01*
X11107779Y11041447D02*
X11078155D01*
X11092967D01*
Y11130318D01*
X11107779Y11115506D01*
X11033720D02*
X11018908Y11130318D01*
X10989284D01*
X10974472Y11115506D01*
Y11100694D01*
X10989284Y11085882D01*
X11004096D01*
X10989284D01*
X10974472Y11071071D01*
Y11056259D01*
X10989284Y11041447D01*
X11018908D01*
X11033720Y11056259D01*
X10944848Y11115506D02*
X10930037Y11130318D01*
X10900413D01*
X10885601Y11115506D01*
Y11100694D01*
X10900413Y11085882D01*
X10915225D01*
X10900413D01*
X10885601Y11071071D01*
Y11056259D01*
X10900413Y11041447D01*
X10930037D01*
X10944848Y11056259D01*
X10386674Y10129527D02*
X10401486Y10144339D01*
X10431110D01*
X10445922Y10129527D01*
Y10070279D01*
X10431110Y10055467D01*
X10401486D01*
X10386674Y10070279D01*
X10357050Y10055467D02*
X10327427D01*
X10342239D01*
Y10144339D01*
X10357050Y10129527D01*
X10282991D02*
X10268179Y10144339D01*
X10238556D01*
X10223744Y10129527D01*
Y10114715D01*
X10238556Y10099903D01*
X10253367D01*
X10238556D01*
X10223744Y10085091D01*
Y10070279D01*
X10238556Y10055467D01*
X10268179D01*
X10282991Y10070279D01*
X10134872Y10055467D02*
X10194120D01*
X10134872Y10114715D01*
Y10129527D01*
X10149684Y10144339D01*
X10179308D01*
X10194120Y10129527D01*
X9952593Y11407606D02*
X9967405Y11422418D01*
X9997029D01*
X10011841Y11407606D01*
Y11348359D01*
X9997029Y11333547D01*
X9967405D01*
X9952593Y11348359D01*
X9922969Y11333547D02*
X9893346D01*
X9908158D01*
Y11422418D01*
X9922969Y11407606D01*
X9848910D02*
X9834098Y11422418D01*
X9804475D01*
X9789663Y11407606D01*
Y11392794D01*
X9804475Y11377982D01*
X9819286D01*
X9804475D01*
X9789663Y11363171D01*
Y11348359D01*
X9804475Y11333547D01*
X9834098D01*
X9848910Y11348359D01*
X9760039Y11333547D02*
X9730415D01*
X9745227D01*
Y11422418D01*
X9760039Y11407606D01*
X9438619Y11535966D02*
X9453431Y11521154D01*
Y11491530D01*
X9438619Y11476718D01*
X9379372D01*
X9364560Y11491530D01*
Y11521154D01*
X9379372Y11535966D01*
X9364560Y11565590D02*
Y11595213D01*
Y11580401D01*
X9453431D01*
X9438619Y11565590D01*
Y11639649D02*
X9453431Y11654461D01*
Y11684084D01*
X9438619Y11698896D01*
X9423808D01*
X9408996Y11684084D01*
Y11669273D01*
Y11684084D01*
X9394184Y11698896D01*
X9379372D01*
X9364560Y11684084D01*
Y11654461D01*
X9379372Y11639649D01*
X9438619Y11728520D02*
X9453431Y11743332D01*
Y11772956D01*
X9438619Y11787768D01*
X9379372D01*
X9364560Y11772956D01*
Y11743332D01*
X9379372Y11728520D01*
X9438619D01*
X9913022Y9365476D02*
X9927834Y9380288D01*
X9957458D01*
X9972270Y9365476D01*
Y9306228D01*
X9957458Y9291417D01*
X9927834D01*
X9913022Y9306228D01*
X9883399Y9291417D02*
X9853775D01*
X9868587D01*
Y9380288D01*
X9883399Y9365476D01*
X9750092Y9291417D02*
X9809339D01*
X9750092Y9350664D01*
Y9365476D01*
X9764904Y9380288D01*
X9794528D01*
X9809339Y9365476D01*
X9720468D02*
X9705656Y9380288D01*
X9676032D01*
X9661220Y9365476D01*
Y9350664D01*
X9676032Y9335852D01*
X9661220Y9321040D01*
Y9306228D01*
X9676032Y9291417D01*
X9705656D01*
X9720468Y9306228D01*
Y9321040D01*
X9705656Y9335852D01*
X9720468Y9350664D01*
Y9365476D01*
X9705656Y9335852D02*
X9676032D01*
X8129471Y9254462D02*
X8114659Y9239650D01*
X8085035D01*
X8070224Y9254462D01*
Y9313710D01*
X8085035Y9328522D01*
X8114659D01*
X8129471Y9313710D01*
X8159095Y9328522D02*
X8188719D01*
X8173907D01*
Y9239650D01*
X8159095Y9254462D01*
X8292402Y9328522D02*
X8233154D01*
X8292402Y9269274D01*
Y9254462D01*
X8277590Y9239650D01*
X8247966D01*
X8233154Y9254462D01*
X8366461Y9328522D02*
Y9239650D01*
X8322026Y9284086D01*
X8381273D01*
X3529671Y12442643D02*
X3544483Y12457455D01*
X3574107D01*
X3588919Y12442643D01*
Y12383395D01*
X3574107Y12368584D01*
X3544483D01*
X3529671Y12383395D01*
X3500047Y12368584D02*
X3470424D01*
X3485236D01*
Y12457455D01*
X3500047Y12442643D01*
X3425988Y12368584D02*
X3396364D01*
X3411176D01*
Y12457455D01*
X3425988Y12442643D01*
X3292681Y12457455D02*
X3322305Y12442643D01*
X3351929Y12413019D01*
Y12383395D01*
X3337117Y12368584D01*
X3307493D01*
X3292681Y12383395D01*
Y12398207D01*
X3307493Y12413019D01*
X3351929D01*
X3112373Y9281626D02*
X3127185Y9296438D01*
X3156809D01*
X3171621Y9281626D01*
Y9222379D01*
X3156809Y9207567D01*
X3127185D01*
X3112373Y9222379D01*
X3082749Y9207567D02*
X3053126D01*
X3067938D01*
Y9296438D01*
X3082749Y9281626D01*
X3008690D02*
X2993878Y9296438D01*
X2964255D01*
X2949443Y9281626D01*
Y9222379D01*
X2964255Y9207567D01*
X2993878D01*
X3008690Y9222379D01*
Y9281626D01*
X2860571Y9207567D02*
X2919819D01*
X2860571Y9266814D01*
Y9281626D01*
X2875383Y9296438D01*
X2905007D01*
X2919819Y9281626D01*
X3112373Y9408626D02*
X3127185Y9423438D01*
X3156809D01*
X3171621Y9408626D01*
Y9349379D01*
X3156809Y9334567D01*
X3127185D01*
X3112373Y9349379D01*
X3082749Y9334567D02*
X3053126D01*
X3067938D01*
Y9423438D01*
X3082749Y9408626D01*
X3008690D02*
X2993878Y9423438D01*
X2964255D01*
X2949443Y9408626D01*
Y9349379D01*
X2964255Y9334567D01*
X2993878D01*
X3008690Y9349379D01*
Y9408626D01*
X2919819Y9334567D02*
X2890195D01*
X2905007D01*
Y9423438D01*
X2919819Y9408626D01*
X3112373Y10043626D02*
X3127185Y10058438D01*
X3156809D01*
X3171621Y10043626D01*
Y9984379D01*
X3156809Y9969567D01*
X3127185D01*
X3112373Y9984379D01*
X3082749D02*
X3067938Y9969567D01*
X3038314D01*
X3023502Y9984379D01*
Y10043626D01*
X3038314Y10058438D01*
X3067938D01*
X3082749Y10043626D01*
Y10028814D01*
X3067938Y10014002D01*
X3023502D01*
X2993878Y9984379D02*
X2979066Y9969567D01*
X2949443D01*
X2934631Y9984379D01*
Y10043626D01*
X2949443Y10058438D01*
X2979066D01*
X2993878Y10043626D01*
Y10028814D01*
X2979066Y10014002D01*
X2934631D01*
X3112373Y10170626D02*
X3127185Y10185438D01*
X3156809D01*
X3171621Y10170626D01*
Y10111379D01*
X3156809Y10096567D01*
X3127185D01*
X3112373Y10111379D01*
X3082749D02*
X3067938Y10096567D01*
X3038314D01*
X3023502Y10111379D01*
Y10170626D01*
X3038314Y10185438D01*
X3067938D01*
X3082749Y10170626D01*
Y10155814D01*
X3067938Y10141002D01*
X3023502D01*
X2993878Y10170626D02*
X2979066Y10185438D01*
X2949443D01*
X2934631Y10170626D01*
Y10155814D01*
X2949443Y10141002D01*
X2934631Y10126191D01*
Y10111379D01*
X2949443Y10096567D01*
X2979066D01*
X2993878Y10111379D01*
Y10126191D01*
X2979066Y10141002D01*
X2993878Y10155814D01*
Y10170626D01*
X2979066Y10141002D02*
X2949443D01*
X3112373Y10297626D02*
X3127185Y10312438D01*
X3156809D01*
X3171621Y10297626D01*
Y10238379D01*
X3156809Y10223567D01*
X3127185D01*
X3112373Y10238379D01*
X3082749D02*
X3067938Y10223567D01*
X3038314D01*
X3023502Y10238379D01*
Y10297626D01*
X3038314Y10312438D01*
X3067938D01*
X3082749Y10297626D01*
Y10282814D01*
X3067938Y10268002D01*
X3023502D01*
X2993878Y10312438D02*
X2934631D01*
Y10297626D01*
X2993878Y10238379D01*
Y10223567D01*
X3112373Y10424626D02*
X3127185Y10439438D01*
X3156809D01*
X3171621Y10424626D01*
Y10365379D01*
X3156809Y10350567D01*
X3127185D01*
X3112373Y10365379D01*
X3082749D02*
X3067938Y10350567D01*
X3038314D01*
X3023502Y10365379D01*
Y10424626D01*
X3038314Y10439438D01*
X3067938D01*
X3082749Y10424626D01*
Y10409814D01*
X3067938Y10395002D01*
X3023502D01*
X2934631Y10439438D02*
X2964254Y10424626D01*
X2993878Y10395002D01*
Y10365379D01*
X2979066Y10350567D01*
X2949443D01*
X2934631Y10365379D01*
Y10380191D01*
X2949443Y10395002D01*
X2993878D01*
X3112373Y10551626D02*
X3127185Y10566438D01*
X3156809D01*
X3171621Y10551626D01*
Y10492379D01*
X3156809Y10477567D01*
X3127185D01*
X3112373Y10492379D01*
X3082749D02*
X3067938Y10477567D01*
X3038314D01*
X3023502Y10492379D01*
Y10551626D01*
X3038314Y10566438D01*
X3067938D01*
X3082749Y10551626D01*
Y10536814D01*
X3067938Y10522002D01*
X3023502D01*
X2934631Y10566438D02*
X2993878D01*
Y10522002D01*
X2964254Y10536814D01*
X2949443D01*
X2934631Y10522002D01*
Y10492379D01*
X2949443Y10477567D01*
X2979066D01*
X2993878Y10492379D01*
X3112373Y10805626D02*
X3127185Y10820438D01*
X3156809D01*
X3171621Y10805626D01*
Y10746379D01*
X3156809Y10731567D01*
X3127185D01*
X3112373Y10746379D01*
X3082749D02*
X3067938Y10731567D01*
X3038314D01*
X3023502Y10746379D01*
Y10805626D01*
X3038314Y10820438D01*
X3067938D01*
X3082749Y10805626D01*
Y10790814D01*
X3067938Y10776002D01*
X3023502D01*
X2949443Y10731567D02*
Y10820438D01*
X2993878Y10776002D01*
X2934631D01*
X14594243Y15075728D02*
X14579431Y15090540D01*
Y15120163D01*
X14594243Y15134975D01*
X14653491D01*
X14668303Y15120163D01*
Y15090540D01*
X14653491Y15075728D01*
X14579431Y14986856D02*
X14594243Y15016479D01*
X14623866Y15046104D01*
X14653491D01*
X14668303Y15031293D01*
Y15001668D01*
X14653491Y14986856D01*
X14638680D01*
X14623866Y15001668D01*
Y15046104D01*
X14579431Y14957233D02*
Y14897984D01*
X14594243D01*
X14653491Y14957233D01*
X14668303D01*
X6126913Y13626389D02*
X6141725Y13641200D01*
X6171349D01*
X6186160Y13626389D01*
Y13567142D01*
X6171349Y13552330D01*
X6141725D01*
X6126913Y13567142D01*
X6038042Y13641200D02*
X6067665Y13626389D01*
X6097289Y13596767D01*
Y13567142D01*
X6082477Y13552330D01*
X6052854D01*
X6038042Y13567142D01*
Y13581953D01*
X6052854Y13596767D01*
X6097289D01*
X5963982Y13552330D02*
Y13641200D01*
X6008418Y13596767D01*
X5949170D01*
X6048630Y13706842D02*
X6033818Y13692030D01*
X6004194D01*
X5989382Y13706842D01*
Y13766089D01*
X6004194Y13780901D01*
X6033818D01*
X6048630Y13766089D01*
X6137501Y13692030D02*
X6107877Y13706842D01*
X6078254Y13736465D01*
Y13766089D01*
X6093065Y13780901D01*
X6122689D01*
X6137501Y13766089D01*
Y13751277D01*
X6122689Y13736465D01*
X6078254D01*
X6167125Y13780901D02*
X6196749D01*
X6181937D01*
Y13692030D01*
X6167125Y13706842D01*
X7980977Y16353813D02*
X7966165Y16339001D01*
X7936541D01*
X7921729Y16353813D01*
Y16413062D01*
X7936541Y16427873D01*
X7966165D01*
X7980977Y16413062D01*
X8069848Y16339001D02*
X8010601D01*
Y16383437D01*
X8040224Y16368625D01*
X8055036D01*
X8069848Y16383437D01*
Y16413062D01*
X8055036Y16427873D01*
X8025412D01*
X8010601Y16413062D01*
X8158720Y16339001D02*
X8099472D01*
Y16383437D01*
X8129096Y16368625D01*
X8143908D01*
X8158720Y16383437D01*
Y16413062D01*
X8143908Y16427873D01*
X8114284D01*
X8099472Y16413062D01*
X15780489Y14065009D02*
X15765677Y14079820D01*
Y14109445D01*
X15780489Y14124257D01*
X15839737D01*
X15854549Y14109445D01*
Y14079820D01*
X15839737Y14065009D01*
X15765677Y13976138D02*
Y14035387D01*
X15810114D01*
X15795300Y14005762D01*
Y13990950D01*
X15810114Y13976138D01*
X15839737D01*
X15854549Y13990950D01*
Y14020573D01*
X15839737Y14035387D01*
X15854549Y13887267D02*
Y13946513D01*
X15795300Y13887267D01*
X15780489D01*
X15765677Y13902078D01*
Y13931703D01*
X15780489Y13946513D01*
X10521213Y18068779D02*
X10536025Y18083591D01*
X10565648D01*
X10580460Y18068779D01*
Y18009532D01*
X10565648Y17994720D01*
X10536025D01*
X10521213Y18009532D01*
X10432341Y18083591D02*
X10491589D01*
Y18039156D01*
X10461965Y18053967D01*
X10447153D01*
X10432341Y18039156D01*
Y18009532D01*
X10447153Y17994720D01*
X10476777D01*
X10491589Y18009532D01*
X10358282Y17994720D02*
Y18083591D01*
X10402718Y18039156D01*
X10343470D01*
X10744188Y8426074D02*
X10729376Y8411262D01*
X10699752D01*
X10684940Y8426074D01*
Y8485322D01*
X10699752Y8500134D01*
X10729376D01*
X10744188Y8485322D01*
X10818247Y8500134D02*
Y8411262D01*
X10773812Y8455698D01*
X10833059D01*
X10862683Y8426074D02*
X10877495Y8411262D01*
X10907118D01*
X10921930Y8426074D01*
Y8440886D01*
X10907118Y8455698D01*
X10892307D01*
X10907118D01*
X10921930Y8470510D01*
Y8485322D01*
X10907118Y8500134D01*
X10877495D01*
X10862683Y8485322D01*
X10741648Y8067934D02*
X10726836Y8053122D01*
X10697212D01*
X10682400Y8067934D01*
Y8127182D01*
X10697212Y8141994D01*
X10726836D01*
X10741648Y8127182D01*
X10815707Y8141994D02*
Y8053122D01*
X10771272Y8097558D01*
X10830519D01*
X10919390Y8141994D02*
X10860143D01*
X10919390Y8082746D01*
Y8067934D01*
X10904578Y8053122D01*
X10874955D01*
X10860143Y8067934D01*
X19855713Y13821899D02*
X19870525Y13836711D01*
X19900148D01*
X19914960Y13821899D01*
Y13762653D01*
X19900148Y13747839D01*
X19870525D01*
X19855713Y13762653D01*
X19766841Y13747839D02*
X19826089D01*
X19766841Y13807088D01*
Y13821899D01*
X19781653Y13836711D01*
X19811276D01*
X19826089Y13821899D01*
X19737218D02*
X19722406Y13836711D01*
X19692783D01*
X19677969Y13821899D01*
Y13807088D01*
X19692783Y13792276D01*
X19677969Y13777464D01*
Y13762653D01*
X19692783Y13747839D01*
X19722406D01*
X19737218Y13762653D01*
Y13777464D01*
X19722406Y13792276D01*
X19737218Y13807088D01*
Y13821899D01*
X19722406Y13792276D02*
X19692783D01*
X11783593Y8142459D02*
X11798405Y8157271D01*
X11828028D01*
X11842840Y8142459D01*
Y8083212D01*
X11828028Y8068400D01*
X11798405D01*
X11783593Y8083212D01*
X11694721Y8068400D02*
X11753969D01*
X11694721Y8127648D01*
Y8142459D01*
X11709533Y8157271D01*
X11739157D01*
X11753969Y8142459D01*
X11665098Y8157271D02*
X11605850D01*
Y8142459D01*
X11665098Y8083212D01*
Y8068400D01*
X13696216Y11678848D02*
X13681404Y11693660D01*
Y11723283D01*
X13696216Y11738095D01*
X13755464D01*
X13770274Y11723283D01*
Y11693660D01*
X13755464Y11678848D01*
X13770274Y11589976D02*
Y11649224D01*
X13711028Y11589976D01*
X13696216D01*
X13681404Y11604788D01*
Y11634412D01*
X13696216Y11649224D01*
X13770274Y11501105D02*
Y11560353D01*
X13711028Y11501105D01*
X13696216D01*
X13681404Y11515917D01*
Y11545541D01*
X13696216Y11560353D01*
X14405464Y11285353D02*
X14420276Y11270541D01*
Y11240917D01*
X14405464Y11226105D01*
X14346216D01*
X14331406Y11240917D01*
Y11270541D01*
X14346216Y11285353D01*
X14331406Y11374224D02*
Y11314976D01*
X14390652Y11374224D01*
X14405464D01*
X14420276Y11359412D01*
Y11329788D01*
X14405464Y11314976D01*
Y11403848D02*
X14420276Y11418659D01*
Y11448283D01*
X14405464Y11463095D01*
X14346216D01*
X14331406Y11448283D01*
Y11418659D01*
X14346216Y11403848D01*
X14405464D01*
X13684001Y11942573D02*
X13669189Y11957385D01*
Y11987008D01*
X13684001Y12001820D01*
X13743248D01*
X13758060Y11987008D01*
Y11957385D01*
X13743248Y11942573D01*
X13758060Y11912949D02*
Y11883325D01*
Y11898137D01*
X13669189D01*
X13684001Y11912949D01*
X13743248Y11838889D02*
X13758060Y11824078D01*
Y11794454D01*
X13743248Y11779642D01*
X13684001D01*
X13669189Y11794454D01*
Y11824078D01*
X13684001Y11838889D01*
X13698813D01*
X13713625Y11824078D01*
Y11779642D01*
X13495277Y9998386D02*
X13510089Y10013198D01*
X13539713D01*
X13554524Y9998386D01*
Y9939138D01*
X13539713Y9924327D01*
X13510089D01*
X13495277Y9939138D01*
X13465652Y9924327D02*
X13436029D01*
X13450841D01*
Y10013198D01*
X13465652Y9998386D01*
X13391592Y10013198D02*
X13332346D01*
Y9998386D01*
X13391592Y9939138D01*
Y9924327D01*
X17203374Y13309019D02*
X17218185Y13323833D01*
X17247807D01*
X17262621Y13309019D01*
Y13249773D01*
X17247807Y13234959D01*
X17218185D01*
X17203374Y13249773D01*
X17173749Y13234959D02*
X17144125D01*
X17158937D01*
Y13323833D01*
X17173749Y13309019D01*
X17040442Y13323833D02*
X17099689D01*
Y13279396D01*
X17070065Y13294208D01*
X17055254D01*
X17040442Y13279396D01*
Y13249773D01*
X17055254Y13234959D01*
X17084879D01*
X17099689Y13249773D01*
X16462167Y12928702D02*
X16476979Y12943513D01*
X16506602D01*
X16521416Y12928702D01*
Y12869455D01*
X16506602Y12854643D01*
X16476979D01*
X16462167Y12869455D01*
X16432542Y12943513D02*
X16373296D01*
Y12928702D01*
X16432542Y12869455D01*
Y12854643D01*
X12615849Y13405301D02*
X12630661Y13420113D01*
X12660285D01*
X12675097Y13405301D01*
Y13346053D01*
X12660285Y13331242D01*
X12630661D01*
X12615849Y13346053D01*
X12586225Y13405301D02*
X12571414Y13420113D01*
X12541790D01*
X12526978Y13405301D01*
Y13390489D01*
X12541790Y13375677D01*
X12556602D01*
X12541790D01*
X12526978Y13360864D01*
Y13346053D01*
X12541790Y13331242D01*
X12571414D01*
X12586225Y13346053D01*
X16674272Y11229739D02*
X16689084Y11244551D01*
X16718707D01*
X16733521Y11229739D01*
Y11170492D01*
X16718707Y11155680D01*
X16689084D01*
X16674272Y11170492D01*
X16585400Y11155680D02*
X16644649D01*
X16585400Y11214928D01*
Y11229739D01*
X16600214Y11244551D01*
X16629837D01*
X16644649Y11229739D01*
%TF.MD5,2bb24cb8125b6485281016034b9cd031*%
M02*
