%TF.GenerationSoftware,Altium Limited,Altium Designer,23.11.1 (41)*%
G04 Layer_Physical_Order=5*
G04 Layer_Color=32896*
%FSLAX45Y45*%
%MOMM*%
%TF.SameCoordinates,75D3B97C-BFDA-4FAF-9EB3-CC348FD6A853*%
%TF.FilePolarity,Positive*%
%TF.FileFunction,Copper,L5,Inr,Signal*%
%TF.Part,Single*%
G01*
G75*
%TA.AperFunction,Conductor*%
%ADD81C,0.10160*%
%TA.AperFunction,ComponentPad*%
%ADD86C,6.20000*%
%ADD87C,2.20000*%
%ADD88C,3.81000*%
G04:AMPARAMS|DCode=89|XSize=1.524mm|YSize=1.524mm|CornerRadius=0mm|HoleSize=0mm|Usage=FLASHONLY|Rotation=90.000|XOffset=0mm|YOffset=0mm|HoleType=Round|Shape=Octagon|*
%AMOCTAGOND89*
4,1,8,0.38100,0.76200,-0.38100,0.76200,-0.76200,0.38100,-0.76200,-0.38100,-0.38100,-0.76200,0.38100,-0.76200,0.76200,-0.38100,0.76200,0.38100,0.38100,0.76200,0.0*
%
%ADD89OCTAGOND89*%

%ADD90C,1.52400*%
%ADD91C,3.00000*%
%ADD92C,1.60000*%
%ADD93C,0.60000*%
%ADD94R,1.90500X1.90500*%
%ADD95C,1.90500*%
%ADD96R,3.00000X3.00000*%
%TA.AperFunction,ViaPad*%
%ADD97C,0.30480*%
%ADD98C,0.50000*%
%ADD99C,0.55880*%
%ADD100C,0.50800*%
%TA.AperFunction,Conductor*%
%ADD101C,0.07620*%
D81*
X5705918Y10709087D02*
X5895003Y10520002D01*
X5071007Y10709087D02*
X5705918D01*
X4915194Y10864900D02*
X5071007Y10709087D01*
X6755001Y10089601D02*
X6785706Y10120306D01*
X7340796D01*
X6646075Y9980676D02*
X6755001Y10089601D01*
X5690172Y9980676D02*
X6646075D01*
X7765342Y9510465D02*
X7818059Y9563183D01*
X7055175Y9510465D02*
X7765342D01*
X7055175D02*
Y9515299D01*
X6994215D02*
X7055175D01*
X6994215Y9510465D02*
Y9515299D01*
X6989134Y9510465D02*
X6994215D01*
X7818059Y9563183D02*
X8504883Y10250006D01*
X7931203Y9838921D02*
X8259465Y10167183D01*
X7878234Y9891890D02*
X7931203Y9838921D01*
X7835129Y9848785D02*
X7878234Y9891890D01*
X7835129Y9848785D02*
X7901119Y9782796D01*
X7858013Y9739690D02*
X7901119Y9782796D01*
X7779877Y9817827D02*
X7858013Y9739690D01*
X7736771Y9774721D02*
X7779877Y9817827D01*
X7736771Y9774721D02*
X7814908Y9696585D01*
X7771803Y9653480D02*
X7814908Y9696585D01*
X7693666Y9731616D02*
X7771803Y9653480D01*
X7650561Y9688511D02*
X7693666Y9731616D01*
X7650561Y9688511D02*
X7715677Y9623395D01*
X7712084Y9619802D02*
X7715677Y9623395D01*
X8259465Y10167183D02*
X8392284Y10300002D01*
X6758233Y9702174D02*
X6901159D01*
Y9652817D02*
Y9702174D01*
Y9652817D02*
X6962119D01*
Y9783050D01*
X7023079D01*
Y9640888D02*
Y9783050D01*
Y9640888D02*
X7084039D01*
Y9783050D01*
X7144999D01*
Y9640888D02*
Y9783050D01*
Y9640888D02*
X7205959D01*
Y9783050D01*
X7266919D01*
Y9640888D02*
Y9783050D01*
Y9640888D02*
X7327879D01*
Y9783050D01*
X7388839D01*
Y9640888D02*
Y9783050D01*
Y9640888D02*
X7449799D01*
Y9783050D01*
X7510759D01*
Y9640888D02*
Y9783050D01*
Y9640888D02*
X7571719D01*
Y9702174D01*
X7576800D01*
X6719523D02*
X6758233D01*
X7905970Y10158533D02*
X8087605Y10340169D01*
X7891555Y10172948D02*
X7905970Y10158533D01*
X7848450Y10129843D02*
X7891555Y10172948D01*
X7848450Y10129843D02*
X7879437Y10098856D01*
X7836332Y10055750D02*
X7879437Y10098856D01*
X7759935Y10132147D02*
X7836332Y10055750D01*
X7716830Y10089042D02*
X7759935Y10132147D01*
X7716830Y10089042D02*
X7793226Y10012645D01*
X7750121Y9969540D02*
X7793226Y10012645D01*
X7673725Y10045937D02*
X7750121Y9969540D01*
X7630620Y10002831D02*
X7673725Y10045937D01*
X7630620Y10002831D02*
X7707016Y9926435D01*
X7663911Y9883330D02*
X7707016Y9926435D01*
X7587515Y9959726D02*
X7663911Y9883330D01*
X7544409Y9916621D02*
X7587515Y9959726D01*
X7544409Y9916621D02*
X7604233Y9856797D01*
X7600640Y9853204D02*
X7604233Y9856797D01*
X8087605Y10340169D02*
X8297442Y10550006D01*
X6892394Y10015847D02*
X7095184D01*
Y9961718D02*
Y10015847D01*
Y9961718D02*
X7156144D01*
Y10079666D01*
X7217104D01*
Y9912590D02*
Y10079666D01*
Y9912590D02*
X7278064D01*
Y10079666D01*
X7339024D01*
Y9912590D02*
Y10079666D01*
Y9912590D02*
X7399984D01*
Y10015847D01*
X7405066D01*
X7432089D01*
X7748281Y10527791D02*
X7883817Y10663327D01*
X7741170Y10534903D02*
X7748281Y10527791D01*
X7698065Y10491798D02*
X7741170Y10534903D01*
X7698065Y10491798D02*
X7715592Y10474270D01*
X7672487Y10431165D02*
X7715592Y10474270D01*
X7579989Y10523662D02*
X7672487Y10431165D01*
X7536884Y10480557D02*
X7579989Y10523662D01*
X7536884Y10480557D02*
X7629381Y10388060D01*
X7586276Y10344955D02*
X7629381Y10388060D01*
X7493779Y10437452D02*
X7586276Y10344955D01*
X7450674Y10394347D02*
X7493779Y10437452D01*
X7450674Y10394347D02*
X7543171Y10301850D01*
X7500066Y10258744D02*
X7543171Y10301850D01*
X7412957Y10345853D02*
X7500066Y10258744D01*
X7369852Y10302748D02*
X7412957Y10345853D01*
X7369852Y10302748D02*
X7456960Y10215639D01*
X7413855Y10172534D02*
X7456960Y10215639D01*
X7341085Y10245304D02*
X7413855Y10172534D01*
X7297980Y10202199D02*
X7341085Y10245304D01*
X7297980Y10202199D02*
X7360334Y10139844D01*
X7356741Y10136252D02*
X7360334Y10139844D01*
X7883817Y10663327D02*
X8070622Y10850132D01*
X7432445Y10433592D02*
X7684433Y10685580D01*
X7432180Y10433857D02*
X7432445Y10433592D01*
X7389075Y10390752D02*
X7432180Y10433857D01*
X7389075Y10390752D02*
X7394728Y10385098D01*
X7351623Y10341993D02*
X7394728Y10385098D01*
X7220181Y10473435D02*
X7351623Y10341993D01*
X7177076Y10430329D02*
X7220181Y10473435D01*
X7177076Y10430329D02*
X7322857Y10284549D01*
X7279752Y10241444D02*
X7322857Y10284549D01*
X7133971Y10387224D02*
X7279752Y10241444D01*
X7090866Y10344119D02*
X7133971Y10387224D01*
X7090866Y10344119D02*
X7216919Y10218066D01*
X7213326Y10214473D02*
X7216919Y10218066D01*
X7684433Y10685580D02*
X7997846Y10998993D01*
X7180320Y10508198D02*
X7464114Y10791993D01*
X7114756Y10573762D02*
X7180320Y10508198D01*
X7071651Y10530656D02*
X7114756Y10573762D01*
X7071651Y10530656D02*
X7145790Y10456517D01*
X7102685Y10413412D02*
X7145790Y10456517D01*
X6914504Y10601593D02*
X7102685Y10413412D01*
X6871399Y10558488D02*
X6914504Y10601593D01*
X6871399Y10558488D02*
X7051004Y10378882D01*
X7047411Y10375290D02*
X7051004Y10378882D01*
X7464114Y10791993D02*
X7719375Y11047253D01*
X5808021Y10006983D02*
X5981985D01*
X7340796Y10120306D02*
X7356741Y10136252D01*
X6055003Y10080000D02*
X6651053D01*
X6767803Y10196750D01*
X5981985Y10006983D02*
X6055003Y10080000D01*
X5775001Y10040002D02*
X5808021Y10006983D01*
X5554527Y9888224D02*
X6588678D01*
X5677722Y9938403D02*
X6677556D01*
X5599360Y9915543D02*
X6665168D01*
X5542326Y9851074D02*
X6570623D01*
X5814998Y10080000D02*
Y10452225D01*
X5677722Y10589501D02*
X5814998Y10452225D01*
X5775001Y10040003D02*
X5814998Y10080000D01*
X5775001Y10040002D02*
Y10040003D01*
X5895003Y10080000D02*
Y10520002D01*
Y10080000D02*
X5935000Y10040004D01*
X5934999Y10040003D02*
X6055001Y10160005D01*
X5935000Y10040004D02*
X5935001Y10040003D01*
X4280330Y10687101D02*
X4849502D01*
X4280330Y10864900D02*
X4915194D01*
X5649049Y10449801D02*
X5655001Y10443850D01*
X5086802Y10449801D02*
X5649049D01*
X5655001Y10240005D02*
Y10443850D01*
X4849502Y10687101D02*
X5086802Y10449801D01*
X5614998Y10200002D02*
X5655001Y10240005D01*
X5508124Y10369601D02*
X5574999Y10302727D01*
X5066856Y10369601D02*
X5508124D01*
X5574999Y10240005D02*
Y10302727D01*
Y10240005D02*
X5575004Y10240000D01*
X5993577Y9501424D02*
X6980093D01*
X5934082Y9560919D02*
X5993577Y9501424D01*
X6980093D02*
X6989134Y9510465D01*
X5574807Y9600001D02*
X7692283D01*
X5454998Y9719810D02*
X5574807Y9600001D01*
X7692283D02*
X7712084Y9619802D01*
X7571127Y9823690D02*
X7600640Y9853204D01*
X6665168Y9915543D02*
X6708761Y9871950D01*
X6653212Y9823690D02*
X7571127D01*
X6708761Y9871950D02*
X7442265D01*
X6588678Y9888224D02*
X6653212Y9823690D01*
X7432089Y10015847D02*
X8116244Y10700002D01*
X7604863Y9702174D02*
X8304455Y10401766D01*
X7442265Y9871950D02*
X8220320Y10650005D01*
X6055001Y10160005D02*
X6579607D01*
X6780665Y10361063D01*
X6570623Y9851074D02*
X6719523Y9702174D01*
X7576800D02*
X7604863D01*
X7195603Y10196750D02*
X7213326Y10214473D01*
X6767803Y10196750D02*
X7195603D01*
X6780665Y10361063D02*
X7033185D01*
X7047411Y10375290D01*
X6755001Y10015847D02*
X6892394D01*
X6677556Y9938403D02*
X6755001Y10015847D01*
X9073575Y10448477D02*
X9125100Y10500002D01*
X8878250Y10448477D02*
X9073575D01*
X8116244Y10700002D02*
X8725622D01*
X8721749Y10998993D02*
X8772628Y10948114D01*
X8725622Y10700002D02*
X8775100Y10749480D01*
X7997846Y10998993D02*
X8721749D01*
X8304455Y10401766D02*
X8831539D01*
X8878250Y10448477D01*
X8725097Y10300002D02*
X8775100Y10350006D01*
X8392284Y10300002D02*
X8725097D01*
X5655001Y10015847D02*
X5690172Y9980676D01*
X5615001Y10001124D02*
Y10120008D01*
X5655001Y10015847D02*
Y10079997D01*
X5654993Y10080006D02*
X5655001Y10079997D01*
X5615001Y10001124D02*
X5677722Y9938403D01*
X5575004Y10160005D02*
Y10240000D01*
Y10160005D02*
X5615001Y10120008D01*
X5614996Y10200002D02*
X5654993Y10160005D01*
X5614996Y10200002D02*
X5614998D01*
X4886483Y10776001D02*
X5072983Y10589501D01*
X5677722D01*
X4922058Y10080000D02*
X5414991D01*
X4280330Y10064547D02*
X4906604D01*
X4909594Y9947750D02*
X5227249D01*
X4906604Y10064547D02*
X4922058Y10080000D01*
X5414991D02*
X5454999Y10120008D01*
X5023187Y10160008D02*
X5334999D01*
X5375002Y10200004D02*
X5415001Y10160005D01*
X5374996Y10200004D02*
X5375002D01*
X5334999Y10240005D02*
X5494999D01*
X5535001Y10200003D01*
X5415001Y10160005D02*
X5489049D01*
X5334994Y10240000D02*
X5334999Y10240005D01*
X5088484Y10240000D02*
X5334994D01*
X5334999Y10160008D02*
X5374996Y10200004D01*
X4838256Y10598201D02*
X5066856Y10369601D01*
X4280330Y10597947D02*
X4280584Y10598201D01*
X4280330Y10420147D02*
X4280584Y10420401D01*
X4762794D01*
X5023187Y10160008D01*
X4819183Y10509301D02*
X5088484Y10240000D01*
X4280330Y10509301D02*
X4819183D01*
X4280584Y10598201D02*
X4838256D01*
X4280330Y10776001D02*
X4886483D01*
X5654993Y10080006D02*
Y10160005D01*
X5454999Y9938402D02*
Y10120008D01*
X5535001Y10040765D02*
Y10200003D01*
X5534226Y10039990D02*
X5535001Y10040765D01*
X5495001Y9947750D02*
Y10154053D01*
X5534226Y9980676D02*
Y10039990D01*
X5489049Y10160005D02*
X5495001Y10154053D01*
X5534226Y9980676D02*
X5599360Y9915543D01*
X5775917Y9560919D02*
X5854084D01*
X5698141Y9483142D02*
X5775917Y9560919D01*
X5078442Y9483142D02*
X5698141D01*
X4759945Y9798101D02*
X4909594Y9947750D01*
X4280330Y9798101D02*
X4759945D01*
X5855001Y9560002D02*
X5855917Y9560919D01*
X5854084D02*
X5855001Y9560002D01*
X5855917Y9560919D02*
X5934082D01*
X5495001Y9947750D02*
X5554527Y9888224D01*
X5454999Y9938402D02*
X5542326Y9851074D01*
X5227249Y9947750D02*
X5414999Y9760001D01*
X5415000D01*
X5454998Y9720002D01*
X9575001Y11055954D02*
Y11150002D01*
X9580953Y11050002D02*
X9675001D01*
X9575001Y11055954D02*
X9580953Y11050002D01*
X9525001Y11200002D02*
X9575001Y11150002D01*
X4280330Y9175547D02*
X4770846D01*
X5078442Y9483142D01*
X9477850Y11047253D02*
X9525100Y11000003D01*
X7719375Y11047253D02*
X9477850D01*
X9675001Y11050002D02*
X9775001Y10950002D01*
X9625100Y11000003D02*
X9675001Y10950103D01*
X9625100Y11000003D02*
Y11000003D01*
X9675001Y10450002D02*
Y10544051D01*
X9475005Y10250006D02*
X9675001Y10450002D01*
X9475099Y10550006D02*
X9575001Y10649907D01*
X9525001Y10699903D02*
Y10800002D01*
X9475103Y10650005D02*
X9525001Y10699903D01*
X9769049Y10550002D02*
X9775001Y10555954D01*
X9680952Y10550002D02*
X9769049D01*
X9675001Y10544051D02*
X9680952Y10550002D01*
X8220320Y10650005D02*
X9475103D01*
X8772628Y10948114D02*
X9376591D01*
X8070622Y10850132D02*
X9276026D01*
X8297442Y10550006D02*
X9475099D01*
X9375099Y10350006D02*
X9675001Y10649908D01*
X8775100Y10749480D02*
X9368527D01*
X8504883Y10250006D02*
X9475005D01*
X8775100Y10350006D02*
X9375099D01*
X9775001Y10555954D02*
Y10950002D01*
X9675001Y10649908D02*
Y10950103D01*
X9374479Y10755432D02*
Y10844051D01*
X9380431Y10850002D02*
X9475001D01*
X9276026Y10850132D02*
X9325897Y10900004D01*
X9376591Y10948114D02*
X9424701Y10900003D01*
X9575001Y10649907D02*
Y10849907D01*
X9368527Y10749480D02*
X9374479Y10755432D01*
Y10844051D02*
X9380431Y10850002D01*
X9575001Y10849907D02*
X9625162Y10900068D01*
X9424701Y10900003D02*
X9425097D01*
X9475099Y10850101D02*
Y10950005D01*
X9425100Y11000003D02*
X9425101D01*
X9475099Y10950005D01*
D86*
X457199Y457199D02*
D03*
Y19557999D02*
D03*
X11744001Y9247042D02*
D03*
X8244001Y12747042D02*
D03*
X19557999Y457199D02*
D03*
Y19557999D02*
D03*
D87*
X19276059Y17193259D02*
D03*
X19784059D02*
D03*
Y17701259D02*
D03*
X19276059D02*
D03*
X19530058Y17447260D02*
D03*
X19545297Y15731273D02*
D03*
X19291296Y15985274D02*
D03*
X19799297D02*
D03*
Y15477274D02*
D03*
X19291296D02*
D03*
X19545297Y14562872D02*
D03*
X19291296Y14816873D02*
D03*
X19799297D02*
D03*
Y14308873D02*
D03*
X19291296D02*
D03*
X19530058Y18615659D02*
D03*
X19276059Y18869659D02*
D03*
X19784059D02*
D03*
Y18361659D02*
D03*
X19276059D02*
D03*
D88*
X19339796Y5918199D02*
D03*
Y4648199D02*
D03*
D89*
X19085797Y5638799D02*
D03*
D90*
Y5435599D02*
D03*
Y5232399D02*
D03*
Y5029199D02*
D03*
X18907997Y5537199D02*
D03*
Y5333999D02*
D03*
Y5130799D02*
D03*
Y4927599D02*
D03*
X18425397Y5968999D02*
D03*
Y4825999D02*
D03*
Y4597399D02*
D03*
Y5740399D02*
D03*
D91*
X18846799Y3014999D02*
D03*
Y1810998D02*
D03*
X17973201Y9828000D02*
D03*
Y10248000D02*
D03*
Y10667999D02*
D03*
X18523198Y9828000D02*
D03*
Y10248000D02*
D03*
D92*
X18576802Y2288000D02*
D03*
Y2538002D02*
D03*
X18376802Y2288000D02*
D03*
Y2538002D02*
D03*
D93*
X13736798Y4875698D02*
D03*
X13843797D02*
D03*
X13950798D02*
D03*
X13736798Y4768698D02*
D03*
X13843797D02*
D03*
X13950798D02*
D03*
X13736798Y4661698D02*
D03*
X13843797D02*
D03*
X13950798D02*
D03*
D94*
X19405598Y7128001D02*
D03*
D95*
Y7628000D02*
D03*
Y8127999D02*
D03*
Y8627998D02*
D03*
D96*
X18523198Y10667999D02*
D03*
D97*
X16873743Y8059072D02*
D03*
Y7868572D02*
D03*
Y7665372D02*
D03*
Y7462172D02*
D03*
X16872916Y7077949D02*
D03*
Y7281149D02*
D03*
X15461176Y7079564D02*
D03*
X15664375D02*
D03*
X15461176Y7282764D02*
D03*
X15664375D02*
D03*
X15257976D02*
D03*
X15054776D02*
D03*
X14851576D02*
D03*
X15257976Y7079564D02*
D03*
X15054776D02*
D03*
X14851576D02*
D03*
X15866982Y7078035D02*
D03*
X16070181D02*
D03*
X16273381D02*
D03*
X15866982Y7281235D02*
D03*
X16070181D02*
D03*
X16273381D02*
D03*
X16679781D02*
D03*
X16476581D02*
D03*
X16679781Y7078035D02*
D03*
X16476581D02*
D03*
X16477409Y7462258D02*
D03*
X16680609D02*
D03*
X16477409Y7665458D02*
D03*
X16680609D02*
D03*
Y7868658D02*
D03*
X16477409D02*
D03*
Y8059158D02*
D03*
X16680609D02*
D03*
X16274210D02*
D03*
X16071008D02*
D03*
X15867809D02*
D03*
Y7868658D02*
D03*
X16071008D02*
D03*
X16274210D02*
D03*
Y7665458D02*
D03*
X16071008D02*
D03*
X15867809D02*
D03*
X16274210Y7462258D02*
D03*
X16071008D02*
D03*
X15867809D02*
D03*
X18106390Y7575238D02*
D03*
Y7422838D02*
D03*
X17230090Y7435538D02*
D03*
Y7372038D02*
D03*
X1016000Y1778000D02*
D03*
X761377Y1782217D02*
D03*
X508000Y1778000D02*
D03*
X254000D02*
D03*
X1270000D02*
D03*
X1524000D02*
D03*
X1779853Y772706D02*
D03*
X1784070Y519329D02*
D03*
Y265329D02*
D03*
Y1789329D02*
D03*
Y1535329D02*
D03*
Y1027329D02*
D03*
Y1281329D02*
D03*
X1778000Y19050000D02*
D03*
X2032000D02*
D03*
X1777377Y18800217D02*
D03*
X2032000Y18796001D02*
D03*
Y19303999D02*
D03*
X1777377Y19308217D02*
D03*
X2032000Y19812000D02*
D03*
Y19558000D02*
D03*
X1778000Y19812000D02*
D03*
Y19558000D02*
D03*
X2286000D02*
D03*
Y19812000D02*
D03*
X10160000D02*
D03*
Y19558000D02*
D03*
X9652000D02*
D03*
Y19812000D02*
D03*
X9906000Y19558000D02*
D03*
Y19812000D02*
D03*
X8890000D02*
D03*
Y19558000D02*
D03*
X8636000Y19812000D02*
D03*
Y19558000D02*
D03*
X9144000D02*
D03*
Y19812000D02*
D03*
X9398000Y19558000D02*
D03*
Y19812000D02*
D03*
X7366000D02*
D03*
Y19558000D02*
D03*
X7112000Y19812000D02*
D03*
Y19558000D02*
D03*
X6604000D02*
D03*
Y19812000D02*
D03*
X6858000Y19558000D02*
D03*
Y19812000D02*
D03*
X7874000D02*
D03*
Y19558000D02*
D03*
X7620000Y19812000D02*
D03*
Y19558000D02*
D03*
X8128000D02*
D03*
Y19812000D02*
D03*
X8382000Y19558000D02*
D03*
Y19812000D02*
D03*
X4318000D02*
D03*
Y19558000D02*
D03*
X4064000Y19812000D02*
D03*
Y19558000D02*
D03*
X3556000D02*
D03*
Y19812000D02*
D03*
X3810000Y19558000D02*
D03*
Y19812000D02*
D03*
X2794000D02*
D03*
Y19558000D02*
D03*
X2540000Y19812000D02*
D03*
Y19558000D02*
D03*
X3048000D02*
D03*
Y19812000D02*
D03*
X3302000Y19558000D02*
D03*
Y19812000D02*
D03*
X5334000D02*
D03*
Y19558000D02*
D03*
X5080000Y19812000D02*
D03*
Y19558000D02*
D03*
X4572000D02*
D03*
Y19812000D02*
D03*
X4826000Y19558000D02*
D03*
Y19812000D02*
D03*
X5842000D02*
D03*
Y19558000D02*
D03*
X5588000Y19812000D02*
D03*
Y19558000D02*
D03*
X6096000D02*
D03*
Y19812000D02*
D03*
X6350000Y19558000D02*
D03*
Y19812000D02*
D03*
X2032000Y1270000D02*
D03*
Y1016000D02*
D03*
Y1524000D02*
D03*
Y1778000D02*
D03*
X1270000Y2794000D02*
D03*
X1524000D02*
D03*
X1778000D02*
D03*
X2032000D02*
D03*
X1270000Y2540000D02*
D03*
X1524000D02*
D03*
X1777377Y2544217D02*
D03*
X2032000Y2540000D02*
D03*
Y2032000D02*
D03*
X1777377Y2036217D02*
D03*
X1524000Y2032000D02*
D03*
X1270000D02*
D03*
X2032000Y2286000D02*
D03*
X1778000D02*
D03*
X1524000D02*
D03*
X1270000D02*
D03*
X254000D02*
D03*
X508000D02*
D03*
X762000D02*
D03*
X1016000D02*
D03*
X254000Y2032000D02*
D03*
X508000D02*
D03*
X761377Y2036217D02*
D03*
X1016000Y2032000D02*
D03*
Y2540000D02*
D03*
X761377Y2544217D02*
D03*
X508000Y2540000D02*
D03*
X254000D02*
D03*
X1016000Y2794000D02*
D03*
X762000D02*
D03*
X508000D02*
D03*
X254000D02*
D03*
X2794000Y254000D02*
D03*
Y508000D02*
D03*
Y762000D02*
D03*
X3048000Y254000D02*
D03*
Y508000D02*
D03*
X3043783Y761377D02*
D03*
X3302000Y762000D02*
D03*
Y508000D02*
D03*
Y254000D02*
D03*
X2032000D02*
D03*
Y508000D02*
D03*
X2027783Y761377D02*
D03*
X2535783D02*
D03*
X2540000Y508000D02*
D03*
Y254000D02*
D03*
X2286000Y762000D02*
D03*
Y508000D02*
D03*
Y254000D02*
D03*
X15239999D02*
D03*
Y508000D02*
D03*
Y762000D02*
D03*
X15494000Y254000D02*
D03*
Y508000D02*
D03*
X15489783Y761377D02*
D03*
X15997783D02*
D03*
X16002000Y508000D02*
D03*
Y254000D02*
D03*
X15748000Y762000D02*
D03*
Y508000D02*
D03*
Y254000D02*
D03*
X16764000D02*
D03*
Y508000D02*
D03*
Y762000D02*
D03*
X17017999Y254000D02*
D03*
Y508000D02*
D03*
X17013783Y761377D02*
D03*
X16505783D02*
D03*
X16510001Y508000D02*
D03*
Y254000D02*
D03*
X16256000Y762000D02*
D03*
Y508000D02*
D03*
Y254000D02*
D03*
X18288000D02*
D03*
Y508000D02*
D03*
Y762000D02*
D03*
X17780000Y254000D02*
D03*
Y508000D02*
D03*
Y762000D02*
D03*
X18034000Y254000D02*
D03*
Y508000D02*
D03*
X18029784Y761377D02*
D03*
X17521783D02*
D03*
X17525999Y508000D02*
D03*
Y254000D02*
D03*
X17272000Y762000D02*
D03*
Y508000D02*
D03*
Y254000D02*
D03*
X13208000D02*
D03*
Y508000D02*
D03*
Y762000D02*
D03*
X13462000Y254000D02*
D03*
Y508000D02*
D03*
X13457784Y761377D02*
D03*
X13965784D02*
D03*
X13970000Y508000D02*
D03*
Y254000D02*
D03*
X13716000Y762000D02*
D03*
Y508000D02*
D03*
Y254000D02*
D03*
X14732001D02*
D03*
Y508000D02*
D03*
Y762000D02*
D03*
X14986000Y254000D02*
D03*
Y508000D02*
D03*
X14981783Y761377D02*
D03*
X14473782D02*
D03*
X14478000Y508000D02*
D03*
Y254000D02*
D03*
X14224001Y762000D02*
D03*
Y508000D02*
D03*
Y254000D02*
D03*
X12192000D02*
D03*
Y508000D02*
D03*
Y762000D02*
D03*
X12446000Y254000D02*
D03*
Y508000D02*
D03*
X12441783Y761377D02*
D03*
X12949783D02*
D03*
X12953999Y508000D02*
D03*
Y254000D02*
D03*
X12700000Y762000D02*
D03*
Y508000D02*
D03*
Y254000D02*
D03*
X11684000D02*
D03*
Y508000D02*
D03*
Y762000D02*
D03*
X11938000Y254000D02*
D03*
Y508000D02*
D03*
X11933783Y761377D02*
D03*
X11425783D02*
D03*
X11430000Y508000D02*
D03*
Y254000D02*
D03*
X3556000D02*
D03*
Y508000D02*
D03*
X3551783Y761377D02*
D03*
X4059783D02*
D03*
X4064000Y508000D02*
D03*
Y254000D02*
D03*
X3810000Y762000D02*
D03*
Y508000D02*
D03*
Y254000D02*
D03*
X4826000D02*
D03*
Y508000D02*
D03*
Y762000D02*
D03*
X5080000Y254000D02*
D03*
Y508000D02*
D03*
X5075783Y761377D02*
D03*
X4567783D02*
D03*
X4572000Y508000D02*
D03*
Y254000D02*
D03*
X4318000Y762000D02*
D03*
Y508000D02*
D03*
Y254000D02*
D03*
X6350000D02*
D03*
Y508000D02*
D03*
Y762000D02*
D03*
X6604000Y254000D02*
D03*
Y508000D02*
D03*
X6599783Y761377D02*
D03*
X7107783D02*
D03*
X7112000Y508000D02*
D03*
Y254000D02*
D03*
X6858000Y762000D02*
D03*
Y508000D02*
D03*
Y254000D02*
D03*
X5842000D02*
D03*
Y508000D02*
D03*
Y762000D02*
D03*
X6096000Y254000D02*
D03*
Y508000D02*
D03*
X6091783Y761377D02*
D03*
X5583783D02*
D03*
X5588000Y508000D02*
D03*
Y254000D02*
D03*
X5334000Y762000D02*
D03*
Y508000D02*
D03*
Y254000D02*
D03*
X9398000D02*
D03*
Y508000D02*
D03*
Y762000D02*
D03*
X9652000Y254000D02*
D03*
Y508000D02*
D03*
X9647783Y761377D02*
D03*
X10155783D02*
D03*
X10160000Y508000D02*
D03*
Y254000D02*
D03*
X9906000Y762000D02*
D03*
Y508000D02*
D03*
Y254000D02*
D03*
X10922000D02*
D03*
Y508000D02*
D03*
Y762000D02*
D03*
X11176000Y254000D02*
D03*
Y508000D02*
D03*
X11171783Y761377D02*
D03*
X10663783D02*
D03*
X10668000Y508000D02*
D03*
Y254000D02*
D03*
X10414000Y762000D02*
D03*
Y508000D02*
D03*
Y254000D02*
D03*
X8382000D02*
D03*
Y508000D02*
D03*
Y762000D02*
D03*
X8636000Y254000D02*
D03*
Y508000D02*
D03*
X8631783Y761377D02*
D03*
X9139783D02*
D03*
X9144000Y508000D02*
D03*
Y254000D02*
D03*
X8890000Y762000D02*
D03*
Y508000D02*
D03*
Y254000D02*
D03*
X7874000D02*
D03*
Y508000D02*
D03*
Y762000D02*
D03*
X8128000Y254000D02*
D03*
Y508000D02*
D03*
X8123783Y761377D02*
D03*
X7615783D02*
D03*
X7620000Y508000D02*
D03*
Y254000D02*
D03*
X7366000Y762000D02*
D03*
Y508000D02*
D03*
Y254000D02*
D03*
X254000Y14732001D02*
D03*
X508000D02*
D03*
X762000D02*
D03*
X1016000D02*
D03*
X254000Y14478000D02*
D03*
X508000D02*
D03*
X761377Y14482217D02*
D03*
X1016000Y14478000D02*
D03*
Y13970000D02*
D03*
X761377Y13974217D02*
D03*
X508000Y13970000D02*
D03*
X254000D02*
D03*
X1016000Y14224001D02*
D03*
X762000D02*
D03*
X508000D02*
D03*
X254000D02*
D03*
X1270000D02*
D03*
X1524000D02*
D03*
X1778000D02*
D03*
X2032000D02*
D03*
X1270000Y13970000D02*
D03*
X1524000D02*
D03*
X1777377Y13974217D02*
D03*
X2032000Y13970000D02*
D03*
Y14478000D02*
D03*
X1777377Y14482217D02*
D03*
X1524000Y14478000D02*
D03*
X1270000D02*
D03*
X2032000Y14732001D02*
D03*
X1778000D02*
D03*
X1524000D02*
D03*
X1270000D02*
D03*
Y13716000D02*
D03*
X1524000D02*
D03*
X1778000D02*
D03*
X2032000D02*
D03*
X1270000Y13462000D02*
D03*
X1524000D02*
D03*
X1777377Y13466217D02*
D03*
X2032000Y13462000D02*
D03*
Y12953999D02*
D03*
X1777377Y12958217D02*
D03*
X1524000Y12953999D02*
D03*
X1270000D02*
D03*
X2032000Y13208000D02*
D03*
X1778000D02*
D03*
X1524000D02*
D03*
X1270000D02*
D03*
X254000D02*
D03*
X508000D02*
D03*
X762000D02*
D03*
X1016000D02*
D03*
X254000Y12953999D02*
D03*
X508000D02*
D03*
X761377Y12958217D02*
D03*
X1016000Y12953999D02*
D03*
Y13462000D02*
D03*
X761377Y13466217D02*
D03*
X508000Y13462000D02*
D03*
X254000D02*
D03*
X1016000Y13716000D02*
D03*
X762000D02*
D03*
X508000D02*
D03*
X254000D02*
D03*
Y11684000D02*
D03*
X508000D02*
D03*
X762000D02*
D03*
X1016000D02*
D03*
X254000Y11430000D02*
D03*
X508000D02*
D03*
X761377Y11434217D02*
D03*
X1016000Y11430000D02*
D03*
Y10922000D02*
D03*
X761377Y10926217D02*
D03*
X508000Y10922000D02*
D03*
X254000D02*
D03*
X1016000Y11176000D02*
D03*
X762000D02*
D03*
X508000D02*
D03*
X254000D02*
D03*
X1270000D02*
D03*
X1524000D02*
D03*
X1778000D02*
D03*
X2032000D02*
D03*
X1270000Y10922000D02*
D03*
X1524000D02*
D03*
X1777377Y10926217D02*
D03*
X2032000Y10922000D02*
D03*
Y11430000D02*
D03*
X1777377Y11434217D02*
D03*
X1524000Y11430000D02*
D03*
X1270000D02*
D03*
X2032000Y11684000D02*
D03*
X1778000D02*
D03*
X1524000D02*
D03*
X1270000D02*
D03*
Y12700000D02*
D03*
X1524000D02*
D03*
X1778000D02*
D03*
X2032000D02*
D03*
X1270000Y12446000D02*
D03*
X1524000D02*
D03*
X1777377Y12450217D02*
D03*
X2032000Y12446000D02*
D03*
Y11938000D02*
D03*
X1777377Y11942217D02*
D03*
X1524000Y11938000D02*
D03*
X1270000D02*
D03*
X2032000Y12192000D02*
D03*
X1778000D02*
D03*
X1524000D02*
D03*
X1270000D02*
D03*
X254000D02*
D03*
X508000D02*
D03*
X762000D02*
D03*
X1016000D02*
D03*
X254000Y11938000D02*
D03*
X508000D02*
D03*
X761377Y11942217D02*
D03*
X1016000Y11938000D02*
D03*
Y12446000D02*
D03*
X761377Y12450217D02*
D03*
X508000Y12446000D02*
D03*
X254000D02*
D03*
X1016000Y12700000D02*
D03*
X762000D02*
D03*
X508000D02*
D03*
X254000D02*
D03*
Y16764000D02*
D03*
X508000D02*
D03*
X762000D02*
D03*
X1016000D02*
D03*
X254000Y16510001D02*
D03*
X508000D02*
D03*
X761377Y16514217D02*
D03*
X1016000Y16510001D02*
D03*
Y16002000D02*
D03*
X761377Y16006216D02*
D03*
X508000Y16002000D02*
D03*
X254000D02*
D03*
X1016000Y16256000D02*
D03*
X762000D02*
D03*
X508000D02*
D03*
X254000D02*
D03*
X1270000D02*
D03*
X1524000D02*
D03*
X1778000D02*
D03*
X2032000D02*
D03*
X1270000Y16002000D02*
D03*
X1524000D02*
D03*
X1777377Y16006216D02*
D03*
X2032000Y16002000D02*
D03*
Y16510001D02*
D03*
X1777377Y16514217D02*
D03*
X1524000Y16510001D02*
D03*
X1270000D02*
D03*
X2032000Y16764000D02*
D03*
X1778000D02*
D03*
X1524000D02*
D03*
X1270000D02*
D03*
Y15748000D02*
D03*
X1524000D02*
D03*
X1778000D02*
D03*
X2032000D02*
D03*
X1270000Y15494000D02*
D03*
X1524000D02*
D03*
X1777377Y15498216D02*
D03*
X2032000Y15494000D02*
D03*
Y14986000D02*
D03*
X1777377Y14990218D02*
D03*
X1524000Y14986000D02*
D03*
X1270000D02*
D03*
X2032000Y15239999D02*
D03*
X1778000D02*
D03*
X1524000D02*
D03*
X1270000D02*
D03*
X254000D02*
D03*
X508000D02*
D03*
X762000D02*
D03*
X1016000D02*
D03*
X254000Y14986000D02*
D03*
X508000D02*
D03*
X761377Y14990218D02*
D03*
X1016000Y14986000D02*
D03*
Y15494000D02*
D03*
X761377Y15498216D02*
D03*
X508000Y15494000D02*
D03*
X254000D02*
D03*
X1016000Y15748000D02*
D03*
X762000D02*
D03*
X508000D02*
D03*
X254000D02*
D03*
Y17780000D02*
D03*
X508000D02*
D03*
X762000D02*
D03*
X1016000D02*
D03*
X254000Y17525999D02*
D03*
X508000D02*
D03*
X761377Y17530217D02*
D03*
X1016000Y17525999D02*
D03*
Y17017999D02*
D03*
X761377Y17022217D02*
D03*
X508000Y17017999D02*
D03*
X254000D02*
D03*
X1016000Y17272000D02*
D03*
X762000D02*
D03*
X508000D02*
D03*
X254000D02*
D03*
X1270000D02*
D03*
X1524000D02*
D03*
X1778000D02*
D03*
X2032000D02*
D03*
X1270000Y17017999D02*
D03*
X1524000D02*
D03*
X1777377Y17022217D02*
D03*
X2032000Y17017999D02*
D03*
Y17525999D02*
D03*
X1777377Y17530217D02*
D03*
X1524000Y17525999D02*
D03*
X1270000D02*
D03*
X2032000Y17780000D02*
D03*
X1778000D02*
D03*
X1524000D02*
D03*
X1270000D02*
D03*
X1777377Y18546217D02*
D03*
X2032000Y18542000D02*
D03*
Y18034000D02*
D03*
X1777377Y18038217D02*
D03*
X1524000Y18034000D02*
D03*
X1270000D02*
D03*
X2032000Y18288000D02*
D03*
X1778000D02*
D03*
X1524000D02*
D03*
X1270000D02*
D03*
X254000D02*
D03*
X508000D02*
D03*
X762000D02*
D03*
X1016000D02*
D03*
X254000Y18034000D02*
D03*
X508000D02*
D03*
X761377Y18038217D02*
D03*
X1016000Y18034000D02*
D03*
X254000Y10668000D02*
D03*
X508000D02*
D03*
X761377Y10672217D02*
D03*
X1016000Y10668000D02*
D03*
Y10160000D02*
D03*
X761377Y10164217D02*
D03*
X508000Y10160000D02*
D03*
X254000D02*
D03*
X1016000Y10414000D02*
D03*
X762000D02*
D03*
X508000D02*
D03*
X254000D02*
D03*
X1270000D02*
D03*
X1524000D02*
D03*
X1778000D02*
D03*
X2032000D02*
D03*
X1270000Y10160000D02*
D03*
X1524000D02*
D03*
X1777377Y10164217D02*
D03*
X2032000Y10160000D02*
D03*
Y10668000D02*
D03*
X1777377Y10672217D02*
D03*
X1524000Y10668000D02*
D03*
X1270000D02*
D03*
Y9906000D02*
D03*
X1524000D02*
D03*
X1778000D02*
D03*
X2032000D02*
D03*
X1270000Y9652000D02*
D03*
X1524000D02*
D03*
X1777377Y9656217D02*
D03*
X2032000Y9652000D02*
D03*
Y9144000D02*
D03*
X1777377Y9148217D02*
D03*
X1524000Y9144000D02*
D03*
X1270000D02*
D03*
X2032000Y9398000D02*
D03*
X1778000D02*
D03*
X1524000D02*
D03*
X1270000D02*
D03*
X254000D02*
D03*
X508000D02*
D03*
X762000D02*
D03*
X1016000D02*
D03*
X254000Y9144000D02*
D03*
X508000D02*
D03*
X761377Y9148217D02*
D03*
X1016000Y9144000D02*
D03*
Y9652000D02*
D03*
X761377Y9656217D02*
D03*
X508000Y9652000D02*
D03*
X254000D02*
D03*
X1016000Y9906000D02*
D03*
X762000D02*
D03*
X508000D02*
D03*
X254000D02*
D03*
Y7874000D02*
D03*
X508000D02*
D03*
X762000D02*
D03*
X1016000D02*
D03*
X254000Y7620000D02*
D03*
X508000D02*
D03*
X761377Y7624217D02*
D03*
X1016000Y7620000D02*
D03*
Y7112000D02*
D03*
X761377Y7116217D02*
D03*
X508000Y7112000D02*
D03*
X254000D02*
D03*
X1016000Y7366000D02*
D03*
X762000D02*
D03*
X508000D02*
D03*
X254000D02*
D03*
X1270000D02*
D03*
X1524000D02*
D03*
X1778000D02*
D03*
X2032000D02*
D03*
X1270000Y7112000D02*
D03*
X1524000D02*
D03*
X1777377Y7116217D02*
D03*
X2032000Y7112000D02*
D03*
Y7620000D02*
D03*
X1777377Y7624217D02*
D03*
X1524000Y7620000D02*
D03*
X1270000D02*
D03*
X2032000Y7874000D02*
D03*
X1778000D02*
D03*
X1524000D02*
D03*
X1270000D02*
D03*
Y8890000D02*
D03*
X1524000D02*
D03*
X1778000D02*
D03*
X2032000D02*
D03*
X1270000Y8636000D02*
D03*
X1524000D02*
D03*
X1777377Y8640217D02*
D03*
X2032000Y8636000D02*
D03*
Y8128000D02*
D03*
X1777377Y8132217D02*
D03*
X1524000Y8128000D02*
D03*
X1270000D02*
D03*
X2032000Y8382000D02*
D03*
X1778000D02*
D03*
X1524000D02*
D03*
X1270000D02*
D03*
X254000D02*
D03*
X508000D02*
D03*
X762000D02*
D03*
X1016000D02*
D03*
X254000Y8128000D02*
D03*
X508000D02*
D03*
X761377Y8132217D02*
D03*
X1016000Y8128000D02*
D03*
Y8636000D02*
D03*
X761377Y8640217D02*
D03*
X508000Y8636000D02*
D03*
X254000D02*
D03*
X1016000Y8890000D02*
D03*
X762000D02*
D03*
X508000D02*
D03*
X254000D02*
D03*
Y4826000D02*
D03*
X508000D02*
D03*
X762000D02*
D03*
X1016000D02*
D03*
X254000Y4572000D02*
D03*
X508000D02*
D03*
X761377Y4576217D02*
D03*
X1016000Y4572000D02*
D03*
Y4064000D02*
D03*
X761377Y4068217D02*
D03*
X508000Y4064000D02*
D03*
X254000D02*
D03*
X1016000Y4318000D02*
D03*
X762000D02*
D03*
X508000D02*
D03*
X254000D02*
D03*
X1270000D02*
D03*
X1524000D02*
D03*
X1778000D02*
D03*
X2032000D02*
D03*
X1270000Y4064000D02*
D03*
X1524000D02*
D03*
X1777377Y4068217D02*
D03*
X2032000Y4064000D02*
D03*
Y4572000D02*
D03*
X1777377Y4576217D02*
D03*
X1524000Y4572000D02*
D03*
X1270000D02*
D03*
X2032000Y4826000D02*
D03*
X1778000D02*
D03*
X1524000D02*
D03*
X1270000D02*
D03*
Y3810000D02*
D03*
X1524000D02*
D03*
X1778000D02*
D03*
X2032000D02*
D03*
X1270000Y3556000D02*
D03*
X1524000D02*
D03*
X1777377Y3560217D02*
D03*
X2032000Y3556000D02*
D03*
Y3048000D02*
D03*
X1777377Y3052217D02*
D03*
X1524000Y3048000D02*
D03*
X1270000D02*
D03*
X2032000Y3302000D02*
D03*
X1778000D02*
D03*
X1524000D02*
D03*
X1270000D02*
D03*
X254000D02*
D03*
X508000D02*
D03*
X762000D02*
D03*
X1016000D02*
D03*
X254000Y3048000D02*
D03*
X508000D02*
D03*
X761377Y3052217D02*
D03*
X1016000Y3048000D02*
D03*
Y3556000D02*
D03*
X761377Y3560217D02*
D03*
X508000Y3556000D02*
D03*
X254000D02*
D03*
X1016000Y3810000D02*
D03*
X762000D02*
D03*
X508000D02*
D03*
X254000D02*
D03*
Y5842000D02*
D03*
X508000D02*
D03*
X762000D02*
D03*
X1016000D02*
D03*
X254000Y5588000D02*
D03*
X508000D02*
D03*
X761377Y5592217D02*
D03*
X1016000Y5588000D02*
D03*
Y5080000D02*
D03*
X761377Y5084217D02*
D03*
X508000Y5080000D02*
D03*
X254000D02*
D03*
X1016000Y5334000D02*
D03*
X762000D02*
D03*
X508000D02*
D03*
X254000D02*
D03*
X1270000D02*
D03*
X1524000D02*
D03*
X1778000D02*
D03*
X2032000D02*
D03*
X1270000Y5080000D02*
D03*
X1524000D02*
D03*
X1777377Y5084217D02*
D03*
X2032000Y5080000D02*
D03*
Y5588000D02*
D03*
X1777377Y5592217D02*
D03*
X1524000Y5588000D02*
D03*
X1270000D02*
D03*
X2032000Y5842000D02*
D03*
X1778000D02*
D03*
X1524000D02*
D03*
X1270000D02*
D03*
Y6858000D02*
D03*
X1524000D02*
D03*
X1778000D02*
D03*
X2032000D02*
D03*
X1270000Y6604000D02*
D03*
X1524000D02*
D03*
X1777377Y6608217D02*
D03*
X2032000Y6604000D02*
D03*
Y6096000D02*
D03*
X1777377Y6100217D02*
D03*
X1524000Y6096000D02*
D03*
X1270000D02*
D03*
X2032000Y6350000D02*
D03*
X1778000D02*
D03*
X1524000D02*
D03*
X1270000D02*
D03*
X254000D02*
D03*
X508000D02*
D03*
X762000D02*
D03*
X1016000D02*
D03*
X254000Y6096000D02*
D03*
X508000D02*
D03*
X761377Y6100217D02*
D03*
X1016000Y6096000D02*
D03*
Y6604000D02*
D03*
X761377Y6608217D02*
D03*
X508000Y6604000D02*
D03*
X254000D02*
D03*
X1016000Y6858000D02*
D03*
X762000D02*
D03*
X508000D02*
D03*
X254000D02*
D03*
X7721600Y8584660D02*
D03*
Y8709660D02*
D03*
X7818120D02*
D03*
Y8584660D02*
D03*
X5372100Y10795000D02*
D03*
Y10642600D02*
D03*
Y10528300D02*
D03*
X7544918Y12664638D02*
D03*
Y12867838D02*
D03*
X7354418D02*
D03*
X7434580Y13610591D02*
D03*
X6380912Y10371003D02*
D03*
X6295002D02*
D03*
X5600700Y10759887D02*
D03*
X11503399Y11944924D02*
D03*
X6295002Y9536490D02*
D03*
X6230912D02*
D03*
X12497783Y4719937D02*
D03*
X12582209Y4589165D02*
D03*
X12828964Y4696025D02*
D03*
X12545494Y4644789D02*
D03*
X12743040Y4696025D02*
D03*
X12579447Y4719937D02*
D03*
X13073380Y5326380D02*
D03*
X8234680Y16193639D02*
D03*
X7997351Y16383437D02*
D03*
X8404860Y15925252D02*
D03*
Y15800252D02*
D03*
X9972040Y6158139D02*
D03*
X10175240D02*
D03*
X9768840D02*
D03*
X11191240Y6154420D02*
D03*
X11394440D02*
D03*
X10777220Y6158139D02*
D03*
X10988040Y6154420D02*
D03*
X10370820Y6158139D02*
D03*
X10574020D02*
D03*
X10868660Y6385560D02*
D03*
X11071860D02*
D03*
X11275060D02*
D03*
X10251440Y6389279D02*
D03*
X10454640D02*
D03*
X10657840D02*
D03*
X11805920Y5951220D02*
D03*
X11602720Y6154420D02*
D03*
X11805920D02*
D03*
X12009120D02*
D03*
Y5951220D02*
D03*
X11805951Y6759111D02*
D03*
Y6555911D02*
D03*
X12009151Y6759111D02*
D03*
Y6555911D02*
D03*
Y6352711D02*
D03*
X11805951D02*
D03*
X11275060Y6588760D02*
D03*
X11071860D02*
D03*
X10868660D02*
D03*
X10657840Y6592479D02*
D03*
X10454640D02*
D03*
X10251440D02*
D03*
X14724380Y12194540D02*
D03*
X14879729Y12391923D02*
D03*
X5670154Y5075590D02*
D03*
Y6294645D02*
D03*
Y6091445D02*
D03*
Y5888245D02*
D03*
Y5481845D02*
D03*
Y5278645D02*
D03*
X7981554Y7120145D02*
D03*
Y6916945D02*
D03*
X8184754D02*
D03*
X7981554Y6713745D02*
D03*
X8184754D02*
D03*
X8387954D02*
D03*
Y6916945D02*
D03*
X8184754Y7120145D02*
D03*
X8387954D02*
D03*
X7981554Y5900945D02*
D03*
Y5494545D02*
D03*
X8184754D02*
D03*
Y5900945D02*
D03*
X8387954Y5494545D02*
D03*
Y5900945D02*
D03*
X7981554Y5697745D02*
D03*
X5873354Y5888245D02*
D03*
X8184754Y5697745D02*
D03*
X5873354Y5481845D02*
D03*
X5670154Y5685045D02*
D03*
X5873354D02*
D03*
X8387954Y5697745D02*
D03*
X7981554Y6104145D02*
D03*
Y6510545D02*
D03*
Y6307345D02*
D03*
X8184754D02*
D03*
X8387954D02*
D03*
X8184754Y6510545D02*
D03*
X8387954D02*
D03*
X8184754Y6104145D02*
D03*
X8387954D02*
D03*
X7981554Y5088290D02*
D03*
Y5291345D02*
D03*
X8184754D02*
D03*
Y5088290D02*
D03*
X8387954D02*
D03*
Y5291345D02*
D03*
X5670154Y6497845D02*
D03*
Y6701045D02*
D03*
X5873354Y6497845D02*
D03*
Y6701045D02*
D03*
Y7107445D02*
D03*
Y6904245D02*
D03*
X5670154D02*
D03*
Y7107445D02*
D03*
X6076554Y6701045D02*
D03*
Y7107445D02*
D03*
Y6904245D02*
D03*
Y6497845D02*
D03*
X5873354Y6294645D02*
D03*
X6076554Y5481845D02*
D03*
Y5685045D02*
D03*
Y6294645D02*
D03*
Y5888245D02*
D03*
X5873354Y6091445D02*
D03*
X6076554D02*
D03*
X5873354Y5278645D02*
D03*
Y5075590D02*
D03*
X6076554D02*
D03*
Y5278645D02*
D03*
X5873354Y3043590D02*
D03*
Y3449990D02*
D03*
Y3246790D02*
D03*
Y2840390D02*
D03*
X5670154D02*
D03*
X8387954Y3665890D02*
D03*
X8184754D02*
D03*
X8387954Y4275490D02*
D03*
X7981554Y4681890D02*
D03*
Y3665890D02*
D03*
Y4275490D02*
D03*
Y4072290D02*
D03*
X8184754Y3869090D02*
D03*
Y4072290D02*
D03*
Y4478690D02*
D03*
Y4681890D02*
D03*
Y4275490D02*
D03*
X8387954Y3869090D02*
D03*
Y4072290D02*
D03*
Y4681890D02*
D03*
Y4478690D02*
D03*
X5670154Y4262790D02*
D03*
Y3856390D02*
D03*
Y3246790D02*
D03*
Y3449990D02*
D03*
Y3653190D02*
D03*
Y4872390D02*
D03*
Y4465990D02*
D03*
Y4059590D02*
D03*
Y4669190D02*
D03*
X8184754Y3462690D02*
D03*
X8387954Y3259490D02*
D03*
Y3056290D02*
D03*
Y3462690D02*
D03*
X8184754Y3056290D02*
D03*
X7981554D02*
D03*
X8184754Y3259490D02*
D03*
X7981554Y3462690D02*
D03*
Y3259490D02*
D03*
X5873354Y4872390D02*
D03*
X5670154Y3043590D02*
D03*
X6076554Y3246790D02*
D03*
Y3043590D02*
D03*
Y3449990D02*
D03*
Y2840390D02*
D03*
Y4872390D02*
D03*
X5873354Y3653190D02*
D03*
Y3856390D02*
D03*
Y4059590D02*
D03*
Y4262790D02*
D03*
Y4669190D02*
D03*
Y4465990D02*
D03*
X6076554Y3856390D02*
D03*
Y3653190D02*
D03*
Y4465990D02*
D03*
Y4669190D02*
D03*
Y4059590D02*
D03*
Y4262790D02*
D03*
X7981554Y3869090D02*
D03*
Y4478690D02*
D03*
Y4885090D02*
D03*
X8184754D02*
D03*
X8387954D02*
D03*
X8299296Y17251961D02*
D03*
X8786301Y17825337D02*
D03*
X16869511Y10575999D02*
D03*
X17104660Y11361659D02*
D03*
X17017999Y11363399D02*
D03*
X16776532D02*
D03*
X16666692D02*
D03*
X16539752D02*
D03*
X19075400Y12258652D02*
D03*
X12755631Y4993070D02*
D03*
X15326540Y14048006D02*
D03*
X9060990Y9490762D02*
D03*
X8637778Y9488434D02*
D03*
X9731064Y9388221D02*
D03*
X8520695Y11907587D02*
D03*
X8519264Y11492921D02*
D03*
X8725100Y12300002D02*
D03*
X8991010Y12416842D02*
D03*
X8759190D02*
D03*
X9652598Y12483363D02*
D03*
X10075103D02*
D03*
X10725100Y12482882D02*
D03*
X10297602D02*
D03*
X11440789Y11714788D02*
D03*
X11504506Y11872503D02*
D03*
Y11672503D02*
D03*
Y11272504D02*
D03*
X11505361Y10812847D02*
D03*
X11506601Y10427506D02*
D03*
Y10180372D02*
D03*
Y10267313D02*
D03*
X11510441Y9650002D02*
D03*
Y10072507D02*
D03*
X11063877Y9584243D02*
D03*
X9170780Y9498538D02*
D03*
X10825100Y11597692D02*
D03*
X9224901Y11600232D02*
D03*
X10525001Y9900002D02*
D03*
X10525100Y9700002D02*
D03*
X4280330Y10687101D02*
D03*
Y10864900D02*
D03*
X7151218Y12664638D02*
D03*
Y12867838D02*
D03*
X7354418Y12664638D02*
D03*
X6948018D02*
D03*
Y12867838D02*
D03*
X7748118Y12664638D02*
D03*
Y12867838D02*
D03*
X2743200Y12725254D02*
D03*
Y12522054D02*
D03*
Y12928600D02*
D03*
Y13335001D02*
D03*
Y13538200D02*
D03*
Y13131799D02*
D03*
Y13741400D02*
D03*
Y13944600D02*
D03*
X15201900Y14300200D02*
D03*
X15405099D02*
D03*
Y14503400D02*
D03*
X15201900D02*
D03*
X15608299D02*
D03*
X15811501D02*
D03*
Y14300200D02*
D03*
X15608299D02*
D03*
X17183099Y13893800D02*
D03*
X14833600Y15530302D02*
D03*
X14935201D02*
D03*
Y15428702D02*
D03*
X14833600D02*
D03*
X18834100Y19215100D02*
D03*
Y19418300D02*
D03*
Y19608800D02*
D03*
Y19812000D02*
D03*
X18224500D02*
D03*
X18427699D02*
D03*
X18630901D02*
D03*
Y19608800D02*
D03*
X18427699D02*
D03*
X18224500D02*
D03*
Y19418300D02*
D03*
X18427699D02*
D03*
X18630901D02*
D03*
Y19215100D02*
D03*
X18427699D02*
D03*
X18224500D02*
D03*
X14389101D02*
D03*
X14592300D02*
D03*
X14795500D02*
D03*
Y19418300D02*
D03*
X14592300D02*
D03*
X14389101D02*
D03*
Y19608800D02*
D03*
X14592300D02*
D03*
X14795500D02*
D03*
Y19812000D02*
D03*
X14592300D02*
D03*
X14389101D02*
D03*
X14998700D02*
D03*
X15201900D02*
D03*
X15405099D02*
D03*
Y19608800D02*
D03*
X15201900D02*
D03*
X14998700D02*
D03*
Y19418300D02*
D03*
X15201900D02*
D03*
X15405099D02*
D03*
Y19215100D02*
D03*
X15201900D02*
D03*
X14998700D02*
D03*
X15608299D02*
D03*
X15811501D02*
D03*
X16014700D02*
D03*
Y19418300D02*
D03*
X15811501D02*
D03*
X15608299D02*
D03*
Y19608800D02*
D03*
X15811501D02*
D03*
X16014700D02*
D03*
Y19812000D02*
D03*
X15811501D02*
D03*
X15608299D02*
D03*
X16611600D02*
D03*
X16814799D02*
D03*
X17017999D02*
D03*
Y19608800D02*
D03*
X16814799D02*
D03*
X16611600D02*
D03*
Y19418300D02*
D03*
X16814799D02*
D03*
X17017999D02*
D03*
X16611600Y19215100D02*
D03*
X16205200D02*
D03*
X16408400D02*
D03*
Y19418300D02*
D03*
X16205200D02*
D03*
Y19608800D02*
D03*
X16408400D02*
D03*
Y19812000D02*
D03*
X16205200D02*
D03*
X17208501D02*
D03*
X17411700D02*
D03*
Y19608800D02*
D03*
X17208501D02*
D03*
Y19418300D02*
D03*
X17411700D02*
D03*
Y19215100D02*
D03*
X17208501D02*
D03*
X17614900D02*
D03*
X17818100D02*
D03*
X18021300D02*
D03*
Y19418300D02*
D03*
X17818100D02*
D03*
X17614900D02*
D03*
Y19608800D02*
D03*
X17818100D02*
D03*
X18021300D02*
D03*
Y19812000D02*
D03*
X17818100D02*
D03*
X17614900D02*
D03*
X19843686Y13747263D02*
D03*
X19640488D02*
D03*
X19437286D02*
D03*
X19500482Y15029259D02*
D03*
X19703682D02*
D03*
Y15232458D02*
D03*
X19500482D02*
D03*
X19297282D02*
D03*
Y15029259D02*
D03*
X19316701Y16357600D02*
D03*
Y16560800D02*
D03*
X19519901D02*
D03*
X19723100D02*
D03*
Y16357600D02*
D03*
X19519901D02*
D03*
X17297400Y16738600D02*
D03*
X17500600D02*
D03*
X17703799D02*
D03*
Y16941800D02*
D03*
X17500600D02*
D03*
X17297400D02*
D03*
X17907001D02*
D03*
X18110201D02*
D03*
X18313400D02*
D03*
Y16738600D02*
D03*
X18110201D02*
D03*
X17907001D02*
D03*
X18719800D02*
D03*
X18516600Y16941800D02*
D03*
X19519901D02*
D03*
X19723100D02*
D03*
Y16738600D02*
D03*
X19519901D02*
D03*
X19113499D02*
D03*
X19316701D02*
D03*
Y16941800D02*
D03*
X19113499D02*
D03*
X13462000Y16738600D02*
D03*
X13665199D02*
D03*
X13868401D02*
D03*
Y16941800D02*
D03*
X13665199D02*
D03*
X13462000D02*
D03*
X14071600D02*
D03*
X14274800D02*
D03*
X14478000D02*
D03*
Y16738600D02*
D03*
X14274800D02*
D03*
X14071600D02*
D03*
X14681200D02*
D03*
X14884399D02*
D03*
X15087601D02*
D03*
Y16941800D02*
D03*
X14884399D02*
D03*
X14681200D02*
D03*
X15684500D02*
D03*
X15887700D02*
D03*
X16090900D02*
D03*
Y16738600D02*
D03*
X15887700D02*
D03*
X15684500D02*
D03*
X15278101D02*
D03*
X15481300D02*
D03*
Y16941800D02*
D03*
X15278101D02*
D03*
X16281400D02*
D03*
X16484599D02*
D03*
Y16738600D02*
D03*
X16281400D02*
D03*
X16687801D02*
D03*
X16891000D02*
D03*
X17094200D02*
D03*
Y16941800D02*
D03*
X16891000D02*
D03*
X16687801D02*
D03*
X16916400Y13627100D02*
D03*
Y13436600D02*
D03*
X17373599Y13309599D02*
D03*
X17183099D02*
D03*
X17843500Y13404388D02*
D03*
X17653000D02*
D03*
X4368800Y12280900D02*
D03*
Y12484100D02*
D03*
X4165600D02*
D03*
Y12280900D02*
D03*
X4775200D02*
D03*
Y12484100D02*
D03*
Y12687300D02*
D03*
X4572000D02*
D03*
Y12484100D02*
D03*
Y12280900D02*
D03*
Y12890500D02*
D03*
X4775200D02*
D03*
X14414500Y13462000D02*
D03*
X14617700D02*
D03*
X14808200D02*
D03*
X14211301D02*
D03*
X14008099D02*
D03*
X13817599D02*
D03*
X13614400D02*
D03*
X16256000Y13068300D02*
D03*
Y13271500D02*
D03*
Y13474699D02*
D03*
X16459200D02*
D03*
Y13271500D02*
D03*
Y13068300D02*
D03*
X16649699D02*
D03*
Y13271500D02*
D03*
Y13474699D02*
D03*
X16052800Y13068300D02*
D03*
Y13271500D02*
D03*
Y13474699D02*
D03*
X15849600D02*
D03*
Y13271500D02*
D03*
Y13068300D02*
D03*
X15659100D02*
D03*
Y13271500D02*
D03*
Y13474699D02*
D03*
X15455901D02*
D03*
Y13271500D02*
D03*
Y13068300D02*
D03*
X16992599Y12026900D02*
D03*
X17195799D02*
D03*
X17399001D02*
D03*
Y11823700D02*
D03*
X17195799D02*
D03*
X16992599D02*
D03*
Y11633200D02*
D03*
X17195799D02*
D03*
X17399001D02*
D03*
X16992599Y12230100D02*
D03*
X17195799D02*
D03*
X17399001D02*
D03*
Y12433300D02*
D03*
X17195799D02*
D03*
X16992599D02*
D03*
Y12623800D02*
D03*
X17195799D02*
D03*
X17399001D02*
D03*
Y12827000D02*
D03*
X17195799D02*
D03*
X16992599D02*
D03*
X17589500Y12026900D02*
D03*
Y11823700D02*
D03*
Y11633200D02*
D03*
Y12230100D02*
D03*
Y12433300D02*
D03*
Y12623800D02*
D03*
Y12827000D02*
D03*
X15875000Y11430000D02*
D03*
Y11633200D02*
D03*
X15671800D02*
D03*
Y11430000D02*
D03*
X13842999Y10363200D02*
D03*
Y10160000D02*
D03*
X13639799Y9956800D02*
D03*
X13233400D02*
D03*
X13436600D02*
D03*
X13030200D02*
D03*
Y9753600D02*
D03*
X13233400Y9550400D02*
D03*
X13436600D02*
D03*
Y9753600D02*
D03*
X13233400D02*
D03*
X13842999Y9956800D02*
D03*
X14452600Y9753600D02*
D03*
X13842999D02*
D03*
X13639799D02*
D03*
Y9550400D02*
D03*
X13842999D02*
D03*
X14046201D02*
D03*
X14249400D02*
D03*
Y9753600D02*
D03*
X14046201D02*
D03*
X14249400Y10363200D02*
D03*
X14046201D02*
D03*
X14249400Y10566400D02*
D03*
Y10160000D02*
D03*
X14046201D02*
D03*
Y9956800D02*
D03*
X14249400D02*
D03*
X14452600D02*
D03*
X14655800D02*
D03*
X14859000Y10160000D02*
D03*
X14655800D02*
D03*
X14452600D02*
D03*
Y10566400D02*
D03*
X14655800D02*
D03*
X14859000D02*
D03*
Y10363200D02*
D03*
X14655800D02*
D03*
X14452600D02*
D03*
Y10769600D02*
D03*
X14655800D02*
D03*
X14859000D02*
D03*
Y10972800D02*
D03*
X14655800D02*
D03*
X14452600D02*
D03*
Y11163300D02*
D03*
X14655800D02*
D03*
X14859000D02*
D03*
Y11366500D02*
D03*
X14655800D02*
D03*
X14452600D02*
D03*
X15062199D02*
D03*
Y11163300D02*
D03*
Y10972800D02*
D03*
Y10769600D02*
D03*
Y10363200D02*
D03*
Y10566400D02*
D03*
X12781084Y11836143D02*
D03*
X12577884D02*
D03*
Y11645643D02*
D03*
X12781084D02*
D03*
X10937690Y8966995D02*
D03*
X10734490D02*
D03*
Y8776495D02*
D03*
X10937690D02*
D03*
X10942858Y8611174D02*
D03*
X10739658D02*
D03*
Y8420674D02*
D03*
X10942858D02*
D03*
X12978603Y8260624D02*
D03*
X13181802D02*
D03*
X13385002D02*
D03*
Y8463824D02*
D03*
X13181802D02*
D03*
X12978603D02*
D03*
Y8654324D02*
D03*
X13181802D02*
D03*
X13385002D02*
D03*
Y8857524D02*
D03*
X13181802D02*
D03*
X12978603D02*
D03*
X13588202D02*
D03*
Y8654324D02*
D03*
Y8463824D02*
D03*
Y8260624D02*
D03*
X16710316Y9955931D02*
D03*
Y10159131D02*
D03*
X16507117D02*
D03*
Y9955931D02*
D03*
X16316617D02*
D03*
Y10159131D02*
D03*
X16113417D02*
D03*
Y9955931D02*
D03*
X15388223Y8705776D02*
D03*
X15591425D02*
D03*
Y8908976D02*
D03*
X15388223D02*
D03*
Y9099476D02*
D03*
X15591425D02*
D03*
Y9302676D02*
D03*
X15388223D02*
D03*
X14852403Y7463787D02*
D03*
X15055605D02*
D03*
X15258804D02*
D03*
X14852403Y7666987D02*
D03*
X15055605D02*
D03*
X15258804D02*
D03*
Y7870187D02*
D03*
X15055605D02*
D03*
X14852403D02*
D03*
Y8060687D02*
D03*
X15055605D02*
D03*
X15258804D02*
D03*
Y8263887D02*
D03*
X15055605D02*
D03*
X14852403D02*
D03*
X15462004D02*
D03*
X15665204D02*
D03*
Y8060687D02*
D03*
X15462004D02*
D03*
Y7870187D02*
D03*
X15665204D02*
D03*
Y7666987D02*
D03*
X15462004D02*
D03*
X15665204Y7463787D02*
D03*
X15462004D02*
D03*
X17447357Y9643941D02*
D03*
X17637857Y9847141D02*
D03*
Y9643941D02*
D03*
X8458200Y14363699D02*
D03*
X8661400D02*
D03*
Y14160500D02*
D03*
X8458200D02*
D03*
Y14566901D02*
D03*
X8661400D02*
D03*
Y14770100D02*
D03*
X8458200D02*
D03*
Y14960600D02*
D03*
X8661400D02*
D03*
X8255000D02*
D03*
X8051800D02*
D03*
X7848600D02*
D03*
Y14770100D02*
D03*
X8051800D02*
D03*
X8255000D02*
D03*
Y14566901D02*
D03*
X8051800D02*
D03*
X7848600D02*
D03*
Y14160500D02*
D03*
X8051800D02*
D03*
X8255000D02*
D03*
Y14363699D02*
D03*
X8051800D02*
D03*
X7848600D02*
D03*
X10706100Y12953999D02*
D03*
Y12750800D02*
D03*
X11303000D02*
D03*
X11112500D02*
D03*
Y12953999D02*
D03*
X10909300D02*
D03*
Y12750800D02*
D03*
X9906000Y12953999D02*
D03*
Y12750800D02*
D03*
X10502900Y12953999D02*
D03*
Y12750800D02*
D03*
X10312400D02*
D03*
Y12953999D02*
D03*
X10109200D02*
D03*
Y12750800D02*
D03*
X9105900Y12953999D02*
D03*
Y12750800D02*
D03*
X9702800Y12953999D02*
D03*
Y12750800D02*
D03*
X9512300D02*
D03*
Y12953999D02*
D03*
X9309100D02*
D03*
Y12750800D02*
D03*
X10942858Y8062012D02*
D03*
X10739658D02*
D03*
Y8252512D02*
D03*
X10942858D02*
D03*
X12090400Y9842500D02*
D03*
X12293600Y9639300D02*
D03*
X12090400D02*
D03*
X12293600Y9436100D02*
D03*
X12090400D02*
D03*
X12293600Y9842500D02*
D03*
Y10045700D02*
D03*
X12090400D02*
D03*
Y11252200D02*
D03*
X12293600D02*
D03*
Y11049000D02*
D03*
X12090400D02*
D03*
Y10858500D02*
D03*
X12293600D02*
D03*
Y10655300D02*
D03*
X12090400D02*
D03*
Y10248900D02*
D03*
X12293600D02*
D03*
Y10452100D02*
D03*
X12090400D02*
D03*
Y12458700D02*
D03*
X12293600D02*
D03*
Y12255500D02*
D03*
X12090400D02*
D03*
Y12065000D02*
D03*
X12293600D02*
D03*
Y11861800D02*
D03*
X12090400D02*
D03*
Y11455400D02*
D03*
X12293600D02*
D03*
Y11658600D02*
D03*
X12090400D02*
D03*
X10236200Y9258300D02*
D03*
X10033000D02*
D03*
X9469120Y8851900D02*
D03*
Y9055100D02*
D03*
X9639300D02*
D03*
Y8851900D02*
D03*
X9829800D02*
D03*
Y9055100D02*
D03*
X10033000D02*
D03*
Y8851900D02*
D03*
Y8242300D02*
D03*
Y8445500D02*
D03*
Y8648700D02*
D03*
X9829800D02*
D03*
Y8445500D02*
D03*
Y8242300D02*
D03*
X9639300D02*
D03*
Y8445500D02*
D03*
Y8648700D02*
D03*
X9469120D02*
D03*
Y8445500D02*
D03*
Y8242300D02*
D03*
Y8039100D02*
D03*
X9639300D02*
D03*
X9829800D02*
D03*
X10033000D02*
D03*
X4368800Y12687300D02*
D03*
Y12890500D02*
D03*
X3759200D02*
D03*
X3962400D02*
D03*
X4165600D02*
D03*
Y12687300D02*
D03*
X3962400D02*
D03*
X3759200D02*
D03*
Y13093700D02*
D03*
X3962400D02*
D03*
X4165600D02*
D03*
Y13296899D02*
D03*
X3962400D02*
D03*
X3759200D02*
D03*
X4368800D02*
D03*
X4572000D02*
D03*
X4775200D02*
D03*
Y13093700D02*
D03*
X4572000D02*
D03*
X4368800D02*
D03*
X4978400D02*
D03*
X5181600D02*
D03*
X5384800D02*
D03*
Y13296899D02*
D03*
X5181600D02*
D03*
X4978400D02*
D03*
X3556000Y13741400D02*
D03*
X3352800D02*
D03*
X3149600D02*
D03*
Y13944600D02*
D03*
X3352800D02*
D03*
X3556000D02*
D03*
X2946400D02*
D03*
Y13741400D02*
D03*
X4978400Y13944600D02*
D03*
X5181600D02*
D03*
X5384800D02*
D03*
Y13741400D02*
D03*
X5181600D02*
D03*
X4978400D02*
D03*
X4368800D02*
D03*
X4572000D02*
D03*
X4775200D02*
D03*
Y13944600D02*
D03*
X4572000D02*
D03*
X4368800D02*
D03*
X3759200D02*
D03*
X3962400D02*
D03*
X4165600D02*
D03*
Y13741400D02*
D03*
X3962400D02*
D03*
X3759200D02*
D03*
X10638224Y16624300D02*
D03*
X10828724D02*
D03*
X11031924D02*
D03*
Y16827499D02*
D03*
X10828724D02*
D03*
X10638224D02*
D03*
X10106982Y15748000D02*
D03*
X10310182D02*
D03*
X10500682D02*
D03*
X11899900D02*
D03*
X11709400D02*
D03*
X10718800Y15951199D02*
D03*
X10909300D02*
D03*
X11112500D02*
D03*
X11506200D02*
D03*
X11315700D02*
D03*
Y15748000D02*
D03*
X11506200D02*
D03*
X11112500D02*
D03*
X10909300D02*
D03*
X10718800D02*
D03*
X11709400Y16929100D02*
D03*
Y16725900D02*
D03*
Y16535400D02*
D03*
Y16332201D02*
D03*
Y15951199D02*
D03*
Y16128999D02*
D03*
X11912600D02*
D03*
Y15951199D02*
D03*
Y16332201D02*
D03*
Y16535400D02*
D03*
Y16725900D02*
D03*
Y16929100D02*
D03*
X3506901Y10014000D02*
D03*
X3862501D02*
D03*
X3684701D02*
D03*
X3862501Y10268000D02*
D03*
X3684701D02*
D03*
X3506901D02*
D03*
X3684701Y10522000D02*
D03*
X3862501D02*
D03*
X3506901D02*
D03*
X2783001Y10522002D02*
D03*
X2605201D02*
D03*
X3138601D02*
D03*
X2960801D02*
D03*
Y10014000D02*
D03*
X3138601D02*
D03*
X2960801Y10268000D02*
D03*
X3138601D02*
D03*
X2783001Y10014000D02*
D03*
X2605201D02*
D03*
Y10268000D02*
D03*
X2783001D02*
D03*
X13779500Y19812000D02*
D03*
X13982700D02*
D03*
X14185899D02*
D03*
Y19608800D02*
D03*
X13982700D02*
D03*
X13779500D02*
D03*
Y19418300D02*
D03*
X13982700D02*
D03*
X14185899D02*
D03*
Y19215100D02*
D03*
X13982700D02*
D03*
X13779500D02*
D03*
X13373100D02*
D03*
X13576300D02*
D03*
Y19418300D02*
D03*
X13373100D02*
D03*
Y19608800D02*
D03*
X13576300D02*
D03*
Y19812000D02*
D03*
X13373100D02*
D03*
X12369800D02*
D03*
X12573000D02*
D03*
Y19608800D02*
D03*
X12369800D02*
D03*
Y19418300D02*
D03*
X12573000D02*
D03*
Y19215100D02*
D03*
X12369800D02*
D03*
Y18414999D02*
D03*
X12573000D02*
D03*
Y18618201D02*
D03*
X12369800D02*
D03*
Y18808701D02*
D03*
X12573000D02*
D03*
Y19011900D02*
D03*
X12369800D02*
D03*
X12776200D02*
D03*
X12979401D02*
D03*
X13182600D02*
D03*
Y18808701D02*
D03*
X12979401D02*
D03*
X12776200D02*
D03*
Y18618201D02*
D03*
X12979401D02*
D03*
X13182600D02*
D03*
Y18414999D02*
D03*
X12979401D02*
D03*
X12776200D02*
D03*
Y19215100D02*
D03*
X12979401D02*
D03*
X13182600D02*
D03*
Y19418300D02*
D03*
X12979401D02*
D03*
X12776200D02*
D03*
Y19608800D02*
D03*
X12979401D02*
D03*
X13182600D02*
D03*
Y19812000D02*
D03*
X12979401D02*
D03*
X12776200D02*
D03*
X11772900D02*
D03*
X11976100D02*
D03*
X12179300D02*
D03*
Y19608800D02*
D03*
X11976100D02*
D03*
X11772900D02*
D03*
Y19418300D02*
D03*
X11976100D02*
D03*
X12179300D02*
D03*
Y19215100D02*
D03*
X11976100D02*
D03*
X11772900D02*
D03*
Y18414999D02*
D03*
X11976100D02*
D03*
X12179300D02*
D03*
Y18618201D02*
D03*
X11976100D02*
D03*
X11772900D02*
D03*
Y18808701D02*
D03*
X11976100D02*
D03*
X12179300D02*
D03*
Y19011900D02*
D03*
X11976100D02*
D03*
X11772900D02*
D03*
X11163300D02*
D03*
X11366500D02*
D03*
X11569700D02*
D03*
Y18808701D02*
D03*
X11366500D02*
D03*
X11163300D02*
D03*
Y18618201D02*
D03*
X11366500D02*
D03*
X11569700D02*
D03*
Y18414999D02*
D03*
X11366500D02*
D03*
X11163300D02*
D03*
Y19215100D02*
D03*
X11366500D02*
D03*
X11569700D02*
D03*
Y19418300D02*
D03*
X11366500D02*
D03*
X11163300D02*
D03*
Y19608800D02*
D03*
X11366500D02*
D03*
X11569700D02*
D03*
Y19812000D02*
D03*
X11366500D02*
D03*
X11163300D02*
D03*
X10553700D02*
D03*
X10756900D02*
D03*
X10960100D02*
D03*
Y19608800D02*
D03*
X10756900D02*
D03*
X10553700D02*
D03*
Y19418300D02*
D03*
X10756900D02*
D03*
X10960100D02*
D03*
Y19215100D02*
D03*
X10756900D02*
D03*
X10553700D02*
D03*
Y18414999D02*
D03*
X10756900D02*
D03*
X10960100D02*
D03*
Y18618201D02*
D03*
X10756900D02*
D03*
X10553700D02*
D03*
Y18808701D02*
D03*
X10756900D02*
D03*
X10960100D02*
D03*
Y19011900D02*
D03*
X10756900D02*
D03*
X10553700D02*
D03*
X7607300Y16637000D02*
D03*
X7200900Y18237199D02*
D03*
X7404100Y18034000D02*
D03*
Y18237199D02*
D03*
X7810500Y17437100D02*
D03*
X8013700D02*
D03*
Y17233900D02*
D03*
X7810500D02*
D03*
Y17043401D02*
D03*
X8013700D02*
D03*
Y16840199D02*
D03*
X7810500D02*
D03*
Y17640300D02*
D03*
X8013700D02*
D03*
Y17843500D02*
D03*
X7810500D02*
D03*
Y18034000D02*
D03*
X8013700D02*
D03*
Y18237199D02*
D03*
X7810500D02*
D03*
X7607300D02*
D03*
Y18034000D02*
D03*
Y17843500D02*
D03*
Y17640300D02*
D03*
Y16840199D02*
D03*
Y17043401D02*
D03*
Y17233900D02*
D03*
Y17437100D02*
D03*
X7200900Y19037300D02*
D03*
X7404100D02*
D03*
X7607300D02*
D03*
Y18834100D02*
D03*
X7404100D02*
D03*
X7200900D02*
D03*
Y18643600D02*
D03*
X7404100D02*
D03*
X7607300D02*
D03*
Y18440401D02*
D03*
X7404100D02*
D03*
X7200900D02*
D03*
Y19240500D02*
D03*
X7404100D02*
D03*
X7607300D02*
D03*
X8216900D02*
D03*
X8013700D02*
D03*
X7810500D02*
D03*
Y18440401D02*
D03*
X8013700D02*
D03*
X8216900D02*
D03*
Y18643600D02*
D03*
X8013700D02*
D03*
X7810500D02*
D03*
Y18834100D02*
D03*
X8013700D02*
D03*
X8216900D02*
D03*
Y19037300D02*
D03*
X8013700D02*
D03*
X7810500D02*
D03*
X19467162Y12258652D02*
D03*
X7630218Y15921773D02*
D03*
X7957726D02*
D03*
X8420100Y19037300D02*
D03*
X8623300D02*
D03*
X8826500D02*
D03*
Y18834100D02*
D03*
X8623300D02*
D03*
X8420100D02*
D03*
Y18643600D02*
D03*
X8623300D02*
D03*
X8826500D02*
D03*
Y18440401D02*
D03*
X8623300D02*
D03*
X8420100D02*
D03*
Y19240500D02*
D03*
X8623300D02*
D03*
X8826500D02*
D03*
X18823940Y17145000D02*
D03*
X13928406Y15113776D02*
D03*
X14030005D02*
D03*
Y15215375D02*
D03*
X13928406D02*
D03*
X14131606D02*
D03*
X14233205D02*
D03*
Y15113776D02*
D03*
X14131606D02*
D03*
X14538005D02*
D03*
X14639606D02*
D03*
Y15215375D02*
D03*
X14538005D02*
D03*
X14334805D02*
D03*
X14436404D02*
D03*
Y15113776D02*
D03*
X14334805D02*
D03*
X13866614Y17697107D02*
D03*
Y17595506D02*
D03*
X13765015D02*
D03*
X13866614Y17493907D02*
D03*
X13765015D02*
D03*
X14476215Y17290707D02*
D03*
X14577814D02*
D03*
Y17392307D02*
D03*
X14476215D02*
D03*
X14679414D02*
D03*
X14781013D02*
D03*
Y17290707D02*
D03*
X14679414D02*
D03*
X14882614Y17392307D02*
D03*
Y17290707D02*
D03*
X14069814D02*
D03*
X14171414D02*
D03*
Y17392307D02*
D03*
X14069814D02*
D03*
X14273013D02*
D03*
X14374614D02*
D03*
Y17290707D02*
D03*
X14273013D02*
D03*
X13866614D02*
D03*
X13968214D02*
D03*
Y17392307D02*
D03*
X13866614D02*
D03*
X13663414D02*
D03*
X13765015D02*
D03*
Y17290707D02*
D03*
X13663414D02*
D03*
X13794951Y14275580D02*
D03*
X13712154D02*
D03*
X13890401Y14382274D02*
D03*
Y14275580D02*
D03*
Y14168886D02*
D03*
X13712154Y14382274D02*
D03*
Y14168886D02*
D03*
X13794951D02*
D03*
Y14381494D02*
D03*
X17417377Y14053064D02*
D03*
Y14168129D02*
D03*
X17531677Y14053064D02*
D03*
Y14168129D02*
D03*
Y13920557D02*
D03*
X17417377D02*
D03*
X17303078D02*
D03*
X17322800Y14168129D02*
D03*
Y14053064D02*
D03*
X17880219Y16177539D02*
D03*
X18897600Y18675349D02*
D03*
X18033975Y15057120D02*
D03*
X18669000Y14655800D02*
D03*
X18580099D02*
D03*
X18313400D02*
D03*
X18491200D02*
D03*
X18402299Y14262100D02*
D03*
X18313400Y14528799D02*
D03*
X18402299Y14389101D02*
D03*
X18745200Y14503400D02*
D03*
X18834100D02*
D03*
X18669000D02*
D03*
X18491200D02*
D03*
X18580099D02*
D03*
X19340709Y12256880D02*
D03*
X19208751Y12258311D02*
D03*
X19041161Y12376859D02*
D03*
Y12312756D02*
D03*
X19404187Y12258660D02*
D03*
X19274654Y12258713D02*
D03*
X19146867Y12257909D02*
D03*
X16291560Y14004626D02*
D03*
X16538608Y14224001D02*
D03*
X14776205Y5508290D02*
D03*
X13860983Y5429336D02*
D03*
X13939624D02*
D03*
X14844901Y5510543D02*
D03*
X13939624Y5368079D02*
D03*
X14259438Y4536562D02*
D03*
X14262100Y5143500D02*
D03*
X14274800Y4610100D02*
D03*
X14262100Y4686300D02*
D03*
X13860983Y5500741D02*
D03*
X12650711Y4261962D02*
D03*
X12649235Y4197152D02*
D03*
X12313582Y4597016D02*
D03*
X12522769Y4828162D02*
D03*
X12261091Y4565334D02*
D03*
X12603458Y4993314D02*
D03*
X13126987Y5605450D02*
D03*
X13331709Y5719766D02*
D03*
X13392139Y5692033D02*
D03*
X14093794Y4311650D02*
D03*
X13391789Y4216712D02*
D03*
X13392078Y4155683D02*
D03*
X13204366Y4161311D02*
D03*
X13276562Y4181022D02*
D03*
X12528365Y4974551D02*
D03*
X12698223Y4946196D02*
D03*
X12880461Y4074862D02*
D03*
X12882076Y4141866D02*
D03*
X12910648Y5063735D02*
D03*
X12823483Y4924770D02*
D03*
X12899284Y4930122D02*
D03*
X14166286Y4311322D02*
D03*
X12497783Y4886233D02*
D03*
X10525001Y10300055D02*
D03*
X10325001D02*
D03*
X10025107Y10399904D02*
D03*
X9725147Y10200109D02*
D03*
X12962054Y5106995D02*
D03*
X6553418Y13697258D02*
D03*
X6622423Y13726859D02*
D03*
X6553418Y13765617D02*
D03*
Y13516515D02*
D03*
X6622423Y13665898D02*
D03*
Y13579538D02*
D03*
X6553418Y13579124D02*
D03*
X6622423Y13518578D02*
D03*
X13560083Y5721192D02*
D03*
X13472360Y5717373D02*
D03*
X13245384Y5540807D02*
D03*
X13289799Y5587999D02*
D03*
X13075121Y5563489D02*
D03*
X5695788Y10318625D02*
D03*
X5480595Y10325704D02*
D03*
X5602401Y10371003D02*
D03*
X5329351Y10317237D02*
D03*
X6375005Y9536500D02*
D03*
X5548163Y9528799D02*
D03*
X5687490Y9541591D02*
D03*
X5424601Y9531001D02*
D03*
X6063135Y9545681D02*
D03*
X6132972Y9544594D02*
D03*
X10325100Y10900002D02*
D03*
X10425100Y10700002D02*
D03*
X10325100D02*
D03*
Y10800002D02*
D03*
X10125100D02*
D03*
X10225100D02*
D03*
X10325100Y10600002D02*
D03*
X10125100D02*
D03*
Y10500002D02*
D03*
X10225100Y10700002D02*
D03*
X10325100Y10500004D02*
D03*
X10225100Y10600280D02*
D03*
X10125100Y10700002D02*
D03*
X10525100Y12000002D02*
D03*
X9524901Y12000002D02*
D03*
X9724901D02*
D03*
X9324901D02*
D03*
X9224901D02*
D03*
X10225001Y12000102D02*
D03*
X10425100Y12000002D02*
D03*
X10125001Y12000102D02*
D03*
X10325001Y12000102D02*
D03*
X9624901Y12000002D02*
D03*
X9124901D02*
D03*
X10525100Y11900002D02*
D03*
X9125100D02*
D03*
X9724901D02*
D03*
X9524901D02*
D03*
X9924901D02*
D03*
X10625100D02*
D03*
X10125001Y11900102D02*
D03*
X9324901Y11900002D02*
D03*
X10225001Y11900102D02*
D03*
X9824901Y10700002D02*
D03*
X9724901Y10800002D02*
D03*
Y10700002D02*
D03*
Y10900002D02*
D03*
X9724885Y10600280D02*
D03*
X9824901Y10500005D02*
D03*
X9724885Y10500007D02*
D03*
X9725001Y10399903D02*
D03*
X9824901Y10900002D02*
D03*
Y10800002D02*
D03*
X9625162Y10900068D02*
D03*
X9824901Y10600280D02*
D03*
X9825001Y10399903D02*
D03*
X10125100Y10900002D02*
D03*
X10225100D02*
D03*
X10525100Y10600002D02*
D03*
X10625100Y10900002D02*
D03*
X9924901Y10700002D02*
D03*
X9925001Y10200002D02*
D03*
X9924901Y10600002D02*
D03*
Y11200002D02*
D03*
Y11100002D02*
D03*
X9925004Y10399886D02*
D03*
X9925001Y10100002D02*
D03*
X9924901Y10900002D02*
D03*
Y10800002D02*
D03*
Y10500005D02*
D03*
X10525100Y11500002D02*
D03*
X10427099Y11499999D02*
D03*
X10425100Y11800003D02*
D03*
X10425001Y11400102D02*
D03*
X10427099Y11599999D02*
D03*
X10425100Y11700000D02*
D03*
Y11200002D02*
D03*
X10725100Y11800003D02*
D03*
Y11200002D02*
D03*
X10525100Y11800001D02*
D03*
Y11700003D02*
D03*
X10625100Y11500002D02*
D03*
Y11800003D02*
D03*
X9724901Y11100002D02*
D03*
X9824901Y11200002D02*
D03*
Y11100002D02*
D03*
X9724901Y11200002D02*
D03*
X10125100Y11100002D02*
D03*
X10325100Y11200002D02*
D03*
X10125100D02*
D03*
X10325100Y11100002D02*
D03*
X10225100Y11200002D02*
D03*
Y11100002D02*
D03*
X10725100Y12200003D02*
D03*
X10625100D02*
D03*
Y12100002D02*
D03*
X9824901D02*
D03*
X10725100D02*
D03*
X9924901Y12200003D02*
D03*
X10425100D02*
D03*
X9824901D02*
D03*
X10425100Y12100000D02*
D03*
X10125001Y12100102D02*
D03*
X10125100Y10000002D02*
D03*
X10325100Y10000006D02*
D03*
X10525100Y10000002D02*
D03*
X10625001D02*
D03*
X10125100Y9800002D02*
D03*
X10425100Y9900002D02*
D03*
X10325100D02*
D03*
X10725001D02*
D03*
X10525100Y9800002D02*
D03*
X10725100D02*
D03*
X10625100Y9900006D02*
D03*
X10725001Y10000002D02*
D03*
X10325100Y9800002D02*
D03*
X10225001Y12200102D02*
D03*
X9624902Y12299937D02*
D03*
X9224901Y12200003D02*
D03*
X9124901D02*
D03*
X9324901D02*
D03*
X9624902D02*
D03*
X9524901D02*
D03*
X9424901D02*
D03*
X9724901D02*
D03*
X10325001Y12200102D02*
D03*
X10325100Y10200002D02*
D03*
X10125100Y10400002D02*
D03*
X10225001Y10100002D02*
D03*
X10325100Y10100002D02*
D03*
X10225100Y10400002D02*
D03*
X10125100Y10100002D02*
D03*
X10425100Y10400002D02*
D03*
X10625001Y10200002D02*
D03*
X10225001D02*
D03*
X10425001D02*
D03*
X10725100Y10400002D02*
D03*
X10425100Y10300002D02*
D03*
X10625100D02*
D03*
X10725100Y10100002D02*
D03*
X9324901Y12100002D02*
D03*
X9724901Y12100002D02*
D03*
X9226034Y12100001D02*
D03*
X9624901Y12100002D02*
D03*
X9524901D02*
D03*
X9124901Y12100002D02*
D03*
X9825001Y10299903D02*
D03*
X9725001Y10100002D02*
D03*
X9725001Y10299903D02*
D03*
X9825001Y10200002D02*
D03*
Y10099903D02*
D03*
X6095001Y9720002D02*
D03*
X6175001Y9720001D02*
D03*
X5775001Y9720002D02*
D03*
X6015001D02*
D03*
X6255001D02*
D03*
X5935001D02*
D03*
X6335001D02*
D03*
X6015001Y9640002D02*
D03*
X5855001D02*
D03*
X5935001Y9800002D02*
D03*
X5855001D02*
D03*
X6175001Y9800000D02*
D03*
X6335001Y9800002D02*
D03*
X6095001D02*
D03*
X6015001D02*
D03*
X5775001Y10040002D02*
D03*
X5935001Y10040003D02*
D03*
X6175001Y10040002D02*
D03*
X6335001Y10120002D02*
D03*
X6095001Y10040002D02*
D03*
X2605201Y11030002D02*
D03*
Y11284002D02*
D03*
Y11538002D02*
D03*
X3506901Y9252002D02*
D03*
X3862501D02*
D03*
X3684701D02*
D03*
X3138601D02*
D03*
X2960801D02*
D03*
X2783001D02*
D03*
X4280330Y9264701D02*
D03*
Y9442501D02*
D03*
X4280201Y9353604D02*
D03*
X4280330Y9175547D02*
D03*
X5996101Y8998002D02*
D03*
X5805601D02*
D03*
X5894501Y8820202D02*
D03*
X5716701D02*
D03*
X5512748Y8651931D02*
D03*
X5690548D02*
D03*
X6554148Y8753531D02*
D03*
X6376348D02*
D03*
Y8982131D02*
D03*
X3684701Y11538002D02*
D03*
X3862501D02*
D03*
X2960801D02*
D03*
X2783001D02*
D03*
X4040301D02*
D03*
Y11792002D02*
D03*
X2783001Y9506002D02*
D03*
X6575001Y9640002D02*
D03*
X5855001Y9560002D02*
D03*
X6008801Y9379002D02*
D03*
X6059601Y9467902D02*
D03*
X6495001Y9640002D02*
D03*
X6415003Y9640005D02*
D03*
X5943600Y9118600D02*
D03*
Y9232900D02*
D03*
X5945301Y9467902D02*
D03*
X5881801Y9379002D02*
D03*
X5577001D02*
D03*
X5818301Y9467902D02*
D03*
X5513501Y9379002D02*
D03*
X2605201Y9506002D02*
D03*
Y9760002D02*
D03*
Y10776002D02*
D03*
Y9252002D02*
D03*
X8675101Y10750002D02*
D03*
X8825100Y11200006D02*
D03*
X8824901Y11400003D02*
D03*
X8825001Y10000002D02*
D03*
X8675101Y10350203D02*
D03*
X8605500Y10950005D02*
D03*
X8725001Y10599906D02*
D03*
X8825001Y10600002D02*
D03*
X8675101Y10450008D02*
D03*
X8825001Y10900002D02*
D03*
X6575001Y9720002D02*
D03*
X6495001Y10120002D02*
D03*
Y10280002D02*
D03*
X6575001D02*
D03*
X6495001Y9720002D02*
D03*
Y10200002D02*
D03*
X6575001Y9800000D02*
D03*
X9625001Y9799903D02*
D03*
X9725001Y9799904D02*
D03*
X9425001Y9799903D02*
D03*
X9025001D02*
D03*
X8725001Y9800002D02*
D03*
X8825096D02*
D03*
X9825001Y9799903D02*
D03*
X9025001Y9699903D02*
D03*
X8825100Y9700002D02*
D03*
X8925001Y9699903D02*
D03*
X9625001Y9699903D02*
D03*
X9725001Y9699903D02*
D03*
X5803900Y10871200D02*
D03*
X5935002Y10199997D02*
D03*
X5935001Y10120007D02*
D03*
X6175004Y10120008D02*
D03*
X6335001Y10200002D02*
D03*
X6055003Y10371003D02*
D03*
X5935005Y10280003D02*
D03*
X6215003Y10371003D02*
D03*
X6135002D02*
D03*
X5775006Y10280002D02*
D03*
X2783001Y10776002D02*
D03*
Y9760002D02*
D03*
Y11284002D02*
D03*
Y11030002D02*
D03*
X3138601Y10776002D02*
D03*
X2960801Y11030002D02*
D03*
Y11284002D02*
D03*
Y10776002D02*
D03*
X3684701D02*
D03*
X4040301Y11030002D02*
D03*
X3862501Y10776002D02*
D03*
Y11030002D02*
D03*
X3684701D02*
D03*
X3506901Y10776002D02*
D03*
Y9506002D02*
D03*
X4280330Y9531401D02*
D03*
X3684701Y9506002D02*
D03*
X3862501D02*
D03*
X3138601D02*
D03*
X4280330Y9620321D02*
D03*
X2960801Y9506002D02*
D03*
X5499100Y10896600D02*
D03*
X5372100D02*
D03*
X5664200D02*
D03*
X4040301Y11284002D02*
D03*
X3862501D02*
D03*
X3684701D02*
D03*
X5534226Y10039990D02*
D03*
X5614996Y10200002D02*
D03*
X5775001D02*
D03*
X5615001Y9720002D02*
D03*
X5695001Y10120002D02*
D03*
X5694996Y10039998D02*
D03*
X5695001Y10200005D02*
D03*
X5615001Y10120002D02*
D03*
X5775000Y10120008D02*
D03*
X5695001Y9720002D02*
D03*
X4280330Y10776001D02*
D03*
X9225003Y9899907D02*
D03*
X9425001Y9999903D02*
D03*
X9325001Y9899903D02*
D03*
X9225001Y9999903D02*
D03*
X9125100Y10300002D02*
D03*
X9325102Y10300006D02*
D03*
X9125100Y10200004D02*
D03*
X9425001Y10200002D02*
D03*
X9425100Y10300002D02*
D03*
X9625100Y11000003D02*
D03*
X9624901Y10700002D02*
D03*
X9625033Y11899435D02*
D03*
X9625001Y10199903D02*
D03*
X9625004Y9900252D02*
D03*
X9625006Y10300253D02*
D03*
X9625001Y10100002D02*
D03*
Y9999903D02*
D03*
X9625100Y10500002D02*
D03*
X9525097Y10900004D02*
D03*
X9425097Y10900003D02*
D03*
X9624997Y11100102D02*
D03*
X9525100Y11000003D02*
D03*
X9525001Y11200002D02*
D03*
Y10800002D02*
D03*
X9425100Y11000003D02*
D03*
X9425001Y10799903D02*
D03*
X9024901Y11300003D02*
D03*
Y11400003D02*
D03*
X9025100Y11100004D02*
D03*
X9024901Y11600002D02*
D03*
Y11800003D02*
D03*
X9125097Y11000004D02*
D03*
X9125100Y10800002D02*
D03*
Y10500002D02*
D03*
X9126376Y11300892D02*
D03*
X9125100Y10900002D02*
D03*
X9124901Y11200002D02*
D03*
X9225897Y10999207D02*
D03*
X9224901Y11800003D02*
D03*
Y11500002D02*
D03*
X9324901Y11200002D02*
D03*
X9224901Y11299998D02*
D03*
X9225096Y10400004D02*
D03*
X9325897Y10900004D02*
D03*
X9324700Y10800342D02*
D03*
X9225500Y10900803D02*
D03*
X9325491Y10700002D02*
D03*
X9325100Y11000003D02*
D03*
X9225100Y10700002D02*
D03*
X9325099Y10600002D02*
D03*
X9325100Y10500004D02*
D03*
X9324901Y11800003D02*
D03*
X8924795Y10900803D02*
D03*
X8925499Y10999207D02*
D03*
X9024701Y10800280D02*
D03*
X8925100Y11100006D02*
D03*
Y10700002D02*
D03*
X9025100Y10200002D02*
D03*
Y10400002D02*
D03*
X8924549Y9900002D02*
D03*
X8925093Y10300201D02*
D03*
X9025099Y10500007D02*
D03*
X8925102Y10000005D02*
D03*
X8925101Y10500003D02*
D03*
X8925001Y10600002D02*
D03*
X8925096Y10100153D02*
D03*
X10725100Y9700002D02*
D03*
X10925100Y11900002D02*
D03*
Y9700003D02*
D03*
X11025100Y11600002D02*
D03*
Y11400003D02*
D03*
X10925001Y11300102D02*
D03*
X11025001Y11800102D02*
D03*
X10925100Y11200002D02*
D03*
X11025100Y9700002D02*
D03*
X10925100Y9800002D02*
D03*
Y12100002D02*
D03*
Y12300003D02*
D03*
Y12200003D02*
D03*
X11125001Y12300102D02*
D03*
X10825100Y12100002D02*
D03*
X11325100Y9700002D02*
D03*
X11225100Y11200002D02*
D03*
X10825001Y12000102D02*
D03*
X10825100Y10500002D02*
D03*
Y11900002D02*
D03*
Y11500002D02*
D03*
Y11800003D02*
D03*
Y10200002D02*
D03*
X10425100Y12300002D02*
D03*
X10725100Y12300003D02*
D03*
X10625100D02*
D03*
X10825100Y12200003D02*
D03*
X9024901D02*
D03*
X9425032Y12300003D02*
D03*
X9024901D02*
D03*
X9724901D02*
D03*
X9324901D02*
D03*
X9224901Y12300001D02*
D03*
X10825100Y12300003D02*
D03*
X9824901Y12300903D02*
D03*
X11225100Y11600002D02*
D03*
X11325001Y12300102D02*
D03*
X11225001Y11800102D02*
D03*
X11225001Y12000102D02*
D03*
X11225100Y11400003D02*
D03*
X8924901Y12200003D02*
D03*
X8824901Y11800003D02*
D03*
X8925100Y11900002D02*
D03*
X8824901Y11600002D02*
D03*
X9124901Y12300003D02*
D03*
X8924901D02*
D03*
X9524901D02*
D03*
X10925100Y9900005D02*
D03*
X10825100Y10000002D02*
D03*
X11225100Y10500002D02*
D03*
Y9900002D02*
D03*
Y10300002D02*
D03*
X11025100Y10400002D02*
D03*
Y10300002D02*
D03*
Y10100002D02*
D03*
X11225100Y10900002D02*
D03*
Y10100002D02*
D03*
X10825100Y10700002D02*
D03*
X11025100Y10900002D02*
D03*
X11225100Y10700002D02*
D03*
X10227099Y11499999D02*
D03*
X10324901Y11400000D02*
D03*
X10225100Y11300003D02*
D03*
X10325100D02*
D03*
X10125100D02*
D03*
Y11500001D02*
D03*
X10325100Y11800003D02*
D03*
X10225100D02*
D03*
X9524901D02*
D03*
X9624901D02*
D03*
X9924901Y11800002D02*
D03*
X9724901Y11800003D02*
D03*
X9824901Y11700003D02*
D03*
X9624901Y11700002D02*
D03*
X9724901Y11600002D02*
D03*
X9524901Y11500002D02*
D03*
X9424901D02*
D03*
X9624901Y11300003D02*
D03*
X9724901Y11300002D02*
D03*
X9924901D02*
D03*
X9824901D02*
D03*
X9724901Y11400003D02*
D03*
X9924901D02*
D03*
X10325100Y11700000D02*
D03*
X10125100Y11700003D02*
D03*
X10125001Y11600102D02*
D03*
X10225100Y11700003D02*
D03*
X10324899Y11599999D02*
D03*
X3138601Y9760002D02*
D03*
X2960801D02*
D03*
X3684701D02*
D03*
X4280330Y10331501D02*
D03*
Y10597947D02*
D03*
Y9798101D02*
D03*
Y9708947D02*
D03*
X4280330Y10509301D02*
D03*
X4280330Y9886747D02*
D03*
Y10420147D02*
D03*
Y10242855D02*
D03*
Y9975901D02*
D03*
Y10064547D02*
D03*
Y10153701D02*
D03*
X5456352Y9640002D02*
D03*
X5454999Y10120008D02*
D03*
X5375475Y10120480D02*
D03*
X5291943Y9636005D02*
D03*
X5454998Y9720002D02*
D03*
X5375001Y9640002D02*
D03*
X5375002Y10200004D02*
D03*
X5454998Y9800002D02*
D03*
X5454997Y10200004D02*
D03*
X5295002Y10200007D02*
D03*
X5374998Y9720003D02*
D03*
X3862501Y9760002D02*
D03*
X3506901D02*
D03*
X8663136Y17640366D02*
D03*
Y17504071D02*
D03*
X16642081Y18394679D02*
D03*
X16979900Y18737579D02*
D03*
X16891000Y18742661D02*
D03*
X16878300Y10947400D02*
D03*
Y11049000D02*
D03*
X13975420Y4413250D02*
D03*
X14668500Y4267200D02*
D03*
X14770100Y4330700D02*
D03*
X15138400Y4318000D02*
D03*
Y4229100D02*
D03*
X15265401D02*
D03*
Y4318000D02*
D03*
X15392400Y4229100D02*
D03*
Y4318000D02*
D03*
X15519400D02*
D03*
Y4229100D02*
D03*
X15633701Y4318000D02*
D03*
Y4229100D02*
D03*
X16459200Y4279900D02*
D03*
Y4368800D02*
D03*
Y4457700D02*
D03*
X16548100Y4279900D02*
D03*
Y4368800D02*
D03*
Y4457700D02*
D03*
X16738600Y4279900D02*
D03*
Y4368800D02*
D03*
Y4457700D02*
D03*
X16827499Y4279900D02*
D03*
Y4368800D02*
D03*
Y4457700D02*
D03*
X16992599Y4279900D02*
D03*
Y4368800D02*
D03*
Y4457700D02*
D03*
X17081500Y4279900D02*
D03*
Y4368800D02*
D03*
Y4457700D02*
D03*
X13512801Y4991100D02*
D03*
X13970000Y5143500D02*
D03*
X15570200Y4470400D02*
D03*
X15659100D02*
D03*
X15824200Y5549900D02*
D03*
Y4914900D02*
D03*
X15925887Y5373385D02*
D03*
X15925888Y5106684D02*
D03*
X16281400Y5524500D02*
D03*
Y4912360D02*
D03*
Y4965700D02*
D03*
X16282463Y5580369D02*
D03*
X16992599Y4559300D02*
D03*
Y4648200D02*
D03*
Y4737100D02*
D03*
X17081500Y4559300D02*
D03*
Y4648200D02*
D03*
Y4737100D02*
D03*
X17373599Y4559300D02*
D03*
X17461230Y5600700D02*
D03*
X17514571D02*
D03*
X17602200Y4546600D02*
D03*
X17754601Y4737100D02*
D03*
Y4826000D02*
D03*
D98*
X17565590Y7980838D02*
D03*
X17675592D02*
D03*
X17785590D02*
D03*
X17565590Y7870836D02*
D03*
X17675592D02*
D03*
X17785590D02*
D03*
X17565590Y7760838D02*
D03*
X17675592D02*
D03*
X17785590D02*
D03*
X17565590Y7650836D02*
D03*
X17675592D02*
D03*
X17785590D02*
D03*
X17565590Y7540839D02*
D03*
X17675592D02*
D03*
X17785590D02*
D03*
X17565590Y7430837D02*
D03*
X17675592D02*
D03*
X17785590D02*
D03*
X17565590Y7320839D02*
D03*
X17675592D02*
D03*
X17785590D02*
D03*
X17565590Y7210837D02*
D03*
X17675592D02*
D03*
X17785590D02*
D03*
X17565590Y7100840D02*
D03*
X17675592D02*
D03*
X17785590D02*
D03*
X19055186Y11655758D02*
D03*
Y11733761D02*
D03*
Y11811759D02*
D03*
X19227190D02*
D03*
Y11733761D02*
D03*
Y11655758D02*
D03*
X6838622Y13686797D02*
D03*
X6896123Y13781798D02*
D03*
X6781122D02*
D03*
X6838622Y13876799D02*
D03*
X18028987Y14045331D02*
D03*
X18128987D02*
D03*
Y13845331D02*
D03*
X18228987D02*
D03*
Y14045331D02*
D03*
Y13945331D02*
D03*
X18128987D02*
D03*
X18028987Y13845331D02*
D03*
Y13945331D02*
D03*
X9788799Y14172484D02*
D03*
X9898801D02*
D03*
X10008798D02*
D03*
X10118801D02*
D03*
X10228803D02*
D03*
X9788799Y14062482D02*
D03*
X9898801D02*
D03*
X10008798D02*
D03*
X10118801D02*
D03*
X10228803D02*
D03*
X9788799Y13952486D02*
D03*
X9898801D02*
D03*
X10008798D02*
D03*
X10118801D02*
D03*
X10228803D02*
D03*
X9788799Y13842482D02*
D03*
X9898801D02*
D03*
X10008798D02*
D03*
X10118801D02*
D03*
X10228803D02*
D03*
X9788799Y13732480D02*
D03*
X9898801D02*
D03*
X10008798D02*
D03*
X10118801D02*
D03*
X10228803D02*
D03*
X16079628Y15872340D02*
D03*
Y15762338D02*
D03*
Y15652342D02*
D03*
Y15542339D02*
D03*
Y15432343D02*
D03*
X15969626Y15872340D02*
D03*
Y15762338D02*
D03*
Y15652342D02*
D03*
Y15542339D02*
D03*
Y15432343D02*
D03*
X15859628Y15872340D02*
D03*
Y15762338D02*
D03*
Y15652342D02*
D03*
Y15542339D02*
D03*
Y15432343D02*
D03*
X15749626Y15872340D02*
D03*
Y15762338D02*
D03*
Y15652342D02*
D03*
Y15542339D02*
D03*
Y15432343D02*
D03*
X15639629Y15872340D02*
D03*
Y15762338D02*
D03*
Y15652342D02*
D03*
Y15542339D02*
D03*
Y15432343D02*
D03*
X18077927Y15732741D02*
D03*
X18187927D02*
D03*
X18077927Y15622739D02*
D03*
X18187927D02*
D03*
X16550763Y17707283D02*
D03*
Y17817285D02*
D03*
Y17927283D02*
D03*
Y18037285D02*
D03*
Y18147282D02*
D03*
X16660767Y17707283D02*
D03*
Y17817285D02*
D03*
Y17927283D02*
D03*
Y18037285D02*
D03*
Y18147282D02*
D03*
X16770763Y17707283D02*
D03*
Y17817285D02*
D03*
Y17927283D02*
D03*
Y18037285D02*
D03*
Y18147282D02*
D03*
X16880765Y17707283D02*
D03*
Y17817285D02*
D03*
Y17927283D02*
D03*
Y18037285D02*
D03*
Y18147282D02*
D03*
X16990762Y17707283D02*
D03*
Y17817285D02*
D03*
Y17927283D02*
D03*
Y18037285D02*
D03*
Y18147282D02*
D03*
D99*
X7992727Y15450806D02*
D03*
Y15550806D02*
D03*
Y15650806D02*
D03*
X7892727D02*
D03*
Y15550806D02*
D03*
Y15450806D02*
D03*
X7792727D02*
D03*
Y15550806D02*
D03*
Y15650806D02*
D03*
X16815366Y14083066D02*
D03*
X16915366D02*
D03*
X17015366D02*
D03*
Y14183066D02*
D03*
X16915366D02*
D03*
X16815366D02*
D03*
Y14283066D02*
D03*
X16915366D02*
D03*
X17015366D02*
D03*
X15068103Y14146107D02*
D03*
X14968103D02*
D03*
X14868103D02*
D03*
Y14046107D02*
D03*
X14968103D02*
D03*
X15068103D02*
D03*
Y13946107D02*
D03*
X14968103D02*
D03*
X14868103D02*
D03*
D100*
X15939998Y10829999D02*
D03*
X15787598D02*
D03*
X15635197D02*
D03*
X16244798Y10677599D02*
D03*
X16168597Y10601399D02*
D03*
X16320998D02*
D03*
Y10753799D02*
D03*
Y10906199D02*
D03*
Y11058599D02*
D03*
X16244798Y10829999D02*
D03*
Y10982399D02*
D03*
X16168597Y10753799D02*
D03*
Y10906199D02*
D03*
Y11058599D02*
D03*
X16092398Y10677599D02*
D03*
Y10829999D02*
D03*
Y10982399D02*
D03*
X16016199Y10601399D02*
D03*
Y10753799D02*
D03*
Y10906199D02*
D03*
Y11058599D02*
D03*
X15939998Y10677599D02*
D03*
Y10982399D02*
D03*
X15863799Y10601399D02*
D03*
Y10753799D02*
D03*
Y10906199D02*
D03*
Y11058599D02*
D03*
X15787598Y10677599D02*
D03*
Y10982399D02*
D03*
X15711398Y10601399D02*
D03*
Y10753799D02*
D03*
Y10906199D02*
D03*
Y11058599D02*
D03*
X15635197Y10677599D02*
D03*
Y10982399D02*
D03*
X15558998Y11058599D02*
D03*
Y10906199D02*
D03*
Y10753799D02*
D03*
Y10601399D02*
D03*
D101*
X13062975Y5988501D02*
X13065669Y5985807D01*
X12924017Y6127459D02*
X13062975Y5988501D01*
X12850072Y6053515D02*
X12924017Y6127459D01*
X12808763Y6094824D02*
X12850072Y6053515D01*
X12808763Y6094824D02*
X12990862Y6276923D01*
X12949553Y6318232D02*
X12990862Y6276923D01*
X12739606Y6108285D02*
X12949553Y6318232D01*
X12698297Y6149595D02*
X12739606Y6108285D01*
X12698297Y6149595D02*
X12908244Y6359541D01*
X12866936Y6400851D02*
X12908244Y6359541D01*
X12656988Y6190904D02*
X12866936Y6400851D01*
X12615679Y6232213D02*
X12656988Y6190904D01*
X12615679Y6232213D02*
X12825626Y6442160D01*
X12784316Y6483469D02*
X12825626Y6442160D01*
X12574370Y6273522D02*
X12784316Y6483469D01*
X12533060Y6314831D02*
X12574370Y6273522D01*
X12533060Y6314831D02*
X12743007Y6524778D01*
X12701698Y6566087D02*
X12743007Y6524778D01*
X12491751Y6356140D02*
X12701698Y6566087D01*
X12450442Y6397450D02*
X12491751Y6356140D01*
X12450442Y6397450D02*
X12660389Y6607396D01*
X12619080Y6648706D02*
X12660389Y6607396D01*
X12409133Y6438759D02*
X12619080Y6648706D01*
X12367824Y6480068D02*
X12409133Y6438759D01*
X12367824Y6480068D02*
X12577770Y6690015D01*
X12536461Y6731324D02*
X12577770Y6690015D01*
X12326515Y6521377D02*
X12536461Y6731324D01*
X12285205Y6562686D02*
X12326515Y6521377D01*
X12285205Y6562686D02*
X12495152Y6772633D01*
X12453843Y6813942D02*
X12495152Y6772633D01*
X12243896Y6603996D02*
X12453843Y6813942D01*
X12202587Y6645305D02*
X12243896Y6603996D01*
X12202587Y6645305D02*
X12412534Y6855251D01*
X12371224Y6896561D02*
X12412534Y6855251D01*
X12161278Y6686614D02*
X12371224Y6896561D01*
X12119969Y6727923D02*
X12161278Y6686614D01*
X12119969Y6727923D02*
X12329915Y6937870D01*
X12288606Y6979179D02*
X12329915Y6937870D01*
X12078659Y6769232D02*
X12288606Y6979179D01*
X12037350Y6810541D02*
X12078659Y6769232D01*
X12037350Y6810541D02*
X12247297Y7020488D01*
X12205988Y7061797D02*
X12247297Y7020488D01*
X12097833Y6953643D02*
X12205988Y7061797D01*
X12097832Y6953643D02*
X12097833Y6953643D01*
X12095138Y6956338D02*
X12097833Y6953643D01*
X11928405Y7123071D02*
X12095138Y6956338D01*
X13065669Y5985807D02*
X13331709Y5719766D01*
X11928405Y7123071D02*
Y8296697D01*
X10525100Y9700002D02*
X11928405Y8296697D01*
%TF.MD5,9a77f160db3b2351e766a6f080f7d637*%
M02*
