%TF.GenerationSoftware,Altium Limited,Altium Designer,23.11.1 (41)*%
G04 Layer_Physical_Order=3*
G04 Layer_Color=6736896*
%FSLAX45Y45*%
%MOMM*%
%TF.SameCoordinates,75D3B97C-BFDA-4FAF-9EB3-CC348FD6A853*%
%TF.FilePolarity,Positive*%
%TF.FileFunction,Copper,L3,Inr,Signal*%
%TF.Part,Single*%
G01*
G75*
%TA.AperFunction,Conductor*%
%ADD81C,0.10160*%
%ADD82C,0.15240*%
%TA.AperFunction,ComponentPad*%
%ADD86C,6.20000*%
%ADD87C,2.20000*%
%ADD88C,3.81000*%
G04:AMPARAMS|DCode=89|XSize=1.524mm|YSize=1.524mm|CornerRadius=0mm|HoleSize=0mm|Usage=FLASHONLY|Rotation=90.000|XOffset=0mm|YOffset=0mm|HoleType=Round|Shape=Octagon|*
%AMOCTAGOND89*
4,1,8,0.38100,0.76200,-0.38100,0.76200,-0.76200,0.38100,-0.76200,-0.38100,-0.38100,-0.76200,0.38100,-0.76200,0.76200,-0.38100,0.76200,0.38100,0.38100,0.76200,0.0*
%
%ADD89OCTAGOND89*%

%ADD90C,1.52400*%
%ADD91C,3.00000*%
%ADD92C,1.60000*%
%ADD93C,0.60000*%
%ADD94R,1.90500X1.90500*%
%ADD95C,1.90500*%
%ADD96R,3.00000X3.00000*%
%TA.AperFunction,ViaPad*%
%ADD97C,0.30480*%
%ADD98C,0.50000*%
%ADD99C,0.55880*%
%ADD100C,0.50800*%
%TA.AperFunction,Conductor*%
%ADD101C,0.07620*%
D81*
X7371352Y9674422D02*
X7744805Y10047874D01*
X7273403Y9772371D02*
X7371352Y9674422D01*
X7230297Y9729266D02*
X7273403Y9772371D01*
X7230297Y9729266D02*
X7368470Y9591094D01*
X7325365Y9547989D02*
X7368470Y9591094D01*
X7086792Y9786561D02*
X7325365Y9547989D01*
X7043687Y9743456D02*
X7086792Y9786561D01*
X7043687Y9743456D02*
X7242037Y9545106D01*
X7238443Y9541513D02*
X7242037Y9545106D01*
X7744805Y10047874D02*
X8345333Y10648402D01*
X6784587Y11248266D02*
X7146797D01*
X6784587D02*
Y11349624D01*
X6723627D02*
X6784587D01*
X6723627Y11233399D02*
Y11349624D01*
X6662667Y11233399D02*
X6723627D01*
X6662667D02*
Y11463434D01*
X6601707D02*
X6662667D01*
X6601707Y11233399D02*
Y11463434D01*
X6540747Y11233399D02*
X6601707D01*
X6540747D02*
Y11463434D01*
X6479787D02*
X6540747D01*
X6479787Y11233399D02*
Y11463434D01*
X6418827Y11233399D02*
X6479787D01*
X6418827D02*
Y11463434D01*
X6357867D02*
X6418827D01*
X6357867Y11248266D02*
Y11463434D01*
X6352785Y11248266D02*
X6357867D01*
X7146797D02*
X8874737D01*
X7215787Y11150004D02*
X7531725D01*
X7215787D02*
Y11173807D01*
X7154827D02*
X7215787D01*
X7154827Y11013989D02*
Y11173807D01*
X7093867Y11013989D02*
X7154827D01*
X7093867D02*
Y11187567D01*
X7032907D02*
X7093867D01*
X7032907Y11013989D02*
Y11187567D01*
X6971947Y11013989D02*
X7032907D01*
X6971947D02*
Y11187567D01*
X6910987D02*
X6971947D01*
X6910987Y11013989D02*
Y11187567D01*
X6850027Y11013989D02*
X6910987D01*
X6850027D02*
Y11187567D01*
X6789067D02*
X6850027D01*
X6789067Y11013989D02*
Y11187567D01*
X6728107Y11013989D02*
X6789067D01*
X6728107D02*
Y11187567D01*
X6667147D02*
X6728107D01*
X6667147Y11150004D02*
Y11187567D01*
X6662066Y11150004D02*
X6667147D01*
X7531725D02*
X8775101D01*
X7289104Y10851945D02*
X7471080Y11033921D01*
X7252472Y10888577D02*
X7289104Y10851945D01*
X7209367Y10845472D02*
X7252472Y10888577D01*
X7209367Y10845472D02*
X7245998Y10808840D01*
X7202893Y10765735D02*
X7245998Y10808840D01*
X7070772Y10897856D02*
X7202893Y10765735D01*
X7027667Y10854750D02*
X7070772Y10897856D01*
X7027667Y10854750D02*
X7159789Y10722629D01*
X7116684Y10679523D02*
X7159789Y10722629D01*
X6984562Y10811645D02*
X7116684Y10679523D01*
X6941457Y10768540D02*
X6984562Y10811645D01*
X6941457Y10768540D02*
X7081678Y10628319D01*
X7038572Y10585214D02*
X7081678Y10628319D01*
X6898351Y10725435D02*
X7038572Y10585214D01*
X6855246Y10682329D02*
X6898351Y10725435D01*
X6855246Y10682329D02*
X7009875Y10527700D01*
X6966770Y10484595D02*
X7009875Y10527700D01*
X6812141Y10639224D02*
X6966770Y10484595D01*
X6769036Y10596119D02*
X6812141Y10639224D01*
X6769036Y10596119D02*
X6901157Y10463998D01*
X6897564Y10460405D02*
X6901157Y10463998D01*
X7471080Y11033921D02*
X7537164Y11100006D01*
X7428022Y10753022D02*
X7638414Y10963413D01*
X7364572Y10816472D02*
X7428022Y10753022D01*
X7321467Y10773367D02*
X7364572Y10816472D01*
X7321467Y10773367D02*
X7400356Y10694478D01*
X7357250Y10651373D02*
X7400356Y10694478D01*
X7251628Y10756996D02*
X7357250Y10651373D01*
X7208523Y10713890D02*
X7251628Y10756996D01*
X7208523Y10713890D02*
X7314145Y10608268D01*
X7271040Y10565163D02*
X7314145Y10608268D01*
X7165418Y10670785D02*
X7271040Y10565163D01*
X7122313Y10627680D02*
X7165418Y10670785D01*
X7122313Y10627680D02*
X7227935Y10522057D01*
X7184829Y10478952D02*
X7227935Y10522057D01*
X7093615Y10570166D02*
X7184829Y10478952D01*
X7050510Y10527061D02*
X7093615Y10570166D01*
X7050510Y10527061D02*
X7141724Y10435847D01*
X7098619Y10392742D02*
X7141724Y10435847D01*
X7015505Y10475856D02*
X7098619Y10392742D01*
X6972400Y10432750D02*
X7015505Y10475856D01*
X6972400Y10432750D02*
X7055514Y10349636D01*
X7012409Y10306531D02*
X7055514Y10349636D01*
X6906786Y10412154D02*
X7012409Y10306531D01*
X6863681Y10369049D02*
X6906786Y10412154D01*
X6863681Y10369049D02*
X6953865Y10278864D01*
X6950272Y10275272D02*
X6953865Y10278864D01*
X7638414Y10963413D02*
X7722254Y11047253D01*
X7379164Y10411345D02*
X7554492Y10586674D01*
X7355007Y10435501D02*
X7379164Y10411345D01*
X7311902Y10392396D02*
X7355007Y10435501D01*
X7311902Y10392396D02*
X7336058Y10368240D01*
X7292953Y10325134D02*
X7336058Y10368240D01*
X7190719Y10427368D02*
X7292953Y10325134D01*
X7147614Y10384263D02*
X7190719Y10427368D01*
X7147614Y10384263D02*
X7267711Y10264167D01*
X7224605Y10221061D02*
X7267711Y10264167D01*
X7104509Y10341158D02*
X7224605Y10221061D01*
X7061404Y10298053D02*
X7104509Y10341158D01*
X7061404Y10298053D02*
X7181500Y10177956D01*
X7138395Y10134851D02*
X7181500Y10177956D01*
X7006992Y10266254D02*
X7138395Y10134851D01*
X6963887Y10223148D02*
X7006992Y10266254D01*
X6963887Y10223148D02*
X7095290Y10091746D01*
X7052185Y10048641D02*
X7095290Y10091746D01*
X6916650Y10184175D02*
X7052185Y10048641D01*
X6873545Y10141070D02*
X6916650Y10184175D01*
X6873545Y10141070D02*
X6991216Y10023398D01*
X6987624Y10019805D02*
X6991216Y10023398D01*
X7554492Y10586674D02*
X7966812Y10998993D01*
X7148358Y9936737D02*
X7250614Y10038993D01*
X7196122Y10093486D02*
X7250614Y10038993D01*
X7196122Y10093486D02*
X7239227Y10136591D01*
X7319894Y10055924D01*
X7363000Y10099029D01*
X7261523Y10200506D02*
X7363000Y10099029D01*
X7261523Y10200506D02*
X7304629Y10243611D01*
X7406105Y10142134D01*
X7449210Y10185240D01*
X7329871Y10304579D02*
X7449210Y10185240D01*
X7329871Y10304579D02*
X7372976Y10347684D01*
X7492315Y10228345D01*
X7535421Y10271450D01*
X7416081Y10390789D02*
X7535421Y10271450D01*
X7416081Y10390789D02*
X7459187Y10433895D01*
X7578526Y10314555D01*
X7621631Y10357661D01*
X7502292Y10477000D02*
X7621631Y10357661D01*
X7502292Y10477000D02*
X7545397Y10520105D01*
X7664736Y10400766D01*
X7707842Y10443871D01*
X7588502Y10563210D02*
X7707842Y10443871D01*
X7588502Y10563210D02*
X7631608Y10606315D01*
X7724772Y10513151D01*
X7767878Y10556256D01*
X7767877Y10556256D02*
X7767878Y10556256D01*
X7767877Y10556256D02*
X7771470Y10559849D01*
X8161626Y10950005D01*
X7386806Y9995629D02*
X7549799Y10158622D01*
X7575050D01*
X7576527Y10157145D01*
X7619632Y10200251D01*
X7579080Y10240802D02*
X7619632Y10200251D01*
X7579080Y10240802D02*
Y10257636D01*
X7634089Y10312644D01*
X7650922D01*
X7787143Y10176423D01*
X7830248Y10219528D01*
X7694027Y10355749D02*
X7830248Y10219528D01*
X7694027Y10355749D02*
Y10372583D01*
X7749036Y10427591D01*
X7765869D01*
X7902090Y10291370D01*
X7945195Y10334475D01*
X7782799Y10496871D02*
X7945195Y10334475D01*
X7782799Y10496871D02*
Y10513704D01*
X7837808Y10568713D01*
X7854641D01*
X8017037Y10406317D01*
X8060142Y10449422D01*
X7962996Y10546569D02*
X8060142Y10449422D01*
X7962996Y10546569D02*
Y10571818D01*
X7976749Y10585571D01*
X7401174Y9981260D02*
X7401174D01*
X7401174D02*
X7558216Y10138302D01*
X7566633D01*
X7568110Y10136825D01*
X7584943D01*
X7639952Y10191834D01*
Y10208667D01*
X7599400Y10249219D02*
X7639952Y10208667D01*
X7599400Y10249219D02*
X7642505Y10292324D01*
X7778726Y10156103D01*
X7795559D01*
X7850568Y10211112D01*
Y10227945D01*
X7714347Y10364166D02*
X7850568Y10227945D01*
X7714347Y10364166D02*
X7757452Y10407271D01*
X7893673Y10271050D01*
X7910506D01*
X7965515Y10326059D01*
Y10342892D01*
X7803119Y10505288D02*
X7965515Y10342892D01*
X7803119Y10505288D02*
X7846224Y10548393D01*
X8008620Y10385997D01*
X8025453D01*
X8080462Y10441006D01*
Y10457839D01*
X7983316Y10554985D02*
X8080462Y10457839D01*
X7983316Y10554985D02*
Y10563402D01*
X7991117Y10571203D01*
X7991117D01*
X7272686Y9881509D02*
X7386806Y9995629D01*
X7976749Y10585571D02*
X8199600Y10808422D01*
X7287055Y9867141D02*
X7401174Y9981260D01*
X7991117Y10571203D02*
X8208016Y10788102D01*
X7794610Y9829621D02*
X8008212Y10043223D01*
X7751892Y9872338D02*
X7794610Y9829621D01*
X7708787Y9829233D02*
X7751892Y9872338D01*
X7708787Y9829233D02*
X7830483Y9707537D01*
X7787378Y9664431D02*
X7830483Y9707537D01*
X7663199Y9788610D02*
X7787378Y9664431D01*
X7620094Y9745505D02*
X7663199Y9788610D01*
X7620094Y9745505D02*
X7744273Y9621326D01*
X7701168Y9578221D02*
X7744273Y9621326D01*
X7576989Y9702400D02*
X7701168Y9578221D01*
X7533884Y9659295D02*
X7576989Y9702400D01*
X7533884Y9659295D02*
X7658063Y9535116D01*
X7614957Y9492010D02*
X7658063Y9535116D01*
X7490779Y9616189D02*
X7614957Y9492010D01*
X7447673Y9573084D02*
X7490779Y9616189D01*
X7447673Y9573084D02*
X7571852Y9448905D01*
X7528747Y9405800D02*
X7571852Y9448905D01*
X7404568Y9529979D02*
X7528747Y9405800D01*
X7361463Y9486874D02*
X7404568Y9529979D01*
X7361463Y9486874D02*
X7406663Y9441674D01*
X7403070Y9438080D02*
X7406663Y9441674D01*
X8008212Y10043223D02*
X8264992Y10300002D01*
X8208016Y10788102D02*
X8759503D01*
X8199600Y10808422D02*
X8767920D01*
X8776062Y10771544D02*
X8999556D01*
X8784479Y10791864D02*
X9010786D01*
X8767920Y10808422D02*
X8784479Y10791864D01*
X8759503Y10788102D02*
X8776062Y10771544D01*
X9008919Y10762180D02*
X9053051D01*
X9010786Y10791864D02*
X9016598Y10797676D01*
X9053051Y10762180D02*
X9091012Y10800141D01*
X8999556Y10771544D02*
X9008919Y10762180D01*
X9016598Y10797676D02*
X9024701D01*
Y10800280D01*
X5905161Y9814371D02*
X5930991Y9840201D01*
X5905161Y9805954D02*
X5911112Y9800002D01*
X5905161Y9805954D02*
Y9814371D01*
X5884841Y9822787D02*
X5922575Y9860521D01*
X5884841Y9805954D02*
Y9822787D01*
X5878889Y9800002D02*
X5884841Y9805954D01*
X9075099Y11150004D02*
X9275100D01*
X9375296Y10652822D02*
Y11049808D01*
X9275100Y11150004D02*
X9375296Y11049808D01*
X8058376Y9333282D02*
X9275099Y10550006D01*
X9375099Y10555957D02*
Y10652626D01*
X9275099Y10550006D02*
X9369147D01*
X9375099Y10555957D01*
Y10652626D02*
X9375296Y10652822D01*
X8774927Y10349833D02*
X8974927D01*
X9025096Y10400002D02*
X9025100D01*
X5475520Y9333282D02*
X8058376D01*
X8725097Y10300002D02*
X8774927Y10349833D01*
X8974927D02*
X9025096Y10400002D01*
X5415477Y10326228D02*
X6337515Y11248266D01*
X5494999Y9673905D02*
X5667480Y9501424D01*
X7198354D02*
X7238443Y9541513D01*
X5667480Y9501424D02*
X7198354D01*
X5494999Y9673905D02*
Y9760000D01*
X5414999Y9599061D02*
X5591877Y9422182D01*
X5414999Y9599061D02*
Y9680002D01*
X5591877Y9422182D02*
X7387172D01*
X8673489Y11047253D02*
X8770738Y10950005D01*
X9075098D01*
X8626112Y10998993D02*
X8775101Y10850005D01*
X9174702D01*
X9225500Y10900803D01*
X9091012Y10800141D02*
X9124961D01*
X9073497Y10648402D02*
X9275099Y10850005D01*
X9124961Y10800141D02*
X9125100Y10800002D01*
X8875100Y11050005D02*
X9175100D01*
X8925100Y11100006D02*
Y11197902D01*
X8874737Y11248266D02*
X8925100Y11197902D01*
X9025100Y11100004D02*
X9075099Y11150004D01*
X8725099Y11100006D02*
X8825899Y10999207D01*
X8775101Y11150004D02*
X8875100Y11050005D01*
X9175100D02*
X9225897Y10999207D01*
X8825899Y10999207D02*
X8925499D01*
X9075098Y10950005D02*
X9125097Y11000004D01*
X8161626Y10950005D02*
X8605500D01*
X8345333Y10648402D02*
X9073497D01*
X8264992Y10300002D02*
X8725097D01*
X7537164Y11100006D02*
X8725099D01*
X7966812Y10998993D02*
X8626112D01*
X7722254Y11047253D02*
X8673489D01*
X7135771Y9924150D02*
X7148358Y9936737D01*
X6974796Y10006978D02*
X6987624Y10019805D01*
X6645007Y11150004D02*
X6662066D01*
X5775006Y10280002D02*
X6645007Y11150004D01*
X5583443Y10160005D02*
X5654998D01*
X5495001D02*
X5575001Y10240005D01*
X5577491Y10024641D02*
Y10154053D01*
X5654999Y10057736D02*
Y10080000D01*
X5654998Y10160005D02*
X5694998Y10200005D01*
X5575001Y10240005D02*
X5735009D01*
X5654999Y10080000D02*
X5695001Y10120002D01*
X5577491Y10154053D02*
X5583443Y10160005D01*
X6597164D02*
X6897564Y10460405D01*
X6755001Y10080000D02*
X6950272Y10275272D01*
X6337515Y11248266D02*
X6352785D01*
X5728016Y10006978D02*
X6974796D01*
X5694996Y10039998D02*
X5728016Y10006978D01*
X5735003Y10080000D02*
X6755001D01*
X5734998Y10160005D02*
X6597164D01*
X5489049Y10080000D02*
X5495001Y10085952D01*
Y10160005D01*
X5695001Y10120002D02*
X5735003Y10080000D01*
X5694998Y10200005D02*
X5695001D01*
X5694998D02*
X5734998Y10160005D01*
X5735009Y10240005D02*
X5775006Y10280002D01*
X9225897Y10999207D02*
Y10999207D01*
X9275099Y10950002D02*
X9325100Y11000003D01*
X9275099Y10850005D02*
Y10950002D01*
X4950445Y10148356D02*
X5192264D01*
X4649940Y10153701D02*
X4751806Y10051836D01*
X4922050Y9907056D02*
X5191109D01*
X4804663Y9955316D02*
X5175178D01*
X4736094Y9886747D02*
X4804663Y9955316D01*
X4280330Y9975901D02*
X4723420D01*
X5135001Y10051836D02*
X5152772Y10034065D01*
X4846306Y10100096D02*
X5135001D01*
X4723420Y9975901D02*
X4751094Y10003576D01*
X4751806Y10051836D02*
X5135001D01*
X5135001Y10100096D02*
X5155096Y10080000D01*
X4751094Y10003576D02*
X5188692D01*
X4280330Y9886747D02*
X4736094D01*
X4694646Y9264701D02*
X5065950Y9636005D01*
X4723941Y9708947D02*
X4922050Y9907056D01*
X4631146Y9442501D02*
X4961304Y9772659D01*
X4669265Y9586021D02*
X4942040Y9858796D01*
X4677682Y9565701D02*
X4950457Y9838476D01*
X4674940Y9353604D02*
X5041337Y9720001D01*
X5291943Y9516859D02*
Y9636005D01*
Y9516859D02*
X5475520Y9333282D01*
X5415477Y10160482D02*
Y10326228D01*
X5375475Y10120480D02*
X5415477Y10160482D01*
X5375475Y10120480D02*
X5375475D01*
X5192264Y10148356D02*
X5220140Y10120480D01*
X5375475D01*
X5374998Y9720003D02*
X5414999Y9680002D01*
X5041337Y9720001D02*
X5135001D01*
X5135003Y9720003D02*
X5374998D01*
X5135001Y9720001D02*
X5135003Y9720003D01*
X5065950Y9636005D02*
X5291943D01*
X5216509Y9881656D02*
X5531225D01*
X5152772Y10034065D02*
X5281815D01*
X5155096Y10080000D02*
X5489049D01*
X5175178Y9955316D02*
X5211552Y9918941D01*
X5313790Y10002089D02*
X5554940D01*
X5191109Y9907056D02*
X5216509Y9881656D01*
X5211552Y9918941D02*
X5573939D01*
X5560264Y9963002D02*
X5654999Y10057736D01*
X5229266Y9963002D02*
X5560264D01*
X5554940Y10002089D02*
X5577491Y10024641D01*
X5573939Y9918941D02*
X5694996Y10039998D01*
X5188692Y10003576D02*
X5229266Y9963002D01*
X5281815Y10034065D02*
X5313790Y10002089D01*
X4280330Y10331501D02*
X4767300D01*
X4280330Y10153701D02*
X4649940D01*
X4767300Y10331501D02*
X4950445Y10148356D01*
X4703546Y10242855D02*
X4846306Y10100096D01*
X4280330Y10242855D02*
X4703546D01*
X4280201Y9353604D02*
X4674940D01*
X4314629Y9565701D02*
X4677682D01*
X4280330Y9264701D02*
X4694646D01*
X4280330Y9620321D02*
X4314630Y9586021D01*
X4669265D01*
X4280330Y9708947D02*
X4723941D01*
X4280330Y9442501D02*
X4631146D01*
X4280330Y9531401D02*
X4314629Y9565701D01*
X5454998Y9800001D02*
X5494999Y9760000D01*
X5135001Y9772659D02*
X5162344Y9800002D01*
X4961304Y9772659D02*
X5135001D01*
X5162344Y9800002D02*
X5454998D01*
X4950457Y9838476D02*
X5504211D01*
X4942040Y9858796D02*
X5512628D01*
X7387172Y9422182D02*
X7403070Y9438080D01*
X5922575Y9860521D02*
X7251698D01*
X5899147Y9924150D02*
X7135771D01*
X5930991Y9840201D02*
X7260115D01*
X7251698Y9860521D02*
X7272686Y9881509D01*
X7260115Y9840201D02*
X7287055Y9867141D01*
X5535001Y9702253D02*
X5637253Y9600001D01*
X5645669Y9620321D02*
X5746899D01*
X5555321Y9710670D02*
X5645669Y9620321D01*
X5637253Y9600001D02*
X5755315D01*
X5615001Y9719999D02*
X5654999Y9680001D01*
X5729046D02*
X5734998Y9685953D01*
X5654999Y9680001D02*
X5729046D01*
X5884841Y9758263D02*
Y9794051D01*
X5911112Y9800002D02*
X5935001D01*
X5905161Y9749846D02*
Y9794051D01*
X5911112Y9800002D01*
X5755315Y9600001D02*
X5905161Y9749846D01*
X5855001Y9800002D02*
X5878889D01*
X5734998Y9760001D02*
X5899147Y9924150D01*
X5734998Y9685953D02*
Y9760001D01*
X5746899Y9620321D02*
X5884841Y9758263D01*
X5878889Y9800002D02*
X5884841Y9794051D01*
X5555321Y9710670D02*
Y9816102D01*
X5535001Y9702253D02*
Y9807685D01*
X5512628Y9858796D02*
X5555321Y9816102D01*
X5615001Y9720002D02*
Y9797880D01*
Y9719999D02*
Y9720002D01*
X5504211Y9838476D02*
X5535001Y9807685D01*
X5531225Y9881656D02*
X5615001Y9797880D01*
D82*
X7630218Y15921773D02*
X7957726D01*
X16291560Y14004626D02*
X16431808D01*
X16538608Y14111426D01*
Y14224001D01*
D86*
X457199Y457199D02*
D03*
Y19557999D02*
D03*
X11744001Y9247042D02*
D03*
X8244001Y12747042D02*
D03*
X19557999Y457199D02*
D03*
Y19557999D02*
D03*
D87*
X19276059Y17193259D02*
D03*
X19784059D02*
D03*
Y17701259D02*
D03*
X19276059D02*
D03*
X19530058Y17447260D02*
D03*
X19545297Y15731273D02*
D03*
X19291296Y15985274D02*
D03*
X19799297D02*
D03*
Y15477274D02*
D03*
X19291296D02*
D03*
X19545297Y14562872D02*
D03*
X19291296Y14816873D02*
D03*
X19799297D02*
D03*
Y14308873D02*
D03*
X19291296D02*
D03*
X19530058Y18615659D02*
D03*
X19276059Y18869659D02*
D03*
X19784059D02*
D03*
Y18361659D02*
D03*
X19276059D02*
D03*
D88*
X19339796Y5918199D02*
D03*
Y4648199D02*
D03*
D89*
X19085797Y5638799D02*
D03*
D90*
Y5435599D02*
D03*
Y5232399D02*
D03*
Y5029199D02*
D03*
X18907997Y5537199D02*
D03*
Y5333999D02*
D03*
Y5130799D02*
D03*
Y4927599D02*
D03*
X18425397Y5968999D02*
D03*
Y4825999D02*
D03*
Y4597399D02*
D03*
Y5740399D02*
D03*
D91*
X18846799Y3014999D02*
D03*
Y1810998D02*
D03*
X17973201Y9828000D02*
D03*
Y10248000D02*
D03*
Y10667999D02*
D03*
X18523198Y9828000D02*
D03*
Y10248000D02*
D03*
D92*
X18576802Y2288000D02*
D03*
Y2538002D02*
D03*
X18376802Y2288000D02*
D03*
Y2538002D02*
D03*
D93*
X13736798Y4875698D02*
D03*
X13843797D02*
D03*
X13950798D02*
D03*
X13736798Y4768698D02*
D03*
X13843797D02*
D03*
X13950798D02*
D03*
X13736798Y4661698D02*
D03*
X13843797D02*
D03*
X13950798D02*
D03*
D94*
X19405598Y7128001D02*
D03*
D95*
Y7628000D02*
D03*
Y8127999D02*
D03*
Y8627998D02*
D03*
D96*
X18523198Y10667999D02*
D03*
D97*
X16873743Y8059072D02*
D03*
Y7868572D02*
D03*
Y7665372D02*
D03*
Y7462172D02*
D03*
X16872916Y7077949D02*
D03*
Y7281149D02*
D03*
X15461176Y7079564D02*
D03*
X15664375D02*
D03*
X15461176Y7282764D02*
D03*
X15664375D02*
D03*
X15257976D02*
D03*
X15054776D02*
D03*
X14851576D02*
D03*
X15257976Y7079564D02*
D03*
X15054776D02*
D03*
X14851576D02*
D03*
X15866982Y7078035D02*
D03*
X16070181D02*
D03*
X16273381D02*
D03*
X15866982Y7281235D02*
D03*
X16070181D02*
D03*
X16273381D02*
D03*
X16679781D02*
D03*
X16476581D02*
D03*
X16679781Y7078035D02*
D03*
X16476581D02*
D03*
X16477409Y7462258D02*
D03*
X16680609D02*
D03*
X16477409Y7665458D02*
D03*
X16680609D02*
D03*
Y7868658D02*
D03*
X16477409D02*
D03*
Y8059158D02*
D03*
X16680609D02*
D03*
X16274210D02*
D03*
X16071008D02*
D03*
X15867809D02*
D03*
Y7868658D02*
D03*
X16071008D02*
D03*
X16274210D02*
D03*
Y7665458D02*
D03*
X16071008D02*
D03*
X15867809D02*
D03*
X16274210Y7462258D02*
D03*
X16071008D02*
D03*
X15867809D02*
D03*
X18106390Y7575238D02*
D03*
Y7422838D02*
D03*
X17230090Y7435538D02*
D03*
Y7372038D02*
D03*
X1016000Y1778000D02*
D03*
X761377Y1782217D02*
D03*
X508000Y1778000D02*
D03*
X254000D02*
D03*
X1270000D02*
D03*
X1524000D02*
D03*
X1779853Y772706D02*
D03*
X1784070Y519329D02*
D03*
Y265329D02*
D03*
Y1789329D02*
D03*
Y1535329D02*
D03*
Y1027329D02*
D03*
Y1281329D02*
D03*
X1778000Y19050000D02*
D03*
X2032000D02*
D03*
X1777377Y18800217D02*
D03*
X2032000Y18796001D02*
D03*
Y19303999D02*
D03*
X1777377Y19308217D02*
D03*
X2032000Y19812000D02*
D03*
Y19558000D02*
D03*
X1778000Y19812000D02*
D03*
Y19558000D02*
D03*
X2286000D02*
D03*
Y19812000D02*
D03*
X10160000D02*
D03*
Y19558000D02*
D03*
X9652000D02*
D03*
Y19812000D02*
D03*
X9906000Y19558000D02*
D03*
Y19812000D02*
D03*
X8890000D02*
D03*
Y19558000D02*
D03*
X8636000Y19812000D02*
D03*
Y19558000D02*
D03*
X9144000D02*
D03*
Y19812000D02*
D03*
X9398000Y19558000D02*
D03*
Y19812000D02*
D03*
X7366000D02*
D03*
Y19558000D02*
D03*
X7112000Y19812000D02*
D03*
Y19558000D02*
D03*
X6604000D02*
D03*
Y19812000D02*
D03*
X6858000Y19558000D02*
D03*
Y19812000D02*
D03*
X7874000D02*
D03*
Y19558000D02*
D03*
X7620000Y19812000D02*
D03*
Y19558000D02*
D03*
X8128000D02*
D03*
Y19812000D02*
D03*
X8382000Y19558000D02*
D03*
Y19812000D02*
D03*
X4318000D02*
D03*
Y19558000D02*
D03*
X4064000Y19812000D02*
D03*
Y19558000D02*
D03*
X3556000D02*
D03*
Y19812000D02*
D03*
X3810000Y19558000D02*
D03*
Y19812000D02*
D03*
X2794000D02*
D03*
Y19558000D02*
D03*
X2540000Y19812000D02*
D03*
Y19558000D02*
D03*
X3048000D02*
D03*
Y19812000D02*
D03*
X3302000Y19558000D02*
D03*
Y19812000D02*
D03*
X5334000D02*
D03*
Y19558000D02*
D03*
X5080000Y19812000D02*
D03*
Y19558000D02*
D03*
X4572000D02*
D03*
Y19812000D02*
D03*
X4826000Y19558000D02*
D03*
Y19812000D02*
D03*
X5842000D02*
D03*
Y19558000D02*
D03*
X5588000Y19812000D02*
D03*
Y19558000D02*
D03*
X6096000D02*
D03*
Y19812000D02*
D03*
X6350000Y19558000D02*
D03*
Y19812000D02*
D03*
X2032000Y1270000D02*
D03*
Y1016000D02*
D03*
Y1524000D02*
D03*
Y1778000D02*
D03*
X1270000Y2794000D02*
D03*
X1524000D02*
D03*
X1778000D02*
D03*
X2032000D02*
D03*
X1270000Y2540000D02*
D03*
X1524000D02*
D03*
X1777377Y2544217D02*
D03*
X2032000Y2540000D02*
D03*
Y2032000D02*
D03*
X1777377Y2036217D02*
D03*
X1524000Y2032000D02*
D03*
X1270000D02*
D03*
X2032000Y2286000D02*
D03*
X1778000D02*
D03*
X1524000D02*
D03*
X1270000D02*
D03*
X254000D02*
D03*
X508000D02*
D03*
X762000D02*
D03*
X1016000D02*
D03*
X254000Y2032000D02*
D03*
X508000D02*
D03*
X761377Y2036217D02*
D03*
X1016000Y2032000D02*
D03*
Y2540000D02*
D03*
X761377Y2544217D02*
D03*
X508000Y2540000D02*
D03*
X254000D02*
D03*
X1016000Y2794000D02*
D03*
X762000D02*
D03*
X508000D02*
D03*
X254000D02*
D03*
X2794000Y254000D02*
D03*
Y508000D02*
D03*
Y762000D02*
D03*
X3048000Y254000D02*
D03*
Y508000D02*
D03*
X3043783Y761377D02*
D03*
X3302000Y762000D02*
D03*
Y508000D02*
D03*
Y254000D02*
D03*
X2032000D02*
D03*
Y508000D02*
D03*
X2027783Y761377D02*
D03*
X2535783D02*
D03*
X2540000Y508000D02*
D03*
Y254000D02*
D03*
X2286000Y762000D02*
D03*
Y508000D02*
D03*
Y254000D02*
D03*
X15239999D02*
D03*
Y508000D02*
D03*
Y762000D02*
D03*
X15494000Y254000D02*
D03*
Y508000D02*
D03*
X15489783Y761377D02*
D03*
X15997783D02*
D03*
X16002000Y508000D02*
D03*
Y254000D02*
D03*
X15748000Y762000D02*
D03*
Y508000D02*
D03*
Y254000D02*
D03*
X16764000D02*
D03*
Y508000D02*
D03*
Y762000D02*
D03*
X17017999Y254000D02*
D03*
Y508000D02*
D03*
X17013783Y761377D02*
D03*
X16505783D02*
D03*
X16510001Y508000D02*
D03*
Y254000D02*
D03*
X16256000Y762000D02*
D03*
Y508000D02*
D03*
Y254000D02*
D03*
X18288000D02*
D03*
Y508000D02*
D03*
Y762000D02*
D03*
X17780000Y254000D02*
D03*
Y508000D02*
D03*
Y762000D02*
D03*
X18034000Y254000D02*
D03*
Y508000D02*
D03*
X18029784Y761377D02*
D03*
X17521783D02*
D03*
X17525999Y508000D02*
D03*
Y254000D02*
D03*
X17272000Y762000D02*
D03*
Y508000D02*
D03*
Y254000D02*
D03*
X13208000D02*
D03*
Y508000D02*
D03*
Y762000D02*
D03*
X13462000Y254000D02*
D03*
Y508000D02*
D03*
X13457784Y761377D02*
D03*
X13965784D02*
D03*
X13970000Y508000D02*
D03*
Y254000D02*
D03*
X13716000Y762000D02*
D03*
Y508000D02*
D03*
Y254000D02*
D03*
X14732001D02*
D03*
Y508000D02*
D03*
Y762000D02*
D03*
X14986000Y254000D02*
D03*
Y508000D02*
D03*
X14981783Y761377D02*
D03*
X14473782D02*
D03*
X14478000Y508000D02*
D03*
Y254000D02*
D03*
X14224001Y762000D02*
D03*
Y508000D02*
D03*
Y254000D02*
D03*
X12192000D02*
D03*
Y508000D02*
D03*
Y762000D02*
D03*
X12446000Y254000D02*
D03*
Y508000D02*
D03*
X12441783Y761377D02*
D03*
X12949783D02*
D03*
X12953999Y508000D02*
D03*
Y254000D02*
D03*
X12700000Y762000D02*
D03*
Y508000D02*
D03*
Y254000D02*
D03*
X11684000D02*
D03*
Y508000D02*
D03*
Y762000D02*
D03*
X11938000Y254000D02*
D03*
Y508000D02*
D03*
X11933783Y761377D02*
D03*
X11425783D02*
D03*
X11430000Y508000D02*
D03*
Y254000D02*
D03*
X3556000D02*
D03*
Y508000D02*
D03*
X3551783Y761377D02*
D03*
X4059783D02*
D03*
X4064000Y508000D02*
D03*
Y254000D02*
D03*
X3810000Y762000D02*
D03*
Y508000D02*
D03*
Y254000D02*
D03*
X4826000D02*
D03*
Y508000D02*
D03*
Y762000D02*
D03*
X5080000Y254000D02*
D03*
Y508000D02*
D03*
X5075783Y761377D02*
D03*
X4567783D02*
D03*
X4572000Y508000D02*
D03*
Y254000D02*
D03*
X4318000Y762000D02*
D03*
Y508000D02*
D03*
Y254000D02*
D03*
X6350000D02*
D03*
Y508000D02*
D03*
Y762000D02*
D03*
X6604000Y254000D02*
D03*
Y508000D02*
D03*
X6599783Y761377D02*
D03*
X7107783D02*
D03*
X7112000Y508000D02*
D03*
Y254000D02*
D03*
X6858000Y762000D02*
D03*
Y508000D02*
D03*
Y254000D02*
D03*
X5842000D02*
D03*
Y508000D02*
D03*
Y762000D02*
D03*
X6096000Y254000D02*
D03*
Y508000D02*
D03*
X6091783Y761377D02*
D03*
X5583783D02*
D03*
X5588000Y508000D02*
D03*
Y254000D02*
D03*
X5334000Y762000D02*
D03*
Y508000D02*
D03*
Y254000D02*
D03*
X9398000D02*
D03*
Y508000D02*
D03*
Y762000D02*
D03*
X9652000Y254000D02*
D03*
Y508000D02*
D03*
X9647783Y761377D02*
D03*
X10155783D02*
D03*
X10160000Y508000D02*
D03*
Y254000D02*
D03*
X9906000Y762000D02*
D03*
Y508000D02*
D03*
Y254000D02*
D03*
X10922000D02*
D03*
Y508000D02*
D03*
Y762000D02*
D03*
X11176000Y254000D02*
D03*
Y508000D02*
D03*
X11171783Y761377D02*
D03*
X10663783D02*
D03*
X10668000Y508000D02*
D03*
Y254000D02*
D03*
X10414000Y762000D02*
D03*
Y508000D02*
D03*
Y254000D02*
D03*
X8382000D02*
D03*
Y508000D02*
D03*
Y762000D02*
D03*
X8636000Y254000D02*
D03*
Y508000D02*
D03*
X8631783Y761377D02*
D03*
X9139783D02*
D03*
X9144000Y508000D02*
D03*
Y254000D02*
D03*
X8890000Y762000D02*
D03*
Y508000D02*
D03*
Y254000D02*
D03*
X7874000D02*
D03*
Y508000D02*
D03*
Y762000D02*
D03*
X8128000Y254000D02*
D03*
Y508000D02*
D03*
X8123783Y761377D02*
D03*
X7615783D02*
D03*
X7620000Y508000D02*
D03*
Y254000D02*
D03*
X7366000Y762000D02*
D03*
Y508000D02*
D03*
Y254000D02*
D03*
X254000Y14732001D02*
D03*
X508000D02*
D03*
X762000D02*
D03*
X1016000D02*
D03*
X254000Y14478000D02*
D03*
X508000D02*
D03*
X761377Y14482217D02*
D03*
X1016000Y14478000D02*
D03*
Y13970000D02*
D03*
X761377Y13974217D02*
D03*
X508000Y13970000D02*
D03*
X254000D02*
D03*
X1016000Y14224001D02*
D03*
X762000D02*
D03*
X508000D02*
D03*
X254000D02*
D03*
X1270000D02*
D03*
X1524000D02*
D03*
X1778000D02*
D03*
X2032000D02*
D03*
X1270000Y13970000D02*
D03*
X1524000D02*
D03*
X1777377Y13974217D02*
D03*
X2032000Y13970000D02*
D03*
Y14478000D02*
D03*
X1777377Y14482217D02*
D03*
X1524000Y14478000D02*
D03*
X1270000D02*
D03*
X2032000Y14732001D02*
D03*
X1778000D02*
D03*
X1524000D02*
D03*
X1270000D02*
D03*
Y13716000D02*
D03*
X1524000D02*
D03*
X1778000D02*
D03*
X2032000D02*
D03*
X1270000Y13462000D02*
D03*
X1524000D02*
D03*
X1777377Y13466217D02*
D03*
X2032000Y13462000D02*
D03*
Y12953999D02*
D03*
X1777377Y12958217D02*
D03*
X1524000Y12953999D02*
D03*
X1270000D02*
D03*
X2032000Y13208000D02*
D03*
X1778000D02*
D03*
X1524000D02*
D03*
X1270000D02*
D03*
X254000D02*
D03*
X508000D02*
D03*
X762000D02*
D03*
X1016000D02*
D03*
X254000Y12953999D02*
D03*
X508000D02*
D03*
X761377Y12958217D02*
D03*
X1016000Y12953999D02*
D03*
Y13462000D02*
D03*
X761377Y13466217D02*
D03*
X508000Y13462000D02*
D03*
X254000D02*
D03*
X1016000Y13716000D02*
D03*
X762000D02*
D03*
X508000D02*
D03*
X254000D02*
D03*
Y11684000D02*
D03*
X508000D02*
D03*
X762000D02*
D03*
X1016000D02*
D03*
X254000Y11430000D02*
D03*
X508000D02*
D03*
X761377Y11434217D02*
D03*
X1016000Y11430000D02*
D03*
Y10922000D02*
D03*
X761377Y10926217D02*
D03*
X508000Y10922000D02*
D03*
X254000D02*
D03*
X1016000Y11176000D02*
D03*
X762000D02*
D03*
X508000D02*
D03*
X254000D02*
D03*
X1270000D02*
D03*
X1524000D02*
D03*
X1778000D02*
D03*
X2032000D02*
D03*
X1270000Y10922000D02*
D03*
X1524000D02*
D03*
X1777377Y10926217D02*
D03*
X2032000Y10922000D02*
D03*
Y11430000D02*
D03*
X1777377Y11434217D02*
D03*
X1524000Y11430000D02*
D03*
X1270000D02*
D03*
X2032000Y11684000D02*
D03*
X1778000D02*
D03*
X1524000D02*
D03*
X1270000D02*
D03*
Y12700000D02*
D03*
X1524000D02*
D03*
X1778000D02*
D03*
X2032000D02*
D03*
X1270000Y12446000D02*
D03*
X1524000D02*
D03*
X1777377Y12450217D02*
D03*
X2032000Y12446000D02*
D03*
Y11938000D02*
D03*
X1777377Y11942217D02*
D03*
X1524000Y11938000D02*
D03*
X1270000D02*
D03*
X2032000Y12192000D02*
D03*
X1778000D02*
D03*
X1524000D02*
D03*
X1270000D02*
D03*
X254000D02*
D03*
X508000D02*
D03*
X762000D02*
D03*
X1016000D02*
D03*
X254000Y11938000D02*
D03*
X508000D02*
D03*
X761377Y11942217D02*
D03*
X1016000Y11938000D02*
D03*
Y12446000D02*
D03*
X761377Y12450217D02*
D03*
X508000Y12446000D02*
D03*
X254000D02*
D03*
X1016000Y12700000D02*
D03*
X762000D02*
D03*
X508000D02*
D03*
X254000D02*
D03*
Y16764000D02*
D03*
X508000D02*
D03*
X762000D02*
D03*
X1016000D02*
D03*
X254000Y16510001D02*
D03*
X508000D02*
D03*
X761377Y16514217D02*
D03*
X1016000Y16510001D02*
D03*
Y16002000D02*
D03*
X761377Y16006216D02*
D03*
X508000Y16002000D02*
D03*
X254000D02*
D03*
X1016000Y16256000D02*
D03*
X762000D02*
D03*
X508000D02*
D03*
X254000D02*
D03*
X1270000D02*
D03*
X1524000D02*
D03*
X1778000D02*
D03*
X2032000D02*
D03*
X1270000Y16002000D02*
D03*
X1524000D02*
D03*
X1777377Y16006216D02*
D03*
X2032000Y16002000D02*
D03*
Y16510001D02*
D03*
X1777377Y16514217D02*
D03*
X1524000Y16510001D02*
D03*
X1270000D02*
D03*
X2032000Y16764000D02*
D03*
X1778000D02*
D03*
X1524000D02*
D03*
X1270000D02*
D03*
Y15748000D02*
D03*
X1524000D02*
D03*
X1778000D02*
D03*
X2032000D02*
D03*
X1270000Y15494000D02*
D03*
X1524000D02*
D03*
X1777377Y15498216D02*
D03*
X2032000Y15494000D02*
D03*
Y14986000D02*
D03*
X1777377Y14990218D02*
D03*
X1524000Y14986000D02*
D03*
X1270000D02*
D03*
X2032000Y15239999D02*
D03*
X1778000D02*
D03*
X1524000D02*
D03*
X1270000D02*
D03*
X254000D02*
D03*
X508000D02*
D03*
X762000D02*
D03*
X1016000D02*
D03*
X254000Y14986000D02*
D03*
X508000D02*
D03*
X761377Y14990218D02*
D03*
X1016000Y14986000D02*
D03*
Y15494000D02*
D03*
X761377Y15498216D02*
D03*
X508000Y15494000D02*
D03*
X254000D02*
D03*
X1016000Y15748000D02*
D03*
X762000D02*
D03*
X508000D02*
D03*
X254000D02*
D03*
Y17780000D02*
D03*
X508000D02*
D03*
X762000D02*
D03*
X1016000D02*
D03*
X254000Y17525999D02*
D03*
X508000D02*
D03*
X761377Y17530217D02*
D03*
X1016000Y17525999D02*
D03*
Y17017999D02*
D03*
X761377Y17022217D02*
D03*
X508000Y17017999D02*
D03*
X254000D02*
D03*
X1016000Y17272000D02*
D03*
X762000D02*
D03*
X508000D02*
D03*
X254000D02*
D03*
X1270000D02*
D03*
X1524000D02*
D03*
X1778000D02*
D03*
X2032000D02*
D03*
X1270000Y17017999D02*
D03*
X1524000D02*
D03*
X1777377Y17022217D02*
D03*
X2032000Y17017999D02*
D03*
Y17525999D02*
D03*
X1777377Y17530217D02*
D03*
X1524000Y17525999D02*
D03*
X1270000D02*
D03*
X2032000Y17780000D02*
D03*
X1778000D02*
D03*
X1524000D02*
D03*
X1270000D02*
D03*
X1777377Y18546217D02*
D03*
X2032000Y18542000D02*
D03*
Y18034000D02*
D03*
X1777377Y18038217D02*
D03*
X1524000Y18034000D02*
D03*
X1270000D02*
D03*
X2032000Y18288000D02*
D03*
X1778000D02*
D03*
X1524000D02*
D03*
X1270000D02*
D03*
X254000D02*
D03*
X508000D02*
D03*
X762000D02*
D03*
X1016000D02*
D03*
X254000Y18034000D02*
D03*
X508000D02*
D03*
X761377Y18038217D02*
D03*
X1016000Y18034000D02*
D03*
X254000Y10668000D02*
D03*
X508000D02*
D03*
X761377Y10672217D02*
D03*
X1016000Y10668000D02*
D03*
Y10160000D02*
D03*
X761377Y10164217D02*
D03*
X508000Y10160000D02*
D03*
X254000D02*
D03*
X1016000Y10414000D02*
D03*
X762000D02*
D03*
X508000D02*
D03*
X254000D02*
D03*
X1270000D02*
D03*
X1524000D02*
D03*
X1778000D02*
D03*
X2032000D02*
D03*
X1270000Y10160000D02*
D03*
X1524000D02*
D03*
X1777377Y10164217D02*
D03*
X2032000Y10160000D02*
D03*
Y10668000D02*
D03*
X1777377Y10672217D02*
D03*
X1524000Y10668000D02*
D03*
X1270000D02*
D03*
Y9906000D02*
D03*
X1524000D02*
D03*
X1778000D02*
D03*
X2032000D02*
D03*
X1270000Y9652000D02*
D03*
X1524000D02*
D03*
X1777377Y9656217D02*
D03*
X2032000Y9652000D02*
D03*
Y9144000D02*
D03*
X1777377Y9148217D02*
D03*
X1524000Y9144000D02*
D03*
X1270000D02*
D03*
X2032000Y9398000D02*
D03*
X1778000D02*
D03*
X1524000D02*
D03*
X1270000D02*
D03*
X254000D02*
D03*
X508000D02*
D03*
X762000D02*
D03*
X1016000D02*
D03*
X254000Y9144000D02*
D03*
X508000D02*
D03*
X761377Y9148217D02*
D03*
X1016000Y9144000D02*
D03*
Y9652000D02*
D03*
X761377Y9656217D02*
D03*
X508000Y9652000D02*
D03*
X254000D02*
D03*
X1016000Y9906000D02*
D03*
X762000D02*
D03*
X508000D02*
D03*
X254000D02*
D03*
Y7874000D02*
D03*
X508000D02*
D03*
X762000D02*
D03*
X1016000D02*
D03*
X254000Y7620000D02*
D03*
X508000D02*
D03*
X761377Y7624217D02*
D03*
X1016000Y7620000D02*
D03*
Y7112000D02*
D03*
X761377Y7116217D02*
D03*
X508000Y7112000D02*
D03*
X254000D02*
D03*
X1016000Y7366000D02*
D03*
X762000D02*
D03*
X508000D02*
D03*
X254000D02*
D03*
X1270000D02*
D03*
X1524000D02*
D03*
X1778000D02*
D03*
X2032000D02*
D03*
X1270000Y7112000D02*
D03*
X1524000D02*
D03*
X1777377Y7116217D02*
D03*
X2032000Y7112000D02*
D03*
Y7620000D02*
D03*
X1777377Y7624217D02*
D03*
X1524000Y7620000D02*
D03*
X1270000D02*
D03*
X2032000Y7874000D02*
D03*
X1778000D02*
D03*
X1524000D02*
D03*
X1270000D02*
D03*
Y8890000D02*
D03*
X1524000D02*
D03*
X1778000D02*
D03*
X2032000D02*
D03*
X1270000Y8636000D02*
D03*
X1524000D02*
D03*
X1777377Y8640217D02*
D03*
X2032000Y8636000D02*
D03*
Y8128000D02*
D03*
X1777377Y8132217D02*
D03*
X1524000Y8128000D02*
D03*
X1270000D02*
D03*
X2032000Y8382000D02*
D03*
X1778000D02*
D03*
X1524000D02*
D03*
X1270000D02*
D03*
X254000D02*
D03*
X508000D02*
D03*
X762000D02*
D03*
X1016000D02*
D03*
X254000Y8128000D02*
D03*
X508000D02*
D03*
X761377Y8132217D02*
D03*
X1016000Y8128000D02*
D03*
Y8636000D02*
D03*
X761377Y8640217D02*
D03*
X508000Y8636000D02*
D03*
X254000D02*
D03*
X1016000Y8890000D02*
D03*
X762000D02*
D03*
X508000D02*
D03*
X254000D02*
D03*
Y4826000D02*
D03*
X508000D02*
D03*
X762000D02*
D03*
X1016000D02*
D03*
X254000Y4572000D02*
D03*
X508000D02*
D03*
X761377Y4576217D02*
D03*
X1016000Y4572000D02*
D03*
Y4064000D02*
D03*
X761377Y4068217D02*
D03*
X508000Y4064000D02*
D03*
X254000D02*
D03*
X1016000Y4318000D02*
D03*
X762000D02*
D03*
X508000D02*
D03*
X254000D02*
D03*
X1270000D02*
D03*
X1524000D02*
D03*
X1778000D02*
D03*
X2032000D02*
D03*
X1270000Y4064000D02*
D03*
X1524000D02*
D03*
X1777377Y4068217D02*
D03*
X2032000Y4064000D02*
D03*
Y4572000D02*
D03*
X1777377Y4576217D02*
D03*
X1524000Y4572000D02*
D03*
X1270000D02*
D03*
X2032000Y4826000D02*
D03*
X1778000D02*
D03*
X1524000D02*
D03*
X1270000D02*
D03*
Y3810000D02*
D03*
X1524000D02*
D03*
X1778000D02*
D03*
X2032000D02*
D03*
X1270000Y3556000D02*
D03*
X1524000D02*
D03*
X1777377Y3560217D02*
D03*
X2032000Y3556000D02*
D03*
Y3048000D02*
D03*
X1777377Y3052217D02*
D03*
X1524000Y3048000D02*
D03*
X1270000D02*
D03*
X2032000Y3302000D02*
D03*
X1778000D02*
D03*
X1524000D02*
D03*
X1270000D02*
D03*
X254000D02*
D03*
X508000D02*
D03*
X762000D02*
D03*
X1016000D02*
D03*
X254000Y3048000D02*
D03*
X508000D02*
D03*
X761377Y3052217D02*
D03*
X1016000Y3048000D02*
D03*
Y3556000D02*
D03*
X761377Y3560217D02*
D03*
X508000Y3556000D02*
D03*
X254000D02*
D03*
X1016000Y3810000D02*
D03*
X762000D02*
D03*
X508000D02*
D03*
X254000D02*
D03*
Y5842000D02*
D03*
X508000D02*
D03*
X762000D02*
D03*
X1016000D02*
D03*
X254000Y5588000D02*
D03*
X508000D02*
D03*
X761377Y5592217D02*
D03*
X1016000Y5588000D02*
D03*
Y5080000D02*
D03*
X761377Y5084217D02*
D03*
X508000Y5080000D02*
D03*
X254000D02*
D03*
X1016000Y5334000D02*
D03*
X762000D02*
D03*
X508000D02*
D03*
X254000D02*
D03*
X1270000D02*
D03*
X1524000D02*
D03*
X1778000D02*
D03*
X2032000D02*
D03*
X1270000Y5080000D02*
D03*
X1524000D02*
D03*
X1777377Y5084217D02*
D03*
X2032000Y5080000D02*
D03*
Y5588000D02*
D03*
X1777377Y5592217D02*
D03*
X1524000Y5588000D02*
D03*
X1270000D02*
D03*
X2032000Y5842000D02*
D03*
X1778000D02*
D03*
X1524000D02*
D03*
X1270000D02*
D03*
Y6858000D02*
D03*
X1524000D02*
D03*
X1778000D02*
D03*
X2032000D02*
D03*
X1270000Y6604000D02*
D03*
X1524000D02*
D03*
X1777377Y6608217D02*
D03*
X2032000Y6604000D02*
D03*
Y6096000D02*
D03*
X1777377Y6100217D02*
D03*
X1524000Y6096000D02*
D03*
X1270000D02*
D03*
X2032000Y6350000D02*
D03*
X1778000D02*
D03*
X1524000D02*
D03*
X1270000D02*
D03*
X254000D02*
D03*
X508000D02*
D03*
X762000D02*
D03*
X1016000D02*
D03*
X254000Y6096000D02*
D03*
X508000D02*
D03*
X761377Y6100217D02*
D03*
X1016000Y6096000D02*
D03*
Y6604000D02*
D03*
X761377Y6608217D02*
D03*
X508000Y6604000D02*
D03*
X254000D02*
D03*
X1016000Y6858000D02*
D03*
X762000D02*
D03*
X508000D02*
D03*
X254000D02*
D03*
X7721600Y8584660D02*
D03*
Y8709660D02*
D03*
X7818120D02*
D03*
Y8584660D02*
D03*
X5372100Y10795000D02*
D03*
Y10642600D02*
D03*
Y10528300D02*
D03*
X7544918Y12664638D02*
D03*
Y12867838D02*
D03*
X7354418D02*
D03*
X7434580Y13610591D02*
D03*
X6380912Y10371003D02*
D03*
X6295002D02*
D03*
X5600700Y10759887D02*
D03*
X11503399Y11944924D02*
D03*
X6295002Y9536490D02*
D03*
X6230912D02*
D03*
X12497783Y4719937D02*
D03*
X12582209Y4589165D02*
D03*
X12828964Y4696025D02*
D03*
X12545494Y4644789D02*
D03*
X12743040Y4696025D02*
D03*
X12579447Y4719937D02*
D03*
X13073380Y5326380D02*
D03*
X8234680Y16193639D02*
D03*
X7997351Y16383437D02*
D03*
X8404860Y15925252D02*
D03*
Y15800252D02*
D03*
X9972040Y6158139D02*
D03*
X10175240D02*
D03*
X9768840D02*
D03*
X11191240Y6154420D02*
D03*
X11394440D02*
D03*
X10777220Y6158139D02*
D03*
X10988040Y6154420D02*
D03*
X10370820Y6158139D02*
D03*
X10574020D02*
D03*
X10868660Y6385560D02*
D03*
X11071860D02*
D03*
X11275060D02*
D03*
X10251440Y6389279D02*
D03*
X10454640D02*
D03*
X10657840D02*
D03*
X11805920Y5951220D02*
D03*
X11602720Y6154420D02*
D03*
X11805920D02*
D03*
X12009120D02*
D03*
Y5951220D02*
D03*
X11805951Y6759111D02*
D03*
Y6555911D02*
D03*
X12009151Y6759111D02*
D03*
Y6555911D02*
D03*
Y6352711D02*
D03*
X11805951D02*
D03*
X11275060Y6588760D02*
D03*
X11071860D02*
D03*
X10868660D02*
D03*
X10657840Y6592479D02*
D03*
X10454640D02*
D03*
X10251440D02*
D03*
X14724380Y12194540D02*
D03*
X14879729Y12391923D02*
D03*
X5670154Y5075590D02*
D03*
Y6294645D02*
D03*
Y6091445D02*
D03*
Y5888245D02*
D03*
Y5481845D02*
D03*
Y5278645D02*
D03*
X7981554Y7120145D02*
D03*
Y6916945D02*
D03*
X8184754D02*
D03*
X7981554Y6713745D02*
D03*
X8184754D02*
D03*
X8387954D02*
D03*
Y6916945D02*
D03*
X8184754Y7120145D02*
D03*
X8387954D02*
D03*
X7981554Y5900945D02*
D03*
Y5494545D02*
D03*
X8184754D02*
D03*
Y5900945D02*
D03*
X8387954Y5494545D02*
D03*
Y5900945D02*
D03*
X7981554Y5697745D02*
D03*
X5873354Y5888245D02*
D03*
X8184754Y5697745D02*
D03*
X5873354Y5481845D02*
D03*
X5670154Y5685045D02*
D03*
X5873354D02*
D03*
X8387954Y5697745D02*
D03*
X7981554Y6104145D02*
D03*
Y6510545D02*
D03*
Y6307345D02*
D03*
X8184754D02*
D03*
X8387954D02*
D03*
X8184754Y6510545D02*
D03*
X8387954D02*
D03*
X8184754Y6104145D02*
D03*
X8387954D02*
D03*
X7981554Y5088290D02*
D03*
Y5291345D02*
D03*
X8184754D02*
D03*
Y5088290D02*
D03*
X8387954D02*
D03*
Y5291345D02*
D03*
X5670154Y6497845D02*
D03*
Y6701045D02*
D03*
X5873354Y6497845D02*
D03*
Y6701045D02*
D03*
Y7107445D02*
D03*
Y6904245D02*
D03*
X5670154D02*
D03*
Y7107445D02*
D03*
X6076554Y6701045D02*
D03*
Y7107445D02*
D03*
Y6904245D02*
D03*
Y6497845D02*
D03*
X5873354Y6294645D02*
D03*
X6076554Y5481845D02*
D03*
Y5685045D02*
D03*
Y6294645D02*
D03*
Y5888245D02*
D03*
X5873354Y6091445D02*
D03*
X6076554D02*
D03*
X5873354Y5278645D02*
D03*
Y5075590D02*
D03*
X6076554D02*
D03*
Y5278645D02*
D03*
X5873354Y3043590D02*
D03*
Y3449990D02*
D03*
Y3246790D02*
D03*
Y2840390D02*
D03*
X5670154D02*
D03*
X8387954Y3665890D02*
D03*
X8184754D02*
D03*
X8387954Y4275490D02*
D03*
X7981554Y4681890D02*
D03*
Y3665890D02*
D03*
Y4275490D02*
D03*
Y4072290D02*
D03*
X8184754Y3869090D02*
D03*
Y4072290D02*
D03*
Y4478690D02*
D03*
Y4681890D02*
D03*
Y4275490D02*
D03*
X8387954Y3869090D02*
D03*
Y4072290D02*
D03*
Y4681890D02*
D03*
Y4478690D02*
D03*
X5670154Y4262790D02*
D03*
Y3856390D02*
D03*
Y3246790D02*
D03*
Y3449990D02*
D03*
Y3653190D02*
D03*
Y4872390D02*
D03*
Y4465990D02*
D03*
Y4059590D02*
D03*
Y4669190D02*
D03*
X8184754Y3462690D02*
D03*
X8387954Y3259490D02*
D03*
Y3056290D02*
D03*
Y3462690D02*
D03*
X8184754Y3056290D02*
D03*
X7981554D02*
D03*
X8184754Y3259490D02*
D03*
X7981554Y3462690D02*
D03*
Y3259490D02*
D03*
X5873354Y4872390D02*
D03*
X5670154Y3043590D02*
D03*
X6076554Y3246790D02*
D03*
Y3043590D02*
D03*
Y3449990D02*
D03*
Y2840390D02*
D03*
Y4872390D02*
D03*
X5873354Y3653190D02*
D03*
Y3856390D02*
D03*
Y4059590D02*
D03*
Y4262790D02*
D03*
Y4669190D02*
D03*
Y4465990D02*
D03*
X6076554Y3856390D02*
D03*
Y3653190D02*
D03*
Y4465990D02*
D03*
Y4669190D02*
D03*
Y4059590D02*
D03*
Y4262790D02*
D03*
X7981554Y3869090D02*
D03*
Y4478690D02*
D03*
Y4885090D02*
D03*
X8184754D02*
D03*
X8387954D02*
D03*
X8299296Y17251961D02*
D03*
X8786301Y17825337D02*
D03*
X16869511Y10575999D02*
D03*
X17104660Y11361659D02*
D03*
X17017999Y11363399D02*
D03*
X16776532D02*
D03*
X16666692D02*
D03*
X16539752D02*
D03*
X19075400Y12258652D02*
D03*
X12755631Y4993070D02*
D03*
X15326540Y14048006D02*
D03*
X9060990Y9490762D02*
D03*
X8637778Y9488434D02*
D03*
X9731064Y9388221D02*
D03*
X8520695Y11907587D02*
D03*
X8519264Y11492921D02*
D03*
X8725100Y12300002D02*
D03*
X8991010Y12416842D02*
D03*
X8759190D02*
D03*
X9652598Y12483363D02*
D03*
X10075103D02*
D03*
X10725100Y12482882D02*
D03*
X10297602D02*
D03*
X11440789Y11714788D02*
D03*
X11504506Y11872503D02*
D03*
Y11672503D02*
D03*
Y11272504D02*
D03*
X11505361Y10812847D02*
D03*
X11506601Y10427506D02*
D03*
Y10180372D02*
D03*
Y10267313D02*
D03*
X11510441Y9650002D02*
D03*
Y10072507D02*
D03*
X11063877Y9584243D02*
D03*
X9170780Y9498538D02*
D03*
X10825100Y11597692D02*
D03*
X9224901Y11600232D02*
D03*
X10525001Y9900002D02*
D03*
X10525100Y9700002D02*
D03*
X4280330Y10687101D02*
D03*
Y10864900D02*
D03*
X7151218Y12664638D02*
D03*
Y12867838D02*
D03*
X7354418Y12664638D02*
D03*
X6948018D02*
D03*
Y12867838D02*
D03*
X7748118Y12664638D02*
D03*
Y12867838D02*
D03*
X2743200Y12725254D02*
D03*
Y12522054D02*
D03*
Y12928600D02*
D03*
Y13335001D02*
D03*
Y13538200D02*
D03*
Y13131799D02*
D03*
Y13741400D02*
D03*
Y13944600D02*
D03*
X15201900Y14300200D02*
D03*
X15405099D02*
D03*
Y14503400D02*
D03*
X15201900D02*
D03*
X15608299D02*
D03*
X15811501D02*
D03*
Y14300200D02*
D03*
X15608299D02*
D03*
X17183099Y13893800D02*
D03*
X14833600Y15530302D02*
D03*
X14935201D02*
D03*
Y15428702D02*
D03*
X14833600D02*
D03*
X18834100Y19215100D02*
D03*
Y19418300D02*
D03*
Y19608800D02*
D03*
Y19812000D02*
D03*
X18224500D02*
D03*
X18427699D02*
D03*
X18630901D02*
D03*
Y19608800D02*
D03*
X18427699D02*
D03*
X18224500D02*
D03*
Y19418300D02*
D03*
X18427699D02*
D03*
X18630901D02*
D03*
Y19215100D02*
D03*
X18427699D02*
D03*
X18224500D02*
D03*
X14389101D02*
D03*
X14592300D02*
D03*
X14795500D02*
D03*
Y19418300D02*
D03*
X14592300D02*
D03*
X14389101D02*
D03*
Y19608800D02*
D03*
X14592300D02*
D03*
X14795500D02*
D03*
Y19812000D02*
D03*
X14592300D02*
D03*
X14389101D02*
D03*
X14998700D02*
D03*
X15201900D02*
D03*
X15405099D02*
D03*
Y19608800D02*
D03*
X15201900D02*
D03*
X14998700D02*
D03*
Y19418300D02*
D03*
X15201900D02*
D03*
X15405099D02*
D03*
Y19215100D02*
D03*
X15201900D02*
D03*
X14998700D02*
D03*
X15608299D02*
D03*
X15811501D02*
D03*
X16014700D02*
D03*
Y19418300D02*
D03*
X15811501D02*
D03*
X15608299D02*
D03*
Y19608800D02*
D03*
X15811501D02*
D03*
X16014700D02*
D03*
Y19812000D02*
D03*
X15811501D02*
D03*
X15608299D02*
D03*
X16611600D02*
D03*
X16814799D02*
D03*
X17017999D02*
D03*
Y19608800D02*
D03*
X16814799D02*
D03*
X16611600D02*
D03*
Y19418300D02*
D03*
X16814799D02*
D03*
X17017999D02*
D03*
X16611600Y19215100D02*
D03*
X16205200D02*
D03*
X16408400D02*
D03*
Y19418300D02*
D03*
X16205200D02*
D03*
Y19608800D02*
D03*
X16408400D02*
D03*
Y19812000D02*
D03*
X16205200D02*
D03*
X17208501D02*
D03*
X17411700D02*
D03*
Y19608800D02*
D03*
X17208501D02*
D03*
Y19418300D02*
D03*
X17411700D02*
D03*
Y19215100D02*
D03*
X17208501D02*
D03*
X17614900D02*
D03*
X17818100D02*
D03*
X18021300D02*
D03*
Y19418300D02*
D03*
X17818100D02*
D03*
X17614900D02*
D03*
Y19608800D02*
D03*
X17818100D02*
D03*
X18021300D02*
D03*
Y19812000D02*
D03*
X17818100D02*
D03*
X17614900D02*
D03*
X19843686Y13747263D02*
D03*
X19640488D02*
D03*
X19437286D02*
D03*
X19500482Y15029259D02*
D03*
X19703682D02*
D03*
Y15232458D02*
D03*
X19500482D02*
D03*
X19297282D02*
D03*
Y15029259D02*
D03*
X19316701Y16357600D02*
D03*
Y16560800D02*
D03*
X19519901D02*
D03*
X19723100D02*
D03*
Y16357600D02*
D03*
X19519901D02*
D03*
X17297400Y16738600D02*
D03*
X17500600D02*
D03*
X17703799D02*
D03*
Y16941800D02*
D03*
X17500600D02*
D03*
X17297400D02*
D03*
X17907001D02*
D03*
X18110201D02*
D03*
X18313400D02*
D03*
Y16738600D02*
D03*
X18110201D02*
D03*
X17907001D02*
D03*
X18719800D02*
D03*
X18516600Y16941800D02*
D03*
X19519901D02*
D03*
X19723100D02*
D03*
Y16738600D02*
D03*
X19519901D02*
D03*
X19113499D02*
D03*
X19316701D02*
D03*
Y16941800D02*
D03*
X19113499D02*
D03*
X13462000Y16738600D02*
D03*
X13665199D02*
D03*
X13868401D02*
D03*
Y16941800D02*
D03*
X13665199D02*
D03*
X13462000D02*
D03*
X14071600D02*
D03*
X14274800D02*
D03*
X14478000D02*
D03*
Y16738600D02*
D03*
X14274800D02*
D03*
X14071600D02*
D03*
X14681200D02*
D03*
X14884399D02*
D03*
X15087601D02*
D03*
Y16941800D02*
D03*
X14884399D02*
D03*
X14681200D02*
D03*
X15684500D02*
D03*
X15887700D02*
D03*
X16090900D02*
D03*
Y16738600D02*
D03*
X15887700D02*
D03*
X15684500D02*
D03*
X15278101D02*
D03*
X15481300D02*
D03*
Y16941800D02*
D03*
X15278101D02*
D03*
X16281400D02*
D03*
X16484599D02*
D03*
Y16738600D02*
D03*
X16281400D02*
D03*
X16687801D02*
D03*
X16891000D02*
D03*
X17094200D02*
D03*
Y16941800D02*
D03*
X16891000D02*
D03*
X16687801D02*
D03*
X16916400Y13627100D02*
D03*
Y13436600D02*
D03*
X17373599Y13309599D02*
D03*
X17183099D02*
D03*
X17843500Y13404388D02*
D03*
X17653000D02*
D03*
X4368800Y12280900D02*
D03*
Y12484100D02*
D03*
X4165600D02*
D03*
Y12280900D02*
D03*
X4775200D02*
D03*
Y12484100D02*
D03*
Y12687300D02*
D03*
X4572000D02*
D03*
Y12484100D02*
D03*
Y12280900D02*
D03*
Y12890500D02*
D03*
X4775200D02*
D03*
X14414500Y13462000D02*
D03*
X14617700D02*
D03*
X14808200D02*
D03*
X14211301D02*
D03*
X14008099D02*
D03*
X13817599D02*
D03*
X13614400D02*
D03*
X16256000Y13068300D02*
D03*
Y13271500D02*
D03*
Y13474699D02*
D03*
X16459200D02*
D03*
Y13271500D02*
D03*
Y13068300D02*
D03*
X16649699D02*
D03*
Y13271500D02*
D03*
Y13474699D02*
D03*
X16052800Y13068300D02*
D03*
Y13271500D02*
D03*
Y13474699D02*
D03*
X15849600D02*
D03*
Y13271500D02*
D03*
Y13068300D02*
D03*
X15659100D02*
D03*
Y13271500D02*
D03*
Y13474699D02*
D03*
X15455901D02*
D03*
Y13271500D02*
D03*
Y13068300D02*
D03*
X16992599Y12026900D02*
D03*
X17195799D02*
D03*
X17399001D02*
D03*
Y11823700D02*
D03*
X17195799D02*
D03*
X16992599D02*
D03*
Y11633200D02*
D03*
X17195799D02*
D03*
X17399001D02*
D03*
X16992599Y12230100D02*
D03*
X17195799D02*
D03*
X17399001D02*
D03*
Y12433300D02*
D03*
X17195799D02*
D03*
X16992599D02*
D03*
Y12623800D02*
D03*
X17195799D02*
D03*
X17399001D02*
D03*
Y12827000D02*
D03*
X17195799D02*
D03*
X16992599D02*
D03*
X17589500Y12026900D02*
D03*
Y11823700D02*
D03*
Y11633200D02*
D03*
Y12230100D02*
D03*
Y12433300D02*
D03*
Y12623800D02*
D03*
Y12827000D02*
D03*
X15875000Y11430000D02*
D03*
Y11633200D02*
D03*
X15671800D02*
D03*
Y11430000D02*
D03*
X13842999Y10363200D02*
D03*
Y10160000D02*
D03*
X13639799Y9956800D02*
D03*
X13233400D02*
D03*
X13436600D02*
D03*
X13030200D02*
D03*
Y9753600D02*
D03*
X13233400Y9550400D02*
D03*
X13436600D02*
D03*
Y9753600D02*
D03*
X13233400D02*
D03*
X13842999Y9956800D02*
D03*
X14452600Y9753600D02*
D03*
X13842999D02*
D03*
X13639799D02*
D03*
Y9550400D02*
D03*
X13842999D02*
D03*
X14046201D02*
D03*
X14249400D02*
D03*
Y9753600D02*
D03*
X14046201D02*
D03*
X14249400Y10363200D02*
D03*
X14046201D02*
D03*
X14249400Y10566400D02*
D03*
Y10160000D02*
D03*
X14046201D02*
D03*
Y9956800D02*
D03*
X14249400D02*
D03*
X14452600D02*
D03*
X14655800D02*
D03*
X14859000Y10160000D02*
D03*
X14655800D02*
D03*
X14452600D02*
D03*
Y10566400D02*
D03*
X14655800D02*
D03*
X14859000D02*
D03*
Y10363200D02*
D03*
X14655800D02*
D03*
X14452600D02*
D03*
Y10769600D02*
D03*
X14655800D02*
D03*
X14859000D02*
D03*
Y10972800D02*
D03*
X14655800D02*
D03*
X14452600D02*
D03*
Y11163300D02*
D03*
X14655800D02*
D03*
X14859000D02*
D03*
Y11366500D02*
D03*
X14655800D02*
D03*
X14452600D02*
D03*
X15062199D02*
D03*
Y11163300D02*
D03*
Y10972800D02*
D03*
Y10769600D02*
D03*
Y10363200D02*
D03*
Y10566400D02*
D03*
X12781084Y11836143D02*
D03*
X12577884D02*
D03*
Y11645643D02*
D03*
X12781084D02*
D03*
X10937690Y8966995D02*
D03*
X10734490D02*
D03*
Y8776495D02*
D03*
X10937690D02*
D03*
X10942858Y8611174D02*
D03*
X10739658D02*
D03*
Y8420674D02*
D03*
X10942858D02*
D03*
X12978603Y8260624D02*
D03*
X13181802D02*
D03*
X13385002D02*
D03*
Y8463824D02*
D03*
X13181802D02*
D03*
X12978603D02*
D03*
Y8654324D02*
D03*
X13181802D02*
D03*
X13385002D02*
D03*
Y8857524D02*
D03*
X13181802D02*
D03*
X12978603D02*
D03*
X13588202D02*
D03*
Y8654324D02*
D03*
Y8463824D02*
D03*
Y8260624D02*
D03*
X16710316Y9955931D02*
D03*
Y10159131D02*
D03*
X16507117D02*
D03*
Y9955931D02*
D03*
X16316617D02*
D03*
Y10159131D02*
D03*
X16113417D02*
D03*
Y9955931D02*
D03*
X15388223Y8705776D02*
D03*
X15591425D02*
D03*
Y8908976D02*
D03*
X15388223D02*
D03*
Y9099476D02*
D03*
X15591425D02*
D03*
Y9302676D02*
D03*
X15388223D02*
D03*
X14852403Y7463787D02*
D03*
X15055605D02*
D03*
X15258804D02*
D03*
X14852403Y7666987D02*
D03*
X15055605D02*
D03*
X15258804D02*
D03*
Y7870187D02*
D03*
X15055605D02*
D03*
X14852403D02*
D03*
Y8060687D02*
D03*
X15055605D02*
D03*
X15258804D02*
D03*
Y8263887D02*
D03*
X15055605D02*
D03*
X14852403D02*
D03*
X15462004D02*
D03*
X15665204D02*
D03*
Y8060687D02*
D03*
X15462004D02*
D03*
Y7870187D02*
D03*
X15665204D02*
D03*
Y7666987D02*
D03*
X15462004D02*
D03*
X15665204Y7463787D02*
D03*
X15462004D02*
D03*
X17447357Y9643941D02*
D03*
X17637857Y9847141D02*
D03*
Y9643941D02*
D03*
X8458200Y14363699D02*
D03*
X8661400D02*
D03*
Y14160500D02*
D03*
X8458200D02*
D03*
Y14566901D02*
D03*
X8661400D02*
D03*
Y14770100D02*
D03*
X8458200D02*
D03*
Y14960600D02*
D03*
X8661400D02*
D03*
X8255000D02*
D03*
X8051800D02*
D03*
X7848600D02*
D03*
Y14770100D02*
D03*
X8051800D02*
D03*
X8255000D02*
D03*
Y14566901D02*
D03*
X8051800D02*
D03*
X7848600D02*
D03*
Y14160500D02*
D03*
X8051800D02*
D03*
X8255000D02*
D03*
Y14363699D02*
D03*
X8051800D02*
D03*
X7848600D02*
D03*
X10706100Y12953999D02*
D03*
Y12750800D02*
D03*
X11303000D02*
D03*
X11112500D02*
D03*
Y12953999D02*
D03*
X10909300D02*
D03*
Y12750800D02*
D03*
X9906000Y12953999D02*
D03*
Y12750800D02*
D03*
X10502900Y12953999D02*
D03*
Y12750800D02*
D03*
X10312400D02*
D03*
Y12953999D02*
D03*
X10109200D02*
D03*
Y12750800D02*
D03*
X9105900Y12953999D02*
D03*
Y12750800D02*
D03*
X9702800Y12953999D02*
D03*
Y12750800D02*
D03*
X9512300D02*
D03*
Y12953999D02*
D03*
X9309100D02*
D03*
Y12750800D02*
D03*
X10942858Y8062012D02*
D03*
X10739658D02*
D03*
Y8252512D02*
D03*
X10942858D02*
D03*
X12090400Y9842500D02*
D03*
X12293600Y9639300D02*
D03*
X12090400D02*
D03*
X12293600Y9436100D02*
D03*
X12090400D02*
D03*
X12293600Y9842500D02*
D03*
Y10045700D02*
D03*
X12090400D02*
D03*
Y11252200D02*
D03*
X12293600D02*
D03*
Y11049000D02*
D03*
X12090400D02*
D03*
Y10858500D02*
D03*
X12293600D02*
D03*
Y10655300D02*
D03*
X12090400D02*
D03*
Y10248900D02*
D03*
X12293600D02*
D03*
Y10452100D02*
D03*
X12090400D02*
D03*
Y12458700D02*
D03*
X12293600D02*
D03*
Y12255500D02*
D03*
X12090400D02*
D03*
Y12065000D02*
D03*
X12293600D02*
D03*
Y11861800D02*
D03*
X12090400D02*
D03*
Y11455400D02*
D03*
X12293600D02*
D03*
Y11658600D02*
D03*
X12090400D02*
D03*
X10236200Y9258300D02*
D03*
X10033000D02*
D03*
X9469120Y8851900D02*
D03*
Y9055100D02*
D03*
X9639300D02*
D03*
Y8851900D02*
D03*
X9829800D02*
D03*
Y9055100D02*
D03*
X10033000D02*
D03*
Y8851900D02*
D03*
Y8242300D02*
D03*
Y8445500D02*
D03*
Y8648700D02*
D03*
X9829800D02*
D03*
Y8445500D02*
D03*
Y8242300D02*
D03*
X9639300D02*
D03*
Y8445500D02*
D03*
Y8648700D02*
D03*
X9469120D02*
D03*
Y8445500D02*
D03*
Y8242300D02*
D03*
Y8039100D02*
D03*
X9639300D02*
D03*
X9829800D02*
D03*
X10033000D02*
D03*
X4368800Y12687300D02*
D03*
Y12890500D02*
D03*
X3759200D02*
D03*
X3962400D02*
D03*
X4165600D02*
D03*
Y12687300D02*
D03*
X3962400D02*
D03*
X3759200D02*
D03*
Y13093700D02*
D03*
X3962400D02*
D03*
X4165600D02*
D03*
Y13296899D02*
D03*
X3962400D02*
D03*
X3759200D02*
D03*
X4368800D02*
D03*
X4572000D02*
D03*
X4775200D02*
D03*
Y13093700D02*
D03*
X4572000D02*
D03*
X4368800D02*
D03*
X4978400D02*
D03*
X5181600D02*
D03*
X5384800D02*
D03*
Y13296899D02*
D03*
X5181600D02*
D03*
X4978400D02*
D03*
X3556000Y13741400D02*
D03*
X3352800D02*
D03*
X3149600D02*
D03*
Y13944600D02*
D03*
X3352800D02*
D03*
X3556000D02*
D03*
X2946400D02*
D03*
Y13741400D02*
D03*
X4978400Y13944600D02*
D03*
X5181600D02*
D03*
X5384800D02*
D03*
Y13741400D02*
D03*
X5181600D02*
D03*
X4978400D02*
D03*
X4368800D02*
D03*
X4572000D02*
D03*
X4775200D02*
D03*
Y13944600D02*
D03*
X4572000D02*
D03*
X4368800D02*
D03*
X3759200D02*
D03*
X3962400D02*
D03*
X4165600D02*
D03*
Y13741400D02*
D03*
X3962400D02*
D03*
X3759200D02*
D03*
X10638224Y16624300D02*
D03*
X10828724D02*
D03*
X11031924D02*
D03*
Y16827499D02*
D03*
X10828724D02*
D03*
X10638224D02*
D03*
X10106982Y15748000D02*
D03*
X10310182D02*
D03*
X10500682D02*
D03*
X11899900D02*
D03*
X11709400D02*
D03*
X10718800Y15951199D02*
D03*
X10909300D02*
D03*
X11112500D02*
D03*
X11506200D02*
D03*
X11315700D02*
D03*
Y15748000D02*
D03*
X11506200D02*
D03*
X11112500D02*
D03*
X10909300D02*
D03*
X10718800D02*
D03*
X11709400Y16929100D02*
D03*
Y16725900D02*
D03*
Y16535400D02*
D03*
Y16332201D02*
D03*
Y15951199D02*
D03*
Y16128999D02*
D03*
X11912600D02*
D03*
Y15951199D02*
D03*
Y16332201D02*
D03*
Y16535400D02*
D03*
Y16725900D02*
D03*
Y16929100D02*
D03*
X3506901Y10014000D02*
D03*
X3862501D02*
D03*
X3684701D02*
D03*
X3862501Y10268000D02*
D03*
X3684701D02*
D03*
X3506901D02*
D03*
X3684701Y10522000D02*
D03*
X3862501D02*
D03*
X3506901D02*
D03*
X2783001Y10522002D02*
D03*
X2605201D02*
D03*
X3138601D02*
D03*
X2960801D02*
D03*
Y10014000D02*
D03*
X3138601D02*
D03*
X2960801Y10268000D02*
D03*
X3138601D02*
D03*
X2783001Y10014000D02*
D03*
X2605201D02*
D03*
Y10268000D02*
D03*
X2783001D02*
D03*
X13779500Y19812000D02*
D03*
X13982700D02*
D03*
X14185899D02*
D03*
Y19608800D02*
D03*
X13982700D02*
D03*
X13779500D02*
D03*
Y19418300D02*
D03*
X13982700D02*
D03*
X14185899D02*
D03*
Y19215100D02*
D03*
X13982700D02*
D03*
X13779500D02*
D03*
X13373100D02*
D03*
X13576300D02*
D03*
Y19418300D02*
D03*
X13373100D02*
D03*
Y19608800D02*
D03*
X13576300D02*
D03*
Y19812000D02*
D03*
X13373100D02*
D03*
X12369800D02*
D03*
X12573000D02*
D03*
Y19608800D02*
D03*
X12369800D02*
D03*
Y19418300D02*
D03*
X12573000D02*
D03*
Y19215100D02*
D03*
X12369800D02*
D03*
Y18414999D02*
D03*
X12573000D02*
D03*
Y18618201D02*
D03*
X12369800D02*
D03*
Y18808701D02*
D03*
X12573000D02*
D03*
Y19011900D02*
D03*
X12369800D02*
D03*
X12776200D02*
D03*
X12979401D02*
D03*
X13182600D02*
D03*
Y18808701D02*
D03*
X12979401D02*
D03*
X12776200D02*
D03*
Y18618201D02*
D03*
X12979401D02*
D03*
X13182600D02*
D03*
Y18414999D02*
D03*
X12979401D02*
D03*
X12776200D02*
D03*
Y19215100D02*
D03*
X12979401D02*
D03*
X13182600D02*
D03*
Y19418300D02*
D03*
X12979401D02*
D03*
X12776200D02*
D03*
Y19608800D02*
D03*
X12979401D02*
D03*
X13182600D02*
D03*
Y19812000D02*
D03*
X12979401D02*
D03*
X12776200D02*
D03*
X11772900D02*
D03*
X11976100D02*
D03*
X12179300D02*
D03*
Y19608800D02*
D03*
X11976100D02*
D03*
X11772900D02*
D03*
Y19418300D02*
D03*
X11976100D02*
D03*
X12179300D02*
D03*
Y19215100D02*
D03*
X11976100D02*
D03*
X11772900D02*
D03*
Y18414999D02*
D03*
X11976100D02*
D03*
X12179300D02*
D03*
Y18618201D02*
D03*
X11976100D02*
D03*
X11772900D02*
D03*
Y18808701D02*
D03*
X11976100D02*
D03*
X12179300D02*
D03*
Y19011900D02*
D03*
X11976100D02*
D03*
X11772900D02*
D03*
X11163300D02*
D03*
X11366500D02*
D03*
X11569700D02*
D03*
Y18808701D02*
D03*
X11366500D02*
D03*
X11163300D02*
D03*
Y18618201D02*
D03*
X11366500D02*
D03*
X11569700D02*
D03*
Y18414999D02*
D03*
X11366500D02*
D03*
X11163300D02*
D03*
Y19215100D02*
D03*
X11366500D02*
D03*
X11569700D02*
D03*
Y19418300D02*
D03*
X11366500D02*
D03*
X11163300D02*
D03*
Y19608800D02*
D03*
X11366500D02*
D03*
X11569700D02*
D03*
Y19812000D02*
D03*
X11366500D02*
D03*
X11163300D02*
D03*
X10553700D02*
D03*
X10756900D02*
D03*
X10960100D02*
D03*
Y19608800D02*
D03*
X10756900D02*
D03*
X10553700D02*
D03*
Y19418300D02*
D03*
X10756900D02*
D03*
X10960100D02*
D03*
Y19215100D02*
D03*
X10756900D02*
D03*
X10553700D02*
D03*
Y18414999D02*
D03*
X10756900D02*
D03*
X10960100D02*
D03*
Y18618201D02*
D03*
X10756900D02*
D03*
X10553700D02*
D03*
Y18808701D02*
D03*
X10756900D02*
D03*
X10960100D02*
D03*
Y19011900D02*
D03*
X10756900D02*
D03*
X10553700D02*
D03*
X7607300Y16637000D02*
D03*
X7200900Y18237199D02*
D03*
X7404100Y18034000D02*
D03*
Y18237199D02*
D03*
X7810500Y17437100D02*
D03*
X8013700D02*
D03*
Y17233900D02*
D03*
X7810500D02*
D03*
Y17043401D02*
D03*
X8013700D02*
D03*
Y16840199D02*
D03*
X7810500D02*
D03*
Y17640300D02*
D03*
X8013700D02*
D03*
Y17843500D02*
D03*
X7810500D02*
D03*
Y18034000D02*
D03*
X8013700D02*
D03*
Y18237199D02*
D03*
X7810500D02*
D03*
X7607300D02*
D03*
Y18034000D02*
D03*
Y17843500D02*
D03*
Y17640300D02*
D03*
Y16840199D02*
D03*
Y17043401D02*
D03*
Y17233900D02*
D03*
Y17437100D02*
D03*
X7200900Y19037300D02*
D03*
X7404100D02*
D03*
X7607300D02*
D03*
Y18834100D02*
D03*
X7404100D02*
D03*
X7200900D02*
D03*
Y18643600D02*
D03*
X7404100D02*
D03*
X7607300D02*
D03*
Y18440401D02*
D03*
X7404100D02*
D03*
X7200900D02*
D03*
Y19240500D02*
D03*
X7404100D02*
D03*
X7607300D02*
D03*
X8216900D02*
D03*
X8013700D02*
D03*
X7810500D02*
D03*
Y18440401D02*
D03*
X8013700D02*
D03*
X8216900D02*
D03*
Y18643600D02*
D03*
X8013700D02*
D03*
X7810500D02*
D03*
Y18834100D02*
D03*
X8013700D02*
D03*
X8216900D02*
D03*
Y19037300D02*
D03*
X8013700D02*
D03*
X7810500D02*
D03*
X19467162Y12258652D02*
D03*
X7630218Y15921773D02*
D03*
X7957726D02*
D03*
X8420100Y19037300D02*
D03*
X8623300D02*
D03*
X8826500D02*
D03*
Y18834100D02*
D03*
X8623300D02*
D03*
X8420100D02*
D03*
Y18643600D02*
D03*
X8623300D02*
D03*
X8826500D02*
D03*
Y18440401D02*
D03*
X8623300D02*
D03*
X8420100D02*
D03*
Y19240500D02*
D03*
X8623300D02*
D03*
X8826500D02*
D03*
X18823940Y17145000D02*
D03*
X13928406Y15113776D02*
D03*
X14030005D02*
D03*
Y15215375D02*
D03*
X13928406D02*
D03*
X14131606D02*
D03*
X14233205D02*
D03*
Y15113776D02*
D03*
X14131606D02*
D03*
X14538005D02*
D03*
X14639606D02*
D03*
Y15215375D02*
D03*
X14538005D02*
D03*
X14334805D02*
D03*
X14436404D02*
D03*
Y15113776D02*
D03*
X14334805D02*
D03*
X13866614Y17697107D02*
D03*
Y17595506D02*
D03*
X13765015D02*
D03*
X13866614Y17493907D02*
D03*
X13765015D02*
D03*
X14476215Y17290707D02*
D03*
X14577814D02*
D03*
Y17392307D02*
D03*
X14476215D02*
D03*
X14679414D02*
D03*
X14781013D02*
D03*
Y17290707D02*
D03*
X14679414D02*
D03*
X14882614Y17392307D02*
D03*
Y17290707D02*
D03*
X14069814D02*
D03*
X14171414D02*
D03*
Y17392307D02*
D03*
X14069814D02*
D03*
X14273013D02*
D03*
X14374614D02*
D03*
Y17290707D02*
D03*
X14273013D02*
D03*
X13866614D02*
D03*
X13968214D02*
D03*
Y17392307D02*
D03*
X13866614D02*
D03*
X13663414D02*
D03*
X13765015D02*
D03*
Y17290707D02*
D03*
X13663414D02*
D03*
X13794951Y14275580D02*
D03*
X13712154D02*
D03*
X13890401Y14382274D02*
D03*
Y14275580D02*
D03*
Y14168886D02*
D03*
X13712154Y14382274D02*
D03*
Y14168886D02*
D03*
X13794951D02*
D03*
Y14381494D02*
D03*
X17417377Y14053064D02*
D03*
Y14168129D02*
D03*
X17531677Y14053064D02*
D03*
Y14168129D02*
D03*
Y13920557D02*
D03*
X17417377D02*
D03*
X17303078D02*
D03*
X17322800Y14168129D02*
D03*
Y14053064D02*
D03*
X17880219Y16177539D02*
D03*
X18897600Y18675349D02*
D03*
X18033975Y15057120D02*
D03*
X18669000Y14655800D02*
D03*
X18580099D02*
D03*
X18313400D02*
D03*
X18491200D02*
D03*
X18402299Y14262100D02*
D03*
X18313400Y14528799D02*
D03*
X18402299Y14389101D02*
D03*
X18745200Y14503400D02*
D03*
X18834100D02*
D03*
X18669000D02*
D03*
X18491200D02*
D03*
X18580099D02*
D03*
X19340709Y12256880D02*
D03*
X19208751Y12258311D02*
D03*
X19041161Y12376859D02*
D03*
Y12312756D02*
D03*
X19404187Y12258660D02*
D03*
X19274654Y12258713D02*
D03*
X19146867Y12257909D02*
D03*
X16291560Y14004626D02*
D03*
X16538608Y14224001D02*
D03*
X14776205Y5508290D02*
D03*
X13860983Y5429336D02*
D03*
X13939624D02*
D03*
X14844901Y5510543D02*
D03*
X13939624Y5368079D02*
D03*
X14259438Y4536562D02*
D03*
X14262100Y5143500D02*
D03*
X14274800Y4610100D02*
D03*
X14262100Y4686300D02*
D03*
X13860983Y5500741D02*
D03*
X12650711Y4261962D02*
D03*
X12649235Y4197152D02*
D03*
X12313582Y4597016D02*
D03*
X12522769Y4828162D02*
D03*
X12261091Y4565334D02*
D03*
X12603458Y4993314D02*
D03*
X13126987Y5605450D02*
D03*
X13331709Y5719766D02*
D03*
X13392139Y5692033D02*
D03*
X14093794Y4311650D02*
D03*
X13391789Y4216712D02*
D03*
X13392078Y4155683D02*
D03*
X13204366Y4161311D02*
D03*
X13276562Y4181022D02*
D03*
X12528365Y4974551D02*
D03*
X12698223Y4946196D02*
D03*
X12880461Y4074862D02*
D03*
X12882076Y4141866D02*
D03*
X12910648Y5063735D02*
D03*
X12823483Y4924770D02*
D03*
X12899284Y4930122D02*
D03*
X14166286Y4311322D02*
D03*
X12497783Y4886233D02*
D03*
X10525001Y10300055D02*
D03*
X10325001D02*
D03*
X10025107Y10399904D02*
D03*
X9725147Y10200109D02*
D03*
X12962054Y5106995D02*
D03*
X6553418Y13697258D02*
D03*
X6622423Y13726859D02*
D03*
X6553418Y13765617D02*
D03*
Y13516515D02*
D03*
X6622423Y13665898D02*
D03*
Y13579538D02*
D03*
X6553418Y13579124D02*
D03*
X6622423Y13518578D02*
D03*
X13560083Y5721192D02*
D03*
X13472360Y5717373D02*
D03*
X13245384Y5540807D02*
D03*
X13289799Y5587999D02*
D03*
X13075121Y5563489D02*
D03*
X5695788Y10318625D02*
D03*
X5480595Y10325704D02*
D03*
X5602401Y10371003D02*
D03*
X5329351Y10317237D02*
D03*
X6375005Y9536500D02*
D03*
X5548163Y9528799D02*
D03*
X5687490Y9541591D02*
D03*
X5424601Y9531001D02*
D03*
X6063135Y9545681D02*
D03*
X6132972Y9544594D02*
D03*
X10325100Y10900002D02*
D03*
X10425100Y10700002D02*
D03*
X10325100D02*
D03*
Y10800002D02*
D03*
X10125100D02*
D03*
X10225100D02*
D03*
X10325100Y10600002D02*
D03*
X10125100D02*
D03*
Y10500002D02*
D03*
X10225100Y10700002D02*
D03*
X10325100Y10500004D02*
D03*
X10225100Y10600280D02*
D03*
X10125100Y10700002D02*
D03*
X10525100Y12000002D02*
D03*
X9524901Y12000002D02*
D03*
X9724901D02*
D03*
X9324901D02*
D03*
X9224901D02*
D03*
X10225001Y12000102D02*
D03*
X10425100Y12000002D02*
D03*
X10125001Y12000102D02*
D03*
X10325001Y12000102D02*
D03*
X9624901Y12000002D02*
D03*
X9124901D02*
D03*
X10525100Y11900002D02*
D03*
X9125100D02*
D03*
X9724901D02*
D03*
X9524901D02*
D03*
X9924901D02*
D03*
X10625100D02*
D03*
X10125001Y11900102D02*
D03*
X9324901Y11900002D02*
D03*
X10225001Y11900102D02*
D03*
X9824901Y10700002D02*
D03*
X9724901Y10800002D02*
D03*
Y10700002D02*
D03*
Y10900002D02*
D03*
X9724885Y10600280D02*
D03*
X9824901Y10500005D02*
D03*
X9724885Y10500007D02*
D03*
X9725001Y10399903D02*
D03*
X9824901Y10900002D02*
D03*
Y10800002D02*
D03*
X9625162Y10900068D02*
D03*
X9824901Y10600280D02*
D03*
X9825001Y10399903D02*
D03*
X10125100Y10900002D02*
D03*
X10225100D02*
D03*
X10525100Y10600002D02*
D03*
X10625100Y10900002D02*
D03*
X9924901Y10700002D02*
D03*
X9925001Y10200002D02*
D03*
X9924901Y10600002D02*
D03*
Y11200002D02*
D03*
Y11100002D02*
D03*
X9925004Y10399886D02*
D03*
X9925001Y10100002D02*
D03*
X9924901Y10900002D02*
D03*
Y10800002D02*
D03*
Y10500005D02*
D03*
X10525100Y11500002D02*
D03*
X10427099Y11499999D02*
D03*
X10425100Y11800003D02*
D03*
X10425001Y11400102D02*
D03*
X10427099Y11599999D02*
D03*
X10425100Y11700000D02*
D03*
Y11200002D02*
D03*
X10725100Y11800003D02*
D03*
Y11200002D02*
D03*
X10525100Y11800001D02*
D03*
Y11700003D02*
D03*
X10625100Y11500002D02*
D03*
Y11800003D02*
D03*
X9724901Y11100002D02*
D03*
X9824901Y11200002D02*
D03*
Y11100002D02*
D03*
X9724901Y11200002D02*
D03*
X10125100Y11100002D02*
D03*
X10325100Y11200002D02*
D03*
X10125100D02*
D03*
X10325100Y11100002D02*
D03*
X10225100Y11200002D02*
D03*
Y11100002D02*
D03*
X10725100Y12200003D02*
D03*
X10625100D02*
D03*
Y12100002D02*
D03*
X9824901D02*
D03*
X10725100D02*
D03*
X9924901Y12200003D02*
D03*
X10425100D02*
D03*
X9824901D02*
D03*
X10425100Y12100000D02*
D03*
X10125001Y12100102D02*
D03*
X10125100Y10000002D02*
D03*
X10325100Y10000006D02*
D03*
X10525100Y10000002D02*
D03*
X10625001D02*
D03*
X10125100Y9800002D02*
D03*
X10425100Y9900002D02*
D03*
X10325100D02*
D03*
X10725001D02*
D03*
X10525100Y9800002D02*
D03*
X10725100D02*
D03*
X10625100Y9900006D02*
D03*
X10725001Y10000002D02*
D03*
X10325100Y9800002D02*
D03*
X10225001Y12200102D02*
D03*
X9624902Y12299937D02*
D03*
X9224901Y12200003D02*
D03*
X9124901D02*
D03*
X9324901D02*
D03*
X9624902D02*
D03*
X9524901D02*
D03*
X9424901D02*
D03*
X9724901D02*
D03*
X10325001Y12200102D02*
D03*
X10325100Y10200002D02*
D03*
X10125100Y10400002D02*
D03*
X10225001Y10100002D02*
D03*
X10325100Y10100002D02*
D03*
X10225100Y10400002D02*
D03*
X10125100Y10100002D02*
D03*
X10425100Y10400002D02*
D03*
X10625001Y10200002D02*
D03*
X10225001D02*
D03*
X10425001D02*
D03*
X10725100Y10400002D02*
D03*
X10425100Y10300002D02*
D03*
X10625100D02*
D03*
X10725100Y10100002D02*
D03*
X9324901Y12100002D02*
D03*
X9724901Y12100002D02*
D03*
X9226034Y12100001D02*
D03*
X9624901Y12100002D02*
D03*
X9524901D02*
D03*
X9124901Y12100002D02*
D03*
X9825001Y10299903D02*
D03*
X9725001Y10100002D02*
D03*
X9725001Y10299903D02*
D03*
X9825001Y10200002D02*
D03*
Y10099903D02*
D03*
X6095001Y9720002D02*
D03*
X6175001Y9720001D02*
D03*
X5775001Y9720002D02*
D03*
X6015001D02*
D03*
X6255001D02*
D03*
X5935001D02*
D03*
X6335001D02*
D03*
X6015001Y9640002D02*
D03*
X5855001D02*
D03*
X5935001Y9800002D02*
D03*
X5855001D02*
D03*
X6175001Y9800000D02*
D03*
X6335001Y9800002D02*
D03*
X6095001D02*
D03*
X6015001D02*
D03*
X5775001Y10040002D02*
D03*
X5935001Y10040003D02*
D03*
X6175001Y10040002D02*
D03*
X6335001Y10120002D02*
D03*
X6095001Y10040002D02*
D03*
X2605201Y11030002D02*
D03*
Y11284002D02*
D03*
Y11538002D02*
D03*
X3506901Y9252002D02*
D03*
X3862501D02*
D03*
X3684701D02*
D03*
X3138601D02*
D03*
X2960801D02*
D03*
X2783001D02*
D03*
X4280330Y9264701D02*
D03*
Y9442501D02*
D03*
X4280201Y9353604D02*
D03*
X4280330Y9175547D02*
D03*
X5996101Y8998002D02*
D03*
X5805601D02*
D03*
X5894501Y8820202D02*
D03*
X5716701D02*
D03*
X5512748Y8651931D02*
D03*
X5690548D02*
D03*
X6554148Y8753531D02*
D03*
X6376348D02*
D03*
Y8982131D02*
D03*
X3684701Y11538002D02*
D03*
X3862501D02*
D03*
X2960801D02*
D03*
X2783001D02*
D03*
X4040301D02*
D03*
Y11792002D02*
D03*
X2783001Y9506002D02*
D03*
X6575001Y9640002D02*
D03*
X5855001Y9560002D02*
D03*
X6008801Y9379002D02*
D03*
X6059601Y9467902D02*
D03*
X6495001Y9640002D02*
D03*
X6415003Y9640005D02*
D03*
X5943600Y9118600D02*
D03*
Y9232900D02*
D03*
X5945301Y9467902D02*
D03*
X5881801Y9379002D02*
D03*
X5577001D02*
D03*
X5818301Y9467902D02*
D03*
X5513501Y9379002D02*
D03*
X2605201Y9506002D02*
D03*
Y9760002D02*
D03*
Y10776002D02*
D03*
Y9252002D02*
D03*
X8675101Y10750002D02*
D03*
X8825100Y11200006D02*
D03*
X8824901Y11400003D02*
D03*
X8825001Y10000002D02*
D03*
X8675101Y10350203D02*
D03*
X8605500Y10950005D02*
D03*
X8725001Y10599906D02*
D03*
X8825001Y10600002D02*
D03*
X8675101Y10450008D02*
D03*
X8825001Y10900002D02*
D03*
X6575001Y9720002D02*
D03*
X6495001Y10120002D02*
D03*
Y10280002D02*
D03*
X6575001D02*
D03*
X6495001Y9720002D02*
D03*
Y10200002D02*
D03*
X6575001Y9800000D02*
D03*
X9625001Y9799903D02*
D03*
X9725001Y9799904D02*
D03*
X9425001Y9799903D02*
D03*
X9025001D02*
D03*
X8725001Y9800002D02*
D03*
X8825096D02*
D03*
X9825001Y9799903D02*
D03*
X9025001Y9699903D02*
D03*
X8825100Y9700002D02*
D03*
X8925001Y9699903D02*
D03*
X9625001Y9699903D02*
D03*
X9725001Y9699903D02*
D03*
X5803900Y10871200D02*
D03*
X5935002Y10199997D02*
D03*
X5935001Y10120007D02*
D03*
X6175004Y10120008D02*
D03*
X6335001Y10200002D02*
D03*
X6055003Y10371003D02*
D03*
X5935005Y10280003D02*
D03*
X6215003Y10371003D02*
D03*
X6135002D02*
D03*
X5775006Y10280002D02*
D03*
X2783001Y10776002D02*
D03*
Y9760002D02*
D03*
Y11284002D02*
D03*
Y11030002D02*
D03*
X3138601Y10776002D02*
D03*
X2960801Y11030002D02*
D03*
Y11284002D02*
D03*
Y10776002D02*
D03*
X3684701D02*
D03*
X4040301Y11030002D02*
D03*
X3862501Y10776002D02*
D03*
Y11030002D02*
D03*
X3684701D02*
D03*
X3506901Y10776002D02*
D03*
Y9506002D02*
D03*
X4280330Y9531401D02*
D03*
X3684701Y9506002D02*
D03*
X3862501D02*
D03*
X3138601D02*
D03*
X4280330Y9620321D02*
D03*
X2960801Y9506002D02*
D03*
X5499100Y10896600D02*
D03*
X5372100D02*
D03*
X5664200D02*
D03*
X4040301Y11284002D02*
D03*
X3862501D02*
D03*
X3684701D02*
D03*
X5534226Y10039990D02*
D03*
X5614996Y10200002D02*
D03*
X5775001D02*
D03*
X5615001Y9720002D02*
D03*
X5695001Y10120002D02*
D03*
X5694996Y10039998D02*
D03*
X5695001Y10200005D02*
D03*
X5615001Y10120002D02*
D03*
X5775000Y10120008D02*
D03*
X5695001Y9720002D02*
D03*
X4280330Y10776001D02*
D03*
X9225003Y9899907D02*
D03*
X9425001Y9999903D02*
D03*
X9325001Y9899903D02*
D03*
X9225001Y9999903D02*
D03*
X9125100Y10300002D02*
D03*
X9325102Y10300006D02*
D03*
X9125100Y10200004D02*
D03*
X9425001Y10200002D02*
D03*
X9425100Y10300002D02*
D03*
X9625100Y11000003D02*
D03*
X9624901Y10700002D02*
D03*
X9625033Y11899435D02*
D03*
X9625001Y10199903D02*
D03*
X9625004Y9900252D02*
D03*
X9625006Y10300253D02*
D03*
X9625001Y10100002D02*
D03*
Y9999903D02*
D03*
X9625100Y10500002D02*
D03*
X9525097Y10900004D02*
D03*
X9425097Y10900003D02*
D03*
X9624997Y11100102D02*
D03*
X9525100Y11000003D02*
D03*
X9525001Y11200002D02*
D03*
Y10800002D02*
D03*
X9425100Y11000003D02*
D03*
X9425001Y10799903D02*
D03*
X9024901Y11300003D02*
D03*
Y11400003D02*
D03*
X9025100Y11100004D02*
D03*
X9024901Y11600002D02*
D03*
Y11800003D02*
D03*
X9125097Y11000004D02*
D03*
X9125100Y10800002D02*
D03*
Y10500002D02*
D03*
X9126376Y11300892D02*
D03*
X9125100Y10900002D02*
D03*
X9124901Y11200002D02*
D03*
X9225897Y10999207D02*
D03*
X9224901Y11800003D02*
D03*
Y11500002D02*
D03*
X9324901Y11200002D02*
D03*
X9224901Y11299998D02*
D03*
X9225096Y10400004D02*
D03*
X9325897Y10900004D02*
D03*
X9324700Y10800342D02*
D03*
X9225500Y10900803D02*
D03*
X9325491Y10700002D02*
D03*
X9325100Y11000003D02*
D03*
X9225100Y10700002D02*
D03*
X9325099Y10600002D02*
D03*
X9325100Y10500004D02*
D03*
X9324901Y11800003D02*
D03*
X8924795Y10900803D02*
D03*
X8925499Y10999207D02*
D03*
X9024701Y10800280D02*
D03*
X8925100Y11100006D02*
D03*
Y10700002D02*
D03*
X9025100Y10200002D02*
D03*
Y10400002D02*
D03*
X8924549Y9900002D02*
D03*
X8925093Y10300201D02*
D03*
X9025099Y10500007D02*
D03*
X8925102Y10000005D02*
D03*
X8925101Y10500003D02*
D03*
X8925001Y10600002D02*
D03*
X8925096Y10100153D02*
D03*
X10725100Y9700002D02*
D03*
X10925100Y11900002D02*
D03*
Y9700003D02*
D03*
X11025100Y11600002D02*
D03*
Y11400003D02*
D03*
X10925001Y11300102D02*
D03*
X11025001Y11800102D02*
D03*
X10925100Y11200002D02*
D03*
X11025100Y9700002D02*
D03*
X10925100Y9800002D02*
D03*
Y12100002D02*
D03*
Y12300003D02*
D03*
Y12200003D02*
D03*
X11125001Y12300102D02*
D03*
X10825100Y12100002D02*
D03*
X11325100Y9700002D02*
D03*
X11225100Y11200002D02*
D03*
X10825001Y12000102D02*
D03*
X10825100Y10500002D02*
D03*
Y11900002D02*
D03*
Y11500002D02*
D03*
Y11800003D02*
D03*
Y10200002D02*
D03*
X10425100Y12300002D02*
D03*
X10725100Y12300003D02*
D03*
X10625100D02*
D03*
X10825100Y12200003D02*
D03*
X9024901D02*
D03*
X9425032Y12300003D02*
D03*
X9024901D02*
D03*
X9724901D02*
D03*
X9324901D02*
D03*
X9224901Y12300001D02*
D03*
X10825100Y12300003D02*
D03*
X9824901Y12300903D02*
D03*
X11225100Y11600002D02*
D03*
X11325001Y12300102D02*
D03*
X11225001Y11800102D02*
D03*
X11225001Y12000102D02*
D03*
X11225100Y11400003D02*
D03*
X8924901Y12200003D02*
D03*
X8824901Y11800003D02*
D03*
X8925100Y11900002D02*
D03*
X8824901Y11600002D02*
D03*
X9124901Y12300003D02*
D03*
X8924901D02*
D03*
X9524901D02*
D03*
X10925100Y9900005D02*
D03*
X10825100Y10000002D02*
D03*
X11225100Y10500002D02*
D03*
Y9900002D02*
D03*
Y10300002D02*
D03*
X11025100Y10400002D02*
D03*
Y10300002D02*
D03*
Y10100002D02*
D03*
X11225100Y10900002D02*
D03*
Y10100002D02*
D03*
X10825100Y10700002D02*
D03*
X11025100Y10900002D02*
D03*
X11225100Y10700002D02*
D03*
X10227099Y11499999D02*
D03*
X10324901Y11400000D02*
D03*
X10225100Y11300003D02*
D03*
X10325100D02*
D03*
X10125100D02*
D03*
Y11500001D02*
D03*
X10325100Y11800003D02*
D03*
X10225100D02*
D03*
X9524901D02*
D03*
X9624901D02*
D03*
X9924901Y11800002D02*
D03*
X9724901Y11800003D02*
D03*
X9824901Y11700003D02*
D03*
X9624901Y11700002D02*
D03*
X9724901Y11600002D02*
D03*
X9524901Y11500002D02*
D03*
X9424901D02*
D03*
X9624901Y11300003D02*
D03*
X9724901Y11300002D02*
D03*
X9924901D02*
D03*
X9824901D02*
D03*
X9724901Y11400003D02*
D03*
X9924901D02*
D03*
X10325100Y11700000D02*
D03*
X10125100Y11700003D02*
D03*
X10125001Y11600102D02*
D03*
X10225100Y11700003D02*
D03*
X10324899Y11599999D02*
D03*
X3138601Y9760002D02*
D03*
X2960801D02*
D03*
X3684701D02*
D03*
X4280330Y10331501D02*
D03*
Y10597947D02*
D03*
Y9798101D02*
D03*
Y9708947D02*
D03*
X4280330Y10509301D02*
D03*
X4280330Y9886747D02*
D03*
Y10420147D02*
D03*
Y10242855D02*
D03*
Y9975901D02*
D03*
Y10064547D02*
D03*
Y10153701D02*
D03*
X5456352Y9640002D02*
D03*
X5454999Y10120008D02*
D03*
X5375475Y10120480D02*
D03*
X5291943Y9636005D02*
D03*
X5454998Y9720002D02*
D03*
X5375001Y9640002D02*
D03*
X5375002Y10200004D02*
D03*
X5454998Y9800002D02*
D03*
X5454997Y10200004D02*
D03*
X5295002Y10200007D02*
D03*
X5374998Y9720003D02*
D03*
X3862501Y9760002D02*
D03*
X3506901D02*
D03*
X8663136Y17640366D02*
D03*
Y17504071D02*
D03*
X16642081Y18394679D02*
D03*
X16979900Y18737579D02*
D03*
X16891000Y18742661D02*
D03*
X16878300Y10947400D02*
D03*
Y11049000D02*
D03*
X13975420Y4413250D02*
D03*
X14668500Y4267200D02*
D03*
X14770100Y4330700D02*
D03*
X15138400Y4318000D02*
D03*
Y4229100D02*
D03*
X15265401D02*
D03*
Y4318000D02*
D03*
X15392400Y4229100D02*
D03*
Y4318000D02*
D03*
X15519400D02*
D03*
Y4229100D02*
D03*
X15633701Y4318000D02*
D03*
Y4229100D02*
D03*
X16459200Y4279900D02*
D03*
Y4368800D02*
D03*
Y4457700D02*
D03*
X16548100Y4279900D02*
D03*
Y4368800D02*
D03*
Y4457700D02*
D03*
X16738600Y4279900D02*
D03*
Y4368800D02*
D03*
Y4457700D02*
D03*
X16827499Y4279900D02*
D03*
Y4368800D02*
D03*
Y4457700D02*
D03*
X16992599Y4279900D02*
D03*
Y4368800D02*
D03*
Y4457700D02*
D03*
X17081500Y4279900D02*
D03*
Y4368800D02*
D03*
Y4457700D02*
D03*
X13512801Y4991100D02*
D03*
X13970000Y5143500D02*
D03*
X15570200Y4470400D02*
D03*
X15659100D02*
D03*
X15824200Y5549900D02*
D03*
Y4914900D02*
D03*
X15925887Y5373385D02*
D03*
X15925888Y5106684D02*
D03*
X16281400Y5524500D02*
D03*
Y4912360D02*
D03*
Y4965700D02*
D03*
X16282463Y5580369D02*
D03*
X16992599Y4559300D02*
D03*
Y4648200D02*
D03*
Y4737100D02*
D03*
X17081500Y4559300D02*
D03*
Y4648200D02*
D03*
Y4737100D02*
D03*
X17373599Y4559300D02*
D03*
X17461230Y5600700D02*
D03*
X17514571D02*
D03*
X17602200Y4546600D02*
D03*
X17754601Y4737100D02*
D03*
Y4826000D02*
D03*
D98*
X17565590Y7980838D02*
D03*
X17675592D02*
D03*
X17785590D02*
D03*
X17565590Y7870836D02*
D03*
X17675592D02*
D03*
X17785590D02*
D03*
X17565590Y7760838D02*
D03*
X17675592D02*
D03*
X17785590D02*
D03*
X17565590Y7650836D02*
D03*
X17675592D02*
D03*
X17785590D02*
D03*
X17565590Y7540839D02*
D03*
X17675592D02*
D03*
X17785590D02*
D03*
X17565590Y7430837D02*
D03*
X17675592D02*
D03*
X17785590D02*
D03*
X17565590Y7320839D02*
D03*
X17675592D02*
D03*
X17785590D02*
D03*
X17565590Y7210837D02*
D03*
X17675592D02*
D03*
X17785590D02*
D03*
X17565590Y7100840D02*
D03*
X17675592D02*
D03*
X17785590D02*
D03*
X19055186Y11655758D02*
D03*
Y11733761D02*
D03*
Y11811759D02*
D03*
X19227190D02*
D03*
Y11733761D02*
D03*
Y11655758D02*
D03*
X6838622Y13686797D02*
D03*
X6896123Y13781798D02*
D03*
X6781122D02*
D03*
X6838622Y13876799D02*
D03*
X18028987Y14045331D02*
D03*
X18128987D02*
D03*
Y13845331D02*
D03*
X18228987D02*
D03*
Y14045331D02*
D03*
Y13945331D02*
D03*
X18128987D02*
D03*
X18028987Y13845331D02*
D03*
Y13945331D02*
D03*
X9788799Y14172484D02*
D03*
X9898801D02*
D03*
X10008798D02*
D03*
X10118801D02*
D03*
X10228803D02*
D03*
X9788799Y14062482D02*
D03*
X9898801D02*
D03*
X10008798D02*
D03*
X10118801D02*
D03*
X10228803D02*
D03*
X9788799Y13952486D02*
D03*
X9898801D02*
D03*
X10008798D02*
D03*
X10118801D02*
D03*
X10228803D02*
D03*
X9788799Y13842482D02*
D03*
X9898801D02*
D03*
X10008798D02*
D03*
X10118801D02*
D03*
X10228803D02*
D03*
X9788799Y13732480D02*
D03*
X9898801D02*
D03*
X10008798D02*
D03*
X10118801D02*
D03*
X10228803D02*
D03*
X16079628Y15872340D02*
D03*
Y15762338D02*
D03*
Y15652342D02*
D03*
Y15542339D02*
D03*
Y15432343D02*
D03*
X15969626Y15872340D02*
D03*
Y15762338D02*
D03*
Y15652342D02*
D03*
Y15542339D02*
D03*
Y15432343D02*
D03*
X15859628Y15872340D02*
D03*
Y15762338D02*
D03*
Y15652342D02*
D03*
Y15542339D02*
D03*
Y15432343D02*
D03*
X15749626Y15872340D02*
D03*
Y15762338D02*
D03*
Y15652342D02*
D03*
Y15542339D02*
D03*
Y15432343D02*
D03*
X15639629Y15872340D02*
D03*
Y15762338D02*
D03*
Y15652342D02*
D03*
Y15542339D02*
D03*
Y15432343D02*
D03*
X18077927Y15732741D02*
D03*
X18187927D02*
D03*
X18077927Y15622739D02*
D03*
X18187927D02*
D03*
X16550763Y17707283D02*
D03*
Y17817285D02*
D03*
Y17927283D02*
D03*
Y18037285D02*
D03*
Y18147282D02*
D03*
X16660767Y17707283D02*
D03*
Y17817285D02*
D03*
Y17927283D02*
D03*
Y18037285D02*
D03*
Y18147282D02*
D03*
X16770763Y17707283D02*
D03*
Y17817285D02*
D03*
Y17927283D02*
D03*
Y18037285D02*
D03*
Y18147282D02*
D03*
X16880765Y17707283D02*
D03*
Y17817285D02*
D03*
Y17927283D02*
D03*
Y18037285D02*
D03*
Y18147282D02*
D03*
X16990762Y17707283D02*
D03*
Y17817285D02*
D03*
Y17927283D02*
D03*
Y18037285D02*
D03*
Y18147282D02*
D03*
D99*
X7992727Y15450806D02*
D03*
Y15550806D02*
D03*
Y15650806D02*
D03*
X7892727D02*
D03*
Y15550806D02*
D03*
Y15450806D02*
D03*
X7792727D02*
D03*
Y15550806D02*
D03*
Y15650806D02*
D03*
X16815366Y14083066D02*
D03*
X16915366D02*
D03*
X17015366D02*
D03*
Y14183066D02*
D03*
X16915366D02*
D03*
X16815366D02*
D03*
Y14283066D02*
D03*
X16915366D02*
D03*
X17015366D02*
D03*
X15068103Y14146107D02*
D03*
X14968103D02*
D03*
X14868103D02*
D03*
Y14046107D02*
D03*
X14968103D02*
D03*
X15068103D02*
D03*
Y13946107D02*
D03*
X14968103D02*
D03*
X14868103D02*
D03*
D100*
X15939998Y10829999D02*
D03*
X15787598D02*
D03*
X15635197D02*
D03*
X16244798Y10677599D02*
D03*
X16168597Y10601399D02*
D03*
X16320998D02*
D03*
Y10753799D02*
D03*
Y10906199D02*
D03*
Y11058599D02*
D03*
X16244798Y10829999D02*
D03*
Y10982399D02*
D03*
X16168597Y10753799D02*
D03*
Y10906199D02*
D03*
Y11058599D02*
D03*
X16092398Y10677599D02*
D03*
Y10829999D02*
D03*
Y10982399D02*
D03*
X16016199Y10601399D02*
D03*
Y10753799D02*
D03*
Y10906199D02*
D03*
Y11058599D02*
D03*
X15939998Y10677599D02*
D03*
Y10982399D02*
D03*
X15863799Y10601399D02*
D03*
Y10753799D02*
D03*
Y10906199D02*
D03*
Y11058599D02*
D03*
X15787598Y10677599D02*
D03*
Y10982399D02*
D03*
X15711398Y10601399D02*
D03*
Y10753799D02*
D03*
Y10906199D02*
D03*
Y11058599D02*
D03*
X15635197Y10677599D02*
D03*
Y10982399D02*
D03*
X15558998Y11058599D02*
D03*
Y10906199D02*
D03*
Y10753799D02*
D03*
Y10601399D02*
D03*
D101*
X9875001Y10149900D02*
X9925001Y10199899D01*
X9975004Y10449905D02*
X10075103Y10550003D01*
X9863208Y9750104D02*
X9875001D01*
X10025107Y9749904D02*
Y10399904D01*
X9925001Y9749904D02*
Y10100002D01*
X9875001Y9750104D02*
Y10149900D01*
X9768950Y9544047D02*
X9975004Y9750101D01*
X9744544Y9569447D02*
X9925001Y9749904D01*
X9975004Y9750101D02*
Y10449905D01*
X10025107Y9749904D02*
X10298353Y9476658D01*
X14433177Y5456316D02*
Y5596111D01*
X14482083D01*
Y5654531D01*
X14355710D02*
X14482083D01*
X14355710D02*
Y5712951D01*
X14503763D01*
Y5771371D01*
X14355710D02*
X14503763D01*
X14355710D02*
Y5829791D01*
X14503763D01*
Y5888211D01*
X14355710D02*
X14503763D01*
X14355710D02*
Y5946631D01*
X14411070D01*
Y6005051D01*
X14411070D01*
X14407259Y6008863D02*
X14411070Y6005051D01*
X13932388Y5500741D02*
Y5599925D01*
X13795239D02*
X13932388D01*
X13795239D02*
Y5658345D01*
X14257262D01*
Y5716765D01*
X13678387D02*
X14257262D01*
X13678387D02*
Y5775185D01*
X14257262D01*
Y5833605D01*
X13832906D02*
X14257262D01*
X13832906D02*
Y5892025D01*
X14257262D01*
Y5950445D01*
X13832906D02*
X14257262D01*
X13832906D02*
Y6008865D01*
X14257262D01*
Y6067285D01*
X13832906D02*
X14257262D01*
X13832906D02*
Y6125705D01*
X14188892D01*
Y6184125D01*
X13832906D02*
X14188892D01*
X13832906D02*
Y6242545D01*
X14072052D01*
Y6300965D01*
X13832906D02*
X14072052D01*
X13832906D02*
Y6359385D01*
X13955212D01*
Y6417805D01*
X13932388D02*
X13955212D01*
X13932388D02*
Y6421616D01*
X13493604Y6713716D02*
Y6810775D01*
Y6713716D02*
X13602959D01*
Y6655296D02*
Y6713716D01*
X13425845Y6655296D02*
X13602959D01*
X13425845Y6596876D02*
Y6655296D01*
Y6596876D02*
X13733035D01*
Y6538456D02*
Y6596876D01*
X13425845Y6538456D02*
X13733035D01*
X13425845Y6480036D02*
Y6538456D01*
Y6480036D02*
X13849876D01*
Y6421616D02*
Y6480036D01*
X13425845Y6421616D02*
X13849876D01*
X13425845Y6363196D02*
Y6421616D01*
Y6363196D02*
X13802425D01*
Y6304776D02*
Y6363196D01*
X13425845Y6304776D02*
X13802425D01*
X13425845Y6246356D02*
Y6304776D01*
Y6246356D02*
X13802425D01*
Y6187936D02*
Y6246356D01*
X13425845Y6187936D02*
X13802425D01*
X13425845Y6129516D02*
Y6187936D01*
Y6129516D02*
X13802425D01*
Y6071096D02*
Y6129516D01*
X13425845Y6071096D02*
X13802425D01*
X13425845Y6012676D02*
Y6071096D01*
Y6012676D02*
X13802425D01*
Y5954256D02*
Y6012676D01*
X13425845Y5954256D02*
X13802425D01*
X13425845Y5895836D02*
Y5954256D01*
Y5895836D02*
X13802425D01*
Y5837416D02*
Y5895836D01*
X13425845Y5837416D02*
X13802425D01*
X13425845Y5778996D02*
Y5837416D01*
Y5778996D02*
X13493604D01*
Y5775185D02*
Y5778996D01*
X13166650Y7034270D02*
Y7097193D01*
Y7034270D02*
X13245766D01*
Y6975850D02*
Y7034270D01*
X13130075Y6975850D02*
X13245766D01*
X13130075Y6917430D02*
Y6975850D01*
Y6917430D02*
X13369377D01*
Y6859010D02*
Y6917430D01*
X13130075Y6859010D02*
X13369377D01*
X13130075Y6800590D02*
Y6859010D01*
Y6800590D02*
X13437302D01*
Y6742170D02*
Y6800590D01*
X13130075Y6742170D02*
X13437302D01*
X13130075Y6683750D02*
Y6742170D01*
Y6683750D02*
X13395366D01*
Y6625330D02*
Y6683750D01*
X13130075Y6625330D02*
X13395366D01*
X13130075Y6566910D02*
Y6625330D01*
Y6566910D02*
X13395366D01*
Y6508490D02*
Y6566910D01*
X13130075Y6508490D02*
X13395366D01*
X13130075Y6450070D02*
Y6508490D01*
Y6450070D02*
X13395366D01*
Y6391650D02*
Y6450070D01*
X13130075Y6391650D02*
X13395366D01*
X13130075Y6333230D02*
Y6391650D01*
Y6333230D02*
X13395366D01*
Y6274810D02*
Y6333230D01*
X13130075Y6274810D02*
X13395366D01*
X13130075Y6216390D02*
Y6274810D01*
Y6216390D02*
X13395366D01*
Y6157970D02*
Y6216390D01*
X13130075Y6157970D02*
X13395366D01*
X13130075Y6099550D02*
Y6157970D01*
Y6099550D02*
X13395366D01*
Y6041130D02*
Y6099550D01*
X13130075Y6041130D02*
X13395366D01*
X13130075Y5982710D02*
Y6041130D01*
Y5982710D02*
X13395366D01*
Y5924290D02*
Y5982710D01*
X13130075Y5924290D02*
X13395366D01*
X13130075Y5865870D02*
Y5924290D01*
Y5865870D02*
X13395366D01*
Y5807450D02*
Y5865870D01*
X13130075Y5807450D02*
X13395366D01*
X13130075Y5749030D02*
Y5807450D01*
Y5749030D02*
X13166650D01*
Y5745219D02*
Y5749030D01*
X13005727Y7155613D02*
Y7201313D01*
Y7155613D02*
X13088089D01*
Y7097193D02*
Y7155613D01*
X12908768Y7097193D02*
X13088089D01*
X12908768Y7038773D02*
Y7097193D01*
Y7038773D02*
X13099596D01*
Y6980353D02*
Y7038773D01*
X12908768Y6980353D02*
X13099596D01*
X12908768Y6921933D02*
Y6980353D01*
Y6921933D02*
X13099596D01*
Y6863513D02*
Y6921933D01*
X12908768Y6863513D02*
X13099596D01*
X12908768Y6805093D02*
Y6863513D01*
Y6805093D02*
X13099596D01*
Y6746673D02*
Y6805093D01*
X12908768Y6746673D02*
X13099596D01*
X12908768Y6688253D02*
Y6746673D01*
Y6688253D02*
X13099596D01*
Y6629833D02*
Y6688253D01*
X12908768Y6629833D02*
X13099596D01*
X12908768Y6571413D02*
Y6629833D01*
Y6571413D02*
X13099596D01*
Y6512993D02*
Y6571413D01*
X12908768Y6512993D02*
X13099596D01*
X12908768Y6454573D02*
Y6512993D01*
Y6454573D02*
X13099596D01*
Y6396153D02*
Y6454573D01*
X12908768Y6396153D02*
X13099596D01*
X12908768Y6337733D02*
Y6396153D01*
Y6337733D02*
X13099596D01*
Y6279313D02*
Y6337733D01*
X12908768Y6279313D02*
X13099596D01*
X12908768Y6220893D02*
Y6279313D01*
Y6220893D02*
X13099596D01*
Y6162473D02*
Y6220893D01*
X12908768Y6162473D02*
X13099596D01*
X12908768Y6104053D02*
Y6162473D01*
Y6104053D02*
X13099596D01*
Y6045633D02*
Y6104053D01*
X12908768Y6045633D02*
X13099596D01*
X12908768Y5987213D02*
Y6045633D01*
Y5987213D02*
X13099596D01*
Y5928793D02*
Y5987213D01*
X12908768Y5928793D02*
X13099596D01*
X12908768Y5870373D02*
Y5928793D01*
Y5870373D02*
X13099596D01*
Y5811953D02*
Y5870373D01*
X12908768Y5811953D02*
X13099596D01*
X12908768Y5753533D02*
Y5811953D01*
Y5753533D02*
X13099596D01*
Y5695113D02*
Y5753533D01*
X12908768Y5695113D02*
X13099596D01*
X12908768Y5636693D02*
Y5695113D01*
Y5636693D02*
X13005727D01*
Y5632882D02*
Y5636693D01*
X12849319Y7204125D02*
Y7240929D01*
X12785653Y7204125D02*
X12849319D01*
X12785653Y7145705D02*
Y7204125D01*
Y7145705D02*
X12878288D01*
Y7087285D02*
Y7145705D01*
X12737218Y7087285D02*
X12878288D01*
X12737218Y7028865D02*
Y7087285D01*
Y7028865D02*
X12878288D01*
Y6970445D02*
Y7028865D01*
X12737218Y6970445D02*
X12878288D01*
X12737218Y6912025D02*
Y6970445D01*
Y6912025D02*
X12878288D01*
Y6853605D02*
Y6912025D01*
X12737218Y6853605D02*
X12878288D01*
X12737218Y6795185D02*
Y6853605D01*
Y6795185D02*
X12878288D01*
Y6736765D02*
Y6795185D01*
X12737218Y6736765D02*
X12878288D01*
X12737218Y6678345D02*
Y6736765D01*
Y6678345D02*
X12878288D01*
Y6619925D02*
Y6678345D01*
X12737218Y6619925D02*
X12878288D01*
X12737218Y6561505D02*
Y6619925D01*
Y6561505D02*
X12878288D01*
Y6503085D02*
Y6561505D01*
X12737218Y6503085D02*
X12878288D01*
X12737218Y6444665D02*
Y6503085D01*
Y6444665D02*
X12878288D01*
Y6386245D02*
Y6444665D01*
X12737218Y6386245D02*
X12878288D01*
X12737218Y6327825D02*
Y6386245D01*
Y6327825D02*
X12878288D01*
Y6269405D02*
Y6327825D01*
X12737218Y6269405D02*
X12878288D01*
X12737218Y6210985D02*
Y6269405D01*
Y6210985D02*
X12878288D01*
Y6152565D02*
Y6210985D01*
X12737218Y6152565D02*
X12878288D01*
X12737218Y6094145D02*
Y6152565D01*
Y6094145D02*
X12878288D01*
Y6035725D02*
Y6094145D01*
X12737218Y6035725D02*
X12878288D01*
X12737218Y5977305D02*
Y6035725D01*
Y5977305D02*
X12878288D01*
Y5918885D02*
Y5977305D01*
X12737218Y5918885D02*
X12878288D01*
X12737218Y5860465D02*
Y5918885D01*
Y5860465D02*
X12878288D01*
Y5802045D02*
Y5860465D01*
X12737218Y5802045D02*
X12878288D01*
X12737218Y5743625D02*
Y5802045D01*
Y5743625D02*
X12878288D01*
Y5685205D02*
Y5743625D01*
X12737218Y5685205D02*
X12878288D01*
X12737218Y5626785D02*
Y5685205D01*
Y5626785D02*
X12878288D01*
Y5568365D02*
Y5626785D01*
X12737218Y5568365D02*
X12878288D01*
X12737218Y5509945D02*
Y5568365D01*
Y5509945D02*
X12878288D01*
Y5451525D02*
Y5509945D01*
X12737218Y5451525D02*
X12878288D01*
X12737218Y5393105D02*
Y5451525D01*
Y5393105D02*
X12878288D01*
Y5334685D02*
Y5393105D01*
X12737218Y5334685D02*
X12878288D01*
X12737218Y5276265D02*
Y5334685D01*
Y5276265D02*
X12849319D01*
Y5272454D02*
Y5276265D01*
X12689157Y7093228D02*
Y7394452D01*
X12664613Y7093228D02*
X12689157D01*
X12664613Y7034808D02*
Y7093228D01*
Y7034808D02*
X12706738D01*
Y6976388D02*
Y7034808D01*
X12574510Y6976388D02*
X12706738D01*
X12574510Y6917968D02*
Y6976388D01*
Y6917968D02*
X12706738D01*
Y6859548D02*
Y6917968D01*
X12574510Y6859548D02*
X12706738D01*
X12574510Y6801128D02*
Y6859548D01*
Y6801128D02*
X12706738D01*
Y6742708D02*
Y6801128D01*
X12574510Y6742708D02*
X12706738D01*
X12574510Y6684288D02*
Y6742708D01*
Y6684288D02*
X12706738D01*
Y6625868D02*
Y6684288D01*
X12574510Y6625868D02*
X12706738D01*
X12574510Y6567448D02*
Y6625868D01*
Y6567448D02*
X12706738D01*
Y6509028D02*
Y6567448D01*
X12574510Y6509028D02*
X12706738D01*
X12574510Y6450608D02*
Y6509028D01*
Y6450608D02*
X12706738D01*
Y6392188D02*
Y6450608D01*
X12574510Y6392188D02*
X12706738D01*
X12574510Y6333768D02*
Y6392188D01*
Y6333768D02*
X12706738D01*
Y6275348D02*
Y6333768D01*
X12574510Y6275348D02*
X12706738D01*
X12574510Y6216928D02*
Y6275348D01*
Y6216928D02*
X12706738D01*
Y6158508D02*
Y6216928D01*
X12574510Y6158508D02*
X12706738D01*
X12574510Y6100088D02*
Y6158508D01*
Y6100088D02*
X12706738D01*
Y6041668D02*
Y6100088D01*
X12574510Y6041668D02*
X12706738D01*
X12574510Y5983248D02*
Y6041668D01*
Y5983248D02*
X12706738D01*
Y5924828D02*
Y5983248D01*
X12574510Y5924828D02*
X12706738D01*
X12574510Y5866408D02*
Y5924828D01*
Y5866408D02*
X12706738D01*
Y5807988D02*
Y5866408D01*
X12574510Y5807988D02*
X12706738D01*
X12574510Y5749568D02*
Y5807988D01*
Y5749568D02*
X12706738D01*
Y5691148D02*
Y5749568D01*
X12574510Y5691148D02*
X12706738D01*
X12574510Y5632728D02*
Y5691148D01*
Y5632728D02*
X12706738D01*
Y5574308D02*
Y5632728D01*
X12574510Y5574308D02*
X12706738D01*
X12574510Y5515888D02*
Y5574308D01*
Y5515888D02*
X12706738D01*
Y5457468D02*
Y5515888D01*
X12574510Y5457468D02*
X12706738D01*
X12574510Y5399048D02*
Y5457468D01*
Y5399048D02*
X12706738D01*
Y5340628D02*
Y5399048D01*
X12574510Y5340628D02*
X12706738D01*
X12574510Y5282208D02*
Y5340628D01*
Y5282208D02*
X12706738D01*
Y5223788D02*
Y5282208D01*
X12574510Y5223788D02*
X12706738D01*
X12574510Y5165368D02*
Y5223788D01*
Y5165368D02*
X12689157D01*
Y5161557D02*
Y5165368D01*
X12336780Y7205476D02*
Y7678721D01*
X12311087Y7205476D02*
X12336780D01*
X12311087Y7147056D02*
Y7205476D01*
Y7147056D02*
X12402784D01*
Y7088636D02*
Y7147056D01*
X12269740Y7088636D02*
X12402784D01*
X12269740Y7030216D02*
Y7088636D01*
Y7030216D02*
X12402784D01*
Y6971796D02*
Y7030216D01*
X12269740Y6971796D02*
X12402784D01*
X12269740Y6913376D02*
Y6971796D01*
Y6913376D02*
X12402784D01*
Y6854956D02*
Y6913376D01*
X12269740Y6854956D02*
X12402784D01*
X12269740Y6796536D02*
Y6854956D01*
Y6796536D02*
X12402784D01*
Y6738116D02*
Y6796536D01*
X12269740Y6738116D02*
X12402784D01*
X12269740Y6679696D02*
Y6738116D01*
Y6679696D02*
X12402784D01*
Y6621276D02*
Y6679696D01*
X12269740Y6621276D02*
X12402784D01*
X12269740Y6562856D02*
Y6621276D01*
Y6562856D02*
X12402784D01*
Y6504436D02*
Y6562856D01*
X12269740Y6504436D02*
X12402784D01*
X12269740Y6446016D02*
Y6504436D01*
Y6446016D02*
X12402784D01*
Y6387596D02*
Y6446016D01*
X12269740Y6387596D02*
X12402784D01*
X12269740Y6329176D02*
Y6387596D01*
Y6329176D02*
X12402784D01*
Y6270756D02*
Y6329176D01*
X12269740Y6270756D02*
X12402784D01*
X12269740Y6212336D02*
Y6270756D01*
Y6212336D02*
X12402784D01*
Y6153916D02*
Y6212336D01*
X12269740Y6153916D02*
X12402784D01*
X12269740Y6095496D02*
Y6153916D01*
Y6095496D02*
X12402784D01*
Y6037076D02*
Y6095496D01*
X12269740Y6037076D02*
X12402784D01*
X12269740Y5978656D02*
Y6037076D01*
Y5978656D02*
X12402784D01*
Y5920236D02*
Y5978656D01*
X12269740Y5920236D02*
X12402784D01*
X12269740Y5861816D02*
Y5920236D01*
Y5861816D02*
X12402784D01*
Y5803396D02*
Y5861816D01*
X12269740Y5803396D02*
X12402784D01*
X12269740Y5744976D02*
Y5803396D01*
Y5744976D02*
X12402784D01*
Y5686556D02*
Y5744976D01*
X12269740Y5686556D02*
X12402784D01*
X12269740Y5628136D02*
Y5686556D01*
Y5628136D02*
X12402784D01*
Y5569716D02*
Y5628136D01*
X12269740Y5569716D02*
X12402784D01*
X12269740Y5511296D02*
Y5569716D01*
Y5511296D02*
X12402784D01*
Y5452876D02*
Y5511296D01*
X12269740Y5452876D02*
X12402784D01*
X12269740Y5394456D02*
Y5452876D01*
Y5394456D02*
X12336780D01*
Y5390644D02*
Y5394456D01*
Y7678721D02*
Y7739983D01*
Y5352212D02*
Y5390644D01*
X12176760Y7161531D02*
Y7698740D01*
X12150985Y7161531D02*
X12176760D01*
X12150985Y7103111D02*
Y7161531D01*
Y7103111D02*
X12228087D01*
Y7044691D02*
Y7103111D01*
X12085438Y7044691D02*
X12228087D01*
X12085438Y6986271D02*
Y7044691D01*
Y6986271D02*
X12228087D01*
Y6927851D02*
Y6986271D01*
X12085438Y6927851D02*
X12228087D01*
X12085438Y6869431D02*
Y6927851D01*
Y6869431D02*
X12228087D01*
Y6811011D02*
Y6869431D01*
X12085438Y6811011D02*
X12228087D01*
X12085438Y6752591D02*
Y6811011D01*
Y6752591D02*
X12228087D01*
Y6694171D02*
Y6752591D01*
X12085438Y6694171D02*
X12228087D01*
X12085438Y6635751D02*
Y6694171D01*
Y6635751D02*
X12228087D01*
Y6577331D02*
Y6635751D01*
X12085438Y6577331D02*
X12228087D01*
X12085438Y6518911D02*
Y6577331D01*
Y6518911D02*
X12228087D01*
Y6460491D02*
Y6518911D01*
X12085438Y6460491D02*
X12228087D01*
X12085438Y6402071D02*
Y6460491D01*
Y6402071D02*
X12228087D01*
Y6343651D02*
Y6402071D01*
X12085438Y6343651D02*
X12228087D01*
X12085438Y6285231D02*
Y6343651D01*
Y6285231D02*
X12228087D01*
Y6226811D02*
Y6285231D01*
X12085438Y6226811D02*
X12228087D01*
X12085438Y6168391D02*
Y6226811D01*
Y6168391D02*
X12228087D01*
Y6109971D02*
Y6168391D01*
X12085438Y6109971D02*
X12228087D01*
X12085438Y6051551D02*
Y6109971D01*
Y6051551D02*
X12228087D01*
Y5993131D02*
Y6051551D01*
X12085438Y5993131D02*
X12228087D01*
X12085438Y5934711D02*
Y5993131D01*
Y5934711D02*
X12228087D01*
Y5876291D02*
Y5934711D01*
X12085438Y5876291D02*
X12228087D01*
X12085438Y5817871D02*
Y5876291D01*
Y5817871D02*
X12228087D01*
Y5759451D02*
Y5817871D01*
X12085438Y5759451D02*
X12228087D01*
X12085438Y5701031D02*
Y5759451D01*
Y5701031D02*
X12228087D01*
Y5642611D02*
Y5701031D01*
X12085438Y5642611D02*
X12228087D01*
X12085438Y5584191D02*
Y5642611D01*
Y5584191D02*
X12176760D01*
Y5580380D02*
Y5584191D01*
Y7698740D02*
Y7856898D01*
Y5443366D02*
Y5580380D01*
X10746081Y9330682D02*
X12336780Y7739983D01*
Y5352212D02*
X12690950Y4998041D01*
X12354560Y5148355D02*
Y5265566D01*
X12176760Y5443366D02*
X12354560Y5265566D01*
Y5148355D02*
X12528365Y4974551D01*
X10695440Y9338218D02*
X12176760Y7856898D01*
X11383120Y5971347D02*
X11388619D01*
X11465970Y6048698D01*
X11507279Y6007389D01*
X11416844Y5916954D02*
X11507279Y6007389D01*
X11416844Y5916954D02*
X11458153Y5875645D01*
X11551482Y5968973D01*
X11592791Y5927664D01*
X11515313Y5850186D02*
X11592791Y5927664D01*
X11515313Y5850186D02*
X11556622Y5808877D01*
X11634100Y5886354D01*
X11675409Y5845045D01*
X11597931Y5767567D02*
X11675409Y5845045D01*
X11597931Y5767567D02*
X11639240Y5726258D01*
X11716718Y5803736D01*
X11758028Y5762427D01*
X11680550Y5684949D02*
X11758028Y5762427D01*
X11680550Y5684949D02*
X11721859Y5643640D01*
X11799337Y5721118D01*
X11840646Y5679809D01*
X11763168Y5602331D02*
X11840646Y5679809D01*
X11763168Y5602331D02*
X11804477Y5561022D01*
X11881955Y5638500D01*
X11923264Y5597190D01*
X11845786Y5519712D02*
X11923264Y5597190D01*
X11845786Y5519712D02*
X11887095Y5478403D01*
X11964573Y5555881D01*
X12005883Y5514572D01*
X11928405Y5437094D02*
X12005883Y5514572D01*
X11928405Y5437094D02*
X11969714Y5395785D01*
X12047192Y5473263D01*
X12088501Y5431954D01*
X12011023Y5354476D02*
X12088501Y5431954D01*
X12011023Y5354476D02*
X12052332Y5313166D01*
X12129810Y5390644D01*
X12171119Y5349335D01*
X12093641Y5271857D02*
X12171119Y5349335D01*
X12093641Y5271857D02*
X12134951Y5230548D01*
X12212428Y5308026D01*
X12253737Y5266717D01*
X12176260Y5189239D02*
X12253737Y5266717D01*
X12176260Y5189239D02*
X12217569Y5147930D01*
X12256462Y5186823D01*
X12259620Y5183666D01*
Y5183666D02*
X12262314Y5180972D01*
X9848308Y5971347D02*
X11383120D01*
X12262314Y5180972D02*
X12743040Y4700246D01*
X11341178Y5796725D02*
X11343873Y5794031D01*
X11380788Y5757115D01*
X11375132Y5751459D02*
X11380788Y5757115D01*
X11375132Y5751459D02*
X11416442Y5710150D01*
X11514342Y5808051D01*
X11555652Y5766742D01*
X11455467Y5666557D02*
X11555652Y5766742D01*
X11455467Y5666557D02*
X11496776Y5625247D01*
X11596961Y5725432D01*
X11638270Y5684123D01*
X11538085Y5583938D02*
X11638270Y5684123D01*
X11538085Y5583938D02*
X11579394Y5542629D01*
X11679579Y5642814D01*
X11720888Y5601505D01*
X11620703Y5501320D02*
X11720888Y5601505D01*
X11620703Y5501320D02*
X11662012Y5460011D01*
X11762197Y5560196D01*
X11803507Y5518886D01*
X11703322Y5418701D02*
X11803507Y5518886D01*
X11703322Y5418701D02*
X11744631Y5377392D01*
X11844816Y5477577D01*
X11886125Y5436268D01*
X11785940Y5336083D02*
X11886125Y5436268D01*
X11785940Y5336083D02*
X11827249Y5294774D01*
X11927434Y5394959D01*
X11968743Y5353650D01*
X11868558Y5253465D02*
X11968743Y5353650D01*
X11868558Y5253465D02*
X11909868Y5212155D01*
X12010053Y5312340D01*
X12051362Y5271031D01*
X11951177Y5170846D02*
X12051362Y5271031D01*
X11951177Y5170846D02*
X11992486Y5129537D01*
X12092671Y5229722D01*
X12133980Y5188413D01*
X12033795Y5088228D02*
X12133980Y5188413D01*
X12033795Y5088228D02*
X12075104Y5046919D01*
X12175289Y5147104D01*
X12216598Y5105795D01*
X12116413Y5005610D02*
X12216598Y5105795D01*
X12116413Y5005610D02*
X12157723Y4964300D01*
X12165663Y4972241D01*
X12165664Y4972239D01*
Y4972240D02*
X12168358Y4969546D01*
X12251670Y4886233D01*
X11174245Y5711819D02*
X11176940Y5709125D01*
X11276638Y5609427D01*
X11297796Y5630585D01*
X11339105Y5589276D01*
X11310239Y5560410D02*
X11339105Y5589276D01*
X11310239Y5560410D02*
X11351549Y5519101D01*
X11440246Y5607798D01*
X11481555Y5566489D01*
X11392858Y5477792D02*
X11481555Y5566489D01*
X11392858Y5477792D02*
X11434167Y5436483D01*
X11522864Y5525180D01*
X11564173Y5483871D01*
X11475476Y5395173D02*
X11564173Y5483871D01*
X11475476Y5395173D02*
X11516785Y5353864D01*
X11605483Y5442562D01*
X11646792Y5401252D01*
X11558094Y5312555D02*
X11646792Y5401252D01*
X11558094Y5312555D02*
X11599404Y5271246D01*
X11688101Y5359943D01*
X11729410Y5318634D01*
X11640713Y5229937D02*
X11729410Y5318634D01*
X11640713Y5229937D02*
X11682022Y5188628D01*
X11770719Y5277325D01*
X11812028Y5236016D01*
X11723331Y5147318D02*
X11812028Y5236016D01*
X11723331Y5147318D02*
X11764640Y5106009D01*
X11853337Y5194707D01*
X11894647Y5153397D01*
X11805949Y5064700D02*
X11894647Y5153397D01*
X11805949Y5064700D02*
X11847259Y5023391D01*
X11935956Y5112088D01*
X11977265Y5070779D01*
X11888568Y4982082D02*
X11977265Y5070779D01*
X11888568Y4982082D02*
X11929877Y4940772D01*
X12018574Y5029470D01*
X12059883Y4988161D01*
X11971186Y4899463D02*
X12059883Y4988161D01*
X11971186Y4899463D02*
X12012495Y4858154D01*
X12101193Y4946851D01*
X12142502Y4905542D01*
X12053804Y4816845D02*
X12142502Y4905542D01*
X12053804Y4816845D02*
X12095114Y4775536D01*
X12102821Y4783243D01*
X12102822Y4783242D01*
Y4783243D02*
X12105517Y4780548D01*
X12107883Y4778182D01*
X10870123Y5619356D02*
X10907149D01*
X10919068Y5607437D01*
X10927948Y5616318D01*
X10969258Y5575009D01*
X10941076Y5546828D02*
X10969258Y5575009D01*
X10941076Y5546828D02*
X10982385Y5505519D01*
X11062576Y5585709D01*
X11103885Y5544400D01*
X11023695Y5464209D02*
X11103885Y5544400D01*
X11023695Y5464209D02*
X11065004Y5422900D01*
X11145194Y5503091D01*
X11186503Y5461781D01*
X11106313Y5381591D02*
X11186503Y5461781D01*
X11106313Y5381591D02*
X11147622Y5340282D01*
X11227813Y5420472D01*
X11269122Y5379163D01*
X11188931Y5298973D02*
X11269122Y5379163D01*
X11188931Y5298973D02*
X11230241Y5257663D01*
X11310431Y5337854D01*
X11351740Y5296545D01*
X11271550Y5216354D02*
X11351740Y5296545D01*
X11271550Y5216354D02*
X11312859Y5175045D01*
X11393049Y5255235D01*
X11434358Y5213926D01*
X11354168Y5133736D02*
X11434358Y5213926D01*
X11354168Y5133736D02*
X11395477Y5092427D01*
X11475668Y5172617D01*
X11516977Y5131308D01*
X11436786Y5051118D02*
X11516977Y5131308D01*
X11436786Y5051118D02*
X11478096Y5009808D01*
X11558286Y5089999D01*
X11599595Y5048689D01*
X11519405Y4968499D02*
X11599595Y5048689D01*
X11519405Y4968499D02*
X11560714Y4927190D01*
X11640904Y5007380D01*
X11682214Y4966071D01*
X11602023Y4885881D02*
X11682214Y4966071D01*
X11602023Y4885881D02*
X11643332Y4844572D01*
X11723523Y4924762D01*
X11764832Y4883453D01*
X11684642Y4803262D02*
X11764832Y4883453D01*
X11684642Y4803262D02*
X11725951Y4761953D01*
X11806141Y4842144D01*
X11847450Y4800834D01*
X11767260Y4720644D02*
X11847450Y4800834D01*
X11767260Y4720644D02*
X11808569Y4679335D01*
X11834358Y4705124D01*
X11839748D01*
X12332264D01*
X10070983Y5619356D02*
X10870123D01*
X10714686Y5523864D02*
X10717380Y5521170D01*
X10905626Y5332924D01*
X10926766Y5354063D01*
X10968075Y5312754D01*
X10890231Y5234910D02*
X10968075Y5312754D01*
X10890231Y5234910D02*
X10931540Y5193601D01*
X11032173Y5294234D01*
X11073482Y5252924D01*
X10972850Y5152291D02*
X11073482Y5252924D01*
X10972850Y5152291D02*
X11014159Y5110982D01*
X11114791Y5211615D01*
X11156101Y5170306D01*
X11055468Y5069673D02*
X11156101Y5170306D01*
X11055468Y5069673D02*
X11096777Y5028364D01*
X11197410Y5128997D01*
X11238719Y5087688D01*
X11138086Y4987055D02*
X11238719Y5087688D01*
X11138086Y4987055D02*
X11179395Y4945746D01*
X11280028Y5046379D01*
X11321337Y5005069D01*
X11220705Y4904436D02*
X11321337Y5005069D01*
X11220705Y4904436D02*
X11262014Y4863127D01*
X11362647Y4963760D01*
X11403956Y4922451D01*
X11303323Y4821818D02*
X11403956Y4922451D01*
X11303323Y4821818D02*
X11344632Y4780509D01*
X11445265Y4881142D01*
X11486574Y4839833D01*
X11385941Y4739200D02*
X11486574Y4839833D01*
X11385941Y4739200D02*
X11427250Y4697891D01*
X11527883Y4798523D01*
X11569192Y4757214D01*
X11468559Y4656581D02*
X11569192Y4757214D01*
X11468559Y4656581D02*
X11509869Y4615272D01*
X11566573Y4671977D01*
X11566574Y4671976D01*
Y4671976D02*
X11569268Y4669282D01*
X10696425Y5542125D02*
X10714686Y5523864D01*
X10481491Y5434944D02*
X10484186Y5432249D01*
X10510069Y5406366D01*
X10537336Y5433632D01*
X10578645Y5392323D01*
X10532840Y5346518D02*
X10578645Y5392323D01*
X10532840Y5346518D02*
X10574149Y5305209D01*
X10634125Y5365185D01*
X10675434Y5323875D01*
X10615458Y5263900D02*
X10675434Y5323875D01*
X10615458Y5263900D02*
X10656767Y5222591D01*
X10716743Y5282566D01*
X10758052Y5241257D01*
X10698077Y5181281D02*
X10758052Y5241257D01*
X10698077Y5181281D02*
X10739386Y5139972D01*
X10799362Y5199948D01*
X10840671Y5158639D01*
X10780695Y5098663D02*
X10840671Y5158639D01*
X10780695Y5098663D02*
X10822004Y5057354D01*
X10881980Y5117329D01*
X10923289Y5076020D01*
X10863313Y5016045D02*
X10923289Y5076020D01*
X10863313Y5016045D02*
X10904623Y4974735D01*
X10964598Y5034711D01*
X11005907Y4993402D01*
X10945932Y4933426D02*
X11005907Y4993402D01*
X10945932Y4933426D02*
X10987241Y4892117D01*
X11047217Y4952093D01*
X11088526Y4910784D01*
X11028550Y4850808D02*
X11088526Y4910784D01*
X11028550Y4850808D02*
X11069859Y4809499D01*
X11129835Y4869474D01*
X11171144Y4828165D01*
X11111169Y4768189D02*
X11171144Y4828165D01*
X11111169Y4768189D02*
X11152478Y4726880D01*
X11212453Y4786856D01*
X11253763Y4745547D01*
X11193787Y4685571D02*
X11253763Y4745547D01*
X11193787Y4685571D02*
X11235096Y4644262D01*
X11295072Y4704238D01*
X11336381Y4662928D01*
X11276405Y4602953D02*
X11336381Y4662928D01*
X11276405Y4602953D02*
X11317714Y4561644D01*
X11377690Y4621619D01*
X11418999Y4580310D01*
X11359024Y4520334D02*
X11418999Y4580310D01*
X11359024Y4520335D02*
X11400333Y4479025D01*
X11426653Y4505345D01*
X11432043D01*
X13103156D01*
X10159927Y5444203D02*
X10472232D01*
X10481492Y5434944D01*
X11932980Y4405472D02*
X12998827D01*
X11484960D02*
X11932980D01*
X11484960D02*
Y4423754D01*
X11426540D02*
X11484960D01*
X11426540Y4379317D02*
Y4423754D01*
X11368120Y4379317D02*
X11426540D01*
X11368120D02*
Y4451262D01*
X11309700D02*
X11368120D01*
X11309700Y4405472D02*
Y4451262D01*
X11305888Y4405472D02*
X11309700D01*
X11286405D02*
X11305888D01*
X11255958Y4261962D02*
X12650711D01*
X11129800Y4388120D02*
X11255958Y4261962D01*
X10381050Y5289159D02*
X10402717D01*
X10435199Y5256677D01*
X10455875Y5277354D01*
X10497184Y5236045D01*
X10452128Y5190989D02*
X10497184Y5236045D01*
X10452128Y5190989D02*
X10493437Y5149680D01*
X10538494Y5194736D01*
X10579803Y5153427D01*
X10534747Y5108371D02*
X10579803Y5153427D01*
X10534747Y5108371D02*
X10576056Y5067061D01*
X10621112Y5112118D01*
X10662421Y5070808D01*
X10617365Y5025752D02*
X10662421Y5070808D01*
X10617365Y5025752D02*
X10658674Y4984443D01*
X10703730Y5029499D01*
X10745040Y4988190D01*
X10699983Y4943134D02*
X10745040Y4988190D01*
X10699983Y4943134D02*
X10741292Y4901825D01*
X10786349Y4946881D01*
X10827658Y4905572D01*
X10782602Y4860515D02*
X10827658Y4905572D01*
X10782602Y4860515D02*
X10823911Y4819206D01*
X10868967Y4864263D01*
X10910276Y4822953D01*
X10865220Y4777897D02*
X10910276Y4822953D01*
X10865220Y4777897D02*
X10906529Y4736588D01*
X10951585Y4781644D01*
X10992895Y4740335D01*
X10947838Y4695279D02*
X10992895Y4740335D01*
X10947838Y4695279D02*
X10989148Y4653969D01*
X11034204Y4699026D01*
X11075513Y4657717D01*
X11030457Y4612660D02*
X11075513Y4657717D01*
X11030457Y4612660D02*
X11071766Y4571351D01*
X11116822Y4616407D01*
X11158131Y4575098D01*
X11113075Y4530042D02*
X11158131Y4575098D01*
X11113075Y4530042D02*
X11154384Y4488733D01*
X11199441Y4533789D01*
X11240750Y4492480D01*
X11195693Y4447424D02*
X11240750Y4492480D01*
X11195693Y4447424D02*
X11237003Y4406114D01*
X11261382Y4430494D01*
X11264539Y4427337D01*
Y4427337D02*
X11267233Y4424643D01*
X11286405Y4405472D01*
X10271866Y5289159D02*
X10381050D01*
X10265323Y5252597D02*
X10268017Y5249902D01*
X10300921Y5216998D01*
X10310769Y5226847D01*
X10352078Y5185538D01*
X10317007Y5150466D02*
X10352078Y5185538D01*
X10317007Y5150466D02*
X10358317Y5109157D01*
X10411353Y5162194D01*
X10452662Y5120885D01*
X10399626Y5067848D02*
X10452662Y5120885D01*
X10399626Y5067848D02*
X10440935Y5026539D01*
X10493971Y5079575D01*
X10535281Y5038266D01*
X10482244Y4985230D02*
X10535281Y5038266D01*
X10482244Y4985230D02*
X10523553Y4943921D01*
X10576590Y4996957D01*
X10617899Y4955648D01*
X10564863Y4902611D02*
X10617899Y4955648D01*
X10564863Y4902611D02*
X10606172Y4861302D01*
X10659208Y4914339D01*
X10700517Y4873029D01*
X10647481Y4819993D02*
X10700517Y4873029D01*
X10647481Y4819993D02*
X10688790Y4778684D01*
X10741826Y4831720D01*
X10783136Y4790411D01*
X10730099Y4737375D02*
X10783136Y4790411D01*
X10730099Y4737375D02*
X10771408Y4696066D01*
X10824445Y4749102D01*
X10865754Y4707793D01*
X10812718Y4654756D02*
X10865754Y4707793D01*
X10812718Y4654756D02*
X10854027Y4613447D01*
X10907063Y4666483D01*
X10948372Y4625174D01*
X10895336Y4572138D02*
X10948372Y4625174D01*
X10895336Y4572138D02*
X10936645Y4530829D01*
X10989682Y4583865D01*
X11030991Y4542556D01*
X10977954Y4489520D02*
X11030991Y4542556D01*
X10977954Y4489520D02*
X11019263Y4448210D01*
X11072300Y4501247D01*
X11113609Y4459938D01*
X11060572Y4406901D02*
X11113609Y4459938D01*
X11060572Y4406901D02*
X11101882Y4365592D01*
X11127104Y4390815D01*
X11127106Y4390814D01*
Y4390814D02*
X11129800Y4388120D01*
X9263093Y6254826D02*
X10265323Y5252597D01*
X11569268Y4669282D02*
X11607475Y4631075D01*
X12448222Y4589165D02*
X12582209D01*
X12521202Y4778182D02*
X12579447Y4719937D01*
X12332264Y4705124D02*
X12448222Y4589165D01*
X12743040Y4696025D02*
Y4700246D01*
X9582729Y9531413D02*
X9595363Y9544047D01*
X9527261Y6249289D02*
Y9564983D01*
X9582729Y6236926D02*
Y9531413D01*
X9527261Y6249289D02*
X9912914Y5863636D01*
X9527261Y9564983D02*
X9531725Y9569447D01*
X9582729Y6236926D02*
X9848308Y5971347D01*
X9531725Y9569447D02*
X9744544D01*
X10575102Y9719844D02*
X10660807Y9634138D01*
X10575102Y9719844D02*
Y9850007D01*
X10387094Y9750002D02*
X10553758Y9583338D01*
X10475102Y9697915D02*
X10564279Y9608738D01*
X10375102Y9750002D02*
Y9950007D01*
Y9750002D02*
X10387094D01*
X13493604Y6810775D02*
Y6836309D01*
X10695774Y9634138D02*
X13493604Y6836309D01*
X10660807Y9634138D02*
X10695774D01*
X10564279Y9608738D02*
X10678069D01*
X13166650Y7120156D01*
X10675102Y9697916D02*
X13932388Y6440629D01*
X10317967Y9507138D02*
X10607249D01*
X10624954Y9532538D02*
X10776561Y9380931D01*
X10456645Y9532538D02*
X10624954D01*
X10642659Y9557938D02*
X10859967Y9340630D01*
X10467166Y9557938D02*
X10642659D01*
X10594623Y9476658D02*
X10695440Y9375842D01*
X10660364Y9583338D02*
X10909587Y9334115D01*
X10607249Y9507138D02*
X10746081Y9368306D01*
X10298353Y9476658D02*
X10594623D01*
X10553758Y9583338D02*
X10660364D01*
X12690950Y4959654D02*
Y4998041D01*
X12689157Y5161557D02*
X12737685Y5113029D01*
Y5112389D02*
Y5113029D01*
X12823483Y4924770D02*
Y5026590D01*
X12737685Y5112389D02*
X12823483Y5026590D01*
X12698223Y4946196D02*
Y4952382D01*
X12690950Y4959654D02*
X12698223Y4952382D01*
X14112195Y6390138D02*
X14114890Y6387443D01*
X13818887Y6683445D02*
X14112195Y6390138D01*
X13818887Y6683445D02*
X13852591Y6717148D01*
X13811282Y6758457D02*
X13852591Y6717148D01*
X13777579Y6724754D02*
X13811282Y6758457D01*
X13736269Y6766063D02*
X13777579Y6724754D01*
X13736269Y6766063D02*
X13815791Y6845585D01*
X13774483Y6886894D02*
X13815791Y6845585D01*
X13694960Y6807372D02*
X13774483Y6886894D01*
X13653651Y6848682D02*
X13694960Y6807372D01*
X13653651Y6848682D02*
X13733173Y6928203D01*
X13691862Y6969512D02*
X13733173Y6928203D01*
X13612341Y6889991D02*
X13691862Y6969512D01*
X13571033Y6931300D02*
X13612341Y6889991D01*
X13571033Y6931300D02*
X13650554Y7010821D01*
X13609245Y7052131D02*
X13650554Y7010821D01*
X13529724Y6972609D02*
X13609245Y7052131D01*
X13488414Y7013918D02*
X13529724Y6972609D01*
X13488414Y7013918D02*
X13567937Y7093440D01*
X13526627Y7134749D02*
X13567937Y7093440D01*
X13447105Y7055227D02*
X13526627Y7134749D01*
X13405795Y7096536D02*
X13447105Y7055227D01*
X13405795Y7096536D02*
X13485318Y7176058D01*
X13444008Y7217367D02*
X13485318Y7176058D01*
X13364487Y7137846D02*
X13444008Y7217367D01*
X13323178Y7179155D02*
X13364487Y7137846D01*
X13323178Y7179155D02*
X13402699Y7258676D01*
X13361391Y7299986D02*
X13402699Y7258676D01*
X13281870Y7220464D02*
X13361391Y7299986D01*
X13240559Y7261773D02*
X13281870Y7220464D01*
X13240559Y7261773D02*
X13320081Y7341295D01*
X13278772Y7382604D02*
X13320081Y7341295D01*
X13199249Y7303082D02*
X13278772Y7382604D01*
X13157941Y7344392D02*
X13199249Y7303082D01*
X13157941Y7344392D02*
X13237462Y7423913D01*
X13196153Y7465222D02*
X13237462Y7423913D01*
X13116632Y7385701D02*
X13196153Y7465222D01*
X13075323Y7427010D02*
X13116632Y7385701D01*
X13075323Y7427010D02*
X13154845Y7506532D01*
X13113535Y7547841D02*
X13154845Y7506532D01*
X13034013Y7468319D02*
X13113535Y7547841D01*
X12992703Y7509628D02*
X13034013Y7468319D01*
X12992703Y7509628D02*
X13072226Y7589150D01*
X13030917Y7630459D02*
X13072226Y7589150D01*
X12951395Y7550937D02*
X13030917Y7630459D01*
X12910086Y7592247D02*
X12951395Y7550937D01*
X12910086Y7592247D02*
X12989607Y7671768D01*
X12948299Y7713078D02*
X12989607Y7671768D01*
X12868777Y7633556D02*
X12948299Y7713078D01*
X12827467Y7674865D02*
X12868777Y7633556D01*
X12827467Y7674865D02*
X12906989Y7754387D01*
X12865680Y7795696D02*
X12906989Y7754387D01*
X12786158Y7716174D02*
X12865680Y7795696D01*
X12744849Y7757483D02*
X12786158Y7716174D01*
X12744849Y7757483D02*
X12824371Y7837005D01*
X12783062Y7878314D02*
X12824371Y7837005D01*
X12703540Y7798793D02*
X12783062Y7878314D01*
X12662231Y7840102D02*
X12703540Y7798793D01*
X12662231Y7840102D02*
X12741753Y7919623D01*
X12700443Y7960933D02*
X12741753Y7919623D01*
X12620921Y7881411D02*
X12700443Y7960933D01*
X12620921Y7881411D02*
X12620921Y7881411D01*
X12618227Y7884106D02*
X12620921Y7881411D01*
X14114890Y6387444D02*
X14776205Y5726126D01*
X9415493Y6317952D02*
Y9525002D01*
X9488794Y9598303D01*
X9385013Y6305327D02*
Y9599280D01*
X9223091Y6136636D02*
Y9849734D01*
X9263093Y6254826D02*
Y9662857D01*
X9293573Y6267452D02*
Y9615603D01*
X9324053Y6280077D02*
Y9610162D01*
X9488794Y9598303D02*
X9711407D01*
X9354533Y6292702D02*
Y9604721D01*
X9409436Y9623703D02*
X9700886D01*
X9385013Y6305327D02*
X10070983Y5619356D01*
X9188173Y9884652D02*
X9223091Y9849734D01*
X9385013Y9599280D02*
X9409436Y9623703D01*
X9415493Y6317952D02*
X9983045Y5750400D01*
X9293573Y9615603D02*
X9475099Y9797129D01*
X9223091Y6136636D02*
X11217861Y4141866D01*
X9354533Y6292702D02*
X10105110Y5542125D01*
X9293573Y6267452D02*
X10271866Y5289159D01*
X9324053Y6280077D02*
X10159927Y5444203D01*
X9263093Y9662857D02*
X9375099Y9774864D01*
X9475099Y9797129D02*
Y10250006D01*
X9324053Y9610162D02*
X9468357Y9754466D01*
X9354533Y9604721D02*
X9398915Y9649103D01*
X12605616Y7896716D02*
X12618227Y7884106D01*
X11785600Y9893300D02*
X12128500D01*
X12605616Y9416184D01*
X11753165Y9860865D02*
X11785600Y9893300D01*
X10979565Y9860865D02*
X11753165D01*
X12605616Y7896716D02*
Y9416184D01*
X12245595Y8170528D02*
X14407259Y6008863D01*
X14027150Y5368079D02*
X14041058D01*
Y5168900D02*
Y5368079D01*
Y5168900D02*
X14099478D01*
Y5511691D01*
X14157898D01*
Y5168900D02*
Y5511691D01*
Y5168900D02*
X14216318D01*
Y5537831D01*
X14274738D01*
Y5185410D02*
Y5537831D01*
Y5185410D02*
X14333157D01*
Y5368079D01*
X14336971D01*
X14344940D01*
X14776205Y5508290D02*
Y5726126D01*
X13932388Y6421616D02*
Y6440629D01*
X13860983Y5429336D02*
X13932388Y5500741D01*
X14344940Y5368079D02*
X14433177Y5456316D01*
X13939624Y5368079D02*
X14027150D01*
X13493604Y5738616D02*
Y5775185D01*
X13472360Y5717373D02*
X13493604Y5738616D01*
X14534242Y4752099D02*
Y5924984D01*
X14150945Y4368800D02*
X14236700Y4454555D01*
X14093794Y4311650D02*
X14150945Y4368800D01*
X14236700Y4454555D02*
X14534242Y4752099D01*
X12497580Y7961648D02*
X14534242Y5924984D01*
X13166650Y7097193D02*
Y7120156D01*
Y5711148D02*
Y5745219D01*
X13005727Y7201313D02*
Y7207457D01*
X12849319Y7240929D02*
Y7320760D01*
Y5125064D02*
Y5272454D01*
X13166650Y5711148D02*
X13289799Y5587999D01*
X10575102Y9850007D02*
X10625100Y9900006D01*
X12242900Y8173222D02*
X12245595Y8170527D01*
X12213115Y8203007D02*
X12242900Y8173222D01*
X12213115Y8203007D02*
X12299708Y8289601D01*
X12258399Y8330910D02*
X12299708Y8289601D01*
X12171806Y8244317D02*
X12258399Y8330910D01*
X12130496Y8285626D02*
X12171806Y8244317D01*
X12130496Y8285626D02*
X12217090Y8372219D01*
X12175781Y8413529D02*
X12217090Y8372219D01*
X12089187Y8326935D02*
X12175781Y8413529D01*
X12047878Y8368244D02*
X12089187Y8326935D01*
X12047878Y8368244D02*
X12134472Y8454838D01*
X12093163Y8496147D02*
X12134472Y8454838D01*
X12006569Y8409553D02*
X12093163Y8496147D01*
X11965260Y8450863D02*
X12006569Y8409553D01*
X11965260Y8450863D02*
X12051853Y8537456D01*
X12010544Y8578765D02*
X12051853Y8537456D01*
X11923950Y8492172D02*
X12010544Y8578765D01*
X11882641Y8533481D02*
X11923950Y8492172D01*
X11882641Y8533481D02*
X11969235Y8620074D01*
X11927926Y8661384D02*
X11969235Y8620074D01*
X11841332Y8574790D02*
X11927926Y8661384D01*
X11800023Y8616099D02*
X11841332Y8574790D01*
X11800023Y8616099D02*
X11886617Y8702693D01*
X11845307Y8744002D02*
X11886617Y8702693D01*
X11758714Y8657409D02*
X11845307Y8744002D01*
X11717405Y8698718D02*
X11758714Y8657409D01*
X11717405Y8698718D02*
X11803998Y8785311D01*
X11762689Y8826620D02*
X11803998Y8785311D01*
X11676095Y8740027D02*
X11762689Y8826620D01*
X11676095Y8740027D02*
X11676095Y8740027D01*
X11673401Y8742722D02*
X11676095Y8740027D01*
X11063257Y9352865D02*
X11673401Y8742722D01*
X12689157Y7394452D02*
Y7430711D01*
X10776561Y9343307D02*
X12689157Y7430711D01*
X12497580Y8052634D02*
Y8109455D01*
X12443405D02*
X12497580D01*
X12443405D02*
Y8167875D01*
X12502972D01*
Y8226295D01*
X12372690D02*
X12502972D01*
X12372690D02*
Y8284715D01*
X12502972D01*
Y8343135D01*
X12372690D02*
X12502972D01*
X12372690D02*
Y8401555D01*
X12502972D01*
Y8459975D01*
X12372690D02*
X12502972D01*
X12372690D02*
Y8518395D01*
X12502972D01*
Y8576815D01*
X12372690D02*
X12502972D01*
X12372690D02*
Y8635235D01*
X12502972D01*
Y8693655D01*
X12372690D02*
X12502972D01*
X12372690D02*
Y8752075D01*
X12502972D01*
Y8810495D01*
X12372690D02*
X12502972D01*
X12372690D02*
Y8868915D01*
X12502972D01*
Y8927335D01*
X12372690D02*
X12502972D01*
X12372690D02*
Y8985755D01*
X12502972D01*
Y9044175D01*
X12372690D02*
X12502972D01*
X12372690D02*
Y9102595D01*
X12502972D01*
Y9161015D01*
X12372690D02*
X12502972D01*
X12372690D02*
Y9219435D01*
X12502972D01*
Y9277855D01*
X12497580D02*
X12502972D01*
X12497580D02*
Y9281666D01*
Y7961648D02*
Y8052634D01*
X12040584Y9750002D02*
X12497580Y9293007D01*
Y9281666D02*
Y9293007D01*
X10909587Y9303597D02*
X13005727Y7207457D01*
Y5632882D02*
X13075121Y5563489D01*
X10859967Y9310112D02*
X12849319Y7320760D01*
Y5125064D02*
X12910648Y5063735D01*
X11135665Y5750400D02*
X11174246Y5711819D01*
X11274268Y5863636D02*
X11341179Y5796725D01*
X11607475Y4631075D02*
X12279524D01*
X12313582Y4597016D01*
X12998827Y4405472D02*
X13204366Y4199933D01*
X12251670Y4886233D02*
X12497783D01*
X9912914Y5863636D02*
X11274268D01*
X12107883Y4778182D02*
X12521202D01*
X9983045Y5750400D02*
X11135665D01*
X13103156Y4505345D02*
X13391789Y4216712D01*
X10105110Y5542125D02*
X10696425D01*
X11217861Y4141866D02*
X12882076D01*
X13204366Y4161311D02*
Y4199933D01*
X11063257Y9352865D02*
Y9461065D01*
X10675102Y9697916D02*
Y9950007D01*
X10879565Y9750002D02*
X12040584D01*
X10975101Y9865329D02*
Y10250006D01*
X10875101Y9754466D02*
X10879565Y9750002D01*
X10875101Y9754466D02*
Y10245542D01*
X10975101Y9865329D02*
X10979565Y9860865D01*
X10775107Y10450000D02*
X10975101Y10250006D01*
X10870637D02*
X10875101Y10245542D01*
X10679565Y10250006D02*
X10870637D01*
X10175103Y10450000D02*
X10775107D01*
X10909587Y9303597D02*
Y9334115D01*
X10859967Y9310112D02*
Y9340630D01*
X11015352Y9508970D02*
X11063257Y9461065D01*
X10695440Y9338218D02*
Y9375842D01*
X10746081Y9330682D02*
Y9368306D01*
X10776561Y9343307D02*
Y9380931D01*
X10775101Y9756107D02*
X11015352Y9515856D01*
Y9508970D02*
Y9515856D01*
X10775101Y9756107D02*
Y10145543D01*
X10770638Y10150006D02*
X10775101Y10145543D01*
X9188173Y9915162D02*
X9219758Y9946748D01*
Y9953060D01*
X9223091Y10050078D02*
Y10297997D01*
X9372819Y10447726D01*
X9188171Y9984648D02*
Y10015158D01*
X9223091Y10050078D01*
X9188171Y9984648D02*
X9219758Y9953060D01*
X9188173Y9884652D02*
Y9915162D01*
X9595363Y9544047D02*
X9768950D01*
X9398915Y9649103D02*
X9626286D01*
X9468357Y9754466D02*
X9579563D01*
X9375099Y9774864D02*
Y10345541D01*
X9711407Y9598303D02*
X9863208Y9750104D01*
X10075103Y9750002D02*
X10317967Y9507138D01*
X10239181Y9750002D02*
X10456645Y9532538D01*
X10275102Y9750002D02*
X10467166Y9557938D01*
X10175103Y9750002D02*
X10239181D01*
X10275102Y10045541D02*
X10279566Y10050005D01*
X10370638D01*
X10275102Y9750002D02*
Y10045541D01*
X10370638Y10050005D02*
X10375102Y10054469D01*
Y10150006D01*
X10425001Y10199905D01*
Y10200002D01*
X10475102Y9697915D02*
Y9850103D01*
X10625106Y10000002D02*
X10675102Y9950007D01*
X9700886Y9623703D02*
X9775098Y9697915D01*
X9626286Y9649103D02*
X9675000Y9697817D01*
Y10149900D01*
X9375099Y10345541D02*
X9379563Y10350005D01*
X10175103Y9750002D02*
Y10145543D01*
X10075103Y9750002D02*
Y10450005D01*
X9775098Y9697915D02*
Y10050007D01*
X9579563Y9754466D02*
Y10250006D01*
X10175375Y10650005D02*
X10225100Y10600280D01*
X9472707Y10447614D02*
X9675099Y10650005D01*
X9376187Y10447726D02*
X9376299Y10447614D01*
X9372819Y10447726D02*
X9376187D01*
X9376299Y10447614D02*
X9472707D01*
X9675099Y10650005D02*
X10175375D01*
X10125105Y10400002D02*
X10175103Y10450000D01*
X10125100Y10400002D02*
X10125105D01*
X10425100D02*
X10425158D01*
X10670638Y10350006D02*
X10675102Y10345542D01*
X10425158Y10400002D02*
X10475155Y10350006D01*
X10675102Y10254470D02*
Y10345542D01*
X10475155Y10350006D02*
X10670638D01*
X10675102Y10254470D02*
X10679565Y10250006D01*
X9379563Y10350005D02*
X9475098D01*
X9574993Y10449900D01*
X9875001D01*
X9924901Y10499800D01*
Y10500005D01*
X9875103Y10350006D02*
X9924983Y10399886D01*
X9925004D01*
X9575099Y10350006D02*
X9875103D01*
X9475099Y10250006D02*
X9575099Y10350006D01*
X9579563Y10250006D02*
X9775151D01*
X9925001Y10199899D02*
Y10200002D01*
X10275101Y10550006D02*
X10325100Y10500006D01*
Y10500004D02*
Y10500006D01*
X10175103Y10550006D02*
X10275101D01*
X10175100Y10550003D02*
X10175103Y10550006D01*
X10075103Y10550003D02*
X10175100D01*
X9775151Y10250006D02*
X9825001Y10200157D01*
Y10200002D02*
Y10200157D01*
X9675000Y10149900D02*
X9725147Y10200047D01*
Y10200109D01*
X9725102Y10100002D02*
X9775098Y10050007D01*
X9725001Y10100002D02*
X9725102D01*
X10075103Y10450005D02*
X10125100Y10500002D01*
X10275102Y10245542D02*
X10279566Y10250006D01*
X10275102Y10154470D02*
Y10245542D01*
X10320537Y10250006D02*
X10325001Y10254470D01*
Y10300055D01*
X10279566Y10250006D02*
X10320537D01*
X10179566Y10150006D02*
X10270639D01*
X10275102Y10154470D01*
X10175103Y10145543D02*
X10179566Y10150006D01*
X10375102Y9950007D02*
X10475102Y10050007D01*
Y10250006D01*
X10525001Y10299905D01*
Y10300055D01*
X10475102Y9850103D02*
X10525001Y9900002D01*
X10625001Y10000002D02*
X10625106D01*
X10625106Y10200002D02*
X10675102Y10150006D01*
X10625001Y10200002D02*
X10625106D01*
X10675102Y10150006D02*
X10770638D01*
X5775000Y10120007D02*
Y10120008D01*
%TF.MD5,71205fecdd5e5129e425e0c2c17cb1ec*%
M02*
