%TF.GenerationSoftware,Altium Limited,Altium Designer,23.11.1 (41)*%
G04 Layer_Physical_Order=3*
G04 Layer_Color=6736896*
%FSLAX45Y45*%
%MOMM*%
%TF.SameCoordinates,85413206-E3E1-404A-8318-C17176F6EAC7*%
%TF.FilePolarity,Positive*%
%TF.FileFunction,Copper,L3,Inr,Signal*%
%TF.Part,Single*%
G01*
G75*
%TA.AperFunction,Conductor*%
%ADD81C,0.10160*%
%ADD82C,0.15240*%
%TA.AperFunction,ComponentPad*%
%ADD88C,6.20000*%
%ADD89C,2.20000*%
%ADD90C,3.81000*%
G04:AMPARAMS|DCode=91|XSize=1.524mm|YSize=1.524mm|CornerRadius=0mm|HoleSize=0mm|Usage=FLASHONLY|Rotation=90.000|XOffset=0mm|YOffset=0mm|HoleType=Round|Shape=Octagon|*
%AMOCTAGOND91*
4,1,8,0.38100,0.76200,-0.38100,0.76200,-0.76200,0.38100,-0.76200,-0.38100,-0.38100,-0.76200,0.38100,-0.76200,0.76200,-0.38100,0.76200,0.38100,0.38100,0.76200,0.0*
%
%ADD91OCTAGOND91*%

%ADD92C,1.52400*%
%ADD93C,3.00000*%
%ADD94C,1.60000*%
%ADD95C,0.60000*%
%ADD96R,1.90500X1.90500*%
%ADD97C,1.90500*%
%ADD98R,3.00000X3.00000*%
%TA.AperFunction,ViaPad*%
%ADD99C,0.30480*%
%ADD100C,0.55880*%
%ADD101C,0.50000*%
%ADD102C,0.50800*%
%TA.AperFunction,Conductor*%
%ADD103C,0.07620*%
D81*
X8058376Y9333282D02*
X9275099Y10550006D01*
X9225097Y11150004D02*
X9375296Y10999805D01*
X9375099Y10555957D02*
Y10652626D01*
X9275099Y10550006D02*
X9369147D01*
X9375296Y10652822D02*
Y10999805D01*
X9369147Y10550006D02*
X9375099Y10555957D01*
Y10652626D02*
X9375296Y10652822D01*
X8774927Y10349833D02*
X8974927D01*
X9025096Y10400002D02*
X9025100D01*
X5475520Y9333282D02*
X8058376D01*
X8725097Y10300002D02*
X8774927Y10349833D01*
X8974927D02*
X9025096Y10400002D01*
X5415477Y10326228D02*
X6337515Y11248266D01*
X5667480Y9501424D02*
X6755001D01*
X5494999Y9673905D02*
X5667480Y9501424D01*
X7198354D02*
X7238443Y9541513D01*
X6755001Y9501424D02*
X7198354D01*
X5494999Y9673905D02*
Y9760000D01*
X5414999Y9599061D02*
X5591877Y9422182D01*
X5414999Y9599061D02*
Y9680002D01*
X5591877Y9422182D02*
X7387172D01*
X8673489Y11047253D02*
X8770738Y10950005D01*
X9075098D01*
X8626112Y10998993D02*
X8775101Y10850005D01*
X9174702D01*
X9225500Y10900803D01*
X9091012Y10800141D02*
X9124961D01*
X9037111Y10758144D02*
X9064741Y10785773D01*
X9073497Y10648402D02*
X9275099Y10850005D01*
X9124961Y10800141D02*
X9125100Y10800002D01*
X9024701Y10800280D02*
X9058650D01*
X9085061Y10777356D02*
Y10794189D01*
X9091012Y10800141D01*
X9045528Y10737824D02*
X9085061Y10777356D01*
X9064741Y10785773D02*
Y10794189D01*
X9058650Y10800280D02*
X9064741Y10794189D01*
X8875100Y11050005D02*
X9175100D01*
X8925100Y11100006D02*
Y11197902D01*
X8874737Y11248266D02*
X8925100Y11197902D01*
X9025100Y11100004D02*
X9075099Y11150004D01*
X8725099Y11100006D02*
X8825899Y10999207D01*
X8775101Y11150004D02*
X8875100Y11050005D01*
X9175100D02*
X9225897Y10999207D01*
X9075099Y11150004D02*
X9225097D01*
X8825899Y10999207D02*
X8925499D01*
X9075098Y10950005D02*
X9125097Y11000004D01*
X8161626Y10950005D02*
X8605500D01*
X8821763Y10696662D02*
X8862925Y10737824D01*
X8813347Y10716982D02*
X8854508Y10758144D01*
X9037111D01*
X8862925Y10737824D02*
X9045528D01*
X8345333Y10648402D02*
X9073497D01*
X8116576Y10696662D02*
X8821763D01*
X8108160Y10716982D02*
X8813347D01*
X8264992Y10300002D02*
X8725097D01*
X7419435Y9722505D02*
X8345333Y10648402D01*
X7852706Y9887717D02*
X8264992Y10300002D01*
X6688852Y11248266D02*
X8874737D01*
X7537164Y11100006D02*
X8725099D01*
X7233763Y11150004D02*
X8775101D01*
X7966812Y10998993D02*
X8626112D01*
X7722254Y11047253D02*
X8673489D01*
X7135771Y9924150D02*
X7148358Y9936737D01*
X7730584Y10339407D02*
X8108160Y10716982D01*
X7744953Y10325039D02*
X8116576Y10696662D01*
X7653282Y10441661D02*
X8161626Y10950005D01*
X7429671Y10461852D02*
X7966812Y10998993D01*
X7516441Y10841441D02*
X7722254Y11047253D01*
X7335900Y10898741D02*
X7537164Y11100006D01*
X6974796Y10006978D02*
X6987624Y10019805D01*
X6645007Y11150004D02*
X6662066D01*
X5775006Y10280002D02*
X6645007Y11150004D01*
X5583443Y10160005D02*
X5654998D01*
X5495001D02*
X5575001Y10240005D01*
X5577491Y10024641D02*
Y10154053D01*
X5654999Y10057736D02*
Y10080000D01*
X5654998Y10160005D02*
X5694998Y10200005D01*
X5575001Y10240005D02*
X5735009D01*
X5654999Y10080000D02*
X5695001Y10120002D01*
X5577491Y10154053D02*
X5583443Y10160005D01*
X6597164D02*
X6897564Y10460405D01*
X6755001Y10080000D02*
X6950272Y10275272D01*
X6337515Y11248266D02*
X6352785D01*
X5728016Y10006978D02*
X6974796D01*
X5694996Y10039998D02*
X5728016Y10006978D01*
X5735003Y10080000D02*
X6755001D01*
X5734998Y10160005D02*
X6597164D01*
X5489049Y10080000D02*
X5495001Y10085952D01*
Y10160005D01*
X5695001Y10120002D02*
X5735003Y10080000D01*
X5694998Y10200005D02*
X5695001D01*
X5694998D02*
X5734998Y10160005D01*
X5735009Y10240005D02*
X5775006Y10280002D01*
X9225897Y10999207D02*
Y10999207D01*
X9275099Y10950002D02*
X9325100Y11000003D01*
X9275099Y10850005D02*
Y10950002D01*
X4950445Y10148356D02*
X5192264D01*
X4649940Y10153701D02*
X4751806Y10051836D01*
X4922050Y9907056D02*
X5191109D01*
X4804663Y9955316D02*
X5175178D01*
X4736094Y9886747D02*
X4804663Y9955316D01*
X4280330Y9975901D02*
X4723420D01*
X5135001Y10051836D02*
X5152772Y10034065D01*
X4846306Y10100096D02*
X5135001D01*
X4723420Y9975901D02*
X4751094Y10003576D01*
X4751806Y10051836D02*
X5135001D01*
X5135001Y10100096D02*
X5155096Y10080000D01*
X4751094Y10003576D02*
X5188692D01*
X4280330Y9886747D02*
X4736094D01*
X4694646Y9264701D02*
X5065950Y9636005D01*
X4723941Y9708947D02*
X4922050Y9907056D01*
X4631146Y9442501D02*
X4961304Y9772659D01*
X4669265Y9586021D02*
X4942040Y9858796D01*
X4677682Y9565701D02*
X4950457Y9838476D01*
X4674940Y9353604D02*
X5041337Y9720001D01*
X5291943Y9516859D02*
Y9636005D01*
Y9516859D02*
X5475520Y9333282D01*
X5415477Y10160482D02*
Y10326228D01*
X5375475Y10120480D02*
X5415477Y10160482D01*
X5375475Y10120480D02*
X5375475D01*
X5192264Y10148356D02*
X5220140Y10120480D01*
X5375475D01*
X5374998Y9720003D02*
X5414999Y9680002D01*
X5041337Y9720001D02*
X5135001D01*
X5135003Y9720003D02*
X5374998D01*
X5135001Y9720001D02*
X5135003Y9720003D01*
X5065950Y9636005D02*
X5291943D01*
X5216509Y9881656D02*
X5531225D01*
X5152772Y10034065D02*
X5281815D01*
X5155096Y10080000D02*
X5489049D01*
X5175178Y9955316D02*
X5211552Y9918941D01*
X5313790Y10002089D02*
X5554940D01*
X5191109Y9907056D02*
X5216509Y9881656D01*
X5211552Y9918941D02*
X5573939D01*
X5560264Y9963002D02*
X5654999Y10057736D01*
X5229266Y9963002D02*
X5560264D01*
X5554940Y10002089D02*
X5577491Y10024641D01*
X5573939Y9918941D02*
X5694996Y10039998D01*
X5188692Y10003576D02*
X5229266Y9963002D01*
X5281815Y10034065D02*
X5313790Y10002089D01*
X4280330Y10331501D02*
X4767300D01*
X4280330Y10153701D02*
X4649940D01*
X4767300Y10331501D02*
X4950445Y10148356D01*
X4703546Y10242855D02*
X4846306Y10100096D01*
X4280330Y10242855D02*
X4703546D01*
X4280201Y9353604D02*
X4674940D01*
X4314629Y9565701D02*
X4677682D01*
X4280330Y9264701D02*
X4694646D01*
X4280330Y9620321D02*
X4314630Y9586021D01*
X4669265D01*
X4280330Y9708947D02*
X4723941D01*
X4280330Y9442501D02*
X4631146D01*
X4280330Y9531401D02*
X4314629Y9565701D01*
X5454998Y9800001D02*
X5494999Y9760000D01*
X5135001Y9772659D02*
X5162344Y9800002D01*
X4961304Y9772659D02*
X5135001D01*
X5162344Y9800002D02*
X5454998D01*
X4950457Y9838476D02*
X5504211D01*
X4942040Y9858796D02*
X5512628D01*
X7387172Y9422182D02*
X7403070Y9438080D01*
X5922575Y9860521D02*
X7251698D01*
X5899147Y9924150D02*
X7135771D01*
X5930991Y9840201D02*
X7260115D01*
X7251698Y9860521D02*
X7272686Y9881509D01*
X7260115Y9840201D02*
X7287055Y9867141D01*
X5535001Y9702253D02*
X5637253Y9600001D01*
X5645669Y9620321D02*
X5746899D01*
X5555321Y9710670D02*
X5645669Y9620321D01*
X5637253Y9600001D02*
X5755315D01*
X5615001Y9719999D02*
X5654999Y9680001D01*
X5729046D02*
X5734998Y9685953D01*
X5654999Y9680001D02*
X5729046D01*
X5884841Y9805954D02*
Y9822787D01*
Y9758263D02*
Y9794051D01*
Y9822787D02*
X5922575Y9860521D01*
X5911112Y9800002D02*
X5935001D01*
X5905161Y9805954D02*
X5911112Y9800002D01*
X5905161Y9805954D02*
Y9814371D01*
X5930991Y9840201D01*
X5905161Y9749846D02*
Y9794051D01*
X5911112Y9800002D01*
X5755315Y9600001D02*
X5905161Y9749846D01*
X5855001Y9800002D02*
X5878889D01*
X5884841Y9805954D01*
X5734998Y9760001D02*
X5899147Y9924150D01*
X5734998Y9685953D02*
Y9760001D01*
X5746899Y9620321D02*
X5884841Y9758263D01*
X5878889Y9800002D02*
X5884841Y9794051D01*
X5555321Y9710670D02*
Y9816102D01*
X5535001Y9702253D02*
Y9807685D01*
X5512628Y9858796D02*
X5555321Y9816102D01*
X5615001Y9720002D02*
Y9797880D01*
Y9719999D02*
Y9720002D01*
X5504211Y9838476D02*
X5535001Y9807685D01*
X5531225Y9881656D02*
X5615001Y9797880D01*
X7148358Y9936737D02*
X7175531Y9963910D01*
X7201286Y9938155D01*
X7244392Y9981260D01*
X7148723Y10076929D02*
X7244392Y9981260D01*
X7148723Y10076929D02*
X7191828Y10120034D01*
X7287916Y10023946D01*
X7331022Y10067051D01*
X7234933Y10163139D02*
X7331022Y10067051D01*
X7234933Y10163139D02*
X7278039Y10206245D01*
X7374127Y10110157D01*
X7417232Y10153262D01*
X7315156Y10255337D02*
X7417232Y10153262D01*
X7315156Y10255337D02*
X7358262Y10298443D01*
X7460337Y10196367D01*
X7503442Y10239472D01*
X7389491Y10353423D02*
X7503442Y10239472D01*
X7389491Y10353423D02*
X7432597Y10396528D01*
X7546548Y10282577D01*
X7589653Y10325683D01*
X7475702Y10439634D02*
X7589653Y10325683D01*
X7475702Y10439634D02*
X7518807Y10482739D01*
X7632758Y10368788D01*
X7675863Y10411893D01*
X7649689Y10438068D02*
X7675863Y10411893D01*
X7649689Y10438068D02*
X7653282Y10441661D01*
X7292953Y10325135D02*
X7429671Y10461852D01*
X7233302Y10384786D02*
X7292953Y10325135D01*
X7190196Y10341681D02*
X7233302Y10384786D01*
X7190196Y10341681D02*
X7267711Y10264167D01*
X7224605Y10221061D02*
X7267711Y10264167D01*
X7109897Y10335770D02*
X7224605Y10221061D01*
X7066792Y10292664D02*
X7109897Y10335770D01*
X7066792Y10292664D02*
X7181500Y10177956D01*
X7138395Y10134851D02*
X7181500Y10177956D01*
X7014910Y10258336D02*
X7138395Y10134851D01*
X6971804Y10215231D02*
X7014910Y10258336D01*
X6971804Y10215231D02*
X7095290Y10091746D01*
X7052185Y10048641D02*
X7095290Y10091746D01*
X6922038Y10178787D02*
X7052185Y10048641D01*
X6878933Y10135682D02*
X6922038Y10178787D01*
X6878933Y10135682D02*
X6991216Y10023398D01*
X6987624Y10019805D02*
X6991216Y10023398D01*
X7428022Y10753022D02*
X7516441Y10841441D01*
X7421438Y10759607D02*
X7428022Y10753022D01*
X7378332Y10716502D02*
X7421438Y10759607D01*
X7378332Y10716502D02*
X7400356Y10694478D01*
X7357250Y10651373D02*
X7400356Y10694478D01*
X7257016Y10751607D02*
X7357250Y10651373D01*
X7213911Y10708502D02*
X7257016Y10751607D01*
X7213911Y10708502D02*
X7314145Y10608268D01*
X7271040Y10565163D02*
X7314145Y10608268D01*
X7170806Y10665397D02*
X7271040Y10565163D01*
X7127701Y10622292D02*
X7170806Y10665397D01*
X7127701Y10622292D02*
X7227935Y10522057D01*
X7184829Y10478952D02*
X7227935Y10522057D01*
X7100630Y10563152D02*
X7184829Y10478952D01*
X7057525Y10520047D02*
X7100630Y10563152D01*
X7057525Y10520047D02*
X7141724Y10435847D01*
X7098619Y10392742D02*
X7141724Y10435847D01*
X7020893Y10470468D02*
X7098619Y10392742D01*
X6977788Y10427362D02*
X7020893Y10470468D01*
X6977788Y10427362D02*
X7055514Y10349636D01*
X7012409Y10306531D02*
X7055514Y10349636D01*
X6912174Y10406766D02*
X7012409Y10306531D01*
X6869069Y10363660D02*
X6912174Y10406766D01*
X6869069Y10363660D02*
X6953865Y10278864D01*
X6950272Y10275272D02*
X6953865Y10278864D01*
X7202893Y10765735D02*
X7335900Y10898741D01*
X7117946Y10850681D02*
X7202893Y10765735D01*
X7074841Y10807576D02*
X7117946Y10850681D01*
X7074841Y10807576D02*
X7159788Y10722629D01*
X7116683Y10679524D02*
X7159788Y10722629D01*
X6984562Y10811645D02*
X7116683Y10679524D01*
X6941457Y10768540D02*
X6984562Y10811645D01*
X6941457Y10768540D02*
X7080051Y10629945D01*
X7036946Y10586840D02*
X7080051Y10629945D01*
X6898351Y10725435D02*
X7036946Y10586840D01*
X6855246Y10682329D02*
X6898351Y10725435D01*
X6855246Y10682329D02*
X7009875Y10527700D01*
X6966770Y10484595D02*
X7009875Y10527700D01*
X6812141Y10639224D02*
X6966770Y10484595D01*
X6769036Y10596119D02*
X6812141Y10639224D01*
X6769036Y10596119D02*
X6901157Y10463998D01*
X6897564Y10460405D02*
X6901157Y10463998D01*
X7154827Y11150004D02*
X7233763D01*
X7154827Y11111006D02*
Y11150004D01*
X7093867Y11111006D02*
X7154827D01*
X7093867D02*
Y11187567D01*
X7032907D02*
X7093867D01*
X7032907Y11013989D02*
Y11187567D01*
X6971947Y11013989D02*
X7032907D01*
X6971947D02*
Y11187567D01*
X6910987D02*
X6971947D01*
X6910987Y11013989D02*
Y11187567D01*
X6850027Y11013989D02*
X6910987D01*
X6850027D02*
Y11187567D01*
X6789067D02*
X6850027D01*
X6789067Y11013989D02*
Y11187567D01*
X6728107Y11013989D02*
X6789067D01*
X6728107D02*
Y11187567D01*
X6667147D02*
X6728107D01*
X6667147Y11150004D02*
Y11187567D01*
X6662066Y11150004D02*
X6667147D01*
X6662667Y11248266D02*
X6688852D01*
X6662667D02*
Y11458838D01*
X6601707D02*
X6662667D01*
X6601707Y11233399D02*
Y11458838D01*
X6540747Y11233399D02*
X6601707D01*
X6540747D02*
Y11463434D01*
X6479787D02*
X6540747D01*
X6479787Y11233399D02*
Y11463434D01*
X6418827Y11233399D02*
X6479787D01*
X6418827D02*
Y11463434D01*
X6357867D02*
X6418827D01*
X6357867Y11248266D02*
Y11463434D01*
X6352785Y11248266D02*
X6357867D01*
X7371352Y9674422D02*
X7419435Y9722505D01*
X7354925Y9690849D02*
X7371352Y9674422D01*
X7311819Y9647744D02*
X7354925Y9690849D01*
X7311819Y9647744D02*
X7368469Y9591094D01*
X7325365Y9547989D02*
X7368469Y9591094D01*
X7086792Y9786561D02*
X7325365Y9547989D01*
X7043687Y9743456D02*
X7086792Y9786561D01*
X7043687Y9743456D02*
X7242037Y9545106D01*
X7238443Y9541513D02*
X7242037Y9545106D01*
X7328885Y9912458D02*
X7381581Y9859762D01*
X7716831Y10300404D02*
Y10325654D01*
X7568198Y10219144D02*
Y10235977D01*
X7510676Y9960561D02*
X7553781Y10003666D01*
X7625623Y10075508D02*
X7668728Y10118613D01*
X7716831Y10325654D02*
X7730584Y10339407D01*
X7338304Y9989250D02*
X7424687Y9902867D01*
X7508259Y10176039D02*
X7525092D01*
X7338304Y9989250D02*
Y10006083D01*
X7453251Y10121030D02*
X7508259Y10176039D01*
X7410145Y10061092D02*
X7510676Y9960561D01*
X7272686Y9881509D02*
X7303635Y9912458D01*
X7640039Y10290986D02*
X7740570Y10190455D01*
X7393312Y10061092D02*
X7410145D01*
X7381581Y9859762D02*
X7424687Y9902867D01*
X7568198Y10235977D02*
X7623206Y10290986D01*
X7338304Y10006083D02*
X7393312Y10061092D01*
X7453251Y10104197D02*
X7553781Y10003666D01*
X7623206Y10290986D02*
X7640039D01*
X7303635Y9912458D02*
X7328885D01*
X7568198Y10219144D02*
X7668728Y10118613D01*
X7525092Y10176039D02*
X7625623Y10075508D01*
X7716831Y10300404D02*
X7783675Y10233560D01*
X7740570Y10190455D02*
X7783675Y10233560D01*
X7453251Y10104197D02*
Y10121030D01*
X7574101Y9995250D02*
Y10012083D01*
X7634040Y10055188D02*
X7689048Y10110197D01*
X7588518Y10227560D02*
X7689048Y10127030D01*
X7312052Y9892138D02*
X7320469D01*
X7588518Y10227560D02*
X7631623Y10270666D01*
X7689048Y10110197D02*
Y10127030D01*
X7401729Y10040772D02*
X7502260Y9940241D01*
X7445007Y9894451D02*
Y9911284D01*
X7737151Y10308821D02*
X7803995Y10241977D01*
X7519093Y9940241D02*
X7574101Y9995250D01*
X7320469Y9892138D02*
X7373165Y9839442D01*
X7473571Y10112614D02*
X7516676Y10155719D01*
X7737151Y10317237D02*
X7744953Y10325039D01*
X7373165Y9839442D02*
X7389998D01*
X7287054Y9867141D02*
X7312052Y9892138D01*
X7631623Y10270666D02*
X7732153Y10170135D01*
X7516676Y10155719D02*
X7617207Y10055188D01*
X7748987Y10170135D02*
X7803995Y10225144D01*
X7389998Y9839442D02*
X7445007Y9894451D01*
X7473571Y10112614D02*
X7574101Y10012083D01*
X7287054Y9867141D02*
X7287055D01*
X7737151Y10308821D02*
Y10317237D01*
X7744953Y10325039D02*
X7744953D01*
X7358624Y9997667D02*
X7445007Y9911284D01*
X7732153Y10170135D02*
X7748987D01*
X7803995Y10225144D02*
Y10241977D01*
X7502260Y9940241D02*
X7519093D01*
X7617207Y10055188D02*
X7634040D01*
X7358624Y9997667D02*
X7401729Y10040772D01*
X7751504Y9786515D02*
X7852706Y9887717D01*
X7751504Y9786515D02*
X7787769Y9750251D01*
X7744663Y9707146D02*
X7787769Y9750251D01*
X7663199Y9788610D02*
X7744663Y9707146D01*
X7620094Y9745505D02*
X7663199Y9788610D01*
X7620094Y9745505D02*
X7744273Y9621326D01*
X7701167Y9578221D02*
X7744273Y9621326D01*
X7576989Y9702399D02*
X7701167Y9578221D01*
X7533884Y9659294D02*
X7576989Y9702399D01*
X7533884Y9659294D02*
X7658062Y9535116D01*
X7614957Y9492010D02*
X7658062Y9535116D01*
X7490779Y9616189D02*
X7614957Y9492010D01*
X7447673Y9573084D02*
X7490779Y9616189D01*
X7447673Y9573084D02*
X7571852Y9448905D01*
X7528747Y9405800D02*
X7571852Y9448905D01*
X7404568Y9529979D02*
X7528747Y9405800D01*
X7361463Y9486874D02*
X7404568Y9529979D01*
X7361463Y9486874D02*
X7406663Y9441674D01*
X7403070Y9438080D02*
X7406663Y9441674D01*
D82*
X7630218Y15921773D02*
X7957726D01*
X16291560Y14004626D02*
X16431808D01*
X16538608Y14111426D01*
Y14224001D01*
D88*
X11744001Y9247042D02*
D03*
X8244001Y12747042D02*
D03*
X457199Y19557999D02*
D03*
Y457199D02*
D03*
X19557999D02*
D03*
Y19557999D02*
D03*
D89*
X19276059Y17193259D02*
D03*
X19784059D02*
D03*
Y17701259D02*
D03*
X19276059D02*
D03*
X19530058Y17447260D02*
D03*
X19545297Y15731273D02*
D03*
X19291296Y15985274D02*
D03*
X19799297D02*
D03*
Y15477274D02*
D03*
X19291296D02*
D03*
X19545297Y14562872D02*
D03*
X19291296Y14816873D02*
D03*
X19799297D02*
D03*
Y14308873D02*
D03*
X19291296D02*
D03*
X19530058Y18615659D02*
D03*
X19276059Y18869659D02*
D03*
X19784059D02*
D03*
Y18361659D02*
D03*
X19276059D02*
D03*
D90*
X19339796Y5918199D02*
D03*
Y4648199D02*
D03*
D91*
X19085797Y5638799D02*
D03*
D92*
Y5435599D02*
D03*
Y5232399D02*
D03*
Y5029199D02*
D03*
X18907997Y5537199D02*
D03*
Y5333999D02*
D03*
Y5130799D02*
D03*
Y4927599D02*
D03*
X18425397Y5968999D02*
D03*
Y4825999D02*
D03*
Y4597399D02*
D03*
Y5740399D02*
D03*
D93*
X18846799Y3014999D02*
D03*
Y1810998D02*
D03*
X17973201Y9828000D02*
D03*
Y10248000D02*
D03*
Y10667999D02*
D03*
X18523198Y9828000D02*
D03*
Y10248000D02*
D03*
D94*
X18576802Y2288000D02*
D03*
Y2538002D02*
D03*
X18376802Y2288000D02*
D03*
Y2538002D02*
D03*
D95*
X13736798Y4875698D02*
D03*
X13843797D02*
D03*
X13950798D02*
D03*
X13736798Y4768698D02*
D03*
X13843797D02*
D03*
X13950798D02*
D03*
X13736798Y4661698D02*
D03*
X13843797D02*
D03*
X13950798D02*
D03*
D96*
X19405598Y7128001D02*
D03*
D97*
Y7628000D02*
D03*
Y8127999D02*
D03*
Y8627998D02*
D03*
D98*
X18523198Y10667999D02*
D03*
D99*
X5372100Y10528300D02*
D03*
X4280330Y10687101D02*
D03*
Y10864900D02*
D03*
X7151218Y12664638D02*
D03*
Y12867838D02*
D03*
X7354418D02*
D03*
Y12664638D02*
D03*
X7544918D02*
D03*
Y12867838D02*
D03*
X6948018Y12664638D02*
D03*
Y12867838D02*
D03*
X7748118Y12664638D02*
D03*
Y12867838D02*
D03*
X3149600Y14147946D02*
D03*
Y14960745D02*
D03*
Y14757545D02*
D03*
Y14554346D02*
D03*
Y14351146D02*
D03*
Y16789546D02*
D03*
Y16586346D02*
D03*
Y16383147D02*
D03*
Y15773546D02*
D03*
Y15976746D02*
D03*
Y16179945D02*
D03*
Y15570346D02*
D03*
Y15367146D02*
D03*
Y15163947D02*
D03*
Y18211800D02*
D03*
Y18414999D02*
D03*
Y18618201D02*
D03*
Y18008600D02*
D03*
Y17805400D02*
D03*
Y17602200D02*
D03*
Y16992599D02*
D03*
Y17195799D02*
D03*
Y17399001D02*
D03*
Y18821400D02*
D03*
X2743200Y12725254D02*
D03*
Y12522054D02*
D03*
Y12928600D02*
D03*
Y13335001D02*
D03*
Y13538200D02*
D03*
Y13131799D02*
D03*
X5461000Y14770245D02*
D03*
Y14973447D02*
D03*
Y16395847D02*
D03*
Y16599046D02*
D03*
Y16802246D02*
D03*
Y16192645D02*
D03*
Y15989445D02*
D03*
Y15786246D02*
D03*
Y15176646D02*
D03*
Y15379846D02*
D03*
Y15583046D02*
D03*
Y18630901D02*
D03*
Y18427699D02*
D03*
Y18224500D02*
D03*
Y17614900D02*
D03*
Y17818100D02*
D03*
Y18021300D02*
D03*
Y17411700D02*
D03*
Y17208501D02*
D03*
Y17005299D02*
D03*
Y18834100D02*
D03*
X5257800Y14973447D02*
D03*
Y14770245D02*
D03*
X5054600D02*
D03*
Y14973447D02*
D03*
Y16395847D02*
D03*
Y16599046D02*
D03*
Y16802246D02*
D03*
X5257800D02*
D03*
Y16599046D02*
D03*
Y16395847D02*
D03*
Y15786246D02*
D03*
Y15989445D02*
D03*
Y16192645D02*
D03*
X5054600D02*
D03*
Y15989445D02*
D03*
Y15786246D02*
D03*
Y15176646D02*
D03*
Y15379846D02*
D03*
Y15583046D02*
D03*
X5257800D02*
D03*
Y15379846D02*
D03*
Y15176646D02*
D03*
X5054600Y18630901D02*
D03*
Y18427699D02*
D03*
Y18224500D02*
D03*
X5257800D02*
D03*
Y18427699D02*
D03*
Y18630901D02*
D03*
Y18021300D02*
D03*
Y17818100D02*
D03*
Y17614900D02*
D03*
X5054600D02*
D03*
Y17818100D02*
D03*
Y18021300D02*
D03*
Y17411700D02*
D03*
Y17208501D02*
D03*
Y17005299D02*
D03*
X5257800D02*
D03*
Y17208501D02*
D03*
Y17411700D02*
D03*
Y18834100D02*
D03*
X5054600D02*
D03*
X2743200Y18821400D02*
D03*
X2946400D02*
D03*
Y17399001D02*
D03*
Y17195799D02*
D03*
Y16992599D02*
D03*
X2743200D02*
D03*
Y17195799D02*
D03*
Y17399001D02*
D03*
Y18008600D02*
D03*
Y17805400D02*
D03*
Y17602200D02*
D03*
X2946400D02*
D03*
Y17805400D02*
D03*
Y18008600D02*
D03*
Y18618201D02*
D03*
Y18414999D02*
D03*
Y18211800D02*
D03*
X2743200D02*
D03*
Y18414999D02*
D03*
Y18618201D02*
D03*
X2946400Y15163947D02*
D03*
Y15367146D02*
D03*
Y15570346D02*
D03*
X2743200D02*
D03*
Y15367146D02*
D03*
Y15163947D02*
D03*
Y15773546D02*
D03*
Y15976746D02*
D03*
Y16179945D02*
D03*
X2946400D02*
D03*
Y15976746D02*
D03*
Y15773546D02*
D03*
Y16383147D02*
D03*
Y16586346D02*
D03*
Y16789546D02*
D03*
X2743200D02*
D03*
Y16586346D02*
D03*
Y16383147D02*
D03*
X2946400Y14351146D02*
D03*
X2743200D02*
D03*
Y14960745D02*
D03*
Y14757545D02*
D03*
Y14554346D02*
D03*
X2946400D02*
D03*
Y14757545D02*
D03*
Y14960745D02*
D03*
X2743200Y14147946D02*
D03*
X2946400D02*
D03*
X2743200Y13741400D02*
D03*
Y13944600D02*
D03*
X15201900Y14300200D02*
D03*
X15405099D02*
D03*
Y14503400D02*
D03*
X15201900D02*
D03*
X15608299D02*
D03*
X15811501D02*
D03*
Y14300200D02*
D03*
X15608299D02*
D03*
X17183099Y13893800D02*
D03*
X14833600Y15530302D02*
D03*
X14935201D02*
D03*
Y15428702D02*
D03*
X14833600D02*
D03*
X18834100Y19215100D02*
D03*
Y19418300D02*
D03*
Y19608800D02*
D03*
Y19812000D02*
D03*
X18224500D02*
D03*
X18427699D02*
D03*
X18630901D02*
D03*
Y19608800D02*
D03*
X18427699D02*
D03*
X18224500D02*
D03*
Y19418300D02*
D03*
X18427699D02*
D03*
X18630901D02*
D03*
Y19215100D02*
D03*
X18427699D02*
D03*
X18224500D02*
D03*
X14389101D02*
D03*
X14592300D02*
D03*
X14795500D02*
D03*
Y19418300D02*
D03*
X14592300D02*
D03*
X14389101D02*
D03*
Y19608800D02*
D03*
X14592300D02*
D03*
X14795500D02*
D03*
Y19812000D02*
D03*
X14592300D02*
D03*
X14389101D02*
D03*
X14998700D02*
D03*
X15201900D02*
D03*
X15405099D02*
D03*
Y19608800D02*
D03*
X15201900D02*
D03*
X14998700D02*
D03*
Y19418300D02*
D03*
X15201900D02*
D03*
X15405099D02*
D03*
Y19215100D02*
D03*
X15201900D02*
D03*
X14998700D02*
D03*
X15608299D02*
D03*
X15811501D02*
D03*
X16014700D02*
D03*
Y19418300D02*
D03*
X15811501D02*
D03*
X15608299D02*
D03*
Y19608800D02*
D03*
X15811501D02*
D03*
X16014700D02*
D03*
Y19812000D02*
D03*
X15811501D02*
D03*
X15608299D02*
D03*
X16611600D02*
D03*
X16814799D02*
D03*
X17017999D02*
D03*
Y19608800D02*
D03*
X16814799D02*
D03*
X16611600D02*
D03*
Y19418300D02*
D03*
X16814799D02*
D03*
X17017999D02*
D03*
X16611600Y19215100D02*
D03*
X16205200D02*
D03*
X16408400D02*
D03*
Y19418300D02*
D03*
X16205200D02*
D03*
Y19608800D02*
D03*
X16408400D02*
D03*
Y19812000D02*
D03*
X16205200D02*
D03*
X17208501D02*
D03*
X17411700D02*
D03*
Y19608800D02*
D03*
X17208501D02*
D03*
Y19418300D02*
D03*
X17411700D02*
D03*
Y19215100D02*
D03*
X17208501D02*
D03*
X17614900D02*
D03*
X17818100D02*
D03*
X18021300D02*
D03*
Y19418300D02*
D03*
X17818100D02*
D03*
X17614900D02*
D03*
Y19608800D02*
D03*
X17818100D02*
D03*
X18021300D02*
D03*
Y19812000D02*
D03*
X17818100D02*
D03*
X17614900D02*
D03*
X19843686Y13747263D02*
D03*
X19640488D02*
D03*
X19437286D02*
D03*
X19500482Y15029259D02*
D03*
X19703682D02*
D03*
Y15232458D02*
D03*
X19500482D02*
D03*
X19297282D02*
D03*
Y15029259D02*
D03*
X19316701Y16357600D02*
D03*
Y16560800D02*
D03*
X19519901D02*
D03*
X19723100D02*
D03*
Y16357600D02*
D03*
X19519901D02*
D03*
X17297400Y16738600D02*
D03*
X17500600D02*
D03*
X17703799D02*
D03*
Y16941800D02*
D03*
X17500600D02*
D03*
X17297400D02*
D03*
X17907001D02*
D03*
X18110201D02*
D03*
X18313400D02*
D03*
Y16738600D02*
D03*
X18110201D02*
D03*
X17907001D02*
D03*
X18516600D02*
D03*
X18719800D02*
D03*
X18923000D02*
D03*
Y16941800D02*
D03*
X18719800D02*
D03*
X18516600D02*
D03*
X19519901D02*
D03*
X19723100D02*
D03*
Y16738600D02*
D03*
X19519901D02*
D03*
X19113499D02*
D03*
X19316701D02*
D03*
Y16941800D02*
D03*
X19113499D02*
D03*
X13462000Y16738600D02*
D03*
X13665199D02*
D03*
X13868401D02*
D03*
Y16941800D02*
D03*
X13665199D02*
D03*
X13462000D02*
D03*
X14071600D02*
D03*
X14274800D02*
D03*
X14478000D02*
D03*
Y16738600D02*
D03*
X14274800D02*
D03*
X14071600D02*
D03*
X14681200D02*
D03*
X14884399D02*
D03*
X15087601D02*
D03*
Y16941800D02*
D03*
X14884399D02*
D03*
X14681200D02*
D03*
X15684500D02*
D03*
X15887700D02*
D03*
X16090900D02*
D03*
Y16738600D02*
D03*
X15887700D02*
D03*
X15684500D02*
D03*
X15278101D02*
D03*
X15481300D02*
D03*
Y16941800D02*
D03*
X15278101D02*
D03*
X16281400D02*
D03*
X16484599D02*
D03*
Y16738600D02*
D03*
X16281400D02*
D03*
X16687801D02*
D03*
X16891000D02*
D03*
X17094200D02*
D03*
Y16941800D02*
D03*
X16891000D02*
D03*
X16687801D02*
D03*
X16916400Y13627100D02*
D03*
Y13436600D02*
D03*
X17373599Y13309599D02*
D03*
X17183099D02*
D03*
X17843500Y13404388D02*
D03*
X17653000D02*
D03*
X4368800Y12280900D02*
D03*
Y12484100D02*
D03*
X4165600D02*
D03*
Y12280900D02*
D03*
X4775200D02*
D03*
Y12484100D02*
D03*
Y12687300D02*
D03*
X4572000D02*
D03*
Y12484100D02*
D03*
Y12280900D02*
D03*
Y12890500D02*
D03*
X4775200D02*
D03*
X14414500Y13462000D02*
D03*
X14617700D02*
D03*
X14808200D02*
D03*
X14211301D02*
D03*
X14008099D02*
D03*
X13817599D02*
D03*
X13614400D02*
D03*
X16256000Y13068300D02*
D03*
Y13271500D02*
D03*
Y13474699D02*
D03*
X16459200D02*
D03*
Y13271500D02*
D03*
Y13068300D02*
D03*
X16649699D02*
D03*
Y13271500D02*
D03*
Y13474699D02*
D03*
X16052800Y13068300D02*
D03*
Y13271500D02*
D03*
Y13474699D02*
D03*
X15849600D02*
D03*
Y13271500D02*
D03*
Y13068300D02*
D03*
X15659100D02*
D03*
Y13271500D02*
D03*
Y13474699D02*
D03*
X15455901D02*
D03*
Y13271500D02*
D03*
Y13068300D02*
D03*
X16992599Y12026900D02*
D03*
X17195799D02*
D03*
X17399001D02*
D03*
Y11823700D02*
D03*
X17195799D02*
D03*
X16992599D02*
D03*
Y11633200D02*
D03*
X17195799D02*
D03*
X17399001D02*
D03*
X16992599Y12230100D02*
D03*
X17195799D02*
D03*
X17399001D02*
D03*
Y12433300D02*
D03*
X17195799D02*
D03*
X16992599D02*
D03*
Y12623800D02*
D03*
X17195799D02*
D03*
X17399001D02*
D03*
Y12827000D02*
D03*
X17195799D02*
D03*
X16992599D02*
D03*
X17589500Y12026900D02*
D03*
Y11823700D02*
D03*
Y11633200D02*
D03*
Y12230100D02*
D03*
Y12433300D02*
D03*
Y12623800D02*
D03*
Y12827000D02*
D03*
X15875000Y11430000D02*
D03*
Y11633200D02*
D03*
X15671800D02*
D03*
Y11430000D02*
D03*
X13842999Y10363200D02*
D03*
Y10160000D02*
D03*
X13639799Y9956800D02*
D03*
X13233400D02*
D03*
X13436600D02*
D03*
X13030200D02*
D03*
Y9753600D02*
D03*
X13233400Y9550400D02*
D03*
X13436600D02*
D03*
Y9753600D02*
D03*
X13233400D02*
D03*
X13842999Y9956800D02*
D03*
X14452600Y9753600D02*
D03*
X13842999D02*
D03*
X13639799D02*
D03*
Y9550400D02*
D03*
X13842999D02*
D03*
X14046201D02*
D03*
X14249400D02*
D03*
Y9753600D02*
D03*
X14046201D02*
D03*
X14249400Y10363200D02*
D03*
X14046201D02*
D03*
X14249400Y10566400D02*
D03*
Y10160000D02*
D03*
X14046201D02*
D03*
Y9956800D02*
D03*
X14249400D02*
D03*
X14452600D02*
D03*
X14655800D02*
D03*
X14859000Y10160000D02*
D03*
X14655800D02*
D03*
X14452600D02*
D03*
Y10566400D02*
D03*
X14655800D02*
D03*
X14859000D02*
D03*
Y10363200D02*
D03*
X14655800D02*
D03*
X14452600D02*
D03*
Y10769600D02*
D03*
X14655800D02*
D03*
X14859000D02*
D03*
Y10972800D02*
D03*
X14655800D02*
D03*
X14452600D02*
D03*
Y11163300D02*
D03*
X14655800D02*
D03*
X14859000D02*
D03*
Y11366500D02*
D03*
X14655800D02*
D03*
X14452600D02*
D03*
X15062199D02*
D03*
Y11163300D02*
D03*
Y10972800D02*
D03*
Y10769600D02*
D03*
Y10363200D02*
D03*
Y10566400D02*
D03*
X12781084Y11836143D02*
D03*
X12577884D02*
D03*
Y11645643D02*
D03*
X12781084D02*
D03*
X10937690Y8966995D02*
D03*
X10734490D02*
D03*
Y8776495D02*
D03*
X10937690D02*
D03*
X10942858Y8611174D02*
D03*
X10739658D02*
D03*
Y8420674D02*
D03*
X10942858D02*
D03*
X12978603Y8260624D02*
D03*
X13181802D02*
D03*
X13385002D02*
D03*
Y8463824D02*
D03*
X13181802D02*
D03*
X12978603D02*
D03*
Y8654324D02*
D03*
X13181802D02*
D03*
X13385002D02*
D03*
Y8857524D02*
D03*
X13181802D02*
D03*
X12978603D02*
D03*
X13588202D02*
D03*
Y8654324D02*
D03*
Y8463824D02*
D03*
Y8260624D02*
D03*
X16710316Y9955931D02*
D03*
Y10159131D02*
D03*
X16507117D02*
D03*
Y9955931D02*
D03*
X16316617D02*
D03*
Y10159131D02*
D03*
X16113417D02*
D03*
Y9955931D02*
D03*
X15388223Y8705776D02*
D03*
X15591425D02*
D03*
Y8908976D02*
D03*
X15388223D02*
D03*
Y9099476D02*
D03*
X15591425D02*
D03*
Y9302676D02*
D03*
X15388223D02*
D03*
X14852403Y7463787D02*
D03*
X15055605D02*
D03*
X15258804D02*
D03*
X14852403Y7666987D02*
D03*
X15055605D02*
D03*
X15258804D02*
D03*
Y7870187D02*
D03*
X15055605D02*
D03*
X14852403D02*
D03*
Y8060687D02*
D03*
X15055605D02*
D03*
X15258804D02*
D03*
Y8263887D02*
D03*
X15055605D02*
D03*
X14852403D02*
D03*
X15462004D02*
D03*
X15665204D02*
D03*
Y8060687D02*
D03*
X15462004D02*
D03*
Y7870187D02*
D03*
X15665204D02*
D03*
Y7666987D02*
D03*
X15462004D02*
D03*
X15665204Y7463787D02*
D03*
X15462004D02*
D03*
X17447357Y9643941D02*
D03*
X17637857Y9847141D02*
D03*
Y9643941D02*
D03*
X4038600Y5613400D02*
D03*
X4241800D02*
D03*
X4445000D02*
D03*
Y5410200D02*
D03*
X4241800D02*
D03*
X4038600D02*
D03*
Y5219700D02*
D03*
X4241800D02*
D03*
X4445000D02*
D03*
Y5016500D02*
D03*
X4241800D02*
D03*
X4038600D02*
D03*
Y5816600D02*
D03*
X4241800D02*
D03*
X4445000D02*
D03*
Y6019800D02*
D03*
X4241800D02*
D03*
X4038600D02*
D03*
Y6210300D02*
D03*
X4241800D02*
D03*
X4445000D02*
D03*
Y6413500D02*
D03*
X4241800D02*
D03*
X4038600D02*
D03*
X4648200D02*
D03*
X4851400D02*
D03*
X5054600D02*
D03*
Y6210300D02*
D03*
X4851400D02*
D03*
X4648200D02*
D03*
Y6019800D02*
D03*
X4851400D02*
D03*
X5054600D02*
D03*
Y5816600D02*
D03*
X4851400D02*
D03*
X4648200D02*
D03*
Y5016500D02*
D03*
X4851400D02*
D03*
X5054600D02*
D03*
Y5219700D02*
D03*
X4851400D02*
D03*
X4648200D02*
D03*
Y5410200D02*
D03*
X4851400D02*
D03*
X5054600D02*
D03*
Y5613400D02*
D03*
X4851400D02*
D03*
X4648200D02*
D03*
X5257800D02*
D03*
X5461000D02*
D03*
X5664200D02*
D03*
Y5410200D02*
D03*
X5461000D02*
D03*
X5257800D02*
D03*
Y5219700D02*
D03*
X5461000D02*
D03*
X5664200D02*
D03*
Y5016500D02*
D03*
X5461000D02*
D03*
X5257800D02*
D03*
Y5816600D02*
D03*
X5461000D02*
D03*
X5664200D02*
D03*
Y6019800D02*
D03*
X5461000D02*
D03*
X5257800D02*
D03*
Y6210300D02*
D03*
X5461000D02*
D03*
X5664200D02*
D03*
Y6413500D02*
D03*
X5461000D02*
D03*
X5257800D02*
D03*
X6261100D02*
D03*
X6464300D02*
D03*
X6667500D02*
D03*
Y6210300D02*
D03*
X6464300D02*
D03*
X6261100D02*
D03*
Y6019800D02*
D03*
X6464300D02*
D03*
X6667500D02*
D03*
Y5816600D02*
D03*
X6464300D02*
D03*
X6261100D02*
D03*
Y5016500D02*
D03*
X6464300D02*
D03*
X6667500D02*
D03*
Y5219700D02*
D03*
X6464300D02*
D03*
X6261100D02*
D03*
Y5410200D02*
D03*
X6464300D02*
D03*
X6667500D02*
D03*
Y5613400D02*
D03*
X6464300D02*
D03*
X6261100D02*
D03*
X5854700D02*
D03*
X6057900D02*
D03*
Y5410200D02*
D03*
X5854700D02*
D03*
Y5219700D02*
D03*
X6057900D02*
D03*
Y5016500D02*
D03*
X5854700D02*
D03*
Y5816600D02*
D03*
X6057900D02*
D03*
Y6019800D02*
D03*
X5854700D02*
D03*
Y6210300D02*
D03*
X6057900D02*
D03*
Y6413500D02*
D03*
X5854700D02*
D03*
X8458200Y14363699D02*
D03*
X8661400D02*
D03*
Y14160500D02*
D03*
X8458200D02*
D03*
Y14566901D02*
D03*
X8661400D02*
D03*
Y14770100D02*
D03*
X8458200D02*
D03*
Y14960600D02*
D03*
X8661400D02*
D03*
X8255000D02*
D03*
X8051800D02*
D03*
X7848600D02*
D03*
Y14770100D02*
D03*
X8051800D02*
D03*
X8255000D02*
D03*
Y14566901D02*
D03*
X8051800D02*
D03*
X7848600D02*
D03*
Y14160500D02*
D03*
X8051800D02*
D03*
X8255000D02*
D03*
Y14363699D02*
D03*
X8051800D02*
D03*
X7848600D02*
D03*
X10706100Y12953999D02*
D03*
Y12750800D02*
D03*
X11303000D02*
D03*
X11112500D02*
D03*
Y12953999D02*
D03*
X10909300D02*
D03*
Y12750800D02*
D03*
X9906000Y12953999D02*
D03*
Y12750800D02*
D03*
X10502900Y12953999D02*
D03*
Y12750800D02*
D03*
X10312400D02*
D03*
Y12953999D02*
D03*
X10109200D02*
D03*
Y12750800D02*
D03*
X9105900Y12953999D02*
D03*
Y12750800D02*
D03*
X9702800Y12953999D02*
D03*
Y12750800D02*
D03*
X9512300D02*
D03*
Y12953999D02*
D03*
X9309100D02*
D03*
Y12750800D02*
D03*
X10942858Y8062012D02*
D03*
X10739658D02*
D03*
Y8252512D02*
D03*
X10942858D02*
D03*
X12090400Y9842500D02*
D03*
X12293600Y9639300D02*
D03*
X12090400D02*
D03*
X12293600Y9436100D02*
D03*
X12090400D02*
D03*
X12293600Y9842500D02*
D03*
Y10045700D02*
D03*
X12090400D02*
D03*
Y11252200D02*
D03*
X12293600D02*
D03*
Y11049000D02*
D03*
X12090400D02*
D03*
Y10858500D02*
D03*
X12293600D02*
D03*
Y10655300D02*
D03*
X12090400D02*
D03*
Y10248900D02*
D03*
X12293600D02*
D03*
Y10452100D02*
D03*
X12090400D02*
D03*
Y12458700D02*
D03*
X12293600D02*
D03*
Y12255500D02*
D03*
X12090400D02*
D03*
Y12065000D02*
D03*
X12293600D02*
D03*
Y11861800D02*
D03*
X12090400D02*
D03*
Y11455400D02*
D03*
X12293600D02*
D03*
Y11658600D02*
D03*
X12090400D02*
D03*
X10236200Y9258300D02*
D03*
X10033000D02*
D03*
X9436100Y8851900D02*
D03*
Y9055100D02*
D03*
X9639300D02*
D03*
Y8851900D02*
D03*
X9829800D02*
D03*
Y9055100D02*
D03*
X10033000D02*
D03*
Y8851900D02*
D03*
Y8242300D02*
D03*
Y8445500D02*
D03*
Y8648700D02*
D03*
X9829800D02*
D03*
Y8445500D02*
D03*
Y8242300D02*
D03*
X9639300D02*
D03*
Y8445500D02*
D03*
Y8648700D02*
D03*
X9436100D02*
D03*
Y8445500D02*
D03*
Y8242300D02*
D03*
Y8039100D02*
D03*
X9639300D02*
D03*
X9829800D02*
D03*
X10033000D02*
D03*
X4368800Y12687300D02*
D03*
Y12890500D02*
D03*
X3759200D02*
D03*
X3962400D02*
D03*
X4165600D02*
D03*
Y12687300D02*
D03*
X3962400D02*
D03*
X3759200D02*
D03*
Y13093700D02*
D03*
X3962400D02*
D03*
X4165600D02*
D03*
Y13296899D02*
D03*
X3962400D02*
D03*
X3759200D02*
D03*
X4368800D02*
D03*
X4572000D02*
D03*
X4775200D02*
D03*
Y13093700D02*
D03*
X4572000D02*
D03*
X4368800D02*
D03*
X4978400D02*
D03*
X5181600D02*
D03*
X5384800D02*
D03*
Y13296899D02*
D03*
X5181600D02*
D03*
X4978400D02*
D03*
X3556000Y13741400D02*
D03*
X3352800D02*
D03*
X3149600D02*
D03*
Y13944600D02*
D03*
X3352800D02*
D03*
X3556000D02*
D03*
X2946400D02*
D03*
Y13741400D02*
D03*
X4978400Y13944600D02*
D03*
X5181600D02*
D03*
X5384800D02*
D03*
Y13741400D02*
D03*
X5181600D02*
D03*
X4978400D02*
D03*
X4368800D02*
D03*
X4572000D02*
D03*
X4775200D02*
D03*
Y13944600D02*
D03*
X4572000D02*
D03*
X4368800D02*
D03*
X3759200D02*
D03*
X3962400D02*
D03*
X4165600D02*
D03*
Y13741400D02*
D03*
X3962400D02*
D03*
X3759200D02*
D03*
X10638224Y16624300D02*
D03*
X10828724D02*
D03*
X11031924D02*
D03*
Y16827499D02*
D03*
X10828724D02*
D03*
X10638224D02*
D03*
X10106982Y15748000D02*
D03*
X10310182D02*
D03*
X10500682D02*
D03*
X11899900D02*
D03*
X11709400D02*
D03*
X10718800Y15951199D02*
D03*
X10909300D02*
D03*
X11112500D02*
D03*
X11506200D02*
D03*
X11315700D02*
D03*
Y15748000D02*
D03*
X11506200D02*
D03*
X11112500D02*
D03*
X10909300D02*
D03*
X10718800D02*
D03*
X11709400Y16929100D02*
D03*
Y16725900D02*
D03*
Y16535400D02*
D03*
Y16332201D02*
D03*
Y15951199D02*
D03*
Y16128999D02*
D03*
X11912600D02*
D03*
Y15951199D02*
D03*
Y16332201D02*
D03*
Y16535400D02*
D03*
Y16725900D02*
D03*
Y16929100D02*
D03*
X3506901Y10014000D02*
D03*
X3862501D02*
D03*
X3684701D02*
D03*
X3862501Y10268000D02*
D03*
X3684701D02*
D03*
X3506901D02*
D03*
X3684701Y10522000D02*
D03*
X3862501D02*
D03*
X3506901D02*
D03*
X2783001Y10522002D02*
D03*
X2605201D02*
D03*
X3138601D02*
D03*
X2960801D02*
D03*
Y10014000D02*
D03*
X3138601D02*
D03*
X2960801Y10268000D02*
D03*
X3138601D02*
D03*
X2783001Y10014000D02*
D03*
X2605201D02*
D03*
Y10268000D02*
D03*
X2783001D02*
D03*
X13779500Y19812000D02*
D03*
X13982700D02*
D03*
X14185899D02*
D03*
Y19608800D02*
D03*
X13982700D02*
D03*
X13779500D02*
D03*
Y19418300D02*
D03*
X13982700D02*
D03*
X14185899D02*
D03*
Y19215100D02*
D03*
X13982700D02*
D03*
X13779500D02*
D03*
X13373100D02*
D03*
X13576300D02*
D03*
Y19418300D02*
D03*
X13373100D02*
D03*
Y19608800D02*
D03*
X13576300D02*
D03*
Y19812000D02*
D03*
X13373100D02*
D03*
X12369800D02*
D03*
X12573000D02*
D03*
Y19608800D02*
D03*
X12369800D02*
D03*
Y19418300D02*
D03*
X12573000D02*
D03*
Y19215100D02*
D03*
X12369800D02*
D03*
Y18414999D02*
D03*
X12573000D02*
D03*
Y18618201D02*
D03*
X12369800D02*
D03*
Y18808701D02*
D03*
X12573000D02*
D03*
Y19011900D02*
D03*
X12369800D02*
D03*
X12776200D02*
D03*
X12979401D02*
D03*
X13182600D02*
D03*
Y18808701D02*
D03*
X12979401D02*
D03*
X12776200D02*
D03*
Y18618201D02*
D03*
X12979401D02*
D03*
X13182600D02*
D03*
Y18414999D02*
D03*
X12979401D02*
D03*
X12776200D02*
D03*
Y19215100D02*
D03*
X12979401D02*
D03*
X13182600D02*
D03*
Y19418300D02*
D03*
X12979401D02*
D03*
X12776200D02*
D03*
Y19608800D02*
D03*
X12979401D02*
D03*
X13182600D02*
D03*
Y19812000D02*
D03*
X12979401D02*
D03*
X12776200D02*
D03*
X11772900D02*
D03*
X11976100D02*
D03*
X12179300D02*
D03*
Y19608800D02*
D03*
X11976100D02*
D03*
X11772900D02*
D03*
Y19418300D02*
D03*
X11976100D02*
D03*
X12179300D02*
D03*
Y19215100D02*
D03*
X11976100D02*
D03*
X11772900D02*
D03*
Y18414999D02*
D03*
X11976100D02*
D03*
X12179300D02*
D03*
Y18618201D02*
D03*
X11976100D02*
D03*
X11772900D02*
D03*
Y18808701D02*
D03*
X11976100D02*
D03*
X12179300D02*
D03*
Y19011900D02*
D03*
X11976100D02*
D03*
X11772900D02*
D03*
X11163300D02*
D03*
X11366500D02*
D03*
X11569700D02*
D03*
Y18808701D02*
D03*
X11366500D02*
D03*
X11163300D02*
D03*
Y18618201D02*
D03*
X11366500D02*
D03*
X11569700D02*
D03*
Y18414999D02*
D03*
X11366500D02*
D03*
X11163300D02*
D03*
Y19215100D02*
D03*
X11366500D02*
D03*
X11569700D02*
D03*
Y19418300D02*
D03*
X11366500D02*
D03*
X11163300D02*
D03*
Y19608800D02*
D03*
X11366500D02*
D03*
X11569700D02*
D03*
Y19812000D02*
D03*
X11366500D02*
D03*
X11163300D02*
D03*
X10553700D02*
D03*
X10756900D02*
D03*
X10960100D02*
D03*
Y19608800D02*
D03*
X10756900D02*
D03*
X10553700D02*
D03*
Y19418300D02*
D03*
X10756900D02*
D03*
X10960100D02*
D03*
Y19215100D02*
D03*
X10756900D02*
D03*
X10553700D02*
D03*
Y18414999D02*
D03*
X10756900D02*
D03*
X10960100D02*
D03*
Y18618201D02*
D03*
X10756900D02*
D03*
X10553700D02*
D03*
Y18808701D02*
D03*
X10756900D02*
D03*
X10960100D02*
D03*
Y19011900D02*
D03*
X10756900D02*
D03*
X10553700D02*
D03*
X7607300Y16637000D02*
D03*
X7200900Y18237199D02*
D03*
X7404100Y18034000D02*
D03*
Y18237199D02*
D03*
X7810500Y17437100D02*
D03*
X8013700D02*
D03*
Y17233900D02*
D03*
X7810500D02*
D03*
Y17043401D02*
D03*
X8013700D02*
D03*
Y16840199D02*
D03*
X7810500D02*
D03*
Y17640300D02*
D03*
X8013700D02*
D03*
Y17843500D02*
D03*
X7810500D02*
D03*
Y18034000D02*
D03*
X8013700D02*
D03*
Y18237199D02*
D03*
X7810500D02*
D03*
X7607300D02*
D03*
Y18034000D02*
D03*
Y17843500D02*
D03*
Y17640300D02*
D03*
Y16840199D02*
D03*
Y17043401D02*
D03*
Y17233900D02*
D03*
Y17437100D02*
D03*
X7200900Y19037300D02*
D03*
X7404100D02*
D03*
X7607300D02*
D03*
Y18834100D02*
D03*
X7404100D02*
D03*
X7200900D02*
D03*
Y18643600D02*
D03*
X7404100D02*
D03*
X7607300D02*
D03*
Y18440401D02*
D03*
X7404100D02*
D03*
X7200900D02*
D03*
Y19240500D02*
D03*
X7404100D02*
D03*
X7607300D02*
D03*
Y19443700D02*
D03*
X7404100D02*
D03*
X7200900D02*
D03*
Y19634200D02*
D03*
X7404100D02*
D03*
X7607300D02*
D03*
Y19837399D02*
D03*
X7404100D02*
D03*
X7200900D02*
D03*
X7810500D02*
D03*
X8013700D02*
D03*
X8216900D02*
D03*
Y19634200D02*
D03*
X8013700D02*
D03*
X7810500D02*
D03*
Y19443700D02*
D03*
X8013700D02*
D03*
X8216900D02*
D03*
Y19240500D02*
D03*
X8013700D02*
D03*
X7810500D02*
D03*
Y18440401D02*
D03*
X8013700D02*
D03*
X8216900D02*
D03*
Y18643600D02*
D03*
X8013700D02*
D03*
X7810500D02*
D03*
Y18834100D02*
D03*
X8013700D02*
D03*
X8216900D02*
D03*
Y19037300D02*
D03*
X8013700D02*
D03*
X7810500D02*
D03*
X19456400Y12280900D02*
D03*
X7630218Y15921773D02*
D03*
X7957726D02*
D03*
X9232900Y19634200D02*
D03*
Y19837399D02*
D03*
X9029700D02*
D03*
Y19634200D02*
D03*
X8420100Y19037300D02*
D03*
X8623300D02*
D03*
X8826500D02*
D03*
Y18834100D02*
D03*
X8623300D02*
D03*
X8420100D02*
D03*
Y18643600D02*
D03*
X8623300D02*
D03*
X8826500D02*
D03*
Y18440401D02*
D03*
X8623300D02*
D03*
X8420100D02*
D03*
Y19240500D02*
D03*
X8623300D02*
D03*
X8826500D02*
D03*
Y19443700D02*
D03*
X8623300D02*
D03*
X8420100D02*
D03*
Y19634200D02*
D03*
X8623300D02*
D03*
X8826500D02*
D03*
Y19837399D02*
D03*
X8623300D02*
D03*
X8420100D02*
D03*
X8663136Y17250072D02*
D03*
X9847730D02*
D03*
X18823940Y17145000D02*
D03*
X13928406Y15113776D02*
D03*
X14030005D02*
D03*
Y15215375D02*
D03*
X13928406D02*
D03*
X14131606D02*
D03*
X14233205D02*
D03*
Y15113776D02*
D03*
X14131606D02*
D03*
X14538005D02*
D03*
X14639606D02*
D03*
Y15215375D02*
D03*
X14538005D02*
D03*
X14334805D02*
D03*
X14436404D02*
D03*
Y15113776D02*
D03*
X14334805D02*
D03*
X13866614Y17697107D02*
D03*
Y17595506D02*
D03*
X13765015D02*
D03*
X13866614Y17493907D02*
D03*
X13765015D02*
D03*
X14476215Y17290707D02*
D03*
X14577814D02*
D03*
Y17392307D02*
D03*
X14476215D02*
D03*
X14679414D02*
D03*
X14781013D02*
D03*
Y17290707D02*
D03*
X14679414D02*
D03*
X14882614Y17392307D02*
D03*
Y17290707D02*
D03*
X14069814D02*
D03*
X14171414D02*
D03*
Y17392307D02*
D03*
X14069814D02*
D03*
X14273013D02*
D03*
X14374614D02*
D03*
Y17290707D02*
D03*
X14273013D02*
D03*
X13866614D02*
D03*
X13968214D02*
D03*
Y17392307D02*
D03*
X13866614D02*
D03*
X13663414D02*
D03*
X13765015D02*
D03*
Y17290707D02*
D03*
X13663414D02*
D03*
X13794951Y14275580D02*
D03*
X13712154D02*
D03*
X13890401Y14382274D02*
D03*
Y14275580D02*
D03*
Y14168886D02*
D03*
X13712154Y14382274D02*
D03*
Y14168886D02*
D03*
X13794951D02*
D03*
Y14381494D02*
D03*
X17417377Y14053064D02*
D03*
Y14168129D02*
D03*
X17531677Y14053064D02*
D03*
Y14168129D02*
D03*
Y13920557D02*
D03*
X17417377D02*
D03*
X17303078D02*
D03*
X17322800Y14168129D02*
D03*
Y14053064D02*
D03*
X17880219Y16177539D02*
D03*
X18897600Y18675349D02*
D03*
X18033975Y15057120D02*
D03*
X18669000Y14655800D02*
D03*
X18580099D02*
D03*
X18313400D02*
D03*
X18491200D02*
D03*
X18402299Y14262100D02*
D03*
X18313400Y14528799D02*
D03*
X18402299Y14389101D02*
D03*
X18745200Y14503400D02*
D03*
X18834100D02*
D03*
X18669000D02*
D03*
X18491200D02*
D03*
X18580099D02*
D03*
X19316701Y12242800D02*
D03*
X19164301D02*
D03*
X19037300Y12433300D02*
D03*
Y12357100D02*
D03*
Y12280900D02*
D03*
X19392900Y12242800D02*
D03*
X19240500D02*
D03*
X19088100D02*
D03*
X16291560Y14004626D02*
D03*
X16538608Y14224001D02*
D03*
X14776205Y5508290D02*
D03*
X13860983Y5429336D02*
D03*
X14001750Y5416822D02*
D03*
X14844901Y5510543D02*
D03*
X13939624Y5368079D02*
D03*
X14259438Y4536562D02*
D03*
X14262100Y5143500D02*
D03*
X14274800Y4610100D02*
D03*
X14262100Y4686300D02*
D03*
X13804700Y5458357D02*
D03*
X12746741Y4968358D02*
D03*
X12650711Y4261962D02*
D03*
X12650085Y4201480D02*
D03*
X12313582Y4597016D02*
D03*
X12482782Y4829051D02*
D03*
X12261091Y4565334D02*
D03*
X12549525Y4639803D02*
D03*
X12575331Y5007883D02*
D03*
X13119801Y5597695D02*
D03*
X13331709Y5719766D02*
D03*
X13364615Y5761747D02*
D03*
X14093794Y4311650D02*
D03*
X13391789Y4216712D02*
D03*
X13410951Y4160669D02*
D03*
X13204366Y4161311D02*
D03*
X13271387D02*
D03*
X12579447Y4719937D02*
D03*
X12582209Y4589165D02*
D03*
X12528365Y4974551D02*
D03*
X12698223Y4946196D02*
D03*
X12881729Y4201484D02*
D03*
X12882076Y4141866D02*
D03*
X12786911Y4726364D02*
D03*
X12910648Y5063735D02*
D03*
X12823483Y4924770D02*
D03*
X12871349Y4962167D02*
D03*
X12743040Y4696025D02*
D03*
X14166286Y4311322D02*
D03*
X12497783Y4886233D02*
D03*
X12623800Y4749800D02*
D03*
X10525001Y10300055D02*
D03*
X10325001D02*
D03*
X10025107Y10399904D02*
D03*
X9725147Y10200109D02*
D03*
X12958896Y5090752D02*
D03*
X6553418Y13697258D02*
D03*
X6622423Y13726859D02*
D03*
X6553418Y13765617D02*
D03*
Y13516515D02*
D03*
X6622423Y13665898D02*
D03*
Y13579538D02*
D03*
X6553418Y13579124D02*
D03*
X6622423Y13518578D02*
D03*
X13430029Y5685218D02*
D03*
X13472360Y5717373D02*
D03*
X13250858Y5555940D02*
D03*
X13289799Y5587999D02*
D03*
X13075121Y5563489D02*
D03*
X5695788Y10318625D02*
D03*
X5480595Y10325704D02*
D03*
X5602401Y10371003D02*
D03*
X5329351Y10317237D02*
D03*
X6247151Y9535116D02*
D03*
X6317502D02*
D03*
X6375005Y9536500D02*
D03*
X5548163Y9528799D02*
D03*
X5687490Y9541591D02*
D03*
X5424601Y9531001D02*
D03*
X6063135Y9545681D02*
D03*
X6132972Y9544594D02*
D03*
X10325100Y10900002D02*
D03*
X10425100Y10700002D02*
D03*
X10325100D02*
D03*
Y10800002D02*
D03*
X10125100D02*
D03*
X10225100D02*
D03*
X10325100Y10600002D02*
D03*
X10125100D02*
D03*
Y10500002D02*
D03*
X10225100Y10700002D02*
D03*
X10325100Y10500004D02*
D03*
X10225100Y10600280D02*
D03*
X10125100Y10700002D02*
D03*
X10525100Y12000002D02*
D03*
X9524901Y12000002D02*
D03*
X9724901D02*
D03*
X9324901D02*
D03*
X9224901D02*
D03*
X10225001Y12000102D02*
D03*
X10425100Y12000002D02*
D03*
X10125001Y12000102D02*
D03*
X10325001Y12000102D02*
D03*
X9624901Y12000002D02*
D03*
X9124901D02*
D03*
X10525100Y11900002D02*
D03*
X9125100D02*
D03*
X9724901D02*
D03*
X9524901D02*
D03*
X9924901D02*
D03*
X10625100D02*
D03*
X10125001Y11900102D02*
D03*
X9324901Y11900002D02*
D03*
X10225001Y11900102D02*
D03*
X9824901Y10700002D02*
D03*
X9724901Y10800002D02*
D03*
Y10700002D02*
D03*
Y10900002D02*
D03*
X9724885Y10600280D02*
D03*
X9824901Y10500005D02*
D03*
X9724885Y10500007D02*
D03*
X9725001Y10399903D02*
D03*
X9824901Y10900002D02*
D03*
Y10800002D02*
D03*
X9625162Y10900068D02*
D03*
X9824901Y10600280D02*
D03*
X9825001Y10399903D02*
D03*
X10125100Y10900002D02*
D03*
X10225100D02*
D03*
X10525100Y10600002D02*
D03*
X10625100Y10900002D02*
D03*
X9924901Y10700002D02*
D03*
X9925001Y10200002D02*
D03*
X9924901Y10600002D02*
D03*
Y11200002D02*
D03*
Y11100002D02*
D03*
X9925004Y10399886D02*
D03*
X9925001Y10100002D02*
D03*
X9924901Y10900002D02*
D03*
Y10800002D02*
D03*
Y10500005D02*
D03*
X10525100Y11500002D02*
D03*
X10427099Y11499999D02*
D03*
X10425100Y11800003D02*
D03*
X10425001Y11400102D02*
D03*
X10427099Y11599999D02*
D03*
X10425100Y11700000D02*
D03*
Y11200002D02*
D03*
X10725100Y11800003D02*
D03*
Y11200002D02*
D03*
X10525100Y11800001D02*
D03*
Y11700003D02*
D03*
X10625100Y11500002D02*
D03*
Y11800003D02*
D03*
X9724901Y11100002D02*
D03*
X9824901Y11200002D02*
D03*
Y11100002D02*
D03*
X9724901Y11200002D02*
D03*
X10125100Y11100002D02*
D03*
X10325100Y11200002D02*
D03*
X10125100D02*
D03*
X10325100Y11100002D02*
D03*
X10225100Y11200002D02*
D03*
Y11100002D02*
D03*
X10725100Y12200003D02*
D03*
X10625100D02*
D03*
Y12100002D02*
D03*
X9824901D02*
D03*
X10725100D02*
D03*
X9924901Y12200003D02*
D03*
X10425100D02*
D03*
X9824901D02*
D03*
X10425100Y12100000D02*
D03*
X10125001Y12100102D02*
D03*
X10525001Y9900002D02*
D03*
X10125100Y10000002D02*
D03*
X10325100Y10000006D02*
D03*
X10525100Y10000002D02*
D03*
X10625001D02*
D03*
X10125100Y9800002D02*
D03*
X10425100Y9900002D02*
D03*
X10325100D02*
D03*
X10725001D02*
D03*
X10525100Y9800002D02*
D03*
X10725100D02*
D03*
X10625100Y9900006D02*
D03*
X10725001Y10000002D02*
D03*
X10325100Y9800002D02*
D03*
X10225001Y12200102D02*
D03*
X9624902Y12299937D02*
D03*
X9224901Y12200003D02*
D03*
X9124901D02*
D03*
X9324901D02*
D03*
X9624902D02*
D03*
X9524901D02*
D03*
X9424901D02*
D03*
X9724901D02*
D03*
X10325001Y12200102D02*
D03*
X10325100Y10200002D02*
D03*
X10125100Y10400002D02*
D03*
X10225001Y10100002D02*
D03*
X10325100Y10100002D02*
D03*
X10225100Y10400002D02*
D03*
X10125100Y10100002D02*
D03*
X10425100Y10400002D02*
D03*
X10625001Y10200002D02*
D03*
X10225001D02*
D03*
X10425001D02*
D03*
X10725100Y10400002D02*
D03*
X10425100Y10300002D02*
D03*
X10625100D02*
D03*
X10725100Y10100002D02*
D03*
X9324901Y12100002D02*
D03*
X9724901Y12100002D02*
D03*
X9226034Y12100001D02*
D03*
X9624901Y12100002D02*
D03*
X9524901D02*
D03*
X9124901Y12100002D02*
D03*
X9825001Y10299903D02*
D03*
X9725001Y10100002D02*
D03*
X9725001Y10299903D02*
D03*
X9825001Y10200002D02*
D03*
Y10099903D02*
D03*
X6095001Y9720002D02*
D03*
X6175001Y9720001D02*
D03*
X5775001Y9720002D02*
D03*
X6015001D02*
D03*
X6255001D02*
D03*
X5935001D02*
D03*
X6335001D02*
D03*
X6015001Y9640002D02*
D03*
X5855001D02*
D03*
X5935001Y9800002D02*
D03*
X5855001D02*
D03*
X6175001Y9800000D02*
D03*
X6335001Y9800002D02*
D03*
X6095001D02*
D03*
X6015001D02*
D03*
X5775001Y10040002D02*
D03*
X5935001Y10040003D02*
D03*
X6175001Y10040002D02*
D03*
X6335001Y10120002D02*
D03*
X6095001Y10040002D02*
D03*
X2605201Y11030002D02*
D03*
Y11284002D02*
D03*
Y11538002D02*
D03*
X3506901Y9252002D02*
D03*
X3862501D02*
D03*
X3684701D02*
D03*
X3138601D02*
D03*
X2960801D02*
D03*
X2783001D02*
D03*
X4280330Y9264701D02*
D03*
Y9442501D02*
D03*
X4280201Y9353604D02*
D03*
X4280330Y9175547D02*
D03*
X5996101Y8998002D02*
D03*
X5805601D02*
D03*
X5894501Y8820202D02*
D03*
X5716701D02*
D03*
X5512748Y8651931D02*
D03*
X5690548D02*
D03*
X6554148Y8753531D02*
D03*
X6376348D02*
D03*
Y8982131D02*
D03*
X3684701Y11538002D02*
D03*
X3862501D02*
D03*
X2960801D02*
D03*
X2783001D02*
D03*
X4040301D02*
D03*
Y11792002D02*
D03*
X2783001Y9506002D02*
D03*
X6575001Y9640002D02*
D03*
X5855001Y9560002D02*
D03*
X6008801Y9379002D02*
D03*
X6059601Y9467902D02*
D03*
X6495001Y9640002D02*
D03*
X6415003Y9640005D02*
D03*
X5943600Y9118600D02*
D03*
Y9232900D02*
D03*
X5945301Y9467902D02*
D03*
X5881801Y9379002D02*
D03*
X5577001D02*
D03*
X5818301Y9467902D02*
D03*
X5513501Y9379002D02*
D03*
X2605201Y9506002D02*
D03*
Y9760002D02*
D03*
Y10776002D02*
D03*
Y9252002D02*
D03*
X8675101Y10750002D02*
D03*
X8825100Y11200006D02*
D03*
X8824901Y11400003D02*
D03*
X8825001Y10000002D02*
D03*
X8675101Y10350203D02*
D03*
X8605500Y10950005D02*
D03*
X8725001Y10599906D02*
D03*
X8825001Y10600002D02*
D03*
X8675101Y10450008D02*
D03*
X8825001Y10900002D02*
D03*
X6575001Y9720002D02*
D03*
X6495001Y10120002D02*
D03*
Y10280002D02*
D03*
X6575001D02*
D03*
X6495001Y9720002D02*
D03*
Y10200002D02*
D03*
X6575001Y9800000D02*
D03*
X9625001Y9799903D02*
D03*
X9725001Y9799904D02*
D03*
X9425001Y9799903D02*
D03*
X9025001D02*
D03*
X8725001Y9800002D02*
D03*
X8825096D02*
D03*
X9825001Y9799903D02*
D03*
X9025001Y9699903D02*
D03*
X8825100Y9700002D02*
D03*
X8925001Y9699903D02*
D03*
X9625001Y9699903D02*
D03*
X9725001Y9699903D02*
D03*
X5803900Y10871200D02*
D03*
X5935002Y10199997D02*
D03*
X5935001Y10120007D02*
D03*
X6175004Y10120008D02*
D03*
X6335001Y10200002D02*
D03*
X6055003Y10371003D02*
D03*
X5935005Y10280003D02*
D03*
X6215003Y10371003D02*
D03*
X6135002D02*
D03*
X5775006Y10280002D02*
D03*
X2783001Y10776002D02*
D03*
Y9760002D02*
D03*
Y11284002D02*
D03*
Y11030002D02*
D03*
X3138601Y10776002D02*
D03*
X2960801Y11030002D02*
D03*
Y11284002D02*
D03*
Y10776002D02*
D03*
X3684701D02*
D03*
X4040301Y11030002D02*
D03*
X3862501Y10776002D02*
D03*
Y11030002D02*
D03*
X3684701D02*
D03*
X3506901Y10776002D02*
D03*
Y9506002D02*
D03*
X4280330Y9531401D02*
D03*
X3684701Y9506002D02*
D03*
X3862501D02*
D03*
X3138601D02*
D03*
X4280330Y9620321D02*
D03*
X2960801Y9506002D02*
D03*
X5499100Y10896600D02*
D03*
X5372100Y10858500D02*
D03*
X5664200Y10896600D02*
D03*
X5372100Y10642600D02*
D03*
Y10756900D02*
D03*
X5600700D02*
D03*
X4040301Y11284002D02*
D03*
X3862501D02*
D03*
X3684701D02*
D03*
X5534226Y10039990D02*
D03*
X5614996Y10200002D02*
D03*
X5775001D02*
D03*
X5615001Y9720002D02*
D03*
X5695001Y10120002D02*
D03*
X5694996Y10039998D02*
D03*
X5695001Y10200005D02*
D03*
X5615001Y10120002D02*
D03*
X5775000Y10120008D02*
D03*
X5695001Y9720002D02*
D03*
X4280330Y10776001D02*
D03*
X9225003Y9899907D02*
D03*
X9425001Y9999903D02*
D03*
X9325001Y9899903D02*
D03*
X9225001Y9999903D02*
D03*
X9125100Y10300002D02*
D03*
X9325102Y10300006D02*
D03*
X9125100Y10200004D02*
D03*
X9425001Y10200002D02*
D03*
X9425100Y10300002D02*
D03*
X9625100Y11000003D02*
D03*
X9624901Y10700002D02*
D03*
X9625033Y11899435D02*
D03*
X9625001Y10199903D02*
D03*
X9625004Y9900252D02*
D03*
X9625006Y10300253D02*
D03*
X9625001Y10100002D02*
D03*
Y9999903D02*
D03*
X9625100Y10500002D02*
D03*
X9525097Y10900004D02*
D03*
X9425097Y10900003D02*
D03*
X9624997Y11100102D02*
D03*
X9525100Y11000003D02*
D03*
X9525001Y11200002D02*
D03*
Y10800002D02*
D03*
X9425100Y11000003D02*
D03*
X9425001Y10799903D02*
D03*
X9024901Y11300003D02*
D03*
Y11400003D02*
D03*
X9025100Y11100004D02*
D03*
X9024901Y11600002D02*
D03*
Y11800003D02*
D03*
X9125097Y11000004D02*
D03*
X9125100Y10800002D02*
D03*
Y10500002D02*
D03*
X9126376Y11300892D02*
D03*
X9125100Y10900002D02*
D03*
X9124901Y11200002D02*
D03*
X9225897Y10999207D02*
D03*
X9224901Y11800003D02*
D03*
Y11500002D02*
D03*
X9324901Y11200002D02*
D03*
X9224901Y11299998D02*
D03*
X9225096Y10400004D02*
D03*
X9325897Y10900004D02*
D03*
X9324700Y10800342D02*
D03*
X9225500Y10900803D02*
D03*
X9325491Y10700002D02*
D03*
X9325100Y11000003D02*
D03*
X9225100Y10700002D02*
D03*
X9325099Y10600002D02*
D03*
X9325100Y10500004D02*
D03*
X9324901Y11800003D02*
D03*
X8924795Y10900803D02*
D03*
X8925499Y10999207D02*
D03*
X9024701Y10800280D02*
D03*
X8925100Y11100006D02*
D03*
Y10700002D02*
D03*
X9025100Y10200002D02*
D03*
Y10400002D02*
D03*
X8924549Y9900002D02*
D03*
X8925093Y10300201D02*
D03*
X9025099Y10500007D02*
D03*
X8925102Y10000005D02*
D03*
X8925101Y10500003D02*
D03*
X8925001Y10600002D02*
D03*
X8925096Y10100153D02*
D03*
X10525100Y9700002D02*
D03*
X10725100D02*
D03*
X10925100Y11900002D02*
D03*
Y9700003D02*
D03*
X11025100Y11600002D02*
D03*
Y11400003D02*
D03*
X10925001Y11300102D02*
D03*
X11025001Y11800102D02*
D03*
X10925100Y11200002D02*
D03*
X11025100Y9700002D02*
D03*
X10925100Y9800002D02*
D03*
Y12100002D02*
D03*
Y12300003D02*
D03*
Y12200003D02*
D03*
X11125001Y12300102D02*
D03*
X10825100Y12100002D02*
D03*
X11325100Y9700002D02*
D03*
X11225100Y11200002D02*
D03*
X10825001Y12000102D02*
D03*
X10825100Y10500002D02*
D03*
Y11900002D02*
D03*
Y11500002D02*
D03*
Y11800003D02*
D03*
Y10200002D02*
D03*
X10425100Y12300002D02*
D03*
X9924901Y12300003D02*
D03*
X10725100D02*
D03*
X10625100D02*
D03*
X10825100Y12200003D02*
D03*
X9024901D02*
D03*
X9425032Y12300003D02*
D03*
X9024901D02*
D03*
X9724901D02*
D03*
X9324901D02*
D03*
X9224901Y12300001D02*
D03*
X10825100Y12300003D02*
D03*
X9824901Y12300903D02*
D03*
X11225100Y11600002D02*
D03*
X11325001Y12300102D02*
D03*
X11225001Y11800102D02*
D03*
X11225001Y12000102D02*
D03*
X11225100Y11400003D02*
D03*
X8825100Y12200002D02*
D03*
X8924901Y12200003D02*
D03*
X8824901Y11800003D02*
D03*
X8925100Y11900002D02*
D03*
X8824901Y11600002D02*
D03*
X9124901Y12300003D02*
D03*
X8924901D02*
D03*
X9524901D02*
D03*
X10925100Y9900005D02*
D03*
X10825100Y10000002D02*
D03*
X11225100Y10500002D02*
D03*
Y9900002D02*
D03*
Y10300002D02*
D03*
X11025100Y10400002D02*
D03*
Y10300002D02*
D03*
Y10100002D02*
D03*
X11225100Y10900002D02*
D03*
Y10100002D02*
D03*
X10825100Y10700002D02*
D03*
X11025100Y10900002D02*
D03*
X11225100Y10700002D02*
D03*
X10227099Y11499999D02*
D03*
X10324901Y11400000D02*
D03*
X10225100Y11300003D02*
D03*
X10325100D02*
D03*
X10125100D02*
D03*
Y11500001D02*
D03*
X10325100Y11800003D02*
D03*
X10225100D02*
D03*
X9524901D02*
D03*
X9624901D02*
D03*
X9924901Y11800002D02*
D03*
X9724901Y11800003D02*
D03*
X9824901Y11700003D02*
D03*
X9624901Y11700002D02*
D03*
X9724901Y11600002D02*
D03*
X9524901Y11500002D02*
D03*
X9424901D02*
D03*
X9624901Y11300003D02*
D03*
X9724901Y11300002D02*
D03*
X9924901D02*
D03*
X9824901D02*
D03*
X9724901Y11400003D02*
D03*
X9924901D02*
D03*
X10325100Y11700000D02*
D03*
X10125100Y11700003D02*
D03*
X10125001Y11600102D02*
D03*
X10225100Y11700003D02*
D03*
X10324899Y11599999D02*
D03*
X3138601Y9760002D02*
D03*
X2960801D02*
D03*
X3684701D02*
D03*
X4280330Y10331501D02*
D03*
Y10597947D02*
D03*
Y9798101D02*
D03*
Y9708947D02*
D03*
X4280330Y10509301D02*
D03*
X4280330Y9886747D02*
D03*
Y10420147D02*
D03*
Y10242855D02*
D03*
Y9975901D02*
D03*
Y10064547D02*
D03*
Y10153701D02*
D03*
X5456352Y9640002D02*
D03*
X5454999Y10120008D02*
D03*
X5375475Y10120480D02*
D03*
X5291943Y9636005D02*
D03*
X5454998Y9720002D02*
D03*
X5375001Y9640002D02*
D03*
X5375002Y10200004D02*
D03*
X5454998Y9800002D02*
D03*
X5454997Y10200004D02*
D03*
X5295002Y10200007D02*
D03*
X5374998Y9720003D02*
D03*
X3862501Y9760002D02*
D03*
X3506901D02*
D03*
X8663136Y17640366D02*
D03*
Y17504071D02*
D03*
X16642081Y18394679D02*
D03*
X16979900Y18737579D02*
D03*
X16891000Y18742661D02*
D03*
X16869511Y10575999D02*
D03*
X16878300Y10947400D02*
D03*
Y11049000D02*
D03*
X13975420Y4413250D02*
D03*
X14668500Y4267200D02*
D03*
X14770100Y4330700D02*
D03*
X15138400Y4318000D02*
D03*
Y4229100D02*
D03*
X15265401D02*
D03*
Y4318000D02*
D03*
X15392400Y4229100D02*
D03*
Y4318000D02*
D03*
X15519400D02*
D03*
Y4229100D02*
D03*
X15633701Y4318000D02*
D03*
Y4229100D02*
D03*
X16459200Y4279900D02*
D03*
Y4368800D02*
D03*
Y4457700D02*
D03*
X16548100Y4279900D02*
D03*
Y4368800D02*
D03*
Y4457700D02*
D03*
X16738600Y4279900D02*
D03*
Y4368800D02*
D03*
Y4457700D02*
D03*
X16827499Y4279900D02*
D03*
Y4368800D02*
D03*
Y4457700D02*
D03*
X16992599Y4279900D02*
D03*
Y4368800D02*
D03*
Y4457700D02*
D03*
X17081500Y4279900D02*
D03*
Y4368800D02*
D03*
Y4457700D02*
D03*
X13512801Y4991100D02*
D03*
X13970000Y5143500D02*
D03*
X15570200Y4470400D02*
D03*
X15659100D02*
D03*
X15824200Y5549900D02*
D03*
Y4914900D02*
D03*
X15925887Y5373385D02*
D03*
X15925888Y5106684D02*
D03*
X16281400Y5524500D02*
D03*
Y4912360D02*
D03*
Y4965700D02*
D03*
X16282463Y5580369D02*
D03*
X16992599Y4559300D02*
D03*
Y4648200D02*
D03*
Y4737100D02*
D03*
X17081500Y4559300D02*
D03*
Y4648200D02*
D03*
Y4737100D02*
D03*
X17373599Y4559300D02*
D03*
X17461230Y5600700D02*
D03*
X17514571D02*
D03*
X17602200Y4546600D02*
D03*
X17754601Y4737100D02*
D03*
Y4826000D02*
D03*
X17360899Y7467600D02*
D03*
Y7620000D02*
D03*
X18237199Y7607300D02*
D03*
Y7670800D02*
D03*
D100*
X16815366Y14083066D02*
D03*
X16915366D02*
D03*
X17015366D02*
D03*
Y14183066D02*
D03*
X16915366D02*
D03*
X16815366D02*
D03*
Y14283066D02*
D03*
X16915366D02*
D03*
X17015366D02*
D03*
X7792727Y15650806D02*
D03*
Y15550806D02*
D03*
Y15450806D02*
D03*
X7892727D02*
D03*
Y15550806D02*
D03*
Y15650806D02*
D03*
X7992727D02*
D03*
Y15550806D02*
D03*
Y15450806D02*
D03*
X15068103Y14146107D02*
D03*
X14968103D02*
D03*
X14868103D02*
D03*
Y14046107D02*
D03*
X14968103D02*
D03*
X15068103D02*
D03*
Y13946107D02*
D03*
X14968103D02*
D03*
X14868103D02*
D03*
D101*
X19227190Y11655758D02*
D03*
Y11733761D02*
D03*
Y11811759D02*
D03*
X19055186D02*
D03*
Y11733761D02*
D03*
Y11655758D02*
D03*
X6838622Y13686797D02*
D03*
X6896123Y13781798D02*
D03*
X6781122D02*
D03*
X6838622Y13876799D02*
D03*
X18028987Y14045331D02*
D03*
X18128987D02*
D03*
Y13845331D02*
D03*
X18228987D02*
D03*
Y14045331D02*
D03*
Y13945331D02*
D03*
X18128987D02*
D03*
X18028987Y13845331D02*
D03*
Y13945331D02*
D03*
X9788799Y14172484D02*
D03*
X9898801D02*
D03*
X10008798D02*
D03*
X10118801D02*
D03*
X10228803D02*
D03*
X9788799Y14062482D02*
D03*
X9898801D02*
D03*
X10008798D02*
D03*
X10118801D02*
D03*
X10228803D02*
D03*
X9788799Y13952486D02*
D03*
X9898801D02*
D03*
X10008798D02*
D03*
X10118801D02*
D03*
X10228803D02*
D03*
X9788799Y13842482D02*
D03*
X9898801D02*
D03*
X10008798D02*
D03*
X10118801D02*
D03*
X10228803D02*
D03*
X9788799Y13732480D02*
D03*
X9898801D02*
D03*
X10008798D02*
D03*
X10118801D02*
D03*
X10228803D02*
D03*
X16079628Y15872340D02*
D03*
Y15762338D02*
D03*
Y15652342D02*
D03*
Y15542339D02*
D03*
Y15432343D02*
D03*
X15969626Y15872340D02*
D03*
Y15762338D02*
D03*
Y15652342D02*
D03*
Y15542339D02*
D03*
Y15432343D02*
D03*
X15859628Y15872340D02*
D03*
Y15762338D02*
D03*
Y15652342D02*
D03*
Y15542339D02*
D03*
Y15432343D02*
D03*
X15749626Y15872340D02*
D03*
Y15762338D02*
D03*
Y15652342D02*
D03*
Y15542339D02*
D03*
Y15432343D02*
D03*
X15639629Y15872340D02*
D03*
Y15762338D02*
D03*
Y15652342D02*
D03*
Y15542339D02*
D03*
Y15432343D02*
D03*
X18077927Y15732741D02*
D03*
X18187927D02*
D03*
X18077927Y15622739D02*
D03*
X18187927D02*
D03*
X16550763Y17707283D02*
D03*
Y17817285D02*
D03*
Y17927283D02*
D03*
Y18037285D02*
D03*
Y18147282D02*
D03*
X16660767Y17707283D02*
D03*
Y17817285D02*
D03*
Y17927283D02*
D03*
Y18037285D02*
D03*
Y18147282D02*
D03*
X16770763Y17707283D02*
D03*
Y17817285D02*
D03*
Y17927283D02*
D03*
Y18037285D02*
D03*
Y18147282D02*
D03*
X16880765Y17707283D02*
D03*
Y17817285D02*
D03*
Y17927283D02*
D03*
Y18037285D02*
D03*
Y18147282D02*
D03*
X16990762Y17707283D02*
D03*
Y17817285D02*
D03*
Y17927283D02*
D03*
Y18037285D02*
D03*
Y18147282D02*
D03*
X17681702Y7941998D02*
D03*
X17791698D02*
D03*
X17901700D02*
D03*
X17681702Y7832001D02*
D03*
X17791698D02*
D03*
X17901700D02*
D03*
X17681702Y7721998D02*
D03*
X17791698D02*
D03*
X17901700D02*
D03*
X17681702Y7612001D02*
D03*
X17791698D02*
D03*
X17901700D02*
D03*
X17681702Y7501999D02*
D03*
X17791698D02*
D03*
X17901700D02*
D03*
X17681702Y7392001D02*
D03*
X17791698D02*
D03*
X17901700D02*
D03*
X17681702Y7281999D02*
D03*
X17791698D02*
D03*
X17901700D02*
D03*
X17681702Y7172002D02*
D03*
X17791698D02*
D03*
X17901700D02*
D03*
X17681702Y7062000D02*
D03*
X17791698D02*
D03*
X17901700D02*
D03*
D102*
X15939998Y10829999D02*
D03*
X15787598D02*
D03*
X15635197D02*
D03*
X16244798Y10677599D02*
D03*
X16168597Y10601399D02*
D03*
X16320998D02*
D03*
Y10753799D02*
D03*
Y10906199D02*
D03*
Y11058599D02*
D03*
X16244798Y10829999D02*
D03*
Y10982399D02*
D03*
X16168597Y10753799D02*
D03*
Y10906199D02*
D03*
Y11058599D02*
D03*
X16092398Y10677599D02*
D03*
Y10829999D02*
D03*
Y10982399D02*
D03*
X16016199Y10601399D02*
D03*
Y10753799D02*
D03*
Y10906199D02*
D03*
Y11058599D02*
D03*
X15939998Y10677599D02*
D03*
Y10982399D02*
D03*
X15863799Y10601399D02*
D03*
Y10753799D02*
D03*
Y10906199D02*
D03*
Y11058599D02*
D03*
X15787598Y10677599D02*
D03*
Y10982399D02*
D03*
X15711398Y10601399D02*
D03*
Y10753799D02*
D03*
Y10906199D02*
D03*
Y11058599D02*
D03*
X15635197Y10677599D02*
D03*
Y10982399D02*
D03*
X15558998Y11058599D02*
D03*
Y10906199D02*
D03*
Y10753799D02*
D03*
Y10601399D02*
D03*
D103*
X14082068Y6420264D02*
X14084763Y6417570D01*
X13818887Y6683445D02*
X14082068Y6420264D01*
X13818887Y6683445D02*
X13852591Y6717148D01*
X13811282Y6758457D02*
X13852591Y6717148D01*
X13777579Y6724754D02*
X13811282Y6758457D01*
X13736269Y6766063D02*
X13777579Y6724754D01*
X13736269Y6766063D02*
X13815791Y6845585D01*
X13774483Y6886894D02*
X13815791Y6845585D01*
X13694960Y6807372D02*
X13774483Y6886894D01*
X13653651Y6848682D02*
X13694960Y6807372D01*
X13653651Y6848682D02*
X13733173Y6928203D01*
X13691862Y6969512D02*
X13733173Y6928203D01*
X13612341Y6889991D02*
X13691862Y6969512D01*
X13571033Y6931300D02*
X13612341Y6889991D01*
X13571033Y6931300D02*
X13650554Y7010821D01*
X13609245Y7052131D02*
X13650554Y7010821D01*
X13529724Y6972609D02*
X13609245Y7052131D01*
X13488414Y7013918D02*
X13529724Y6972609D01*
X13488414Y7013918D02*
X13567937Y7093440D01*
X13526627Y7134749D02*
X13567937Y7093440D01*
X13447105Y7055227D02*
X13526627Y7134749D01*
X13405795Y7096536D02*
X13447105Y7055227D01*
X13405795Y7096536D02*
X13485318Y7176058D01*
X13444008Y7217367D02*
X13485318Y7176058D01*
X13364487Y7137846D02*
X13444008Y7217367D01*
X13323178Y7179155D02*
X13364487Y7137846D01*
X13323178Y7179155D02*
X13402699Y7258676D01*
X13361391Y7299986D02*
X13402699Y7258676D01*
X13281870Y7220464D02*
X13361391Y7299986D01*
X13240559Y7261773D02*
X13281870Y7220464D01*
X13240559Y7261773D02*
X13320081Y7341295D01*
X13278772Y7382604D02*
X13320081Y7341295D01*
X13199249Y7303082D02*
X13278772Y7382604D01*
X13157941Y7344392D02*
X13199249Y7303082D01*
X13157941Y7344392D02*
X13237462Y7423913D01*
X13196153Y7465222D02*
X13237462Y7423913D01*
X13116632Y7385701D02*
X13196153Y7465222D01*
X13075323Y7427010D02*
X13116632Y7385701D01*
X13075323Y7427010D02*
X13154845Y7506532D01*
X13113535Y7547841D02*
X13154845Y7506532D01*
X13034013Y7468319D02*
X13113535Y7547841D01*
X12992703Y7509628D02*
X13034013Y7468319D01*
X12992703Y7509628D02*
X13072226Y7589150D01*
X13030917Y7630459D02*
X13072226Y7589150D01*
X12951395Y7550937D02*
X13030917Y7630459D01*
X12910086Y7592247D02*
X12951395Y7550937D01*
X12910086Y7592247D02*
X12989607Y7671768D01*
X12948299Y7713078D02*
X12989607Y7671768D01*
X12868777Y7633556D02*
X12948299Y7713078D01*
X12827467Y7674865D02*
X12868777Y7633556D01*
X12827467Y7674865D02*
X12906989Y7754387D01*
X12865680Y7795696D02*
X12906989Y7754387D01*
X12786158Y7716174D02*
X12865680Y7795696D01*
X12744849Y7757483D02*
X12786158Y7716174D01*
X12744849Y7757483D02*
X12824371Y7837005D01*
X12783062Y7878314D02*
X12824371Y7837005D01*
X12703540Y7798793D02*
X12783062Y7878314D01*
X12662231Y7840102D02*
X12703540Y7798793D01*
X12662231Y7840102D02*
X12741753Y7919623D01*
X12700443Y7960933D02*
X12741753Y7919623D01*
X12620921Y7881411D02*
X12700443Y7960933D01*
X12620921Y7881411D02*
X12620921Y7881411D01*
X12618227Y7884106D02*
X12620921Y7881411D01*
X12605616Y7896716D02*
X12618227Y7884106D01*
X11785600Y9893300D02*
X12128500D01*
X12605616Y9416184D01*
X11753165Y9860865D02*
X11785600Y9893300D01*
X10979565Y9860865D02*
X11753165D01*
X12605616Y7896716D02*
Y9416184D01*
X14433177Y5456316D02*
Y5537691D01*
X14386476D02*
X14433177D01*
X14386476D02*
Y5596111D01*
X14485611D01*
Y5654531D01*
X14355710D02*
X14485611D01*
X14355710D02*
Y5712951D01*
X14485611D01*
Y5771371D01*
X14355710D02*
X14485611D01*
X14355710D02*
Y5829791D01*
X14485611D01*
Y5888211D01*
X14355710D02*
X14485611D01*
X14355710D02*
Y5946631D01*
X14411070D01*
Y6005051D01*
X14411070D01*
X14407259Y6008863D02*
X14411070Y6005051D01*
X12245595Y8170528D02*
X14407259Y6008863D01*
X14027150Y5368079D02*
X14041058D01*
Y5168900D02*
Y5368079D01*
Y5168900D02*
X14099478D01*
Y5511691D01*
X14157898D01*
Y5168900D02*
Y5511691D01*
Y5168900D02*
X14216318D01*
Y5537831D01*
X14274738D01*
Y5185410D02*
Y5537831D01*
Y5185410D02*
X14333157D01*
Y5368079D01*
X14336971D01*
X14344940D01*
X14776205Y5508290D02*
Y5726126D01*
X14084763Y6417570D02*
X14776205Y5726126D01*
X13932388Y5500741D02*
Y5541505D01*
X14093143D01*
Y5599925D01*
X13678387D02*
X14093143D01*
X13678387D02*
Y5658345D01*
X14186388D01*
Y5716765D01*
X13678387D02*
X14186388D01*
X13678387D02*
Y5775185D01*
X14186388D01*
Y5833605D01*
X13832906D02*
X14186388D01*
X13832906D02*
Y5892025D01*
X14186388D01*
Y5950445D01*
X13832906D02*
X14186388D01*
X13832906D02*
Y6008865D01*
X14186388D01*
Y6067285D01*
X13832906D02*
X14186388D01*
X13832906D02*
Y6125705D01*
X14186388D01*
Y6184125D01*
X13832906D02*
X14186388D01*
X13832906D02*
Y6242545D01*
X14072052D01*
Y6300965D01*
X13832906D02*
X14072052D01*
X13832906D02*
Y6359385D01*
X13955212D01*
Y6417805D01*
X13932388D02*
X13955212D01*
X13932388D02*
Y6421616D01*
Y6440629D01*
X13860983Y5429336D02*
X13932388Y5500741D01*
X14344940Y5368079D02*
X14433177Y5456316D01*
X13939624Y5368079D02*
X14027150D01*
X13493604Y6772136D02*
Y6810775D01*
X13467781Y6772136D02*
X13493604D01*
X13467781Y6713716D02*
Y6772136D01*
Y6713716D02*
X13616196D01*
Y6655296D02*
Y6713716D01*
X13425845Y6655296D02*
X13616196D01*
X13425845Y6596876D02*
Y6655296D01*
Y6596876D02*
X13733035D01*
Y6538456D02*
Y6596876D01*
X13425845Y6538456D02*
X13733035D01*
X13425845Y6480036D02*
Y6538456D01*
Y6480036D02*
X13802425D01*
Y6421616D02*
Y6480036D01*
X13425845Y6421616D02*
X13802425D01*
X13425845Y6363196D02*
Y6421616D01*
Y6363196D02*
X13802425D01*
Y6304776D02*
Y6363196D01*
X13425845Y6304776D02*
X13802425D01*
X13425845Y6246356D02*
Y6304776D01*
Y6246356D02*
X13802425D01*
Y6187936D02*
Y6246356D01*
X13425845Y6187936D02*
X13802425D01*
X13425845Y6129516D02*
Y6187936D01*
Y6129516D02*
X13802425D01*
Y6071096D02*
Y6129516D01*
X13425845Y6071096D02*
X13802425D01*
X13425845Y6012676D02*
Y6071096D01*
Y6012676D02*
X13802425D01*
Y5954256D02*
Y6012676D01*
X13425845Y5954256D02*
X13802425D01*
X13425845Y5895836D02*
Y5954256D01*
Y5895836D02*
X13802425D01*
Y5837416D02*
Y5895836D01*
X13425845Y5837416D02*
X13802425D01*
X13425845Y5778996D02*
Y5837416D01*
Y5778996D02*
X13493604D01*
Y5775185D02*
Y5778996D01*
Y5738616D02*
Y5775185D01*
X13472360Y5717373D02*
X13493604Y5738616D01*
X14534242Y4752099D02*
Y5924984D01*
X13493604Y6810775D02*
Y6836309D01*
X13453340Y6919677D02*
X13932388Y6440629D01*
X14150945Y4368800D02*
X14236700Y4454555D01*
X14093794Y4311650D02*
X14150945Y4368800D01*
X14236700Y4454555D02*
X14534242Y4752099D01*
X12497580Y7961648D02*
X14534242Y5924984D01*
X13166650Y7034270D02*
Y7097193D01*
Y7034270D02*
X13190640D01*
Y6975850D02*
Y7034270D01*
X13130075Y6975850D02*
X13190640D01*
X13130075Y6917430D02*
Y6975850D01*
Y6917430D02*
X13369377D01*
Y6859010D02*
Y6917430D01*
X13130075Y6859010D02*
X13369377D01*
X13130075Y6800590D02*
Y6859010D01*
Y6800590D02*
X13392786D01*
Y6742170D02*
Y6800590D01*
X13130075Y6742170D02*
X13392786D01*
X13130075Y6683750D02*
Y6742170D01*
Y6683750D02*
X13392786D01*
Y6625330D02*
Y6683750D01*
X13130075Y6625330D02*
X13392786D01*
X13130075Y6566910D02*
Y6625330D01*
Y6566910D02*
X13392786D01*
Y6508490D02*
Y6566910D01*
X13130075Y6508490D02*
X13392786D01*
X13130075Y6450070D02*
Y6508490D01*
Y6450070D02*
X13392786D01*
Y6391650D02*
Y6450070D01*
X13130075Y6391650D02*
X13392786D01*
X13130075Y6333230D02*
Y6391650D01*
Y6333230D02*
X13392786D01*
Y6274810D02*
Y6333230D01*
X13130075Y6274810D02*
X13392786D01*
X13130075Y6216390D02*
Y6274810D01*
Y6216390D02*
X13392786D01*
Y6157970D02*
Y6216390D01*
X13130075Y6157970D02*
X13392786D01*
X13130075Y6099550D02*
Y6157970D01*
Y6099550D02*
X13392786D01*
Y6041130D02*
Y6099550D01*
X13130075Y6041130D02*
X13392786D01*
X13130075Y5982710D02*
Y6041130D01*
Y5982710D02*
X13392786D01*
Y5924290D02*
Y5982710D01*
X13130075Y5924290D02*
X13392786D01*
X13130075Y5865870D02*
Y5924290D01*
Y5865870D02*
X13392786D01*
Y5807450D02*
Y5865870D01*
X13130075Y5807450D02*
X13392786D01*
X13130075Y5749030D02*
Y5807450D01*
Y5749030D02*
X13166650D01*
Y5745219D02*
Y5749030D01*
Y7097193D02*
Y7120156D01*
Y5711148D02*
Y5745219D01*
X10695774Y9634138D02*
X13493604Y6836309D01*
X13005727Y7097193D02*
Y7201313D01*
X12917468Y7097193D02*
X13005727D01*
X12917468Y7038773D02*
Y7097193D01*
Y7038773D02*
X13099596D01*
Y6980353D02*
Y7038773D01*
X12908768Y6980353D02*
X13099596D01*
X12908768Y6921933D02*
Y6980353D01*
Y6921933D02*
X13099596D01*
Y6863513D02*
Y6921933D01*
X12908768Y6863513D02*
X13099596D01*
X12908768Y6805093D02*
Y6863513D01*
Y6805093D02*
X13099596D01*
Y6746673D02*
Y6805093D01*
X12908768Y6746673D02*
X13099596D01*
X12908768Y6688253D02*
Y6746673D01*
Y6688253D02*
X13099596D01*
Y6629833D02*
Y6688253D01*
X12908768Y6629833D02*
X13099596D01*
X12908768Y6571413D02*
Y6629833D01*
Y6571413D02*
X13099596D01*
Y6512993D02*
Y6571413D01*
X12908768Y6512993D02*
X13099596D01*
X12908768Y6454573D02*
Y6512993D01*
Y6454573D02*
X13099596D01*
Y6396153D02*
Y6454573D01*
X12908768Y6396153D02*
X13099596D01*
X12908768Y6337733D02*
Y6396153D01*
Y6337733D02*
X13099596D01*
Y6279313D02*
Y6337733D01*
X12908768Y6279313D02*
X13099596D01*
X12908768Y6220893D02*
Y6279313D01*
Y6220893D02*
X13099596D01*
Y6162473D02*
Y6220893D01*
X12908768Y6162473D02*
X13099596D01*
X12908768Y6104053D02*
Y6162473D01*
Y6104053D02*
X13099596D01*
Y6045633D02*
Y6104053D01*
X12908768Y6045633D02*
X13099596D01*
X12908768Y5987213D02*
Y6045633D01*
Y5987213D02*
X13099596D01*
Y5928793D02*
Y5987213D01*
X12908768Y5928793D02*
X13099596D01*
X12908768Y5870373D02*
Y5928793D01*
Y5870373D02*
X13099596D01*
Y5811953D02*
Y5870373D01*
X12908768Y5811953D02*
X13099596D01*
X12908768Y5753533D02*
Y5811953D01*
Y5753533D02*
X13099596D01*
Y5695113D02*
Y5753533D01*
X12908768Y5695113D02*
X13099596D01*
X12908768Y5636693D02*
Y5695113D01*
Y5636693D02*
X13005727D01*
Y5632882D02*
Y5636693D01*
Y7201313D02*
Y7207457D01*
X12849319Y7204125D02*
Y7240929D01*
X12844418Y7204125D02*
X12849319D01*
X12844418Y7145705D02*
Y7204125D01*
Y7145705D02*
X12878288D01*
Y7087285D02*
Y7145705D01*
X12743079Y7087285D02*
X12878288D01*
X12743079Y7028865D02*
Y7087285D01*
Y7028865D02*
X12878288D01*
Y6970445D02*
Y7028865D01*
X12743079Y6970445D02*
X12878288D01*
X12743079Y6912025D02*
Y6970445D01*
Y6912025D02*
X12878288D01*
Y6853605D02*
Y6912025D01*
X12743079Y6853605D02*
X12878288D01*
X12743079Y6795185D02*
Y6853605D01*
Y6795185D02*
X12878288D01*
Y6736765D02*
Y6795185D01*
X12743079Y6736765D02*
X12878288D01*
X12743079Y6678345D02*
Y6736765D01*
Y6678345D02*
X12878288D01*
Y6619925D02*
Y6678345D01*
X12743079Y6619925D02*
X12878288D01*
X12743079Y6561505D02*
Y6619925D01*
Y6561505D02*
X12878288D01*
Y6503085D02*
Y6561505D01*
X12743079Y6503085D02*
X12878288D01*
X12743079Y6444665D02*
Y6503085D01*
Y6444665D02*
X12878288D01*
Y6386245D02*
Y6444665D01*
X12743079Y6386245D02*
X12878288D01*
X12743079Y6327825D02*
Y6386245D01*
Y6327825D02*
X12878288D01*
Y6269405D02*
Y6327825D01*
X12743079Y6269405D02*
X12878288D01*
X12743079Y6210985D02*
Y6269405D01*
Y6210985D02*
X12878288D01*
Y6152565D02*
Y6210985D01*
X12743079Y6152565D02*
X12878288D01*
X12743079Y6094145D02*
Y6152565D01*
Y6094145D02*
X12878288D01*
Y6035725D02*
Y6094145D01*
X12743079Y6035725D02*
X12878288D01*
X12743079Y5977305D02*
Y6035725D01*
Y5977305D02*
X12878288D01*
Y5918885D02*
Y5977305D01*
X12743079Y5918885D02*
X12878288D01*
X12743079Y5860465D02*
Y5918885D01*
Y5860465D02*
X12878288D01*
Y5802045D02*
Y5860465D01*
X12743079Y5802045D02*
X12878288D01*
X12743079Y5743625D02*
Y5802045D01*
Y5743625D02*
X12878288D01*
Y5685205D02*
Y5743625D01*
X12743079Y5685205D02*
X12878288D01*
X12743079Y5626785D02*
Y5685205D01*
Y5626785D02*
X12878288D01*
Y5568365D02*
Y5626785D01*
X12743079Y5568365D02*
X12878288D01*
X12743079Y5509945D02*
Y5568365D01*
Y5509945D02*
X12878288D01*
Y5451525D02*
Y5509945D01*
X12743079Y5451525D02*
X12878288D01*
X12743079Y5393105D02*
Y5451525D01*
Y5393105D02*
X12878288D01*
Y5334685D02*
Y5393105D01*
X12743079Y5334685D02*
X12878288D01*
X12743079Y5276265D02*
Y5334685D01*
Y5276265D02*
X12849319D01*
Y5272454D02*
Y5276265D01*
Y7240929D02*
Y7320760D01*
Y5125064D02*
Y5272454D01*
X10678069Y9608738D02*
X13166650Y7120156D01*
Y5711148D02*
X13289799Y5587999D01*
X10575102Y9719844D02*
X10660807Y9634138D01*
X10575102Y9719844D02*
Y9850007D01*
X10625100Y9900006D01*
X10848015Y9525002D02*
X13453340Y6919677D01*
X12242900Y8173222D02*
X12245595Y8170527D01*
X12213115Y8203007D02*
X12242900Y8173222D01*
X12213115Y8203007D02*
X12299708Y8289601D01*
X12258399Y8330910D02*
X12299708Y8289601D01*
X12171806Y8244317D02*
X12258399Y8330910D01*
X12130496Y8285626D02*
X12171806Y8244317D01*
X12130496Y8285626D02*
X12217090Y8372219D01*
X12175781Y8413529D02*
X12217090Y8372219D01*
X12089187Y8326935D02*
X12175781Y8413529D01*
X12047878Y8368244D02*
X12089187Y8326935D01*
X12047878Y8368244D02*
X12134472Y8454838D01*
X12093163Y8496147D02*
X12134472Y8454838D01*
X12006569Y8409553D02*
X12093163Y8496147D01*
X11965260Y8450863D02*
X12006569Y8409553D01*
X11965260Y8450863D02*
X12051853Y8537456D01*
X12010544Y8578765D02*
X12051853Y8537456D01*
X11923950Y8492172D02*
X12010544Y8578765D01*
X11882641Y8533481D02*
X11923950Y8492172D01*
X11882641Y8533481D02*
X11969235Y8620074D01*
X11927926Y8661384D02*
X11969235Y8620074D01*
X11841332Y8574790D02*
X11927926Y8661384D01*
X11800023Y8616099D02*
X11841332Y8574790D01*
X11800023Y8616099D02*
X11886617Y8702693D01*
X11845307Y8744002D02*
X11886617Y8702693D01*
X11758714Y8657409D02*
X11845307Y8744002D01*
X11717405Y8698718D02*
X11758714Y8657409D01*
X11717405Y8698718D02*
X11803998Y8785311D01*
X11762689Y8826620D02*
X11803998Y8785311D01*
X11676095Y8740027D02*
X11762689Y8826620D01*
X11676095Y8740027D02*
X11676095Y8740027D01*
X11673401Y8742722D02*
X11676095Y8740027D01*
X11063257Y9352865D02*
X11673401Y8742722D01*
X12689157Y7336160D02*
Y7394452D01*
Y7336160D02*
X12703437D01*
Y7277740D02*
Y7336160D01*
X12601976Y7277740D02*
X12703437D01*
X12601976Y7219320D02*
Y7277740D01*
Y7219320D02*
X12706738D01*
Y7160900D02*
Y7219320D01*
X12601976Y7160900D02*
X12706738D01*
X12601976Y7102480D02*
Y7160900D01*
Y7102480D02*
X12706738D01*
Y7044060D02*
Y7102480D01*
X12601976Y7044060D02*
X12706738D01*
X12601976Y6985640D02*
Y7044060D01*
Y6985640D02*
X12706738D01*
Y6927220D02*
Y6985640D01*
X12601976Y6927220D02*
X12706738D01*
X12601976Y6868800D02*
Y6927220D01*
Y6868800D02*
X12706738D01*
Y6810380D02*
Y6868800D01*
X12601976Y6810380D02*
X12706738D01*
X12601976Y6751960D02*
Y6810380D01*
Y6751960D02*
X12706738D01*
Y6693540D02*
Y6751960D01*
X12601976Y6693540D02*
X12706738D01*
X12601976Y6635120D02*
Y6693540D01*
Y6635120D02*
X12706738D01*
Y6576700D02*
Y6635120D01*
X12601976Y6576700D02*
X12706738D01*
X12601976Y6518280D02*
Y6576700D01*
Y6518280D02*
X12706738D01*
Y6459860D02*
Y6518280D01*
X12601976Y6459860D02*
X12706738D01*
X12601976Y6401440D02*
Y6459860D01*
Y6401440D02*
X12706738D01*
Y6343020D02*
Y6401440D01*
X12601976Y6343020D02*
X12706738D01*
X12601976Y6284600D02*
Y6343020D01*
Y6284600D02*
X12706738D01*
Y6226180D02*
Y6284600D01*
X12601976Y6226180D02*
X12706738D01*
X12601976Y6167760D02*
Y6226180D01*
Y6167760D02*
X12706738D01*
Y6109340D02*
Y6167760D01*
X12601976Y6109340D02*
X12706738D01*
X12601976Y6050920D02*
Y6109340D01*
Y6050920D02*
X12706738D01*
Y5992500D02*
Y6050920D01*
X12601976Y5992500D02*
X12706738D01*
X12601976Y5934080D02*
Y5992500D01*
Y5934080D02*
X12706738D01*
Y5875660D02*
Y5934080D01*
X12601976Y5875660D02*
X12706738D01*
X12601976Y5817240D02*
Y5875660D01*
Y5817240D02*
X12706738D01*
Y5758820D02*
Y5817240D01*
X12601976Y5758820D02*
X12706738D01*
X12601976Y5700400D02*
Y5758820D01*
Y5700400D02*
X12706738D01*
Y5641980D02*
Y5700400D01*
X12601976Y5641980D02*
X12706738D01*
X12601976Y5583560D02*
Y5641980D01*
Y5583560D02*
X12706738D01*
Y5525140D02*
Y5583560D01*
X12601976Y5525140D02*
X12706738D01*
X12601976Y5466720D02*
Y5525140D01*
Y5466720D02*
X12706738D01*
Y5408300D02*
Y5466720D01*
X12601976Y5408300D02*
X12706738D01*
X12601976Y5349880D02*
Y5408300D01*
Y5349880D02*
X12706738D01*
Y5291460D02*
Y5349880D01*
X12601976Y5291460D02*
X12706738D01*
X12601976Y5233040D02*
Y5291460D01*
Y5233040D02*
X12706738D01*
Y5174620D02*
Y5233040D01*
X12601976Y5174620D02*
X12706738D01*
X12601976Y5116200D02*
Y5174620D01*
Y5116200D02*
X12689157D01*
Y5112389D02*
Y5116200D01*
Y7394452D02*
Y7430711D01*
Y5085211D02*
Y5112389D01*
X10776561Y9343307D02*
X12689157Y7430711D01*
X12532030Y7519352D02*
Y7531205D01*
X12492595Y7519352D02*
X12532030D01*
X12492595Y7460932D02*
Y7519352D01*
Y7460932D02*
X12550110D01*
Y7402512D02*
Y7460932D01*
X12458695Y7402512D02*
X12550110D01*
X12458695Y7344092D02*
Y7402512D01*
Y7344092D02*
X12550110D01*
Y7285672D02*
Y7344092D01*
X12458695Y7285672D02*
X12550110D01*
X12458695Y7227252D02*
Y7285672D01*
Y7227252D02*
X12550110D01*
Y7168832D02*
Y7227252D01*
X12458695Y7168832D02*
X12550110D01*
X12458695Y7110412D02*
Y7168832D01*
Y7110412D02*
X12550110D01*
Y7051992D02*
Y7110412D01*
X12458695Y7051992D02*
X12550110D01*
X12458695Y6993572D02*
Y7051992D01*
Y6993572D02*
X12550110D01*
Y6935152D02*
Y6993572D01*
X12458695Y6935152D02*
X12550110D01*
X12458695Y6876732D02*
Y6935152D01*
Y6876732D02*
X12550110D01*
Y6818312D02*
Y6876732D01*
X12458695Y6818312D02*
X12550110D01*
X12458695Y6759892D02*
Y6818312D01*
Y6759892D02*
X12550110D01*
Y6701472D02*
Y6759892D01*
X12458695Y6701472D02*
X12550110D01*
X12458695Y6643052D02*
Y6701472D01*
Y6643052D02*
X12550110D01*
Y6584632D02*
Y6643052D01*
X12458695Y6584632D02*
X12550110D01*
X12458695Y6526212D02*
Y6584632D01*
Y6526212D02*
X12550110D01*
Y6467792D02*
Y6526212D01*
X12458695Y6467792D02*
X12550110D01*
X12458695Y6409372D02*
Y6467792D01*
Y6409372D02*
X12550110D01*
Y6350952D02*
Y6409372D01*
X12458695Y6350952D02*
X12550110D01*
X12458695Y6292532D02*
Y6350952D01*
Y6292532D02*
X12550110D01*
Y6234112D02*
Y6292532D01*
X12458695Y6234112D02*
X12550110D01*
X12458695Y6175692D02*
Y6234112D01*
Y6175692D02*
X12550110D01*
Y6117272D02*
Y6175692D01*
X12458695Y6117272D02*
X12550110D01*
X12458695Y6058852D02*
Y6117272D01*
Y6058852D02*
X12550110D01*
Y6000432D02*
Y6058852D01*
X12458695Y6000432D02*
X12550110D01*
X12458695Y5942012D02*
Y6000432D01*
Y5942012D02*
X12550110D01*
Y5883592D02*
Y5942012D01*
X12458695Y5883592D02*
X12550110D01*
X12458695Y5825172D02*
Y5883592D01*
Y5825172D02*
X12550110D01*
Y5766752D02*
Y5825172D01*
X12458695Y5766752D02*
X12550110D01*
X12458695Y5708332D02*
Y5766752D01*
Y5708332D02*
X12550110D01*
Y5649912D02*
Y5708332D01*
X12458695Y5649912D02*
X12550110D01*
X12458695Y5591492D02*
Y5649912D01*
Y5591492D02*
X12550110D01*
Y5533072D02*
Y5591492D01*
X12458695Y5533072D02*
X12550110D01*
X12458695Y5474652D02*
Y5533072D01*
Y5474652D02*
X12550110D01*
Y5416232D02*
Y5474652D01*
X12458695Y5416232D02*
X12550110D01*
X12458695Y5357812D02*
Y5416232D01*
Y5357812D02*
X12550110D01*
Y5299392D02*
Y5357812D01*
X12458695Y5299392D02*
X12550110D01*
X12458695Y5240972D02*
Y5299392D01*
Y5240972D02*
X12550110D01*
Y5182552D02*
Y5240972D01*
X12458695Y5182552D02*
X12550110D01*
X12458695Y5124132D02*
Y5182552D01*
Y5124132D02*
X12532030D01*
Y5120321D02*
Y5124132D01*
Y5112389D02*
Y5120321D01*
Y7531205D02*
Y7544733D01*
Y5112389D02*
X12698223Y4946196D01*
X12379782Y7223904D02*
Y7544733D01*
X12275891Y7223904D02*
X12379782D01*
X12275891Y7165484D02*
Y7223904D01*
Y7165484D02*
X12394973D01*
Y7107064D02*
Y7165484D01*
X12270067Y7107064D02*
X12394973D01*
X12270067Y7048644D02*
Y7107064D01*
Y7048644D02*
X12394973D01*
Y6990224D02*
Y7048644D01*
X12270067Y6990224D02*
X12394973D01*
X12270067Y6931804D02*
Y6990224D01*
Y6931804D02*
X12394973D01*
Y6873384D02*
Y6931804D01*
X12270067Y6873384D02*
X12394973D01*
X12270067Y6814964D02*
Y6873384D01*
Y6814964D02*
X12394973D01*
Y6756544D02*
Y6814964D01*
X12270067Y6756544D02*
X12394973D01*
X12270067Y6698124D02*
Y6756544D01*
Y6698124D02*
X12394973D01*
Y6639704D02*
Y6698124D01*
X12270067Y6639704D02*
X12394973D01*
X12270067Y6581284D02*
Y6639704D01*
Y6581284D02*
X12394973D01*
Y6522864D02*
Y6581284D01*
X12270067Y6522864D02*
X12394973D01*
X12270067Y6464444D02*
Y6522864D01*
Y6464444D02*
X12394973D01*
Y6406024D02*
Y6464444D01*
X12270067Y6406024D02*
X12394973D01*
X12270067Y6347604D02*
Y6406024D01*
Y6347604D02*
X12394973D01*
Y6289184D02*
Y6347604D01*
X12270067Y6289184D02*
X12394973D01*
X12270067Y6230764D02*
Y6289184D01*
Y6230764D02*
X12394973D01*
Y6172344D02*
Y6230764D01*
X12270067Y6172344D02*
X12394973D01*
X12270067Y6113924D02*
Y6172344D01*
Y6113924D02*
X12394973D01*
Y6055504D02*
Y6113924D01*
X12270067Y6055504D02*
X12394973D01*
X12270067Y5997084D02*
Y6055504D01*
Y5997084D02*
X12394973D01*
Y5938664D02*
Y5997084D01*
X12270067Y5938664D02*
X12394973D01*
X12270067Y5880244D02*
Y5938664D01*
Y5880244D02*
X12394973D01*
Y5821824D02*
Y5880244D01*
X12270067Y5821824D02*
X12394973D01*
X12270067Y5763404D02*
Y5821824D01*
Y5763404D02*
X12394973D01*
Y5704984D02*
Y5763404D01*
X12270067Y5704984D02*
X12394973D01*
X12270067Y5646564D02*
Y5704984D01*
Y5646564D02*
X12379782D01*
Y5642753D02*
Y5646564D01*
Y7544733D02*
Y7653876D01*
Y5123133D02*
Y5642753D01*
Y5123133D02*
X12528365Y4974551D01*
X12497580Y8052634D02*
Y8109455D01*
X12443405D02*
X12497580D01*
X12443405D02*
Y8167875D01*
X12502972D01*
Y8226295D01*
X12372690D02*
X12502972D01*
X12372690D02*
Y8284715D01*
X12502972D01*
Y8343135D01*
X12372690D02*
X12502972D01*
X12372690D02*
Y8401555D01*
X12502972D01*
Y8459975D01*
X12372690D02*
X12502972D01*
X12372690D02*
Y8518395D01*
X12502972D01*
Y8576815D01*
X12372690D02*
X12502972D01*
X12372690D02*
Y8635235D01*
X12502972D01*
Y8693655D01*
X12372690D02*
X12502972D01*
X12372690D02*
Y8752075D01*
X12502972D01*
Y8810495D01*
X12372690D02*
X12502972D01*
X12372690D02*
Y8868915D01*
X12502972D01*
Y8927335D01*
X12372690D02*
X12502972D01*
X12372690D02*
Y8985755D01*
X12502972D01*
Y9044175D01*
X12372690D02*
X12502972D01*
X12372690D02*
Y9102595D01*
X12502972D01*
Y9161015D01*
X12372690D02*
X12502972D01*
X12372690D02*
Y9219435D01*
X12502972D01*
Y9277855D01*
X12497580D02*
X12502972D01*
X12497580D02*
Y9281666D01*
Y7961648D02*
Y8052634D01*
X12040584Y9750002D02*
X12497580Y9293007D01*
Y9281666D02*
Y9293007D01*
X10675102Y9697916D02*
X10848015Y9525002D01*
X10909587Y9303597D02*
X13005727Y7207457D01*
Y5632882D02*
X13075121Y5563489D01*
X10859967Y9310112D02*
X12849319Y7320760D01*
Y5125064D02*
X12910648Y5063735D01*
X12689157Y5085211D02*
X12788651Y4985717D01*
Y4959603D02*
Y4985717D01*
Y4959603D02*
X12823483Y4924770D01*
X10746081Y9330682D02*
X12532030Y7544733D01*
X10695440Y9338218D02*
X12379782Y7653876D01*
X9223091Y6136636D02*
X11217861Y4141866D01*
X10311791Y5206128D02*
X10314486Y5203434D01*
X10433123Y5084796D01*
X10441181Y5092854D01*
X10482490Y5051545D01*
X10449210Y5018264D02*
X10482490Y5051545D01*
X10449210Y5018264D02*
X10490519Y4976955D01*
X10543555Y5029991D01*
X10584865Y4988682D01*
X10531828Y4935646D02*
X10584865Y4988682D01*
X10531828Y4935646D02*
X10573137Y4894337D01*
X10626174Y4947373D01*
X10667483Y4906064D01*
X10614446Y4853027D02*
X10667483Y4906064D01*
X10614446Y4853027D02*
X10655755Y4811718D01*
X10708792Y4864755D01*
X10750101Y4823446D01*
X10697065Y4770409D02*
X10750101Y4823446D01*
X10697065Y4770409D02*
X10738374Y4729100D01*
X10791410Y4782136D01*
X10832720Y4740827D01*
X10779683Y4687791D02*
X10832720Y4740827D01*
X10779683Y4687791D02*
X10820992Y4646481D01*
X10874029Y4699518D01*
X10915338Y4658209D01*
X10862301Y4605172D02*
X10915338Y4658209D01*
X10862301Y4605172D02*
X10903611Y4563863D01*
X10956647Y4616900D01*
X10997956Y4575591D01*
X10944920Y4522554D02*
X10997956Y4575591D01*
X10944920Y4522554D02*
X10986229Y4481245D01*
X11039265Y4534281D01*
X11080574Y4492972D01*
X11027538Y4439936D02*
X11080574Y4492972D01*
X11027538Y4439936D02*
X11068847Y4398626D01*
X11094070Y4423849D01*
X11094071Y4423848D01*
Y4423848D02*
X11096765Y4421154D01*
X9263093Y6254826D02*
X10311792Y5206128D01*
X11096765Y4421154D02*
X11143779Y4374141D01*
X10431526Y5260350D02*
X10434220Y5257656D01*
X10438305Y5253571D01*
X10432171Y5247437D02*
X10438305Y5253571D01*
X10432171Y5247437D02*
X10473480Y5206128D01*
X10500291Y5232939D01*
X10541600Y5191630D01*
X10496544Y5146573D02*
X10541600Y5191630D01*
X10496544Y5146573D02*
X10537853Y5105264D01*
X10582909Y5150320D01*
X10624219Y5109011D01*
X10579162Y5063955D02*
X10624219Y5109011D01*
X10579162Y5063955D02*
X10620471Y5022646D01*
X10665528Y5067702D01*
X10706837Y5026393D01*
X10661781Y4981336D02*
X10706837Y5026393D01*
X10661781Y4981336D02*
X10703090Y4940027D01*
X10748146Y4985084D01*
X10789455Y4943774D01*
X10744399Y4898718D02*
X10789455Y4943774D01*
X10744399Y4898718D02*
X10785708Y4857409D01*
X10830764Y4902465D01*
X10872074Y4861156D01*
X10827017Y4816100D02*
X10872074Y4861156D01*
X10827017Y4816100D02*
X10868326Y4774791D01*
X10913383Y4819847D01*
X10954692Y4778538D01*
X10909636Y4733482D02*
X10954692Y4778538D01*
X10909636Y4733482D02*
X10950945Y4692172D01*
X10996001Y4737229D01*
X11037310Y4695919D01*
X10992254Y4650863D02*
X11037310Y4695919D01*
X10992254Y4650863D02*
X11033563Y4609554D01*
X11078619Y4654610D01*
X11119928Y4613301D01*
X11074872Y4568245D02*
X11119928Y4613301D01*
X11074872Y4568245D02*
X11116181Y4526936D01*
X11161238Y4571992D01*
X11202547Y4530683D01*
X11157491Y4485627D02*
X11202547Y4530683D01*
X11157491Y4485627D02*
X11198800Y4444317D01*
X11223179Y4468697D01*
X11223180Y4468696D01*
Y4468696D02*
X11225874Y4466002D01*
X10402717Y5289159D02*
X10431526Y5260350D01*
X11225874Y4466002D02*
X11286405Y4405472D01*
X10525690Y5390745D02*
X10528384Y5388051D01*
X10596706Y5319729D01*
X10596509Y5319532D02*
X10596706Y5319729D01*
X10596509Y5319532D02*
X10637819Y5278223D01*
X10679453Y5319857D01*
X10720762Y5278548D01*
X10660786Y5218572D02*
X10720762Y5278548D01*
X10660786Y5218572D02*
X10702095Y5177263D01*
X10762071Y5237239D01*
X10803380Y5195929D01*
X10743404Y5135954D02*
X10803380Y5195929D01*
X10743404Y5135954D02*
X10784714Y5094645D01*
X10844689Y5154620D01*
X10885999Y5113311D01*
X10826023Y5053335D02*
X10885999Y5113311D01*
X10826023Y5053335D02*
X10867332Y5012026D01*
X10927308Y5072002D01*
X10968617Y5030693D01*
X10908641Y4970717D02*
X10968617Y5030693D01*
X10908641Y4970717D02*
X10949950Y4929408D01*
X11009926Y4989384D01*
X11051235Y4948074D01*
X10991259Y4888099D02*
X11051235Y4948074D01*
X10991259Y4888099D02*
X11032568Y4846790D01*
X11092544Y4906765D01*
X11133854Y4865456D01*
X11073878Y4805480D02*
X11133854Y4865456D01*
X11073878Y4805480D02*
X11115187Y4764171D01*
X11175163Y4824147D01*
X11216472Y4782838D01*
X11156496Y4722862D02*
X11216472Y4782838D01*
X11156496Y4722862D02*
X11197805Y4681553D01*
X11257781Y4741528D01*
X11299090Y4700219D01*
X11239114Y4640244D02*
X11299090Y4700219D01*
X11239114Y4640244D02*
X11280424Y4598934D01*
X11340399Y4658910D01*
X11381709Y4617601D01*
X11321733Y4557625D02*
X11381709Y4617601D01*
X11321733Y4557625D02*
X11363042Y4516316D01*
X11381580Y4534855D01*
X11381582Y4534854D01*
Y4534854D02*
X11384276Y4532160D01*
X10472232Y5444203D02*
X10525690Y5390745D01*
X11384276Y4532160D02*
X11411090Y4505345D01*
X10724616Y5513934D02*
X10727310Y5511240D01*
X10823008Y5415542D01*
X10882215Y5474749D01*
X10923524Y5433439D01*
X10850988Y5360904D02*
X10923524Y5433439D01*
X10850988Y5360904D02*
X10892297Y5319594D01*
X10967532Y5394829D01*
X11008841Y5353519D01*
X10933607Y5278285D02*
X11008841Y5353519D01*
X10933607Y5278285D02*
X10974916Y5236976D01*
X11050150Y5312210D01*
X11091459Y5270901D01*
X11016225Y5195667D02*
X11091459Y5270901D01*
X11016225Y5195667D02*
X11057534Y5154358D01*
X11132768Y5229592D01*
X11174077Y5188283D01*
X11098843Y5113048D02*
X11174077Y5188283D01*
X11098843Y5113048D02*
X11140152Y5071739D01*
X11215387Y5146974D01*
X11256696Y5105664D01*
X11181462Y5030430D02*
X11256696Y5105664D01*
X11181462Y5030430D02*
X11222771Y4989121D01*
X11298005Y5064355D01*
X11339314Y5023046D01*
X11264080Y4947812D02*
X11339314Y5023046D01*
X11264080Y4947812D02*
X11305389Y4906503D01*
X11380623Y4981737D01*
X11421932Y4940428D01*
X11346698Y4865193D02*
X11421932Y4940428D01*
X11346698Y4865193D02*
X11388007Y4823884D01*
X11463242Y4899118D01*
X11504551Y4857809D01*
X11429316Y4782575D02*
X11504551Y4857809D01*
X11429316Y4782575D02*
X11470626Y4741266D01*
X11545860Y4816500D01*
X11587169Y4775191D01*
X11511935Y4699957D02*
X11587169Y4775191D01*
X11511935Y4699957D02*
X11553244Y4658648D01*
X11566573Y4671977D01*
X11566574Y4671976D01*
Y4671976D02*
X11569268Y4669282D01*
X10696425Y5542125D02*
X10724616Y5513934D01*
X11569268Y4669282D02*
X11607475Y4631075D01*
X10952054Y5574451D02*
X10954748Y5571757D01*
X10963464Y5563040D01*
X10961056Y5560632D02*
X10963464Y5563040D01*
X10961056Y5560632D02*
X11002365Y5519322D01*
X11065664Y5582621D01*
X11106973Y5541312D01*
X11026782Y5461121D02*
X11106973Y5541312D01*
X11026782Y5461121D02*
X11068092Y5419812D01*
X11148282Y5500002D01*
X11189591Y5458693D01*
X11109401Y5378503D02*
X11189591Y5458693D01*
X11109401Y5378503D02*
X11150710Y5337194D01*
X11230900Y5417384D01*
X11272210Y5376075D01*
X11192019Y5295885D02*
X11272210Y5376075D01*
X11192019Y5295885D02*
X11233328Y5254575D01*
X11313519Y5334766D01*
X11354828Y5293457D01*
X11274638Y5213266D02*
X11354828Y5293457D01*
X11274638Y5213266D02*
X11315947Y5171957D01*
X11396137Y5252147D01*
X11437446Y5210838D01*
X11357256Y5130648D02*
X11437446Y5210838D01*
X11357256Y5130648D02*
X11398565Y5089339D01*
X11478755Y5169529D01*
X11520065Y5128220D01*
X11439874Y5048030D02*
X11520065Y5128220D01*
X11439874Y5048030D02*
X11481184Y5006720D01*
X11561374Y5086911D01*
X11602683Y5045602D01*
X11522493Y4965411D02*
X11602683Y5045602D01*
X11522493Y4965411D02*
X11563802Y4924102D01*
X11643992Y5004292D01*
X11685301Y4962983D01*
X11605111Y4882793D02*
X11685301Y4962983D01*
X11605111Y4882793D02*
X11646420Y4841484D01*
X11726611Y4921674D01*
X11767920Y4880365D01*
X11687729Y4800175D02*
X11767920Y4880365D01*
X11687729Y4800175D02*
X11729039Y4758865D01*
X11748339Y4778166D01*
X11748340Y4778165D01*
Y4778165D02*
X11751034Y4775471D01*
X10907149Y5619356D02*
X10952054Y5574451D01*
X11751034Y4775471D02*
X11821381Y4705124D01*
X11174245Y5711819D02*
X11176940Y5709125D01*
X11303303Y5582762D01*
X11305295Y5584754D01*
X11346604Y5543445D01*
X11336904Y5533745D02*
X11346604Y5543445D01*
X11336904Y5533745D02*
X11378214Y5492436D01*
X11466911Y5581133D01*
X11508220Y5539824D01*
X11419523Y5451127D02*
X11508220Y5539824D01*
X11419523Y5451127D02*
X11460832Y5409817D01*
X11549529Y5498515D01*
X11590839Y5457205D01*
X11502141Y5368508D02*
X11590839Y5457205D01*
X11502141Y5368508D02*
X11543450Y5327199D01*
X11632148Y5415896D01*
X11673457Y5374587D01*
X11584760Y5285890D02*
X11673457Y5374587D01*
X11584760Y5285890D02*
X11626069Y5244581D01*
X11714766Y5333278D01*
X11756075Y5291969D01*
X11667378Y5203272D02*
X11756075Y5291969D01*
X11667378Y5203272D02*
X11708687Y5161962D01*
X11797384Y5250660D01*
X11838694Y5209351D01*
X11749996Y5120653D02*
X11838694Y5209351D01*
X11749996Y5120653D02*
X11791306Y5079344D01*
X11880003Y5168041D01*
X11921312Y5126732D01*
X11832615Y5038035D02*
X11921312Y5126732D01*
X11832615Y5038035D02*
X11873924Y4996726D01*
X11962621Y5085423D01*
X12003930Y5044114D01*
X11915233Y4955417D02*
X12003930Y5044114D01*
X11915233Y4955417D02*
X11956542Y4914107D01*
X12045240Y5002805D01*
X12086549Y4961496D01*
X11997851Y4872798D02*
X12086549Y4961496D01*
X11997851Y4872798D02*
X12039161Y4831489D01*
X12046868Y4839197D01*
X12046869Y4839196D01*
Y4839196D02*
X12049563Y4836502D01*
X11135665Y5750400D02*
X11174246Y5711819D01*
X12049563Y4836502D02*
X12107883Y4778182D01*
X11341178Y5796725D02*
X11343873Y5794031D01*
X11460949Y5676954D01*
X11538235Y5754240D01*
X11579545Y5712931D01*
X11494319Y5627705D02*
X11579545Y5712931D01*
X11494319Y5627705D02*
X11535628Y5586395D01*
X11635813Y5686580D01*
X11677122Y5645271D01*
X11576937Y5545086D02*
X11677122Y5645271D01*
X11576937Y5545086D02*
X11618246Y5503777D01*
X11718431Y5603962D01*
X11759740Y5562653D01*
X11659555Y5462468D02*
X11759740Y5562653D01*
X11659555Y5462468D02*
X11700864Y5421159D01*
X11801049Y5521344D01*
X11842359Y5480035D01*
X11742174Y5379850D02*
X11842359Y5480035D01*
X11742174Y5379850D02*
X11783483Y5338541D01*
X11883668Y5438725D01*
X11924977Y5397416D01*
X11824792Y5297231D02*
X11924977Y5397416D01*
X11824792Y5297231D02*
X11866101Y5255922D01*
X11966286Y5356107D01*
X12007595Y5314798D01*
X11907410Y5214613D02*
X12007595Y5314798D01*
X11907410Y5214613D02*
X11948720Y5173304D01*
X12048905Y5273489D01*
X12090214Y5232180D01*
X11990029Y5131995D02*
X12090214Y5232180D01*
X11990029Y5131995D02*
X12031338Y5090685D01*
X12131523Y5190870D01*
X12172832Y5149561D01*
X12072647Y5049376D02*
X12172832Y5149561D01*
X12072647Y5049376D02*
X12113956Y5008067D01*
X12121896Y5016007D01*
X12121897Y5016006D01*
Y5016006D02*
X12124591Y5013312D01*
X11274268Y5863636D02*
X11341179Y5796725D01*
X12124591Y5013312D02*
X12251670Y4886233D01*
X11603744Y5839542D02*
X11606438Y5836847D01*
X11642125Y5801161D01*
X11706685Y5865721D01*
X11747995Y5824412D01*
X11669502Y5745919D02*
X11747995Y5824412D01*
X11669502Y5745919D02*
X11710811Y5704610D01*
X11811073Y5804872D01*
X11852382Y5763563D01*
X11752120Y5663301D02*
X11852382Y5763563D01*
X11752120Y5663301D02*
X11793429Y5621992D01*
X11893691Y5722254D01*
X11935000Y5680944D01*
X11834739Y5580683D02*
X11935000Y5680944D01*
X11834739Y5580683D02*
X11876048Y5539374D01*
X11976309Y5639635D01*
X12017619Y5598326D01*
X11917357Y5498064D02*
X12017619Y5598326D01*
X11917357Y5498064D02*
X11958666Y5456755D01*
X12058928Y5557017D01*
X12100237Y5515708D01*
X11999975Y5415446D02*
X12100237Y5515708D01*
X11999975Y5415446D02*
X12041285Y5374137D01*
X12141546Y5474398D01*
X12182855Y5433089D01*
X12082594Y5332828D02*
X12182855Y5433089D01*
X12082594Y5332828D02*
X12123903Y5291519D01*
X12224165Y5391780D01*
X12265474Y5350471D01*
X12165212Y5250209D02*
X12265474Y5350471D01*
X12165212Y5250209D02*
X12206521Y5208900D01*
X12220453Y5222832D01*
X12220454Y5222831D01*
Y5222832D02*
X12223149Y5220137D01*
X11471939Y5971347D02*
X11603744Y5839542D01*
X12223149Y5220137D02*
X12743040Y4700246D01*
X11821381Y4705124D02*
X12332264D01*
X12448222Y4589165D02*
X12582209D01*
X12332264Y4705124D02*
X12448222Y4589165D01*
X11607475Y4631075D02*
X12279524D01*
X12492220Y4374141D02*
X12604399Y4261962D01*
X12650711D01*
X12279524Y4631075D02*
X12313582Y4597016D01*
X11286405Y4405472D02*
X12998827D01*
X13204366Y4199933D01*
X11143779Y4374141D02*
X12492220D01*
X12251670Y4886233D02*
X12497783D01*
X9912914Y5863636D02*
X11274268D01*
X12107883Y4778182D02*
X12521202D01*
X9983045Y5750400D02*
X11135665D01*
X13103156Y4505345D02*
X13391789Y4216712D01*
X11411090Y4505345D02*
X13103156D01*
X10070983Y5619356D02*
X10907149D01*
X9415493Y6317952D02*
Y9525002D01*
X9354533Y6292702D02*
Y9604721D01*
X9385013Y6305327D02*
Y9599280D01*
X9324053Y6280077D02*
Y9610162D01*
X9263093Y6254826D02*
Y9662857D01*
X9293573Y6267452D02*
Y9615603D01*
X9848308Y5971347D02*
X11471939D01*
X9354533Y6292702D02*
X10105110Y5542125D01*
X10696425D01*
X10159927Y5444203D02*
X10472232D01*
X9415493Y6317952D02*
X9983045Y5750400D01*
X9486250Y6290300D02*
X9912914Y5863636D01*
X9541718Y6277937D02*
X9848308Y5971347D01*
X9385013Y6305327D02*
X10070983Y5619356D01*
X9324053Y6280077D02*
X10159927Y5444203D01*
X10271866Y5289159D02*
X10402717D01*
X9541718Y6277937D02*
Y9490402D01*
X9293573Y6267452D02*
X10271866Y5289159D01*
X9223091Y6136636D02*
Y9849734D01*
X11217861Y4141866D02*
X12882076D01*
X9486250Y6290300D02*
Y9528436D01*
X12743040Y4696025D02*
Y4700246D01*
X10642659Y9557938D02*
X10859967Y9340630D01*
X13204366Y4161311D02*
Y4199933D01*
X11063257Y9352865D02*
Y9461065D01*
X10564279Y9608738D02*
X10678069D01*
X10675102Y9697916D02*
Y9950007D01*
X10879565Y9750002D02*
X12040584D01*
X10975101Y9865329D02*
Y10250006D01*
X10875101Y9754466D02*
X10879565Y9750002D01*
X10875101Y9754466D02*
Y10245542D01*
X10975101Y9865329D02*
X10979565Y9860865D01*
X10775107Y10450000D02*
X10975101Y10250006D01*
X10870637D02*
X10875101Y10245542D01*
X10679565Y10250006D02*
X10870637D01*
X10175103Y10450000D02*
X10775107D01*
X10660364Y9583338D02*
X10909587Y9334115D01*
Y9303597D02*
Y9334115D01*
X10859967Y9310112D02*
Y9340630D01*
X11015352Y9508970D02*
X11063257Y9461065D01*
X10695440Y9338218D02*
Y9375842D01*
X10746081Y9330682D02*
Y9368306D01*
X10776561Y9343307D02*
Y9380931D01*
X10624954Y9532538D02*
X10776561Y9380931D01*
X10607249Y9507138D02*
X10746081Y9368306D01*
X10317967Y9507138D02*
X10607249D01*
X10298353Y9476658D02*
X10594623D01*
X10553758Y9583338D02*
X10660364D01*
X10467166Y9557938D02*
X10642659D01*
X10456645Y9532538D02*
X10624954D01*
X10594623Y9476658D02*
X10695440Y9375842D01*
X10660807Y9634138D02*
X10695774D01*
X10775101Y9756107D02*
X11015352Y9515856D01*
Y9508970D02*
Y9515856D01*
X10775101Y9756107D02*
Y10145543D01*
X10770638Y10150006D02*
X10775101Y10145543D01*
X9188173Y9884652D02*
X9223091Y9849734D01*
X9188173Y9915162D02*
X9219758Y9946748D01*
Y9953060D01*
X9223091Y10050078D02*
Y10297997D01*
X9372819Y10447726D01*
X9188171Y9984648D02*
Y10015158D01*
X9223091Y10050078D01*
X9188171Y9984648D02*
X9219758Y9953060D01*
X9188173Y9884652D02*
Y9915162D01*
X9541718Y9490402D02*
X9595363Y9544047D01*
X9527261Y9569447D02*
X9744544D01*
X9486250Y9528436D02*
X9527261Y9569447D01*
X9415493Y9525002D02*
X9488794Y9598303D01*
X9711407D01*
X9595363Y9544047D02*
X9768950D01*
X9398915Y9649103D02*
X9626286D01*
X9475099Y9797129D02*
Y10250006D01*
X9409436Y9623703D02*
X9700886D01*
X9263093Y9662857D02*
X9375099Y9774864D01*
X9385013Y9599280D02*
X9409436Y9623703D01*
X9293573Y9615603D02*
X9475099Y9797129D01*
X9354533Y9604721D02*
X9398915Y9649103D01*
X9468357Y9754466D02*
X9579563D01*
X9324053Y9610162D02*
X9468357Y9754466D01*
X9375099Y9774864D02*
Y10345541D01*
X9768950Y9544047D02*
X9975004Y9750101D01*
X9711407Y9598303D02*
X9863208Y9750104D01*
X9744544Y9569447D02*
X9925001Y9749904D01*
X10025107D02*
X10298353Y9476658D01*
X10075103Y9750002D02*
X10317967Y9507138D01*
X10239181Y9750002D02*
X10456645Y9532538D01*
X10275102Y9750002D02*
X10467166Y9557938D01*
X10175103Y9750002D02*
X10239181D01*
X10387094D02*
X10553758Y9583338D01*
X10475102Y9697915D02*
X10564279Y9608738D01*
X10275102Y10045541D02*
X10279566Y10050005D01*
X10370638D01*
X10275102Y9750002D02*
Y10045541D01*
X10370638Y10050005D02*
X10375102Y10054469D01*
Y10150006D01*
X10425001Y10199905D01*
Y10200002D01*
X10375102Y9750002D02*
X10387094D01*
X10475102Y9697915D02*
Y9850103D01*
X10625106Y10000002D02*
X10675102Y9950007D01*
X9863208Y9750104D02*
X9875001D01*
X9700886Y9623703D02*
X9775098Y9697915D01*
X9626286Y9649103D02*
X9675000Y9697817D01*
Y10149900D01*
X9375099Y10345541D02*
X9379563Y10350005D01*
X10375102Y9750002D02*
Y9950007D01*
X10175103Y9750002D02*
Y10145543D01*
X10075103Y9750002D02*
Y10450005D01*
X10025107Y9749904D02*
Y10399904D01*
X9975004Y9750101D02*
Y10449905D01*
X9925001Y9749904D02*
Y10100002D01*
X9875001Y9750104D02*
Y10149900D01*
X9775098Y9697915D02*
Y10050007D01*
X9579563Y9754466D02*
Y10250006D01*
X10175375Y10650005D02*
X10225100Y10600280D01*
X9472707Y10447614D02*
X9675099Y10650005D01*
X9376187Y10447726D02*
X9376299Y10447614D01*
X9372819Y10447726D02*
X9376187D01*
X9376299Y10447614D02*
X9472707D01*
X9675099Y10650005D02*
X10175375D01*
X10125105Y10400002D02*
X10175103Y10450000D01*
X10125100Y10400002D02*
X10125105D01*
X10425100D02*
X10425158D01*
X10670638Y10350006D02*
X10675102Y10345542D01*
X10425158Y10400002D02*
X10475155Y10350006D01*
X10675102Y10254470D02*
Y10345542D01*
X10475155Y10350006D02*
X10670638D01*
X10675102Y10254470D02*
X10679565Y10250006D01*
X9379563Y10350005D02*
X9475098D01*
X9574993Y10449900D01*
X9875001D01*
X9924901Y10499800D01*
Y10500005D01*
X9875103Y10350006D02*
X9924983Y10399886D01*
X9925004D01*
X9575099Y10350006D02*
X9875103D01*
X9475099Y10250006D02*
X9575099Y10350006D01*
X9579563Y10250006D02*
X9775151D01*
X12521202Y4778182D02*
X12579447Y4719937D01*
X9875001Y10149900D02*
X9925001Y10199899D01*
Y10200002D01*
X9975004Y10449905D02*
X10075103Y10550003D01*
X10275101Y10550006D02*
X10325100Y10500006D01*
Y10500004D02*
Y10500006D01*
X10175103Y10550006D02*
X10275101D01*
X10175100Y10550003D02*
X10175103Y10550006D01*
X10075103Y10550003D02*
X10175100D01*
X9775151Y10250006D02*
X9825001Y10200157D01*
Y10200002D02*
Y10200157D01*
X9675000Y10149900D02*
X9725147Y10200047D01*
Y10200109D01*
X9725102Y10100002D02*
X9775098Y10050007D01*
X9725001Y10100002D02*
X9725102D01*
X10075103Y10450005D02*
X10125100Y10500002D01*
X10275102Y10245542D02*
X10279566Y10250006D01*
X10275102Y10154470D02*
Y10245542D01*
X10320537Y10250006D02*
X10325001Y10254470D01*
Y10300055D01*
X10279566Y10250006D02*
X10320537D01*
X10179566Y10150006D02*
X10270639D01*
X10275102Y10154470D01*
X10175103Y10145543D02*
X10179566Y10150006D01*
X10375102Y9950007D02*
X10475102Y10050007D01*
Y10250006D01*
X10525001Y10299905D01*
Y10300055D01*
X10475102Y9850103D02*
X10525001Y9900002D01*
X10625001Y10000002D02*
X10625106D01*
X10625106Y10200002D02*
X10675102Y10150006D01*
X10625001Y10200002D02*
X10625106D01*
X10675102Y10150006D02*
X10770638D01*
X5775000Y10120007D02*
Y10120008D01*
%TF.MD5,c1bd9169e8e694f033fecf7b87c373fb*%
M02*
