%TF.GenerationSoftware,Altium Limited,Altium Designer,23.11.1 (41)*%
G04 Layer_Color=8421504*
%FSLAX45Y45*%
%MOMM*%
%TF.SameCoordinates,85413206-E3E1-404A-8318-C17176F6EAC7*%
%TF.FilePolarity,Positive*%
%TF.FileFunction,Paste,Top*%
%TF.Part,Single*%
G01*
G75*
%TA.AperFunction,SMDPad,CuDef*%
G04:AMPARAMS|DCode=10|XSize=4.4mm|YSize=2.5mm|CornerRadius=0.625mm|HoleSize=0mm|Usage=FLASHONLY|Rotation=0.000|XOffset=0mm|YOffset=0mm|HoleType=Round|Shape=RoundedRectangle|*
%AMROUNDEDRECTD10*
21,1,4.40000,1.25000,0,0,0.0*
21,1,3.15000,2.50000,0,0,0.0*
1,1,1.25000,1.57500,-0.62500*
1,1,1.25000,-1.57500,-0.62500*
1,1,1.25000,-1.57500,0.62500*
1,1,1.25000,1.57500,0.62500*
%
%ADD10ROUNDEDRECTD10*%
G04:AMPARAMS|DCode=14|XSize=4.4mm|YSize=2.5mm|CornerRadius=0.625mm|HoleSize=0mm|Usage=FLASHONLY|Rotation=270.000|XOffset=0mm|YOffset=0mm|HoleType=Round|Shape=RoundedRectangle|*
%AMROUNDEDRECTD14*
21,1,4.40000,1.25000,0,0,270.0*
21,1,3.15000,2.50000,0,0,270.0*
1,1,1.25000,-0.62500,-1.57500*
1,1,1.25000,-0.62500,1.57500*
1,1,1.25000,0.62500,1.57500*
1,1,1.25000,0.62500,-1.57500*
%
%ADD14ROUNDEDRECTD14*%
%TA.AperFunction,BGAPad,CuDef*%
%ADD15C,2.15900*%
%TA.AperFunction,SMDPad,CuDef*%
G04:AMPARAMS|DCode=24|XSize=0.508mm|YSize=0.508mm|CornerRadius=0.1524mm|HoleSize=0mm|Usage=FLASHONLY|Rotation=0.000|XOffset=0mm|YOffset=0mm|HoleType=Round|Shape=RoundedRectangle|*
%AMROUNDEDRECTD24*
21,1,0.50800,0.20320,0,0,0.0*
21,1,0.20320,0.50800,0,0,0.0*
1,1,0.30480,0.10160,-0.10160*
1,1,0.30480,-0.10160,-0.10160*
1,1,0.30480,-0.10160,0.10160*
1,1,0.30480,0.10160,0.10160*
%
%ADD24ROUNDEDRECTD24*%
G04:AMPARAMS|DCode=25|XSize=1.8034mm|YSize=1.1938mm|CornerRadius=0.20295mm|HoleSize=0mm|Usage=FLASHONLY|Rotation=270.000|XOffset=0mm|YOffset=0mm|HoleType=Round|Shape=RoundedRectangle|*
%AMROUNDEDRECTD25*
21,1,1.80340,0.78791,0,0,270.0*
21,1,1.39751,1.19380,0,0,270.0*
1,1,0.40589,-0.39395,-0.69875*
1,1,0.40589,-0.39395,0.69875*
1,1,0.40589,0.39395,0.69875*
1,1,0.40589,0.39395,-0.69875*
%
%ADD25ROUNDEDRECTD25*%
G04:AMPARAMS|DCode=26|XSize=0.508mm|YSize=0.508mm|CornerRadius=0.1524mm|HoleSize=0mm|Usage=FLASHONLY|Rotation=270.000|XOffset=0mm|YOffset=0mm|HoleType=Round|Shape=RoundedRectangle|*
%AMROUNDEDRECTD26*
21,1,0.50800,0.20320,0,0,270.0*
21,1,0.20320,0.50800,0,0,270.0*
1,1,0.30480,-0.10160,-0.10160*
1,1,0.30480,-0.10160,0.10160*
1,1,0.30480,0.10160,0.10160*
1,1,0.30480,0.10160,-0.10160*
%
%ADD26ROUNDEDRECTD26*%
G04:AMPARAMS|DCode=27|XSize=1.8034mm|YSize=1.1938mm|CornerRadius=0.20295mm|HoleSize=0mm|Usage=FLASHONLY|Rotation=180.000|XOffset=0mm|YOffset=0mm|HoleType=Round|Shape=RoundedRectangle|*
%AMROUNDEDRECTD27*
21,1,1.80340,0.78791,0,0,180.0*
21,1,1.39751,1.19380,0,0,180.0*
1,1,0.40589,-0.69875,0.39395*
1,1,0.40589,0.69875,0.39395*
1,1,0.40589,0.69875,-0.39395*
1,1,0.40589,-0.69875,-0.39395*
%
%ADD27ROUNDEDRECTD27*%
G04:AMPARAMS|DCode=28|XSize=1.397mm|YSize=1.0922mm|CornerRadius=0.20206mm|HoleSize=0mm|Usage=FLASHONLY|Rotation=0.000|XOffset=0mm|YOffset=0mm|HoleType=Round|Shape=RoundedRectangle|*
%AMROUNDEDRECTD28*
21,1,1.39700,0.68809,0,0,0.0*
21,1,0.99289,1.09220,0,0,0.0*
1,1,0.40411,0.49644,-0.34404*
1,1,0.40411,-0.49644,-0.34404*
1,1,0.40411,-0.49644,0.34404*
1,1,0.40411,0.49644,0.34404*
%
%ADD28ROUNDEDRECTD28*%
G04:AMPARAMS|DCode=30|XSize=2.26mm|YSize=2.16mm|CornerRadius=0.54mm|HoleSize=0mm|Usage=FLASHONLY|Rotation=180.000|XOffset=0mm|YOffset=0mm|HoleType=Round|Shape=RoundedRectangle|*
%AMROUNDEDRECTD30*
21,1,2.26000,1.08000,0,0,180.0*
21,1,1.18000,2.16000,0,0,180.0*
1,1,1.08000,-0.59000,0.54000*
1,1,1.08000,0.59000,0.54000*
1,1,1.08000,0.59000,-0.54000*
1,1,1.08000,-0.59000,-0.54000*
%
%ADD30ROUNDEDRECTD30*%
G04:AMPARAMS|DCode=32|XSize=0.24mm|YSize=0.6mm|CornerRadius=0.0492mm|HoleSize=0mm|Usage=FLASHONLY|Rotation=90.000|XOffset=0mm|YOffset=0mm|HoleType=Round|Shape=RoundedRectangle|*
%AMROUNDEDRECTD32*
21,1,0.24000,0.50160,0,0,90.0*
21,1,0.14160,0.60000,0,0,90.0*
1,1,0.09840,0.25080,0.07080*
1,1,0.09840,0.25080,-0.07080*
1,1,0.09840,-0.25080,-0.07080*
1,1,0.09840,-0.25080,0.07080*
%
%ADD32ROUNDEDRECTD32*%
G04:AMPARAMS|DCode=34|XSize=0.889mm|YSize=0.8636mm|CornerRadius=0.15113mm|HoleSize=0mm|Usage=FLASHONLY|Rotation=0.000|XOffset=0mm|YOffset=0mm|HoleType=Round|Shape=RoundedRectangle|*
%AMROUNDEDRECTD34*
21,1,0.88900,0.56134,0,0,0.0*
21,1,0.58674,0.86360,0,0,0.0*
1,1,0.30226,0.29337,-0.28067*
1,1,0.30226,-0.29337,-0.28067*
1,1,0.30226,-0.29337,0.28067*
1,1,0.30226,0.29337,0.28067*
%
%ADD34ROUNDEDRECTD34*%
%ADD35R,0.30480X0.45720*%
G04:AMPARAMS|DCode=36|XSize=1.397mm|YSize=1.0922mm|CornerRadius=0.20206mm|HoleSize=0mm|Usage=FLASHONLY|Rotation=270.000|XOffset=0mm|YOffset=0mm|HoleType=Round|Shape=RoundedRectangle|*
%AMROUNDEDRECTD36*
21,1,1.39700,0.68809,0,0,270.0*
21,1,0.99289,1.09220,0,0,270.0*
1,1,0.40411,-0.34404,-0.49644*
1,1,0.40411,-0.34404,0.49644*
1,1,0.40411,0.34404,0.49644*
1,1,0.40411,0.34404,-0.49644*
%
%ADD36ROUNDEDRECTD36*%
%TA.AperFunction,BGAPad,CuDef*%
%ADD37C,0.45000*%
%TA.AperFunction,SMDPad,CuDef*%
%ADD38O,0.44999X0.45000*%
G04:AMPARAMS|DCode=39|XSize=0.4mm|YSize=0.7mm|CornerRadius=0.1mm|HoleSize=0mm|Usage=FLASHONLY|Rotation=180.000|XOffset=0mm|YOffset=0mm|HoleType=Round|Shape=RoundedRectangle|*
%AMROUNDEDRECTD39*
21,1,0.40000,0.50000,0,0,180.0*
21,1,0.20000,0.70000,0,0,180.0*
1,1,0.20000,-0.10000,0.25000*
1,1,0.20000,0.10000,0.25000*
1,1,0.20000,0.10000,-0.25000*
1,1,0.20000,-0.10000,-0.25000*
%
%ADD39ROUNDEDRECTD39*%
G04:AMPARAMS|DCode=44|XSize=0.889mm|YSize=0.8636mm|CornerRadius=0.15113mm|HoleSize=0mm|Usage=FLASHONLY|Rotation=90.000|XOffset=0mm|YOffset=0mm|HoleType=Round|Shape=RoundedRectangle|*
%AMROUNDEDRECTD44*
21,1,0.88900,0.56134,0,0,90.0*
21,1,0.58674,0.86360,0,0,90.0*
1,1,0.30226,0.28067,0.29337*
1,1,0.30226,0.28067,-0.29337*
1,1,0.30226,-0.28067,-0.29337*
1,1,0.30226,-0.28067,0.29337*
%
%ADD44ROUNDEDRECTD44*%
%ADD47O,0.80000X0.23000*%
%ADD48O,0.23000X0.80000*%
%ADD49R,7.40000X7.40000*%
%ADD50O,0.40000X1.80000*%
%ADD51R,7.40000X7.40000*%
%ADD52R,1.35000X2.20000*%
%ADD53R,2.10000X2.10000*%
%ADD54O,0.20000X0.80000*%
%ADD55O,0.80000X0.20000*%
%ADD56O,0.85000X0.28000*%
%ADD57R,5.60000X5.60000*%
%ADD58O,0.28000X0.85000*%
%ADD59O,1.60000X0.30000*%
%ADD61O,2.92100X0.76200*%
%ADD62R,1.40000X1.20000*%
%ADD63R,1.40000X1.00000*%
G04:AMPARAMS|DCode=69|XSize=3.4mm|YSize=3.4mm|CornerRadius=0mm|HoleSize=0mm|Usage=FLASHONLY|Rotation=180.000|XOffset=0mm|YOffset=0mm|HoleType=Round|Shape=RoundedRectangle|*
%AMROUNDEDRECTD69*
21,1,3.40000,3.40000,0,0,180.0*
21,1,3.40000,3.40000,0,0,180.0*
1,1,0.00000,-1.70000,1.70000*
1,1,0.00000,1.70000,1.70000*
1,1,0.00000,1.70000,-1.70000*
1,1,0.00000,-1.70000,-1.70000*
%
%ADD69ROUNDEDRECTD69*%
%ADD70R,0.25000X0.80000*%
%ADD71R,0.80000X0.25000*%
G04:AMPARAMS|DCode=74|XSize=3.06mm|YSize=0.89mm|CornerRadius=0.2225mm|HoleSize=0mm|Usage=FLASHONLY|Rotation=180.000|XOffset=0mm|YOffset=0mm|HoleType=Round|Shape=RoundedRectangle|*
%AMROUNDEDRECTD74*
21,1,3.06000,0.44500,0,0,180.0*
21,1,2.61500,0.89000,0,0,180.0*
1,1,0.44500,-1.30750,0.22250*
1,1,0.44500,1.30750,0.22250*
1,1,0.44500,1.30750,-0.22250*
1,1,0.44500,-1.30750,-0.22250*
%
%ADD74ROUNDEDRECTD74*%
%ADD78R,3.81000X4.24180*%
G04:AMPARAMS|DCode=79|XSize=1mm|YSize=0.8mm|CornerRadius=0.2mm|HoleSize=0mm|Usage=FLASHONLY|Rotation=0.000|XOffset=0mm|YOffset=0mm|HoleType=Round|Shape=RoundedRectangle|*
%AMROUNDEDRECTD79*
21,1,1.00000,0.40000,0,0,0.0*
21,1,0.60000,0.80000,0,0,0.0*
1,1,0.40000,0.30000,-0.20000*
1,1,0.40000,-0.30000,-0.20000*
1,1,0.40000,-0.30000,0.20000*
1,1,0.40000,0.30000,0.20000*
%
%ADD79ROUNDEDRECTD79*%
%TA.AperFunction,NonConductor*%
%ADD126R,3.09997X5.16001*%
%ADD213R,1.29997X1.30002*%
%ADD214R,1.30002X1.30002*%
%ADD215R,0.50002X1.03998*%
%ADD216R,0.85004X0.84999*%
%ADD217R,0.73000X1.28001*%
%ADD218R,1.28001X0.80000*%
%ADD219R,1.23998X1.47000*%
%ADD220R,1.30002X1.29997*%
%ADD221R,1.29997X1.29997*%
%ADD222R,2.71003X2.57500*%
%ADD223R,2.70998X2.57500*%
%TA.AperFunction,SMDPad,CuDef*%
G04:AMPARAMS|DCode=224|XSize=0.3mm|YSize=0.95mm|CornerRadius=0.0625mm|HoleSize=0mm|Usage=FLASHONLY|Rotation=270.000|XOffset=0mm|YOffset=0mm|HoleType=Round|Shape=RoundedRectangle|*
%AMROUNDEDRECTD224*
21,1,0.30000,0.82500,0,0,270.0*
21,1,0.17500,0.95000,0,0,270.0*
1,1,0.12499,-0.41250,-0.08750*
1,1,0.12499,-0.41250,0.08750*
1,1,0.12499,0.41250,0.08750*
1,1,0.12499,0.41250,-0.08750*
%
%ADD224ROUNDEDRECTD224*%
G04:AMPARAMS|DCode=225|XSize=0.3mm|YSize=0.95mm|CornerRadius=0.0625mm|HoleSize=0mm|Usage=FLASHONLY|Rotation=180.000|XOffset=0mm|YOffset=0mm|HoleType=Round|Shape=RoundedRectangle|*
%AMROUNDEDRECTD225*
21,1,0.30000,0.82500,0,0,180.0*
21,1,0.17500,0.95000,0,0,180.0*
1,1,0.12499,-0.08750,0.41250*
1,1,0.12499,0.08750,0.41250*
1,1,0.12499,0.08750,-0.41250*
1,1,0.12499,-0.08750,-0.41250*
%
%ADD225ROUNDEDRECTD225*%
%ADD226R,0.90000X0.55000*%
%ADD227R,0.55000X0.90000*%
%ADD228R,0.95000X0.50000*%
%ADD229R,1.50000X1.90000*%
G04:AMPARAMS|DCode=230|XSize=0.9mm|YSize=0.25mm|CornerRadius=0.05mm|HoleSize=0mm|Usage=FLASHONLY|Rotation=180.000|XOffset=0mm|YOffset=0mm|HoleType=Round|Shape=RoundedRectangle|*
%AMROUNDEDRECTD230*
21,1,0.90000,0.15000,0,0,180.0*
21,1,0.80000,0.25000,0,0,180.0*
1,1,0.10000,-0.40000,0.07500*
1,1,0.10000,0.40000,0.07500*
1,1,0.10000,0.40000,-0.07500*
1,1,0.10000,-0.40000,-0.07500*
%
%ADD230ROUNDEDRECTD230*%
G04:AMPARAMS|DCode=231|XSize=1.55mm|YSize=3.45mm|CornerRadius=0.175mm|HoleSize=0mm|Usage=FLASHONLY|Rotation=0.000|XOffset=0mm|YOffset=0mm|HoleType=Round|Shape=RoundedRectangle|*
%AMROUNDEDRECTD231*
21,1,1.55000,3.10000,0,0,0.0*
21,1,1.20000,3.45000,0,0,0.0*
1,1,0.35000,0.60000,-1.55000*
1,1,0.35000,-0.60000,-1.55000*
1,1,0.35000,-0.60000,1.55000*
1,1,0.35000,0.60000,1.55000*
%
%ADD231ROUNDEDRECTD231*%
%ADD232R,1.35000X2.70000*%
G04:AMPARAMS|DCode=233|XSize=0.25mm|YSize=0.4mm|CornerRadius=0.05mm|HoleSize=0mm|Usage=FLASHONLY|Rotation=90.000|XOffset=0mm|YOffset=0mm|HoleType=Round|Shape=RoundedRectangle|*
%AMROUNDEDRECTD233*
21,1,0.25000,0.30000,0,0,90.0*
21,1,0.15000,0.40000,0,0,90.0*
1,1,0.10000,0.15000,0.07500*
1,1,0.10000,0.15000,-0.07500*
1,1,0.10000,-0.15000,-0.07500*
1,1,0.10000,-0.15000,0.07500*
%
%ADD233ROUNDEDRECTD233*%
%ADD234R,2.25000X2.75000*%
%ADD235R,2.75000X2.25000*%
%ADD236R,1.28000X0.50000*%
G04:AMPARAMS|DCode=237|XSize=1.55mm|YSize=3.45mm|CornerRadius=0.175mm|HoleSize=0mm|Usage=FLASHONLY|Rotation=270.000|XOffset=0mm|YOffset=0mm|HoleType=Round|Shape=RoundedRectangle|*
%AMROUNDEDRECTD237*
21,1,1.55000,3.10000,0,0,270.0*
21,1,1.20000,3.45000,0,0,270.0*
1,1,0.35000,-1.55000,-0.60000*
1,1,0.35000,-1.55000,0.60000*
1,1,0.35000,1.55000,0.60000*
1,1,0.35000,1.55000,-0.60000*
%
%ADD237ROUNDEDRECTD237*%
G04:AMPARAMS|DCode=238|XSize=0.6mm|YSize=0.8mm|CornerRadius=0.1375mm|HoleSize=0mm|Usage=FLASHONLY|Rotation=180.000|XOffset=0mm|YOffset=0mm|HoleType=Round|Shape=RoundedRectangle|*
%AMROUNDEDRECTD238*
21,1,0.60000,0.52500,0,0,180.0*
21,1,0.32500,0.80000,0,0,180.0*
1,1,0.27500,-0.16250,0.26250*
1,1,0.27500,0.16250,0.26250*
1,1,0.27500,0.16250,-0.26250*
1,1,0.27500,-0.16250,-0.26250*
%
%ADD238ROUNDEDRECTD238*%
%ADD239R,2.19900X0.45900*%
G04:AMPARAMS|DCode=240|XSize=1.1mm|YSize=1.1mm|CornerRadius=0.13mm|HoleSize=0mm|Usage=FLASHONLY|Rotation=270.000|XOffset=0mm|YOffset=0mm|HoleType=Round|Shape=RoundedRectangle|*
%AMROUNDEDRECTD240*
21,1,1.10000,0.84000,0,0,270.0*
21,1,0.84000,1.10000,0,0,270.0*
1,1,0.26000,-0.42000,-0.42000*
1,1,0.26000,-0.42000,0.42000*
1,1,0.26000,0.42000,0.42000*
1,1,0.26000,0.42000,-0.42000*
%
%ADD240ROUNDEDRECTD240*%
G04:AMPARAMS|DCode=241|XSize=1.1mm|YSize=1.1mm|CornerRadius=0.25mm|HoleSize=0mm|Usage=FLASHONLY|Rotation=270.000|XOffset=0mm|YOffset=0mm|HoleType=Round|Shape=RoundedRectangle|*
%AMROUNDEDRECTD241*
21,1,1.10000,0.60000,0,0,270.0*
21,1,0.60000,1.10000,0,0,270.0*
1,1,0.50000,-0.30000,-0.30000*
1,1,0.50000,-0.30000,0.30000*
1,1,0.50000,0.30000,0.30000*
1,1,0.50000,0.30000,-0.30000*
%
%ADD241ROUNDEDRECTD241*%
G36*
X6856126Y13951799D02*
X6871121Y13951794D01*
X6871123Y13951794D01*
X6872118Y13951797D01*
X6873957Y13951039D01*
X6875365Y13949634D01*
X6876128Y13947797D01*
Y13946802D01*
X6876133Y13922807D01*
X6876133Y13922807D01*
X6876134Y13921809D01*
X6875372Y13919966D01*
X6873961Y13918555D01*
X6872118Y13917792D01*
X6871120Y13917793D01*
X6856120Y13917793D01*
X6856120Y13917795D01*
X6855125Y13917796D01*
X6853289Y13918562D01*
X6851883Y13919971D01*
X6851123Y13921809D01*
X6851123Y13922804D01*
X6851124Y13946799D01*
X6851124D01*
X6851124Y13947794D01*
X6851885Y13949631D01*
X6853293Y13951038D01*
X6855131Y13951799D01*
X6856126Y13951799D01*
D02*
G37*
G36*
X6806126D02*
X6821121Y13951794D01*
X6821123Y13951794D01*
X6822117Y13951797D01*
X6823957Y13951039D01*
X6825365Y13949634D01*
X6826127Y13947797D01*
Y13946802D01*
X6826133Y13922807D01*
X6826132Y13922807D01*
X6826134Y13921809D01*
X6825372Y13919966D01*
X6823961Y13918555D01*
X6822117Y13917792D01*
X6821120Y13917793D01*
X6806119Y13917793D01*
X6806120Y13917795D01*
X6805125Y13917796D01*
X6803288Y13918562D01*
X6801883Y13919971D01*
X6801123Y13921809D01*
X6801122Y13922804D01*
X6801124Y13946799D01*
X6801124D01*
X6801124Y13947794D01*
X6801885Y13949631D01*
X6803292Y13951038D01*
X6805131Y13951799D01*
X6806126Y13951799D01*
D02*
G37*
G36*
X6903614Y13897803D02*
X6905602Y13897803D01*
X6909277Y13896283D01*
X6912090Y13893472D01*
X6913613Y13889799D01*
X6913614Y13887811D01*
X6913617Y13801790D01*
X6913616Y13801790D01*
X6913615Y13799803D01*
X6912094Y13796132D01*
X6909284Y13793323D01*
X6905613Y13791800D01*
X6903626Y13791798D01*
X6773621Y13791794D01*
X6773620Y13791794D01*
X6771631Y13791795D01*
X6767956Y13793317D01*
X6765143Y13796130D01*
X6763621Y13799806D01*
X6763620Y13801794D01*
X6763617Y13887790D01*
Y13887788D01*
X6763615Y13889780D01*
X6765136Y13893462D01*
X6767952Y13896277D01*
X6771632Y13897800D01*
X6773623Y13897797D01*
X6903614Y13897803D01*
X6903614Y13897803D01*
D02*
G37*
G36*
X6903627Y13771799D02*
X6905616Y13771799D01*
X6909291Y13770276D01*
X6912104Y13767464D01*
X6913626Y13763788D01*
X6913627Y13761798D01*
X6913630Y13675803D01*
X6913630Y13675804D01*
X6913632Y13673813D01*
X6912111Y13670132D01*
X6909295Y13667316D01*
X6905615Y13665793D01*
X6903623Y13665796D01*
X6773633Y13665790D01*
X6773633Y13665791D01*
X6771645Y13665790D01*
X6767970Y13667310D01*
X6765157Y13670120D01*
X6763634Y13673795D01*
X6763633Y13675781D01*
X6763631Y13761803D01*
X6763631D01*
X6763632Y13763789D01*
X6765153Y13767461D01*
X6767963Y13770271D01*
X6771634Y13771793D01*
X6773621Y13771794D01*
X6903626Y13771799D01*
X6903627Y13771799D01*
D02*
G37*
G36*
X6856127Y13645799D02*
X6871128Y13645799D01*
X6871127Y13645798D01*
X6872122Y13645796D01*
X6873959Y13645030D01*
X6875364Y13643622D01*
X6876124Y13641783D01*
X6876125Y13640788D01*
X6876124Y13616795D01*
X6876123Y13616795D01*
X6876123Y13615800D01*
X6875362Y13613962D01*
X6873955Y13612555D01*
X6872116Y13611794D01*
X6871121Y13611794D01*
X6856126Y13611800D01*
X6856124Y13611800D01*
X6855130Y13611797D01*
X6853290Y13612553D01*
X6851882Y13613959D01*
X6851120Y13615797D01*
Y13616791D01*
X6851115Y13640787D01*
Y13640787D01*
X6851113Y13641783D01*
X6851875Y13643626D01*
X6853286Y13645038D01*
X6855130Y13645801D01*
X6856127Y13645799D01*
D02*
G37*
G36*
X6806127D02*
X6821128Y13645799D01*
X6821127Y13645798D01*
X6822122Y13645796D01*
X6823958Y13645030D01*
X6825364Y13643622D01*
X6826124Y13641783D01*
X6826124Y13640788D01*
X6826123Y13616795D01*
X6826122Y13616795D01*
X6826123Y13615800D01*
X6825362Y13613962D01*
X6823954Y13612555D01*
X6822116Y13611794D01*
X6821121Y13611794D01*
X6806126Y13611800D01*
X6806124Y13611800D01*
X6805129Y13611797D01*
X6803290Y13612553D01*
X6801882Y13613959D01*
X6801119Y13615797D01*
Y13616791D01*
X6801114Y13640787D01*
Y13640787D01*
X6801113Y13641783D01*
X6801875Y13643626D01*
X6803286Y13645038D01*
X6805129Y13645801D01*
X6806127Y13645799D01*
D02*
G37*
G36*
X19591190Y11485759D02*
X19467189D01*
Y11563759D01*
Y11573759D01*
X19519189Y11632759D01*
X19591190D01*
Y11485759D01*
D02*
G37*
G36*
X13994296Y4832196D02*
X13907297D01*
Y4919196D01*
X13994296D01*
Y4832196D01*
D02*
G37*
G36*
X13887296D02*
X13800296D01*
Y4919196D01*
X13887296D01*
Y4832196D01*
D02*
G37*
G36*
X13780296D02*
X13693295D01*
Y4919196D01*
X13780296D01*
Y4832196D01*
D02*
G37*
G36*
X13994296Y4725196D02*
X13907297D01*
Y4812196D01*
X13994296D01*
Y4725196D01*
D02*
G37*
G36*
X13887296D02*
X13800296D01*
Y4812196D01*
X13887296D01*
Y4725196D01*
D02*
G37*
G36*
X13780296D02*
X13693295D01*
Y4812196D01*
X13780296D01*
Y4725196D01*
D02*
G37*
G36*
X13994296Y4618196D02*
X13907297D01*
Y4705196D01*
X13994296D01*
Y4618196D01*
D02*
G37*
G36*
X13887296D02*
X13800296D01*
Y4705196D01*
X13887296D01*
Y4618196D01*
D02*
G37*
G36*
X13780296D02*
X13693295D01*
Y4705196D01*
X13780296D01*
Y4618196D01*
D02*
G37*
D10*
X3744702Y14871700D02*
D03*
X4584700D02*
D03*
X3744702Y16027400D02*
D03*
X4584700D02*
D03*
X12170631Y17595506D02*
D03*
X13010634D02*
D03*
X4584700Y18351500D02*
D03*
X3744702D02*
D03*
X4590537Y17185764D02*
D03*
X3750539D02*
D03*
X8968642Y8650370D02*
D03*
X8128639D02*
D03*
X6491401Y8401102D02*
D03*
X5651402D02*
D03*
X9310309Y18849026D02*
D03*
X10150307D02*
D03*
X14942821Y8905240D02*
D03*
X14102821D02*
D03*
X15788091Y12265363D02*
D03*
X16628094D02*
D03*
X12247427Y15687041D02*
D03*
X13087431D02*
D03*
D14*
X14193103Y15534641D02*
D03*
Y16374643D02*
D03*
X11028225Y18033324D02*
D03*
Y17193326D02*
D03*
X14451707Y18560707D02*
D03*
Y17720709D02*
D03*
D15*
X11545601Y6463482D02*
D03*
Y6971482D02*
D03*
Y7733482D02*
D03*
X9958101Y6463482D02*
D03*
Y6971482D02*
D03*
Y6717482D02*
D03*
Y7479482D02*
D03*
Y7225482D02*
D03*
X10275601Y7733482D02*
D03*
X9958101D02*
D03*
X10041086Y16742072D02*
D03*
Y17250072D02*
D03*
Y18012071D02*
D03*
X8453586Y16742072D02*
D03*
Y17250072D02*
D03*
Y16996071D02*
D03*
Y17758070D02*
D03*
Y17504071D02*
D03*
X8771086Y18012071D02*
D03*
X8453586D02*
D03*
X14443341Y11759600D02*
D03*
X13490842D02*
D03*
X15078342Y12077100D02*
D03*
Y11759600D02*
D03*
Y12712100D02*
D03*
X13490842Y13029601D02*
D03*
X15078342Y12394600D02*
D03*
Y13029601D02*
D03*
X13173341Y11759600D02*
D03*
Y12712100D02*
D03*
Y13029601D02*
D03*
D24*
X7831006Y16010674D02*
D03*
Y15921773D02*
D03*
X15793719Y14139453D02*
D03*
Y14050552D02*
D03*
X17259274Y11039232D02*
D03*
Y11128132D02*
D03*
X17872588Y12319709D02*
D03*
Y12408609D02*
D03*
X6684002Y14206944D02*
D03*
Y14295844D02*
D03*
X6707300Y10312451D02*
D03*
Y10401351D02*
D03*
X11439736Y11828832D02*
D03*
Y11739932D02*
D03*
X11441861Y10269272D02*
D03*
Y10180372D02*
D03*
X10991011Y9584648D02*
D03*
Y9495748D02*
D03*
X9630415Y7366452D02*
D03*
Y7277552D02*
D03*
X14442232Y14490471D02*
D03*
Y14579372D02*
D03*
X19032291Y14000880D02*
D03*
Y14089781D02*
D03*
X18538205Y11516309D02*
D03*
Y11605209D02*
D03*
X27298740Y543650D02*
D03*
Y454750D02*
D03*
X26612939Y543650D02*
D03*
Y454750D02*
D03*
X25876340Y543650D02*
D03*
Y454750D02*
D03*
X25165140Y543650D02*
D03*
Y454750D02*
D03*
X24453940Y543650D02*
D03*
Y454750D02*
D03*
X23742740Y543650D02*
D03*
Y454750D02*
D03*
X23031540Y543650D02*
D03*
Y454750D02*
D03*
X22320340Y543650D02*
D03*
Y454750D02*
D03*
X21609140Y543650D02*
D03*
Y454750D02*
D03*
X20897940Y543650D02*
D03*
Y454750D02*
D03*
X20186740Y543650D02*
D03*
Y454750D02*
D03*
X33951001Y543650D02*
D03*
Y454750D02*
D03*
X33239801Y543650D02*
D03*
Y454750D02*
D03*
X32655600Y543650D02*
D03*
Y454750D02*
D03*
X32071399Y543650D02*
D03*
Y454750D02*
D03*
X31487201Y543650D02*
D03*
Y454750D02*
D03*
X30903000Y543650D02*
D03*
Y454750D02*
D03*
X30321341Y543650D02*
D03*
Y454750D02*
D03*
X29152939Y543650D02*
D03*
Y454750D02*
D03*
X28568741Y543650D02*
D03*
Y454750D02*
D03*
X28035339Y543650D02*
D03*
Y454750D02*
D03*
X44418341D02*
D03*
Y543650D02*
D03*
X43707141Y454750D02*
D03*
Y543650D02*
D03*
X42995941Y454750D02*
D03*
Y543650D02*
D03*
X42284741Y454750D02*
D03*
Y543650D02*
D03*
X41573541Y454750D02*
D03*
Y543650D02*
D03*
X40862341Y454750D02*
D03*
Y543650D02*
D03*
X40201941Y454750D02*
D03*
Y543650D02*
D03*
X39490741Y454750D02*
D03*
Y543650D02*
D03*
X38906540Y454750D02*
D03*
Y543650D02*
D03*
X38322339Y454750D02*
D03*
Y543650D02*
D03*
X37740680Y454750D02*
D03*
Y543650D02*
D03*
X37156479Y454750D02*
D03*
Y543650D02*
D03*
X14237180Y7833589D02*
D03*
Y7744689D02*
D03*
X14107637Y6566129D02*
D03*
Y6655029D02*
D03*
Y7744494D02*
D03*
Y7833394D02*
D03*
X14242261Y6655223D02*
D03*
Y6566323D02*
D03*
X10718815Y13568269D02*
D03*
Y13657169D02*
D03*
Y13380309D02*
D03*
Y13469209D02*
D03*
X9286255Y14226129D02*
D03*
Y14137228D02*
D03*
X10619755Y13944189D02*
D03*
Y14033089D02*
D03*
X10721355Y13944189D02*
D03*
Y14033089D02*
D03*
X10619755Y13756229D02*
D03*
Y13845129D02*
D03*
X10721355Y13756229D02*
D03*
Y13845129D02*
D03*
X10619755Y13380309D02*
D03*
Y13469209D02*
D03*
Y13568269D02*
D03*
Y13657169D02*
D03*
X9390395Y14228642D02*
D03*
Y14139743D02*
D03*
X10622295Y14411549D02*
D03*
Y14322649D02*
D03*
X10619755Y14223563D02*
D03*
Y14134663D02*
D03*
X9390395Y13514929D02*
D03*
Y13603828D02*
D03*
Y13702888D02*
D03*
Y13791789D02*
D03*
X9391665Y14416629D02*
D03*
Y14327728D02*
D03*
X9390395Y13890849D02*
D03*
Y13979749D02*
D03*
X17242899Y17552670D02*
D03*
Y17641570D02*
D03*
X18524220Y18098770D02*
D03*
Y18009869D02*
D03*
X18524219Y17821910D02*
D03*
Y17910809D02*
D03*
X18008575Y16094710D02*
D03*
Y16183611D02*
D03*
X18033975Y15253970D02*
D03*
Y15165070D02*
D03*
X18107660Y16029877D02*
D03*
Y16118776D02*
D03*
X18133060Y15236189D02*
D03*
Y15325090D02*
D03*
X15289992Y15543530D02*
D03*
Y15632430D02*
D03*
X15190907Y15543530D02*
D03*
Y15632430D02*
D03*
X16695421Y17366248D02*
D03*
Y17455147D02*
D03*
X16990764Y17366248D02*
D03*
Y17455147D02*
D03*
X18353897Y16128961D02*
D03*
Y16217860D02*
D03*
X18492561Y15839729D02*
D03*
Y15928629D02*
D03*
X18779633Y15927342D02*
D03*
Y15838441D02*
D03*
X18492561Y15519402D02*
D03*
Y15430501D02*
D03*
X18569940Y15226518D02*
D03*
Y15137617D02*
D03*
X16919130Y15202592D02*
D03*
Y15113693D02*
D03*
X16918608Y16166103D02*
D03*
Y16077202D02*
D03*
X18301028Y17331052D02*
D03*
Y17242151D02*
D03*
X18301065Y18284982D02*
D03*
Y18196082D02*
D03*
X17634171Y17393631D02*
D03*
Y17482532D02*
D03*
X17534909Y17343634D02*
D03*
Y17432533D02*
D03*
X18108998Y18384303D02*
D03*
Y18473203D02*
D03*
X18114848Y17429123D02*
D03*
Y17518024D02*
D03*
X17631630Y18492834D02*
D03*
Y18403935D02*
D03*
X17532368Y18542838D02*
D03*
Y18453937D02*
D03*
X16397842Y17028711D02*
D03*
Y17117612D02*
D03*
X16411322Y18861591D02*
D03*
Y18772690D02*
D03*
X16364984Y18655009D02*
D03*
Y18566110D02*
D03*
X16464983Y18655009D02*
D03*
Y18566110D02*
D03*
X16449092Y17218239D02*
D03*
Y17307140D02*
D03*
X16350006Y17218239D02*
D03*
Y17307140D02*
D03*
X15415585Y14002193D02*
D03*
Y14091092D02*
D03*
X17145000Y7804150D02*
D03*
Y7715250D02*
D03*
X17246600Y7804150D02*
D03*
Y7715250D02*
D03*
X17348199D02*
D03*
Y7804150D02*
D03*
Y7359650D02*
D03*
Y7270750D02*
D03*
X17246600Y7359650D02*
D03*
Y7270750D02*
D03*
X18199100Y5403850D02*
D03*
Y5314950D02*
D03*
X18199101Y5124450D02*
D03*
Y5213350D02*
D03*
X12217400Y1047750D02*
D03*
Y1136650D02*
D03*
X13004800Y1047750D02*
D03*
Y1136650D02*
D03*
X12598400Y3740150D02*
D03*
Y3651250D02*
D03*
X11671300Y1892300D02*
D03*
Y1803400D02*
D03*
X14528799Y1708150D02*
D03*
Y1797050D02*
D03*
X14427200D02*
D03*
Y1708150D02*
D03*
X14325600D02*
D03*
Y1797050D02*
D03*
X15417799Y2127250D02*
D03*
Y2216150D02*
D03*
X15519400D02*
D03*
Y2127250D02*
D03*
X15316200D02*
D03*
Y2216150D02*
D03*
X17653000Y1835150D02*
D03*
Y1746250D02*
D03*
X17094200Y2190750D02*
D03*
Y2279650D02*
D03*
X16992599Y2190750D02*
D03*
Y2279650D02*
D03*
X16090900Y1758950D02*
D03*
Y1670050D02*
D03*
X16891000Y2279650D02*
D03*
Y2190750D02*
D03*
X18910300Y3397250D02*
D03*
Y3308350D02*
D03*
X18783299D02*
D03*
Y3397250D02*
D03*
X15519400Y2444750D02*
D03*
Y2533650D02*
D03*
X13411200Y1047750D02*
D03*
Y1136650D02*
D03*
X16954500Y2444750D02*
D03*
Y2533650D02*
D03*
X18783299Y1454150D02*
D03*
Y1543050D02*
D03*
X18910300D02*
D03*
Y1454150D02*
D03*
X13690601Y5251450D02*
D03*
Y5162550D02*
D03*
X13601701D02*
D03*
Y5251450D02*
D03*
X13779501Y5162550D02*
D03*
Y5251450D02*
D03*
X13512801D02*
D03*
Y5162550D02*
D03*
X13804900Y4375150D02*
D03*
Y4286250D02*
D03*
X13893799D02*
D03*
Y4375150D02*
D03*
X16802100Y5124450D02*
D03*
Y5213350D02*
D03*
X16802101Y5403850D02*
D03*
Y5314950D02*
D03*
X17601167Y13732455D02*
D03*
Y13643556D02*
D03*
X16979900Y10674349D02*
D03*
Y10585449D02*
D03*
X6752725Y717324D02*
D03*
Y806224D02*
D03*
X7060527Y726796D02*
D03*
Y815696D02*
D03*
X6159467Y751464D02*
D03*
Y840364D02*
D03*
X6428508Y754169D02*
D03*
Y843069D02*
D03*
X17244060Y18243550D02*
D03*
Y18332449D02*
D03*
D25*
X8076450Y16193639D02*
D03*
X7786890D02*
D03*
X18303726Y13391927D02*
D03*
X18014166D02*
D03*
X10268381Y8876082D02*
D03*
X10557941D02*
D03*
X10265841Y8162342D02*
D03*
X10555401D02*
D03*
X10268381Y8520482D02*
D03*
X10557941D02*
D03*
X9847730Y19601208D02*
D03*
X9558170D02*
D03*
X7446325Y15226576D02*
D03*
X7156765D02*
D03*
X14195621Y11344602D02*
D03*
X13906061D02*
D03*
Y11069602D02*
D03*
X14195621D02*
D03*
X19362846Y12827292D02*
D03*
X19073286D02*
D03*
X19362846Y13091476D02*
D03*
X19073286D02*
D03*
X35716299Y458560D02*
D03*
X35426740D02*
D03*
D26*
X7912389Y16383437D02*
D03*
X7823489D02*
D03*
X18490936Y13166417D02*
D03*
X18402037D02*
D03*
X18141100Y13579192D02*
D03*
X18052199D02*
D03*
X13347701Y4536283D02*
D03*
X13436600D02*
D03*
X6772684Y14107858D02*
D03*
X6683784D02*
D03*
X6370752Y10445804D02*
D03*
X6459652D02*
D03*
X5418252Y9391701D02*
D03*
X5329352D02*
D03*
X6129452Y9391704D02*
D03*
X6218352D02*
D03*
X6478701Y9391705D02*
D03*
X6389801D02*
D03*
X5659550Y9391701D02*
D03*
X5748450D02*
D03*
X3335450Y9760001D02*
D03*
X3246550D02*
D03*
X3335450Y9887001D02*
D03*
X3246550D02*
D03*
X3335450Y9379001D02*
D03*
X3246550D02*
D03*
X3335450Y9252001D02*
D03*
X3246550D02*
D03*
X3335450Y9633001D02*
D03*
X3246550D02*
D03*
X3246551Y9506002D02*
D03*
X3335451D02*
D03*
X3335450Y10268001D02*
D03*
X3246550D02*
D03*
X3335450Y10522001D02*
D03*
X3246550D02*
D03*
Y10395001D02*
D03*
X3335450D02*
D03*
Y10776001D02*
D03*
X3246550D02*
D03*
X3335450Y10649001D02*
D03*
X3246550D02*
D03*
X3335450Y10141001D02*
D03*
X3246550D02*
D03*
X3335450Y10014001D02*
D03*
X3246550D02*
D03*
X4186350Y9531401D02*
D03*
X4097450D02*
D03*
X4186350Y9798101D02*
D03*
X4097450D02*
D03*
X4186350Y9975901D02*
D03*
X4097450D02*
D03*
X4186350Y9442501D02*
D03*
X4097450D02*
D03*
Y10153701D02*
D03*
X4186350D02*
D03*
Y10509301D02*
D03*
X4097450D02*
D03*
X4186350Y9264701D02*
D03*
X4097450D02*
D03*
X4188282Y10864944D02*
D03*
X4099382D02*
D03*
X4097450Y10687101D02*
D03*
X4186350D02*
D03*
X4097450Y10331501D02*
D03*
X4186350D02*
D03*
Y9620301D02*
D03*
X4097450D02*
D03*
X5456352Y10445804D02*
D03*
X5545252D02*
D03*
X5646850D02*
D03*
X5735750D02*
D03*
X8920911Y12416842D02*
D03*
X8832011D02*
D03*
X9081926Y9584527D02*
D03*
X9170826D02*
D03*
X9383191Y9585367D02*
D03*
X9294291D02*
D03*
X9630415Y6958782D02*
D03*
X9541515D02*
D03*
X9665985Y13330779D02*
D03*
X9577085D02*
D03*
X7410348Y15044241D02*
D03*
X7321448D02*
D03*
X12127230Y14257021D02*
D03*
X12038330D02*
D03*
X18027386Y14528897D02*
D03*
X17938487D02*
D03*
X18217886D02*
D03*
X18128987D02*
D03*
X18653638Y11322759D02*
D03*
X18564738D02*
D03*
X18844138D02*
D03*
X18755238D02*
D03*
X19300287Y11377369D02*
D03*
X19389188D02*
D03*
X8799281Y1091071D02*
D03*
X8888181D02*
D03*
X8799281Y1192668D02*
D03*
X8888181D02*
D03*
X7641041Y1085991D02*
D03*
X7729941D02*
D03*
X7638501Y1187588D02*
D03*
X7727401D02*
D03*
X8603701Y743091D02*
D03*
X8692601D02*
D03*
X9749241Y725311D02*
D03*
X9838141D02*
D03*
X10481325Y13330779D02*
D03*
X10392425D02*
D03*
X10141041D02*
D03*
X10229941D02*
D03*
X9765071D02*
D03*
X9853971D02*
D03*
X10041956D02*
D03*
X9953056D02*
D03*
X17362170Y18023840D02*
D03*
X17273270D02*
D03*
X17359630Y17820641D02*
D03*
X17270731D02*
D03*
X18667731Y18428902D02*
D03*
X18578830D02*
D03*
X18581371Y18329816D02*
D03*
X18670270D02*
D03*
X18903951Y17470119D02*
D03*
X18992850D02*
D03*
X19131915Y18018784D02*
D03*
X19043016D02*
D03*
X19132550Y17919699D02*
D03*
X19043649D02*
D03*
X18992850Y17569180D02*
D03*
X18903951D02*
D03*
X18581461Y15674339D02*
D03*
X18492561D02*
D03*
X17776190D02*
D03*
X17687289D02*
D03*
X16429265Y15557574D02*
D03*
X16518166D02*
D03*
X15289992Y15234920D02*
D03*
X15201093D02*
D03*
X16347440Y15082520D02*
D03*
X16258540D02*
D03*
X16348711Y14983435D02*
D03*
X16259810D02*
D03*
X16810989Y18399760D02*
D03*
X16722090D02*
D03*
X16300450Y16321063D02*
D03*
X16211549D02*
D03*
X15867767Y16304691D02*
D03*
X15956668D02*
D03*
X16297910Y16221979D02*
D03*
X16209010D02*
D03*
X13434566Y15458440D02*
D03*
X13523465D02*
D03*
X15383510Y16221979D02*
D03*
X15472411D02*
D03*
X15375890Y15035205D02*
D03*
X15464790D02*
D03*
X15375890Y14936119D02*
D03*
X15464790D02*
D03*
X17128490Y18441919D02*
D03*
X17039590D02*
D03*
X18263327Y16029877D02*
D03*
X18352226D02*
D03*
X18591647Y15927342D02*
D03*
X18680547D02*
D03*
X18591647Y15430501D02*
D03*
X18680547D02*
D03*
X18481039Y15325604D02*
D03*
X18569940D02*
D03*
X18274757D02*
D03*
X18363657D02*
D03*
X17211148Y15214046D02*
D03*
X17300047D02*
D03*
X17211148Y15101166D02*
D03*
X17300047D02*
D03*
X17018214Y15207146D02*
D03*
X17107115D02*
D03*
X17018214Y15108061D02*
D03*
X17107115D02*
D03*
X17211981Y16175023D02*
D03*
X17300880D02*
D03*
X17210632Y16062140D02*
D03*
X17299532D02*
D03*
X17017693Y16071655D02*
D03*
X17106593D02*
D03*
X17017693Y16170741D02*
D03*
X17106593D02*
D03*
X17916064Y18488445D02*
D03*
X18004965D02*
D03*
X17916064Y18375415D02*
D03*
X18004965D02*
D03*
X18208084Y18384067D02*
D03*
X18296983D02*
D03*
X18208084Y18483363D02*
D03*
X18296983D02*
D03*
X15865662Y17895798D02*
D03*
X15954561D02*
D03*
X15865057Y17697626D02*
D03*
X15953957D02*
D03*
X15866280Y17994882D02*
D03*
X15955179D02*
D03*
X15865057Y17796712D02*
D03*
X15953957D02*
D03*
X15866895Y18093968D02*
D03*
X15955795D02*
D03*
X15866280Y18193053D02*
D03*
X15955179D02*
D03*
X17918607Y17532004D02*
D03*
X18007506D02*
D03*
X18213933Y17529222D02*
D03*
X18302834D02*
D03*
X17918605Y17419031D02*
D03*
X18007504D02*
D03*
X18214703Y17430136D02*
D03*
X18303604D02*
D03*
X15666457Y18139200D02*
D03*
X15755356D02*
D03*
X15665839Y17946913D02*
D03*
X15754738D02*
D03*
X15664616Y17745081D02*
D03*
X15753516D02*
D03*
X18383250Y7366000D02*
D03*
X18294350D02*
D03*
Y7480300D02*
D03*
X18383250D02*
D03*
X17722850Y8077200D02*
D03*
X17811749D02*
D03*
X18357851Y8001000D02*
D03*
X18268950D02*
D03*
X18383250Y6985000D02*
D03*
X18294350D02*
D03*
X17722850Y6934200D02*
D03*
X17811749D02*
D03*
X11487150Y1803400D02*
D03*
X11576050D02*
D03*
X17849850Y2654300D02*
D03*
X17760950D02*
D03*
X15436850Y3060700D02*
D03*
X15525751D02*
D03*
X15436850Y2933700D02*
D03*
X15525751D02*
D03*
X15436850Y2819400D02*
D03*
X15525751D02*
D03*
X15436850Y2667000D02*
D03*
X15525751D02*
D03*
X16871950Y3060700D02*
D03*
X16960851D02*
D03*
X16871950Y2933700D02*
D03*
X16960851D02*
D03*
X16871950Y2806700D02*
D03*
X16960851D02*
D03*
X16871950Y2679700D02*
D03*
X16960851D02*
D03*
X14674849Y4622800D02*
D03*
X14763750D02*
D03*
X14027150Y5257799D02*
D03*
X13938251D02*
D03*
X13451840Y4806196D02*
D03*
X13362939D02*
D03*
Y4895096D02*
D03*
X13451840D02*
D03*
X14306551Y5016499D02*
D03*
X14217650D02*
D03*
X13362939Y4717296D02*
D03*
X13451840D02*
D03*
X16538608Y14118062D02*
D03*
X16449709D02*
D03*
X11639550Y2971800D02*
D03*
X11550650D02*
D03*
X13601184Y17577727D02*
D03*
X13512283D02*
D03*
D27*
X18586470Y14340530D02*
D03*
Y14050970D02*
D03*
X11962161Y7268662D02*
D03*
Y6979102D02*
D03*
X12725840Y12664381D02*
D03*
Y12374821D02*
D03*
X15609621Y14173387D02*
D03*
Y13883827D02*
D03*
X18850655Y14343095D02*
D03*
Y14053535D02*
D03*
X18367888Y12483114D02*
D03*
Y12772674D02*
D03*
X18089621Y12483513D02*
D03*
Y12773073D02*
D03*
X14623866Y14764790D02*
D03*
Y14475230D02*
D03*
X14947900Y4615180D02*
D03*
Y4325620D02*
D03*
X14490701Y4615180D02*
D03*
Y4325620D02*
D03*
X17417377Y13458134D02*
D03*
Y13747694D02*
D03*
X17151529Y13457388D02*
D03*
Y13746948D02*
D03*
X17069296Y10939219D02*
D03*
Y11228779D02*
D03*
D28*
X18393288Y12131749D02*
D03*
Y11961569D02*
D03*
X7049117Y14068463D02*
D03*
Y14238643D02*
D03*
X7282823Y13879259D02*
D03*
Y14059598D02*
D03*
X8520695Y11610392D02*
D03*
Y11780572D02*
D03*
X11504506Y11394492D02*
D03*
Y11564672D02*
D03*
X11505361Y10698532D02*
D03*
Y10528352D02*
D03*
X11510441Y9786672D02*
D03*
Y9956852D02*
D03*
X10525100Y9520771D02*
D03*
Y9350591D02*
D03*
X11504506Y12042192D02*
D03*
Y12212372D02*
D03*
X14693900Y1578610D02*
D03*
Y1748790D02*
D03*
X15151100Y1997710D02*
D03*
Y2167890D02*
D03*
X17589500Y2480310D02*
D03*
Y2650490D02*
D03*
D30*
X17440002Y8904998D02*
D03*
Y9394999D02*
D03*
D32*
X6698623Y13881798D02*
D03*
Y13831795D02*
D03*
Y13781798D02*
D03*
Y13731795D02*
D03*
Y13681798D02*
D03*
X6978622Y13881798D02*
D03*
Y13831795D02*
D03*
Y13781798D02*
D03*
Y13731795D02*
D03*
Y13681798D02*
D03*
D34*
X6460095Y13557039D02*
D03*
X6310235D02*
D03*
X6461365Y13736465D02*
D03*
X6311505D02*
D03*
X6460095Y13922189D02*
D03*
X6310235D02*
D03*
X6460095Y14104765D02*
D03*
X6310235D02*
D03*
X18280116Y14388066D02*
D03*
X18130257D02*
D03*
D35*
X6683784Y14013853D02*
D03*
X6739664D02*
D03*
D36*
X5555410Y9213901D02*
D03*
X5725590D02*
D03*
X6139612Y9213904D02*
D03*
X6309792D02*
D03*
X3205910Y11017301D02*
D03*
X3376090D02*
D03*
X5606210Y10623601D02*
D03*
X5776390D02*
D03*
X9728631Y9523782D02*
D03*
X9898811D02*
D03*
X8763431Y9490762D02*
D03*
X8933611D02*
D03*
X10419511Y12482882D02*
D03*
X10589691D02*
D03*
X9945748Y12483363D02*
D03*
X9775568D02*
D03*
X29786670Y473800D02*
D03*
X29967010D02*
D03*
X36621811Y478880D02*
D03*
X36791989D02*
D03*
D37*
X6535002Y10160005D02*
D03*
Y10080000D02*
D03*
Y9760001D02*
D03*
X6455002Y9680001D02*
D03*
X6375002Y10160005D02*
D03*
Y10080000D02*
D03*
Y9680001D02*
D03*
X6215002Y10080000D02*
D03*
X6135002Y10160005D02*
D03*
Y9680001D02*
D03*
X6055003Y10160005D02*
D03*
X5975003Y10080000D02*
D03*
Y9760001D02*
D03*
Y9680001D02*
D03*
X5334999Y9600001D02*
D03*
Y9680001D02*
D03*
Y9760001D02*
D03*
Y10080000D02*
D03*
Y10160005D02*
D03*
Y10240005D02*
D03*
X5414999Y9600001D02*
D03*
Y9680001D02*
D03*
Y9760001D02*
D03*
Y10080000D02*
D03*
Y10160005D02*
D03*
Y10240005D02*
D03*
X5494999Y9600001D02*
D03*
Y9680001D02*
D03*
Y9760001D02*
D03*
Y10080000D02*
D03*
Y10160005D02*
D03*
Y10240005D02*
D03*
X5574999Y9600001D02*
D03*
Y9680001D02*
D03*
Y9760001D02*
D03*
Y10080000D02*
D03*
Y10160005D02*
D03*
Y10240005D02*
D03*
X5654998Y9600001D02*
D03*
Y9680001D02*
D03*
Y9760001D02*
D03*
Y10080000D02*
D03*
Y10160005D02*
D03*
Y10240005D02*
D03*
X5734998Y9600001D02*
D03*
Y9680001D02*
D03*
Y9760001D02*
D03*
Y10080000D02*
D03*
Y10160005D02*
D03*
Y10240005D02*
D03*
X5814998Y9600001D02*
D03*
Y9680001D02*
D03*
Y9760001D02*
D03*
Y10080000D02*
D03*
Y10160005D02*
D03*
Y10240005D02*
D03*
X5895003Y9600001D02*
D03*
Y9680001D02*
D03*
Y9760001D02*
D03*
Y10080000D02*
D03*
Y10160005D02*
D03*
Y10240005D02*
D03*
X5975003Y9600001D02*
D03*
Y10160005D02*
D03*
Y10240005D02*
D03*
X6055003Y9600001D02*
D03*
Y9680001D02*
D03*
Y9760001D02*
D03*
Y10080000D02*
D03*
Y10240005D02*
D03*
X6135002Y9600001D02*
D03*
Y9760001D02*
D03*
Y10080000D02*
D03*
Y10240005D02*
D03*
X6215002Y9600001D02*
D03*
Y9680001D02*
D03*
Y9760001D02*
D03*
Y10160005D02*
D03*
Y10240005D02*
D03*
X6295002Y9600001D02*
D03*
Y9680001D02*
D03*
Y9760001D02*
D03*
Y10080000D02*
D03*
Y10160005D02*
D03*
Y10240005D02*
D03*
X6375002Y9600001D02*
D03*
Y9760001D02*
D03*
Y10240005D02*
D03*
X6455002Y9600001D02*
D03*
Y9760001D02*
D03*
Y10080000D02*
D03*
Y10160005D02*
D03*
Y10240005D02*
D03*
X6535002Y9600001D02*
D03*
Y9680001D02*
D03*
Y10240005D02*
D03*
X8775100Y12250002D02*
D03*
Y12150002D02*
D03*
Y11950003D02*
D03*
Y12050003D02*
D03*
Y11850003D02*
D03*
Y11750003D02*
D03*
Y11550004D02*
D03*
Y11450004D02*
D03*
Y11350004D02*
D03*
Y11150004D02*
D03*
Y11250004D02*
D03*
Y11650003D02*
D03*
Y10950005D02*
D03*
Y10850005D02*
D03*
Y10750005D02*
D03*
Y10650005D02*
D03*
Y10450006D02*
D03*
Y9950007D02*
D03*
Y10150006D02*
D03*
Y10250006D02*
D03*
Y10350006D02*
D03*
Y9850007D02*
D03*
Y9750002D02*
D03*
X8875100Y12250002D02*
D03*
Y12150002D02*
D03*
Y12050003D02*
D03*
Y11950003D02*
D03*
Y11850003D02*
D03*
Y11750003D02*
D03*
Y11650003D02*
D03*
Y11550004D02*
D03*
Y11450004D02*
D03*
Y11350004D02*
D03*
Y11250004D02*
D03*
Y11150004D02*
D03*
Y11050005D02*
D03*
Y10950005D02*
D03*
Y10850005D02*
D03*
Y10750005D02*
D03*
Y10650005D02*
D03*
Y10550006D02*
D03*
Y10450006D02*
D03*
Y10350006D02*
D03*
Y10250006D02*
D03*
Y10150006D02*
D03*
Y9950007D02*
D03*
Y9850007D02*
D03*
Y9750002D02*
D03*
X8975100Y12250002D02*
D03*
Y12150002D02*
D03*
Y12050003D02*
D03*
Y11950003D02*
D03*
Y11850003D02*
D03*
Y11750003D02*
D03*
Y11650003D02*
D03*
Y11550004D02*
D03*
Y11450004D02*
D03*
Y11350004D02*
D03*
Y11250004D02*
D03*
Y11150004D02*
D03*
Y11050005D02*
D03*
Y10950005D02*
D03*
Y10850005D02*
D03*
Y10750005D02*
D03*
Y10650005D02*
D03*
Y10450006D02*
D03*
Y10350006D02*
D03*
Y10250006D02*
D03*
Y10150006D02*
D03*
Y10050007D02*
D03*
Y9950007D02*
D03*
Y9850007D02*
D03*
Y9750002D02*
D03*
X9075100Y12250002D02*
D03*
Y12150002D02*
D03*
Y12050003D02*
D03*
Y11950003D02*
D03*
Y11850003D02*
D03*
Y11750003D02*
D03*
Y11650003D02*
D03*
Y11550004D02*
D03*
Y11450004D02*
D03*
Y11350004D02*
D03*
Y11250004D02*
D03*
Y11150004D02*
D03*
Y11050005D02*
D03*
Y10950005D02*
D03*
Y10850005D02*
D03*
Y10750005D02*
D03*
Y10650005D02*
D03*
Y10550006D02*
D03*
Y10450006D02*
D03*
Y10350006D02*
D03*
Y10250006D02*
D03*
Y10150006D02*
D03*
Y10050007D02*
D03*
Y9950007D02*
D03*
Y9850007D02*
D03*
Y9750002D02*
D03*
X9175100Y12250002D02*
D03*
Y12150002D02*
D03*
Y12050003D02*
D03*
Y11950003D02*
D03*
Y11850003D02*
D03*
Y11750003D02*
D03*
Y11650003D02*
D03*
Y11550004D02*
D03*
Y11450004D02*
D03*
Y11350004D02*
D03*
Y11250004D02*
D03*
Y11150004D02*
D03*
Y11050005D02*
D03*
Y10950005D02*
D03*
Y10850005D02*
D03*
Y10750005D02*
D03*
Y10650005D02*
D03*
Y10550006D02*
D03*
Y10450006D02*
D03*
Y10350006D02*
D03*
Y10250006D02*
D03*
Y10150006D02*
D03*
Y10050007D02*
D03*
Y9950007D02*
D03*
Y9850007D02*
D03*
Y9750002D02*
D03*
X9275099Y12250002D02*
D03*
Y12150002D02*
D03*
Y12050003D02*
D03*
Y11950003D02*
D03*
Y11850003D02*
D03*
Y11750003D02*
D03*
Y11650003D02*
D03*
Y11550004D02*
D03*
Y11450004D02*
D03*
Y11350004D02*
D03*
Y11250004D02*
D03*
Y11150004D02*
D03*
Y11050005D02*
D03*
Y10950005D02*
D03*
Y10850005D02*
D03*
Y10750005D02*
D03*
Y10650005D02*
D03*
Y10550006D02*
D03*
Y10450006D02*
D03*
Y10350006D02*
D03*
Y10250006D02*
D03*
Y10150006D02*
D03*
Y10050007D02*
D03*
Y9950007D02*
D03*
Y9850007D02*
D03*
Y9750002D02*
D03*
X9375099Y12250002D02*
D03*
Y12150002D02*
D03*
Y12050003D02*
D03*
Y11950003D02*
D03*
Y11850003D02*
D03*
Y11750003D02*
D03*
Y11650003D02*
D03*
Y11550004D02*
D03*
Y11450004D02*
D03*
Y11350004D02*
D03*
Y11250004D02*
D03*
Y11150004D02*
D03*
Y11050005D02*
D03*
Y10950005D02*
D03*
Y10850005D02*
D03*
Y10750005D02*
D03*
Y10650005D02*
D03*
Y10550006D02*
D03*
Y10450006D02*
D03*
Y10350006D02*
D03*
Y10250006D02*
D03*
Y10150006D02*
D03*
Y10050007D02*
D03*
Y9950007D02*
D03*
Y9850007D02*
D03*
Y9750002D02*
D03*
X9475099Y12250002D02*
D03*
Y12150002D02*
D03*
Y12050003D02*
D03*
Y11950003D02*
D03*
Y11850003D02*
D03*
Y11750003D02*
D03*
Y11650003D02*
D03*
Y11550004D02*
D03*
Y11450004D02*
D03*
Y11350004D02*
D03*
Y11250004D02*
D03*
Y11150004D02*
D03*
Y11050005D02*
D03*
Y10950005D02*
D03*
Y10850005D02*
D03*
Y10750005D02*
D03*
Y10650005D02*
D03*
Y10550006D02*
D03*
Y10450006D02*
D03*
Y10350006D02*
D03*
Y10250006D02*
D03*
Y10150006D02*
D03*
Y10050007D02*
D03*
Y9950007D02*
D03*
Y9850007D02*
D03*
Y9750002D02*
D03*
X9575099Y12250002D02*
D03*
Y12150002D02*
D03*
Y12050003D02*
D03*
Y11950003D02*
D03*
Y11850003D02*
D03*
Y11750003D02*
D03*
Y11650003D02*
D03*
Y11550004D02*
D03*
Y11450004D02*
D03*
Y11350004D02*
D03*
Y11250004D02*
D03*
Y11150004D02*
D03*
Y11050005D02*
D03*
Y10950005D02*
D03*
Y10850005D02*
D03*
Y10750005D02*
D03*
Y10650005D02*
D03*
Y10550006D02*
D03*
Y10450006D02*
D03*
Y10350006D02*
D03*
Y10250006D02*
D03*
Y10150006D02*
D03*
Y10050007D02*
D03*
Y9950007D02*
D03*
Y9850007D02*
D03*
Y9750002D02*
D03*
X9675099Y12250002D02*
D03*
Y12150002D02*
D03*
Y12050003D02*
D03*
Y11950003D02*
D03*
Y11850003D02*
D03*
Y11750003D02*
D03*
Y11650003D02*
D03*
Y11550004D02*
D03*
Y11450004D02*
D03*
Y11350004D02*
D03*
Y11250004D02*
D03*
Y11150004D02*
D03*
Y11050005D02*
D03*
Y10950005D02*
D03*
Y10850005D02*
D03*
Y10750005D02*
D03*
Y10650005D02*
D03*
Y10550006D02*
D03*
Y10450006D02*
D03*
Y10350006D02*
D03*
Y10250006D02*
D03*
Y10150006D02*
D03*
Y10050007D02*
D03*
Y9950007D02*
D03*
Y9850007D02*
D03*
Y9750002D02*
D03*
X9775098Y12250002D02*
D03*
Y12150002D02*
D03*
Y12050003D02*
D03*
Y11950003D02*
D03*
Y11850003D02*
D03*
Y11750003D02*
D03*
Y11650003D02*
D03*
Y11550004D02*
D03*
Y11450004D02*
D03*
Y11350004D02*
D03*
Y11250004D02*
D03*
Y11150004D02*
D03*
Y11050005D02*
D03*
Y10950005D02*
D03*
Y10850005D02*
D03*
Y10750005D02*
D03*
Y10650005D02*
D03*
Y10550006D02*
D03*
Y10450006D02*
D03*
Y10350006D02*
D03*
Y10250006D02*
D03*
Y10150006D02*
D03*
Y10050007D02*
D03*
Y9950007D02*
D03*
Y9850007D02*
D03*
Y9750002D02*
D03*
X9875103Y12250002D02*
D03*
Y12150002D02*
D03*
Y12050003D02*
D03*
Y11950003D02*
D03*
Y11850003D02*
D03*
Y11750003D02*
D03*
Y11650003D02*
D03*
Y11550004D02*
D03*
Y11450004D02*
D03*
Y11350004D02*
D03*
Y11250004D02*
D03*
Y11150004D02*
D03*
Y11050005D02*
D03*
Y10950005D02*
D03*
Y10850005D02*
D03*
Y10750005D02*
D03*
Y10650005D02*
D03*
Y10550006D02*
D03*
Y10450006D02*
D03*
Y10350006D02*
D03*
Y10250006D02*
D03*
Y10150006D02*
D03*
Y10050007D02*
D03*
Y9950007D02*
D03*
Y9850007D02*
D03*
Y9750002D02*
D03*
X9975103Y12250002D02*
D03*
Y12150002D02*
D03*
Y12050003D02*
D03*
Y11950003D02*
D03*
Y11850003D02*
D03*
Y11750003D02*
D03*
Y11650003D02*
D03*
Y11550004D02*
D03*
Y11450004D02*
D03*
Y11350004D02*
D03*
Y11250004D02*
D03*
Y11150004D02*
D03*
Y11050005D02*
D03*
Y10950005D02*
D03*
Y10850005D02*
D03*
Y10750005D02*
D03*
Y10650005D02*
D03*
Y10550006D02*
D03*
Y10450006D02*
D03*
Y10350006D02*
D03*
Y10250006D02*
D03*
Y10150006D02*
D03*
Y10050007D02*
D03*
Y9950007D02*
D03*
Y9850007D02*
D03*
Y9750002D02*
D03*
X10075103Y12250002D02*
D03*
Y12150002D02*
D03*
Y12050003D02*
D03*
Y11950003D02*
D03*
Y11850003D02*
D03*
Y11750003D02*
D03*
Y11650003D02*
D03*
Y11550004D02*
D03*
Y11450004D02*
D03*
Y11350004D02*
D03*
Y11250004D02*
D03*
Y11150004D02*
D03*
Y11050005D02*
D03*
Y10950005D02*
D03*
Y10850005D02*
D03*
Y10750005D02*
D03*
Y10650005D02*
D03*
Y10550006D02*
D03*
Y10450006D02*
D03*
Y10350006D02*
D03*
Y10250006D02*
D03*
Y10150006D02*
D03*
Y10050007D02*
D03*
Y9950007D02*
D03*
Y9850007D02*
D03*
Y9750002D02*
D03*
X10175103Y12250002D02*
D03*
Y12150002D02*
D03*
Y12050003D02*
D03*
Y11950003D02*
D03*
Y11850003D02*
D03*
Y11750003D02*
D03*
Y11650003D02*
D03*
Y11550004D02*
D03*
Y11450004D02*
D03*
Y11350004D02*
D03*
Y11250004D02*
D03*
Y11150004D02*
D03*
Y11050005D02*
D03*
Y10950005D02*
D03*
Y10850005D02*
D03*
Y10750005D02*
D03*
Y10650005D02*
D03*
Y10550006D02*
D03*
Y10450006D02*
D03*
Y10350006D02*
D03*
Y10250006D02*
D03*
Y10150006D02*
D03*
Y10050007D02*
D03*
Y9950007D02*
D03*
Y9850007D02*
D03*
Y9750002D02*
D03*
X10275102Y12250002D02*
D03*
Y12150002D02*
D03*
Y12050003D02*
D03*
Y11950003D02*
D03*
Y11850003D02*
D03*
Y11750003D02*
D03*
Y11650003D02*
D03*
Y11550004D02*
D03*
Y11450004D02*
D03*
Y11350004D02*
D03*
Y11250004D02*
D03*
Y11150004D02*
D03*
Y11050005D02*
D03*
Y10950005D02*
D03*
Y10850005D02*
D03*
Y10750005D02*
D03*
Y10650005D02*
D03*
Y10550006D02*
D03*
Y10450006D02*
D03*
Y10350006D02*
D03*
Y10250006D02*
D03*
Y10150006D02*
D03*
Y10050007D02*
D03*
Y9950007D02*
D03*
Y9850007D02*
D03*
Y9750002D02*
D03*
X10375102Y12250002D02*
D03*
Y12150002D02*
D03*
Y12050003D02*
D03*
Y11950003D02*
D03*
Y11850003D02*
D03*
Y11750003D02*
D03*
Y11650003D02*
D03*
Y11550004D02*
D03*
Y11450004D02*
D03*
Y11350004D02*
D03*
Y11250004D02*
D03*
Y11150004D02*
D03*
Y11050005D02*
D03*
Y10950005D02*
D03*
Y10850005D02*
D03*
Y10750005D02*
D03*
Y10650005D02*
D03*
Y10550006D02*
D03*
Y10450006D02*
D03*
Y10350006D02*
D03*
Y10250006D02*
D03*
Y10150006D02*
D03*
Y10050007D02*
D03*
Y9950007D02*
D03*
Y9850007D02*
D03*
Y9750002D02*
D03*
X10475102Y12250002D02*
D03*
Y12150002D02*
D03*
Y12050003D02*
D03*
Y11950003D02*
D03*
Y11850003D02*
D03*
Y11750003D02*
D03*
Y11650003D02*
D03*
Y11550004D02*
D03*
Y11450004D02*
D03*
Y11350004D02*
D03*
Y11250004D02*
D03*
Y11150004D02*
D03*
Y11050005D02*
D03*
Y10950005D02*
D03*
Y10850005D02*
D03*
Y10750005D02*
D03*
Y10650005D02*
D03*
Y10550006D02*
D03*
Y10450006D02*
D03*
Y10350006D02*
D03*
Y10250006D02*
D03*
Y10150006D02*
D03*
Y10050007D02*
D03*
Y9950007D02*
D03*
Y9850007D02*
D03*
Y9750002D02*
D03*
X10575102Y12250002D02*
D03*
Y12150002D02*
D03*
Y12050003D02*
D03*
Y11950003D02*
D03*
Y11850003D02*
D03*
Y11750003D02*
D03*
Y11650003D02*
D03*
Y11550004D02*
D03*
Y11450004D02*
D03*
Y11350004D02*
D03*
Y11250004D02*
D03*
Y11150004D02*
D03*
Y11050005D02*
D03*
Y10950005D02*
D03*
Y10850005D02*
D03*
Y10750005D02*
D03*
Y10650005D02*
D03*
Y10550006D02*
D03*
Y10450006D02*
D03*
Y10350006D02*
D03*
Y10250006D02*
D03*
Y10150006D02*
D03*
Y10050007D02*
D03*
Y9950007D02*
D03*
Y9850007D02*
D03*
Y9750002D02*
D03*
X10675102Y12250002D02*
D03*
Y12150002D02*
D03*
Y12050003D02*
D03*
Y11950003D02*
D03*
Y11850003D02*
D03*
Y11750003D02*
D03*
Y11650003D02*
D03*
Y11550004D02*
D03*
Y11450004D02*
D03*
Y11350004D02*
D03*
Y11250004D02*
D03*
Y11150004D02*
D03*
Y11050005D02*
D03*
Y10950005D02*
D03*
Y10850005D02*
D03*
Y10750005D02*
D03*
Y10650005D02*
D03*
Y10550006D02*
D03*
Y10450006D02*
D03*
Y10350006D02*
D03*
Y10250006D02*
D03*
Y10150006D02*
D03*
Y10050007D02*
D03*
Y9950007D02*
D03*
Y9850007D02*
D03*
Y9750002D02*
D03*
X10775101Y12250002D02*
D03*
Y12150002D02*
D03*
Y12050003D02*
D03*
Y11950003D02*
D03*
Y11850003D02*
D03*
Y11750003D02*
D03*
Y11650003D02*
D03*
Y11550004D02*
D03*
Y11450004D02*
D03*
Y11350004D02*
D03*
Y11250004D02*
D03*
Y11150004D02*
D03*
Y11050005D02*
D03*
Y10950005D02*
D03*
Y10850005D02*
D03*
Y10750005D02*
D03*
Y10650005D02*
D03*
Y10550006D02*
D03*
Y10450006D02*
D03*
Y10350006D02*
D03*
Y10250006D02*
D03*
Y10150006D02*
D03*
Y10050007D02*
D03*
Y9950007D02*
D03*
Y9850007D02*
D03*
Y9750002D02*
D03*
X10875101Y12250002D02*
D03*
Y12150002D02*
D03*
Y12050003D02*
D03*
Y11950003D02*
D03*
Y11850003D02*
D03*
Y11750003D02*
D03*
Y11650003D02*
D03*
Y11550004D02*
D03*
Y11450004D02*
D03*
Y11350004D02*
D03*
Y11250004D02*
D03*
Y11150004D02*
D03*
Y11050005D02*
D03*
Y10950005D02*
D03*
Y10850005D02*
D03*
Y10750005D02*
D03*
Y10650005D02*
D03*
Y10550006D02*
D03*
Y10450006D02*
D03*
Y10350006D02*
D03*
Y10250006D02*
D03*
Y10150006D02*
D03*
Y10050007D02*
D03*
Y9950007D02*
D03*
Y9850007D02*
D03*
Y9750002D02*
D03*
X10975101Y12250002D02*
D03*
Y12150002D02*
D03*
Y12050003D02*
D03*
Y11950003D02*
D03*
Y11850003D02*
D03*
Y11750003D02*
D03*
Y11650003D02*
D03*
Y11550004D02*
D03*
Y11450004D02*
D03*
Y11350004D02*
D03*
Y11250004D02*
D03*
Y11150004D02*
D03*
Y11050005D02*
D03*
Y10950005D02*
D03*
Y10850005D02*
D03*
Y10750005D02*
D03*
Y10650005D02*
D03*
Y10550006D02*
D03*
Y10450006D02*
D03*
Y10350006D02*
D03*
Y10250006D02*
D03*
Y10150006D02*
D03*
Y10050007D02*
D03*
Y9950007D02*
D03*
Y9850007D02*
D03*
Y9750002D02*
D03*
X11075101Y12250002D02*
D03*
Y12150002D02*
D03*
Y12050003D02*
D03*
Y11950003D02*
D03*
Y11850003D02*
D03*
Y11750003D02*
D03*
Y11650003D02*
D03*
Y11550004D02*
D03*
Y11450004D02*
D03*
Y11350004D02*
D03*
Y11250004D02*
D03*
Y11150004D02*
D03*
Y11050005D02*
D03*
Y10950005D02*
D03*
Y10850005D02*
D03*
Y10750005D02*
D03*
Y10650005D02*
D03*
Y10550006D02*
D03*
Y10450006D02*
D03*
Y10350006D02*
D03*
Y10250006D02*
D03*
Y10150006D02*
D03*
Y10050007D02*
D03*
Y9950007D02*
D03*
Y9850007D02*
D03*
Y9750002D02*
D03*
X11175101Y12250002D02*
D03*
Y12150002D02*
D03*
Y12050003D02*
D03*
Y11950003D02*
D03*
Y11850003D02*
D03*
Y11750003D02*
D03*
Y11650003D02*
D03*
Y11550004D02*
D03*
Y11450004D02*
D03*
Y11350004D02*
D03*
Y11250004D02*
D03*
Y11150004D02*
D03*
Y11050005D02*
D03*
Y10950005D02*
D03*
Y10850005D02*
D03*
Y10750005D02*
D03*
Y10650005D02*
D03*
Y10550006D02*
D03*
Y10450006D02*
D03*
Y10350006D02*
D03*
Y10250006D02*
D03*
Y10150006D02*
D03*
Y10050007D02*
D03*
Y9950007D02*
D03*
Y9850007D02*
D03*
Y9750002D02*
D03*
X11275100Y12250002D02*
D03*
Y12150002D02*
D03*
Y12050003D02*
D03*
Y11950003D02*
D03*
Y11850003D02*
D03*
Y11750003D02*
D03*
Y11650003D02*
D03*
Y11550004D02*
D03*
Y11450004D02*
D03*
Y11350004D02*
D03*
Y11250004D02*
D03*
Y11150004D02*
D03*
Y11050005D02*
D03*
Y10950005D02*
D03*
Y10850005D02*
D03*
Y10750005D02*
D03*
Y10650005D02*
D03*
Y10550006D02*
D03*
Y10450006D02*
D03*
Y10350006D02*
D03*
Y10250006D02*
D03*
Y10150006D02*
D03*
Y10050007D02*
D03*
Y9950007D02*
D03*
Y9850007D02*
D03*
Y9750002D02*
D03*
X8975100Y10550006D02*
D03*
X8775100D02*
D03*
X8875100Y10050007D02*
D03*
X8775100D02*
D03*
D38*
Y11050005D02*
D03*
D39*
X14107639Y6804859D02*
D03*
Y7594859D02*
D03*
X14488638Y6804859D02*
D03*
Y7594859D02*
D03*
X14361639Y6804859D02*
D03*
X14234639D02*
D03*
X14361639Y7594859D02*
D03*
X14234639D02*
D03*
D44*
X36028720Y508090D02*
D03*
Y358230D02*
D03*
X16291560Y14329410D02*
D03*
Y14179550D02*
D03*
X17284700Y10603230D02*
D03*
Y10453370D02*
D03*
D47*
X9561301Y14327480D02*
D03*
Y14277483D02*
D03*
Y14227480D02*
D03*
Y14177483D02*
D03*
Y14127481D02*
D03*
Y14077483D02*
D03*
Y14027481D02*
D03*
Y13977483D02*
D03*
Y13927481D02*
D03*
Y13877484D02*
D03*
Y13827481D02*
D03*
Y13777484D02*
D03*
Y13727481D02*
D03*
Y13677484D02*
D03*
Y13627483D02*
D03*
Y13577484D02*
D03*
X10456301D02*
D03*
Y13627483D02*
D03*
Y13677484D02*
D03*
Y13727481D02*
D03*
Y13777484D02*
D03*
Y13827481D02*
D03*
Y13877484D02*
D03*
Y13927481D02*
D03*
Y13977483D02*
D03*
Y14027481D02*
D03*
Y14077483D02*
D03*
Y14127481D02*
D03*
Y14177483D02*
D03*
Y14227480D02*
D03*
Y14277483D02*
D03*
Y14327480D02*
D03*
X15412126Y15277341D02*
D03*
Y15327338D02*
D03*
Y15377341D02*
D03*
Y15427338D02*
D03*
Y15477341D02*
D03*
Y15527338D02*
D03*
Y15577341D02*
D03*
Y15627338D02*
D03*
Y15677341D02*
D03*
Y15727344D02*
D03*
Y15777341D02*
D03*
Y15827342D02*
D03*
Y15877341D02*
D03*
Y15927342D02*
D03*
Y15977341D02*
D03*
Y16027342D02*
D03*
X16307126D02*
D03*
Y15977341D02*
D03*
Y15927342D02*
D03*
Y15877341D02*
D03*
Y15827342D02*
D03*
Y15777341D02*
D03*
Y15727344D02*
D03*
Y15677341D02*
D03*
Y15627338D02*
D03*
Y15577341D02*
D03*
Y15527338D02*
D03*
Y15477341D02*
D03*
Y15427338D02*
D03*
Y15377341D02*
D03*
Y15327338D02*
D03*
Y15277341D02*
D03*
D48*
X9633803Y13504982D02*
D03*
X9683800D02*
D03*
X9733803D02*
D03*
X9783800D02*
D03*
X9833803D02*
D03*
X9883800D02*
D03*
X9933802D02*
D03*
X9983800D02*
D03*
X10033802D02*
D03*
X10083799D02*
D03*
X10133802D02*
D03*
X10183799D02*
D03*
X10233802D02*
D03*
X10283799D02*
D03*
X10333802D02*
D03*
X10383799D02*
D03*
Y14399982D02*
D03*
X10333802D02*
D03*
X10283799D02*
D03*
X10233802D02*
D03*
X10183799D02*
D03*
X10133802D02*
D03*
X10083799D02*
D03*
X10033802D02*
D03*
X9983800D02*
D03*
X9933802D02*
D03*
X9883800D02*
D03*
X9833803D02*
D03*
X9783800D02*
D03*
X9733803D02*
D03*
X9683800D02*
D03*
X9633803D02*
D03*
X15484628Y16099838D02*
D03*
X15534625D02*
D03*
X15584628D02*
D03*
X15634625D02*
D03*
X15684628D02*
D03*
X15734625D02*
D03*
X15784627D02*
D03*
X15834625D02*
D03*
X15884627D02*
D03*
X15934630D02*
D03*
X15984627D02*
D03*
X16034628D02*
D03*
X16084627D02*
D03*
X16134628D02*
D03*
X16184627D02*
D03*
X16234628D02*
D03*
Y15204839D02*
D03*
X16184627D02*
D03*
X16134628D02*
D03*
X16084627D02*
D03*
X16034628D02*
D03*
X15984627D02*
D03*
X15934630D02*
D03*
X15884627D02*
D03*
X15834625D02*
D03*
X15784627D02*
D03*
X15734625D02*
D03*
X15684628D02*
D03*
X15634625D02*
D03*
X15584628D02*
D03*
X15534625D02*
D03*
X15484628D02*
D03*
D49*
X10008798Y13952486D02*
D03*
D50*
X18885880Y18157680D02*
D03*
X18820882D02*
D03*
X18755878D02*
D03*
X18690878D02*
D03*
X18885880Y17742679D02*
D03*
X18820882D02*
D03*
X18755878D02*
D03*
X18690878D02*
D03*
D51*
X15859628Y15652342D02*
D03*
D52*
X26763980Y1576040D02*
D03*
Y1858040D02*
D03*
D53*
X18132927Y15677740D02*
D03*
D54*
X18257925Y15472742D02*
D03*
X18207928D02*
D03*
X18157925D02*
D03*
X18107922D02*
D03*
X18057925D02*
D03*
Y15882738D02*
D03*
X18107922D02*
D03*
X18157925D02*
D03*
X18207928D02*
D03*
X18257925D02*
D03*
X18007924D02*
D03*
Y15472742D02*
D03*
D55*
X17927924Y15602739D02*
D03*
Y15652740D02*
D03*
Y15702739D02*
D03*
Y15752740D02*
D03*
X18337926Y15802739D02*
D03*
Y15752740D02*
D03*
Y15702739D02*
D03*
Y15652740D02*
D03*
Y15602739D02*
D03*
Y15552742D02*
D03*
X17927924Y15802739D02*
D03*
Y15552742D02*
D03*
D56*
X16423267Y18102284D02*
D03*
Y18052286D02*
D03*
X17118265Y18202283D02*
D03*
Y18052286D02*
D03*
Y18002284D02*
D03*
Y17952286D02*
D03*
Y17902284D02*
D03*
Y17852283D02*
D03*
Y17802284D02*
D03*
Y17652283D02*
D03*
X16423267D02*
D03*
Y17702284D02*
D03*
Y17752283D02*
D03*
Y17802284D02*
D03*
Y17852283D02*
D03*
Y17902284D02*
D03*
Y17952286D02*
D03*
Y18002284D02*
D03*
Y18152286D02*
D03*
Y18202283D02*
D03*
X17118265Y17752283D02*
D03*
Y17702284D02*
D03*
Y18102284D02*
D03*
Y18152286D02*
D03*
D57*
X16770763Y17927283D02*
D03*
D58*
X17045764Y17579785D02*
D03*
X16995761D02*
D03*
X16945764D02*
D03*
X16895761D02*
D03*
X16845764D02*
D03*
X16795763D02*
D03*
X16745764D02*
D03*
X16695763D02*
D03*
X16645766D02*
D03*
X16595763D02*
D03*
X16545766D02*
D03*
X16495763D02*
D03*
Y18274785D02*
D03*
X16545766D02*
D03*
X16595763D02*
D03*
X16645766D02*
D03*
X16695763D02*
D03*
X16745764D02*
D03*
X16795763D02*
D03*
X16845764D02*
D03*
X16895761D02*
D03*
X16945764D02*
D03*
X16995761D02*
D03*
X17045764D02*
D03*
D59*
X17511699Y7924502D02*
D03*
Y7859499D02*
D03*
Y7794500D02*
D03*
Y7729501D02*
D03*
Y7664498D02*
D03*
Y7599499D02*
D03*
Y7534501D02*
D03*
Y7469502D02*
D03*
Y7404498D02*
D03*
Y7339500D02*
D03*
Y7274501D02*
D03*
Y7209502D02*
D03*
Y7144499D02*
D03*
Y7079500D02*
D03*
X18071703Y7924502D02*
D03*
Y7859499D02*
D03*
Y7794500D02*
D03*
Y7729501D02*
D03*
Y7664498D02*
D03*
Y7599499D02*
D03*
Y7534501D02*
D03*
Y7469502D02*
D03*
Y7404498D02*
D03*
Y7339500D02*
D03*
Y7274501D02*
D03*
Y7209502D02*
D03*
Y7144499D02*
D03*
Y7079500D02*
D03*
D61*
X16535399Y4787899D02*
D03*
Y4914899D02*
D03*
Y5041899D02*
D03*
Y5168899D02*
D03*
Y5295899D02*
D03*
Y5422899D02*
D03*
Y5549899D02*
D03*
Y5676899D02*
D03*
X15620999Y4787899D02*
D03*
Y4914899D02*
D03*
Y5041899D02*
D03*
Y5168899D02*
D03*
Y5295899D02*
D03*
Y5422899D02*
D03*
Y5549899D02*
D03*
Y5676899D02*
D03*
D62*
X17377901Y5892600D02*
D03*
X17597899Y4292802D02*
D03*
D63*
X17377901Y5720602D02*
D03*
X17597900D02*
D03*
Y5912600D02*
D03*
X17597899Y4464801D02*
D03*
X17377899D02*
D03*
Y4272802D02*
D03*
D69*
X13843797Y4768698D02*
D03*
D70*
X14018797Y4523694D02*
D03*
X13968796D02*
D03*
X13918799D02*
D03*
X13868796D02*
D03*
X13818794D02*
D03*
X13768796D02*
D03*
X13718794D02*
D03*
X13668797D02*
D03*
Y5013696D02*
D03*
X13718794D02*
D03*
X13768796D02*
D03*
X13818794D02*
D03*
X13868796D02*
D03*
X13918799D02*
D03*
X13968796D02*
D03*
X14018797D02*
D03*
D71*
X13598795Y4593697D02*
D03*
Y4643694D02*
D03*
Y4693696D02*
D03*
Y4743694D02*
D03*
Y4793696D02*
D03*
Y4843699D02*
D03*
Y4893696D02*
D03*
Y4943699D02*
D03*
X14088795D02*
D03*
Y4893696D02*
D03*
Y4843699D02*
D03*
Y4793696D02*
D03*
Y4743694D02*
D03*
Y4693696D02*
D03*
Y4643694D02*
D03*
Y4593697D02*
D03*
D74*
X16670502Y11210999D02*
D03*
Y11083999D02*
D03*
Y10956999D02*
D03*
Y10829999D02*
D03*
Y10702999D02*
D03*
Y10575999D02*
D03*
Y10448999D02*
D03*
D78*
X16268703Y8800101D02*
D03*
Y9437102D02*
D03*
D79*
X6745102Y282133D02*
D03*
Y447131D02*
D03*
X7060524Y289966D02*
D03*
Y454965D02*
D03*
X6149304Y298493D02*
D03*
Y463491D02*
D03*
X6443745Y289399D02*
D03*
Y454398D02*
D03*
D126*
X17791701Y7502001D02*
D03*
D213*
X16835368Y14102934D02*
D03*
X16995363D02*
D03*
X7972729Y15470804D02*
D03*
X15048100Y14126109D02*
D03*
X18213992Y13860266D02*
D03*
Y14030263D02*
D03*
X18043996D02*
D03*
Y13860266D02*
D03*
D214*
X16835368Y14262932D02*
D03*
X16995363D02*
D03*
X7972729Y15630801D02*
D03*
X15048100Y13966113D02*
D03*
D215*
X18846172Y12469787D02*
D03*
X18926172D02*
D03*
D216*
X19141101Y11676271D02*
D03*
Y11791272D02*
D03*
D217*
X18802669Y12274789D02*
D03*
X18905672D02*
D03*
X18802669Y12116791D02*
D03*
X18905672D02*
D03*
D218*
X19170103Y12367771D02*
D03*
X19170169Y12477702D02*
D03*
X19328101Y12367771D02*
D03*
X19328168Y12477702D02*
D03*
Y12129702D02*
D03*
X19328101Y12019770D02*
D03*
X19170169Y12129702D02*
D03*
X19170103Y12019770D02*
D03*
D219*
X18709172Y11558710D02*
D03*
Y12568700D02*
D03*
X19529166D02*
D03*
D220*
X7812731Y15630801D02*
D03*
X14888104Y13966113D02*
D03*
D221*
X7812731Y15470804D02*
D03*
X14888104Y14126109D02*
D03*
D222*
X15940114Y10691168D02*
D03*
X15649110Y10968826D02*
D03*
X16231107D02*
D03*
D223*
Y10691232D02*
D03*
X15649110D02*
D03*
X15940114Y10968762D02*
D03*
D224*
X17155365Y14053064D02*
D03*
Y14118062D02*
D03*
Y14183066D02*
D03*
Y14248064D02*
D03*
Y14313063D02*
D03*
X16675366Y14118062D02*
D03*
Y14053064D02*
D03*
Y14313063D02*
D03*
Y14248064D02*
D03*
Y14183066D02*
D03*
X7652728Y15420802D02*
D03*
X8132727D02*
D03*
Y15485802D02*
D03*
Y15550806D02*
D03*
Y15615804D02*
D03*
Y15680801D02*
D03*
X7652728D02*
D03*
Y15615804D02*
D03*
Y15550806D02*
D03*
Y15485802D02*
D03*
X14728104Y14176109D02*
D03*
Y14111111D02*
D03*
Y14046107D02*
D03*
Y13981108D02*
D03*
Y13916110D02*
D03*
X15208102Y14111111D02*
D03*
Y14176109D02*
D03*
Y13916110D02*
D03*
Y13981108D02*
D03*
Y14046107D02*
D03*
D225*
X17045363Y13943066D02*
D03*
Y14423065D02*
D03*
X16980365D02*
D03*
X16915366D02*
D03*
X16850368D02*
D03*
X16785364D02*
D03*
Y13943066D02*
D03*
X16850368D02*
D03*
X16915366D02*
D03*
X16980365D02*
D03*
X7762725Y15310805D02*
D03*
X7827723D02*
D03*
X7892727D02*
D03*
X7957726D02*
D03*
X8022724D02*
D03*
X7827723Y15790804D02*
D03*
X7762725D02*
D03*
X8022724D02*
D03*
X7957726D02*
D03*
X7892727D02*
D03*
X14838101Y14286107D02*
D03*
Y13806108D02*
D03*
X14903099D02*
D03*
X14968103D02*
D03*
X15033102D02*
D03*
X15098100D02*
D03*
Y14286107D02*
D03*
X15033102D02*
D03*
X14968103D02*
D03*
X14903099D02*
D03*
X18258984Y13705338D02*
D03*
X18193985D02*
D03*
X18128987D02*
D03*
X18063988D02*
D03*
X17998985D02*
D03*
Y14185336D02*
D03*
X18063988D02*
D03*
X18128987D02*
D03*
X18193985D02*
D03*
X18258984D02*
D03*
D226*
X19561688Y12063758D02*
D03*
Y11973761D02*
D03*
Y11883758D02*
D03*
Y11793761D02*
D03*
Y11703759D02*
D03*
Y12153760D02*
D03*
Y12243758D02*
D03*
Y12333760D02*
D03*
Y12423757D02*
D03*
X18676691D02*
D03*
Y12333760D02*
D03*
Y12243758D02*
D03*
Y12153760D02*
D03*
Y11703759D02*
D03*
Y11793761D02*
D03*
Y11883758D02*
D03*
Y11973761D02*
D03*
Y12063758D02*
D03*
D227*
X19119189Y12606261D02*
D03*
X19209187D02*
D03*
X19299190D02*
D03*
X19389188D02*
D03*
X19029187D02*
D03*
X18939191D02*
D03*
X18849188D02*
D03*
Y11521260D02*
D03*
X18939191D02*
D03*
X19029187D02*
D03*
X19389188D02*
D03*
X19299190D02*
D03*
X19209187D02*
D03*
X19119189D02*
D03*
D228*
X7815932Y12119069D02*
D03*
Y12024068D02*
D03*
Y11929072D02*
D03*
X8075931D02*
D03*
Y12119069D02*
D03*
X16023581Y7959044D02*
D03*
Y7864043D02*
D03*
Y7769047D02*
D03*
X16283582D02*
D03*
Y7959044D02*
D03*
D229*
X10299718Y14743839D02*
D03*
X9791718D02*
D03*
X10045718D02*
D03*
Y15163837D02*
D03*
X9791718D02*
D03*
X10299718D02*
D03*
D230*
X17888992Y14075328D02*
D03*
X18368997D02*
D03*
X17888992Y14010330D02*
D03*
X18368997D02*
D03*
X17888992Y13815329D02*
D03*
X18368997D02*
D03*
X17888992Y13880328D02*
D03*
X18368997D02*
D03*
Y13945331D02*
D03*
X17888992D02*
D03*
D231*
X34683179Y369660D02*
D03*
X35083179D02*
D03*
X16265498Y4356100D02*
D03*
X15865498D02*
D03*
D232*
X8403652Y1060268D02*
D03*
X8003653Y385268D02*
D03*
Y1060268D02*
D03*
X8403652Y385268D02*
D03*
X10740452Y1047568D02*
D03*
X10340453Y372568D02*
D03*
Y1047568D02*
D03*
X10740452Y372568D02*
D03*
X9521252Y385268D02*
D03*
X9121253Y1060268D02*
D03*
Y385268D02*
D03*
X9521252Y1060268D02*
D03*
D233*
X17979198Y2729700D02*
D03*
Y2679698D02*
D03*
Y2629701D02*
D03*
X18114198D02*
D03*
Y2729700D02*
D03*
X14867702Y3086899D02*
D03*
Y3186898D02*
D03*
X15002702D02*
D03*
Y3136901D02*
D03*
Y3086899D02*
D03*
D234*
X13804799Y3410301D02*
D03*
X13404800D02*
D03*
X13004800D02*
D03*
X12604802D02*
D03*
X12204798D02*
D03*
Y1390299D02*
D03*
X12604802D02*
D03*
X13004800D02*
D03*
X13404800D02*
D03*
X13804799D02*
D03*
D235*
X14077301Y1800301D02*
D03*
Y2200300D02*
D03*
Y2600300D02*
D03*
Y3000299D02*
D03*
X11932301D02*
D03*
Y2600300D02*
D03*
Y2200300D02*
D03*
Y1800301D02*
D03*
D236*
X16309300Y1714500D02*
D03*
Y1841500D02*
D03*
X17447301D02*
D03*
Y1587500D02*
D03*
X16309300D02*
D03*
D237*
X17487900Y5216498D02*
D03*
Y4816499D02*
D03*
X17930002Y8950002D02*
D03*
Y9350001D02*
D03*
D238*
X14712898Y5170202D02*
D03*
X14547900D02*
D03*
Y5015201D02*
D03*
X14712898D02*
D03*
D239*
X15752451Y2679699D02*
D03*
Y2552699D02*
D03*
Y2425699D02*
D03*
Y2298699D02*
D03*
Y2806699D02*
D03*
Y2933699D02*
D03*
Y3060699D02*
D03*
Y3187699D02*
D03*
X16657951D02*
D03*
Y3060699D02*
D03*
Y2933699D02*
D03*
Y2806699D02*
D03*
Y2298699D02*
D03*
Y2425699D02*
D03*
Y2552699D02*
D03*
Y2679699D02*
D03*
D240*
X16719998Y8939999D02*
D03*
D241*
X17000003D02*
D03*
%TF.MD5,9f9d0af305ed4d4b0b4f0555d5337ebd*%
M02*
