%TF.GenerationSoftware,Altium Limited,Altium Designer,23.11.1 (41)*%
G04 Layer_Color=32896*
%FSLAX45Y45*%
%MOMM*%
%TF.SameCoordinates,85413206-E3E1-404A-8318-C17176F6EAC7*%
%TF.FilePolarity,Positive*%
%TF.FileFunction,Legend,Bot*%
%TF.Part,Single*%
G01*
G75*
%TA.AperFunction,NonConductor*%
%ADD108C,0.25400*%
%ADD109C,0.20000*%
%ADD110C,0.12700*%
%ADD112C,0.15240*%
%ADD113C,0.19990*%
%ADD117C,0.17780*%
D108*
X9647351Y9427262D02*
X9980091D01*
Y9620302D01*
X9647351D02*
X9980091D01*
X9647351Y9427262D02*
Y9620302D01*
X5565570Y11123984D02*
Y11317024D01*
X5232830Y11123984D02*
X5565570D01*
X5232830D02*
Y11317024D01*
X5565570D01*
X10641761Y8048042D02*
Y8276642D01*
X10179481Y8048042D02*
X10641761D01*
X10179481D02*
Y8276642D01*
X10641761D01*
X10644301Y8406182D02*
Y8634782D01*
X10182021Y8406182D02*
X10644301D01*
X10182021D02*
Y8634782D01*
X10644301D01*
X9471810Y18435825D02*
X9934090D01*
X9471810Y18207224D02*
Y18435825D01*
Y18207224D02*
X9934090D01*
Y18435825D01*
X9471810Y18986566D02*
X9934090D01*
X9471810Y18757967D02*
Y18986566D01*
Y18757967D02*
X9934090D01*
Y18986566D01*
X9471810Y19250726D02*
X9934090D01*
X9471810Y19022125D02*
Y19250726D01*
Y19022125D02*
X9934090D01*
Y19250726D01*
X9471810Y18719124D02*
X9934090D01*
X9471810Y18490524D02*
Y18719124D01*
Y18490524D02*
X9934090D01*
Y18719124D01*
X10357665Y17450600D02*
Y17912878D01*
Y17450600D02*
X10586265D01*
Y17912878D01*
X10357665D02*
X10586265D01*
X8162810Y16079338D02*
Y16307938D01*
X7700530Y16079338D02*
X8162810D01*
X7700530D02*
Y16307938D01*
X8162810D01*
X7070405Y15112276D02*
Y15340875D01*
X7532685D01*
Y15112276D02*
Y15340875D01*
X7070405Y15112276D02*
X7532685D01*
X13819701Y11505298D02*
Y11733898D01*
X14281981D01*
Y11505298D02*
Y11733898D01*
X13819701Y11505298D02*
X14281981D01*
X13819699Y11458902D02*
X14281979D01*
X13819699Y11230302D02*
Y11458902D01*
Y11230302D02*
X14281979D01*
Y11458902D01*
X13819701Y11780298D02*
X14281981D01*
Y12008898D01*
X13819701D02*
X14281981D01*
X13819701Y11780298D02*
Y12008898D01*
X17927806Y13277626D02*
X18390086D01*
Y13506226D01*
X17927806D02*
X18390086D01*
X17927806Y13277626D02*
Y13506226D01*
X16746220Y18676620D02*
X17078960D01*
X16746220Y18483580D02*
Y18676620D01*
Y18483580D02*
X17078960D01*
Y18676620D01*
X18514059Y18290540D02*
X18707100D01*
X18514059D02*
Y18623280D01*
X18707100D01*
Y18290540D02*
Y18623280D01*
X19084315Y17260570D02*
Y17593311D01*
X18891275D02*
X19084315D01*
X18891275Y17260570D02*
Y17593311D01*
Y17260570D02*
X19084315D01*
X17311369Y18293079D02*
X17644110D01*
X17311369Y18100040D02*
Y18293079D01*
Y18100040D02*
X17644110D01*
Y18293079D01*
X16226790Y15012643D02*
X16559531D01*
X16226790Y14819603D02*
Y15012643D01*
Y14819603D02*
X16559531D01*
Y15012643D01*
X15186659Y16144240D02*
X15519400D01*
Y16337280D01*
X15186659D02*
X15519400D01*
X15186659Y16144240D02*
Y16337280D01*
X14509566Y14388579D02*
Y14850859D01*
Y14388579D02*
X14738165D01*
Y14850859D01*
X14509566D02*
X14738165D01*
X15723921Y13797467D02*
Y14259747D01*
X15495322D02*
X15723921D01*
X15495322Y13797467D02*
Y14259747D01*
Y13797467D02*
X15723921D01*
X13157201Y5412740D02*
X13385802D01*
Y4950460D02*
Y5412740D01*
X13157201Y4950460D02*
X13385802D01*
X13157201D02*
Y5412740D01*
X17307732Y3759744D02*
Y3962944D01*
X16964832Y3759744D02*
X17307732D01*
X16964832D02*
Y3962944D01*
X17307732D01*
X17684749Y3759200D02*
Y3962400D01*
X17341849Y3759200D02*
X17684749D01*
X17341849D02*
Y3962400D01*
X17684749D01*
X17265829Y13371028D02*
Y13833308D01*
X17037228D02*
X17265829D01*
X17037228Y13371028D02*
Y13833308D01*
Y13371028D02*
X17265829D01*
D109*
X4644700Y16524899D02*
X4867199D01*
X4754702Y16417403D02*
Y16632404D01*
X4692198Y16189903D02*
Y16359901D01*
X4494703Y16557401D02*
X4689699Y16362401D01*
X3672200Y16557401D02*
X4494703D01*
X3672200Y16194904D02*
Y16554903D01*
X4689699Y15694904D02*
Y15864902D01*
X4494703Y15499902D02*
X4689699Y15694904D01*
X3672200Y15499902D02*
X4494703D01*
X3672200D02*
Y15859901D01*
X19699280Y13560719D02*
X19921779D01*
X19809282Y13453217D02*
Y13668217D01*
X19746783Y13225719D02*
Y13395715D01*
X19549283Y13593216D02*
X19744284Y13398221D01*
X18726781Y13593216D02*
X19549283D01*
X18726781Y13230717D02*
Y13590717D01*
X19744284Y12730719D02*
Y12900722D01*
X19549283Y12535718D02*
X19744284Y12730719D01*
X18726781Y12535718D02*
X19549283D01*
X18726781D02*
Y12895717D01*
X9028642Y9147870D02*
X9251141D01*
X9138645Y9040372D02*
Y9255373D01*
X9076140Y8812874D02*
Y8982872D01*
X8878645Y9180372D02*
X9073641Y8985371D01*
X8056142Y9180372D02*
X8878645D01*
X8056142Y8817873D02*
Y9177872D01*
X9073641Y8317874D02*
Y8487871D01*
X8878645Y8122873D02*
X9073641Y8317874D01*
X8056142Y8122873D02*
X8878645D01*
X8056142D02*
Y8482873D01*
X9648660Y16030251D02*
Y16390250D01*
X8826157D02*
X9648660D01*
X8631161Y16195248D02*
X8826157Y16390250D01*
X8631161Y16025250D02*
Y16195248D01*
X9648660Y15335249D02*
Y15695248D01*
X8826157Y15332751D02*
X9648660D01*
X8631161Y15527753D02*
X8826157Y15332751D01*
X8628662Y15530251D02*
Y15700249D01*
X8566158Y15257750D02*
Y15472749D01*
X8453661Y15365253D02*
X8676160D01*
X13468660Y14772301D02*
X13691159D01*
X13578662Y14664803D02*
Y14879803D01*
X13516158Y14437305D02*
Y14607301D01*
X13318663Y14804800D02*
X13513660Y14609801D01*
X12496160Y14804800D02*
X13318663D01*
X12496160Y14442303D02*
Y14802303D01*
X13513660Y13942303D02*
Y14112302D01*
X13318663Y13747302D02*
X13513660Y13942303D01*
X12496160Y13747302D02*
X13318663D01*
X12496160D02*
Y14107301D01*
X3674000Y14344199D02*
Y14704199D01*
Y14344199D02*
X4496502D01*
X4691498Y14539200D01*
Y14709196D01*
X3674000Y15039198D02*
Y15399199D01*
Y15401698D02*
X4496502D01*
X4691498Y15206702D01*
X4693997Y15034201D02*
Y15204198D01*
X4756502Y15261697D02*
Y15476698D01*
X4646499Y15369202D02*
X4868998D01*
X3678037Y16658263D02*
Y17018262D01*
Y16658263D02*
X4500540D01*
X4695535Y16853262D01*
Y17023260D01*
X3678037Y17353262D02*
Y17713261D01*
Y17715761D02*
X4500540D01*
X4695535Y17520766D01*
X4698035Y17348264D02*
Y17518262D01*
X4760539Y17575761D02*
Y17790762D01*
X4650537Y17683264D02*
X4873036D01*
X4962501Y11586601D02*
X5185000D01*
X5075002Y11479104D02*
Y11694104D01*
X5137502Y11751605D02*
Y11921602D01*
X5140001Y11749100D02*
X5335002Y11554105D01*
X6157499D01*
Y11556604D02*
Y11916603D01*
X5140001Y12246600D02*
Y12416602D01*
X5335002Y12611603D01*
X6157499D01*
Y12251604D02*
Y12611603D01*
X2784901Y11959505D02*
Y12319504D01*
X3607398D01*
X3802399Y12124504D01*
Y11954501D02*
Y12124504D01*
X2784901Y11264505D02*
Y11624505D01*
Y11262006D02*
X3607398D01*
X3802399Y11457002D01*
X3804899Y11459506D02*
Y11629503D01*
X3867398Y11187005D02*
Y11402006D01*
X3757401Y11294503D02*
X3979900D01*
X11563040Y6624930D02*
Y6847429D01*
X11455537Y6737426D02*
X11670538D01*
X11228040Y6799926D02*
X11398037D01*
X11400541Y6802425D02*
X11595537Y6997426D01*
Y7819929D01*
X11233038D02*
X11593038D01*
X10733039Y6802425D02*
X10903042D01*
X10538039Y6997426D02*
X10733039Y6802425D01*
X10538039Y6997426D02*
Y7819929D01*
X10898038D01*
X12654314Y11214740D02*
X13014314D01*
X12654314Y10392242D02*
Y11214740D01*
Y10392242D02*
X12849315Y10197241D01*
X13019318D01*
X13349313Y11214740D02*
X13709312D01*
X13711813Y10392242D02*
Y11214740D01*
X13516817Y10197241D02*
X13711813Y10392242D01*
X13344315Y10194742D02*
X13514313D01*
X13571812Y10132243D02*
X13786813D01*
X13679317Y10019741D02*
Y10242240D01*
X14030321Y8377738D02*
Y8737742D01*
Y8377738D02*
X14852823D01*
X15047824Y8572739D01*
Y8742741D01*
X14030321Y9072743D02*
Y9432742D01*
Y9435241D02*
X14852823D01*
X15047824Y9240241D01*
X15050323Y9067739D02*
Y9237741D01*
X15112822Y9295242D02*
Y9510243D01*
X15002820Y9402740D02*
X15225323D01*
X11163247Y15497180D02*
X11523246D01*
X11163247Y14674677D02*
Y15497180D01*
Y14674677D02*
X11358248Y14479681D01*
X11528245D01*
X11858247Y15497180D02*
X12218246D01*
X12220745Y14674677D02*
Y15497180D01*
X12025744Y14479681D02*
X12220745Y14674677D01*
X11853248Y14477182D02*
X12023245D01*
X12080745Y14414677D02*
X12295746D01*
X12188243Y14302180D02*
Y14524680D01*
X12446339Y13104703D02*
Y13327200D01*
X12338841Y13214699D02*
X12553842D01*
X12611343Y13152200D02*
X12781340D01*
X12413842Y12954700D02*
X12608838Y13149701D01*
X12413842Y12132202D02*
Y12954700D01*
X12416342Y12132202D02*
X12776341D01*
X13106339Y13149701D02*
X13276340D01*
X13471341Y12954700D01*
Y12132202D02*
Y12954700D01*
X13111342Y12132202D02*
X13471341D01*
X15715594Y11737861D02*
Y12097860D01*
Y11737861D02*
X16538097D01*
X16733093Y11932862D01*
Y12102864D01*
X15715594Y12432861D02*
Y12792860D01*
Y12795359D02*
X16538097D01*
X16733093Y12600363D01*
X16735593Y12427862D02*
Y12597859D01*
X16798097Y12655360D02*
Y12870360D01*
X16688095Y12762862D02*
X16910594D01*
X34824780Y-947040D02*
Y-587041D01*
X34002277D02*
X34824780D01*
X33807281Y-782042D02*
X34002277Y-587041D01*
X33807281Y-952039D02*
Y-782042D01*
X34824780Y-1642040D02*
Y-1282041D01*
X34002277Y-1644540D02*
X34824780D01*
X33807281Y-1449539D02*
X34002277Y-1644540D01*
X33804782Y-1447039D02*
Y-1277042D01*
X33742279Y-1719541D02*
Y-1504540D01*
X33629782Y-1612038D02*
X33852280D01*
X36348779Y-947040D02*
Y-587041D01*
X35526279D02*
X36348779D01*
X35331281Y-782042D02*
X35526279Y-587041D01*
X35331281Y-952039D02*
Y-782042D01*
X36348779Y-1642040D02*
Y-1282041D01*
X35526279Y-1644540D02*
X36348779D01*
X35331281Y-1449539D02*
X35526279Y-1644540D01*
X35328784Y-1447039D02*
Y-1277042D01*
X35266278Y-1719541D02*
Y-1504540D01*
X35153781Y-1612038D02*
X35376282D01*
X14064796Y16442802D02*
X14424802D01*
X14064796Y15620299D02*
Y16442802D01*
Y15620299D02*
X14259798Y15425298D01*
X14429800D01*
X14759802Y16442802D02*
X15119801D01*
X15122301Y15620299D02*
Y16442802D01*
X14927299Y15425298D02*
X15122301Y15620299D01*
X14754799Y15422800D02*
X14924802D01*
X14982301Y15360300D02*
X15197302D01*
X15089799Y15247798D02*
Y15470302D01*
X11926084Y12363338D02*
X12286083D01*
Y13185835D01*
X12091087Y13380836D02*
X12286083Y13185835D01*
X11921085Y13380836D02*
X12091087D01*
X11231084Y12363338D02*
X11591083D01*
X11228584D02*
Y13185835D01*
X11423585Y13380836D01*
X11426085Y13383336D02*
X11596087D01*
X11153583Y13445840D02*
X11368584D01*
X11261086Y13335838D02*
Y13558337D01*
X14200172Y18640086D02*
X14560178D01*
X14200172Y17817589D02*
Y18640086D01*
Y17817589D02*
X14395174Y17622589D01*
X14565175D01*
X14895177Y18640086D02*
X15255176D01*
X15257677Y17817589D02*
Y18640086D01*
X15062675Y17622589D02*
X15257677Y17817589D01*
X14890173Y17620090D02*
X15060176D01*
X15117676Y17557585D02*
X15332677D01*
X15225174Y17445088D02*
Y17667587D01*
D110*
X17017999Y11131551D02*
Y11296651D01*
X16941798D02*
X17017999D01*
X16941798Y11131551D02*
Y11296651D01*
Y11131551D02*
X17017999D01*
X6543661Y12331012D02*
X6873861D01*
X6543661Y12000812D02*
X6873861D01*
Y12331012D01*
X6543661Y12000812D02*
Y12331012D01*
X8978125Y14723753D02*
Y15053954D01*
X9308325Y14723753D02*
Y15053954D01*
X8978125Y14723753D02*
X9308325D01*
X8978125Y15053954D02*
X9308325D01*
X6302615Y13557535D02*
X6467715D01*
Y13633736D01*
X6302615D02*
X6467715D01*
X6302615Y13557535D02*
Y13633736D01*
X9997871Y12152682D02*
X10162971D01*
Y12228882D01*
X9997871D02*
X10162971D01*
X9997871Y12152682D02*
Y12228882D01*
Y11822482D02*
X10162971D01*
X9997871Y11746282D02*
Y11822482D01*
Y11746282D02*
X10162971D01*
Y11822482D01*
X9115221Y11587532D02*
X9191421D01*
X9115221D02*
Y11752632D01*
X9191421D01*
Y11587532D02*
Y11752632D01*
X9197771Y9752384D02*
Y9828584D01*
X9362871D01*
Y9752384D02*
Y9828584D01*
X9197771Y9752384D02*
X9362871D01*
X9153321Y9873032D02*
Y10038132D01*
X9077121D02*
X9153321D01*
X9077121Y9873032D02*
Y10038132D01*
Y9873032D02*
X9153321D01*
X9496221Y9923832D02*
X9572421D01*
X9496221D02*
Y10088932D01*
X9572421D01*
Y9923832D02*
Y10088932D01*
X9400971Y10730282D02*
X9566071D01*
X9400971Y10654082D02*
Y10730282D01*
Y10654082D02*
X9566071D01*
Y10730282D01*
X9489871Y10387382D02*
Y10463582D01*
X9324771Y10387382D02*
X9489871D01*
X9324771D02*
Y10463582D01*
X9489871D01*
X9991521Y10990632D02*
X10067721D01*
X9991521D02*
Y11155732D01*
X10067721D01*
Y10990632D02*
Y11155732D01*
X9959771Y10958882D02*
Y11035082D01*
X9794671Y10958882D02*
X9959771D01*
X9794671D02*
Y11035082D01*
X9959771D01*
X9483521Y11574832D02*
X9559721D01*
X9483521D02*
Y11739932D01*
X9559721D01*
Y11574832D02*
Y11739932D01*
X10201071Y11339882D02*
Y11416082D01*
X10035971Y11339882D02*
X10201071D01*
X10035971D02*
Y11416082D01*
X10201071D01*
X8899321Y11422432D02*
X8975521D01*
X8899321D02*
Y11587532D01*
X8975521D01*
Y11422432D02*
Y11587532D01*
X4059352Y10737904D02*
X4224452D01*
Y10814104D01*
X4059352D02*
X4224452D01*
X4059352Y10737904D02*
Y10814104D01*
X4224452Y9315504D02*
Y9391704D01*
X4059352Y9315504D02*
X4224452D01*
X4059352D02*
Y9391704D01*
X4224452D01*
X4059350Y9137701D02*
Y9213901D01*
X4224450D01*
Y9137701D02*
Y9213901D01*
X4059350Y9137701D02*
X4224450D01*
X4224452Y10026704D02*
Y10102904D01*
X4059352Y10026704D02*
X4224452D01*
X4059352D02*
Y10102904D01*
X4224452D01*
X4059352Y10204504D02*
X4224452D01*
Y10280704D01*
X4059352D02*
X4224452D01*
X4059352Y10204504D02*
Y10280704D01*
X4059350Y10636301D02*
X4224450D01*
X4059350Y10560101D02*
Y10636301D01*
Y10560101D02*
X4224450D01*
Y10636301D01*
Y10382301D02*
Y10458501D01*
X4059350Y10382301D02*
X4224450D01*
X4059350D02*
Y10458501D01*
X4224450D01*
X4224452Y9671104D02*
Y9747304D01*
X4059352Y9671104D02*
X4224452D01*
X4059352D02*
Y9747304D01*
X4224452D01*
X4059350Y9848901D02*
Y9925101D01*
X4224450D01*
Y9848901D02*
Y9925101D01*
X4059350Y9848901D02*
X4224450D01*
X3208450Y10610901D02*
Y10687101D01*
X3373550D01*
Y10610901D02*
Y10687101D01*
X3208450Y10610901D02*
X3373550D01*
X3208450Y10483901D02*
X3373550D01*
Y10560101D01*
X3208450D02*
X3373550D01*
X3208450Y10483901D02*
Y10560101D01*
Y10102901D02*
X3373550D01*
Y10179101D01*
X3208450D02*
X3373550D01*
X3208450Y10102901D02*
Y10179101D01*
Y10229901D02*
X3373550D01*
Y10306101D01*
X3208450D02*
X3373550D01*
X3208450Y10229901D02*
Y10306101D01*
Y9975901D02*
X3373550D01*
Y10052101D01*
X3208450D02*
X3373550D01*
X3208450Y9975901D02*
Y10052101D01*
Y10356901D02*
Y10433101D01*
X3373550D01*
Y10356901D02*
Y10433101D01*
X3208450Y10356901D02*
X3373550D01*
X3208450Y10737901D02*
X3373550D01*
Y10814101D01*
X3208450D02*
X3373550D01*
X3208450Y10737901D02*
Y10814101D01*
Y9848901D02*
Y9925101D01*
X3373550D01*
Y9848901D02*
Y9925101D01*
X3208450Y9848901D02*
X3373550D01*
X10055021Y10457232D02*
Y10622332D01*
X9978821D02*
X10055021D01*
X9978821Y10457232D02*
Y10622332D01*
Y10457232D02*
X10055021D01*
X10048671Y10260384D02*
Y10336584D01*
X10213771D01*
Y10260384D02*
Y10336584D01*
X10048671Y10260384D02*
X10213771D01*
X10137571Y9739682D02*
X10302671D01*
X10137571Y9663482D02*
Y9739682D01*
Y9663482D02*
X10302671D01*
Y9739682D01*
X9978822Y10025432D02*
X10055022D01*
Y9860332D02*
Y10025432D01*
X9978822Y9860332D02*
X10055022D01*
X9978822D02*
Y10025432D01*
X9991521Y10787432D02*
Y10952532D01*
Y10787432D02*
X10067721D01*
Y10952532D01*
X9991521D02*
X10067721D01*
X4630852Y11182401D02*
X4795952D01*
Y11258601D01*
X4630852D02*
X4795952D01*
X4630852Y11182401D02*
Y11258601D01*
X10771414Y9695886D02*
X10847614D01*
X10771414D02*
Y9860986D01*
X10847614D01*
Y9695886D02*
Y9860986D01*
X10944021Y11549432D02*
Y11714532D01*
X10867821D02*
X10944021D01*
X10867821Y11549432D02*
Y11714532D01*
Y11549432D02*
X10944021D01*
X11040540Y9761272D02*
X11116740D01*
X11040540D02*
Y9926372D01*
X11116740D01*
Y9761272D02*
Y9926372D01*
X10696371Y11123982D02*
X10861471D01*
X10696371Y11047782D02*
Y11123982D01*
Y11047782D02*
X10861471D01*
Y11123982D01*
X10930921Y10267132D02*
Y10432232D01*
X10854721D02*
X10930921D01*
X10854721Y10267132D02*
Y10432232D01*
Y10267132D02*
X10930921D01*
X10635152Y10061803D02*
Y10138003D01*
X10470052Y10061803D02*
X10635152D01*
X10470052D02*
Y10138003D01*
X10635152D01*
X10099471Y10958882D02*
Y11035082D01*
X10264571D01*
Y10958882D02*
Y11035082D01*
X10099471Y10958882D02*
X10264571D01*
X10582071Y10679482D02*
X10747171D01*
X10582071Y10603282D02*
Y10679482D01*
Y10603282D02*
X10747171D01*
Y10679482D01*
X5570650Y9683804D02*
X5735750D01*
Y9607604D02*
Y9683804D01*
X5570650Y9607604D02*
X5735750D01*
X5570650D02*
Y9683804D01*
X3208451Y9467902D02*
X3373551D01*
Y9544102D01*
X3208451D02*
X3373551D01*
X3208451Y9467902D02*
Y9544102D01*
X3208450Y9340901D02*
X3373550D01*
Y9417101D01*
X3208450D02*
X3373550D01*
X3208450Y9340901D02*
Y9417101D01*
Y9213901D02*
X3373550D01*
Y9290101D01*
X3208450D02*
X3373550D01*
X3208450Y9213901D02*
Y9290101D01*
Y9594901D02*
Y9671101D01*
X3373550D01*
Y9594901D02*
Y9671101D01*
X3208450Y9594901D02*
X3373550D01*
X3208450Y9721901D02*
X3373550D01*
Y9798101D01*
X3208450D02*
X3373550D01*
X3208450Y9721901D02*
Y9798101D01*
X4684402Y8661452D02*
X5014602D01*
X4684402Y8331252D02*
X5014602D01*
Y8661452D01*
X4684402Y8331252D02*
Y8661452D01*
X8733145Y17211971D02*
X8898245D01*
Y17288171D01*
X8733145D02*
X8898245D01*
X8733145Y17211971D02*
Y17288171D01*
X8748201Y17469556D02*
Y17634656D01*
Y17469556D02*
X8824401D01*
Y17634656D01*
X8748201D02*
X8824401D01*
X14622362Y12353494D02*
X14787460D01*
Y12429694D01*
X14622362D02*
X14787460D01*
X14622362Y12353494D02*
Y12429694D01*
X10749295Y14280739D02*
Y14356940D01*
X10584195Y14280739D02*
X10749295D01*
X10584195D02*
Y14356940D01*
X10749295D01*
X10580385Y14047060D02*
X10745485D01*
Y14123259D01*
X10580385D02*
X10745485D01*
X10580385Y14047060D02*
Y14123259D01*
X10314955Y13202509D02*
Y13367609D01*
X10238755D02*
X10314955D01*
X10238755Y13202509D02*
Y13367609D01*
Y13202509D02*
X10314955D01*
X9264665Y14276788D02*
X9429765D01*
Y14352989D01*
X9264665D02*
X9429765D01*
X9264665Y14276788D02*
Y14352989D01*
X16846550Y18244820D02*
Y18321019D01*
X16681450Y18244820D02*
X16846550D01*
X16681450D02*
Y18321019D01*
X16846550D01*
X17400270Y17924779D02*
Y18000980D01*
X17235170Y17924779D02*
X17400270D01*
X17235170D02*
Y18000980D01*
X17400270D01*
X17084039Y17917160D02*
X17160240D01*
Y17752060D02*
Y17917160D01*
X17084039Y17752060D02*
X17160240D01*
X17084039D02*
Y17917160D01*
X17232629Y17901894D02*
X17397729D01*
X17232629Y17825693D02*
Y17901894D01*
Y17825693D02*
X17397729D01*
Y17901894D01*
X16893541Y18983575D02*
X16969740D01*
Y19148676D01*
X16893541D02*
X16969740D01*
X16893541Y18983575D02*
Y19148676D01*
X16918939Y18794730D02*
Y18959830D01*
X16842738Y18794730D02*
X16918939D01*
X16842738D02*
Y18959830D01*
X16918939D01*
X17022647Y18795592D02*
Y18960690D01*
X16946448Y18795592D02*
X17022647D01*
X16946448D02*
Y18960690D01*
X17022647D01*
X16758920Y17326610D02*
Y17491710D01*
Y17326610D02*
X16835121D01*
Y17491710D01*
X16758920D02*
X16835121D01*
X18752820Y18548351D02*
Y18713451D01*
Y18548351D02*
X18829021D01*
Y18713451D01*
X18752820D02*
X18829021D01*
X18862041Y17214850D02*
Y17379950D01*
X18785840D02*
X18862041D01*
X18785840Y17214850D02*
Y17379950D01*
Y17214850D02*
X18862041D01*
X18082260Y15960120D02*
Y16518919D01*
Y15960120D02*
X18285460D01*
Y16518919D01*
X18082260D02*
X18285460D01*
X18135600Y14777721D02*
Y15336520D01*
Y14777721D02*
X18338800D01*
Y15336520D01*
X18135600D02*
X18338800D01*
X16653535Y15788612D02*
X16818636D01*
X16653535Y15712413D02*
Y15788612D01*
Y15712413D02*
X16818636D01*
Y15788612D01*
X16465550Y15712416D02*
Y15788615D01*
X16630650D01*
Y15712416D02*
Y15788615D01*
X16465550Y15712416D02*
X16630650D01*
X16463010Y15613330D02*
Y15689529D01*
X16628110D01*
Y15613330D02*
Y15689529D01*
X16463010Y15613330D02*
X16628110D01*
X16650995Y15689528D02*
X16816095D01*
X16650995Y15613329D02*
Y15689528D01*
Y15613329D02*
X16816095D01*
Y15689528D01*
X16841521Y15661641D02*
Y15737840D01*
X17006621D01*
Y15661641D02*
Y15737840D01*
X16841521Y15661641D02*
X17006621D01*
X16384270Y15041879D02*
Y15118079D01*
X16219170Y15041879D02*
X16384270D01*
X16219170D02*
Y15118079D01*
X16384270D01*
X17084039Y17940045D02*
X17160240D01*
X17084039D02*
Y18105145D01*
X17160240D01*
Y17940045D02*
Y18105145D01*
X16885921Y18242281D02*
Y18318480D01*
X17051019D01*
Y18242281D02*
Y18318480D01*
X16885921Y18242281D02*
X17051019D01*
X16821150Y17543779D02*
Y17619978D01*
X16656050Y17543779D02*
X16821150D01*
X16656050D02*
Y17619978D01*
X16821150D01*
X16336011Y16177258D02*
Y16253459D01*
X16170911Y16177258D02*
X16336011D01*
X16170911D02*
Y16253459D01*
X16336011D01*
X16866870Y17541241D02*
Y17617441D01*
X17031970D01*
Y17541241D02*
Y17617441D01*
X16866870Y17541241D02*
X17031970D01*
X16410968Y17180139D02*
Y17345239D01*
Y17180139D02*
X16487167D01*
Y17345239D01*
X16410968D02*
X16487167D01*
X16358069Y16990611D02*
X16434270D01*
X16358069D02*
Y17155711D01*
X16434270D01*
Y16990611D02*
Y17155711D01*
X16311906Y17180139D02*
Y17345239D01*
Y17180139D02*
X16388106D01*
Y17345239D01*
X16311906D02*
X16388106D01*
X16377280Y18899690D02*
X16453479D01*
Y18734590D02*
Y18899690D01*
X16377280Y18734590D02*
X16453479D01*
X16377280D02*
Y18899690D01*
X16502145Y18528011D02*
Y18693111D01*
X16425945D02*
X16502145D01*
X16425945Y18528011D02*
Y18693111D01*
Y18528011D02*
X16502145D01*
X16403084D02*
Y18693111D01*
X16326884D02*
X16403084D01*
X16326884Y18528011D02*
Y18693111D01*
Y18528011D02*
X16403084D01*
X15626517Y17706979D02*
Y17783180D01*
X15791615D01*
Y17706979D02*
Y17783180D01*
X15626517Y17706979D02*
X15791615D01*
X15826958Y17735725D02*
X15992056D01*
X15826958Y17659526D02*
Y17735725D01*
Y17659526D02*
X15992056D01*
Y17735725D01*
X15827560Y17834811D02*
X15992661D01*
X15827560Y17758611D02*
Y17834811D01*
Y17758611D02*
X15992661D01*
Y17834811D01*
X15627737Y17907500D02*
Y17983701D01*
X15792838D01*
Y17907500D02*
Y17983701D01*
X15627737Y17907500D02*
X15792838D01*
X15827560Y17933897D02*
X15992661D01*
X15827560Y17857697D02*
Y17933897D01*
Y17857697D02*
X15992661D01*
Y17933897D01*
X15828178Y18032982D02*
X15993279D01*
X15828178Y17956783D02*
Y18032982D01*
Y17956783D02*
X15993279D01*
Y18032982D01*
X15993895Y18055869D02*
Y18132068D01*
X15828795Y18055869D02*
X15993895D01*
X15828795D02*
Y18132068D01*
X15993895D01*
X15828178Y18231152D02*
X15993279D01*
X15828178Y18154953D02*
Y18231152D01*
Y18154953D02*
X15993279D01*
Y18231152D01*
X15628355Y18104732D02*
Y18180931D01*
X15793456D01*
Y18104732D02*
Y18180931D01*
X15628355Y18104732D02*
X15793456D01*
X17106900Y7588250D02*
X17183099D01*
X17106900D02*
Y7753350D01*
X17183099D01*
Y7588250D02*
Y7753350D01*
X17208501Y7588250D02*
Y7753350D01*
Y7588250D02*
X17284700D01*
Y7753350D01*
X17208501D02*
X17284700D01*
X18300700Y7715250D02*
X18376900D01*
Y7550150D02*
Y7715250D01*
X18300700Y7550150D02*
X18376900D01*
X18300700D02*
Y7715250D01*
X16954500Y7410450D02*
Y7575550D01*
Y7410450D02*
X17030701D01*
Y7575550D01*
X16954500D02*
X17030701D01*
X16954500Y7588250D02*
Y7753350D01*
Y7588250D02*
X17030701D01*
Y7753350D01*
X16954500D02*
X17030701D01*
X17076698Y1539900D02*
Y1939900D01*
X16476701Y1539900D02*
X17076698D01*
X16476701D02*
Y1939900D01*
X17076698D01*
X14008101Y4933950D02*
X14084302D01*
Y4768850D02*
Y4933950D01*
X14008101Y4768850D02*
X14084302D01*
X14008101D02*
Y4933950D01*
X13836650Y4927599D02*
Y5003799D01*
X13671550Y4927599D02*
X13836650D01*
X13671550D02*
Y5003799D01*
X13836650D01*
X15887698Y5429250D02*
X15963899D01*
X15887698D02*
Y5594350D01*
X15963899D01*
Y5429250D02*
Y5594350D01*
X15887701Y5048250D02*
X15963901D01*
Y4883150D02*
Y5048250D01*
X15887701Y4883150D02*
X15963901D01*
X15887701D02*
Y5048250D01*
X14592299Y4451350D02*
Y4616450D01*
X14516100D02*
X14592299D01*
X14516100Y4451350D02*
Y4616450D01*
Y4451350D02*
X14592299D01*
X14465298D02*
Y4616450D01*
X14389099D02*
X14465298D01*
X14389099Y4451350D02*
Y4616450D01*
Y4451350D02*
X14465298D01*
X14192250Y5105399D02*
Y5181599D01*
X14027150Y5105399D02*
X14192250D01*
X14027150D02*
Y5181599D01*
X14192250D01*
X16579849Y10922001D02*
Y10998201D01*
X16744949D01*
Y10922001D02*
Y10998201D01*
X16579849Y10922001D02*
X16744949D01*
X16941800Y11074400D02*
X17017999D01*
Y10909300D02*
Y11074400D01*
X16941800Y10909300D02*
X17017999D01*
X16941800D02*
Y11074400D01*
X16941801Y10712450D02*
X17018002D01*
Y10547350D02*
Y10712450D01*
X16941801Y10547350D02*
X17018002D01*
X16941801D02*
Y10712450D01*
X16579849Y11049001D02*
X16744949D01*
Y11125201D01*
X16579849D02*
X16744949D01*
X16579849Y11049001D02*
Y11125201D01*
X14381310Y3680516D02*
X14711510D01*
X14381310Y3350316D02*
X14711510D01*
Y3680516D01*
X14381310Y3350316D02*
Y3680516D01*
X16107413Y6884959D02*
X16437611D01*
X16107413Y6554759D02*
X16437611D01*
Y6884959D01*
X16107413Y6554759D02*
Y6884959D01*
X17466530Y16595120D02*
X17796730D01*
X17466530Y16264920D02*
X17796730D01*
Y16595120D01*
X17466530Y16264920D02*
Y16595120D01*
D112*
X17980659Y16391920D02*
X18056860D01*
X18018761Y16353819D02*
Y16430020D01*
X18034000Y15209520D02*
X18110201D01*
X18072099Y15171420D02*
Y15247620D01*
X4975490Y8772371D02*
X5019502D01*
Y8739361D01*
X4997496D01*
X5019502D01*
Y8706352D01*
X4953483Y8772371D02*
X4931477D01*
X4942480D01*
Y8706352D01*
X4953483D01*
X4931477D01*
X4898468Y8772371D02*
Y8706352D01*
X4865458D01*
X4854455Y8717355D01*
Y8761368D01*
X4865458Y8772371D01*
X4898468D01*
X4799440Y8706352D02*
Y8772371D01*
X4832449Y8739361D01*
X4788437D01*
X14672397Y3791435D02*
X14716409D01*
Y3758425D01*
X14694403D01*
X14716409D01*
Y3725416D01*
X14650391Y3791435D02*
X14628384D01*
X14639388D01*
Y3725416D01*
X14650391D01*
X14628384D01*
X14595375Y3791435D02*
Y3725416D01*
X14562366D01*
X14551363Y3736419D01*
Y3780432D01*
X14562366Y3791435D01*
X14595375D01*
X14529356Y3725416D02*
X14507350D01*
X14518353D01*
Y3791435D01*
X14529356Y3780432D01*
X16398500Y6995877D02*
X16442513D01*
Y6962868D01*
X16420506D01*
X16442513D01*
Y6929859D01*
X16376494Y6995877D02*
X16354488D01*
X16365491D01*
Y6929859D01*
X16376494D01*
X16354488D01*
X16321478Y6995877D02*
Y6929859D01*
X16288469D01*
X16277466Y6940862D01*
Y6984874D01*
X16288469Y6995877D01*
X16321478D01*
X16255460Y6984874D02*
X16244456Y6995877D01*
X16222450D01*
X16211447Y6984874D01*
Y6973871D01*
X16222450Y6962868D01*
X16233453D01*
X16222450D01*
X16211447Y6951865D01*
Y6940862D01*
X16222450Y6929859D01*
X16244456D01*
X16255460Y6940862D01*
X17757617Y16706039D02*
X17801630D01*
Y16673029D01*
X17779623D01*
X17801630D01*
Y16640021D01*
X17735611Y16706039D02*
X17713605D01*
X17724608D01*
Y16640021D01*
X17735611D01*
X17713605D01*
X17680595Y16706039D02*
Y16640021D01*
X17647586D01*
X17636583Y16651022D01*
Y16695036D01*
X17647586Y16706039D01*
X17680595D01*
X17570564D02*
X17614577D01*
Y16673029D01*
X17592570Y16684032D01*
X17581567D01*
X17570564Y16673029D01*
Y16651022D01*
X17581567Y16640021D01*
X17603574D01*
X17614577Y16651022D01*
D113*
X6242925Y13660266D02*
Y13812666D01*
X6529945D01*
Y13660266D02*
Y13812666D01*
X6242925Y13660266D02*
X6529945D01*
X9137665Y14097859D02*
Y14250259D01*
X9424685D01*
Y14097859D02*
Y14250259D01*
X9137665Y14097859D02*
X9424685D01*
X10864865Y13747339D02*
Y13899739D01*
X10577845Y13747339D02*
X10864865D01*
X10577845D02*
Y13899739D01*
X10864865D01*
D117*
X10125898Y11253922D02*
X10140710Y11268734D01*
X10170334D01*
X10185145Y11253922D01*
Y11194674D01*
X10170334Y11179862D01*
X10140710D01*
X10125898Y11194674D01*
X10096274Y11179862D02*
X10066650D01*
X10081462D01*
Y11268734D01*
X10096274Y11253922D01*
X10022215D02*
X10007403Y11268734D01*
X9977779D01*
X9962967Y11253922D01*
Y11239110D01*
X9977779Y11224298D01*
X9992591D01*
X9977779D01*
X9962967Y11209486D01*
Y11194674D01*
X9977779Y11179862D01*
X10007403D01*
X10022215Y11194674D01*
X9874096Y11268734D02*
X9903720Y11253922D01*
X9933344Y11224298D01*
Y11194674D01*
X9918532Y11179862D01*
X9888908D01*
X9874096Y11194674D01*
Y11209486D01*
X9888908Y11224298D01*
X9933344D01*
X3112373Y9789626D02*
X3127185Y9804438D01*
X3156809D01*
X3171621Y9789626D01*
Y9730379D01*
X3156809Y9715567D01*
X3127185D01*
X3112373Y9730379D01*
X3082749Y9715567D02*
X3053126D01*
X3067938D01*
Y9804438D01*
X3082749Y9789626D01*
X3008690D02*
X2993878Y9804438D01*
X2964255D01*
X2949443Y9789626D01*
Y9730379D01*
X2964255Y9715567D01*
X2993878D01*
X3008690Y9730379D01*
Y9789626D01*
X2919819D02*
X2905007Y9804438D01*
X2875383D01*
X2860571Y9789626D01*
Y9730379D01*
X2875383Y9715567D01*
X2905007D01*
X2919819Y9730379D01*
Y9789626D01*
X3409067Y16547169D02*
X3423879Y16561983D01*
X3453502D01*
X3468314Y16547169D01*
Y16487923D01*
X3453502Y16473111D01*
X3423879D01*
X3409067Y16487923D01*
X3379443Y16473111D02*
X3349819D01*
X3364631D01*
Y16561983D01*
X3379443Y16547169D01*
X3246136Y16561983D02*
X3305384D01*
Y16517546D01*
X3275760Y16532358D01*
X3260948D01*
X3246136Y16517546D01*
Y16487923D01*
X3260948Y16473111D01*
X3290572D01*
X3305384Y16487923D01*
X3157265Y16561983D02*
X3186888Y16547169D01*
X3216512Y16517546D01*
Y16487923D01*
X3201700Y16473111D01*
X3172077D01*
X3157265Y16487923D01*
Y16502734D01*
X3172077Y16517546D01*
X3216512D01*
X6815653Y12469025D02*
X6874900D01*
Y12424590D01*
X6845277D01*
X6874900D01*
Y12380154D01*
X6786029Y12469025D02*
X6756405D01*
X6771217D01*
Y12380154D01*
X6786029D01*
X6756405D01*
X6711970Y12469025D02*
Y12380154D01*
X6667534D01*
X6652722Y12394966D01*
Y12454213D01*
X6667534Y12469025D01*
X6711970D01*
X6563851D02*
X6593475Y12454213D01*
X6623099Y12424590D01*
Y12394966D01*
X6608287Y12380154D01*
X6578663D01*
X6563851Y12394966D01*
Y12409778D01*
X6578663Y12424590D01*
X6623099D01*
X9240360Y15187114D02*
X9299608D01*
Y15142677D01*
X9269984D01*
X9299608D01*
Y15098244D01*
X9210737Y15187114D02*
X9181113D01*
X9195925D01*
Y15098244D01*
X9210737D01*
X9181113D01*
X9136677Y15187114D02*
Y15098244D01*
X9092242D01*
X9077430Y15113054D01*
Y15172302D01*
X9092242Y15187114D01*
X9136677D01*
X8988559Y15098244D02*
X9047806D01*
X8988559Y15157491D01*
Y15172302D01*
X9003371Y15187114D01*
X9032994D01*
X9047806Y15172302D01*
X34928073Y-412261D02*
X34942886Y-397449D01*
X34972507D01*
X34987320Y-412261D01*
Y-471508D01*
X34972507Y-486320D01*
X34942886D01*
X34928073Y-471508D01*
X34898450Y-397449D02*
X34839200Y-486320D01*
Y-397449D02*
X34898450Y-486320D01*
X34750330D02*
X34809579D01*
X34750330Y-427072D01*
Y-412261D01*
X34765143Y-397449D01*
X34794766D01*
X34809579Y-412261D01*
X36452072D02*
X36466885Y-397449D01*
X36496509D01*
X36511319Y-412261D01*
Y-471508D01*
X36496509Y-486320D01*
X36466885D01*
X36452072Y-471508D01*
X36422449Y-397449D02*
X36363202Y-486320D01*
Y-397449D02*
X36422449Y-486320D01*
X36333578D02*
X36303955D01*
X36318765D01*
Y-397449D01*
X36333578Y-412261D01*
X18911659Y18876071D02*
Y18787199D01*
X18852412D01*
X18822789Y18802013D02*
X18807977Y18787199D01*
X18778352D01*
X18763541Y18802013D01*
Y18861259D01*
X18778352Y18876071D01*
X18807977D01*
X18822789Y18861259D01*
Y18846448D01*
X18807977Y18831636D01*
X18763541D01*
X18748138Y17341837D02*
Y17252963D01*
X18688892D01*
X18659268Y17327023D02*
X18644456Y17341837D01*
X18614832D01*
X18600020Y17327023D01*
Y17312212D01*
X18614832Y17297400D01*
X18600020Y17282588D01*
Y17267776D01*
X18614832Y17252963D01*
X18644456D01*
X18659268Y17267776D01*
Y17282588D01*
X18644456Y17297400D01*
X18659268Y17312212D01*
Y17327023D01*
X18644456Y17297400D02*
X18614832D01*
X18273293Y15485599D02*
X18288104Y15500410D01*
X18317728D01*
X18332539Y15485599D01*
Y15426352D01*
X18317728Y15411540D01*
X18288104D01*
X18273293Y15426352D01*
X18184421Y15411540D02*
X18243669D01*
X18184421Y15470789D01*
Y15485599D01*
X18199232Y15500410D01*
X18228857D01*
X18243669Y15485599D01*
X18110362Y15411540D02*
Y15500410D01*
X18154797Y15455975D01*
X18095551D01*
X18065926Y15485599D02*
X18051115Y15500410D01*
X18021490D01*
X18006679Y15485599D01*
Y15470789D01*
X18021490Y15455975D01*
X18006679Y15441164D01*
Y15426352D01*
X18021490Y15411540D01*
X18051115D01*
X18065926Y15426352D01*
Y15441164D01*
X18051115Y15455975D01*
X18065926Y15470789D01*
Y15485599D01*
X18051115Y15455975D02*
X18021490D01*
X18258054Y16666699D02*
X18272865Y16681511D01*
X18302489D01*
X18317300Y16666699D01*
Y16607452D01*
X18302489Y16592641D01*
X18272865D01*
X18258054Y16607452D01*
X18169180Y16592641D02*
X18228429D01*
X18169180Y16651888D01*
Y16666699D01*
X18183994Y16681511D01*
X18213617D01*
X18228429Y16666699D01*
X18095122Y16592641D02*
Y16681511D01*
X18139558Y16637076D01*
X18080310D01*
X18050687Y16666699D02*
X18035875Y16681511D01*
X18006252D01*
X17991438Y16666699D01*
Y16651888D01*
X18006252Y16637076D01*
X18021063D01*
X18006252D01*
X17991438Y16622264D01*
Y16607452D01*
X18006252Y16592641D01*
X18035875D01*
X18050687Y16607452D01*
X3112373Y9535626D02*
X3127185Y9550438D01*
X3156809D01*
X3171621Y9535626D01*
Y9476379D01*
X3156809Y9461567D01*
X3127185D01*
X3112373Y9476379D01*
X3082749Y9461567D02*
X3053126D01*
X3067938D01*
Y9550438D01*
X3082749Y9535626D01*
X3008690D02*
X2993878Y9550438D01*
X2964255D01*
X2949443Y9535626D01*
Y9476379D01*
X2964255Y9461567D01*
X2993878D01*
X3008690Y9476379D01*
Y9535626D01*
X2919819D02*
X2905007Y9550438D01*
X2875383D01*
X2860571Y9535626D01*
Y9520814D01*
X2875383Y9506002D01*
X2890195D01*
X2875383D01*
X2860571Y9491191D01*
Y9476379D01*
X2875383Y9461567D01*
X2905007D01*
X2919819Y9476379D01*
X4022521Y9131367D02*
Y9220238D01*
X3978085D01*
X3963273Y9205426D01*
Y9175802D01*
X3978085Y9160991D01*
X4022521D01*
X3992897D02*
X3963273Y9131367D01*
X3933649Y9205426D02*
X3918838Y9220238D01*
X3889214D01*
X3874402Y9205426D01*
Y9190614D01*
X3889214Y9175802D01*
X3904026D01*
X3889214D01*
X3874402Y9160991D01*
Y9146179D01*
X3889214Y9131367D01*
X3918838D01*
X3933649Y9146179D01*
X3800343Y9131367D02*
Y9220238D01*
X3844778Y9175802D01*
X3785531D01*
X4022521Y9309167D02*
Y9398038D01*
X3978085D01*
X3963273Y9383226D01*
Y9353602D01*
X3978085Y9338791D01*
X4022521D01*
X3992897D02*
X3963273Y9309167D01*
X3874402D02*
X3933649D01*
X3874402Y9368414D01*
Y9383226D01*
X3889214Y9398038D01*
X3918838D01*
X3933649Y9383226D01*
X3785531Y9398038D02*
X3844778D01*
Y9353602D01*
X3815154Y9368414D01*
X3800343D01*
X3785531Y9353602D01*
Y9323979D01*
X3800343Y9309167D01*
X3829966D01*
X3844778Y9323979D01*
X4022521Y9664767D02*
Y9753638D01*
X3978085D01*
X3963273Y9738826D01*
Y9709202D01*
X3978085Y9694391D01*
X4022521D01*
X3992897D02*
X3963273Y9664767D01*
X3933649Y9738826D02*
X3918838Y9753638D01*
X3889214D01*
X3874402Y9738826D01*
Y9724014D01*
X3889214Y9709202D01*
X3904026D01*
X3889214D01*
X3874402Y9694391D01*
Y9679579D01*
X3889214Y9664767D01*
X3918838D01*
X3933649Y9679579D01*
X3844778Y9738826D02*
X3829966Y9753638D01*
X3800343D01*
X3785531Y9738826D01*
Y9679579D01*
X3800343Y9664767D01*
X3829966D01*
X3844778Y9679579D01*
Y9738826D01*
X4022521Y9842567D02*
Y9931438D01*
X3978085D01*
X3963273Y9916626D01*
Y9887002D01*
X3978085Y9872191D01*
X4022521D01*
X3992897D02*
X3963273Y9842567D01*
X3933649Y9916626D02*
X3918838Y9931438D01*
X3889214D01*
X3874402Y9916626D01*
Y9901814D01*
X3889214Y9887002D01*
X3904026D01*
X3889214D01*
X3874402Y9872191D01*
Y9857379D01*
X3889214Y9842567D01*
X3918838D01*
X3933649Y9857379D01*
X3844778Y9931438D02*
X3785531D01*
Y9916626D01*
X3844778Y9857379D01*
Y9842567D01*
X4022521Y10020367D02*
Y10109238D01*
X3978085D01*
X3963273Y10094426D01*
Y10064802D01*
X3978085Y10049991D01*
X4022521D01*
X3992897D02*
X3963273Y10020367D01*
X3874402D02*
X3933649D01*
X3874402Y10079614D01*
Y10094426D01*
X3889214Y10109238D01*
X3918838D01*
X3933649Y10094426D01*
X3800343Y10020367D02*
Y10109238D01*
X3844778Y10064802D01*
X3785531D01*
X4022521Y10198167D02*
Y10287038D01*
X3978085D01*
X3963273Y10272226D01*
Y10242602D01*
X3978085Y10227791D01*
X4022521D01*
X3992897D02*
X3963273Y10198167D01*
X3933649Y10272226D02*
X3918838Y10287038D01*
X3889214D01*
X3874402Y10272226D01*
Y10257414D01*
X3889214Y10242602D01*
X3904026D01*
X3889214D01*
X3874402Y10227791D01*
Y10212979D01*
X3889214Y10198167D01*
X3918838D01*
X3933649Y10212979D01*
X3844778Y10272226D02*
X3829966Y10287038D01*
X3800343D01*
X3785531Y10272226D01*
Y10257414D01*
X3800343Y10242602D01*
X3785531Y10227791D01*
Y10212979D01*
X3800343Y10198167D01*
X3829966D01*
X3844778Y10212979D01*
Y10227791D01*
X3829966Y10242602D01*
X3844778Y10257414D01*
Y10272226D01*
X3829966Y10242602D02*
X3800343D01*
X4022521Y10375967D02*
Y10464838D01*
X3978085D01*
X3963273Y10450026D01*
Y10420402D01*
X3978085Y10405591D01*
X4022521D01*
X3992897D02*
X3963273Y10375967D01*
X3874402D02*
X3933649D01*
X3874402Y10435214D01*
Y10450026D01*
X3889214Y10464838D01*
X3918838D01*
X3933649Y10450026D01*
X3785531Y10464838D02*
X3815154Y10450026D01*
X3844778Y10420402D01*
Y10390779D01*
X3829966Y10375967D01*
X3800343D01*
X3785531Y10390779D01*
Y10405591D01*
X3800343Y10420402D01*
X3844778D01*
X4022521Y10553767D02*
Y10642638D01*
X3978085D01*
X3963273Y10627826D01*
Y10598202D01*
X3978085Y10583391D01*
X4022521D01*
X3992897D02*
X3963273Y10553767D01*
X3933649D02*
X3904026D01*
X3918838D01*
Y10642638D01*
X3933649Y10627826D01*
X3859590Y10568579D02*
X3844778Y10553767D01*
X3815155D01*
X3800343Y10568579D01*
Y10627826D01*
X3815155Y10642638D01*
X3844778D01*
X3859590Y10627826D01*
Y10613014D01*
X3844778Y10598202D01*
X3800343D01*
X4022521Y10731567D02*
Y10820438D01*
X3978085D01*
X3963273Y10805626D01*
Y10776002D01*
X3978085Y10761191D01*
X4022521D01*
X3992897D02*
X3963273Y10731567D01*
X3933649Y10805626D02*
X3918838Y10820438D01*
X3889214D01*
X3874402Y10805626D01*
Y10790814D01*
X3889214Y10776002D01*
X3904026D01*
X3889214D01*
X3874402Y10761191D01*
Y10746379D01*
X3889214Y10731567D01*
X3918838D01*
X3933649Y10746379D01*
X3785531Y10820438D02*
X3815154Y10805626D01*
X3844778Y10776002D01*
Y10746379D01*
X3829966Y10731567D01*
X3800343D01*
X3785531Y10746379D01*
Y10761191D01*
X3800343Y10776002D01*
X3844778D01*
X3112373Y9662626D02*
X3127185Y9677438D01*
X3156809D01*
X3171621Y9662626D01*
Y9603379D01*
X3156809Y9588567D01*
X3127185D01*
X3112373Y9603379D01*
X3082749Y9588567D02*
X3053126D01*
X3067938D01*
Y9677438D01*
X3082749Y9662626D01*
X3008690Y9588567D02*
X2979066D01*
X2993878D01*
Y9677438D01*
X3008690Y9662626D01*
X2890195Y9588567D02*
Y9677438D01*
X2934631Y9633002D01*
X2875383D01*
X3112373Y9916626D02*
X3127185Y9931438D01*
X3156809D01*
X3171621Y9916626D01*
Y9857379D01*
X3156809Y9842567D01*
X3127185D01*
X3112373Y9857379D01*
X3082749Y9842567D02*
X3053126D01*
X3067938D01*
Y9931438D01*
X3082749Y9916626D01*
X3008690Y9842567D02*
X2979066D01*
X2993878D01*
Y9931438D01*
X3008690Y9916626D01*
X2934631D02*
X2919819Y9931438D01*
X2890195D01*
X2875383Y9916626D01*
Y9901814D01*
X2890195Y9887002D01*
X2905007D01*
X2890195D01*
X2875383Y9872191D01*
Y9857379D01*
X2890195Y9842567D01*
X2919819D01*
X2934631Y9857379D01*
X3112373Y10678626D02*
X3127185Y10693438D01*
X3156809D01*
X3171621Y10678626D01*
Y10619379D01*
X3156809Y10604567D01*
X3127185D01*
X3112373Y10619379D01*
X3082749Y10604567D02*
X3053126D01*
X3067938D01*
Y10693438D01*
X3082749Y10678626D01*
X3008690Y10604567D02*
X2979066D01*
X2993878D01*
Y10693438D01*
X3008690Y10678626D01*
X2875383Y10604567D02*
X2934631D01*
X2875383Y10663814D01*
Y10678626D01*
X2890195Y10693438D01*
X2919819D01*
X2934631Y10678626D01*
X17266920Y8088529D02*
X17178049D01*
Y8044094D01*
X17192860Y8029282D01*
X17222484D01*
X17237296Y8044094D01*
Y8088529D01*
Y8058906D02*
X17266920Y8029282D01*
Y7999658D02*
Y7970034D01*
Y7984846D01*
X17178049D01*
X17192860Y7999658D01*
X17178049Y7866351D02*
Y7925599D01*
X17222484D01*
X17207672Y7895975D01*
Y7881163D01*
X17222484Y7866351D01*
X17252107D01*
X17266920Y7881163D01*
Y7910787D01*
X17252107Y7925599D01*
Y7836728D02*
X17266920Y7821916D01*
Y7792292D01*
X17252107Y7777480D01*
X17192860D01*
X17178049Y7792292D01*
Y7821916D01*
X17192860Y7836728D01*
X17207672D01*
X17222484Y7821916D01*
Y7777480D01*
X16924020Y7626364D02*
Y7715236D01*
X16879584D01*
X16864772Y7700424D01*
Y7670800D01*
X16879584Y7655988D01*
X16924020D01*
X16894395D02*
X16864772Y7626364D01*
X16835149D02*
X16805525D01*
X16820337D01*
Y7715236D01*
X16835149Y7700424D01*
X16701842Y7715236D02*
X16761089D01*
Y7670800D01*
X16731467Y7685612D01*
X16716653D01*
X16701842Y7670800D01*
Y7641176D01*
X16716653Y7626364D01*
X16746278D01*
X16761089Y7641176D01*
X16612971Y7715236D02*
X16672218D01*
Y7670800D01*
X16642593Y7685612D01*
X16627783D01*
X16612971Y7670800D01*
Y7641176D01*
X16627783Y7626364D01*
X16657407D01*
X16672218Y7641176D01*
X16924020Y7448564D02*
Y7537436D01*
X16879584D01*
X16864772Y7522624D01*
Y7493000D01*
X16879584Y7478188D01*
X16924020D01*
X16894395D02*
X16864772Y7448564D01*
X16835149D02*
X16805525D01*
X16820337D01*
Y7537436D01*
X16835149Y7522624D01*
X16701842Y7537436D02*
X16761089D01*
Y7493000D01*
X16731467Y7507812D01*
X16716653D01*
X16701842Y7493000D01*
Y7463376D01*
X16716653Y7448564D01*
X16746278D01*
X16761089Y7463376D01*
X16627783Y7448564D02*
Y7537436D01*
X16672218Y7493000D01*
X16612971D01*
X16750015Y15586024D02*
X16661143D01*
Y15541589D01*
X16675957Y15526778D01*
X16705580D01*
X16720392Y15541589D01*
Y15586024D01*
Y15556401D02*
X16750015Y15526778D01*
Y15497153D02*
Y15467529D01*
Y15482343D01*
X16661143D01*
X16675957Y15497153D01*
X16661143Y15363847D02*
Y15423094D01*
X16705580D01*
X16690768Y15393469D01*
Y15378659D01*
X16705580Y15363847D01*
X16735204D01*
X16750015Y15378659D01*
Y15408282D01*
X16735204Y15423094D01*
X16675957Y15334222D02*
X16661143Y15319411D01*
Y15289787D01*
X16675957Y15274976D01*
X16690768D01*
X16705580Y15289787D01*
Y15304599D01*
Y15289787D01*
X16720392Y15274976D01*
X16735204D01*
X16750015Y15289787D01*
Y15319411D01*
X16735204Y15334222D01*
X16742397Y16129585D02*
X16653523D01*
Y16085149D01*
X16668336Y16070337D01*
X16697960D01*
X16712772Y16085149D01*
Y16129585D01*
Y16099960D02*
X16742397Y16070337D01*
Y16040714D02*
Y16011090D01*
Y16025902D01*
X16653523D01*
X16668336Y16040714D01*
X16653523Y15907407D02*
Y15966653D01*
X16697960D01*
X16683148Y15937030D01*
Y15922218D01*
X16697960Y15907407D01*
X16727583D01*
X16742397Y15922218D01*
Y15951842D01*
X16727583Y15966653D01*
X16742397Y15818535D02*
Y15877783D01*
X16683148Y15818535D01*
X16668336D01*
X16653523Y15833347D01*
Y15862971D01*
X16668336Y15877783D01*
X16327496Y17857234D02*
Y17946104D01*
X16283060D01*
X16268248Y17931293D01*
Y17901669D01*
X16283060Y17886858D01*
X16327496D01*
X16297871D02*
X16268248Y17857234D01*
X16238625D02*
X16209001D01*
X16223813D01*
Y17946104D01*
X16238625Y17931293D01*
X16164565D02*
X16149754Y17946104D01*
X16120129D01*
X16105318Y17931293D01*
Y17916481D01*
X16120129Y17901669D01*
X16134943D01*
X16120129D01*
X16105318Y17886858D01*
Y17872046D01*
X16120129Y17857234D01*
X16149754D01*
X16164565Y17872046D01*
X16016447Y17946104D02*
X16046069Y17931293D01*
X16075694Y17901669D01*
Y17872046D01*
X16060883Y17857234D01*
X16031259D01*
X16016447Y17872046D01*
Y17886858D01*
X16031259Y17901669D01*
X16075694D01*
X16324068Y18067255D02*
Y18156125D01*
X16279633D01*
X16264821Y18141313D01*
Y18111690D01*
X16279633Y18096877D01*
X16324068D01*
X16294444D02*
X16264821Y18067255D01*
X16235197D02*
X16205573D01*
X16220386D01*
Y18156125D01*
X16235197Y18141313D01*
X16161137D02*
X16146326Y18156125D01*
X16116702D01*
X16101891Y18141313D01*
Y18126501D01*
X16116702Y18111690D01*
X16131514D01*
X16116702D01*
X16101891Y18096877D01*
Y18082065D01*
X16116702Y18067255D01*
X16146326D01*
X16161137Y18082065D01*
X16013019Y18156125D02*
X16072267D01*
Y18111690D01*
X16042644Y18126501D01*
X16027831D01*
X16013019Y18111690D01*
Y18082065D01*
X16027831Y18067255D01*
X16057455D01*
X16072267Y18082065D01*
X16320955Y17950447D02*
Y18039317D01*
X16276520D01*
X16261708Y18024506D01*
Y17994882D01*
X16276520Y17980070D01*
X16320955D01*
X16291331D02*
X16261708Y17950447D01*
X16232085D02*
X16202460D01*
X16217271D01*
Y18039317D01*
X16232085Y18024506D01*
X16158025D02*
X16143213Y18039317D01*
X16113589D01*
X16098776Y18024506D01*
Y18009694D01*
X16113589Y17994882D01*
X16128401D01*
X16113589D01*
X16098776Y17980070D01*
Y17965257D01*
X16113589Y17950447D01*
X16143213D01*
X16158025Y17965257D01*
X16024718Y17950447D02*
Y18039317D01*
X16069154Y17994882D01*
X16009906D01*
X16325876Y18136259D02*
Y18225131D01*
X16281441D01*
X16266628Y18210320D01*
Y18180696D01*
X16281441Y18165884D01*
X16325876D01*
X16296252D02*
X16266628Y18136259D01*
X16237006D02*
X16207381D01*
X16222192D01*
Y18225131D01*
X16237006Y18210320D01*
X16162946D02*
X16148134Y18225131D01*
X16118510D01*
X16103699Y18210320D01*
Y18195508D01*
X16118510Y18180696D01*
X16133322D01*
X16118510D01*
X16103699Y18165884D01*
Y18151073D01*
X16118510Y18136259D01*
X16148134D01*
X16162946Y18151073D01*
X16074074Y18210320D02*
X16059262Y18225131D01*
X16029639D01*
X16014825Y18210320D01*
Y18195508D01*
X16029639Y18180696D01*
X16044450D01*
X16029639D01*
X16014825Y18165884D01*
Y18151073D01*
X16029639Y18136259D01*
X16059262D01*
X16074074Y18151073D01*
X16523959Y19030899D02*
X16435088D01*
Y18986464D01*
X16449899Y18971652D01*
X16479524D01*
X16494334Y18986464D01*
Y19030899D01*
Y19001276D02*
X16523959Y18971652D01*
Y18942027D02*
Y18912404D01*
Y18927216D01*
X16435088D01*
X16449899Y18942027D01*
X16523959Y18808720D02*
Y18867969D01*
X16464713Y18808720D01*
X16449899D01*
X16435088Y18823534D01*
Y18853157D01*
X16449899Y18867969D01*
Y18779097D02*
X16435088Y18764285D01*
Y18734662D01*
X16449899Y18719850D01*
X16464713D01*
X16479524Y18734662D01*
X16494334Y18719850D01*
X16509148D01*
X16523959Y18734662D01*
Y18764285D01*
X16509148Y18779097D01*
X16494334D01*
X16479524Y18764285D01*
X16464713Y18779097D01*
X16449899D01*
X16479524Y18764285D02*
Y18734662D01*
X16329378Y17751031D02*
Y17839903D01*
X16284941D01*
X16270129Y17825092D01*
Y17795467D01*
X16284941Y17780655D01*
X16329378D01*
X16299753D02*
X16270129Y17751031D01*
X16240504D02*
X16210883D01*
X16225694D01*
Y17839903D01*
X16240504Y17825092D01*
X16107199Y17751031D02*
X16166446D01*
X16107199Y17810278D01*
Y17825092D01*
X16122011Y17839903D01*
X16151634D01*
X16166446Y17825092D01*
X16077576Y17839903D02*
X16018327D01*
Y17825092D01*
X16077576Y17765843D01*
Y17751031D01*
X16394418Y19027089D02*
X16305548D01*
Y18982652D01*
X16320360Y18967841D01*
X16349985D01*
X16364795Y18982652D01*
Y19027089D01*
Y18997466D02*
X16394418Y18967841D01*
Y18938219D02*
Y18908594D01*
Y18923405D01*
X16305548D01*
X16320360Y18938219D01*
X16394418Y18804910D02*
Y18864159D01*
X16335172Y18804910D01*
X16320360D01*
X16305548Y18819724D01*
Y18849347D01*
X16320360Y18864159D01*
X16305548Y18716040D02*
X16320360Y18745663D01*
X16349985Y18775287D01*
X16379607D01*
X16394418Y18760475D01*
Y18730852D01*
X16379607Y18716040D01*
X16364795D01*
X16349985Y18730852D01*
Y18775287D01*
X16337602Y17641350D02*
Y17730222D01*
X16293167D01*
X16278355Y17715408D01*
Y17685785D01*
X16293167Y17670975D01*
X16337602D01*
X16307977D02*
X16278355Y17641350D01*
X16248730D02*
X16219107D01*
X16233919D01*
Y17730222D01*
X16248730Y17715408D01*
X16115424Y17641350D02*
X16174670D01*
X16115424Y17700597D01*
Y17715408D01*
X16130235Y17730222D01*
X16159860D01*
X16174670Y17715408D01*
X16026553Y17730222D02*
X16085800D01*
Y17685785D01*
X16056177Y17700597D01*
X16041365D01*
X16026553Y17685785D01*
Y17656161D01*
X16041365Y17641350D01*
X16070988D01*
X16085800Y17656161D01*
X16376662Y17671158D02*
X16287791D01*
Y17626723D01*
X16302603Y17611909D01*
X16332227D01*
X16347038Y17626723D01*
Y17671158D01*
Y17641534D02*
X16376662Y17611909D01*
Y17582286D02*
Y17552663D01*
Y17567474D01*
X16287791D01*
X16302603Y17582286D01*
X16376662Y17508228D02*
Y17478603D01*
Y17493414D01*
X16287791D01*
X16302603Y17508228D01*
X16361850Y17434167D02*
X16376662Y17419356D01*
Y17389732D01*
X16361850Y17374921D01*
X16302603D01*
X16287791Y17389732D01*
Y17419356D01*
X16302603Y17434167D01*
X16317413D01*
X16332227Y17419356D01*
Y17374921D01*
X16506203Y17678740D02*
X16417331D01*
Y17634305D01*
X16432143Y17619493D01*
X16461766D01*
X16476578Y17634305D01*
Y17678740D01*
Y17649117D02*
X16506203Y17619493D01*
Y17589870D02*
Y17560245D01*
Y17575056D01*
X16417331D01*
X16432143Y17589870D01*
X16506203Y17515810D02*
Y17486186D01*
Y17500998D01*
X16417331D01*
X16432143Y17515810D01*
X16417331Y17441750D02*
Y17382503D01*
X16432143D01*
X16491389Y17441750D01*
X16506203D01*
X16808437Y18804933D02*
X16719563D01*
Y18849368D01*
X16734377Y18864182D01*
X16764000D01*
X16778812Y18849368D01*
Y18804933D01*
Y18834557D02*
X16808437Y18864182D01*
Y18893803D02*
Y18923428D01*
Y18908617D01*
X16719563D01*
X16734377Y18893803D01*
X16808437Y18967863D02*
Y18997488D01*
Y18982677D01*
X16719563D01*
X16734377Y18967863D01*
X16808437Y19041924D02*
Y19071547D01*
Y19056735D01*
X16719563D01*
X16734377Y19041924D01*
X17151337Y18805360D02*
X17062463D01*
Y18849797D01*
X17077277Y18864609D01*
X17106900D01*
X17121712Y18849797D01*
Y18805360D01*
Y18834985D02*
X17151337Y18864609D01*
Y18894234D02*
Y18923856D01*
Y18909044D01*
X17062463D01*
X17077277Y18894234D01*
X17151337Y18968292D02*
Y18997916D01*
Y18983104D01*
X17062463D01*
X17077277Y18968292D01*
Y19042351D02*
X17062463Y19057162D01*
Y19086787D01*
X17077277Y19101599D01*
X17136523D01*
X17151337Y19086787D01*
Y19057162D01*
X17136523Y19042351D01*
X17077277D01*
X17737405Y17811765D02*
Y17900636D01*
X17692969D01*
X17678157Y17885825D01*
Y17856200D01*
X17692969Y17841388D01*
X17737405D01*
X17707780D02*
X17678157Y17811765D01*
X17648534D02*
X17618910D01*
X17633722D01*
Y17900636D01*
X17648534Y17885825D01*
X17574474D02*
X17559662Y17900636D01*
X17530038D01*
X17515227Y17885825D01*
Y17826576D01*
X17530038Y17811765D01*
X17559662D01*
X17574474Y17826576D01*
Y17885825D01*
X17485603Y17900636D02*
X17426355D01*
Y17885825D01*
X17485603Y17826576D01*
Y17811765D01*
X16856696Y17297984D02*
X16767824D01*
Y17253549D01*
X16782635Y17238737D01*
X16812260D01*
X16827072Y17253549D01*
Y17297984D01*
Y17268361D02*
X16856696Y17238737D01*
Y17209113D02*
Y17179491D01*
Y17194302D01*
X16767824D01*
X16782635Y17209113D01*
Y17135054D02*
X16767824Y17120242D01*
Y17090619D01*
X16782635Y17075807D01*
X16841884D01*
X16856696Y17090619D01*
Y17120242D01*
X16841884Y17135054D01*
X16782635D01*
X16856696Y16986935D02*
Y17046182D01*
X16797449Y16986935D01*
X16782635D01*
X16767824Y17001747D01*
Y17031371D01*
X16782635Y17046182D01*
X14453371Y5099064D02*
Y5187936D01*
X14408936D01*
X14394122Y5173124D01*
Y5143500D01*
X14408936Y5128688D01*
X14453371D01*
X14423746D02*
X14394122Y5099064D01*
X14364499Y5173124D02*
X14349687Y5187936D01*
X14320062D01*
X14305251Y5173124D01*
Y5158312D01*
X14320062Y5143500D01*
X14305251Y5128688D01*
Y5113876D01*
X14320062Y5099064D01*
X14349687D01*
X14364499Y5113876D01*
Y5128688D01*
X14349687Y5143500D01*
X14364499Y5158312D01*
Y5173124D01*
X14349687Y5143500D02*
X14320062D01*
X14275629Y5173124D02*
X14260815Y5187936D01*
X14231192D01*
X14216380Y5173124D01*
Y5113876D01*
X14231192Y5099064D01*
X14260815D01*
X14275629Y5113876D01*
Y5173124D01*
X17673320Y3992880D02*
Y4081751D01*
X17628883D01*
X17614072Y4066939D01*
Y4037316D01*
X17628883Y4022504D01*
X17673320D01*
X17643697D02*
X17614072Y3992880D01*
X17584448Y4081751D02*
X17525201D01*
Y4066939D01*
X17584448Y4007692D01*
Y3992880D01*
X17495576Y4081751D02*
X17436330D01*
Y4066939D01*
X17495576Y4007692D01*
Y3992880D01*
X16976262Y3729264D02*
Y3640392D01*
X17020699D01*
X17035510Y3655204D01*
Y3684828D01*
X17020699Y3699640D01*
X16976262D01*
X17005885D02*
X17035510Y3729264D01*
X17065134Y3640392D02*
X17124380D01*
Y3655204D01*
X17065134Y3714452D01*
Y3729264D01*
X17213252Y3640392D02*
X17183629Y3655204D01*
X17154005Y3684828D01*
Y3714452D01*
X17168817Y3729264D01*
X17198441D01*
X17213252Y3714452D01*
Y3699640D01*
X17198441Y3684828D01*
X17154005D01*
X10303600Y13443040D02*
Y13531911D01*
X10259165D01*
X10244353Y13517099D01*
Y13487476D01*
X10259165Y13472664D01*
X10303600D01*
X10273976D02*
X10244353Y13443040D01*
X10155481Y13531911D02*
X10185105Y13517099D01*
X10214729Y13487476D01*
Y13457852D01*
X10199917Y13443040D01*
X10170293D01*
X10155481Y13457852D01*
Y13472664D01*
X10170293Y13487476D01*
X10214729D01*
X10125858Y13443040D02*
X10096234D01*
X10111046D01*
Y13531911D01*
X10125858Y13517099D01*
X10732860Y14197420D02*
Y14286292D01*
X10688425D01*
X10673613Y14271478D01*
Y14241856D01*
X10688425Y14227045D01*
X10732860D01*
X10703236D02*
X10673613Y14197420D01*
X10584741Y14286292D02*
X10614365Y14271478D01*
X10643989Y14241856D01*
Y14212231D01*
X10629177Y14197420D01*
X10599553D01*
X10584741Y14212231D01*
Y14227045D01*
X10599553Y14241856D01*
X10643989D01*
X10555118Y14271478D02*
X10540306Y14286292D01*
X10510682D01*
X10495870Y14271478D01*
Y14212231D01*
X10510682Y14197420D01*
X10540306D01*
X10555118Y14212231D01*
Y14271478D01*
X9417140Y14428560D02*
Y14517432D01*
X9372705D01*
X9357893Y14502618D01*
Y14472997D01*
X9372705Y14458183D01*
X9417140D01*
X9387516D02*
X9357893Y14428560D01*
X9269021Y14517432D02*
X9328269D01*
Y14472997D01*
X9298645Y14487808D01*
X9283833D01*
X9269021Y14472997D01*
Y14443372D01*
X9283833Y14428560D01*
X9313457D01*
X9328269Y14443372D01*
X9239398D02*
X9224586Y14428560D01*
X9194962D01*
X9180150Y14443372D01*
Y14502618D01*
X9194962Y14517432D01*
X9224586D01*
X9239398Y14502618D01*
Y14487808D01*
X9224586Y14472997D01*
X9180150D01*
X9173641Y9746047D02*
Y9834918D01*
X9129205D01*
X9114393Y9820106D01*
Y9790482D01*
X9129205Y9775671D01*
X9173641D01*
X9144017D02*
X9114393Y9746047D01*
X9040334D02*
Y9834918D01*
X9084769Y9790482D01*
X9025522D01*
X8995898Y9820106D02*
X8981086Y9834918D01*
X8951463D01*
X8936651Y9820106D01*
Y9805294D01*
X8951463Y9790482D01*
X8936651Y9775671D01*
Y9760859D01*
X8951463Y9746047D01*
X8981086D01*
X8995898Y9760859D01*
Y9775671D01*
X8981086Y9790482D01*
X8995898Y9805294D01*
Y9820106D01*
X8981086Y9790482D02*
X8951463D01*
X9972485Y10049562D02*
X10061356D01*
Y10093998D01*
X10046544Y10108810D01*
X10016921D01*
X10002109Y10093998D01*
Y10049562D01*
Y10079186D02*
X9972485Y10108810D01*
Y10182869D02*
X10061356D01*
X10016921Y10138433D01*
Y10197681D01*
X10061356Y10227305D02*
Y10286552D01*
X10046544D01*
X9987297Y10227305D01*
X9972485D01*
X10024541Y10254047D02*
Y10342918D01*
X9980105D01*
X9965293Y10328106D01*
Y10298482D01*
X9980105Y10283671D01*
X10024541D01*
X9994917D02*
X9965293Y10254047D01*
X9891234D02*
Y10342918D01*
X9935669Y10298482D01*
X9876422D01*
X9787551Y10342918D02*
X9817174Y10328106D01*
X9846798Y10298482D01*
Y10268859D01*
X9831986Y10254047D01*
X9802363D01*
X9787551Y10268859D01*
Y10283671D01*
X9802363Y10298482D01*
X9846798D01*
X11181896Y9951787D02*
Y10040658D01*
X11137460D01*
X11122648Y10025846D01*
Y9996222D01*
X11137460Y9981411D01*
X11181896D01*
X11152272D02*
X11122648Y9951787D01*
X11048589D02*
Y10040658D01*
X11093025Y9996222D01*
X11033777D01*
X10944906Y9951787D02*
X11004153D01*
X10944906Y10011034D01*
Y10025846D01*
X10959718Y10040658D01*
X10989341D01*
X11004153Y10025846D01*
X10903038Y9889586D02*
Y9978457D01*
X10858603D01*
X10843791Y9963645D01*
Y9934022D01*
X10858603Y9919210D01*
X10903038D01*
X10873414D02*
X10843791Y9889586D01*
X10769731D02*
Y9978457D01*
X10814167Y9934022D01*
X10754919D01*
X10725296Y9889586D02*
X10695672D01*
X10710484D01*
Y9978457D01*
X10725296Y9963645D01*
X5722913Y9488251D02*
Y9577122D01*
X5678477D01*
X5663665Y9562310D01*
Y9532687D01*
X5678477Y9517875D01*
X5722913D01*
X5693289D02*
X5663665Y9488251D01*
X5634041Y9562310D02*
X5619230Y9577122D01*
X5589606D01*
X5574794Y9562310D01*
Y9547499D01*
X5589606Y9532687D01*
X5604418D01*
X5589606D01*
X5574794Y9517875D01*
Y9503063D01*
X5589606Y9488251D01*
X5619230D01*
X5634041Y9503063D01*
X5545170D02*
X5530358Y9488251D01*
X5500734D01*
X5485922Y9503063D01*
Y9562310D01*
X5500734Y9577122D01*
X5530358D01*
X5545170Y9562310D01*
Y9547499D01*
X5530358Y9532687D01*
X5485922D01*
X8831332Y17415021D02*
Y17326149D01*
X8875768D01*
X8890580Y17340961D01*
Y17370586D01*
X8875768Y17385397D01*
X8831332D01*
X8860956D02*
X8890580Y17415021D01*
X8920204D02*
X8949827D01*
X8935015D01*
Y17326149D01*
X8920204Y17340961D01*
X8994263Y17326149D02*
X9053510D01*
Y17340961D01*
X8994263Y17400209D01*
Y17415021D01*
X8886280Y17362260D02*
Y17451131D01*
X8841845D01*
X8827033Y17436319D01*
Y17406696D01*
X8841845Y17391884D01*
X8886280D01*
X8856656D02*
X8827033Y17362260D01*
X8797409D02*
X8767785D01*
X8782597D01*
Y17451131D01*
X8797409Y17436319D01*
X8664102Y17451131D02*
X8693726Y17436319D01*
X8723350Y17406696D01*
Y17377072D01*
X8708538Y17362260D01*
X8678914D01*
X8664102Y17377072D01*
Y17391884D01*
X8678914Y17406696D01*
X8723350D01*
X16733521Y10802649D02*
Y10891520D01*
X16689084D01*
X16674272Y10876708D01*
Y10847084D01*
X16689084Y10832272D01*
X16733521D01*
X16703896D02*
X16674272Y10802649D01*
X16585400Y10891520D02*
X16644649D01*
Y10847084D01*
X16615025Y10861896D01*
X16600214D01*
X16585400Y10847084D01*
Y10817460D01*
X16600214Y10802649D01*
X16629837D01*
X16644649Y10817460D01*
X17048480Y10558780D02*
X17137350D01*
Y10603216D01*
X17122539Y10618028D01*
X17092915D01*
X17078104Y10603216D01*
Y10558780D01*
Y10588404D02*
X17048480Y10618028D01*
Y10692087D02*
X17137350D01*
X17092915Y10647651D01*
Y10706899D01*
X14653761Y12492534D02*
X14742633D01*
Y12536970D01*
X14727821Y12551782D01*
X14698198D01*
X14683386Y12536970D01*
Y12492534D01*
Y12522158D02*
X14653761Y12551782D01*
X14727821Y12581405D02*
X14742633Y12596217D01*
Y12625841D01*
X14727821Y12640653D01*
X14713010D01*
X14698198Y12625841D01*
Y12611029D01*
Y12625841D01*
X14683386Y12640653D01*
X14668575D01*
X14653761Y12625841D01*
Y12596217D01*
X14668575Y12581405D01*
X17048480Y10927080D02*
X17137350D01*
Y10971516D01*
X17122539Y10986328D01*
X17092915D01*
X17078104Y10971516D01*
Y10927080D01*
Y10956704D02*
X17048480Y10986328D01*
Y11075199D02*
Y11015951D01*
X17107729Y11075199D01*
X17122539D01*
X17137350Y11060387D01*
Y11030763D01*
X17122539Y11015951D01*
X16935464Y11320780D02*
X17024336D01*
Y11365216D01*
X17009525Y11380028D01*
X16979900D01*
X16965088Y11365216D01*
Y11320780D01*
Y11350404D02*
X16935464Y11380028D01*
Y11409651D02*
Y11439275D01*
Y11424463D01*
X17024336D01*
X17009525Y11409651D01*
X17065862Y8044094D02*
X17051048Y8058906D01*
Y8088530D01*
X17065862Y8103341D01*
X17125108D01*
X17139920Y8088530D01*
Y8058906D01*
X17125108Y8044094D01*
X17139920Y7955223D02*
Y8014470D01*
X17080672Y7955223D01*
X17065862D01*
X17051048Y7970035D01*
Y7999658D01*
X17065862Y8014470D01*
X17125108Y7925599D02*
X17139920Y7910787D01*
Y7881163D01*
X17125108Y7866351D01*
X17065862D01*
X17051048Y7881163D01*
Y7910787D01*
X17065862Y7925599D01*
X17080672D01*
X17095483Y7910787D01*
Y7866351D01*
X17065862Y7836728D02*
X17051048Y7821916D01*
Y7792292D01*
X17065862Y7777480D01*
X17080672D01*
X17095483Y7792292D01*
X17110297Y7777480D01*
X17125108D01*
X17139920Y7792292D01*
Y7821916D01*
X17125108Y7836728D01*
X17110297D01*
X17095483Y7821916D01*
X17080672Y7836728D01*
X17065862D01*
X17095483Y7821916D02*
Y7792292D01*
X18466628Y7606567D02*
X18451816Y7591755D01*
X18422192D01*
X18407381Y7606567D01*
Y7665815D01*
X18422192Y7680626D01*
X18451816D01*
X18466628Y7665815D01*
X18555499Y7680626D02*
X18496251D01*
X18555499Y7621379D01*
Y7606567D01*
X18540688Y7591755D01*
X18511063D01*
X18496251Y7606567D01*
X18585123Y7665815D02*
X18599934Y7680626D01*
X18629558D01*
X18644370Y7665815D01*
Y7606567D01*
X18629558Y7591755D01*
X18599934D01*
X18585123Y7606567D01*
Y7621379D01*
X18599934Y7636191D01*
X18644370D01*
X18733241Y7591755D02*
X18673994D01*
Y7636191D01*
X18703618Y7621379D01*
X18718430D01*
X18733241Y7636191D01*
Y7665815D01*
X18718430Y7680626D01*
X18688806D01*
X18673994Y7665815D01*
X15481213Y9406048D02*
X15496027Y9420860D01*
X15525650D01*
X15540462Y9406048D01*
Y9346800D01*
X15525650Y9331989D01*
X15496027D01*
X15481213Y9346800D01*
X15392343Y9331989D02*
X15451590D01*
X15392343Y9391236D01*
Y9406048D01*
X15407155Y9420860D01*
X15436778D01*
X15451590Y9406048D01*
X15362720Y9346800D02*
X15347906Y9331989D01*
X15318283D01*
X15303471Y9346800D01*
Y9406048D01*
X15318283Y9420860D01*
X15347906D01*
X15362720Y9406048D01*
Y9391236D01*
X15347906Y9376424D01*
X15303471D01*
X15214600Y9331989D02*
X15273848D01*
X15214600Y9391236D01*
Y9406048D01*
X15229411Y9420860D01*
X15259036D01*
X15273848Y9406048D01*
X17163313Y18467558D02*
X17178125Y18482372D01*
X17207748D01*
X17222560Y18467558D01*
Y18408311D01*
X17207748Y18393500D01*
X17178125D01*
X17163313Y18408311D01*
X17074442Y18393500D02*
X17133688D01*
X17074442Y18452748D01*
Y18467558D01*
X17089253Y18482372D01*
X17118877D01*
X17133688Y18467558D01*
X17044818D02*
X17030006Y18482372D01*
X17000381D01*
X16985570Y18467558D01*
Y18452748D01*
X17000381Y18437936D01*
X16985570Y18423125D01*
Y18408311D01*
X17000381Y18393500D01*
X17030006D01*
X17044818Y18408311D01*
Y18423125D01*
X17030006Y18437936D01*
X17044818Y18452748D01*
Y18467558D01*
X17030006Y18437936D02*
X17000381D01*
X16955946Y18408311D02*
X16941135Y18393500D01*
X16911511D01*
X16896700Y18408311D01*
Y18467558D01*
X16911511Y18482372D01*
X16941135D01*
X16955946Y18467558D01*
Y18452748D01*
X16941135Y18437936D01*
X16896700D01*
X15265933Y18962859D02*
X15280745Y18977670D01*
X15310368D01*
X15325180Y18962859D01*
Y18903612D01*
X15310368Y18888800D01*
X15280745D01*
X15265933Y18903612D01*
X15177061Y18888800D02*
X15236308D01*
X15177061Y18948048D01*
Y18962859D01*
X15191873Y18977670D01*
X15221497D01*
X15236308Y18962859D01*
X15147438D02*
X15132626Y18977670D01*
X15103001D01*
X15088190Y18962859D01*
Y18948048D01*
X15103001Y18933237D01*
X15088190Y18918423D01*
Y18903612D01*
X15103001Y18888800D01*
X15132626D01*
X15147438Y18903612D01*
Y18918423D01*
X15132626Y18933237D01*
X15147438Y18948048D01*
Y18962859D01*
X15132626Y18933237D02*
X15103001D01*
X15058566Y18962859D02*
X15043755Y18977670D01*
X15014131D01*
X14999319Y18962859D01*
Y18948048D01*
X15014131Y18933237D01*
X14999319Y18918423D01*
Y18903612D01*
X15014131Y18888800D01*
X15043755D01*
X15058566Y18903612D01*
Y18918423D01*
X15043755Y18933237D01*
X15058566Y18948048D01*
Y18962859D01*
X15043755Y18933237D02*
X15014131D01*
X17018533Y18830779D02*
X17033345Y18845592D01*
X17062968D01*
X17077780Y18830779D01*
Y18771532D01*
X17062968Y18756720D01*
X17033345D01*
X17018533Y18771532D01*
X16929662Y18756720D02*
X16988908D01*
X16929662Y18815968D01*
Y18830779D01*
X16944473Y18845592D01*
X16974097D01*
X16988908Y18830779D01*
X16900038D02*
X16885226Y18845592D01*
X16855602D01*
X16840790Y18830779D01*
Y18815968D01*
X16855602Y18801157D01*
X16840790Y18786343D01*
Y18771532D01*
X16855602Y18756720D01*
X16885226D01*
X16900038Y18771532D01*
Y18786343D01*
X16885226Y18801157D01*
X16900038Y18815968D01*
Y18830779D01*
X16885226Y18801157D02*
X16855602D01*
X16811166Y18845592D02*
X16751920D01*
Y18830779D01*
X16811166Y18771532D01*
Y18756720D01*
X16960114Y18470099D02*
X16974925Y18484911D01*
X17004549D01*
X17019360Y18470099D01*
Y18410852D01*
X17004549Y18396040D01*
X16974925D01*
X16960114Y18410852D01*
X16871242Y18396040D02*
X16930489D01*
X16871242Y18455289D01*
Y18470099D01*
X16886053Y18484911D01*
X16915677D01*
X16930489Y18470099D01*
X16841618D02*
X16826807Y18484911D01*
X16797182D01*
X16782370Y18470099D01*
Y18455289D01*
X16797182Y18440475D01*
X16782370Y18425664D01*
Y18410852D01*
X16797182Y18396040D01*
X16826807D01*
X16841618Y18410852D01*
Y18425664D01*
X16826807Y18440475D01*
X16841618Y18455289D01*
Y18470099D01*
X16826807Y18440475D02*
X16797182D01*
X16693500Y18484911D02*
X16723123Y18470099D01*
X16752747Y18440475D01*
Y18410852D01*
X16737935Y18396040D01*
X16708311D01*
X16693500Y18410852D01*
Y18425664D01*
X16708311Y18440475D01*
X16752747D01*
X16934714Y17769060D02*
X16949525Y17783871D01*
X16979147D01*
X16993961Y17769060D01*
Y17709811D01*
X16979147Y17695000D01*
X16949525D01*
X16934714Y17709811D01*
X16845840Y17695000D02*
X16905089D01*
X16845840Y17754248D01*
Y17769060D01*
X16860654Y17783871D01*
X16890277D01*
X16905089Y17769060D01*
X16816219D02*
X16801405Y17783871D01*
X16771782D01*
X16756970Y17769060D01*
Y17754248D01*
X16771782Y17739436D01*
X16756970Y17724625D01*
Y17709811D01*
X16771782Y17695000D01*
X16801405D01*
X16816219Y17709811D01*
Y17724625D01*
X16801405Y17739436D01*
X16816219Y17754248D01*
Y17769060D01*
X16801405Y17739436D02*
X16771782D01*
X16727345Y17769060D02*
X16712535Y17783871D01*
X16682912D01*
X16668098Y17769060D01*
Y17754248D01*
X16682912Y17739436D01*
X16697723D01*
X16682912D01*
X16668098Y17724625D01*
Y17709811D01*
X16682912Y17695000D01*
X16712535D01*
X16727345Y17709811D01*
X17145534Y17766519D02*
X17160345Y17781331D01*
X17189967D01*
X17204781Y17766519D01*
Y17707272D01*
X17189967Y17692461D01*
X17160345D01*
X17145534Y17707272D01*
X17056660Y17692461D02*
X17115909D01*
X17056660Y17751707D01*
Y17766519D01*
X17071474Y17781331D01*
X17101097D01*
X17115909Y17766519D01*
X17027039D02*
X17012225Y17781331D01*
X16982602D01*
X16967790Y17766519D01*
Y17751707D01*
X16982602Y17736896D01*
X16967790Y17722084D01*
Y17707272D01*
X16982602Y17692461D01*
X17012225D01*
X17027039Y17707272D01*
Y17722084D01*
X17012225Y17736896D01*
X17027039Y17751707D01*
Y17766519D01*
X17012225Y17736896D02*
X16982602D01*
X16878918Y17692461D02*
X16938165D01*
X16878918Y17751707D01*
Y17766519D01*
X16893732Y17781331D01*
X16923355D01*
X16938165Y17766519D01*
X15131313Y16765759D02*
X15146124Y16780571D01*
X15175748D01*
X15190559Y16765759D01*
Y16706512D01*
X15175748Y16691701D01*
X15146124D01*
X15131313Y16706512D01*
X15042441Y16691701D02*
X15101689D01*
X15042441Y16750948D01*
Y16765759D01*
X15057253Y16780571D01*
X15086877D01*
X15101689Y16765759D01*
X15012817D02*
X14998006Y16780571D01*
X14968382D01*
X14953571Y16765759D01*
Y16750948D01*
X14968382Y16736136D01*
X14953571Y16721324D01*
Y16706512D01*
X14968382Y16691701D01*
X14998006D01*
X15012817Y16706512D01*
Y16721324D01*
X14998006Y16736136D01*
X15012817Y16750948D01*
Y16765759D01*
X14998006Y16736136D02*
X14968382D01*
X14923946Y16765759D02*
X14909135Y16780571D01*
X14879510D01*
X14864699Y16765759D01*
Y16706512D01*
X14879510Y16691701D01*
X14909135D01*
X14923946Y16706512D01*
Y16765759D01*
X15458974Y16491438D02*
X15473785Y16506252D01*
X15503407D01*
X15518221Y16491438D01*
Y16432191D01*
X15503407Y16417380D01*
X15473785D01*
X15458974Y16432191D01*
X15370100Y16417380D02*
X15429349D01*
X15370100Y16476628D01*
Y16491438D01*
X15384914Y16506252D01*
X15414537D01*
X15429349Y16491438D01*
X15340479Y16506252D02*
X15281230D01*
Y16491438D01*
X15340479Y16432191D01*
Y16417380D01*
X15251607Y16432191D02*
X15236795Y16417380D01*
X15207172D01*
X15192358Y16432191D01*
Y16491438D01*
X15207172Y16506252D01*
X15236795D01*
X15251607Y16491438D01*
Y16476628D01*
X15236795Y16461816D01*
X15192358D01*
X17582413Y18447240D02*
X17597224Y18462051D01*
X17626848D01*
X17641660Y18447240D01*
Y18387991D01*
X17626848Y18373180D01*
X17597224D01*
X17582413Y18387991D01*
X17493541Y18373180D02*
X17552789D01*
X17493541Y18432428D01*
Y18447240D01*
X17508353Y18462051D01*
X17537978D01*
X17552789Y18447240D01*
X17463918Y18462051D02*
X17404671D01*
Y18447240D01*
X17463918Y18387991D01*
Y18373180D01*
X17375046Y18447240D02*
X17360236Y18462051D01*
X17330611D01*
X17315799Y18447240D01*
Y18387991D01*
X17330611Y18373180D01*
X17360236D01*
X17375046Y18387991D01*
Y18447240D01*
X17449342Y17895984D02*
X17464156Y17910796D01*
X17493779D01*
X17508591Y17895984D01*
Y17836736D01*
X17493779Y17821924D01*
X17464156D01*
X17449342Y17836736D01*
X17360472Y17821924D02*
X17419719D01*
X17360472Y17881172D01*
Y17895984D01*
X17375284Y17910796D01*
X17404909D01*
X17419719Y17895984D01*
X17271600Y17910796D02*
X17301224Y17895984D01*
X17330849Y17866360D01*
Y17836736D01*
X17316035Y17821924D01*
X17286412D01*
X17271600Y17836736D01*
Y17851547D01*
X17286412Y17866360D01*
X17330849D01*
X17182729Y17910796D02*
X17241977D01*
Y17866360D01*
X17212354Y17881172D01*
X17197540D01*
X17182729Y17866360D01*
Y17836736D01*
X17197540Y17821924D01*
X17227165D01*
X17241977Y17836736D01*
X17361433Y18254199D02*
X17376245Y18269011D01*
X17405869D01*
X17420680Y18254199D01*
Y18194952D01*
X17405869Y18180141D01*
X17376245D01*
X17361433Y18194952D01*
X17272562Y18180141D02*
X17331808D01*
X17272562Y18239388D01*
Y18254199D01*
X17287373Y18269011D01*
X17316997D01*
X17331808Y18254199D01*
X17183690Y18269011D02*
X17213313Y18254199D01*
X17242938Y18224576D01*
Y18194952D01*
X17228127Y18180141D01*
X17198502D01*
X17183690Y18194952D01*
Y18209764D01*
X17198502Y18224576D01*
X17242938D01*
X17109631Y18180141D02*
Y18269011D01*
X17154066Y18224576D01*
X17094820D01*
X16469893Y15168098D02*
X16484705Y15182912D01*
X16514328D01*
X16529140Y15168098D01*
Y15108852D01*
X16514328Y15094040D01*
X16484705D01*
X16469893Y15108852D01*
X16381021Y15094040D02*
X16440269D01*
X16381021Y15153288D01*
Y15168098D01*
X16395833Y15182912D01*
X16425456D01*
X16440269Y15168098D01*
X16292149Y15182912D02*
X16321774Y15168098D01*
X16351398Y15138477D01*
Y15108852D01*
X16336586Y15094040D01*
X16306963D01*
X16292149Y15108852D01*
Y15123663D01*
X16306963Y15138477D01*
X16351398D01*
X16262526Y15094040D02*
X16232903D01*
X16247716D01*
Y15182912D01*
X16262526Y15168098D01*
X16126003Y15104524D02*
X16140816Y15119336D01*
X16170439D01*
X16185251Y15104524D01*
Y15045276D01*
X16170439Y15030464D01*
X16140816D01*
X16126003Y15045276D01*
X16037132Y15030464D02*
X16096379D01*
X16037132Y15089713D01*
Y15104524D01*
X16051944Y15119336D01*
X16081567D01*
X16096379Y15104524D01*
X15948260Y15119336D02*
X15977884Y15104524D01*
X16007507Y15074899D01*
Y15045276D01*
X15992696Y15030464D01*
X15963072D01*
X15948260Y15045276D01*
Y15060088D01*
X15963072Y15074899D01*
X16007507D01*
X15918637Y15104524D02*
X15903825Y15119336D01*
X15874200D01*
X15859389Y15104524D01*
Y15045276D01*
X15874200Y15030464D01*
X15903825D01*
X15918637Y15045276D01*
Y15104524D01*
X16449573Y16402539D02*
X16464384Y16417351D01*
X16494008D01*
X16508820Y16402539D01*
Y16343292D01*
X16494008Y16328481D01*
X16464384D01*
X16449573Y16343292D01*
X16360701Y16328481D02*
X16419949D01*
X16360701Y16387727D01*
Y16402539D01*
X16375513Y16417351D01*
X16405138D01*
X16419949Y16402539D01*
X16271831Y16417351D02*
X16331078D01*
Y16372916D01*
X16301454Y16387727D01*
X16286642D01*
X16271831Y16372916D01*
Y16343292D01*
X16286642Y16328481D01*
X16316266D01*
X16331078Y16343292D01*
X16182959Y16417351D02*
X16212582Y16402539D01*
X16242206Y16372916D01*
Y16343292D01*
X16227396Y16328481D01*
X16197771D01*
X16182959Y16343292D01*
Y16358104D01*
X16197771Y16372916D01*
X16242206D01*
X16863916Y15572282D02*
X16849104Y15587096D01*
Y15616719D01*
X16863916Y15631531D01*
X16923164D01*
X16937976Y15616719D01*
Y15587096D01*
X16923164Y15572282D01*
X16937976Y15483412D02*
Y15542659D01*
X16878728Y15483412D01*
X16863916D01*
X16849104Y15498224D01*
Y15527847D01*
X16863916Y15542659D01*
X16849104Y15394540D02*
Y15453789D01*
X16893539D01*
X16878728Y15424164D01*
Y15409352D01*
X16893539Y15394540D01*
X16923164D01*
X16937976Y15409352D01*
Y15438976D01*
X16923164Y15453789D01*
X16863916Y15364917D02*
X16849104Y15350105D01*
Y15320480D01*
X16863916Y15305669D01*
X16878728D01*
X16893539Y15320480D01*
Y15335294D01*
Y15320480D01*
X16908353Y15305669D01*
X16923164D01*
X16937976Y15320480D01*
Y15350105D01*
X16923164Y15364917D01*
X16485455Y16080283D02*
X16470644Y16095094D01*
Y16124719D01*
X16485455Y16139531D01*
X16544704D01*
X16559515Y16124719D01*
Y16095094D01*
X16544704Y16080283D01*
X16559515Y15991412D02*
Y16050659D01*
X16500269Y15991412D01*
X16485455D01*
X16470644Y16006224D01*
Y16035847D01*
X16485455Y16050659D01*
X16470644Y15902541D02*
Y15961787D01*
X16515080D01*
X16500269Y15932164D01*
Y15917352D01*
X16515080Y15902541D01*
X16544704D01*
X16559515Y15917352D01*
Y15946976D01*
X16544704Y15961787D01*
X16559515Y15813669D02*
Y15872917D01*
X16500269Y15813669D01*
X16485455D01*
X16470644Y15828481D01*
Y15858105D01*
X16485455Y15872917D01*
X16480376Y15526991D02*
X16465564Y15541803D01*
Y15571426D01*
X16480376Y15586240D01*
X16539624D01*
X16554436Y15571426D01*
Y15541803D01*
X16539624Y15526991D01*
X16554436Y15438120D02*
Y15497368D01*
X16495187Y15438120D01*
X16480376D01*
X16465564Y15452933D01*
Y15482556D01*
X16480376Y15497368D01*
X16465564Y15349249D02*
Y15408496D01*
X16510001D01*
X16495187Y15378873D01*
Y15364061D01*
X16510001Y15349249D01*
X16539624D01*
X16554436Y15364061D01*
Y15393684D01*
X16539624Y15408496D01*
X16554436Y15319624D02*
Y15290001D01*
Y15304813D01*
X16465564D01*
X16480376Y15319624D01*
X15528783Y17978763D02*
X15543594Y17993575D01*
X15573219D01*
X15588029Y17978763D01*
Y17919516D01*
X15573219Y17904704D01*
X15543594D01*
X15528783Y17919516D01*
X15439911Y17904704D02*
X15499159D01*
X15439911Y17963951D01*
Y17978763D01*
X15454723Y17993575D01*
X15484348D01*
X15499159Y17978763D01*
X15365852Y17904704D02*
Y17993575D01*
X15410287Y17949139D01*
X15351041D01*
X15262169Y17904704D02*
X15321416D01*
X15262169Y17963951D01*
Y17978763D01*
X15276981Y17993575D01*
X15306606D01*
X15321416Y17978763D01*
X15533377Y18168352D02*
X15548189Y18183163D01*
X15577814D01*
X15592624Y18168352D01*
Y18109103D01*
X15577814Y18094292D01*
X15548189D01*
X15533377Y18109103D01*
X15444505Y18094292D02*
X15503754D01*
X15444505Y18153540D01*
Y18168352D01*
X15459319Y18183163D01*
X15488940D01*
X15503754Y18168352D01*
X15370445Y18094292D02*
Y18183163D01*
X15414882Y18138728D01*
X15355634D01*
X15326010Y18094292D02*
X15296387D01*
X15311198D01*
Y18183163D01*
X15326010Y18168352D01*
X16383533Y19049219D02*
X16398344Y19064030D01*
X16427968D01*
X16442780Y19049219D01*
Y18989972D01*
X16427968Y18975160D01*
X16398344D01*
X16383533Y18989972D01*
X16294661Y18975160D02*
X16353909D01*
X16294661Y19034409D01*
Y19049219D01*
X16309473Y19064030D01*
X16339098D01*
X16353909Y19049219D01*
X16265038D02*
X16250226Y19064030D01*
X16220602D01*
X16205791Y19049219D01*
Y19034409D01*
X16220602Y19019595D01*
X16235414D01*
X16220602D01*
X16205791Y19004784D01*
Y18989972D01*
X16220602Y18975160D01*
X16250226D01*
X16265038Y18989972D01*
X16176166Y19049219D02*
X16161356Y19064030D01*
X16131731D01*
X16116919Y19049219D01*
Y19034409D01*
X16131731Y19019595D01*
X16116919Y19004784D01*
Y18989972D01*
X16131731Y18975160D01*
X16161356D01*
X16176166Y18989972D01*
Y19004784D01*
X16161356Y19019595D01*
X16176166Y19034409D01*
Y19049219D01*
X16161356Y19019595D02*
X16131731D01*
X15525009Y17789799D02*
X15539821Y17804613D01*
X15569444D01*
X15584258Y17789799D01*
Y17730553D01*
X15569444Y17715741D01*
X15539821D01*
X15525009Y17730553D01*
X15436137Y17715741D02*
X15495386D01*
X15436137Y17774988D01*
Y17789799D01*
X15450951Y17804613D01*
X15480574D01*
X15495386Y17789799D01*
X15406514D02*
X15391702Y17804613D01*
X15362077D01*
X15347266Y17789799D01*
Y17774988D01*
X15362077Y17760176D01*
X15376891D01*
X15362077D01*
X15347266Y17745364D01*
Y17730553D01*
X15362077Y17715741D01*
X15391702D01*
X15406514Y17730553D01*
X15317644Y17804613D02*
X15258395D01*
Y17789799D01*
X15317644Y17730553D01*
Y17715741D01*
X18786372Y18777438D02*
X18801186Y18792252D01*
X18830807D01*
X18845621Y18777438D01*
Y18718192D01*
X18830807Y18703380D01*
X18801186D01*
X18786372Y18718192D01*
X18697501Y18703380D02*
X18756749D01*
X18697501Y18762628D01*
Y18777438D01*
X18712312Y18792252D01*
X18741937D01*
X18756749Y18777438D01*
X18667879D02*
X18653065Y18792252D01*
X18623442D01*
X18608630Y18777438D01*
Y18762628D01*
X18623442Y18747816D01*
X18638254D01*
X18623442D01*
X18608630Y18733005D01*
Y18718192D01*
X18623442Y18703380D01*
X18653065D01*
X18667879Y18718192D01*
X18534570Y18703380D02*
Y18792252D01*
X18579005Y18747816D01*
X18519759D01*
X19162292Y17748740D02*
X19177106Y17763551D01*
X19206728D01*
X19221539Y17748740D01*
Y17689491D01*
X19206728Y17674680D01*
X19177106D01*
X19162292Y17689491D01*
X19073421Y17674680D02*
X19132669D01*
X19073421Y17733928D01*
Y17748740D01*
X19088232Y17763551D01*
X19117857D01*
X19132669Y17748740D01*
X18984550Y17674680D02*
X19043797D01*
X18984550Y17733928D01*
Y17748740D01*
X18999362Y17763551D01*
X19028986D01*
X19043797Y17748740D01*
X18954926Y17689491D02*
X18940115Y17674680D01*
X18910490D01*
X18895679Y17689491D01*
Y17748740D01*
X18910490Y17763551D01*
X18940115D01*
X18954926Y17748740D01*
Y17733928D01*
X18940115Y17719116D01*
X18895679D01*
X16373991Y16894951D02*
X16359180Y16909763D01*
Y16939388D01*
X16373991Y16954199D01*
X16433240D01*
X16448050Y16939388D01*
Y16909763D01*
X16433240Y16894951D01*
X16448050Y16806081D02*
Y16865327D01*
X16388803Y16806081D01*
X16373991D01*
X16359180Y16820892D01*
Y16850516D01*
X16373991Y16865327D01*
X16448050Y16717209D02*
Y16776456D01*
X16388803Y16717209D01*
X16373991D01*
X16359180Y16732021D01*
Y16761644D01*
X16373991Y16776456D01*
X16359180Y16687585D02*
Y16628337D01*
X16373991D01*
X16433240Y16687585D01*
X16448050D01*
X16902016Y19246037D02*
X16887204Y19231226D01*
Y19201601D01*
X16902016Y19186789D01*
X16961264D01*
X16976076Y19201601D01*
Y19231226D01*
X16961264Y19246037D01*
X16976076Y19334908D02*
Y19275661D01*
X16916827Y19334908D01*
X16902016D01*
X16887204Y19320096D01*
Y19290472D01*
X16902016Y19275661D01*
X16976076Y19423779D02*
Y19364532D01*
X16916827Y19423779D01*
X16902016D01*
X16887204Y19408968D01*
Y19379344D01*
X16902016Y19364532D01*
X16887204Y19512651D02*
X16902016Y19483028D01*
X16931641Y19453403D01*
X16961264D01*
X16976076Y19468214D01*
Y19497839D01*
X16961264Y19512651D01*
X16946452D01*
X16931641Y19497839D01*
Y19453403D01*
X17693182Y18000124D02*
X17707996Y18014935D01*
X17737619D01*
X17752431Y18000124D01*
Y17940875D01*
X17737619Y17926064D01*
X17707996D01*
X17693182Y17940875D01*
X17604312Y17926064D02*
X17663559D01*
X17604312Y17985312D01*
Y18000124D01*
X17619124Y18014935D01*
X17648747D01*
X17663559Y18000124D01*
X17515440Y17926064D02*
X17574689D01*
X17515440Y17985312D01*
Y18000124D01*
X17530252Y18014935D01*
X17559875D01*
X17574689Y18000124D01*
X17441380Y17926064D02*
Y18014935D01*
X17485817Y17970500D01*
X17426569D01*
X16548927Y1432161D02*
X16534116Y1417349D01*
X16504491D01*
X16489679Y1432161D01*
Y1491408D01*
X16504491Y1506220D01*
X16534116D01*
X16548927Y1491408D01*
X16637798Y1506220D02*
X16578551D01*
X16637798Y1446972D01*
Y1432161D01*
X16622986Y1417349D01*
X16593362D01*
X16578551Y1432161D01*
X16667422Y1506220D02*
X16697046D01*
X16682234D01*
Y1417349D01*
X16667422Y1432161D01*
X16741481D02*
X16756293Y1417349D01*
X16785918D01*
X16800729Y1432161D01*
Y1491408D01*
X16785918Y1506220D01*
X16756293D01*
X16741481Y1491408D01*
Y1432161D01*
X15955424Y5677728D02*
X15970236Y5662916D01*
Y5633292D01*
X15955424Y5618480D01*
X15896176D01*
X15881364Y5633292D01*
Y5662916D01*
X15896176Y5677728D01*
X15881364Y5766599D02*
Y5707351D01*
X15940611Y5766599D01*
X15955424D01*
X15970236Y5751787D01*
Y5722163D01*
X15955424Y5707351D01*
Y5796223D02*
X15970236Y5811034D01*
Y5840658D01*
X15955424Y5855470D01*
X15896176D01*
X15881364Y5840658D01*
Y5811034D01*
X15896176Y5796223D01*
X15955424D01*
X15881364Y5944341D02*
Y5885094D01*
X15940611Y5944341D01*
X15955424D01*
X15970236Y5929529D01*
Y5899906D01*
X15955424Y5885094D01*
Y5131628D02*
X15970236Y5116816D01*
Y5087192D01*
X15955424Y5072380D01*
X15896176D01*
X15881364Y5087192D01*
Y5116816D01*
X15896176Y5131628D01*
X15881364Y5220499D02*
Y5161251D01*
X15940611Y5220499D01*
X15955424D01*
X15970236Y5205687D01*
Y5176063D01*
X15955424Y5161251D01*
Y5250123D02*
X15970236Y5264934D01*
Y5294558D01*
X15955424Y5309370D01*
X15896176D01*
X15881364Y5294558D01*
Y5264934D01*
X15896176Y5250123D01*
X15955424D01*
X15881364Y5338994D02*
Y5368618D01*
Y5353806D01*
X15970236D01*
X15955424Y5338994D01*
X13321474Y5522359D02*
X13336285Y5537171D01*
X13365910D01*
X13380721Y5522359D01*
Y5463112D01*
X13365910Y5448300D01*
X13336285D01*
X13321474Y5463112D01*
X13232602Y5448300D02*
X13291850D01*
X13232602Y5507548D01*
Y5522359D01*
X13247414Y5537171D01*
X13277039D01*
X13291850Y5522359D01*
X13202979D02*
X13188167Y5537171D01*
X13158543D01*
X13143732Y5522359D01*
Y5463112D01*
X13158543Y5448300D01*
X13188167D01*
X13202979Y5463112D01*
Y5522359D01*
X13114107D02*
X13099297Y5537171D01*
X13069672D01*
X13054860Y5522359D01*
Y5463112D01*
X13069672Y5448300D01*
X13099297D01*
X13114107Y5463112D01*
Y5522359D01*
X13588171Y4995324D02*
X13602985Y5010136D01*
X13632608D01*
X13647420Y4995324D01*
Y4936076D01*
X13632608Y4921264D01*
X13602985D01*
X13588171Y4936076D01*
X13558549Y4921264D02*
X13528925D01*
X13543736D01*
Y5010136D01*
X13558549Y4995324D01*
X13484489Y4936076D02*
X13469678Y4921264D01*
X13440054D01*
X13425243Y4936076D01*
Y4995324D01*
X13440054Y5010136D01*
X13469678D01*
X13484489Y4995324D01*
Y4980512D01*
X13469678Y4965700D01*
X13425243D01*
X13395618Y4936076D02*
X13380806Y4921264D01*
X13351183D01*
X13336371Y4936076D01*
Y4995324D01*
X13351183Y5010136D01*
X13380806D01*
X13395618Y4995324D01*
Y4980512D01*
X13380806Y4965700D01*
X13336371D01*
X14456824Y4175418D02*
X14471635Y4160606D01*
Y4130982D01*
X14456824Y4116171D01*
X14397575D01*
X14382764Y4130982D01*
Y4160606D01*
X14397575Y4175418D01*
X14382764Y4205042D02*
Y4234666D01*
Y4219854D01*
X14471635D01*
X14456824Y4205042D01*
X14397575Y4279101D02*
X14382764Y4293913D01*
Y4323537D01*
X14397575Y4338349D01*
X14456824D01*
X14471635Y4323537D01*
Y4293913D01*
X14456824Y4279101D01*
X14442012D01*
X14427200Y4293913D01*
Y4338349D01*
X14456824Y4367972D02*
X14471635Y4382784D01*
Y4412408D01*
X14456824Y4427220D01*
X14442012D01*
X14427200Y4412408D01*
X14412389Y4427220D01*
X14397575D01*
X14382764Y4412408D01*
Y4382784D01*
X14397575Y4367972D01*
X14412389D01*
X14427200Y4382784D01*
X14442012Y4367972D01*
X14456824D01*
X14427200Y4382784D02*
Y4412408D01*
X14583824Y4175418D02*
X14598636Y4160606D01*
Y4130982D01*
X14583824Y4116171D01*
X14524576D01*
X14509764Y4130982D01*
Y4160606D01*
X14524576Y4175418D01*
X14509764Y4205042D02*
Y4234666D01*
Y4219854D01*
X14598636D01*
X14583824Y4205042D01*
X14524576Y4279101D02*
X14509764Y4293913D01*
Y4323537D01*
X14524576Y4338349D01*
X14583824D01*
X14598636Y4323537D01*
Y4293913D01*
X14583824Y4279101D01*
X14569012D01*
X14554201Y4293913D01*
Y4338349D01*
X14598636Y4367972D02*
Y4427220D01*
X14583824D01*
X14524576Y4367972D01*
X14509764D01*
X14142477Y5032139D02*
X14157289Y5046951D01*
X14186913D01*
X14201724Y5032139D01*
Y4972892D01*
X14186913Y4958080D01*
X14157289D01*
X14142477Y4972892D01*
X14112852Y4958080D02*
X14083231D01*
X14098042D01*
Y5046951D01*
X14112852Y5032139D01*
X14038794Y4972892D02*
X14023982Y4958080D01*
X13994359D01*
X13979547Y4972892D01*
Y5032139D01*
X13994359Y5046951D01*
X14023982D01*
X14038794Y5032139D01*
Y5017328D01*
X14023982Y5002516D01*
X13979547D01*
X13890675Y5046951D02*
X13920299Y5032139D01*
X13949924Y5002516D01*
Y4972892D01*
X13935110Y4958080D01*
X13905487D01*
X13890675Y4972892D01*
Y4987704D01*
X13905487Y5002516D01*
X13949924D01*
X10798073Y14053040D02*
X10812885Y14067851D01*
X10842508D01*
X10857320Y14053040D01*
Y13993793D01*
X10842508Y13978979D01*
X10812885D01*
X10798073Y13993793D01*
X10768449Y13978979D02*
X10738825D01*
X10753637D01*
Y14067851D01*
X10768449Y14053040D01*
X10694390Y13993793D02*
X10679578Y13978979D01*
X10649954D01*
X10635142Y13993793D01*
Y14053040D01*
X10649954Y14067851D01*
X10679578D01*
X10694390Y14053040D01*
Y14038228D01*
X10679578Y14023416D01*
X10635142D01*
X10605518Y14053040D02*
X10590707Y14067851D01*
X10561083D01*
X10546271Y14053040D01*
Y14038228D01*
X10561083Y14023416D01*
X10575895D01*
X10561083D01*
X10546271Y14008604D01*
Y13993793D01*
X10561083Y13978979D01*
X10590707D01*
X10605518Y13993793D01*
X9357893Y14403558D02*
X9372705Y14418372D01*
X9402328D01*
X9417140Y14403558D01*
Y14344312D01*
X9402328Y14329500D01*
X9372705D01*
X9357893Y14344312D01*
X9328269Y14329500D02*
X9298645D01*
X9313457D01*
Y14418372D01*
X9328269Y14403558D01*
X9254210Y14344312D02*
X9239398Y14329500D01*
X9209774D01*
X9194962Y14344312D01*
Y14403558D01*
X9209774Y14418372D01*
X9239398D01*
X9254210Y14403558D01*
Y14388748D01*
X9239398Y14373936D01*
X9194962D01*
X9106091Y14329500D02*
X9165338D01*
X9106091Y14388748D01*
Y14403558D01*
X9120903Y14418372D01*
X9150527D01*
X9165338Y14403558D01*
X10678693Y14505159D02*
X10693505Y14519971D01*
X10723128D01*
X10737940Y14505159D01*
Y14445912D01*
X10723128Y14431100D01*
X10693505D01*
X10678693Y14445912D01*
X10649069Y14431100D02*
X10619445D01*
X10634257D01*
Y14519971D01*
X10649069Y14505159D01*
X10575010Y14445912D02*
X10560198Y14431100D01*
X10530574D01*
X10515762Y14445912D01*
Y14505159D01*
X10530574Y14519971D01*
X10560198D01*
X10575010Y14505159D01*
Y14490347D01*
X10560198Y14475536D01*
X10515762D01*
X10486138Y14431100D02*
X10456515D01*
X10471327D01*
Y14519971D01*
X10486138Y14505159D01*
X12240793Y13710139D02*
X12255605Y13724951D01*
X12285228D01*
X12300040Y13710139D01*
Y13650893D01*
X12285228Y13636079D01*
X12255605D01*
X12240793Y13650893D01*
X12211169Y13636079D02*
X12181545D01*
X12196357D01*
Y13724951D01*
X12211169Y13710139D01*
X12137110Y13650893D02*
X12122298Y13636079D01*
X12092674D01*
X12077862Y13650893D01*
Y13710139D01*
X12092674Y13724951D01*
X12122298D01*
X12137110Y13710139D01*
Y13695328D01*
X12122298Y13680516D01*
X12077862D01*
X12048238Y13710139D02*
X12033427Y13724951D01*
X12003803D01*
X11988991Y13710139D01*
Y13650893D01*
X12003803Y13636079D01*
X12033427D01*
X12048238Y13650893D01*
Y13710139D01*
X13697363Y13825462D02*
X13712177Y13810651D01*
Y13781027D01*
X13697363Y13766216D01*
X13638116D01*
X13623305Y13781027D01*
Y13810651D01*
X13638116Y13825462D01*
X13623305Y13855087D02*
Y13884711D01*
Y13869897D01*
X13712177D01*
X13697363Y13855087D01*
X13712177Y13929146D02*
Y13988393D01*
X13697363D01*
X13638116Y13929146D01*
X13623305D01*
X13638116Y14018018D02*
X13623305Y14032829D01*
Y14062453D01*
X13638116Y14077264D01*
X13697363D01*
X13712177Y14062453D01*
Y14032829D01*
X13697363Y14018018D01*
X13682552D01*
X13667740Y14032829D01*
Y14077264D01*
X11847544Y14277937D02*
X11832732Y14263126D01*
X11803108D01*
X11788296Y14277937D01*
Y14337186D01*
X11803108Y14351996D01*
X11832732D01*
X11847544Y14337186D01*
X11877168Y14351996D02*
X11906792D01*
X11891980D01*
Y14263126D01*
X11877168Y14277937D01*
X11951227Y14263126D02*
X12010475D01*
Y14277937D01*
X11951227Y14337186D01*
Y14351996D01*
X12040098Y14277937D02*
X12054910Y14263126D01*
X12084534D01*
X12099346Y14277937D01*
Y14292749D01*
X12084534Y14307561D01*
X12099346Y14322372D01*
Y14337186D01*
X12084534Y14351996D01*
X12054910D01*
X12040098Y14337186D01*
Y14322372D01*
X12054910Y14307561D01*
X12040098Y14292749D01*
Y14277937D01*
X12054910Y14307561D02*
X12084534D01*
X10935544Y11797910D02*
X10950356Y11783098D01*
Y11753474D01*
X10935544Y11738662D01*
X10876297D01*
X10861485Y11753474D01*
Y11783098D01*
X10876297Y11797910D01*
X10861485Y11827533D02*
Y11857157D01*
Y11842345D01*
X10950356D01*
X10935544Y11827533D01*
X10950356Y11960840D02*
X10935544Y11931216D01*
X10905921Y11901593D01*
X10876297D01*
X10861485Y11916404D01*
Y11946028D01*
X10876297Y11960840D01*
X10891109D01*
X10905921Y11946028D01*
Y11901593D01*
X10950356Y12049711D02*
X10935544Y12020088D01*
X10905921Y11990464D01*
X10876297D01*
X10861485Y12005276D01*
Y12034899D01*
X10876297Y12049711D01*
X10891109D01*
X10905921Y12034899D01*
Y11990464D01*
X9182944Y11836010D02*
X9197756Y11821198D01*
Y11791574D01*
X9182944Y11776762D01*
X9123697D01*
X9108885Y11791574D01*
Y11821198D01*
X9123697Y11836010D01*
X9108885Y11865633D02*
Y11895257D01*
Y11880445D01*
X9197756D01*
X9182944Y11865633D01*
X9197756Y11998940D02*
X9182944Y11969316D01*
X9153321Y11939693D01*
X9123697D01*
X9108885Y11954504D01*
Y11984128D01*
X9123697Y11998940D01*
X9138509D01*
X9153321Y11984128D01*
Y11939693D01*
X9197756Y12087811D02*
Y12028564D01*
X9153321D01*
X9168133Y12058188D01*
Y12072999D01*
X9153321Y12087811D01*
X9123697D01*
X9108885Y12072999D01*
Y12043376D01*
X9123697Y12028564D01*
X8967044Y11670910D02*
X8981856Y11656098D01*
Y11626474D01*
X8967044Y11611662D01*
X8907797D01*
X8892985Y11626474D01*
Y11656098D01*
X8907797Y11670910D01*
X8892985Y11700533D02*
Y11730157D01*
Y11715345D01*
X8981856D01*
X8967044Y11700533D01*
X8981856Y11833840D02*
X8967044Y11804216D01*
X8937421Y11774593D01*
X8907797D01*
X8892985Y11789404D01*
Y11819028D01*
X8907797Y11833840D01*
X8922609D01*
X8937421Y11819028D01*
Y11774593D01*
X8892985Y11907899D02*
X8981856D01*
X8937421Y11863464D01*
Y11922711D01*
X9317593Y10721806D02*
X9332405Y10736618D01*
X9362029D01*
X9376841Y10721806D01*
Y10662559D01*
X9362029Y10647747D01*
X9332405D01*
X9317593Y10662559D01*
X9287969Y10647747D02*
X9258346D01*
X9273158D01*
Y10736618D01*
X9287969Y10721806D01*
X9154663Y10736618D02*
X9184286Y10721806D01*
X9213910Y10692182D01*
Y10662559D01*
X9199098Y10647747D01*
X9169475D01*
X9154663Y10662559D01*
Y10677371D01*
X9169475Y10692182D01*
X9213910D01*
X9125039Y10721806D02*
X9110227Y10736618D01*
X9080603D01*
X9065791Y10721806D01*
Y10706994D01*
X9080603Y10692182D01*
X9095415D01*
X9080603D01*
X9065791Y10677371D01*
Y10662559D01*
X9080603Y10647747D01*
X9110227D01*
X9125039Y10662559D01*
X9241393Y10455106D02*
X9256205Y10469918D01*
X9285829D01*
X9300641Y10455106D01*
Y10395859D01*
X9285829Y10381047D01*
X9256205D01*
X9241393Y10395859D01*
X9211769Y10381047D02*
X9182146D01*
X9196958D01*
Y10469918D01*
X9211769Y10455106D01*
X9078463Y10469918D02*
X9108086Y10455106D01*
X9137710Y10425482D01*
Y10395859D01*
X9122898Y10381047D01*
X9093275D01*
X9078463Y10395859D01*
Y10410671D01*
X9093275Y10425482D01*
X9137710D01*
X8989591Y10381047D02*
X9048839D01*
X8989591Y10440294D01*
Y10455106D01*
X9004403Y10469918D01*
X9034027D01*
X9048839Y10455106D01*
X9144845Y10121510D02*
X9159657Y10106698D01*
Y10077074D01*
X9144845Y10062262D01*
X9085597D01*
X9070785Y10077074D01*
Y10106698D01*
X9085597Y10121510D01*
X9070785Y10151134D02*
Y10180757D01*
Y10165945D01*
X9159657D01*
X9144845Y10151134D01*
X9159657Y10284440D02*
X9144845Y10254817D01*
X9115221Y10225193D01*
X9085597D01*
X9070785Y10240005D01*
Y10269628D01*
X9085597Y10284440D01*
X9100409D01*
X9115221Y10269628D01*
Y10225193D01*
X9070785Y10314064D02*
Y10343688D01*
Y10328876D01*
X9159657D01*
X9144845Y10314064D01*
X10144837Y15855708D02*
X10159649Y15870520D01*
X10189273D01*
X10204085Y15855708D01*
Y15796461D01*
X10189273Y15781648D01*
X10159649D01*
X10144837Y15796461D01*
X10115213Y15781648D02*
X10085590D01*
X10100402D01*
Y15870520D01*
X10115213Y15855708D01*
X9981907Y15870520D02*
X10041154D01*
Y15826085D01*
X10011530Y15840897D01*
X9996719D01*
X9981907Y15826085D01*
Y15796461D01*
X9996719Y15781648D01*
X10026342D01*
X10041154Y15796461D01*
X9893035Y15870520D02*
X9952283D01*
Y15826085D01*
X9922659Y15840897D01*
X9907847D01*
X9893035Y15826085D01*
Y15796461D01*
X9907847Y15781648D01*
X9937471D01*
X9952283Y15796461D01*
X10054193Y9731206D02*
X10069005Y9746018D01*
X10098629D01*
X10113441Y9731206D01*
Y9671959D01*
X10098629Y9657147D01*
X10069005D01*
X10054193Y9671959D01*
X10024569Y9657147D02*
X9994946D01*
X10009758D01*
Y9746018D01*
X10024569Y9731206D01*
X9891263Y9746018D02*
X9950510D01*
Y9701582D01*
X9920886Y9716394D01*
X9906075D01*
X9891263Y9701582D01*
Y9671959D01*
X9906075Y9657147D01*
X9935698D01*
X9950510Y9671959D01*
X9861639Y9731206D02*
X9846827Y9746018D01*
X9817203D01*
X9802391Y9731206D01*
Y9716394D01*
X9817203Y9701582D01*
X9832015D01*
X9817203D01*
X9802391Y9686771D01*
Y9671959D01*
X9817203Y9657147D01*
X9846827D01*
X9861639Y9671959D01*
X10922444Y10515610D02*
X10937257Y10500798D01*
Y10471174D01*
X10922444Y10456362D01*
X10863197D01*
X10848385Y10471174D01*
Y10500798D01*
X10863197Y10515610D01*
X10848385Y10545234D02*
Y10574857D01*
Y10560045D01*
X10937257D01*
X10922444Y10545234D01*
X10937257Y10678540D02*
Y10619293D01*
X10892821D01*
X10907633Y10648917D01*
Y10663728D01*
X10892821Y10678540D01*
X10863197D01*
X10848385Y10663728D01*
Y10634105D01*
X10863197Y10619293D01*
X10848385Y10708164D02*
Y10737788D01*
Y10722976D01*
X10937257D01*
X10922444Y10708164D01*
X10498693Y10671006D02*
X10513505Y10685818D01*
X10543129D01*
X10557941Y10671006D01*
Y10611759D01*
X10543129Y10596947D01*
X10513505D01*
X10498693Y10611759D01*
X10469069Y10596947D02*
X10439446D01*
X10454258D01*
Y10685818D01*
X10469069Y10671006D01*
X10335763Y10685818D02*
X10395010D01*
Y10641382D01*
X10365386Y10656194D01*
X10350575D01*
X10335763Y10641382D01*
Y10611759D01*
X10350575Y10596947D01*
X10380198D01*
X10395010Y10611759D01*
X10306139Y10671006D02*
X10291327Y10685818D01*
X10261703D01*
X10246891Y10671006D01*
Y10611759D01*
X10261703Y10596947D01*
X10291327D01*
X10306139Y10611759D01*
Y10671006D01*
X9914493Y11814006D02*
X9929305Y11828818D01*
X9958929D01*
X9973741Y11814006D01*
Y11754759D01*
X9958929Y11739947D01*
X9929305D01*
X9914493Y11754759D01*
X9884869Y11739947D02*
X9855246D01*
X9870058D01*
Y11828818D01*
X9884869Y11814006D01*
X9766375Y11739947D02*
Y11828818D01*
X9810810Y11784382D01*
X9751563D01*
X9721939Y11814006D02*
X9707127Y11828818D01*
X9677503D01*
X9662691Y11814006D01*
Y11799194D01*
X9677503Y11784382D01*
X9662691Y11769571D01*
Y11754759D01*
X9677503Y11739947D01*
X9707127D01*
X9721939Y11754759D01*
Y11769571D01*
X9707127Y11784382D01*
X9721939Y11799194D01*
Y11814006D01*
X9707127Y11784382D02*
X9677503D01*
X9914493Y12220406D02*
X9929305Y12235218D01*
X9958929D01*
X9973741Y12220406D01*
Y12161159D01*
X9958929Y12146347D01*
X9929305D01*
X9914493Y12161159D01*
X9884869Y12146347D02*
X9855246D01*
X9870058D01*
Y12235218D01*
X9884869Y12220406D01*
X9766375Y12146347D02*
Y12235218D01*
X9810810Y12190782D01*
X9751563D01*
X9721939Y12235218D02*
X9662691D01*
Y12220406D01*
X9721939Y12161159D01*
Y12146347D01*
X3401956Y15390385D02*
X3416768Y15405197D01*
X3446392D01*
X3461203Y15390385D01*
Y15331137D01*
X3446392Y15316325D01*
X3416768D01*
X3401956Y15331137D01*
X3372332Y15316325D02*
X3342708D01*
X3357520D01*
Y15405197D01*
X3372332Y15390385D01*
X3253837Y15316325D02*
Y15405197D01*
X3298273Y15360760D01*
X3239025D01*
X3150154Y15316325D02*
X3209402D01*
X3150154Y15375574D01*
Y15390385D01*
X3164966Y15405197D01*
X3194590D01*
X3209402Y15390385D01*
X3415472Y17708025D02*
X3430284Y17722836D01*
X3459908D01*
X3474720Y17708025D01*
Y17648776D01*
X3459908Y17633965D01*
X3430284D01*
X3415472Y17648776D01*
X3385849Y17633965D02*
X3356225D01*
X3371037D01*
Y17722836D01*
X3385849Y17708025D01*
X3267354Y17633965D02*
Y17722836D01*
X3311789Y17678400D01*
X3252542D01*
X3222918Y17633965D02*
X3193294D01*
X3208106D01*
Y17722836D01*
X3222918Y17708025D01*
X10540503Y11026606D02*
X10555315Y11041418D01*
X10584938D01*
X10599750Y11026606D01*
Y10967359D01*
X10584938Y10952547D01*
X10555315D01*
X10540503Y10967359D01*
X10510879Y10952547D02*
X10481255D01*
X10496067D01*
Y11041418D01*
X10510879Y11026606D01*
X10436820D02*
X10422008Y11041418D01*
X10392384D01*
X10377572Y11026606D01*
Y11011794D01*
X10392384Y10996982D01*
X10407196D01*
X10392384D01*
X10377572Y10982171D01*
Y10967359D01*
X10392384Y10952547D01*
X10422008D01*
X10436820Y10967359D01*
X10347948D02*
X10333137Y10952547D01*
X10303513D01*
X10288701Y10967359D01*
Y11026606D01*
X10303513Y11041418D01*
X10333137D01*
X10347948Y11026606D01*
Y11011794D01*
X10333137Y10996982D01*
X10288701D01*
X9711293Y11026606D02*
X9726105Y11041418D01*
X9755729D01*
X9770541Y11026606D01*
Y10967359D01*
X9755729Y10952547D01*
X9726105D01*
X9711293Y10967359D01*
X9681669Y10952547D02*
X9652046D01*
X9666858D01*
Y11041418D01*
X9681669Y11026606D01*
X9607610D02*
X9592798Y11041418D01*
X9563175D01*
X9548363Y11026606D01*
Y11011794D01*
X9563175Y10996982D01*
X9577986D01*
X9563175D01*
X9548363Y10982171D01*
Y10967359D01*
X9563175Y10952547D01*
X9592798D01*
X9607610Y10967359D01*
X9518739Y11026606D02*
X9503927Y11041418D01*
X9474303D01*
X9459491Y11026606D01*
Y11011794D01*
X9474303Y10996982D01*
X9459491Y10982171D01*
Y10967359D01*
X9474303Y10952547D01*
X9503927D01*
X9518739Y10967359D01*
Y10982171D01*
X9503927Y10996982D01*
X9518739Y11011794D01*
Y11026606D01*
X9503927Y10996982D02*
X9474303D01*
X10125898Y10748490D02*
X10140710Y10763302D01*
X10170334D01*
X10185145Y10748490D01*
Y10689243D01*
X10170334Y10674431D01*
X10140710D01*
X10125898Y10689243D01*
X10096274Y10674431D02*
X10066650D01*
X10081462D01*
Y10763302D01*
X10096274Y10748490D01*
X10022215D02*
X10007403Y10763302D01*
X9977779D01*
X9962967Y10748490D01*
Y10733679D01*
X9977779Y10718867D01*
X9992591D01*
X9977779D01*
X9962967Y10704055D01*
Y10689243D01*
X9977779Y10674431D01*
X10007403D01*
X10022215Y10689243D01*
X9933344Y10763302D02*
X9874096D01*
Y10748490D01*
X9933344Y10689243D01*
Y10674431D01*
X9889093Y10569406D02*
X9903905Y10584218D01*
X9933529D01*
X9948341Y10569406D01*
Y10510159D01*
X9933529Y10495347D01*
X9903905D01*
X9889093Y10510159D01*
X9859469Y10495347D02*
X9829846D01*
X9844658D01*
Y10584218D01*
X9859469Y10569406D01*
X9785410D02*
X9770598Y10584218D01*
X9740975D01*
X9726163Y10569406D01*
Y10554594D01*
X9740975Y10539782D01*
X9755786D01*
X9740975D01*
X9726163Y10524971D01*
Y10510159D01*
X9740975Y10495347D01*
X9770598D01*
X9785410Y10510159D01*
X9637291Y10584218D02*
X9696539D01*
Y10539782D01*
X9666915Y10554594D01*
X9652103D01*
X9637291Y10539782D01*
Y10510159D01*
X9652103Y10495347D01*
X9681727D01*
X9696539Y10510159D01*
X9563944Y10172310D02*
X9578756Y10157498D01*
Y10127874D01*
X9563944Y10113062D01*
X9504697D01*
X9489885Y10127874D01*
Y10157498D01*
X9504697Y10172310D01*
X9489885Y10201933D02*
Y10231557D01*
Y10216745D01*
X9578756D01*
X9563944Y10201933D01*
Y10275993D02*
X9578756Y10290804D01*
Y10320428D01*
X9563944Y10335240D01*
X9549133D01*
X9534321Y10320428D01*
Y10305616D01*
Y10320428D01*
X9519509Y10335240D01*
X9504697D01*
X9489885Y10320428D01*
Y10290804D01*
X9504697Y10275993D01*
X9489885Y10409299D02*
X9578756D01*
X9534321Y10364864D01*
Y10424111D01*
X11137403Y11115506D02*
X11152215Y11130318D01*
X11181838D01*
X11196650Y11115506D01*
Y11056259D01*
X11181838Y11041447D01*
X11152215D01*
X11137403Y11056259D01*
X11107779Y11041447D02*
X11078155D01*
X11092967D01*
Y11130318D01*
X11107779Y11115506D01*
X11033720D02*
X11018908Y11130318D01*
X10989284D01*
X10974472Y11115506D01*
Y11100694D01*
X10989284Y11085882D01*
X11004096D01*
X10989284D01*
X10974472Y11071071D01*
Y11056259D01*
X10989284Y11041447D01*
X11018908D01*
X11033720Y11056259D01*
X10944848Y11115506D02*
X10930037Y11130318D01*
X10900413D01*
X10885601Y11115506D01*
Y11100694D01*
X10900413Y11085882D01*
X10915225D01*
X10900413D01*
X10885601Y11071071D01*
Y11056259D01*
X10900413Y11041447D01*
X10930037D01*
X10944848Y11056259D01*
X10386674Y10129527D02*
X10401486Y10144339D01*
X10431110D01*
X10445922Y10129527D01*
Y10070279D01*
X10431110Y10055467D01*
X10401486D01*
X10386674Y10070279D01*
X10357050Y10055467D02*
X10327427D01*
X10342239D01*
Y10144339D01*
X10357050Y10129527D01*
X10282991D02*
X10268179Y10144339D01*
X10238556D01*
X10223744Y10129527D01*
Y10114715D01*
X10238556Y10099903D01*
X10253367D01*
X10238556D01*
X10223744Y10085091D01*
Y10070279D01*
X10238556Y10055467D01*
X10268179D01*
X10282991Y10070279D01*
X10134872Y10055467D02*
X10194120D01*
X10134872Y10114715D01*
Y10129527D01*
X10149684Y10144339D01*
X10179308D01*
X10194120Y10129527D01*
X9952593Y11407606D02*
X9967405Y11422418D01*
X9997029D01*
X10011841Y11407606D01*
Y11348359D01*
X9997029Y11333547D01*
X9967405D01*
X9952593Y11348359D01*
X9922969Y11333547D02*
X9893346D01*
X9908158D01*
Y11422418D01*
X9922969Y11407606D01*
X9848910D02*
X9834098Y11422418D01*
X9804475D01*
X9789663Y11407606D01*
Y11392794D01*
X9804475Y11377982D01*
X9819286D01*
X9804475D01*
X9789663Y11363171D01*
Y11348359D01*
X9804475Y11333547D01*
X9834098D01*
X9848910Y11348359D01*
X9760039Y11333547D02*
X9730415D01*
X9745227D01*
Y11422418D01*
X9760039Y11407606D01*
X9551244Y11823310D02*
X9566056Y11808498D01*
Y11778874D01*
X9551244Y11764062D01*
X9491997D01*
X9477185Y11778874D01*
Y11808498D01*
X9491997Y11823310D01*
X9477185Y11852933D02*
Y11882557D01*
Y11867745D01*
X9566056D01*
X9551244Y11852933D01*
Y11926993D02*
X9566056Y11941804D01*
Y11971428D01*
X9551244Y11986240D01*
X9536433D01*
X9521621Y11971428D01*
Y11956616D01*
Y11971428D01*
X9506809Y11986240D01*
X9491997D01*
X9477185Y11971428D01*
Y11941804D01*
X9491997Y11926993D01*
X9551244Y12015864D02*
X9566056Y12030676D01*
Y12060299D01*
X9551244Y12075111D01*
X9491997D01*
X9477185Y12060299D01*
Y12030676D01*
X9491997Y12015864D01*
X9551244D01*
X9826646Y9394670D02*
X9841458Y9409482D01*
X9871082D01*
X9885894Y9394670D01*
Y9335423D01*
X9871082Y9320611D01*
X9841458D01*
X9826646Y9335423D01*
X9797023Y9394670D02*
X9782211Y9409482D01*
X9752587D01*
X9737775Y9394670D01*
Y9379859D01*
X9767399Y9350235D01*
Y9335423D02*
Y9320611D01*
X8129471Y9254462D02*
X8114659Y9239650D01*
X8085035D01*
X8070224Y9254462D01*
Y9313710D01*
X8085035Y9328522D01*
X8114659D01*
X8129471Y9313710D01*
X8159095Y9328522D02*
X8188719D01*
X8173907D01*
Y9239650D01*
X8159095Y9254462D01*
X8292402Y9328522D02*
X8233154D01*
X8292402Y9269274D01*
Y9254462D01*
X8277590Y9239650D01*
X8247966D01*
X8233154Y9254462D01*
X8366461Y9328522D02*
Y9239650D01*
X8322026Y9284086D01*
X8381273D01*
X5981572Y12786826D02*
X5996384Y12801637D01*
X6026008D01*
X6040819Y12786826D01*
Y12727579D01*
X6026008Y12712767D01*
X5996384D01*
X5981572Y12727579D01*
X5951948Y12712767D02*
X5922324D01*
X5937136D01*
Y12801637D01*
X5951948Y12786826D01*
X5877889Y12712767D02*
X5848265D01*
X5863077D01*
Y12801637D01*
X5877889Y12786826D01*
X5803829Y12727579D02*
X5789018Y12712767D01*
X5759394D01*
X5744582Y12727579D01*
Y12786826D01*
X5759394Y12801637D01*
X5789018D01*
X5803829Y12786826D01*
Y12772014D01*
X5789018Y12757202D01*
X5744582D01*
X5603228Y11014363D02*
X5588416Y10999551D01*
X5558793D01*
X5543981Y11014363D01*
Y11073611D01*
X5558793Y11088422D01*
X5588416D01*
X5603228Y11073611D01*
X5632852Y11088422D02*
X5662476D01*
X5647664D01*
Y10999551D01*
X5632852Y11014363D01*
X5706911Y11088422D02*
X5736535D01*
X5721723D01*
Y10999551D01*
X5706911Y11014363D01*
X5780971D02*
X5795782Y10999551D01*
X5825406D01*
X5840218Y11014363D01*
Y11029175D01*
X5825406Y11043987D01*
X5840218Y11058799D01*
Y11073611D01*
X5825406Y11088422D01*
X5795782D01*
X5780971Y11073611D01*
Y11058799D01*
X5795782Y11043987D01*
X5780971Y11029175D01*
Y11014363D01*
X5795782Y11043987D02*
X5825406D01*
X4460228Y11062594D02*
X4445416Y11047782D01*
X4415793D01*
X4400981Y11062594D01*
Y11121842D01*
X4415793Y11136654D01*
X4445416D01*
X4460228Y11121842D01*
X4489852Y11136654D02*
X4519476D01*
X4504664D01*
Y11047782D01*
X4489852Y11062594D01*
X4563911Y11136654D02*
X4593535D01*
X4578723D01*
Y11047782D01*
X4563911Y11062594D01*
X4637971Y11047782D02*
X4697218D01*
Y11062594D01*
X4637971Y11121842D01*
Y11136654D01*
X3529671Y12442643D02*
X3544483Y12457455D01*
X3574107D01*
X3588919Y12442643D01*
Y12383395D01*
X3574107Y12368584D01*
X3544483D01*
X3529671Y12383395D01*
X3500047Y12368584D02*
X3470424D01*
X3485236D01*
Y12457455D01*
X3500047Y12442643D01*
X3425988Y12368584D02*
X3396364D01*
X3411176D01*
Y12457455D01*
X3425988Y12442643D01*
X3292681Y12457455D02*
X3322305Y12442643D01*
X3351929Y12413019D01*
Y12383395D01*
X3337117Y12368584D01*
X3307493D01*
X3292681Y12383395D01*
Y12398207D01*
X3307493Y12413019D01*
X3351929D01*
X3112373Y9281626D02*
X3127185Y9296438D01*
X3156809D01*
X3171621Y9281626D01*
Y9222379D01*
X3156809Y9207567D01*
X3127185D01*
X3112373Y9222379D01*
X3082749Y9207567D02*
X3053126D01*
X3067938D01*
Y9296438D01*
X3082749Y9281626D01*
X3008690D02*
X2993878Y9296438D01*
X2964255D01*
X2949443Y9281626D01*
Y9222379D01*
X2964255Y9207567D01*
X2993878D01*
X3008690Y9222379D01*
Y9281626D01*
X2860571Y9207567D02*
X2919819D01*
X2860571Y9266814D01*
Y9281626D01*
X2875383Y9296438D01*
X2905007D01*
X2919819Y9281626D01*
X3112373Y9408626D02*
X3127185Y9423438D01*
X3156809D01*
X3171621Y9408626D01*
Y9349379D01*
X3156809Y9334567D01*
X3127185D01*
X3112373Y9349379D01*
X3082749Y9334567D02*
X3053126D01*
X3067938D01*
Y9423438D01*
X3082749Y9408626D01*
X3008690D02*
X2993878Y9423438D01*
X2964255D01*
X2949443Y9408626D01*
Y9349379D01*
X2964255Y9334567D01*
X2993878D01*
X3008690Y9349379D01*
Y9408626D01*
X2919819Y9334567D02*
X2890195D01*
X2905007D01*
Y9423438D01*
X2919819Y9408626D01*
X3112373Y10043626D02*
X3127185Y10058438D01*
X3156809D01*
X3171621Y10043626D01*
Y9984379D01*
X3156809Y9969567D01*
X3127185D01*
X3112373Y9984379D01*
X3082749D02*
X3067938Y9969567D01*
X3038314D01*
X3023502Y9984379D01*
Y10043626D01*
X3038314Y10058438D01*
X3067938D01*
X3082749Y10043626D01*
Y10028814D01*
X3067938Y10014002D01*
X3023502D01*
X2993878Y9984379D02*
X2979066Y9969567D01*
X2949443D01*
X2934631Y9984379D01*
Y10043626D01*
X2949443Y10058438D01*
X2979066D01*
X2993878Y10043626D01*
Y10028814D01*
X2979066Y10014002D01*
X2934631D01*
X3112373Y10170626D02*
X3127185Y10185438D01*
X3156809D01*
X3171621Y10170626D01*
Y10111379D01*
X3156809Y10096567D01*
X3127185D01*
X3112373Y10111379D01*
X3082749D02*
X3067938Y10096567D01*
X3038314D01*
X3023502Y10111379D01*
Y10170626D01*
X3038314Y10185438D01*
X3067938D01*
X3082749Y10170626D01*
Y10155814D01*
X3067938Y10141002D01*
X3023502D01*
X2993878Y10170626D02*
X2979066Y10185438D01*
X2949443D01*
X2934631Y10170626D01*
Y10155814D01*
X2949443Y10141002D01*
X2934631Y10126191D01*
Y10111379D01*
X2949443Y10096567D01*
X2979066D01*
X2993878Y10111379D01*
Y10126191D01*
X2979066Y10141002D01*
X2993878Y10155814D01*
Y10170626D01*
X2979066Y10141002D02*
X2949443D01*
X3112373Y10297626D02*
X3127185Y10312438D01*
X3156809D01*
X3171621Y10297626D01*
Y10238379D01*
X3156809Y10223567D01*
X3127185D01*
X3112373Y10238379D01*
X3082749D02*
X3067938Y10223567D01*
X3038314D01*
X3023502Y10238379D01*
Y10297626D01*
X3038314Y10312438D01*
X3067938D01*
X3082749Y10297626D01*
Y10282814D01*
X3067938Y10268002D01*
X3023502D01*
X2993878Y10312438D02*
X2934631D01*
Y10297626D01*
X2993878Y10238379D01*
Y10223567D01*
X3112373Y10424626D02*
X3127185Y10439438D01*
X3156809D01*
X3171621Y10424626D01*
Y10365379D01*
X3156809Y10350567D01*
X3127185D01*
X3112373Y10365379D01*
X3082749D02*
X3067938Y10350567D01*
X3038314D01*
X3023502Y10365379D01*
Y10424626D01*
X3038314Y10439438D01*
X3067938D01*
X3082749Y10424626D01*
Y10409814D01*
X3067938Y10395002D01*
X3023502D01*
X2934631Y10439438D02*
X2964254Y10424626D01*
X2993878Y10395002D01*
Y10365379D01*
X2979066Y10350567D01*
X2949443D01*
X2934631Y10365379D01*
Y10380191D01*
X2949443Y10395002D01*
X2993878D01*
X3112373Y10551626D02*
X3127185Y10566438D01*
X3156809D01*
X3171621Y10551626D01*
Y10492379D01*
X3156809Y10477567D01*
X3127185D01*
X3112373Y10492379D01*
X3082749D02*
X3067938Y10477567D01*
X3038314D01*
X3023502Y10492379D01*
Y10551626D01*
X3038314Y10566438D01*
X3067938D01*
X3082749Y10551626D01*
Y10536814D01*
X3067938Y10522002D01*
X3023502D01*
X2934631Y10566438D02*
X2993878D01*
Y10522002D01*
X2964254Y10536814D01*
X2949443D01*
X2934631Y10522002D01*
Y10492379D01*
X2949443Y10477567D01*
X2979066D01*
X2993878Y10492379D01*
X3112373Y10805626D02*
X3127185Y10820438D01*
X3156809D01*
X3171621Y10805626D01*
Y10746379D01*
X3156809Y10731567D01*
X3127185D01*
X3112373Y10746379D01*
X3082749D02*
X3067938Y10731567D01*
X3038314D01*
X3023502Y10746379D01*
Y10805626D01*
X3038314Y10820438D01*
X3067938D01*
X3082749Y10805626D01*
Y10790814D01*
X3067938Y10776002D01*
X3023502D01*
X2949443Y10731567D02*
Y10820438D01*
X2993878Y10776002D01*
X2934631D01*
X7468133Y15495760D02*
X7482945Y15510571D01*
X7512568D01*
X7527380Y15495760D01*
Y15436513D01*
X7512568Y15421700D01*
X7482945D01*
X7468133Y15436513D01*
X7438509Y15510571D02*
X7379261D01*
Y15495760D01*
X7438509Y15436513D01*
Y15421700D01*
X7290390Y15510571D02*
X7349638D01*
Y15466136D01*
X7320014Y15480948D01*
X7305202D01*
X7290390Y15466136D01*
Y15436513D01*
X7305202Y15421700D01*
X7334826D01*
X7349638Y15436513D01*
X14594243Y15075728D02*
X14579431Y15090540D01*
Y15120163D01*
X14594243Y15134975D01*
X14653491D01*
X14668303Y15120163D01*
Y15090540D01*
X14653491Y15075728D01*
X14579431Y14986856D02*
X14594243Y15016479D01*
X14623866Y15046104D01*
X14653491D01*
X14668303Y15031293D01*
Y15001668D01*
X14653491Y14986856D01*
X14638680D01*
X14623866Y15001668D01*
Y15046104D01*
X14579431Y14957233D02*
Y14897984D01*
X14594243D01*
X14653491Y14957233D01*
X14668303D01*
X6126913Y13626389D02*
X6141725Y13641200D01*
X6171349D01*
X6186160Y13626389D01*
Y13567142D01*
X6171349Y13552330D01*
X6141725D01*
X6126913Y13567142D01*
X6038042Y13641200D02*
X6067665Y13626389D01*
X6097289Y13596767D01*
Y13567142D01*
X6082477Y13552330D01*
X6052854D01*
X6038042Y13567142D01*
Y13581953D01*
X6052854Y13596767D01*
X6097289D01*
X5963982Y13552330D02*
Y13641200D01*
X6008418Y13596767D01*
X5949170D01*
X6048630Y13706842D02*
X6033818Y13692030D01*
X6004194D01*
X5989382Y13706842D01*
Y13766089D01*
X6004194Y13780901D01*
X6033818D01*
X6048630Y13766089D01*
X6137501Y13692030D02*
X6107877Y13706842D01*
X6078254Y13736465D01*
Y13766089D01*
X6093065Y13780901D01*
X6122689D01*
X6137501Y13766089D01*
Y13751277D01*
X6122689Y13736465D01*
X6078254D01*
X6167125Y13780901D02*
X6196749D01*
X6181937D01*
Y13692030D01*
X6167125Y13706842D01*
X7980977Y16353813D02*
X7966165Y16339001D01*
X7936541D01*
X7921729Y16353813D01*
Y16413062D01*
X7936541Y16427873D01*
X7966165D01*
X7980977Y16413062D01*
X8069848Y16339001D02*
X8010601D01*
Y16383437D01*
X8040224Y16368625D01*
X8055036D01*
X8069848Y16383437D01*
Y16413062D01*
X8055036Y16427873D01*
X8025412D01*
X8010601Y16413062D01*
X8158720Y16339001D02*
X8099472D01*
Y16383437D01*
X8129096Y16368625D01*
X8143908D01*
X8158720Y16383437D01*
Y16413062D01*
X8143908Y16427873D01*
X8114284D01*
X8099472Y16413062D01*
X15764096Y14064809D02*
X15749284Y14079620D01*
Y14109242D01*
X15764096Y14124055D01*
X15823344D01*
X15838156Y14109242D01*
Y14079620D01*
X15823344Y14064809D01*
X15749284Y13975935D02*
Y14035184D01*
X15793719D01*
X15778908Y14005560D01*
Y13990749D01*
X15793719Y13975935D01*
X15823344D01*
X15838156Y13990749D01*
Y14020372D01*
X15823344Y14035184D01*
X15838156Y13887065D02*
Y13946312D01*
X15778908Y13887065D01*
X15764096D01*
X15749284Y13901877D01*
Y13931500D01*
X15764096Y13946312D01*
X9870973Y18592020D02*
X9885785Y18606831D01*
X9915408D01*
X9930220Y18592020D01*
Y18532771D01*
X9915408Y18517960D01*
X9885785D01*
X9870973Y18532771D01*
X9841349Y18606831D02*
X9782101D01*
Y18592020D01*
X9841349Y18532771D01*
Y18517960D01*
X9693230D02*
X9752478D01*
X9693230Y18577208D01*
Y18592020D01*
X9708042Y18606831D01*
X9737666D01*
X9752478Y18592020D01*
X9870973Y19140659D02*
X9885785Y19155470D01*
X9915408D01*
X9930220Y19140659D01*
Y19081412D01*
X9915408Y19066600D01*
X9885785D01*
X9870973Y19081412D01*
X9841349Y19155470D02*
X9782101D01*
Y19140659D01*
X9841349Y19081412D01*
Y19066600D01*
X9752478D02*
X9722854D01*
X9737666D01*
Y19155470D01*
X9752478Y19140659D01*
X9870973Y19404819D02*
X9885785Y19419630D01*
X9915408D01*
X9930220Y19404819D01*
Y19345572D01*
X9915408Y19330760D01*
X9885785D01*
X9870973Y19345572D01*
X9841349Y19419630D02*
X9782101D01*
Y19404819D01*
X9841349Y19345572D01*
Y19330760D01*
X9752478Y19404819D02*
X9737666Y19419630D01*
X9708042D01*
X9693230Y19404819D01*
Y19345572D01*
X9708042Y19330760D01*
X9737666D01*
X9752478Y19345572D01*
Y19404819D01*
X9870973Y18873959D02*
X9885785Y18888771D01*
X9915408D01*
X9930220Y18873959D01*
Y18814713D01*
X9915408Y18799899D01*
X9885785D01*
X9870973Y18814713D01*
X9782101Y18888771D02*
X9811725Y18873959D01*
X9841349Y18844336D01*
Y18814713D01*
X9826537Y18799899D01*
X9796913D01*
X9782101Y18814713D01*
Y18829524D01*
X9796913Y18844336D01*
X9841349D01*
X9752478Y18814713D02*
X9737666Y18799899D01*
X9708042D01*
X9693230Y18814713D01*
Y18873959D01*
X9708042Y18888771D01*
X9737666D01*
X9752478Y18873959D01*
Y18859148D01*
X9737666Y18844336D01*
X9693230D01*
X10521213Y18068779D02*
X10536025Y18083591D01*
X10565648D01*
X10580460Y18068779D01*
Y18009532D01*
X10565648Y17994720D01*
X10536025D01*
X10521213Y18009532D01*
X10432341Y18083591D02*
X10491589D01*
Y18039156D01*
X10461965Y18053967D01*
X10447153D01*
X10432341Y18039156D01*
Y18009532D01*
X10447153Y17994720D01*
X10476777D01*
X10491589Y18009532D01*
X10358282Y17994720D02*
Y18083591D01*
X10402718Y18039156D01*
X10343470D01*
X10744188Y8426074D02*
X10729376Y8411262D01*
X10699752D01*
X10684940Y8426074D01*
Y8485322D01*
X10699752Y8500134D01*
X10729376D01*
X10744188Y8485322D01*
X10818247Y8500134D02*
Y8411262D01*
X10773812Y8455698D01*
X10833059D01*
X10862683Y8426074D02*
X10877495Y8411262D01*
X10907118D01*
X10921930Y8426074D01*
Y8440886D01*
X10907118Y8455698D01*
X10892307D01*
X10907118D01*
X10921930Y8470510D01*
Y8485322D01*
X10907118Y8500134D01*
X10877495D01*
X10862683Y8485322D01*
X10741648Y8067934D02*
X10726836Y8053122D01*
X10697212D01*
X10682400Y8067934D01*
Y8127182D01*
X10697212Y8141994D01*
X10726836D01*
X10741648Y8127182D01*
X10815707Y8141994D02*
Y8053122D01*
X10771272Y8097558D01*
X10830519D01*
X10919390Y8141994D02*
X10860143D01*
X10919390Y8082746D01*
Y8067934D01*
X10904578Y8053122D01*
X10874955D01*
X10860143Y8067934D01*
X18326633Y13661879D02*
X18341444Y13676691D01*
X18371068D01*
X18385880Y13661879D01*
Y13602632D01*
X18371068Y13587820D01*
X18341444D01*
X18326633Y13602632D01*
X18297009Y13661879D02*
X18282198Y13676691D01*
X18252573D01*
X18237761Y13661879D01*
Y13647067D01*
X18252573Y13632256D01*
X18267384D01*
X18252573D01*
X18237761Y13617444D01*
Y13602632D01*
X18252573Y13587820D01*
X18282198D01*
X18297009Y13602632D01*
X18148891Y13676691D02*
X18208138D01*
Y13632256D01*
X18178514Y13647067D01*
X18163702D01*
X18148891Y13632256D01*
Y13602632D01*
X18163702Y13587820D01*
X18193326D01*
X18208138Y13602632D01*
X19855713Y14002238D02*
X19870525Y14017052D01*
X19900148D01*
X19914960Y14002238D01*
Y13942992D01*
X19900148Y13928180D01*
X19870525D01*
X19855713Y13942992D01*
X19766841Y13928180D02*
X19826089D01*
X19766841Y13987428D01*
Y14002238D01*
X19781653Y14017052D01*
X19811276D01*
X19826089Y14002238D01*
X19737218D02*
X19722406Y14017052D01*
X19692783D01*
X19677969Y14002238D01*
Y13987428D01*
X19692783Y13972617D01*
X19677969Y13957803D01*
Y13942992D01*
X19692783Y13928180D01*
X19722406D01*
X19737218Y13942992D01*
Y13957803D01*
X19722406Y13972617D01*
X19737218Y13987428D01*
Y14002238D01*
X19722406Y13972617D02*
X19692783D01*
X11784893Y8141642D02*
X11799705Y8156454D01*
X11829329D01*
X11844141Y8141642D01*
Y8082394D01*
X11829329Y8067583D01*
X11799705D01*
X11784893Y8082394D01*
X11696022Y8067583D02*
X11755270D01*
X11696022Y8126830D01*
Y8141642D01*
X11710834Y8156454D01*
X11740458D01*
X11755270Y8141642D01*
X11666398Y8156454D02*
X11607151D01*
Y8141642D01*
X11666398Y8082394D01*
Y8067583D01*
X13696216Y11678848D02*
X13681404Y11693660D01*
Y11723283D01*
X13696216Y11738095D01*
X13755464D01*
X13770274Y11723283D01*
Y11693660D01*
X13755464Y11678848D01*
X13770274Y11589976D02*
Y11649224D01*
X13711028Y11589976D01*
X13696216D01*
X13681404Y11604788D01*
Y11634412D01*
X13696216Y11649224D01*
X13770274Y11501105D02*
Y11560353D01*
X13711028Y11501105D01*
X13696216D01*
X13681404Y11515917D01*
Y11545541D01*
X13696216Y11560353D01*
Y11403848D02*
X13681404Y11418660D01*
Y11448283D01*
X13696216Y11463095D01*
X13755464D01*
X13770274Y11448283D01*
Y11418660D01*
X13755464Y11403848D01*
X13770274Y11314976D02*
Y11374224D01*
X13711028Y11314976D01*
X13696216D01*
X13681404Y11329788D01*
Y11359412D01*
X13696216Y11374224D01*
Y11285353D02*
X13681404Y11270541D01*
Y11240917D01*
X13696216Y11226105D01*
X13755464D01*
X13770274Y11240917D01*
Y11270541D01*
X13755464Y11285353D01*
X13696216D01*
X13684001Y11942573D02*
X13669189Y11957385D01*
Y11987008D01*
X13684001Y12001820D01*
X13743248D01*
X13758060Y11987008D01*
Y11957385D01*
X13743248Y11942573D01*
X13758060Y11912949D02*
Y11883325D01*
Y11898137D01*
X13669189D01*
X13684001Y11912949D01*
X13743248Y11838889D02*
X13758060Y11824078D01*
Y11794454D01*
X13743248Y11779642D01*
X13684001D01*
X13669189Y11794454D01*
Y11824078D01*
X13684001Y11838889D01*
X13698813D01*
X13713625Y11824078D01*
Y11779642D01*
X13495277Y9998386D02*
X13510089Y10013198D01*
X13539713D01*
X13554524Y9998386D01*
Y9939138D01*
X13539713Y9924327D01*
X13510089D01*
X13495277Y9939138D01*
X13465652Y9924327D02*
X13436029D01*
X13450841D01*
Y10013198D01*
X13465652Y9998386D01*
X13391592Y10013198D02*
X13332346D01*
Y9998386D01*
X13391592Y9939138D01*
Y9924327D01*
X17203374Y13309019D02*
X17218185Y13323833D01*
X17247807D01*
X17262621Y13309019D01*
Y13249773D01*
X17247807Y13234959D01*
X17218185D01*
X17203374Y13249773D01*
X17173749Y13234959D02*
X17144125D01*
X17158937D01*
Y13323833D01*
X17173749Y13309019D01*
X17040442Y13323833D02*
X17099689D01*
Y13279396D01*
X17070065Y13294208D01*
X17055254D01*
X17040442Y13279396D01*
Y13249773D01*
X17055254Y13234959D01*
X17084879D01*
X17099689Y13249773D01*
X16462167Y12928702D02*
X16476979Y12943513D01*
X16506602D01*
X16521416Y12928702D01*
Y12869455D01*
X16506602Y12854643D01*
X16476979D01*
X16462167Y12869455D01*
X16432542Y12943513D02*
X16373296D01*
Y12928702D01*
X16432542Y12869455D01*
Y12854643D01*
X12443032Y13416251D02*
X12428220Y13431062D01*
Y13460687D01*
X12443032Y13475499D01*
X12502280D01*
X12517091Y13460687D01*
Y13431062D01*
X12502280Y13416251D01*
X12443032Y13386629D02*
X12428220Y13371815D01*
Y13342192D01*
X12443032Y13327380D01*
X12457844D01*
X12472656Y13342192D01*
Y13357004D01*
Y13342192D01*
X12487468Y13327380D01*
X12502280D01*
X12517091Y13342192D01*
Y13371815D01*
X12502280Y13386629D01*
X16674272Y11229739D02*
X16689084Y11244551D01*
X16718707D01*
X16733521Y11229739D01*
Y11170492D01*
X16718707Y11155680D01*
X16689084D01*
X16674272Y11170492D01*
X16585400Y11155680D02*
X16644649D01*
X16585400Y11214928D01*
Y11229739D01*
X16600214Y11244551D01*
X16629837D01*
X16644649Y11229739D01*
%TF.MD5,01c1447ff87469a47204f0cf4fe70f85*%
M02*
