%TF.GenerationSoftware,Altium Limited,Altium Designer,23.11.1 (41)*%
G04 Layer_Physical_Order=10*
G04 Layer_Color=16777215*
%FSLAX45Y45*%
%MOMM*%
%TF.SameCoordinates,75D3B97C-BFDA-4FAF-9EB3-CC348FD6A853*%
%TF.FilePolarity,Positive*%
%TF.FileFunction,Copper,L10,Inr,Signal*%
%TF.Part,Single*%
G01*
G75*
%TA.AperFunction,Conductor*%
%ADD83C,0.50800*%
%TA.AperFunction,ComponentPad*%
%ADD86C,6.20000*%
%ADD87C,2.20000*%
%ADD88C,3.81000*%
G04:AMPARAMS|DCode=89|XSize=1.524mm|YSize=1.524mm|CornerRadius=0mm|HoleSize=0mm|Usage=FLASHONLY|Rotation=90.000|XOffset=0mm|YOffset=0mm|HoleType=Round|Shape=Octagon|*
%AMOCTAGOND89*
4,1,8,0.38100,0.76200,-0.38100,0.76200,-0.76200,0.38100,-0.76200,-0.38100,-0.38100,-0.76200,0.38100,-0.76200,0.76200,-0.38100,0.76200,0.38100,0.38100,0.76200,0.0*
%
%ADD89OCTAGOND89*%

%ADD90C,1.52400*%
%ADD91C,3.00000*%
%ADD92C,1.60000*%
%ADD93C,0.60000*%
%ADD94R,1.90500X1.90500*%
%ADD95C,1.90500*%
%ADD96R,3.00000X3.00000*%
%TA.AperFunction,ViaPad*%
%ADD97C,0.30480*%
%ADD98C,0.50000*%
%ADD99C,0.55880*%
%ADD100C,0.50800*%
G36*
X17465041Y17215758D02*
X13580246D01*
X13575740Y17591550D01*
X14354803Y18387206D01*
X16603979D01*
Y18387102D01*
X16609779Y18373099D01*
X16620499Y18362379D01*
X16634502Y18356580D01*
X16649660D01*
X16663663Y18362379D01*
X16674380Y18373099D01*
X16680180Y18387102D01*
Y18387206D01*
X17465041D01*
Y17215758D01*
D02*
G37*
G36*
X16419106Y14936119D02*
X14003912D01*
X13502528Y15437503D01*
Y15479376D01*
X14402269Y16379115D01*
X16419106D01*
Y14936119D01*
D02*
G37*
G36*
X19057690Y14368353D02*
X19057690Y14064381D01*
X19007426D01*
Y14283405D01*
X18472169D01*
Y14062524D01*
X18323692D01*
Y14088132D01*
X18273921Y14137898D01*
X18242728D01*
Y14507961D01*
X18196149Y14507961D01*
Y14744701D01*
X18681345D01*
X19057690Y14368353D01*
D02*
G37*
G36*
X17637112Y13704832D02*
X14868103D01*
Y13895306D01*
X14878207D01*
X14896880Y13903041D01*
X14911169Y13917331D01*
X14911752Y13918739D01*
X14924454D01*
X14925037Y13917331D01*
X14939326Y13903041D01*
X14957999Y13895306D01*
X14978207D01*
X14996880Y13903041D01*
X15011169Y13917331D01*
X15011752Y13918739D01*
X15024454D01*
X15025037Y13917331D01*
X15039326Y13903041D01*
X15057999Y13895306D01*
X15078207D01*
X15096880Y13903041D01*
X15111169Y13917331D01*
X15118903Y13936003D01*
Y13956212D01*
X15111169Y13974883D01*
X15096880Y13989172D01*
X15095470Y13989757D01*
Y14002457D01*
X15096880Y14003041D01*
X15111169Y14017331D01*
X15118903Y14036002D01*
Y14056212D01*
X15111169Y14074883D01*
X15096880Y14089172D01*
X15095470Y14089757D01*
Y14102457D01*
X15096880Y14103041D01*
X15111169Y14117331D01*
X15118903Y14136002D01*
Y14156210D01*
X15111169Y14174883D01*
X15096880Y14189172D01*
X15078207Y14196907D01*
X15057999D01*
X15039326Y14189172D01*
X15025037Y14174883D01*
X15024454Y14173474D01*
X15011752D01*
X15011169Y14174883D01*
X14996880Y14189172D01*
X14978207Y14196907D01*
X14957999D01*
X14939326Y14189172D01*
X14925037Y14174883D01*
X14924454Y14173474D01*
X14911752D01*
X14911169Y14174883D01*
X14896880Y14189172D01*
X14878207Y14196907D01*
X14868103D01*
Y14569440D01*
X17637112D01*
Y13704832D01*
D02*
G37*
G36*
X8809454Y11915649D02*
X9201652Y11523450D01*
X9196908Y11518706D01*
X9191881Y11506570D01*
Y11493434D01*
X9196908Y11481298D01*
X9206197Y11472009D01*
X9218333Y11466982D01*
X9231469D01*
X9243606Y11472009D01*
X9248350Y11476753D01*
X9501702Y11223401D01*
X9497008Y11218707D01*
X9491981Y11206570D01*
Y11193434D01*
X9497008Y11181298D01*
X9506296Y11172009D01*
X9518433Y11166982D01*
X9531569D01*
X9543705Y11172009D01*
X9548399Y11176703D01*
X9575099Y11150004D01*
Y9850007D01*
X9304285D01*
X8848521Y9394242D01*
X8319288D01*
X7052894Y8127848D01*
X6117676D01*
X5236553Y9008971D01*
X5237001Y9009419D01*
Y10369601D01*
X5232830Y10373772D01*
Y13172141D01*
X5339588Y13278899D01*
X5352044Y13276421D01*
X5352500Y13275317D01*
X5363218Y13264600D01*
X5377221Y13258800D01*
X5392379D01*
X5406382Y13264600D01*
X5417100Y13275317D01*
X5422900Y13289320D01*
Y13304478D01*
X5417100Y13318481D01*
X5406382Y13329201D01*
X5405280Y13329655D01*
X5402802Y13342113D01*
X7290717Y15230026D01*
X8809454D01*
X8809454Y11915649D01*
D02*
G37*
G36*
X10475102Y10550004D02*
X10325531D01*
Y10533024D01*
X10318532D01*
X10306396Y10527997D01*
X10297107Y10518709D01*
X10292080Y10506573D01*
Y10493436D01*
X10297107Y10481300D01*
X10306396Y10472011D01*
X10318532Y10466984D01*
X10325531D01*
Y10333075D01*
X10318433D01*
X10306297Y10328048D01*
X10297008Y10318759D01*
X10291981Y10306623D01*
Y10293486D01*
X10297008Y10281350D01*
X10306297Y10272061D01*
X10318433Y10267035D01*
X10325531D01*
Y10233022D01*
X10318532D01*
X10306396Y10227995D01*
X10297107Y10218707D01*
X10292080Y10206570D01*
Y10193434D01*
X10297107Y10181298D01*
X10306396Y10172009D01*
X10318532Y10166982D01*
X10325531D01*
Y10133022D01*
X10318532D01*
X10306396Y10127995D01*
X10297107Y10118706D01*
X10292080Y10106570D01*
Y10093434D01*
X10297107Y10081298D01*
X10306396Y10072009D01*
X10318532Y10066982D01*
X10325531D01*
Y10033026D01*
X10318532D01*
X10306396Y10027999D01*
X10297107Y10018710D01*
X10292080Y10006574D01*
Y9993437D01*
X10297107Y9981301D01*
X10306396Y9972013D01*
X10318532Y9966986D01*
X10325531D01*
Y9933022D01*
X10318532D01*
X10306396Y9927995D01*
X10297107Y9918707D01*
X10292080Y9906570D01*
Y9893434D01*
X10297107Y9881298D01*
X10306396Y9872009D01*
X10318532Y9866982D01*
X10325531D01*
Y9833022D01*
X10318532D01*
X10306396Y9827995D01*
X10297107Y9818707D01*
X10292080Y9806570D01*
Y9793434D01*
X10297107Y9781298D01*
X10306396Y9772009D01*
X10318532Y9766982D01*
X10325531D01*
Y7987482D01*
X10383551Y7929462D01*
Y7625532D01*
X8748642D01*
Y9204090D01*
X9842315D01*
Y9771334D01*
X9843705Y9771910D01*
X9852994Y9781199D01*
X9858021Y9793335D01*
Y9806471D01*
X9852994Y9818607D01*
X9843705Y9827896D01*
X9842315Y9828472D01*
Y10071334D01*
X9843705Y10071910D01*
X9852994Y10081199D01*
X9858021Y10093335D01*
Y10106471D01*
X9852994Y10118607D01*
X9843705Y10127896D01*
X9842315Y10128472D01*
Y10171434D01*
X9843705Y10172009D01*
X9852994Y10181298D01*
X9858021Y10193434D01*
Y10206571D01*
X9852994Y10218707D01*
X9843705Y10227996D01*
X9842315Y10228571D01*
Y10271334D01*
X9843705Y10271910D01*
X9852994Y10281199D01*
X9858021Y10293335D01*
Y10306471D01*
X9852994Y10318607D01*
X9843705Y10327896D01*
X9842315Y10328472D01*
Y10371334D01*
X9843705Y10371910D01*
X9852994Y10381198D01*
X9858021Y10393335D01*
Y10406471D01*
X9852994Y10418607D01*
X9843705Y10427896D01*
X9842315Y10428472D01*
Y10471477D01*
X9843606Y10472012D01*
X9852894Y10481300D01*
X9857921Y10493436D01*
Y10506573D01*
X9852894Y10518709D01*
X9843606Y10527998D01*
X9842315Y10528532D01*
Y10550004D01*
X9607387Y10550001D01*
X9598407Y10558981D01*
Y10863533D01*
X9611107Y10870150D01*
X9618594Y10867048D01*
X9631730D01*
X9643866Y10872075D01*
X9653155Y10881364D01*
X9658182Y10893500D01*
Y10906637D01*
X9653155Y10918773D01*
X9643866Y10928061D01*
X9631730Y10933088D01*
X9618594D01*
X9611107Y10929987D01*
X9598407Y10936604D01*
Y10963406D01*
X9611107Y10970059D01*
X9618532Y10966983D01*
X9631669D01*
X9643805Y10972010D01*
X9653093Y10981299D01*
X9658120Y10993435D01*
Y11006572D01*
X9653093Y11018708D01*
X9643805Y11027996D01*
X9631669Y11033023D01*
X9618532D01*
X9611107Y11029948D01*
X9598407Y11036600D01*
Y11063401D01*
X9611107Y11070115D01*
X9618429Y11067082D01*
X9631565D01*
X9643701Y11072109D01*
X9652990Y11081398D01*
X9658017Y11093534D01*
Y11106670D01*
X9652990Y11118806D01*
X9643701Y11128095D01*
X9631565Y11133122D01*
X9618429D01*
X9611107Y11130089D01*
X9598407Y11136803D01*
Y11150004D01*
X9596632Y11158924D01*
X9591580Y11166485D01*
X9575099Y11182966D01*
Y11450004D01*
X10475102D01*
Y10550004D01*
D02*
G37*
G36*
X17183099Y10428874D02*
X17462500Y10428874D01*
X17462500Y10314574D01*
X17145000Y9997074D01*
X16722266Y9574339D01*
Y9227186D01*
X15945317D01*
X15779167Y9061036D01*
Y8202998D01*
X17462508D01*
Y7024233D01*
X14741125D01*
Y9123509D01*
X15214600Y9596984D01*
X16109991Y10492374D01*
X16840199D01*
X16941800Y10593974D01*
X17017999D01*
X17183099Y10428874D01*
D02*
G37*
%LPC*%
G36*
X17000282Y18195142D02*
X16981242D01*
X16963652Y18187856D01*
X16950189Y18174393D01*
X16942903Y18156802D01*
Y18137762D01*
X16950189Y18120172D01*
X16963652Y18106709D01*
X16981242Y18099422D01*
X17000282D01*
X17017873Y18106709D01*
X17031335Y18120172D01*
X17038623Y18137762D01*
Y18156802D01*
X17031335Y18174393D01*
X17017873Y18187856D01*
X17000282Y18195142D01*
D02*
G37*
G36*
X16890285D02*
X16871245D01*
X16853654Y18187856D01*
X16840192Y18174393D01*
X16832906Y18156802D01*
Y18137762D01*
X16840192Y18120172D01*
X16853654Y18106709D01*
X16871245Y18099422D01*
X16890285D01*
X16907877Y18106709D01*
X16921339Y18120172D01*
X16928625Y18137762D01*
Y18156802D01*
X16921339Y18174393D01*
X16907877Y18187856D01*
X16890285Y18195142D01*
D02*
G37*
G36*
X16780283D02*
X16761243D01*
X16743652Y18187856D01*
X16730190Y18174393D01*
X16722903Y18156802D01*
Y18137762D01*
X16730190Y18120172D01*
X16743652Y18106709D01*
X16761243Y18099422D01*
X16780283D01*
X16797873Y18106709D01*
X16811337Y18120172D01*
X16818623Y18137762D01*
Y18156802D01*
X16811337Y18174393D01*
X16797873Y18187856D01*
X16780283Y18195142D01*
D02*
G37*
G36*
X16670287D02*
X16651247D01*
X16633655Y18187856D01*
X16620192Y18174393D01*
X16612906Y18156802D01*
Y18137762D01*
X16620192Y18120172D01*
X16633655Y18106709D01*
X16651247Y18099422D01*
X16670287D01*
X16687875Y18106709D01*
X16701340Y18120172D01*
X16708626Y18137762D01*
Y18156802D01*
X16701340Y18174393D01*
X16687875Y18187856D01*
X16670287Y18195142D01*
D02*
G37*
G36*
X16560283D02*
X16541245D01*
X16523653Y18187856D01*
X16510190Y18174393D01*
X16502904Y18156802D01*
Y18137762D01*
X16510190Y18120172D01*
X16523653Y18106709D01*
X16541245Y18099422D01*
X16560283D01*
X16577875Y18106709D01*
X16591338Y18120172D01*
X16598624Y18137762D01*
Y18156802D01*
X16591338Y18174393D01*
X16577875Y18187856D01*
X16560283Y18195142D01*
D02*
G37*
G36*
X17000282Y18085146D02*
X16981242D01*
X16963652Y18077859D01*
X16950189Y18064395D01*
X16942903Y18046805D01*
Y18027765D01*
X16950189Y18010175D01*
X16963652Y17996712D01*
X16981242Y17989426D01*
X17000282D01*
X17017873Y17996712D01*
X17031335Y18010175D01*
X17038623Y18027765D01*
Y18046805D01*
X17031335Y18064395D01*
X17017873Y18077859D01*
X17000282Y18085146D01*
D02*
G37*
G36*
X16890285D02*
X16871245D01*
X16853654Y18077859D01*
X16840192Y18064395D01*
X16832906Y18046805D01*
Y18027765D01*
X16840192Y18010175D01*
X16853654Y17996712D01*
X16871245Y17989426D01*
X16890285D01*
X16907877Y17996712D01*
X16921339Y18010175D01*
X16928625Y18027765D01*
Y18046805D01*
X16921339Y18064395D01*
X16907877Y18077859D01*
X16890285Y18085146D01*
D02*
G37*
G36*
X16780283D02*
X16761243D01*
X16743652Y18077859D01*
X16730190Y18064395D01*
X16722903Y18046805D01*
Y18027765D01*
X16730190Y18010175D01*
X16743652Y17996712D01*
X16761243Y17989426D01*
X16780283D01*
X16797873Y17996712D01*
X16811337Y18010175D01*
X16818623Y18027765D01*
Y18046805D01*
X16811337Y18064395D01*
X16797873Y18077859D01*
X16780283Y18085146D01*
D02*
G37*
G36*
X16670287D02*
X16651247D01*
X16633655Y18077859D01*
X16620192Y18064395D01*
X16612906Y18046805D01*
Y18027765D01*
X16620192Y18010175D01*
X16633655Y17996712D01*
X16651247Y17989426D01*
X16670287D01*
X16687875Y17996712D01*
X16701340Y18010175D01*
X16708626Y18027765D01*
Y18046805D01*
X16701340Y18064395D01*
X16687875Y18077859D01*
X16670287Y18085146D01*
D02*
G37*
G36*
X16560283D02*
X16541245D01*
X16523653Y18077859D01*
X16510190Y18064395D01*
X16502904Y18046805D01*
Y18027765D01*
X16510190Y18010175D01*
X16523653Y17996712D01*
X16541245Y17989426D01*
X16560283D01*
X16577875Y17996712D01*
X16591338Y18010175D01*
X16598624Y18027765D01*
Y18046805D01*
X16591338Y18064395D01*
X16577875Y18077859D01*
X16560283Y18085146D01*
D02*
G37*
G36*
X17000282Y17975143D02*
X16981242D01*
X16963652Y17967856D01*
X16950189Y17954393D01*
X16942903Y17936803D01*
Y17917763D01*
X16950189Y17900172D01*
X16963652Y17886710D01*
X16981242Y17879424D01*
X17000282D01*
X17017873Y17886710D01*
X17031335Y17900172D01*
X17038623Y17917763D01*
Y17936803D01*
X17031335Y17954393D01*
X17017873Y17967856D01*
X17000282Y17975143D01*
D02*
G37*
G36*
X16890285D02*
X16871245D01*
X16853654Y17967856D01*
X16840192Y17954393D01*
X16832906Y17936803D01*
Y17917763D01*
X16840192Y17900172D01*
X16853654Y17886710D01*
X16871245Y17879424D01*
X16890285D01*
X16907877Y17886710D01*
X16921339Y17900172D01*
X16928625Y17917763D01*
Y17936803D01*
X16921339Y17954393D01*
X16907877Y17967856D01*
X16890285Y17975143D01*
D02*
G37*
G36*
X16780283D02*
X16761243D01*
X16743652Y17967856D01*
X16730190Y17954393D01*
X16722903Y17936803D01*
Y17917763D01*
X16730190Y17900172D01*
X16743652Y17886710D01*
X16761243Y17879424D01*
X16780283D01*
X16797873Y17886710D01*
X16811337Y17900172D01*
X16818623Y17917763D01*
Y17936803D01*
X16811337Y17954393D01*
X16797873Y17967856D01*
X16780283Y17975143D01*
D02*
G37*
G36*
X16670287D02*
X16651247D01*
X16633655Y17967856D01*
X16620192Y17954393D01*
X16612906Y17936803D01*
Y17917763D01*
X16620192Y17900172D01*
X16633655Y17886710D01*
X16651247Y17879424D01*
X16670287D01*
X16687875Y17886710D01*
X16701340Y17900172D01*
X16708626Y17917763D01*
Y17936803D01*
X16701340Y17954393D01*
X16687875Y17967856D01*
X16670287Y17975143D01*
D02*
G37*
G36*
X16560283D02*
X16541245D01*
X16523653Y17967856D01*
X16510190Y17954393D01*
X16502904Y17936803D01*
Y17917763D01*
X16510190Y17900172D01*
X16523653Y17886710D01*
X16541245Y17879424D01*
X16560283D01*
X16577875Y17886710D01*
X16591338Y17900172D01*
X16598624Y17917763D01*
Y17936803D01*
X16591338Y17954393D01*
X16577875Y17967856D01*
X16560283Y17975143D01*
D02*
G37*
G36*
X17000282Y17865144D02*
X16981242D01*
X16963652Y17857858D01*
X16950189Y17844395D01*
X16942903Y17826805D01*
Y17807767D01*
X16950189Y17790175D01*
X16963652Y17776712D01*
X16981242Y17769424D01*
X17000282D01*
X17017873Y17776712D01*
X17031335Y17790175D01*
X17038623Y17807767D01*
Y17826805D01*
X17031335Y17844395D01*
X17017873Y17857858D01*
X17000282Y17865144D01*
D02*
G37*
G36*
X16890285D02*
X16871245D01*
X16853654Y17857858D01*
X16840192Y17844395D01*
X16832906Y17826805D01*
Y17807767D01*
X16840192Y17790175D01*
X16853654Y17776712D01*
X16871245Y17769424D01*
X16890285D01*
X16907877Y17776712D01*
X16921339Y17790175D01*
X16928625Y17807767D01*
Y17826805D01*
X16921339Y17844395D01*
X16907877Y17857858D01*
X16890285Y17865144D01*
D02*
G37*
G36*
X16780283D02*
X16761243D01*
X16743652Y17857858D01*
X16730190Y17844395D01*
X16722903Y17826805D01*
Y17807767D01*
X16730190Y17790175D01*
X16743652Y17776712D01*
X16761243Y17769424D01*
X16780283D01*
X16797873Y17776712D01*
X16811337Y17790175D01*
X16818623Y17807767D01*
Y17826805D01*
X16811337Y17844395D01*
X16797873Y17857858D01*
X16780283Y17865144D01*
D02*
G37*
G36*
X16670287D02*
X16651247D01*
X16633655Y17857858D01*
X16620192Y17844395D01*
X16612906Y17826805D01*
Y17807767D01*
X16620192Y17790175D01*
X16633655Y17776712D01*
X16651247Y17769424D01*
X16670287D01*
X16687875Y17776712D01*
X16701340Y17790175D01*
X16708626Y17807767D01*
Y17826805D01*
X16701340Y17844395D01*
X16687875Y17857858D01*
X16670287Y17865144D01*
D02*
G37*
G36*
X16560283D02*
X16541245D01*
X16523653Y17857858D01*
X16510190Y17844395D01*
X16502904Y17826805D01*
Y17807767D01*
X16510190Y17790175D01*
X16523653Y17776712D01*
X16541245Y17769424D01*
X16560283D01*
X16577875Y17776712D01*
X16591338Y17790175D01*
X16598624Y17807767D01*
Y17826805D01*
X16591338Y17844395D01*
X16577875Y17857858D01*
X16560283Y17865144D01*
D02*
G37*
G36*
X17000282Y17755144D02*
X16981242D01*
X16963652Y17747858D01*
X16950189Y17734393D01*
X16942903Y17716803D01*
Y17697763D01*
X16950189Y17680173D01*
X16963652Y17666708D01*
X16981242Y17659422D01*
X17000282D01*
X17017873Y17666708D01*
X17031335Y17680173D01*
X17038623Y17697763D01*
Y17716803D01*
X17031335Y17734393D01*
X17017873Y17747858D01*
X17000282Y17755144D01*
D02*
G37*
G36*
X16890285D02*
X16871245D01*
X16853654Y17747858D01*
X16840192Y17734393D01*
X16832906Y17716803D01*
Y17697763D01*
X16840192Y17680173D01*
X16853654Y17666708D01*
X16871245Y17659422D01*
X16890285D01*
X16907877Y17666708D01*
X16921339Y17680173D01*
X16928625Y17697763D01*
Y17716803D01*
X16921339Y17734393D01*
X16907877Y17747858D01*
X16890285Y17755144D01*
D02*
G37*
G36*
X16780283D02*
X16761243D01*
X16743652Y17747858D01*
X16730190Y17734393D01*
X16722903Y17716803D01*
Y17697763D01*
X16730190Y17680173D01*
X16743652Y17666708D01*
X16761243Y17659422D01*
X16780283D01*
X16797873Y17666708D01*
X16811337Y17680173D01*
X16818623Y17697763D01*
Y17716803D01*
X16811337Y17734393D01*
X16797873Y17747858D01*
X16780283Y17755144D01*
D02*
G37*
G36*
X16670287D02*
X16651247D01*
X16633655Y17747858D01*
X16620192Y17734393D01*
X16612906Y17716803D01*
Y17697763D01*
X16620192Y17680173D01*
X16633655Y17666708D01*
X16651247Y17659422D01*
X16670287D01*
X16687875Y17666708D01*
X16701340Y17680173D01*
X16708626Y17697763D01*
Y17716803D01*
X16701340Y17734393D01*
X16687875Y17747858D01*
X16670287Y17755144D01*
D02*
G37*
G36*
X16560283D02*
X16541245D01*
X16523653Y17747858D01*
X16510190Y17734393D01*
X16502904Y17716803D01*
Y17697763D01*
X16510190Y17680173D01*
X16523653Y17666708D01*
X16541245Y17659422D01*
X16560283D01*
X16577875Y17666708D01*
X16591338Y17680173D01*
X16598624Y17697763D01*
Y17716803D01*
X16591338Y17734393D01*
X16577875Y17747858D01*
X16560283Y17755144D01*
D02*
G37*
G36*
X16089148Y15920201D02*
X16070108D01*
X16052518Y15912915D01*
X16039053Y15899452D01*
X16031767Y15881860D01*
Y15862820D01*
X16039053Y15845232D01*
X16052518Y15831767D01*
X16070108Y15824481D01*
X16089148D01*
X16106738Y15831767D01*
X16120203Y15845232D01*
X16127489Y15862820D01*
Y15881860D01*
X16120203Y15899452D01*
X16106738Y15912915D01*
X16089148Y15920201D01*
D02*
G37*
G36*
X15979146D02*
X15960106D01*
X15942516Y15912915D01*
X15929053Y15899452D01*
X15921767Y15881860D01*
Y15862820D01*
X15929053Y15845232D01*
X15942516Y15831767D01*
X15960106Y15824481D01*
X15979146D01*
X15996736Y15831767D01*
X16010199Y15845232D01*
X16017487Y15862820D01*
Y15881860D01*
X16010199Y15899452D01*
X15996736Y15912915D01*
X15979146Y15920201D01*
D02*
G37*
G36*
X15869148D02*
X15850108D01*
X15832518Y15912915D01*
X15819055Y15899452D01*
X15811768Y15881860D01*
Y15862820D01*
X15819055Y15845232D01*
X15832518Y15831767D01*
X15850108Y15824481D01*
X15869148D01*
X15886739Y15831767D01*
X15900201Y15845232D01*
X15907487Y15862820D01*
Y15881860D01*
X15900201Y15899452D01*
X15886739Y15912915D01*
X15869148Y15920201D01*
D02*
G37*
G36*
X15759146D02*
X15740106D01*
X15722516Y15912915D01*
X15709052Y15899452D01*
X15701765Y15881860D01*
Y15862820D01*
X15709052Y15845232D01*
X15722516Y15831767D01*
X15740106Y15824481D01*
X15759146D01*
X15776736Y15831767D01*
X15790199Y15845232D01*
X15797485Y15862820D01*
Y15881860D01*
X15790199Y15899452D01*
X15776736Y15912915D01*
X15759146Y15920201D01*
D02*
G37*
G36*
X15649149D02*
X15630109D01*
X15612518Y15912915D01*
X15599055Y15899452D01*
X15591769Y15881860D01*
Y15862820D01*
X15599055Y15845232D01*
X15612518Y15831767D01*
X15630109Y15824481D01*
X15649149D01*
X15666739Y15831767D01*
X15680203Y15845232D01*
X15687489Y15862820D01*
Y15881860D01*
X15680203Y15899452D01*
X15666739Y15912915D01*
X15649149Y15920201D01*
D02*
G37*
G36*
X16089148Y15810199D02*
X16070108D01*
X16052518Y15802913D01*
X16039053Y15789449D01*
X16031767Y15771860D01*
Y15752818D01*
X16039053Y15735228D01*
X16052518Y15721765D01*
X16070108Y15714479D01*
X16089148D01*
X16106738Y15721765D01*
X16120203Y15735228D01*
X16127489Y15752818D01*
Y15771860D01*
X16120203Y15789449D01*
X16106738Y15802913D01*
X16089148Y15810199D01*
D02*
G37*
G36*
X15979146D02*
X15960106D01*
X15942516Y15802913D01*
X15929053Y15789449D01*
X15921767Y15771860D01*
Y15752818D01*
X15929053Y15735228D01*
X15942516Y15721765D01*
X15960106Y15714479D01*
X15979146D01*
X15996736Y15721765D01*
X16010199Y15735228D01*
X16017487Y15752818D01*
Y15771860D01*
X16010199Y15789449D01*
X15996736Y15802913D01*
X15979146Y15810199D01*
D02*
G37*
G36*
X15869148D02*
X15850108D01*
X15832518Y15802913D01*
X15819055Y15789449D01*
X15811768Y15771860D01*
Y15752818D01*
X15819055Y15735228D01*
X15832518Y15721765D01*
X15850108Y15714479D01*
X15869148D01*
X15886739Y15721765D01*
X15900201Y15735228D01*
X15907487Y15752818D01*
Y15771860D01*
X15900201Y15789449D01*
X15886739Y15802913D01*
X15869148Y15810199D01*
D02*
G37*
G36*
X15759146D02*
X15740106D01*
X15722516Y15802913D01*
X15709052Y15789449D01*
X15701765Y15771860D01*
Y15752818D01*
X15709052Y15735228D01*
X15722516Y15721765D01*
X15740106Y15714479D01*
X15759146D01*
X15776736Y15721765D01*
X15790199Y15735228D01*
X15797485Y15752818D01*
Y15771860D01*
X15790199Y15789449D01*
X15776736Y15802913D01*
X15759146Y15810199D01*
D02*
G37*
G36*
X15649149D02*
X15630109D01*
X15612518Y15802913D01*
X15599055Y15789449D01*
X15591769Y15771860D01*
Y15752818D01*
X15599055Y15735228D01*
X15612518Y15721765D01*
X15630109Y15714479D01*
X15649149D01*
X15666739Y15721765D01*
X15680203Y15735228D01*
X15687489Y15752818D01*
Y15771860D01*
X15680203Y15789449D01*
X15666739Y15802913D01*
X15649149Y15810199D01*
D02*
G37*
G36*
X16089148Y15700201D02*
X16070108D01*
X16052518Y15692915D01*
X16039053Y15679453D01*
X16031767Y15661861D01*
Y15642822D01*
X16039053Y15625230D01*
X16052518Y15611768D01*
X16070108Y15604482D01*
X16089148D01*
X16106738Y15611768D01*
X16120203Y15625230D01*
X16127489Y15642822D01*
Y15661861D01*
X16120203Y15679453D01*
X16106738Y15692915D01*
X16089148Y15700201D01*
D02*
G37*
G36*
X15979146D02*
X15960106D01*
X15942516Y15692915D01*
X15929053Y15679453D01*
X15921767Y15661861D01*
Y15642822D01*
X15929053Y15625230D01*
X15942516Y15611768D01*
X15960106Y15604482D01*
X15979146D01*
X15996736Y15611768D01*
X16010199Y15625230D01*
X16017487Y15642822D01*
Y15661861D01*
X16010199Y15679453D01*
X15996736Y15692915D01*
X15979146Y15700201D01*
D02*
G37*
G36*
X15869148D02*
X15850108D01*
X15832518Y15692915D01*
X15819055Y15679453D01*
X15811768Y15661861D01*
Y15642822D01*
X15819055Y15625230D01*
X15832518Y15611768D01*
X15850108Y15604482D01*
X15869148D01*
X15886739Y15611768D01*
X15900201Y15625230D01*
X15907487Y15642822D01*
Y15661861D01*
X15900201Y15679453D01*
X15886739Y15692915D01*
X15869148Y15700201D01*
D02*
G37*
G36*
X15759146D02*
X15740106D01*
X15722516Y15692915D01*
X15709052Y15679453D01*
X15701765Y15661861D01*
Y15642822D01*
X15709052Y15625230D01*
X15722516Y15611768D01*
X15740106Y15604482D01*
X15759146D01*
X15776736Y15611768D01*
X15790199Y15625230D01*
X15797485Y15642822D01*
Y15661861D01*
X15790199Y15679453D01*
X15776736Y15692915D01*
X15759146Y15700201D01*
D02*
G37*
G36*
X15649149D02*
X15630109D01*
X15612518Y15692915D01*
X15599055Y15679453D01*
X15591769Y15661861D01*
Y15642822D01*
X15599055Y15625230D01*
X15612518Y15611768D01*
X15630109Y15604482D01*
X15649149D01*
X15666739Y15611768D01*
X15680203Y15625230D01*
X15687489Y15642822D01*
Y15661861D01*
X15680203Y15679453D01*
X15666739Y15692915D01*
X15649149Y15700201D01*
D02*
G37*
G36*
X16089148Y15590199D02*
X16070108D01*
X16052518Y15582913D01*
X16039053Y15569450D01*
X16031767Y15551859D01*
Y15532819D01*
X16039053Y15515228D01*
X16052518Y15501765D01*
X16070108Y15494479D01*
X16089148D01*
X16106738Y15501765D01*
X16120203Y15515228D01*
X16127489Y15532819D01*
Y15551859D01*
X16120203Y15569450D01*
X16106738Y15582913D01*
X16089148Y15590199D01*
D02*
G37*
G36*
X15979146D02*
X15960106D01*
X15942516Y15582913D01*
X15929053Y15569450D01*
X15921767Y15551859D01*
Y15532819D01*
X15929053Y15515228D01*
X15942516Y15501765D01*
X15960106Y15494479D01*
X15979146D01*
X15996736Y15501765D01*
X16010199Y15515228D01*
X16017487Y15532819D01*
Y15551859D01*
X16010199Y15569450D01*
X15996736Y15582913D01*
X15979146Y15590199D01*
D02*
G37*
G36*
X15869148D02*
X15850108D01*
X15832518Y15582913D01*
X15819055Y15569450D01*
X15811768Y15551859D01*
Y15532819D01*
X15819055Y15515228D01*
X15832518Y15501765D01*
X15850108Y15494479D01*
X15869148D01*
X15886739Y15501765D01*
X15900201Y15515228D01*
X15907487Y15532819D01*
Y15551859D01*
X15900201Y15569450D01*
X15886739Y15582913D01*
X15869148Y15590199D01*
D02*
G37*
G36*
X15759146D02*
X15740106D01*
X15722516Y15582913D01*
X15709052Y15569450D01*
X15701765Y15551859D01*
Y15532819D01*
X15709052Y15515228D01*
X15722516Y15501765D01*
X15740106Y15494479D01*
X15759146D01*
X15776736Y15501765D01*
X15790199Y15515228D01*
X15797485Y15532819D01*
Y15551859D01*
X15790199Y15569450D01*
X15776736Y15582913D01*
X15759146Y15590199D01*
D02*
G37*
G36*
X15649149D02*
X15630109D01*
X15612518Y15582913D01*
X15599055Y15569450D01*
X15591769Y15551859D01*
Y15532819D01*
X15599055Y15515228D01*
X15612518Y15501765D01*
X15630109Y15494479D01*
X15649149D01*
X15666739Y15501765D01*
X15680203Y15515228D01*
X15687489Y15532819D01*
Y15551859D01*
X15680203Y15569450D01*
X15666739Y15582913D01*
X15649149Y15590199D01*
D02*
G37*
G36*
X14942780Y15568402D02*
X14927621D01*
X14913618Y15562601D01*
X14902901Y15551884D01*
X14897099Y15537880D01*
Y15522723D01*
X14902901Y15508720D01*
X14913618Y15498003D01*
X14927621Y15492203D01*
X14942780D01*
X14956783Y15498003D01*
X14967500Y15508720D01*
X14973300Y15522723D01*
Y15537880D01*
X14967500Y15551884D01*
X14956783Y15562601D01*
X14942780Y15568402D01*
D02*
G37*
G36*
X14841179D02*
X14826021D01*
X14812018Y15562601D01*
X14801300Y15551884D01*
X14795500Y15537880D01*
Y15522723D01*
X14801300Y15508720D01*
X14812018Y15498003D01*
X14826021Y15492203D01*
X14841179D01*
X14855182Y15498003D01*
X14865900Y15508720D01*
X14871700Y15522723D01*
Y15537880D01*
X14865900Y15551884D01*
X14855182Y15562601D01*
X14841179Y15568402D01*
D02*
G37*
G36*
X14942780Y15466801D02*
X14927621D01*
X14913618Y15461002D01*
X14902901Y15450284D01*
X14897099Y15436279D01*
Y15421123D01*
X14902901Y15407120D01*
X14913618Y15396402D01*
X14927621Y15390602D01*
X14942780D01*
X14956783Y15396402D01*
X14967500Y15407120D01*
X14973300Y15421123D01*
Y15436279D01*
X14967500Y15450284D01*
X14956783Y15461002D01*
X14942780Y15466801D01*
D02*
G37*
G36*
X14841179D02*
X14826021D01*
X14812018Y15461002D01*
X14801300Y15450284D01*
X14795500Y15436279D01*
Y15421123D01*
X14801300Y15407120D01*
X14812018Y15396402D01*
X14826021Y15390602D01*
X14841179D01*
X14855182Y15396402D01*
X14865900Y15407120D01*
X14871700Y15421123D01*
Y15436279D01*
X14865900Y15450284D01*
X14855182Y15461002D01*
X14841179Y15466801D01*
D02*
G37*
G36*
X16089148Y15480202D02*
X16070108D01*
X16052518Y15472916D01*
X16039053Y15459451D01*
X16031767Y15441862D01*
Y15422823D01*
X16039053Y15405232D01*
X16052518Y15391768D01*
X16070108Y15384482D01*
X16089148D01*
X16106738Y15391768D01*
X16120203Y15405232D01*
X16127489Y15422823D01*
Y15441862D01*
X16120203Y15459451D01*
X16106738Y15472916D01*
X16089148Y15480202D01*
D02*
G37*
G36*
X15979146D02*
X15960106D01*
X15942516Y15472916D01*
X15929053Y15459451D01*
X15921767Y15441862D01*
Y15422823D01*
X15929053Y15405232D01*
X15942516Y15391768D01*
X15960106Y15384482D01*
X15979146D01*
X15996736Y15391768D01*
X16010199Y15405232D01*
X16017487Y15422823D01*
Y15441862D01*
X16010199Y15459451D01*
X15996736Y15472916D01*
X15979146Y15480202D01*
D02*
G37*
G36*
X15869148D02*
X15850108D01*
X15832518Y15472916D01*
X15819055Y15459451D01*
X15811768Y15441862D01*
Y15422823D01*
X15819055Y15405232D01*
X15832518Y15391768D01*
X15850108Y15384482D01*
X15869148D01*
X15886739Y15391768D01*
X15900201Y15405232D01*
X15907487Y15422823D01*
Y15441862D01*
X15900201Y15459451D01*
X15886739Y15472916D01*
X15869148Y15480202D01*
D02*
G37*
G36*
X15759146D02*
X15740106D01*
X15722516Y15472916D01*
X15709052Y15459451D01*
X15701765Y15441862D01*
Y15422823D01*
X15709052Y15405232D01*
X15722516Y15391768D01*
X15740106Y15384482D01*
X15759146D01*
X15776736Y15391768D01*
X15790199Y15405232D01*
X15797485Y15422823D01*
Y15441862D01*
X15790199Y15459451D01*
X15776736Y15472916D01*
X15759146Y15480202D01*
D02*
G37*
G36*
X15649149D02*
X15630109D01*
X15612518Y15472916D01*
X15599055Y15459451D01*
X15591769Y15441862D01*
Y15422823D01*
X15599055Y15405232D01*
X15612518Y15391768D01*
X15630109Y15384482D01*
X15649149D01*
X15666739Y15391768D01*
X15680203Y15405232D01*
X15687489Y15422823D01*
Y15441862D01*
X15680203Y15459451D01*
X15666739Y15472916D01*
X15649149Y15480202D01*
D02*
G37*
G36*
X17025470Y14333865D02*
X17005261D01*
X16986591Y14326132D01*
X16972301Y14311842D01*
X16971716Y14310432D01*
X16959016D01*
X16958432Y14311842D01*
X16944142Y14326132D01*
X16925471Y14333865D01*
X16905261D01*
X16886591Y14326132D01*
X16872301Y14311842D01*
X16871716Y14310432D01*
X16859016D01*
X16858432Y14311842D01*
X16844142Y14326132D01*
X16825471Y14333865D01*
X16805263D01*
X16786591Y14326132D01*
X16772301Y14311842D01*
X16764566Y14293170D01*
Y14272961D01*
X16772301Y14254289D01*
X16786591Y14239999D01*
X16787999Y14239417D01*
Y14226717D01*
X16786591Y14226132D01*
X16772301Y14211842D01*
X16764566Y14193170D01*
Y14172961D01*
X16772301Y14154289D01*
X16786591Y14139999D01*
X16787999Y14139417D01*
Y14126717D01*
X16786591Y14126132D01*
X16772301Y14111842D01*
X16764566Y14093172D01*
Y14072961D01*
X16772301Y14054289D01*
X16786591Y14039999D01*
X16805263Y14032266D01*
X16825471D01*
X16844142Y14039999D01*
X16858432Y14054289D01*
X16859016Y14055699D01*
X16871716D01*
X16872301Y14054289D01*
X16886591Y14039999D01*
X16905261Y14032266D01*
X16925471D01*
X16944142Y14039999D01*
X16958432Y14054289D01*
X16959016Y14055699D01*
X16971716D01*
X16972301Y14054289D01*
X16986591Y14039999D01*
X17005261Y14032266D01*
X17025470D01*
X17044142Y14039999D01*
X17058432Y14054289D01*
X17066167Y14072961D01*
Y14093172D01*
X17058432Y14111842D01*
X17044142Y14126132D01*
X17042732Y14126717D01*
Y14139417D01*
X17044142Y14139999D01*
X17058432Y14154289D01*
X17066167Y14172961D01*
Y14193170D01*
X17058432Y14211842D01*
X17044142Y14226132D01*
X17042732Y14226717D01*
Y14239417D01*
X17044142Y14239999D01*
X17058432Y14254289D01*
X17066167Y14272961D01*
Y14293170D01*
X17058432Y14311842D01*
X17044142Y14326132D01*
X17025470Y14333865D01*
D02*
G37*
G36*
X16546185Y14262100D02*
X16531029D01*
X16517026Y14256300D01*
X16506308Y14245583D01*
X16500508Y14231580D01*
Y14216422D01*
X16506308Y14202419D01*
X16517026Y14191701D01*
X16531029Y14185899D01*
X16546185D01*
X16560190Y14191701D01*
X16570908Y14202419D01*
X16576707Y14216422D01*
Y14231580D01*
X16570908Y14245583D01*
X16560190Y14256300D01*
X16546185Y14262100D01*
D02*
G37*
G36*
X16299139Y14042728D02*
X16283981D01*
X16269978Y14036926D01*
X16259261Y14026208D01*
X16253461Y14012206D01*
Y13997049D01*
X16259261Y13983044D01*
X16269978Y13972328D01*
X16283981Y13966527D01*
X16299139D01*
X16313142Y13972328D01*
X16323860Y13983044D01*
X16329660Y13997049D01*
Y14012206D01*
X16323860Y14026208D01*
X16313142Y14036926D01*
X16299139Y14042728D01*
D02*
G37*
G36*
X6848142Y13924660D02*
X6829102D01*
X6811512Y13917374D01*
X6798049Y13903909D01*
X6790762Y13886319D01*
Y13867279D01*
X6798049Y13849689D01*
X6811512Y13836224D01*
X6829102Y13828938D01*
X6848142D01*
X6865733Y13836224D01*
X6879196Y13849689D01*
X6886482Y13867279D01*
Y13886319D01*
X6879196Y13903909D01*
X6865733Y13917374D01*
X6848142Y13924660D01*
D02*
G37*
G36*
X6905643Y13829659D02*
X6886603D01*
X6869012Y13822372D01*
X6855549Y13808908D01*
X6848263Y13791318D01*
Y13772278D01*
X6855549Y13754688D01*
X6869012Y13741225D01*
X6886603Y13733939D01*
X6905643D01*
X6923233Y13741225D01*
X6936697Y13754688D01*
X6943983Y13772278D01*
Y13791318D01*
X6936697Y13808908D01*
X6923233Y13822372D01*
X6905643Y13829659D01*
D02*
G37*
G36*
X6790642D02*
X6771602D01*
X6754011Y13822372D01*
X6740548Y13808908D01*
X6733262Y13791318D01*
Y13772278D01*
X6740548Y13754688D01*
X6754011Y13741225D01*
X6771602Y13733939D01*
X6790642D01*
X6808232Y13741225D01*
X6821696Y13754688D01*
X6828982Y13772278D01*
Y13791318D01*
X6821696Y13808908D01*
X6808232Y13822372D01*
X6790642Y13829659D01*
D02*
G37*
G36*
X6848142Y13734657D02*
X6829102D01*
X6811512Y13727371D01*
X6798049Y13713907D01*
X6790762Y13696317D01*
Y13677277D01*
X6798049Y13659686D01*
X6811512Y13646223D01*
X6829102Y13638937D01*
X6848142D01*
X6865733Y13646223D01*
X6879196Y13659686D01*
X6886482Y13677277D01*
Y13696317D01*
X6879196Y13713907D01*
X6865733Y13727371D01*
X6848142Y13734657D01*
D02*
G37*
G36*
X6560997Y13803717D02*
X6545840D01*
X6531837Y13797917D01*
X6521119Y13787199D01*
X6515318Y13773196D01*
Y13758038D01*
X6521119Y13744035D01*
X6525420Y13739734D01*
X6530651Y13731438D01*
X6525420Y13723141D01*
X6521119Y13718840D01*
X6515318Y13704837D01*
Y13689680D01*
X6521119Y13675676D01*
X6531837Y13664958D01*
X6545840Y13659158D01*
X6560997D01*
X6571623Y13663559D01*
X6581980Y13659286D01*
X6584908Y13656906D01*
X6590123Y13644316D01*
X6600841Y13633598D01*
X6611046Y13629372D01*
Y13616064D01*
X6600841Y13611836D01*
X6596010Y13607007D01*
X6588159Y13602200D01*
X6579417Y13607007D01*
X6575000Y13611423D01*
X6560997Y13617224D01*
X6545840D01*
X6531837Y13611423D01*
X6521119Y13600706D01*
X6515318Y13586702D01*
Y13571545D01*
X6521119Y13557542D01*
X6530841Y13547820D01*
X6521119Y13538097D01*
X6515318Y13524094D01*
Y13508937D01*
X6521119Y13494933D01*
X6531837Y13484216D01*
X6545840Y13478415D01*
X6560997D01*
X6575000Y13484216D01*
X6580655Y13489870D01*
X6586769Y13494472D01*
X6597248Y13489870D01*
X6600841Y13486278D01*
X6614844Y13480478D01*
X6630001D01*
X6644004Y13486278D01*
X6654722Y13496996D01*
X6660523Y13510999D01*
Y13526157D01*
X6654722Y13540160D01*
X6645824Y13549059D01*
X6654722Y13557956D01*
X6660523Y13571959D01*
Y13587115D01*
X6654722Y13601120D01*
X6644004Y13611836D01*
X6633800Y13616064D01*
Y13629372D01*
X6644004Y13633598D01*
X6654722Y13644316D01*
X6660523Y13658319D01*
Y13673476D01*
X6654722Y13687480D01*
X6645824Y13696378D01*
X6654722Y13705276D01*
X6660523Y13719279D01*
Y13734436D01*
X6654722Y13748441D01*
X6644004Y13759157D01*
X6630001Y13764958D01*
X6614844D01*
X6604219Y13760556D01*
X6594463Y13765067D01*
X6591518Y13767796D01*
Y13773196D01*
X6585718Y13787199D01*
X6575000Y13797917D01*
X6560997Y13803717D01*
D02*
G37*
G36*
X7442159Y13648691D02*
X7427001D01*
X7412998Y13642891D01*
X7402280Y13632173D01*
X7396480Y13618170D01*
Y13603014D01*
X7402280Y13589009D01*
X7412998Y13578291D01*
X7427001Y13572491D01*
X7442159D01*
X7456162Y13578291D01*
X7466880Y13589009D01*
X7472680Y13603014D01*
Y13618170D01*
X7466880Y13632173D01*
X7456162Y13642891D01*
X7442159Y13648691D01*
D02*
G37*
G36*
X5392379Y13131799D02*
X5377221D01*
X5363218Y13125999D01*
X5352500Y13115282D01*
X5346700Y13101279D01*
Y13086121D01*
X5352500Y13072118D01*
X5363218Y13061400D01*
X5377221Y13055600D01*
X5392379D01*
X5406382Y13061400D01*
X5417100Y13072118D01*
X5422900Y13086121D01*
Y13101279D01*
X5417100Y13115282D01*
X5406382Y13125999D01*
X5392379Y13131799D01*
D02*
G37*
G36*
X7755696Y12905939D02*
X7740539D01*
X7726536Y12900137D01*
X7715818Y12889420D01*
X7710018Y12875417D01*
Y12860260D01*
X7715818Y12846255D01*
X7726536Y12835538D01*
X7740539Y12829738D01*
X7755696D01*
X7769699Y12835538D01*
X7780417Y12846255D01*
X7786218Y12860260D01*
Y12875417D01*
X7780417Y12889420D01*
X7769699Y12900137D01*
X7755696Y12905939D01*
D02*
G37*
G36*
X7552496D02*
X7537339D01*
X7523336Y12900137D01*
X7512618Y12889420D01*
X7506818Y12875417D01*
Y12860260D01*
X7512618Y12846255D01*
X7523336Y12835538D01*
X7537339Y12829738D01*
X7552496D01*
X7566499Y12835538D01*
X7577217Y12846255D01*
X7583018Y12860260D01*
Y12875417D01*
X7577217Y12889420D01*
X7566499Y12900137D01*
X7552496Y12905939D01*
D02*
G37*
G36*
X7361996D02*
X7346839D01*
X7332836Y12900137D01*
X7322118Y12889420D01*
X7316318Y12875417D01*
Y12860260D01*
X7322118Y12846255D01*
X7332836Y12835538D01*
X7346839Y12829738D01*
X7361996D01*
X7375999Y12835538D01*
X7386717Y12846255D01*
X7392518Y12860260D01*
Y12875417D01*
X7386717Y12889420D01*
X7375999Y12900137D01*
X7361996Y12905939D01*
D02*
G37*
G36*
X7158796D02*
X7143639D01*
X7129636Y12900137D01*
X7118918Y12889420D01*
X7113118Y12875417D01*
Y12860260D01*
X7118918Y12846255D01*
X7129636Y12835538D01*
X7143639Y12829738D01*
X7158796D01*
X7172799Y12835538D01*
X7183517Y12846255D01*
X7189318Y12860260D01*
Y12875417D01*
X7183517Y12889420D01*
X7172799Y12900137D01*
X7158796Y12905939D01*
D02*
G37*
G36*
X6955596D02*
X6940439D01*
X6926436Y12900137D01*
X6915718Y12889420D01*
X6909918Y12875417D01*
Y12860260D01*
X6915718Y12846255D01*
X6926436Y12835538D01*
X6940439Y12829738D01*
X6955596D01*
X6969599Y12835538D01*
X6980317Y12846255D01*
X6986118Y12860260D01*
Y12875417D01*
X6980317Y12889420D01*
X6969599Y12900137D01*
X6955596Y12905939D01*
D02*
G37*
G36*
X7755696Y12702738D02*
X7740539D01*
X7726536Y12696938D01*
X7715818Y12686220D01*
X7710018Y12672217D01*
Y12657060D01*
X7715818Y12643056D01*
X7726536Y12632338D01*
X7740539Y12626538D01*
X7755696D01*
X7769699Y12632338D01*
X7780417Y12643056D01*
X7786218Y12657060D01*
Y12672217D01*
X7780417Y12686220D01*
X7769699Y12696938D01*
X7755696Y12702738D01*
D02*
G37*
G36*
X7552496D02*
X7537339D01*
X7523336Y12696938D01*
X7512618Y12686220D01*
X7506818Y12672217D01*
Y12657060D01*
X7512618Y12643056D01*
X7523336Y12632338D01*
X7537339Y12626538D01*
X7552496D01*
X7566499Y12632338D01*
X7577217Y12643056D01*
X7583018Y12657060D01*
Y12672217D01*
X7577217Y12686220D01*
X7566499Y12696938D01*
X7552496Y12702738D01*
D02*
G37*
G36*
X7361996D02*
X7346839D01*
X7332836Y12696938D01*
X7322118Y12686220D01*
X7316318Y12672217D01*
Y12657060D01*
X7322118Y12643056D01*
X7332836Y12632338D01*
X7346839Y12626538D01*
X7361996D01*
X7375999Y12632338D01*
X7386717Y12643056D01*
X7392518Y12657060D01*
Y12672217D01*
X7386717Y12686220D01*
X7375999Y12696938D01*
X7361996Y12702738D01*
D02*
G37*
G36*
X7158796D02*
X7143639D01*
X7129636Y12696938D01*
X7118918Y12686220D01*
X7113118Y12672217D01*
Y12657060D01*
X7118918Y12643056D01*
X7129636Y12632338D01*
X7143639Y12626538D01*
X7158796D01*
X7172799Y12632338D01*
X7183517Y12643056D01*
X7189318Y12657060D01*
Y12672217D01*
X7183517Y12686220D01*
X7172799Y12696938D01*
X7158796Y12702738D01*
D02*
G37*
G36*
X6955596D02*
X6940439D01*
X6926436Y12696938D01*
X6915718Y12686220D01*
X6909918Y12672217D01*
Y12657060D01*
X6915718Y12643056D01*
X6926436Y12632338D01*
X6940439Y12626538D01*
X6955596D01*
X6969599Y12632338D01*
X6980317Y12643056D01*
X6986118Y12657060D01*
Y12672217D01*
X6980317Y12686220D01*
X6969599Y12696938D01*
X6955596Y12702738D01*
D02*
G37*
G36*
X8270197Y13079903D02*
X8217804D01*
X8166056Y13071706D01*
X8116227Y13055516D01*
X8069544Y13031731D01*
X8027157Y13000934D01*
X7990109Y12963885D01*
X7959314Y12921500D01*
X7935527Y12874815D01*
X7919337Y12824986D01*
X7911141Y12773239D01*
Y12720846D01*
X7919337Y12669097D01*
X7935527Y12619268D01*
X7959314Y12572586D01*
X7990109Y12530199D01*
X8027157Y12493151D01*
X8069544Y12462355D01*
X8116227Y12438569D01*
X8166056Y12422379D01*
X8217804Y12414182D01*
X8270197D01*
X8321946Y12422379D01*
X8371775Y12438569D01*
X8418457Y12462355D01*
X8460844Y12493151D01*
X8497892Y12530199D01*
X8528688Y12572586D01*
X8552474Y12619268D01*
X8568665Y12669097D01*
X8576861Y12720846D01*
Y12773239D01*
X8568665Y12824986D01*
X8552474Y12874815D01*
X8528688Y12921500D01*
X8497892Y12963885D01*
X8460844Y13000934D01*
X8418457Y13031731D01*
X8371775Y13055516D01*
X8321946Y13071706D01*
X8270197Y13079903D01*
D02*
G37*
G36*
X8765758Y12449862D02*
X8752622D01*
X8740486Y12444835D01*
X8731197Y12435547D01*
X8726170Y12423411D01*
Y12410274D01*
X8731197Y12398138D01*
X8740486Y12388849D01*
X8752622Y12383822D01*
X8765758D01*
X8777895Y12388849D01*
X8787183Y12398138D01*
X8792210Y12410274D01*
Y12423411D01*
X8787183Y12435547D01*
X8777895Y12444835D01*
X8765758Y12449862D01*
D02*
G37*
G36*
X8731669Y12333022D02*
X8718532D01*
X8706396Y12327995D01*
X8697107Y12318706D01*
X8692080Y12306570D01*
Y12293434D01*
X8697107Y12281298D01*
X8706396Y12272009D01*
X8718532Y12266982D01*
X8731669D01*
X8743805Y12272009D01*
X8753093Y12281298D01*
X8758120Y12293434D01*
Y12306570D01*
X8753093Y12318706D01*
X8743805Y12327995D01*
X8731669Y12333022D01*
D02*
G37*
G36*
X8528274Y11945687D02*
X8513117D01*
X8499113Y11939886D01*
X8488396Y11929169D01*
X8482595Y11915165D01*
Y11900008D01*
X8488396Y11886005D01*
X8499113Y11875287D01*
X8513117Y11869487D01*
X8528274D01*
X8542277Y11875287D01*
X8552995Y11886005D01*
X8558795Y11900008D01*
Y11915165D01*
X8552995Y11929169D01*
X8542277Y11939886D01*
X8528274Y11945687D01*
D02*
G37*
G36*
X8831470Y11833023D02*
X8818333D01*
X8806197Y11827996D01*
X8796908Y11818707D01*
X8791881Y11806571D01*
Y11793434D01*
X8796908Y11781298D01*
X8806197Y11772009D01*
X8818333Y11766983D01*
X8831470D01*
X8843606Y11772009D01*
X8852894Y11781298D01*
X8857921Y11793434D01*
Y11806571D01*
X8852894Y11818707D01*
X8843606Y11827996D01*
X8831470Y11833023D01*
D02*
G37*
G36*
X9031470Y11633022D02*
X9018333D01*
X9006197Y11627995D01*
X8996908Y11618707D01*
X8991881Y11606570D01*
Y11593434D01*
X8996908Y11581298D01*
X9006197Y11572009D01*
X9018333Y11566982D01*
X9031470D01*
X9043606Y11572009D01*
X9052895Y11581298D01*
X9057921Y11593434D01*
Y11606570D01*
X9052895Y11618707D01*
X9043606Y11627995D01*
X9031470Y11633022D01*
D02*
G37*
G36*
X8831470D02*
X8818333D01*
X8806197Y11627995D01*
X8796908Y11618707D01*
X8791881Y11606570D01*
Y11593434D01*
X8796908Y11581298D01*
X8806197Y11572009D01*
X8818333Y11566982D01*
X8831470D01*
X8843606Y11572009D01*
X8852894Y11581298D01*
X8857921Y11593434D01*
Y11606570D01*
X8852894Y11618707D01*
X8843606Y11627995D01*
X8831470Y11633022D01*
D02*
G37*
G36*
X8526843Y11531021D02*
X8511686D01*
X8497682Y11525221D01*
X8486964Y11514503D01*
X8481164Y11500499D01*
Y11485342D01*
X8486964Y11471339D01*
X8497682Y11460621D01*
X8511686Y11454821D01*
X8526843D01*
X8540846Y11460621D01*
X8551564Y11471339D01*
X8557364Y11485342D01*
Y11500499D01*
X8551564Y11514503D01*
X8540846Y11525221D01*
X8526843Y11531021D01*
D02*
G37*
G36*
X9031470Y11433023D02*
X9018333D01*
X9006197Y11427996D01*
X8996908Y11418707D01*
X8991881Y11406571D01*
Y11393434D01*
X8996908Y11381298D01*
X9006197Y11372010D01*
X9018333Y11366983D01*
X9031470D01*
X9043606Y11372010D01*
X9052895Y11381298D01*
X9057921Y11393434D01*
Y11406571D01*
X9052895Y11418707D01*
X9043606Y11427996D01*
X9031470Y11433023D01*
D02*
G37*
G36*
X8831470D02*
X8818333D01*
X8806197Y11427996D01*
X8796908Y11418707D01*
X8791881Y11406571D01*
Y11393434D01*
X8796908Y11381298D01*
X8806197Y11372010D01*
X8818333Y11366983D01*
X8831470D01*
X8843606Y11372010D01*
X8852894Y11381298D01*
X8857921Y11393434D01*
Y11406571D01*
X8852894Y11418707D01*
X8843606Y11427996D01*
X8831470Y11433023D01*
D02*
G37*
G36*
X9132945Y11333912D02*
X9119808D01*
X9107672Y11328885D01*
X9098383Y11319596D01*
X9093356Y11307460D01*
Y11294324D01*
X9098383Y11282187D01*
X9107672Y11272899D01*
X9119808Y11267872D01*
X9132945D01*
X9145081Y11272899D01*
X9154370Y11282187D01*
X9159396Y11294324D01*
Y11307460D01*
X9154370Y11319596D01*
X9145081Y11328885D01*
X9132945Y11333912D01*
D02*
G37*
G36*
X9031470Y11333023D02*
X9018333D01*
X9006197Y11327996D01*
X8996908Y11318707D01*
X8991881Y11306571D01*
Y11293434D01*
X8996908Y11281298D01*
X9006197Y11272009D01*
X9018333Y11266983D01*
X9031470D01*
X9043606Y11272009D01*
X9052895Y11281298D01*
X9057921Y11293434D01*
Y11306571D01*
X9052895Y11318707D01*
X9043606Y11327996D01*
X9031470Y11333023D01*
D02*
G37*
G36*
X9231469Y11333018D02*
X9218333D01*
X9206197Y11327992D01*
X9196908Y11318703D01*
X9191881Y11306567D01*
Y11293430D01*
X9196908Y11281294D01*
X9206197Y11272005D01*
X9218333Y11266978D01*
X9231469D01*
X9243606Y11272005D01*
X9252894Y11281294D01*
X9257921Y11293430D01*
Y11306567D01*
X9252894Y11318703D01*
X9243606Y11327992D01*
X9231469Y11333018D01*
D02*
G37*
G36*
X8831668Y11233026D02*
X8818532D01*
X8806396Y11227999D01*
X8797107Y11218710D01*
X8792080Y11206574D01*
Y11193437D01*
X8797107Y11181301D01*
X8806396Y11172012D01*
X8818532Y11166986D01*
X8831668D01*
X8843804Y11172012D01*
X8853093Y11181301D01*
X8858120Y11193437D01*
Y11206574D01*
X8853093Y11218710D01*
X8843804Y11227999D01*
X8831668Y11233026D01*
D02*
G37*
G36*
X9131469Y11233022D02*
X9118333D01*
X9106197Y11227996D01*
X9096908Y11218707D01*
X9091881Y11206571D01*
Y11193434D01*
X9096908Y11181298D01*
X9106197Y11172009D01*
X9118333Y11166982D01*
X9131469D01*
X9143605Y11172009D01*
X9152894Y11181298D01*
X9157921Y11193434D01*
Y11206571D01*
X9152894Y11218707D01*
X9143605Y11227996D01*
X9131469Y11233022D01*
D02*
G37*
G36*
X8931668Y11133026D02*
X8918532D01*
X8906396Y11127999D01*
X8897107Y11118710D01*
X8892080Y11106574D01*
Y11093438D01*
X8897107Y11081301D01*
X8906396Y11072013D01*
X8918532Y11066986D01*
X8931668D01*
X8943805Y11072013D01*
X8953093Y11081301D01*
X8958120Y11093438D01*
Y11106574D01*
X8953093Y11118710D01*
X8943805Y11127999D01*
X8931668Y11133026D01*
D02*
G37*
G36*
X9031668Y11133024D02*
X9018532D01*
X9006396Y11127997D01*
X8997107Y11118709D01*
X8992080Y11106572D01*
Y11093436D01*
X8997107Y11081300D01*
X9006396Y11072011D01*
X9018532Y11066984D01*
X9031668D01*
X9043804Y11072011D01*
X9053093Y11081300D01*
X9058120Y11093436D01*
Y11106572D01*
X9053093Y11118709D01*
X9043804Y11127997D01*
X9031668Y11133024D01*
D02*
G37*
G36*
X9131666Y11033024D02*
X9118529D01*
X9106393Y11027997D01*
X9097104Y11018708D01*
X9092077Y11006572D01*
Y10993435D01*
X9097104Y10981299D01*
X9106393Y10972011D01*
X9118529Y10966984D01*
X9131666D01*
X9143802Y10972011D01*
X9153090Y10981299D01*
X9158117Y10993435D01*
Y11006572D01*
X9153090Y11018708D01*
X9143802Y11027997D01*
X9131666Y11033024D01*
D02*
G37*
G36*
X9531669Y11033023D02*
X9518532D01*
X9506396Y11027996D01*
X9497107Y11018708D01*
X9492080Y11006572D01*
Y10993435D01*
X9497107Y10981299D01*
X9506396Y10972010D01*
X9518532Y10966983D01*
X9531669D01*
X9543805Y10972010D01*
X9553093Y10981299D01*
X9558120Y10993435D01*
Y11006572D01*
X9553093Y11018708D01*
X9543805Y11027996D01*
X9531669Y11033023D01*
D02*
G37*
G36*
X9331668D02*
X9318532D01*
X9306396Y11027996D01*
X9297107Y11018708D01*
X9292080Y11006572D01*
Y10993435D01*
X9297107Y10981299D01*
X9306396Y10972010D01*
X9318532Y10966983D01*
X9331668D01*
X9343805Y10972010D01*
X9353093Y10981299D01*
X9358120Y10993435D01*
Y11006572D01*
X9353093Y11018708D01*
X9343805Y11027996D01*
X9331668Y11033023D01*
D02*
G37*
G36*
X9431668Y11033023D02*
X9418532D01*
X9406396Y11027996D01*
X9397107Y11018707D01*
X9392080Y11006571D01*
Y10993435D01*
X9397107Y10981299D01*
X9406396Y10972010D01*
X9418532Y10966983D01*
X9431668D01*
X9443805Y10972010D01*
X9453093Y10981299D01*
X9458120Y10993435D01*
Y11006571D01*
X9453093Y11018707D01*
X9443805Y11027996D01*
X9431668Y11033023D01*
D02*
G37*
G36*
X9232465Y11032227D02*
X9219329D01*
X9207193Y11027200D01*
X9197904Y11017911D01*
X9192877Y11005775D01*
Y10992638D01*
X9197904Y10980502D01*
X9207193Y10971214D01*
X9219329Y10966187D01*
X9232465D01*
X9244601Y10971214D01*
X9253890Y10980502D01*
X9258917Y10992638D01*
Y11005775D01*
X9253890Y11017911D01*
X9244601Y11027200D01*
X9232465Y11032227D01*
D02*
G37*
G36*
X8932067D02*
X8918931D01*
X8906794Y11027200D01*
X8897506Y11017911D01*
X8892479Y11005775D01*
Y10992638D01*
X8897506Y10980502D01*
X8906794Y10971214D01*
X8918931Y10966187D01*
X8932067D01*
X8944203Y10971214D01*
X8953492Y10980502D01*
X8958519Y10992638D01*
Y11005775D01*
X8953492Y11017911D01*
X8944203Y11027200D01*
X8932067Y11032227D01*
D02*
G37*
G36*
X8612068Y10983025D02*
X8598932D01*
X8586796Y10977998D01*
X8577507Y10968709D01*
X8572480Y10956573D01*
Y10943437D01*
X8577507Y10931300D01*
X8586796Y10922012D01*
X8598932Y10916985D01*
X8612068D01*
X8624204Y10922012D01*
X8633493Y10931300D01*
X8638520Y10943437D01*
Y10956573D01*
X8633493Y10968709D01*
X8624204Y10977998D01*
X8612068Y10983025D01*
D02*
G37*
G36*
X9232068Y10933823D02*
X9218932D01*
X9206795Y10928796D01*
X9197507Y10919507D01*
X9192480Y10907371D01*
Y10894235D01*
X9197507Y10882099D01*
X9206795Y10872810D01*
X9218932Y10867783D01*
X9232068D01*
X9244204Y10872810D01*
X9253493Y10882099D01*
X9258520Y10894235D01*
Y10907371D01*
X9253493Y10919507D01*
X9244204Y10928796D01*
X9232068Y10933823D01*
D02*
G37*
G36*
X8931363D02*
X8918227D01*
X8906091Y10928796D01*
X8896802Y10919507D01*
X8891775Y10907371D01*
Y10894235D01*
X8896802Y10882099D01*
X8906091Y10872810D01*
X8918227Y10867783D01*
X8931363D01*
X8943500Y10872810D01*
X8952788Y10882099D01*
X8957815Y10894235D01*
Y10907371D01*
X8952788Y10919507D01*
X8943500Y10928796D01*
X8931363Y10933823D01*
D02*
G37*
G36*
X9332465Y10933024D02*
X9319329D01*
X9307193Y10927997D01*
X9297904Y10918708D01*
X9292877Y10906572D01*
Y10893435D01*
X9297904Y10881299D01*
X9307193Y10872011D01*
X9319329Y10866984D01*
X9332465D01*
X9344602Y10872011D01*
X9353890Y10881299D01*
X9358917Y10893435D01*
Y10906572D01*
X9353890Y10918708D01*
X9344602Y10927997D01*
X9332465Y10933024D01*
D02*
G37*
G36*
X9431665Y10933023D02*
X9418529D01*
X9406393Y10927996D01*
X9397104Y10918708D01*
X9392077Y10906572D01*
Y10893435D01*
X9397104Y10881299D01*
X9406393Y10872010D01*
X9418529Y10866983D01*
X9431665D01*
X9443801Y10872010D01*
X9453090Y10881299D01*
X9458117Y10893435D01*
Y10906572D01*
X9453090Y10918708D01*
X9443801Y10927996D01*
X9431665Y10933023D01*
D02*
G37*
G36*
X8831569Y10933022D02*
X8818433D01*
X8806297Y10927995D01*
X8797008Y10918707D01*
X8791981Y10906571D01*
Y10893434D01*
X8797008Y10881298D01*
X8806297Y10872009D01*
X8818433Y10866982D01*
X8831569D01*
X8843705Y10872009D01*
X8852994Y10881298D01*
X8858021Y10893434D01*
Y10906571D01*
X8852994Y10918707D01*
X8843705Y10927995D01*
X8831569Y10933022D01*
D02*
G37*
G36*
X5671779Y10934700D02*
X5656621D01*
X5642618Y10928900D01*
X5631900Y10918182D01*
X5626100Y10904179D01*
Y10889021D01*
X5631900Y10875018D01*
X5642618Y10864300D01*
X5656621Y10858500D01*
X5671779D01*
X5685782Y10864300D01*
X5696500Y10875018D01*
X5702300Y10889021D01*
Y10904179D01*
X5696500Y10918182D01*
X5685782Y10928900D01*
X5671779Y10934700D01*
D02*
G37*
G36*
X5506679D02*
X5491521D01*
X5477518Y10928900D01*
X5466800Y10918182D01*
X5461000Y10904179D01*
Y10889021D01*
X5466800Y10875018D01*
X5477518Y10864300D01*
X5491521Y10858500D01*
X5506679D01*
X5520682Y10864300D01*
X5531400Y10875018D01*
X5537200Y10889021D01*
Y10904179D01*
X5531400Y10918182D01*
X5520682Y10928900D01*
X5506679Y10934700D01*
D02*
G37*
G36*
X5379679D02*
X5364521D01*
X5350518Y10928900D01*
X5339800Y10918182D01*
X5334000Y10904179D01*
Y10889021D01*
X5339800Y10875018D01*
X5350518Y10864300D01*
X5364521Y10858500D01*
X5379679D01*
X5393682Y10864300D01*
X5404400Y10875018D01*
X5410200Y10889021D01*
Y10904179D01*
X5404400Y10918182D01*
X5393682Y10928900D01*
X5379679Y10934700D01*
D02*
G37*
G36*
X5811479Y10909300D02*
X5796321D01*
X5782318Y10903500D01*
X5771600Y10892782D01*
X5765800Y10878779D01*
Y10863621D01*
X5771600Y10849618D01*
X5782318Y10838900D01*
X5796321Y10833100D01*
X5811479D01*
X5825482Y10838900D01*
X5836200Y10849618D01*
X5842000Y10863621D01*
Y10878779D01*
X5836200Y10892782D01*
X5825482Y10903500D01*
X5811479Y10909300D01*
D02*
G37*
G36*
X9331269Y10833362D02*
X9318132D01*
X9305996Y10828335D01*
X9296707Y10819046D01*
X9291680Y10806910D01*
Y10793774D01*
X9296707Y10781638D01*
X9305996Y10772349D01*
X9318132Y10767322D01*
X9331269D01*
X9343405Y10772349D01*
X9352694Y10781638D01*
X9357720Y10793774D01*
Y10806910D01*
X9352694Y10819046D01*
X9343405Y10828335D01*
X9331269Y10833362D01*
D02*
G37*
G36*
X9531569Y10833022D02*
X9518433D01*
X9506296Y10827995D01*
X9497008Y10818707D01*
X9491981Y10806570D01*
Y10793434D01*
X9497008Y10781298D01*
X9506296Y10772009D01*
X9518433Y10766982D01*
X9531569D01*
X9543705Y10772009D01*
X9552994Y10781298D01*
X9558021Y10793434D01*
Y10806570D01*
X9552994Y10818707D01*
X9543705Y10827995D01*
X9531569Y10833022D01*
D02*
G37*
G36*
X9431569Y10832923D02*
X9418433D01*
X9406296Y10827896D01*
X9397008Y10818607D01*
X9391981Y10806471D01*
Y10793335D01*
X9397008Y10781199D01*
X9406296Y10771910D01*
X9418433Y10766883D01*
X9431569D01*
X9443705Y10771910D01*
X9452994Y10781199D01*
X9458021Y10793335D01*
Y10806471D01*
X9452994Y10818607D01*
X9443705Y10827896D01*
X9431569Y10832923D01*
D02*
G37*
G36*
X5379679Y10833100D02*
X5364521D01*
X5350518Y10827300D01*
X5339800Y10816582D01*
X5334000Y10802579D01*
Y10787421D01*
X5339800Y10773418D01*
X5350518Y10762700D01*
X5364521Y10756900D01*
X5379679D01*
X5393682Y10762700D01*
X5404400Y10773418D01*
X5410200Y10787421D01*
Y10802579D01*
X5404400Y10816582D01*
X5393682Y10827300D01*
X5379679Y10833100D01*
D02*
G37*
G36*
X9033795Y10846000D02*
X9015607D01*
X8998803Y10839040D01*
X8985942Y10826179D01*
X8978981Y10809375D01*
Y10791186D01*
X8985942Y10774382D01*
X8998803Y10761521D01*
X9015607Y10754560D01*
X9033795D01*
X9050599Y10761521D01*
X9063460Y10774382D01*
X9067970Y10785268D01*
X9081716D01*
X9086341Y10774104D01*
X9099202Y10761243D01*
X9116006Y10754282D01*
X9134195D01*
X9150999Y10761243D01*
X9163860Y10774104D01*
X9170820Y10790908D01*
Y10809096D01*
X9163860Y10825901D01*
X9150999Y10838762D01*
X9134195Y10845722D01*
X9116006D01*
X9099202Y10838762D01*
X9086341Y10825901D01*
X9081831Y10815014D01*
X9068085D01*
X9063460Y10826179D01*
X9050599Y10839040D01*
X9033795Y10846000D01*
D02*
G37*
G36*
X8681669Y10783022D02*
X8668532D01*
X8656396Y10777995D01*
X8647107Y10768707D01*
X8642081Y10756571D01*
Y10743434D01*
X8647107Y10731298D01*
X8656396Y10722009D01*
X8668532Y10716982D01*
X8681669D01*
X8693805Y10722009D01*
X8703094Y10731298D01*
X8708121Y10743434D01*
Y10756571D01*
X8703094Y10768707D01*
X8693805Y10777995D01*
X8681669Y10783022D01*
D02*
G37*
G36*
X9231669Y10733022D02*
X9218532D01*
X9206396Y10727995D01*
X9197107Y10718707D01*
X9192080Y10706570D01*
Y10693434D01*
X9197107Y10681298D01*
X9206396Y10672009D01*
X9218532Y10666982D01*
X9231669D01*
X9243805Y10672009D01*
X9253094Y10681298D01*
X9258120Y10693434D01*
Y10706570D01*
X9253094Y10718707D01*
X9243805Y10727995D01*
X9231669Y10733022D01*
D02*
G37*
G36*
X8934095Y10645722D02*
X8915906D01*
X8899102Y10638762D01*
X8886241Y10625901D01*
X8881874Y10615357D01*
X8868128D01*
X8863760Y10625901D01*
X8850899Y10638762D01*
X8834095Y10645722D01*
X8815907D01*
X8799103Y10638762D01*
X8786242Y10625901D01*
X8779281Y10609097D01*
Y10590908D01*
X8786242Y10574104D01*
X8799103Y10561243D01*
X8815907Y10554282D01*
X8834095D01*
X8850899Y10561243D01*
X8863760Y10574104D01*
X8868128Y10584647D01*
X8881874D01*
X8886241Y10574104D01*
X8899102Y10561243D01*
X8915906Y10554282D01*
X8934095D01*
X8950899Y10561243D01*
X8963760Y10574104D01*
X8970721Y10590908D01*
Y10609097D01*
X8963760Y10625901D01*
X8950899Y10638762D01*
X8934095Y10645722D01*
D02*
G37*
G36*
X5379679Y10680700D02*
X5364521D01*
X5350518Y10674900D01*
X5339800Y10664182D01*
X5334000Y10650179D01*
Y10635021D01*
X5339800Y10621018D01*
X5350518Y10610300D01*
X5364521Y10604500D01*
X5379679D01*
X5393682Y10610300D01*
X5404400Y10621018D01*
X5410200Y10635021D01*
Y10650179D01*
X5404400Y10664182D01*
X5393682Y10674900D01*
X5379679Y10680700D01*
D02*
G37*
G36*
X9331667Y10633022D02*
X9318531D01*
X9306395Y10627995D01*
X9297106Y10618706D01*
X9292079Y10606570D01*
Y10593434D01*
X9297106Y10581298D01*
X9306395Y10572009D01*
X9318531Y10566982D01*
X9331667D01*
X9343804Y10572009D01*
X9353092Y10581298D01*
X9358119Y10593434D01*
Y10606570D01*
X9353092Y10618706D01*
X9343804Y10627995D01*
X9331667Y10633022D01*
D02*
G37*
G36*
X8731569Y10632926D02*
X8718433D01*
X8706297Y10627899D01*
X8697008Y10618610D01*
X8691981Y10606474D01*
Y10593338D01*
X8697008Y10581202D01*
X8706297Y10571913D01*
X8718433Y10566886D01*
X8731569D01*
X8743705Y10571913D01*
X8752994Y10581202D01*
X8758021Y10593338D01*
Y10606474D01*
X8752994Y10618610D01*
X8743705Y10627899D01*
X8731569Y10632926D01*
D02*
G37*
G36*
X5379679Y10566400D02*
X5364521D01*
X5350518Y10560600D01*
X5339800Y10549882D01*
X5334000Y10535879D01*
Y10520721D01*
X5339800Y10506718D01*
X5350518Y10496000D01*
X5364521Y10490200D01*
X5379679D01*
X5393682Y10496000D01*
X5404400Y10506718D01*
X5410200Y10520721D01*
Y10535879D01*
X5404400Y10549882D01*
X5393682Y10560600D01*
X5379679Y10566400D01*
D02*
G37*
G36*
X9331668Y10533024D02*
X9318532D01*
X9306396Y10527997D01*
X9297107Y10518708D01*
X9292080Y10506572D01*
Y10493436D01*
X9297107Y10481300D01*
X9306396Y10472011D01*
X9318532Y10466984D01*
X9331668D01*
X9343805Y10472011D01*
X9353093Y10481300D01*
X9358120Y10493436D01*
Y10506572D01*
X9353093Y10518708D01*
X9343805Y10527997D01*
X9331668Y10533024D01*
D02*
G37*
G36*
X8931669Y10533023D02*
X8918533D01*
X8906397Y10527996D01*
X8897108Y10518707D01*
X8892081Y10506571D01*
Y10493435D01*
X8897108Y10481299D01*
X8906397Y10472010D01*
X8918533Y10466983D01*
X8931669D01*
X8943806Y10472010D01*
X8953094Y10481299D01*
X8958121Y10493435D01*
Y10506571D01*
X8953094Y10518707D01*
X8943806Y10527996D01*
X8931669Y10533023D01*
D02*
G37*
G36*
X9131669Y10533022D02*
X9118532D01*
X9106396Y10527995D01*
X9097107Y10518707D01*
X9092080Y10506571D01*
Y10493434D01*
X9097107Y10481298D01*
X9106396Y10472009D01*
X9118532Y10466982D01*
X9131669D01*
X9143805Y10472009D01*
X9153093Y10481298D01*
X9158120Y10493434D01*
Y10506571D01*
X9153093Y10518707D01*
X9143805Y10527995D01*
X9131669Y10533022D01*
D02*
G37*
G36*
X8681669Y10483028D02*
X8668532D01*
X8656396Y10478001D01*
X8647107Y10468712D01*
X8642081Y10456576D01*
Y10443439D01*
X8647107Y10431303D01*
X8656396Y10422014D01*
X8668532Y10416988D01*
X8681669D01*
X8693805Y10422014D01*
X8703094Y10431303D01*
X8708121Y10443439D01*
Y10456576D01*
X8703094Y10468712D01*
X8693805Y10478001D01*
X8681669Y10483028D01*
D02*
G37*
G36*
X9031668Y10433022D02*
X9018532D01*
X9006396Y10427995D01*
X8997107Y10418707D01*
X8992080Y10406570D01*
Y10393434D01*
X8997107Y10381298D01*
X9006396Y10372009D01*
X9018532Y10366982D01*
X9031668D01*
X9043805Y10372009D01*
X9053093Y10381298D01*
X9058120Y10393434D01*
Y10406570D01*
X9053093Y10418707D01*
X9043805Y10427995D01*
X9031668Y10433022D01*
D02*
G37*
G36*
X6298539Y10388783D02*
X6291465D01*
X6284931Y10386076D01*
X6279929Y10381074D01*
X6277222Y10374540D01*
Y10367466D01*
X6279929Y10360931D01*
X6284931Y10355930D01*
X6291465Y10353223D01*
X6298539D01*
X6305074Y10355930D01*
X6310075Y10360931D01*
X6312782Y10367466D01*
Y10374540D01*
X6310075Y10381074D01*
X6305074Y10386076D01*
X6298539Y10388783D01*
D02*
G37*
G36*
X6218540D02*
X6211466D01*
X6204931Y10386076D01*
X6199930Y10381074D01*
X6197223Y10374540D01*
Y10367466D01*
X6199930Y10360931D01*
X6204931Y10355930D01*
X6211466Y10353223D01*
X6218540D01*
X6225074Y10355930D01*
X6230076Y10360931D01*
X6232783Y10367466D01*
Y10374540D01*
X6230076Y10381074D01*
X6225074Y10386076D01*
X6218540Y10388783D01*
D02*
G37*
G36*
X6058539D02*
X6051466D01*
X6044931Y10386076D01*
X6039929Y10381074D01*
X6037223Y10374540D01*
Y10367466D01*
X6039929Y10360931D01*
X6044931Y10355930D01*
X6051466Y10353223D01*
X6058539D01*
X6065074Y10355930D01*
X6070076Y10360931D01*
X6072783Y10367466D01*
Y10374540D01*
X6070076Y10381074D01*
X6065074Y10386076D01*
X6058539Y10388783D01*
D02*
G37*
G36*
X8681669Y10383223D02*
X8668532D01*
X8656396Y10378196D01*
X8647107Y10368907D01*
X8642081Y10356771D01*
Y10343634D01*
X8647107Y10331498D01*
X8656396Y10322209D01*
X8668532Y10317183D01*
X8681669D01*
X8693805Y10322209D01*
X8703094Y10331498D01*
X8708121Y10343634D01*
Y10356771D01*
X8703094Y10368907D01*
X8693805Y10378196D01*
X8681669Y10383223D01*
D02*
G37*
G36*
X5699325Y10336405D02*
X5692252D01*
X5685717Y10333698D01*
X5680715Y10328696D01*
X5678008Y10322161D01*
Y10315088D01*
X5680715Y10308553D01*
X5685717Y10303552D01*
X5692252Y10300845D01*
X5699325D01*
X5705860Y10303552D01*
X5710861Y10308553D01*
X5713568Y10315088D01*
Y10322161D01*
X5710861Y10328696D01*
X5705860Y10333698D01*
X5699325Y10336405D01*
D02*
G37*
G36*
X5332887Y10335017D02*
X5325814D01*
X5319279Y10332311D01*
X5314277Y10327309D01*
X5311571Y10320774D01*
Y10313701D01*
X5314277Y10307166D01*
X5319279Y10302164D01*
X5325814Y10299457D01*
X5332887D01*
X5339422Y10302164D01*
X5344424Y10307166D01*
X5347131Y10313701D01*
Y10320774D01*
X5344424Y10327309D01*
X5339422Y10332311D01*
X5332887Y10335017D01*
D02*
G37*
G36*
X9331670Y10333026D02*
X9318534D01*
X9306397Y10327999D01*
X9297109Y10318710D01*
X9292082Y10306574D01*
Y10293437D01*
X9297109Y10281301D01*
X9306397Y10272012D01*
X9318534Y10266986D01*
X9331670D01*
X9343806Y10272012D01*
X9353095Y10281301D01*
X9358122Y10293437D01*
Y10306574D01*
X9353095Y10318710D01*
X9343806Y10327999D01*
X9331670Y10333026D01*
D02*
G37*
G36*
X9431668Y10333022D02*
X9418532D01*
X9406396Y10327995D01*
X9397107Y10318707D01*
X9392080Y10306570D01*
Y10293434D01*
X9397107Y10281298D01*
X9406396Y10272009D01*
X9418532Y10266982D01*
X9431668D01*
X9443805Y10272009D01*
X9453093Y10281298D01*
X9458120Y10293434D01*
Y10306570D01*
X9453093Y10318707D01*
X9443805Y10327995D01*
X9431668Y10333022D01*
D02*
G37*
G36*
X9131669D02*
X9118532D01*
X9106396Y10327995D01*
X9097107Y10318707D01*
X9092080Y10306570D01*
Y10293434D01*
X9097107Y10281298D01*
X9106396Y10272009D01*
X9118532Y10266982D01*
X9131669D01*
X9143805Y10272009D01*
X9153093Y10281298D01*
X9158120Y10293434D01*
Y10306570D01*
X9153093Y10318707D01*
X9143805Y10327995D01*
X9131669Y10333022D01*
D02*
G37*
G36*
X5938542Y10297783D02*
X5931469D01*
X5924934Y10295076D01*
X5919932Y10290074D01*
X5917225Y10283540D01*
Y10276466D01*
X5919932Y10269931D01*
X5924934Y10264930D01*
X5931469Y10262223D01*
X5938542D01*
X5945077Y10264930D01*
X5950079Y10269931D01*
X5952785Y10276466D01*
Y10283540D01*
X5950079Y10290074D01*
X5945077Y10295076D01*
X5938542Y10297783D01*
D02*
G37*
G36*
X6498537Y10297782D02*
X6491464D01*
X6484929Y10295075D01*
X6479928Y10290074D01*
X6477221Y10283539D01*
Y10276466D01*
X6479928Y10269931D01*
X6484929Y10264929D01*
X6491464Y10262222D01*
X6498537D01*
X6505072Y10264929D01*
X6510074Y10269931D01*
X6512781Y10276466D01*
Y10283539D01*
X6510074Y10290074D01*
X6505072Y10295075D01*
X6498537Y10297782D01*
D02*
G37*
G36*
X5778543D02*
X5771469D01*
X5764934Y10295075D01*
X5759933Y10290074D01*
X5757226Y10283539D01*
Y10276466D01*
X5759933Y10269931D01*
X5764934Y10264929D01*
X5771469Y10262222D01*
X5778543D01*
X5785078Y10264929D01*
X5790079Y10269931D01*
X5792786Y10276466D01*
Y10283539D01*
X5790079Y10290074D01*
X5785078Y10295075D01*
X5778543Y10297782D01*
D02*
G37*
G36*
X5298539Y10217787D02*
X5291465D01*
X5284930Y10215080D01*
X5279929Y10210078D01*
X5277222Y10203543D01*
Y10196470D01*
X5279929Y10189935D01*
X5284930Y10184934D01*
X5291465Y10182227D01*
X5298539D01*
X5305073Y10184934D01*
X5310075Y10189935D01*
X5312782Y10196470D01*
Y10203543D01*
X5310075Y10210078D01*
X5305073Y10215080D01*
X5298539Y10217787D01*
D02*
G37*
G36*
X5698537Y10217785D02*
X5691464D01*
X5684929Y10215078D01*
X5679928Y10210077D01*
X5677221Y10203542D01*
Y10196468D01*
X5679928Y10189933D01*
X5684929Y10184932D01*
X5691464Y10182225D01*
X5698537D01*
X5705072Y10184932D01*
X5710074Y10189933D01*
X5712781Y10196468D01*
Y10203542D01*
X5710074Y10210077D01*
X5705072Y10215078D01*
X5698537Y10217785D01*
D02*
G37*
G36*
X5378538Y10217784D02*
X5371465D01*
X5364930Y10215078D01*
X5359929Y10210076D01*
X5357222Y10203541D01*
Y10196468D01*
X5359929Y10189933D01*
X5364930Y10184931D01*
X5371465Y10182224D01*
X5378538D01*
X5385073Y10184931D01*
X5390075Y10189933D01*
X5392782Y10196468D01*
Y10203541D01*
X5390075Y10210076D01*
X5385073Y10215078D01*
X5378538Y10217784D01*
D02*
G37*
G36*
X5458534Y10217784D02*
X5451460D01*
X5444925Y10215077D01*
X5439924Y10210075D01*
X5437217Y10203540D01*
Y10196467D01*
X5439924Y10189932D01*
X5444925Y10184931D01*
X5451460Y10182224D01*
X5458534D01*
X5465069Y10184931D01*
X5470070Y10189932D01*
X5472777Y10196467D01*
Y10203540D01*
X5470070Y10210075D01*
X5465069Y10215077D01*
X5458534Y10217784D01*
D02*
G37*
G36*
X5778538Y10217782D02*
X5771464D01*
X5764929Y10215075D01*
X5759928Y10210074D01*
X5757221Y10203539D01*
Y10196466D01*
X5759928Y10189931D01*
X5764929Y10184929D01*
X5771464Y10182222D01*
X5778538D01*
X5785073Y10184929D01*
X5790074Y10189931D01*
X5792781Y10196466D01*
Y10203539D01*
X5790074Y10210074D01*
X5785073Y10215075D01*
X5778538Y10217782D01*
D02*
G37*
G36*
X5618532D02*
X5611459D01*
X5604924Y10215075D01*
X5599923Y10210074D01*
X5597216Y10203539D01*
Y10196466D01*
X5599923Y10189931D01*
X5604924Y10184929D01*
X5611459Y10182222D01*
X5618532D01*
X5625067Y10184929D01*
X5630069Y10189931D01*
X5632776Y10196466D01*
Y10203539D01*
X5630069Y10210074D01*
X5625067Y10215075D01*
X5618532Y10217782D01*
D02*
G37*
G36*
X5938538Y10217777D02*
X5931465D01*
X5924930Y10215071D01*
X5919928Y10210069D01*
X5917222Y10203534D01*
Y10196461D01*
X5919928Y10189926D01*
X5924930Y10184924D01*
X5931465Y10182217D01*
X5938538D01*
X5945073Y10184924D01*
X5950075Y10189926D01*
X5952782Y10196461D01*
Y10203534D01*
X5950075Y10210069D01*
X5945073Y10215071D01*
X5938538Y10217777D01*
D02*
G37*
G36*
X9131669Y10233024D02*
X9118532D01*
X9106396Y10227997D01*
X9097107Y10218709D01*
X9092080Y10206572D01*
Y10193436D01*
X9097107Y10181300D01*
X9106396Y10172011D01*
X9118532Y10166984D01*
X9131669D01*
X9143805Y10172011D01*
X9153093Y10181300D01*
X9158120Y10193436D01*
Y10206572D01*
X9153093Y10218709D01*
X9143805Y10227997D01*
X9131669Y10233024D01*
D02*
G37*
G36*
X9431569Y10233022D02*
X9418433D01*
X9406296Y10227995D01*
X9397008Y10218707D01*
X9391981Y10206570D01*
Y10193434D01*
X9397008Y10181298D01*
X9406296Y10172009D01*
X9418433Y10166982D01*
X9431569D01*
X9443705Y10172009D01*
X9452994Y10181298D01*
X9458021Y10193434D01*
Y10206570D01*
X9452994Y10218707D01*
X9443705Y10227995D01*
X9431569Y10233022D01*
D02*
G37*
G36*
X9031668D02*
X9018532D01*
X9006396Y10227995D01*
X8997107Y10218707D01*
X8992080Y10206570D01*
Y10193434D01*
X8997107Y10181298D01*
X9006396Y10172009D01*
X9018532Y10166982D01*
X9031668D01*
X9043805Y10172009D01*
X9053093Y10181298D01*
X9058120Y10193434D01*
Y10206570D01*
X9053093Y10218707D01*
X9043805Y10227995D01*
X9031668Y10233022D01*
D02*
G37*
G36*
X5379012Y10138260D02*
X5371938D01*
X5365403Y10135554D01*
X5360402Y10130552D01*
X5357695Y10124017D01*
Y10116944D01*
X5360402Y10110409D01*
X5365403Y10105407D01*
X5371938Y10102700D01*
X5379012D01*
X5385547Y10105407D01*
X5390548Y10110409D01*
X5393255Y10116944D01*
Y10124017D01*
X5390548Y10130552D01*
X5385547Y10135554D01*
X5379012Y10138260D01*
D02*
G37*
G36*
X5458536Y10137788D02*
X5451462D01*
X5444927Y10135081D01*
X5439926Y10130080D01*
X5437219Y10123545D01*
Y10116471D01*
X5439926Y10109936D01*
X5444927Y10104935D01*
X5451462Y10102228D01*
X5458536D01*
X5465071Y10104935D01*
X5470072Y10109936D01*
X5472779Y10116471D01*
Y10123545D01*
X5470072Y10130080D01*
X5465071Y10135081D01*
X5458536Y10137788D01*
D02*
G37*
G36*
X6178541Y10137788D02*
X6171467D01*
X6164933Y10135081D01*
X6159931Y10130079D01*
X6157224Y10123544D01*
Y10116471D01*
X6159931Y10109936D01*
X6164933Y10104935D01*
X6171467Y10102228D01*
X6178541D01*
X6185076Y10104935D01*
X6190077Y10109936D01*
X6192784Y10116471D01*
Y10123544D01*
X6190077Y10130079D01*
X6185076Y10135081D01*
X6178541Y10137788D01*
D02*
G37*
G36*
X6498537Y10137782D02*
X6491464D01*
X6484929Y10135075D01*
X6479928Y10130074D01*
X6477221Y10123539D01*
Y10116466D01*
X6479928Y10109931D01*
X6484929Y10104929D01*
X6491464Y10102222D01*
X6498537D01*
X6505072Y10104929D01*
X6510074Y10109931D01*
X6512781Y10116466D01*
Y10123539D01*
X6510074Y10130074D01*
X6505072Y10135075D01*
X6498537Y10137782D01*
D02*
G37*
G36*
X6338537D02*
X6331464D01*
X6324929Y10135075D01*
X6319928Y10130074D01*
X6317221Y10123539D01*
Y10116466D01*
X6319928Y10109931D01*
X6324929Y10104929D01*
X6331464Y10102222D01*
X6338537D01*
X6345072Y10104929D01*
X6350074Y10109931D01*
X6352781Y10116466D01*
Y10123539D01*
X6350074Y10130074D01*
X6345072Y10135075D01*
X6338537Y10137782D01*
D02*
G37*
G36*
X5698537D02*
X5691464D01*
X5684929Y10135075D01*
X5679928Y10130074D01*
X5677221Y10123539D01*
Y10116466D01*
X5679928Y10109931D01*
X5684929Y10104929D01*
X5691464Y10102222D01*
X5698537D01*
X5705072Y10104929D01*
X5710074Y10109931D01*
X5712781Y10116466D01*
Y10123539D01*
X5710074Y10130074D01*
X5705072Y10135075D01*
X5698537Y10137782D01*
D02*
G37*
G36*
X5618537D02*
X5611464D01*
X5604929Y10135075D01*
X5599928Y10130074D01*
X5597221Y10123539D01*
Y10116466D01*
X5599928Y10109931D01*
X5604929Y10104929D01*
X5611464Y10102222D01*
X5618537D01*
X5625072Y10104929D01*
X5630074Y10109931D01*
X5632781Y10116466D01*
Y10123539D01*
X5630074Y10130074D01*
X5625072Y10135075D01*
X5618537Y10137782D01*
D02*
G37*
G36*
X8931664Y10133173D02*
X8918528D01*
X8906392Y10128146D01*
X8897103Y10118857D01*
X8892076Y10106721D01*
Y10093585D01*
X8897103Y10081449D01*
X8906392Y10072160D01*
X8918528Y10067133D01*
X8931664D01*
X8943800Y10072160D01*
X8953089Y10081449D01*
X8958116Y10093585D01*
Y10106721D01*
X8953089Y10118857D01*
X8943800Y10128146D01*
X8931664Y10133173D01*
D02*
G37*
G36*
X5938538Y10057783D02*
X5931464D01*
X5924929Y10055076D01*
X5919928Y10050074D01*
X5917221Y10043539D01*
Y10036466D01*
X5919928Y10029931D01*
X5924929Y10024929D01*
X5931464Y10022223D01*
X5938538D01*
X5945072Y10024929D01*
X5950074Y10029931D01*
X5952781Y10036466D01*
Y10043539D01*
X5950074Y10050074D01*
X5945072Y10055076D01*
X5938538Y10057783D01*
D02*
G37*
G36*
X6178538Y10057782D02*
X6171464D01*
X6164929Y10055075D01*
X6159928Y10050074D01*
X6157221Y10043539D01*
Y10036466D01*
X6159928Y10029931D01*
X6164929Y10024929D01*
X6171464Y10022222D01*
X6178538D01*
X6185072Y10024929D01*
X6190074Y10029931D01*
X6192781Y10036466D01*
Y10043539D01*
X6190074Y10050074D01*
X6185072Y10055075D01*
X6178538Y10057782D01*
D02*
G37*
G36*
X6098537D02*
X6091464D01*
X6084929Y10055075D01*
X6079928Y10050074D01*
X6077221Y10043539D01*
Y10036466D01*
X6079928Y10029931D01*
X6084929Y10024929D01*
X6091464Y10022222D01*
X6098537D01*
X6105072Y10024929D01*
X6110074Y10029931D01*
X6112781Y10036466D01*
Y10043539D01*
X6110074Y10050074D01*
X6105072Y10055075D01*
X6098537Y10057782D01*
D02*
G37*
G36*
X5778538D02*
X5771464D01*
X5764929Y10055075D01*
X5759928Y10050074D01*
X5757221Y10043539D01*
Y10036466D01*
X5759928Y10029931D01*
X5764929Y10024929D01*
X5771464Y10022222D01*
X5778538D01*
X5785073Y10024929D01*
X5790074Y10029931D01*
X5792781Y10036466D01*
Y10043539D01*
X5790074Y10050074D01*
X5785073Y10055075D01*
X5778538Y10057782D01*
D02*
G37*
G36*
X5698533Y10057778D02*
X5691459D01*
X5684924Y10055071D01*
X5679923Y10050070D01*
X5677216Y10043535D01*
Y10036461D01*
X5679923Y10029926D01*
X5684924Y10024925D01*
X5691459Y10022218D01*
X5698533D01*
X5705068Y10024925D01*
X5710069Y10029926D01*
X5712776Y10036461D01*
Y10043535D01*
X5710069Y10050070D01*
X5705068Y10055071D01*
X5698533Y10057778D01*
D02*
G37*
G36*
X5537763Y10057770D02*
X5530689D01*
X5524155Y10055063D01*
X5519153Y10050062D01*
X5516446Y10043527D01*
Y10036453D01*
X5519153Y10029918D01*
X5524155Y10024917D01*
X5530689Y10022210D01*
X5537763D01*
X5544298Y10024917D01*
X5549299Y10029918D01*
X5552006Y10036453D01*
Y10043527D01*
X5549299Y10050062D01*
X5544298Y10055063D01*
X5537763Y10057770D01*
D02*
G37*
G36*
X8831569Y10033022D02*
X8818433D01*
X8806297Y10027995D01*
X8797008Y10018707D01*
X8791981Y10006571D01*
Y9993434D01*
X8797008Y9981298D01*
X8806297Y9972009D01*
X8818433Y9966982D01*
X8831569D01*
X8843705Y9972009D01*
X8852994Y9981298D01*
X8858021Y9993434D01*
Y10006571D01*
X8852994Y10018707D01*
X8843705Y10027995D01*
X8831569Y10033022D01*
D02*
G37*
G36*
X9431569Y10032923D02*
X9418433D01*
X9406297Y10027896D01*
X9397008Y10018607D01*
X9391981Y10006471D01*
Y9993335D01*
X9397008Y9981198D01*
X9406297Y9971910D01*
X9418433Y9966883D01*
X9431569D01*
X9443705Y9971910D01*
X9452994Y9981198D01*
X9458021Y9993335D01*
Y10006471D01*
X9452994Y10018607D01*
X9443705Y10027896D01*
X9431569Y10032923D01*
D02*
G37*
G36*
X8931117Y9933022D02*
X8917981D01*
X8905845Y9927995D01*
X8896556Y9918707D01*
X8891529Y9906570D01*
Y9893434D01*
X8896556Y9881298D01*
X8905845Y9872009D01*
X8917981Y9866982D01*
X8931117D01*
X8943253Y9872009D01*
X8952542Y9881298D01*
X8957569Y9893434D01*
Y9906570D01*
X8952542Y9918707D01*
X8943253Y9927995D01*
X8931117Y9933022D01*
D02*
G37*
G36*
X9231571Y9932927D02*
X9218434D01*
X9206298Y9927900D01*
X9197010Y9918611D01*
X9191983Y9906475D01*
Y9893339D01*
X9197010Y9881202D01*
X9206298Y9871914D01*
X9218434Y9866887D01*
X9231571D01*
X9243707Y9871914D01*
X9252996Y9881202D01*
X9258023Y9893339D01*
Y9906475D01*
X9252996Y9918611D01*
X9243707Y9927900D01*
X9231571Y9932927D01*
D02*
G37*
G36*
X9331569Y9932923D02*
X9318433D01*
X9306297Y9927896D01*
X9297008Y9918607D01*
X9291981Y9906471D01*
Y9893335D01*
X9297008Y9881198D01*
X9306297Y9871910D01*
X9318433Y9866883D01*
X9331569D01*
X9343705Y9871910D01*
X9352994Y9881198D01*
X9358021Y9893335D01*
Y9906471D01*
X9352994Y9918607D01*
X9343705Y9927896D01*
X9331569Y9932923D01*
D02*
G37*
G36*
X6338537Y9817782D02*
X6331464D01*
X6324929Y9815075D01*
X6319928Y9810074D01*
X6317221Y9803539D01*
Y9796466D01*
X6319928Y9789931D01*
X6324929Y9784929D01*
X6331464Y9782222D01*
X6338537D01*
X6345072Y9784929D01*
X6350074Y9789931D01*
X6352781Y9796466D01*
Y9803539D01*
X6350074Y9810074D01*
X6345072Y9815075D01*
X6338537Y9817782D01*
D02*
G37*
G36*
X6018537D02*
X6011464D01*
X6004929Y9815075D01*
X5999928Y9810074D01*
X5997221Y9803539D01*
Y9796466D01*
X5999928Y9789931D01*
X6004929Y9784929D01*
X6011464Y9782222D01*
X6018537D01*
X6025072Y9784929D01*
X6030074Y9789931D01*
X6032781Y9796466D01*
Y9803539D01*
X6030074Y9810074D01*
X6025072Y9815075D01*
X6018537Y9817782D01*
D02*
G37*
G36*
X5938538D02*
X5931464D01*
X5924929Y9815075D01*
X5919928Y9810074D01*
X5917221Y9803539D01*
Y9796466D01*
X5919928Y9789931D01*
X5924929Y9784929D01*
X5931464Y9782222D01*
X5938538D01*
X5945072Y9784929D01*
X5950074Y9789931D01*
X5952781Y9796466D01*
Y9803539D01*
X5950074Y9810074D01*
X5945072Y9815075D01*
X5938538Y9817782D01*
D02*
G37*
G36*
X5858537D02*
X5851464D01*
X5844929Y9815075D01*
X5839928Y9810074D01*
X5837221Y9803539D01*
Y9796466D01*
X5839928Y9789931D01*
X5844929Y9784929D01*
X5851464Y9782222D01*
X5858537D01*
X5865072Y9784929D01*
X5870074Y9789931D01*
X5872781Y9796466D01*
Y9803539D01*
X5870074Y9810074D01*
X5865072Y9815075D01*
X5858537Y9817782D01*
D02*
G37*
G36*
X5458535D02*
X5451461D01*
X5444926Y9815075D01*
X5439925Y9810074D01*
X5437218Y9803539D01*
Y9796466D01*
X5439925Y9789931D01*
X5444926Y9784929D01*
X5451461Y9782222D01*
X5458535D01*
X5465070Y9784929D01*
X5470071Y9789931D01*
X5472778Y9796466D01*
Y9803539D01*
X5470071Y9810074D01*
X5465070Y9815075D01*
X5458535Y9817782D01*
D02*
G37*
G36*
X6178538Y9817780D02*
X6171464D01*
X6164929Y9815073D01*
X6159928Y9810072D01*
X6157221Y9803537D01*
Y9796463D01*
X6159928Y9789928D01*
X6164929Y9784927D01*
X6171464Y9782220D01*
X6178538D01*
X6185072Y9784927D01*
X6190074Y9789928D01*
X6192781Y9796463D01*
Y9803537D01*
X6190074Y9810072D01*
X6185072Y9815073D01*
X6178538Y9817780D01*
D02*
G37*
G36*
X6578537Y9817780D02*
X6571464D01*
X6564929Y9815073D01*
X6559927Y9810071D01*
X6557221Y9803536D01*
Y9796463D01*
X6559927Y9789928D01*
X6564929Y9784927D01*
X6571464Y9782220D01*
X6578537D01*
X6585072Y9784927D01*
X6590074Y9789928D01*
X6592781Y9796463D01*
Y9803536D01*
X6590074Y9810071D01*
X6585072Y9815073D01*
X6578537Y9817780D01*
D02*
G37*
G36*
X8831664Y9833022D02*
X8818528D01*
X8806392Y9827995D01*
X8797103Y9818707D01*
X8792076Y9806570D01*
Y9793434D01*
X8797103Y9781298D01*
X8806392Y9772009D01*
X8818528Y9766982D01*
X8831664D01*
X8843800Y9772009D01*
X8853089Y9781298D01*
X8858116Y9793434D01*
Y9806570D01*
X8853089Y9818707D01*
X8843800Y9827995D01*
X8831664Y9833022D01*
D02*
G37*
G36*
X8731569D02*
X8718433D01*
X8706297Y9827995D01*
X8697008Y9818707D01*
X8691981Y9806570D01*
Y9793434D01*
X8697008Y9781298D01*
X8706297Y9772009D01*
X8718433Y9766982D01*
X8731569D01*
X8743705Y9772009D01*
X8752994Y9781298D01*
X8758021Y9793434D01*
Y9806570D01*
X8752994Y9818707D01*
X8743705Y9827995D01*
X8731569Y9833022D01*
D02*
G37*
G36*
X9031569Y9832923D02*
X9018433D01*
X9006296Y9827896D01*
X8997008Y9818607D01*
X8991981Y9806471D01*
Y9793335D01*
X8997008Y9781199D01*
X9006296Y9771910D01*
X9018433Y9766883D01*
X9031569D01*
X9043705Y9771910D01*
X9052994Y9781199D01*
X9058021Y9793335D01*
Y9806471D01*
X9052994Y9818607D01*
X9043705Y9827896D01*
X9031569Y9832923D01*
D02*
G37*
G36*
X5378535Y9737783D02*
X5371461D01*
X5364926Y9735076D01*
X5359925Y9730075D01*
X5357218Y9723540D01*
Y9716466D01*
X5359925Y9709931D01*
X5364926Y9704930D01*
X5371461Y9702223D01*
X5378535D01*
X5385069Y9704930D01*
X5390071Y9709931D01*
X5392778Y9716466D01*
Y9723540D01*
X5390071Y9730075D01*
X5385069Y9735076D01*
X5378535Y9737783D01*
D02*
G37*
G36*
X6498537Y9737782D02*
X6491464D01*
X6484929Y9735076D01*
X6479928Y9730074D01*
X6477221Y9723539D01*
Y9716466D01*
X6479928Y9709931D01*
X6484929Y9704929D01*
X6491464Y9702222D01*
X6498537D01*
X6505072Y9704929D01*
X6510074Y9709931D01*
X6512781Y9716466D01*
Y9723539D01*
X6510074Y9730074D01*
X6505072Y9735076D01*
X6498537Y9737782D01*
D02*
G37*
G36*
X6338537D02*
X6331464D01*
X6324929Y9735076D01*
X6319928Y9730074D01*
X6317221Y9723539D01*
Y9716466D01*
X6319928Y9709931D01*
X6324929Y9704929D01*
X6331464Y9702222D01*
X6338537D01*
X6345072Y9704929D01*
X6350074Y9709931D01*
X6352781Y9716466D01*
Y9723539D01*
X6350074Y9730074D01*
X6345072Y9735076D01*
X6338537Y9737782D01*
D02*
G37*
G36*
X6258537D02*
X6251464D01*
X6244929Y9735076D01*
X6239928Y9730074D01*
X6237221Y9723539D01*
Y9716466D01*
X6239928Y9709931D01*
X6244929Y9704929D01*
X6251464Y9702222D01*
X6258537D01*
X6265072Y9704929D01*
X6270074Y9709931D01*
X6272781Y9716466D01*
Y9723539D01*
X6270074Y9730074D01*
X6265072Y9735076D01*
X6258537Y9737782D01*
D02*
G37*
G36*
X6098537D02*
X6091464D01*
X6084929Y9735076D01*
X6079928Y9730074D01*
X6077221Y9723539D01*
Y9716466D01*
X6079928Y9709931D01*
X6084929Y9704929D01*
X6091464Y9702222D01*
X6098537D01*
X6105072Y9704929D01*
X6110074Y9709931D01*
X6112781Y9716466D01*
Y9723539D01*
X6110074Y9730074D01*
X6105072Y9735076D01*
X6098537Y9737782D01*
D02*
G37*
G36*
X6018537D02*
X6011464D01*
X6004929Y9735076D01*
X5999928Y9730074D01*
X5997221Y9723539D01*
Y9716466D01*
X5999928Y9709931D01*
X6004929Y9704929D01*
X6011464Y9702222D01*
X6018537D01*
X6025072Y9704929D01*
X6030074Y9709931D01*
X6032781Y9716466D01*
Y9723539D01*
X6030074Y9730074D01*
X6025072Y9735076D01*
X6018537Y9737782D01*
D02*
G37*
G36*
X5938538D02*
X5931464D01*
X5924929Y9735076D01*
X5919928Y9730074D01*
X5917221Y9723539D01*
Y9716466D01*
X5919928Y9709931D01*
X5924929Y9704929D01*
X5931464Y9702222D01*
X5938538D01*
X5945072Y9704929D01*
X5950074Y9709931D01*
X5952781Y9716466D01*
Y9723539D01*
X5950074Y9730074D01*
X5945072Y9735076D01*
X5938538Y9737782D01*
D02*
G37*
G36*
X5778538D02*
X5771464D01*
X5764929Y9735076D01*
X5759928Y9730074D01*
X5757221Y9723539D01*
Y9716466D01*
X5759928Y9709931D01*
X5764929Y9704929D01*
X5771464Y9702222D01*
X5778538D01*
X5785073Y9704929D01*
X5790074Y9709931D01*
X5792781Y9716466D01*
Y9723539D01*
X5790074Y9730074D01*
X5785073Y9735076D01*
X5778538Y9737782D01*
D02*
G37*
G36*
X5698537D02*
X5691464D01*
X5684929Y9735076D01*
X5679928Y9730074D01*
X5677221Y9723539D01*
Y9716466D01*
X5679928Y9709931D01*
X5684929Y9704929D01*
X5691464Y9702222D01*
X5698537D01*
X5705072Y9704929D01*
X5710074Y9709931D01*
X5712781Y9716466D01*
Y9723539D01*
X5710074Y9730074D01*
X5705072Y9735076D01*
X5698537Y9737782D01*
D02*
G37*
G36*
X5618537D02*
X5611464D01*
X5604929Y9735076D01*
X5599928Y9730074D01*
X5597221Y9723539D01*
Y9716466D01*
X5599928Y9709931D01*
X5604929Y9704929D01*
X5611464Y9702222D01*
X5618537D01*
X5625072Y9704929D01*
X5630074Y9709931D01*
X5632781Y9716466D01*
Y9723539D01*
X5630074Y9730074D01*
X5625072Y9735076D01*
X5618537Y9737782D01*
D02*
G37*
G36*
X5458535D02*
X5451461D01*
X5444926Y9735076D01*
X5439925Y9730074D01*
X5437218Y9723539D01*
Y9716466D01*
X5439925Y9709931D01*
X5444926Y9704929D01*
X5451461Y9702222D01*
X5458535D01*
X5465070Y9704929D01*
X5470071Y9709931D01*
X5472778Y9716466D01*
Y9723539D01*
X5470071Y9730074D01*
X5465070Y9735076D01*
X5458535Y9737782D01*
D02*
G37*
G36*
X6178538Y9737781D02*
X6171464D01*
X6164929Y9735074D01*
X6159928Y9730072D01*
X6157221Y9723538D01*
Y9716464D01*
X6159928Y9709929D01*
X6164929Y9704928D01*
X6171464Y9702221D01*
X6178538D01*
X6185072Y9704928D01*
X6190074Y9709929D01*
X6192781Y9716464D01*
Y9723538D01*
X6190074Y9730072D01*
X6185072Y9735074D01*
X6178538Y9737781D01*
D02*
G37*
G36*
X8831668Y9733022D02*
X8818532D01*
X8806396Y9727995D01*
X8797107Y9718706D01*
X8792080Y9706570D01*
Y9693434D01*
X8797107Y9681298D01*
X8806396Y9672009D01*
X8818532Y9666982D01*
X8831668D01*
X8843805Y9672009D01*
X8853093Y9681298D01*
X8858120Y9693434D01*
Y9706570D01*
X8853093Y9718706D01*
X8843805Y9727995D01*
X8831668Y9733022D01*
D02*
G37*
G36*
X9031569Y9732923D02*
X9018433D01*
X9006296Y9727896D01*
X8997008Y9718607D01*
X8991981Y9706471D01*
Y9693335D01*
X8997008Y9681199D01*
X9006296Y9671910D01*
X9018433Y9666883D01*
X9031569D01*
X9043705Y9671910D01*
X9052994Y9681199D01*
X9058021Y9693335D01*
Y9706471D01*
X9052994Y9718607D01*
X9043705Y9727896D01*
X9031569Y9732923D01*
D02*
G37*
G36*
X8931569D02*
X8918433D01*
X8906296Y9727896D01*
X8897008Y9718607D01*
X8891981Y9706471D01*
Y9693335D01*
X8897008Y9681199D01*
X8906296Y9671910D01*
X8918433Y9666883D01*
X8931569D01*
X8943705Y9671910D01*
X8952994Y9681199D01*
X8958021Y9693335D01*
Y9706471D01*
X8952994Y9718607D01*
X8943705Y9727896D01*
X8931569Y9732923D01*
D02*
G37*
G36*
X6418540Y9657785D02*
X6411467D01*
X6404932Y9655078D01*
X6399930Y9650076D01*
X6397223Y9643541D01*
Y9636468D01*
X6399930Y9629933D01*
X6404932Y9624931D01*
X6411467Y9622225D01*
X6418540D01*
X6425075Y9624931D01*
X6430077Y9629933D01*
X6432783Y9636468D01*
Y9643541D01*
X6430077Y9650076D01*
X6425075Y9655078D01*
X6418540Y9657785D01*
D02*
G37*
G36*
X6578538Y9657782D02*
X6571464D01*
X6564929Y9655075D01*
X6559928Y9650074D01*
X6557221Y9643539D01*
Y9636466D01*
X6559928Y9629931D01*
X6564929Y9624929D01*
X6571464Y9622222D01*
X6578538D01*
X6585072Y9624929D01*
X6590074Y9629931D01*
X6592781Y9636466D01*
Y9643539D01*
X6590074Y9650074D01*
X6585072Y9655075D01*
X6578538Y9657782D01*
D02*
G37*
G36*
X6498537D02*
X6491464D01*
X6484929Y9655075D01*
X6479928Y9650074D01*
X6477221Y9643539D01*
Y9636466D01*
X6479928Y9629931D01*
X6484929Y9624929D01*
X6491464Y9622222D01*
X6498537D01*
X6505072Y9624929D01*
X6510074Y9629931D01*
X6512781Y9636466D01*
Y9643539D01*
X6510074Y9650074D01*
X6505072Y9655075D01*
X6498537Y9657782D01*
D02*
G37*
G36*
X5459889D02*
X5452815D01*
X5446280Y9655075D01*
X5441279Y9650074D01*
X5438572Y9643539D01*
Y9636466D01*
X5441279Y9629931D01*
X5446280Y9624929D01*
X5452815Y9622222D01*
X5459889D01*
X5466424Y9624929D01*
X5471425Y9629931D01*
X5474132Y9636466D01*
Y9643539D01*
X5471425Y9650074D01*
X5466424Y9655075D01*
X5459889Y9657782D01*
D02*
G37*
G36*
X5378537D02*
X5371464D01*
X5364929Y9655075D01*
X5359928Y9650074D01*
X5357221Y9643539D01*
Y9636466D01*
X5359928Y9629931D01*
X5364929Y9624929D01*
X5371464Y9622222D01*
X5378537D01*
X5385072Y9624929D01*
X5390074Y9629931D01*
X5392781Y9636466D01*
Y9643539D01*
X5390074Y9650074D01*
X5385072Y9655075D01*
X5378537Y9657782D01*
D02*
G37*
G36*
X5295479Y9653785D02*
X5288406D01*
X5281871Y9651078D01*
X5276870Y9646076D01*
X5274163Y9639542D01*
Y9632468D01*
X5276870Y9625933D01*
X5281871Y9620932D01*
X5288406Y9618225D01*
X5295479D01*
X5302014Y9620932D01*
X5307016Y9625933D01*
X5309723Y9632468D01*
Y9639542D01*
X5307016Y9646076D01*
X5302014Y9651078D01*
X5295479Y9653785D01*
D02*
G37*
G36*
X5858537Y9577782D02*
X5851464D01*
X5844929Y9575075D01*
X5839928Y9570074D01*
X5837221Y9563539D01*
Y9556466D01*
X5839928Y9549931D01*
X5844929Y9544929D01*
X5851464Y9542222D01*
X5858537D01*
X5865072Y9544929D01*
X5870074Y9549931D01*
X5872781Y9556466D01*
Y9563539D01*
X5870074Y9570074D01*
X5865072Y9575075D01*
X5858537Y9577782D01*
D02*
G37*
G36*
X6066672Y9563461D02*
X6059598D01*
X6053063Y9560754D01*
X6048062Y9555752D01*
X6045355Y9549217D01*
Y9542144D01*
X6048062Y9535609D01*
X6053063Y9530608D01*
X6059598Y9527901D01*
X6066672D01*
X6073207Y9530608D01*
X6078208Y9535609D01*
X6080915Y9542144D01*
Y9549217D01*
X6078208Y9555752D01*
X6073207Y9560754D01*
X6066672Y9563461D01*
D02*
G37*
G36*
X6136509Y9562374D02*
X6129436D01*
X6122901Y9559667D01*
X6117899Y9554665D01*
X6115192Y9548130D01*
Y9541057D01*
X6117899Y9534522D01*
X6122901Y9529520D01*
X6129436Y9526814D01*
X6136509D01*
X6143044Y9529520D01*
X6148045Y9534522D01*
X6150752Y9541057D01*
Y9548130D01*
X6148045Y9554665D01*
X6143044Y9559667D01*
X6136509Y9562374D01*
D02*
G37*
G36*
X5691026Y9559371D02*
X5683953D01*
X5677418Y9556664D01*
X5672416Y9551662D01*
X5669710Y9545127D01*
Y9538054D01*
X5672416Y9531519D01*
X5677418Y9526518D01*
X5683953Y9523811D01*
X5691026D01*
X5697561Y9526518D01*
X5702563Y9531519D01*
X5705270Y9538054D01*
Y9545127D01*
X5702563Y9551662D01*
X5697561Y9556664D01*
X5691026Y9559371D01*
D02*
G37*
G36*
X6063137Y9485682D02*
X6056064D01*
X6049529Y9482975D01*
X6044528Y9477974D01*
X6041821Y9471439D01*
Y9464366D01*
X6044528Y9457831D01*
X6049529Y9452829D01*
X6056064Y9450122D01*
X6063137D01*
X6069672Y9452829D01*
X6074674Y9457831D01*
X6077381Y9464366D01*
Y9471439D01*
X6074674Y9477974D01*
X6069672Y9482975D01*
X6063137Y9485682D01*
D02*
G37*
G36*
X5948837D02*
X5941764D01*
X5935229Y9482975D01*
X5930228Y9477974D01*
X5927521Y9471439D01*
Y9464366D01*
X5930228Y9457831D01*
X5935229Y9452829D01*
X5941764Y9450122D01*
X5948837D01*
X5955372Y9452829D01*
X5960374Y9457831D01*
X5963081Y9464366D01*
Y9471439D01*
X5960374Y9477974D01*
X5955372Y9482975D01*
X5948837Y9485682D01*
D02*
G37*
G36*
X5821837D02*
X5814764D01*
X5808229Y9482975D01*
X5803228Y9477974D01*
X5800521Y9471439D01*
Y9464366D01*
X5803228Y9457831D01*
X5808229Y9452829D01*
X5814764Y9450122D01*
X5821837D01*
X5828372Y9452829D01*
X5833374Y9457831D01*
X5836081Y9464366D01*
Y9471439D01*
X5833374Y9477974D01*
X5828372Y9482975D01*
X5821837Y9485682D01*
D02*
G37*
G36*
X6012337Y9396782D02*
X6005264D01*
X5998729Y9394075D01*
X5993728Y9389074D01*
X5991021Y9382539D01*
Y9375466D01*
X5993728Y9368931D01*
X5998729Y9363929D01*
X6005264Y9361222D01*
X6012337D01*
X6018872Y9363929D01*
X6023874Y9368931D01*
X6026581Y9375466D01*
Y9382539D01*
X6023874Y9389074D01*
X6018872Y9394075D01*
X6012337Y9396782D01*
D02*
G37*
G36*
X5885337D02*
X5878264D01*
X5871729Y9394075D01*
X5866728Y9389074D01*
X5864021Y9382539D01*
Y9375466D01*
X5866728Y9368931D01*
X5871729Y9363929D01*
X5878264Y9361222D01*
X5885337D01*
X5891872Y9363929D01*
X5896874Y9368931D01*
X5899581Y9375466D01*
Y9382539D01*
X5896874Y9389074D01*
X5891872Y9394075D01*
X5885337Y9396782D01*
D02*
G37*
G36*
X5951179Y9271000D02*
X5936021D01*
X5922018Y9265200D01*
X5911300Y9254482D01*
X5905500Y9240479D01*
Y9225321D01*
X5911300Y9211318D01*
X5922018Y9200600D01*
X5936021Y9194800D01*
X5951179D01*
X5965182Y9200600D01*
X5975900Y9211318D01*
X5981700Y9225321D01*
Y9240479D01*
X5975900Y9254482D01*
X5965182Y9265200D01*
X5951179Y9271000D01*
D02*
G37*
G36*
Y9156700D02*
X5936021D01*
X5922018Y9150900D01*
X5911300Y9140182D01*
X5905500Y9126179D01*
Y9111021D01*
X5911300Y9097018D01*
X5922018Y9086300D01*
X5936021Y9080500D01*
X5951179D01*
X5965182Y9086300D01*
X5975900Y9097018D01*
X5981700Y9111021D01*
Y9126179D01*
X5975900Y9140182D01*
X5965182Y9150900D01*
X5951179Y9156700D01*
D02*
G37*
G36*
X6003679Y9036102D02*
X5988522D01*
X5974519Y9030302D01*
X5963801Y9019584D01*
X5958001Y9005581D01*
Y8990424D01*
X5963801Y8976420D01*
X5974519Y8965703D01*
X5988522Y8959902D01*
X6003679D01*
X6017683Y8965703D01*
X6028400Y8976420D01*
X6034201Y8990424D01*
Y9005581D01*
X6028400Y9019584D01*
X6017683Y9030302D01*
X6003679Y9036102D01*
D02*
G37*
G36*
X5813179D02*
X5798022D01*
X5784019Y9030302D01*
X5773301Y9019584D01*
X5767501Y9005581D01*
Y8990424D01*
X5773301Y8976420D01*
X5784019Y8965703D01*
X5798022Y8959902D01*
X5813179D01*
X5827183Y8965703D01*
X5837900Y8976420D01*
X5843701Y8990424D01*
Y9005581D01*
X5837900Y9019584D01*
X5827183Y9030302D01*
X5813179Y9036102D01*
D02*
G37*
G36*
X5902079Y8858302D02*
X5886922D01*
X5872919Y8852502D01*
X5862201Y8841784D01*
X5856401Y8827781D01*
Y8812624D01*
X5862201Y8798620D01*
X5872919Y8787903D01*
X5886922Y8782102D01*
X5902079D01*
X5916083Y8787903D01*
X5926800Y8798620D01*
X5932601Y8812624D01*
Y8827781D01*
X5926800Y8841784D01*
X5916083Y8852502D01*
X5902079Y8858302D01*
D02*
G37*
G36*
X5724279D02*
X5709122D01*
X5695119Y8852502D01*
X5684401Y8841784D01*
X5678601Y8827781D01*
Y8812624D01*
X5684401Y8798620D01*
X5695119Y8787903D01*
X5709122Y8782102D01*
X5724279D01*
X5738283Y8787903D01*
X5749000Y8798620D01*
X5754801Y8812624D01*
Y8827781D01*
X5749000Y8841784D01*
X5738283Y8852502D01*
X5724279Y8858302D01*
D02*
G37*
G36*
X5698126Y8690031D02*
X5682969D01*
X5668966Y8684231D01*
X5658248Y8673513D01*
X5652448Y8659510D01*
Y8644353D01*
X5658248Y8630349D01*
X5668966Y8619631D01*
X5682969Y8613831D01*
X5698126D01*
X5712130Y8619631D01*
X5722847Y8630349D01*
X5728648Y8644353D01*
Y8659510D01*
X5722847Y8673513D01*
X5712130Y8684231D01*
X5698126Y8690031D01*
D02*
G37*
G36*
X9931470Y11433023D02*
X9918333D01*
X9906197Y11427996D01*
X9896908Y11418707D01*
X9891881Y11406571D01*
Y11393434D01*
X9896908Y11381298D01*
X9906197Y11372010D01*
X9918333Y11366983D01*
X9931470D01*
X9943606Y11372010D01*
X9952894Y11381298D01*
X9957921Y11393434D01*
Y11406571D01*
X9952894Y11418707D01*
X9943606Y11427996D01*
X9931470Y11433023D01*
D02*
G37*
G36*
X10331469Y11433020D02*
X10318333D01*
X10306197Y11427993D01*
X10296908Y11418705D01*
X10291881Y11406568D01*
Y11393432D01*
X10296908Y11381296D01*
X10306197Y11372007D01*
X10318333Y11366980D01*
X10331469D01*
X10343605Y11372007D01*
X10352894Y11381296D01*
X10357921Y11393432D01*
Y11406568D01*
X10352894Y11418705D01*
X10343605Y11427993D01*
X10331469Y11433020D01*
D02*
G37*
G36*
X10231668Y11333023D02*
X10218532D01*
X10206396Y11327996D01*
X10197107Y11318707D01*
X10192080Y11306571D01*
Y11293434D01*
X10197107Y11281298D01*
X10206396Y11272009D01*
X10218532Y11266983D01*
X10231668D01*
X10243805Y11272009D01*
X10253093Y11281298D01*
X10258120Y11293434D01*
Y11306571D01*
X10253093Y11318707D01*
X10243805Y11327996D01*
X10231668Y11333023D01*
D02*
G37*
G36*
X9931470Y11333022D02*
X9918333D01*
X9906197Y11327995D01*
X9896908Y11318707D01*
X9891881Y11306570D01*
Y11293434D01*
X9896908Y11281298D01*
X9906197Y11272009D01*
X9918333Y11266982D01*
X9931470D01*
X9943606Y11272009D01*
X9952894Y11281298D01*
X9957921Y11293434D01*
Y11306570D01*
X9952894Y11318707D01*
X9943606Y11327995D01*
X9931470Y11333022D01*
D02*
G37*
G36*
X9731469D02*
X9718333D01*
X9706197Y11327995D01*
X9696908Y11318707D01*
X9691881Y11306570D01*
Y11293434D01*
X9696908Y11281298D01*
X9706197Y11272009D01*
X9718333Y11266982D01*
X9731469D01*
X9743606Y11272009D01*
X9752894Y11281298D01*
X9757921Y11293434D01*
Y11306570D01*
X9752894Y11318707D01*
X9743606Y11327995D01*
X9731469Y11333022D01*
D02*
G37*
G36*
X10431668Y11233022D02*
X10418532D01*
X10406396Y11227996D01*
X10397107Y11218707D01*
X10392080Y11206571D01*
Y11193434D01*
X10397107Y11181298D01*
X10406396Y11172009D01*
X10418532Y11166982D01*
X10431668D01*
X10443805Y11172009D01*
X10453093Y11181298D01*
X10458120Y11193434D01*
Y11206571D01*
X10453093Y11218707D01*
X10443805Y11227996D01*
X10431668Y11233022D01*
D02*
G37*
G36*
X10331668D02*
X10318532D01*
X10306396Y11227996D01*
X10297107Y11218707D01*
X10292080Y11206571D01*
Y11193434D01*
X10297107Y11181298D01*
X10306396Y11172009D01*
X10318532Y11166982D01*
X10331668D01*
X10343805Y11172009D01*
X10353093Y11181298D01*
X10358120Y11193434D01*
Y11206571D01*
X10353093Y11218707D01*
X10343805Y11227996D01*
X10331668Y11233022D01*
D02*
G37*
G36*
X10131669D02*
X10118532D01*
X10106396Y11227996D01*
X10097107Y11218707D01*
X10092080Y11206571D01*
Y11193434D01*
X10097107Y11181298D01*
X10106396Y11172009D01*
X10118532Y11166982D01*
X10131669D01*
X10143805Y11172009D01*
X10153093Y11181298D01*
X10158120Y11193434D01*
Y11206571D01*
X10153093Y11218707D01*
X10143805Y11227996D01*
X10131669Y11233022D01*
D02*
G37*
G36*
X9831470D02*
X9818333D01*
X9806197Y11227996D01*
X9796908Y11218707D01*
X9791881Y11206571D01*
Y11193434D01*
X9796908Y11181298D01*
X9806197Y11172009D01*
X9818333Y11166982D01*
X9831470D01*
X9843606Y11172009D01*
X9852894Y11181298D01*
X9857921Y11193434D01*
Y11206571D01*
X9852894Y11218707D01*
X9843606Y11227996D01*
X9831470Y11233022D01*
D02*
G37*
G36*
X9931470Y11133022D02*
X9918333D01*
X9906197Y11127996D01*
X9896908Y11118707D01*
X9891881Y11106571D01*
Y11093434D01*
X9896908Y11081298D01*
X9906197Y11072009D01*
X9918333Y11066982D01*
X9931470D01*
X9943606Y11072009D01*
X9952894Y11081298D01*
X9957921Y11093434D01*
Y11106571D01*
X9952894Y11118707D01*
X9943606Y11127996D01*
X9931470Y11133022D01*
D02*
G37*
G36*
X9731469D02*
X9718333D01*
X9706197Y11127996D01*
X9696908Y11118707D01*
X9691881Y11106571D01*
Y11093434D01*
X9696908Y11081298D01*
X9706197Y11072009D01*
X9718333Y11066982D01*
X9731469D01*
X9743606Y11072009D01*
X9752894Y11081298D01*
X9757921Y11093434D01*
Y11106571D01*
X9752894Y11118707D01*
X9743606Y11127996D01*
X9731469Y11133022D01*
D02*
G37*
G36*
X10231668Y11133022D02*
X10218532D01*
X10206396Y11127995D01*
X10197107Y11118706D01*
X10192080Y11106570D01*
Y11093434D01*
X10197107Y11081298D01*
X10206396Y11072009D01*
X10218532Y11066982D01*
X10231668D01*
X10243805Y11072009D01*
X10253093Y11081298D01*
X10258120Y11093434D01*
Y11106570D01*
X10253093Y11118706D01*
X10243805Y11127995D01*
X10231668Y11133022D01*
D02*
G37*
G36*
X10331668Y10933022D02*
X10318532D01*
X10306396Y10927995D01*
X10297107Y10918707D01*
X10292080Y10906571D01*
Y10893434D01*
X10297107Y10881298D01*
X10306396Y10872009D01*
X10318532Y10866982D01*
X10331668D01*
X10343805Y10872009D01*
X10353093Y10881298D01*
X10358120Y10893434D01*
Y10906571D01*
X10353093Y10918707D01*
X10343805Y10927995D01*
X10331668Y10933022D01*
D02*
G37*
G36*
X10131669D02*
X10118532D01*
X10106396Y10927995D01*
X10097107Y10918707D01*
X10092080Y10906571D01*
Y10893434D01*
X10097107Y10881298D01*
X10106396Y10872009D01*
X10118532Y10866982D01*
X10131669D01*
X10143805Y10872009D01*
X10153093Y10881298D01*
X10158120Y10893434D01*
Y10906571D01*
X10153093Y10918707D01*
X10143805Y10927995D01*
X10131669Y10933022D01*
D02*
G37*
G36*
X9831470D02*
X9818333D01*
X9806197Y10927995D01*
X9796908Y10918707D01*
X9791881Y10906571D01*
Y10893434D01*
X9796908Y10881298D01*
X9806197Y10872009D01*
X9818333Y10866982D01*
X9831470D01*
X9843606Y10872009D01*
X9852894Y10881298D01*
X9857921Y10893434D01*
Y10906571D01*
X9852894Y10918707D01*
X9843606Y10927995D01*
X9831470Y10933022D01*
D02*
G37*
G36*
X10231668Y10833022D02*
X10218532D01*
X10206396Y10827995D01*
X10197107Y10818707D01*
X10192080Y10806570D01*
Y10793434D01*
X10197107Y10781298D01*
X10206396Y10772009D01*
X10218532Y10766982D01*
X10231668D01*
X10243805Y10772009D01*
X10253093Y10781298D01*
X10258120Y10793434D01*
Y10806570D01*
X10253093Y10818707D01*
X10243805Y10827995D01*
X10231668Y10833022D01*
D02*
G37*
G36*
X9931470D02*
X9918333D01*
X9906197Y10827995D01*
X9896908Y10818707D01*
X9891881Y10806570D01*
Y10793434D01*
X9896908Y10781298D01*
X9906197Y10772009D01*
X9918333Y10766982D01*
X9931470D01*
X9943606Y10772009D01*
X9952894Y10781298D01*
X9957921Y10793434D01*
Y10806570D01*
X9952894Y10818707D01*
X9943606Y10827995D01*
X9931470Y10833022D01*
D02*
G37*
G36*
X9731469D02*
X9718333D01*
X9706197Y10827995D01*
X9696908Y10818707D01*
X9691881Y10806570D01*
Y10793434D01*
X9696908Y10781298D01*
X9706197Y10772009D01*
X9718333Y10766982D01*
X9731469D01*
X9743606Y10772009D01*
X9752894Y10781298D01*
X9757921Y10793434D01*
Y10806570D01*
X9752894Y10818707D01*
X9743606Y10827995D01*
X9731469Y10833022D01*
D02*
G37*
G36*
X10331668Y10733022D02*
X10318532D01*
X10306396Y10727995D01*
X10297107Y10718707D01*
X10292080Y10706570D01*
Y10693434D01*
X10297107Y10681298D01*
X10306396Y10672009D01*
X10318532Y10666982D01*
X10331668D01*
X10343805Y10672009D01*
X10353093Y10681298D01*
X10358120Y10693434D01*
Y10706570D01*
X10353093Y10718707D01*
X10343805Y10727995D01*
X10331668Y10733022D01*
D02*
G37*
G36*
X10131669D02*
X10118532D01*
X10106396Y10727995D01*
X10097107Y10718707D01*
X10092080Y10706570D01*
Y10693434D01*
X10097107Y10681298D01*
X10106396Y10672009D01*
X10118532Y10666982D01*
X10131669D01*
X10143805Y10672009D01*
X10153093Y10681298D01*
X10158120Y10693434D01*
Y10706570D01*
X10153093Y10718707D01*
X10143805Y10727995D01*
X10131669Y10733022D01*
D02*
G37*
G36*
X9831470D02*
X9818333D01*
X9806197Y10727995D01*
X9796908Y10718707D01*
X9791881Y10706570D01*
Y10693434D01*
X9796908Y10681298D01*
X9806197Y10672009D01*
X9818333Y10666982D01*
X9831470D01*
X9843606Y10672009D01*
X9852894Y10681298D01*
X9857921Y10693434D01*
Y10706570D01*
X9852894Y10718707D01*
X9843606Y10727995D01*
X9831470Y10733022D01*
D02*
G37*
G36*
X10231668Y10633300D02*
X10218532D01*
X10206396Y10628273D01*
X10197107Y10618985D01*
X10192080Y10606848D01*
Y10593712D01*
X10197107Y10581576D01*
X10206396Y10572287D01*
X10218532Y10567260D01*
X10231668D01*
X10243805Y10572287D01*
X10253093Y10581576D01*
X10258120Y10593712D01*
Y10606848D01*
X10253093Y10618985D01*
X10243805Y10628273D01*
X10231668Y10633300D01*
D02*
G37*
G36*
X9831470D02*
X9818333D01*
X9806197Y10628273D01*
X9796908Y10618985D01*
X9791881Y10606848D01*
Y10593712D01*
X9796908Y10581576D01*
X9806197Y10572287D01*
X9818333Y10567260D01*
X9831470D01*
X9843606Y10572287D01*
X9852894Y10581576D01*
X9857921Y10593712D01*
Y10606848D01*
X9852894Y10618985D01*
X9843606Y10628273D01*
X9831470Y10633300D01*
D02*
G37*
G36*
X9731453D02*
X9718317D01*
X9706180Y10628273D01*
X9696892Y10618985D01*
X9691865Y10606848D01*
Y10593712D01*
X9696892Y10581576D01*
X9706180Y10572287D01*
X9718317Y10567260D01*
X9731453D01*
X9743589Y10572287D01*
X9752878Y10581576D01*
X9757905Y10593712D01*
Y10606848D01*
X9752878Y10618985D01*
X9743589Y10628273D01*
X9731453Y10633300D01*
D02*
G37*
G36*
X10131669Y10633022D02*
X10118532D01*
X10106396Y10627995D01*
X10097107Y10618706D01*
X10092080Y10606570D01*
Y10593434D01*
X10097107Y10581298D01*
X10106396Y10572009D01*
X10118532Y10566982D01*
X10131669D01*
X10143805Y10572009D01*
X10153093Y10581298D01*
X10158120Y10593434D01*
Y10606570D01*
X10153093Y10618706D01*
X10143805Y10627995D01*
X10131669Y10633022D01*
D02*
G37*
G36*
X9931470D02*
X9918333D01*
X9906197Y10627995D01*
X9896908Y10618706D01*
X9891881Y10606570D01*
Y10593434D01*
X9896908Y10581298D01*
X9906197Y10572009D01*
X9918333Y10566982D01*
X9931470D01*
X9943606Y10572009D01*
X9952894Y10581298D01*
X9957921Y10593434D01*
Y10606570D01*
X9952894Y10618706D01*
X9943606Y10627995D01*
X9931470Y10633022D01*
D02*
G37*
G36*
Y10533025D02*
X9918333D01*
X9906197Y10527998D01*
X9896908Y10518709D01*
X9891881Y10506573D01*
Y10493436D01*
X9896908Y10481300D01*
X9906197Y10472012D01*
X9918333Y10466985D01*
X9931470D01*
X9943606Y10472012D01*
X9952894Y10481300D01*
X9957921Y10493436D01*
Y10506573D01*
X9952894Y10518709D01*
X9943606Y10527998D01*
X9931470Y10533025D01*
D02*
G37*
G36*
X10131669Y10533022D02*
X10118532D01*
X10106396Y10527995D01*
X10097107Y10518707D01*
X10092080Y10506571D01*
Y10493434D01*
X10097107Y10481298D01*
X10106396Y10472009D01*
X10118532Y10466982D01*
X10131669D01*
X10143805Y10472009D01*
X10153093Y10481298D01*
X10158120Y10493434D01*
Y10506571D01*
X10153093Y10518707D01*
X10143805Y10527995D01*
X10131669Y10533022D01*
D02*
G37*
G36*
X10231668Y10433022D02*
X10218532D01*
X10206396Y10427995D01*
X10197107Y10418707D01*
X10192080Y10406570D01*
Y10393434D01*
X10197107Y10381298D01*
X10206396Y10372009D01*
X10218532Y10366982D01*
X10231668D01*
X10243805Y10372009D01*
X10253093Y10381298D01*
X10258120Y10393434D01*
Y10406570D01*
X10253093Y10418707D01*
X10243805Y10427995D01*
X10231668Y10433022D01*
D02*
G37*
G36*
X10131669D02*
X10118532D01*
X10106396Y10427995D01*
X10097107Y10418707D01*
X10092080Y10406570D01*
Y10393434D01*
X10097107Y10381298D01*
X10106396Y10372009D01*
X10118532Y10366982D01*
X10131669D01*
X10143805Y10372009D01*
X10153093Y10381298D01*
X10158120Y10393434D01*
Y10406570D01*
X10153093Y10418707D01*
X10143805Y10427995D01*
X10131669Y10433022D01*
D02*
G37*
G36*
X10031675Y10432924D02*
X10018539D01*
X10006403Y10427897D01*
X9997114Y10418608D01*
X9992087Y10406472D01*
Y10393335D01*
X9997114Y10381199D01*
X10006403Y10371910D01*
X10018539Y10366884D01*
X10031675D01*
X10043811Y10371910D01*
X10053100Y10381199D01*
X10058127Y10393335D01*
Y10406472D01*
X10053100Y10418608D01*
X10043811Y10427897D01*
X10031675Y10432924D01*
D02*
G37*
G36*
X9931572Y10432906D02*
X9918436D01*
X9906300Y10427879D01*
X9897011Y10418591D01*
X9891984Y10406454D01*
Y10393318D01*
X9897011Y10381182D01*
X9906300Y10371893D01*
X9918436Y10366866D01*
X9931572D01*
X9943709Y10371893D01*
X9952997Y10381182D01*
X9958024Y10393318D01*
Y10406454D01*
X9952997Y10418591D01*
X9943709Y10427879D01*
X9931572Y10432906D01*
D02*
G37*
G36*
X9931569Y10233022D02*
X9918433D01*
X9906296Y10227996D01*
X9897008Y10218707D01*
X9891981Y10206571D01*
Y10193434D01*
X9897008Y10181298D01*
X9906296Y10172009D01*
X9918433Y10166982D01*
X9931569D01*
X9943705Y10172009D01*
X9952994Y10181298D01*
X9958021Y10193434D01*
Y10206571D01*
X9952994Y10218707D01*
X9943705Y10227996D01*
X9931569Y10233022D01*
D02*
G37*
G36*
X10231569Y10233022D02*
X10218433D01*
X10206297Y10227995D01*
X10197008Y10218707D01*
X10191981Y10206570D01*
Y10193434D01*
X10197008Y10181298D01*
X10206297Y10172009D01*
X10218433Y10166982D01*
X10231569D01*
X10243705Y10172009D01*
X10252994Y10181298D01*
X10258021Y10193434D01*
Y10206570D01*
X10252994Y10218707D01*
X10243705Y10227995D01*
X10231569Y10233022D01*
D02*
G37*
G36*
Y10133022D02*
X10218433D01*
X10206297Y10127995D01*
X10197008Y10118707D01*
X10191981Y10106571D01*
Y10093434D01*
X10197008Y10081298D01*
X10206297Y10072009D01*
X10218433Y10066982D01*
X10231569D01*
X10243705Y10072009D01*
X10252994Y10081298D01*
X10258021Y10093434D01*
Y10106571D01*
X10252994Y10118707D01*
X10243705Y10127995D01*
X10231569Y10133022D01*
D02*
G37*
G36*
X9931569D02*
X9918433D01*
X9906297Y10127995D01*
X9897008Y10118707D01*
X9891981Y10106571D01*
Y10093434D01*
X9897008Y10081298D01*
X9906297Y10072009D01*
X9918433Y10066982D01*
X9931569D01*
X9943705Y10072009D01*
X9952994Y10081298D01*
X9958021Y10093434D01*
Y10106571D01*
X9952994Y10118707D01*
X9943705Y10127995D01*
X9931569Y10133022D01*
D02*
G37*
G36*
X10131669Y10133022D02*
X10118532D01*
X10106396Y10127995D01*
X10097107Y10118706D01*
X10092080Y10106570D01*
Y10093434D01*
X10097107Y10081298D01*
X10106396Y10072009D01*
X10118532Y10066982D01*
X10131669D01*
X10143805Y10072009D01*
X10153093Y10081298D01*
X10158120Y10093434D01*
Y10106570D01*
X10153093Y10118706D01*
X10143805Y10127995D01*
X10131669Y10133022D01*
D02*
G37*
G36*
Y10033022D02*
X10118532D01*
X10106396Y10027995D01*
X10097107Y10018707D01*
X10092080Y10006571D01*
Y9993434D01*
X10097107Y9981298D01*
X10106396Y9972009D01*
X10118532Y9966982D01*
X10131669D01*
X10143805Y9972009D01*
X10153093Y9981298D01*
X10158120Y9993434D01*
Y10006571D01*
X10153093Y10018707D01*
X10143805Y10027995D01*
X10131669Y10033022D01*
D02*
G37*
G36*
Y9833022D02*
X10118532D01*
X10106396Y9827995D01*
X10097107Y9818707D01*
X10092080Y9806570D01*
Y9793434D01*
X10097107Y9781298D01*
X10106396Y9772009D01*
X10118532Y9766982D01*
X10131669D01*
X10143805Y9772009D01*
X10153093Y9781298D01*
X10158120Y9793434D01*
Y9806570D01*
X10153093Y9818707D01*
X10143805Y9827995D01*
X10131669Y9833022D01*
D02*
G37*
G36*
X17237669Y7473638D02*
X17222511D01*
X17208508Y7467837D01*
X17197791Y7457119D01*
X17191991Y7443116D01*
Y7427959D01*
X17197791Y7413956D01*
X17207957Y7403788D01*
X17197791Y7393619D01*
X17191991Y7379616D01*
Y7364459D01*
X17197791Y7350456D01*
X17208508Y7339738D01*
X17222511Y7333938D01*
X17237669D01*
X17251672Y7339738D01*
X17262390Y7350456D01*
X17268190Y7364459D01*
Y7379616D01*
X17262390Y7393619D01*
X17252222Y7403788D01*
X17262390Y7413956D01*
X17268190Y7427959D01*
Y7443116D01*
X17262390Y7457119D01*
X17251672Y7467837D01*
X17237669Y7473638D01*
D02*
G37*
%LPD*%
D83*
X18821008Y17118330D02*
Y17142068D01*
X18948380Y15919182D02*
Y18624571D01*
X18897600Y18675349D02*
X18948380Y18624571D01*
X18086317Y15057120D02*
X18948380Y15919182D01*
X17453825Y15751147D02*
X17880219Y16177539D01*
X18821008Y17142068D02*
X18823940Y17145000D01*
X17880219Y16177539D02*
X18821008Y17118330D01*
X17417377Y14168129D02*
X17453825Y14204578D01*
Y15751147D01*
X18033975Y14920293D02*
X18294580Y14659688D01*
X18309512D01*
X18313400Y14655800D01*
X18033975Y14920293D02*
Y15057120D01*
X18086317D01*
D86*
X457199Y457199D02*
D03*
Y19557999D02*
D03*
X11744001Y9247042D02*
D03*
X8244001Y12747042D02*
D03*
X19557999Y457199D02*
D03*
Y19557999D02*
D03*
D87*
X19276059Y17193259D02*
D03*
X19784059D02*
D03*
Y17701259D02*
D03*
X19276059D02*
D03*
X19530058Y17447260D02*
D03*
X19545297Y15731273D02*
D03*
X19291296Y15985274D02*
D03*
X19799297D02*
D03*
Y15477274D02*
D03*
X19291296D02*
D03*
X19545297Y14562872D02*
D03*
X19291296Y14816873D02*
D03*
X19799297D02*
D03*
Y14308873D02*
D03*
X19291296D02*
D03*
X19530058Y18615659D02*
D03*
X19276059Y18869659D02*
D03*
X19784059D02*
D03*
Y18361659D02*
D03*
X19276059D02*
D03*
D88*
X19339796Y5918199D02*
D03*
Y4648199D02*
D03*
D89*
X19085797Y5638799D02*
D03*
D90*
Y5435599D02*
D03*
Y5232399D02*
D03*
Y5029199D02*
D03*
X18907997Y5537199D02*
D03*
Y5333999D02*
D03*
Y5130799D02*
D03*
Y4927599D02*
D03*
X18425397Y5968999D02*
D03*
Y4825999D02*
D03*
Y4597399D02*
D03*
Y5740399D02*
D03*
D91*
X18846799Y3014999D02*
D03*
Y1810998D02*
D03*
X17973201Y9828000D02*
D03*
Y10248000D02*
D03*
Y10667999D02*
D03*
X18523198Y9828000D02*
D03*
Y10248000D02*
D03*
D92*
X18576802Y2288000D02*
D03*
Y2538002D02*
D03*
X18376802Y2288000D02*
D03*
Y2538002D02*
D03*
D93*
X13736798Y4875698D02*
D03*
X13843797D02*
D03*
X13950798D02*
D03*
X13736798Y4768698D02*
D03*
X13843797D02*
D03*
X13950798D02*
D03*
X13736798Y4661698D02*
D03*
X13843797D02*
D03*
X13950798D02*
D03*
D94*
X19405598Y7128001D02*
D03*
D95*
Y7628000D02*
D03*
Y8127999D02*
D03*
Y8627998D02*
D03*
D96*
X18523198Y10667999D02*
D03*
D97*
X16873743Y8059072D02*
D03*
Y7868572D02*
D03*
Y7665372D02*
D03*
Y7462172D02*
D03*
X16872916Y7077949D02*
D03*
Y7281149D02*
D03*
X15461176Y7079564D02*
D03*
X15664375D02*
D03*
X15461176Y7282764D02*
D03*
X15664375D02*
D03*
X15257976D02*
D03*
X15054776D02*
D03*
X14851576D02*
D03*
X15257976Y7079564D02*
D03*
X15054776D02*
D03*
X14851576D02*
D03*
X15866982Y7078035D02*
D03*
X16070181D02*
D03*
X16273381D02*
D03*
X15866982Y7281235D02*
D03*
X16070181D02*
D03*
X16273381D02*
D03*
X16679781D02*
D03*
X16476581D02*
D03*
X16679781Y7078035D02*
D03*
X16476581D02*
D03*
X16477409Y7462258D02*
D03*
X16680609D02*
D03*
X16477409Y7665458D02*
D03*
X16680609D02*
D03*
Y7868658D02*
D03*
X16477409D02*
D03*
Y8059158D02*
D03*
X16680609D02*
D03*
X16274210D02*
D03*
X16071008D02*
D03*
X15867809D02*
D03*
Y7868658D02*
D03*
X16071008D02*
D03*
X16274210D02*
D03*
Y7665458D02*
D03*
X16071008D02*
D03*
X15867809D02*
D03*
X16274210Y7462258D02*
D03*
X16071008D02*
D03*
X15867809D02*
D03*
X18106390Y7575238D02*
D03*
Y7422838D02*
D03*
X17230090Y7435538D02*
D03*
Y7372038D02*
D03*
X1016000Y1778000D02*
D03*
X761377Y1782217D02*
D03*
X508000Y1778000D02*
D03*
X254000D02*
D03*
X1270000D02*
D03*
X1524000D02*
D03*
X1779853Y772706D02*
D03*
X1784070Y519329D02*
D03*
Y265329D02*
D03*
Y1789329D02*
D03*
Y1535329D02*
D03*
Y1027329D02*
D03*
Y1281329D02*
D03*
X1778000Y19050000D02*
D03*
X2032000D02*
D03*
X1777377Y18800217D02*
D03*
X2032000Y18796001D02*
D03*
Y19303999D02*
D03*
X1777377Y19308217D02*
D03*
X2032000Y19812000D02*
D03*
Y19558000D02*
D03*
X1778000Y19812000D02*
D03*
Y19558000D02*
D03*
X2286000D02*
D03*
Y19812000D02*
D03*
X10160000D02*
D03*
Y19558000D02*
D03*
X9652000D02*
D03*
Y19812000D02*
D03*
X9906000Y19558000D02*
D03*
Y19812000D02*
D03*
X8890000D02*
D03*
Y19558000D02*
D03*
X8636000Y19812000D02*
D03*
Y19558000D02*
D03*
X9144000D02*
D03*
Y19812000D02*
D03*
X9398000Y19558000D02*
D03*
Y19812000D02*
D03*
X7366000D02*
D03*
Y19558000D02*
D03*
X7112000Y19812000D02*
D03*
Y19558000D02*
D03*
X6604000D02*
D03*
Y19812000D02*
D03*
X6858000Y19558000D02*
D03*
Y19812000D02*
D03*
X7874000D02*
D03*
Y19558000D02*
D03*
X7620000Y19812000D02*
D03*
Y19558000D02*
D03*
X8128000D02*
D03*
Y19812000D02*
D03*
X8382000Y19558000D02*
D03*
Y19812000D02*
D03*
X4318000D02*
D03*
Y19558000D02*
D03*
X4064000Y19812000D02*
D03*
Y19558000D02*
D03*
X3556000D02*
D03*
Y19812000D02*
D03*
X3810000Y19558000D02*
D03*
Y19812000D02*
D03*
X2794000D02*
D03*
Y19558000D02*
D03*
X2540000Y19812000D02*
D03*
Y19558000D02*
D03*
X3048000D02*
D03*
Y19812000D02*
D03*
X3302000Y19558000D02*
D03*
Y19812000D02*
D03*
X5334000D02*
D03*
Y19558000D02*
D03*
X5080000Y19812000D02*
D03*
Y19558000D02*
D03*
X4572000D02*
D03*
Y19812000D02*
D03*
X4826000Y19558000D02*
D03*
Y19812000D02*
D03*
X5842000D02*
D03*
Y19558000D02*
D03*
X5588000Y19812000D02*
D03*
Y19558000D02*
D03*
X6096000D02*
D03*
Y19812000D02*
D03*
X6350000Y19558000D02*
D03*
Y19812000D02*
D03*
X2032000Y1270000D02*
D03*
Y1016000D02*
D03*
Y1524000D02*
D03*
Y1778000D02*
D03*
X1270000Y2794000D02*
D03*
X1524000D02*
D03*
X1778000D02*
D03*
X2032000D02*
D03*
X1270000Y2540000D02*
D03*
X1524000D02*
D03*
X1777377Y2544217D02*
D03*
X2032000Y2540000D02*
D03*
Y2032000D02*
D03*
X1777377Y2036217D02*
D03*
X1524000Y2032000D02*
D03*
X1270000D02*
D03*
X2032000Y2286000D02*
D03*
X1778000D02*
D03*
X1524000D02*
D03*
X1270000D02*
D03*
X254000D02*
D03*
X508000D02*
D03*
X762000D02*
D03*
X1016000D02*
D03*
X254000Y2032000D02*
D03*
X508000D02*
D03*
X761377Y2036217D02*
D03*
X1016000Y2032000D02*
D03*
Y2540000D02*
D03*
X761377Y2544217D02*
D03*
X508000Y2540000D02*
D03*
X254000D02*
D03*
X1016000Y2794000D02*
D03*
X762000D02*
D03*
X508000D02*
D03*
X254000D02*
D03*
X2794000Y254000D02*
D03*
Y508000D02*
D03*
Y762000D02*
D03*
X3048000Y254000D02*
D03*
Y508000D02*
D03*
X3043783Y761377D02*
D03*
X3302000Y762000D02*
D03*
Y508000D02*
D03*
Y254000D02*
D03*
X2032000D02*
D03*
Y508000D02*
D03*
X2027783Y761377D02*
D03*
X2535783D02*
D03*
X2540000Y508000D02*
D03*
Y254000D02*
D03*
X2286000Y762000D02*
D03*
Y508000D02*
D03*
Y254000D02*
D03*
X15239999D02*
D03*
Y508000D02*
D03*
Y762000D02*
D03*
X15494000Y254000D02*
D03*
Y508000D02*
D03*
X15489783Y761377D02*
D03*
X15997783D02*
D03*
X16002000Y508000D02*
D03*
Y254000D02*
D03*
X15748000Y762000D02*
D03*
Y508000D02*
D03*
Y254000D02*
D03*
X16764000D02*
D03*
Y508000D02*
D03*
Y762000D02*
D03*
X17017999Y254000D02*
D03*
Y508000D02*
D03*
X17013783Y761377D02*
D03*
X16505783D02*
D03*
X16510001Y508000D02*
D03*
Y254000D02*
D03*
X16256000Y762000D02*
D03*
Y508000D02*
D03*
Y254000D02*
D03*
X18288000D02*
D03*
Y508000D02*
D03*
Y762000D02*
D03*
X17780000Y254000D02*
D03*
Y508000D02*
D03*
Y762000D02*
D03*
X18034000Y254000D02*
D03*
Y508000D02*
D03*
X18029784Y761377D02*
D03*
X17521783D02*
D03*
X17525999Y508000D02*
D03*
Y254000D02*
D03*
X17272000Y762000D02*
D03*
Y508000D02*
D03*
Y254000D02*
D03*
X13208000D02*
D03*
Y508000D02*
D03*
Y762000D02*
D03*
X13462000Y254000D02*
D03*
Y508000D02*
D03*
X13457784Y761377D02*
D03*
X13965784D02*
D03*
X13970000Y508000D02*
D03*
Y254000D02*
D03*
X13716000Y762000D02*
D03*
Y508000D02*
D03*
Y254000D02*
D03*
X14732001D02*
D03*
Y508000D02*
D03*
Y762000D02*
D03*
X14986000Y254000D02*
D03*
Y508000D02*
D03*
X14981783Y761377D02*
D03*
X14473782D02*
D03*
X14478000Y508000D02*
D03*
Y254000D02*
D03*
X14224001Y762000D02*
D03*
Y508000D02*
D03*
Y254000D02*
D03*
X12192000D02*
D03*
Y508000D02*
D03*
Y762000D02*
D03*
X12446000Y254000D02*
D03*
Y508000D02*
D03*
X12441783Y761377D02*
D03*
X12949783D02*
D03*
X12953999Y508000D02*
D03*
Y254000D02*
D03*
X12700000Y762000D02*
D03*
Y508000D02*
D03*
Y254000D02*
D03*
X11684000D02*
D03*
Y508000D02*
D03*
Y762000D02*
D03*
X11938000Y254000D02*
D03*
Y508000D02*
D03*
X11933783Y761377D02*
D03*
X11425783D02*
D03*
X11430000Y508000D02*
D03*
Y254000D02*
D03*
X3556000D02*
D03*
Y508000D02*
D03*
X3551783Y761377D02*
D03*
X4059783D02*
D03*
X4064000Y508000D02*
D03*
Y254000D02*
D03*
X3810000Y762000D02*
D03*
Y508000D02*
D03*
Y254000D02*
D03*
X4826000D02*
D03*
Y508000D02*
D03*
Y762000D02*
D03*
X5080000Y254000D02*
D03*
Y508000D02*
D03*
X5075783Y761377D02*
D03*
X4567783D02*
D03*
X4572000Y508000D02*
D03*
Y254000D02*
D03*
X4318000Y762000D02*
D03*
Y508000D02*
D03*
Y254000D02*
D03*
X6350000D02*
D03*
Y508000D02*
D03*
Y762000D02*
D03*
X6604000Y254000D02*
D03*
Y508000D02*
D03*
X6599783Y761377D02*
D03*
X7107783D02*
D03*
X7112000Y508000D02*
D03*
Y254000D02*
D03*
X6858000Y762000D02*
D03*
Y508000D02*
D03*
Y254000D02*
D03*
X5842000D02*
D03*
Y508000D02*
D03*
Y762000D02*
D03*
X6096000Y254000D02*
D03*
Y508000D02*
D03*
X6091783Y761377D02*
D03*
X5583783D02*
D03*
X5588000Y508000D02*
D03*
Y254000D02*
D03*
X5334000Y762000D02*
D03*
Y508000D02*
D03*
Y254000D02*
D03*
X9398000D02*
D03*
Y508000D02*
D03*
Y762000D02*
D03*
X9652000Y254000D02*
D03*
Y508000D02*
D03*
X9647783Y761377D02*
D03*
X10155783D02*
D03*
X10160000Y508000D02*
D03*
Y254000D02*
D03*
X9906000Y762000D02*
D03*
Y508000D02*
D03*
Y254000D02*
D03*
X10922000D02*
D03*
Y508000D02*
D03*
Y762000D02*
D03*
X11176000Y254000D02*
D03*
Y508000D02*
D03*
X11171783Y761377D02*
D03*
X10663783D02*
D03*
X10668000Y508000D02*
D03*
Y254000D02*
D03*
X10414000Y762000D02*
D03*
Y508000D02*
D03*
Y254000D02*
D03*
X8382000D02*
D03*
Y508000D02*
D03*
Y762000D02*
D03*
X8636000Y254000D02*
D03*
Y508000D02*
D03*
X8631783Y761377D02*
D03*
X9139783D02*
D03*
X9144000Y508000D02*
D03*
Y254000D02*
D03*
X8890000Y762000D02*
D03*
Y508000D02*
D03*
Y254000D02*
D03*
X7874000D02*
D03*
Y508000D02*
D03*
Y762000D02*
D03*
X8128000Y254000D02*
D03*
Y508000D02*
D03*
X8123783Y761377D02*
D03*
X7615783D02*
D03*
X7620000Y508000D02*
D03*
Y254000D02*
D03*
X7366000Y762000D02*
D03*
Y508000D02*
D03*
Y254000D02*
D03*
X254000Y14732001D02*
D03*
X508000D02*
D03*
X762000D02*
D03*
X1016000D02*
D03*
X254000Y14478000D02*
D03*
X508000D02*
D03*
X761377Y14482217D02*
D03*
X1016000Y14478000D02*
D03*
Y13970000D02*
D03*
X761377Y13974217D02*
D03*
X508000Y13970000D02*
D03*
X254000D02*
D03*
X1016000Y14224001D02*
D03*
X762000D02*
D03*
X508000D02*
D03*
X254000D02*
D03*
X1270000D02*
D03*
X1524000D02*
D03*
X1778000D02*
D03*
X2032000D02*
D03*
X1270000Y13970000D02*
D03*
X1524000D02*
D03*
X1777377Y13974217D02*
D03*
X2032000Y13970000D02*
D03*
Y14478000D02*
D03*
X1777377Y14482217D02*
D03*
X1524000Y14478000D02*
D03*
X1270000D02*
D03*
X2032000Y14732001D02*
D03*
X1778000D02*
D03*
X1524000D02*
D03*
X1270000D02*
D03*
Y13716000D02*
D03*
X1524000D02*
D03*
X1778000D02*
D03*
X2032000D02*
D03*
X1270000Y13462000D02*
D03*
X1524000D02*
D03*
X1777377Y13466217D02*
D03*
X2032000Y13462000D02*
D03*
Y12953999D02*
D03*
X1777377Y12958217D02*
D03*
X1524000Y12953999D02*
D03*
X1270000D02*
D03*
X2032000Y13208000D02*
D03*
X1778000D02*
D03*
X1524000D02*
D03*
X1270000D02*
D03*
X254000D02*
D03*
X508000D02*
D03*
X762000D02*
D03*
X1016000D02*
D03*
X254000Y12953999D02*
D03*
X508000D02*
D03*
X761377Y12958217D02*
D03*
X1016000Y12953999D02*
D03*
Y13462000D02*
D03*
X761377Y13466217D02*
D03*
X508000Y13462000D02*
D03*
X254000D02*
D03*
X1016000Y13716000D02*
D03*
X762000D02*
D03*
X508000D02*
D03*
X254000D02*
D03*
Y11684000D02*
D03*
X508000D02*
D03*
X762000D02*
D03*
X1016000D02*
D03*
X254000Y11430000D02*
D03*
X508000D02*
D03*
X761377Y11434217D02*
D03*
X1016000Y11430000D02*
D03*
Y10922000D02*
D03*
X761377Y10926217D02*
D03*
X508000Y10922000D02*
D03*
X254000D02*
D03*
X1016000Y11176000D02*
D03*
X762000D02*
D03*
X508000D02*
D03*
X254000D02*
D03*
X1270000D02*
D03*
X1524000D02*
D03*
X1778000D02*
D03*
X2032000D02*
D03*
X1270000Y10922000D02*
D03*
X1524000D02*
D03*
X1777377Y10926217D02*
D03*
X2032000Y10922000D02*
D03*
Y11430000D02*
D03*
X1777377Y11434217D02*
D03*
X1524000Y11430000D02*
D03*
X1270000D02*
D03*
X2032000Y11684000D02*
D03*
X1778000D02*
D03*
X1524000D02*
D03*
X1270000D02*
D03*
Y12700000D02*
D03*
X1524000D02*
D03*
X1778000D02*
D03*
X2032000D02*
D03*
X1270000Y12446000D02*
D03*
X1524000D02*
D03*
X1777377Y12450217D02*
D03*
X2032000Y12446000D02*
D03*
Y11938000D02*
D03*
X1777377Y11942217D02*
D03*
X1524000Y11938000D02*
D03*
X1270000D02*
D03*
X2032000Y12192000D02*
D03*
X1778000D02*
D03*
X1524000D02*
D03*
X1270000D02*
D03*
X254000D02*
D03*
X508000D02*
D03*
X762000D02*
D03*
X1016000D02*
D03*
X254000Y11938000D02*
D03*
X508000D02*
D03*
X761377Y11942217D02*
D03*
X1016000Y11938000D02*
D03*
Y12446000D02*
D03*
X761377Y12450217D02*
D03*
X508000Y12446000D02*
D03*
X254000D02*
D03*
X1016000Y12700000D02*
D03*
X762000D02*
D03*
X508000D02*
D03*
X254000D02*
D03*
Y16764000D02*
D03*
X508000D02*
D03*
X762000D02*
D03*
X1016000D02*
D03*
X254000Y16510001D02*
D03*
X508000D02*
D03*
X761377Y16514217D02*
D03*
X1016000Y16510001D02*
D03*
Y16002000D02*
D03*
X761377Y16006216D02*
D03*
X508000Y16002000D02*
D03*
X254000D02*
D03*
X1016000Y16256000D02*
D03*
X762000D02*
D03*
X508000D02*
D03*
X254000D02*
D03*
X1270000D02*
D03*
X1524000D02*
D03*
X1778000D02*
D03*
X2032000D02*
D03*
X1270000Y16002000D02*
D03*
X1524000D02*
D03*
X1777377Y16006216D02*
D03*
X2032000Y16002000D02*
D03*
Y16510001D02*
D03*
X1777377Y16514217D02*
D03*
X1524000Y16510001D02*
D03*
X1270000D02*
D03*
X2032000Y16764000D02*
D03*
X1778000D02*
D03*
X1524000D02*
D03*
X1270000D02*
D03*
Y15748000D02*
D03*
X1524000D02*
D03*
X1778000D02*
D03*
X2032000D02*
D03*
X1270000Y15494000D02*
D03*
X1524000D02*
D03*
X1777377Y15498216D02*
D03*
X2032000Y15494000D02*
D03*
Y14986000D02*
D03*
X1777377Y14990218D02*
D03*
X1524000Y14986000D02*
D03*
X1270000D02*
D03*
X2032000Y15239999D02*
D03*
X1778000D02*
D03*
X1524000D02*
D03*
X1270000D02*
D03*
X254000D02*
D03*
X508000D02*
D03*
X762000D02*
D03*
X1016000D02*
D03*
X254000Y14986000D02*
D03*
X508000D02*
D03*
X761377Y14990218D02*
D03*
X1016000Y14986000D02*
D03*
Y15494000D02*
D03*
X761377Y15498216D02*
D03*
X508000Y15494000D02*
D03*
X254000D02*
D03*
X1016000Y15748000D02*
D03*
X762000D02*
D03*
X508000D02*
D03*
X254000D02*
D03*
Y17780000D02*
D03*
X508000D02*
D03*
X762000D02*
D03*
X1016000D02*
D03*
X254000Y17525999D02*
D03*
X508000D02*
D03*
X761377Y17530217D02*
D03*
X1016000Y17525999D02*
D03*
Y17017999D02*
D03*
X761377Y17022217D02*
D03*
X508000Y17017999D02*
D03*
X254000D02*
D03*
X1016000Y17272000D02*
D03*
X762000D02*
D03*
X508000D02*
D03*
X254000D02*
D03*
X1270000D02*
D03*
X1524000D02*
D03*
X1778000D02*
D03*
X2032000D02*
D03*
X1270000Y17017999D02*
D03*
X1524000D02*
D03*
X1777377Y17022217D02*
D03*
X2032000Y17017999D02*
D03*
Y17525999D02*
D03*
X1777377Y17530217D02*
D03*
X1524000Y17525999D02*
D03*
X1270000D02*
D03*
X2032000Y17780000D02*
D03*
X1778000D02*
D03*
X1524000D02*
D03*
X1270000D02*
D03*
X1777377Y18546217D02*
D03*
X2032000Y18542000D02*
D03*
Y18034000D02*
D03*
X1777377Y18038217D02*
D03*
X1524000Y18034000D02*
D03*
X1270000D02*
D03*
X2032000Y18288000D02*
D03*
X1778000D02*
D03*
X1524000D02*
D03*
X1270000D02*
D03*
X254000D02*
D03*
X508000D02*
D03*
X762000D02*
D03*
X1016000D02*
D03*
X254000Y18034000D02*
D03*
X508000D02*
D03*
X761377Y18038217D02*
D03*
X1016000Y18034000D02*
D03*
X254000Y10668000D02*
D03*
X508000D02*
D03*
X761377Y10672217D02*
D03*
X1016000Y10668000D02*
D03*
Y10160000D02*
D03*
X761377Y10164217D02*
D03*
X508000Y10160000D02*
D03*
X254000D02*
D03*
X1016000Y10414000D02*
D03*
X762000D02*
D03*
X508000D02*
D03*
X254000D02*
D03*
X1270000D02*
D03*
X1524000D02*
D03*
X1778000D02*
D03*
X2032000D02*
D03*
X1270000Y10160000D02*
D03*
X1524000D02*
D03*
X1777377Y10164217D02*
D03*
X2032000Y10160000D02*
D03*
Y10668000D02*
D03*
X1777377Y10672217D02*
D03*
X1524000Y10668000D02*
D03*
X1270000D02*
D03*
Y9906000D02*
D03*
X1524000D02*
D03*
X1778000D02*
D03*
X2032000D02*
D03*
X1270000Y9652000D02*
D03*
X1524000D02*
D03*
X1777377Y9656217D02*
D03*
X2032000Y9652000D02*
D03*
Y9144000D02*
D03*
X1777377Y9148217D02*
D03*
X1524000Y9144000D02*
D03*
X1270000D02*
D03*
X2032000Y9398000D02*
D03*
X1778000D02*
D03*
X1524000D02*
D03*
X1270000D02*
D03*
X254000D02*
D03*
X508000D02*
D03*
X762000D02*
D03*
X1016000D02*
D03*
X254000Y9144000D02*
D03*
X508000D02*
D03*
X761377Y9148217D02*
D03*
X1016000Y9144000D02*
D03*
Y9652000D02*
D03*
X761377Y9656217D02*
D03*
X508000Y9652000D02*
D03*
X254000D02*
D03*
X1016000Y9906000D02*
D03*
X762000D02*
D03*
X508000D02*
D03*
X254000D02*
D03*
Y7874000D02*
D03*
X508000D02*
D03*
X762000D02*
D03*
X1016000D02*
D03*
X254000Y7620000D02*
D03*
X508000D02*
D03*
X761377Y7624217D02*
D03*
X1016000Y7620000D02*
D03*
Y7112000D02*
D03*
X761377Y7116217D02*
D03*
X508000Y7112000D02*
D03*
X254000D02*
D03*
X1016000Y7366000D02*
D03*
X762000D02*
D03*
X508000D02*
D03*
X254000D02*
D03*
X1270000D02*
D03*
X1524000D02*
D03*
X1778000D02*
D03*
X2032000D02*
D03*
X1270000Y7112000D02*
D03*
X1524000D02*
D03*
X1777377Y7116217D02*
D03*
X2032000Y7112000D02*
D03*
Y7620000D02*
D03*
X1777377Y7624217D02*
D03*
X1524000Y7620000D02*
D03*
X1270000D02*
D03*
X2032000Y7874000D02*
D03*
X1778000D02*
D03*
X1524000D02*
D03*
X1270000D02*
D03*
Y8890000D02*
D03*
X1524000D02*
D03*
X1778000D02*
D03*
X2032000D02*
D03*
X1270000Y8636000D02*
D03*
X1524000D02*
D03*
X1777377Y8640217D02*
D03*
X2032000Y8636000D02*
D03*
Y8128000D02*
D03*
X1777377Y8132217D02*
D03*
X1524000Y8128000D02*
D03*
X1270000D02*
D03*
X2032000Y8382000D02*
D03*
X1778000D02*
D03*
X1524000D02*
D03*
X1270000D02*
D03*
X254000D02*
D03*
X508000D02*
D03*
X762000D02*
D03*
X1016000D02*
D03*
X254000Y8128000D02*
D03*
X508000D02*
D03*
X761377Y8132217D02*
D03*
X1016000Y8128000D02*
D03*
Y8636000D02*
D03*
X761377Y8640217D02*
D03*
X508000Y8636000D02*
D03*
X254000D02*
D03*
X1016000Y8890000D02*
D03*
X762000D02*
D03*
X508000D02*
D03*
X254000D02*
D03*
Y4826000D02*
D03*
X508000D02*
D03*
X762000D02*
D03*
X1016000D02*
D03*
X254000Y4572000D02*
D03*
X508000D02*
D03*
X761377Y4576217D02*
D03*
X1016000Y4572000D02*
D03*
Y4064000D02*
D03*
X761377Y4068217D02*
D03*
X508000Y4064000D02*
D03*
X254000D02*
D03*
X1016000Y4318000D02*
D03*
X762000D02*
D03*
X508000D02*
D03*
X254000D02*
D03*
X1270000D02*
D03*
X1524000D02*
D03*
X1778000D02*
D03*
X2032000D02*
D03*
X1270000Y4064000D02*
D03*
X1524000D02*
D03*
X1777377Y4068217D02*
D03*
X2032000Y4064000D02*
D03*
Y4572000D02*
D03*
X1777377Y4576217D02*
D03*
X1524000Y4572000D02*
D03*
X1270000D02*
D03*
X2032000Y4826000D02*
D03*
X1778000D02*
D03*
X1524000D02*
D03*
X1270000D02*
D03*
Y3810000D02*
D03*
X1524000D02*
D03*
X1778000D02*
D03*
X2032000D02*
D03*
X1270000Y3556000D02*
D03*
X1524000D02*
D03*
X1777377Y3560217D02*
D03*
X2032000Y3556000D02*
D03*
Y3048000D02*
D03*
X1777377Y3052217D02*
D03*
X1524000Y3048000D02*
D03*
X1270000D02*
D03*
X2032000Y3302000D02*
D03*
X1778000D02*
D03*
X1524000D02*
D03*
X1270000D02*
D03*
X254000D02*
D03*
X508000D02*
D03*
X762000D02*
D03*
X1016000D02*
D03*
X254000Y3048000D02*
D03*
X508000D02*
D03*
X761377Y3052217D02*
D03*
X1016000Y3048000D02*
D03*
Y3556000D02*
D03*
X761377Y3560217D02*
D03*
X508000Y3556000D02*
D03*
X254000D02*
D03*
X1016000Y3810000D02*
D03*
X762000D02*
D03*
X508000D02*
D03*
X254000D02*
D03*
Y5842000D02*
D03*
X508000D02*
D03*
X762000D02*
D03*
X1016000D02*
D03*
X254000Y5588000D02*
D03*
X508000D02*
D03*
X761377Y5592217D02*
D03*
X1016000Y5588000D02*
D03*
Y5080000D02*
D03*
X761377Y5084217D02*
D03*
X508000Y5080000D02*
D03*
X254000D02*
D03*
X1016000Y5334000D02*
D03*
X762000D02*
D03*
X508000D02*
D03*
X254000D02*
D03*
X1270000D02*
D03*
X1524000D02*
D03*
X1778000D02*
D03*
X2032000D02*
D03*
X1270000Y5080000D02*
D03*
X1524000D02*
D03*
X1777377Y5084217D02*
D03*
X2032000Y5080000D02*
D03*
Y5588000D02*
D03*
X1777377Y5592217D02*
D03*
X1524000Y5588000D02*
D03*
X1270000D02*
D03*
X2032000Y5842000D02*
D03*
X1778000D02*
D03*
X1524000D02*
D03*
X1270000D02*
D03*
Y6858000D02*
D03*
X1524000D02*
D03*
X1778000D02*
D03*
X2032000D02*
D03*
X1270000Y6604000D02*
D03*
X1524000D02*
D03*
X1777377Y6608217D02*
D03*
X2032000Y6604000D02*
D03*
Y6096000D02*
D03*
X1777377Y6100217D02*
D03*
X1524000Y6096000D02*
D03*
X1270000D02*
D03*
X2032000Y6350000D02*
D03*
X1778000D02*
D03*
X1524000D02*
D03*
X1270000D02*
D03*
X254000D02*
D03*
X508000D02*
D03*
X762000D02*
D03*
X1016000D02*
D03*
X254000Y6096000D02*
D03*
X508000D02*
D03*
X761377Y6100217D02*
D03*
X1016000Y6096000D02*
D03*
Y6604000D02*
D03*
X761377Y6608217D02*
D03*
X508000Y6604000D02*
D03*
X254000D02*
D03*
X1016000Y6858000D02*
D03*
X762000D02*
D03*
X508000D02*
D03*
X254000D02*
D03*
X7721600Y8584660D02*
D03*
Y8709660D02*
D03*
X7818120D02*
D03*
Y8584660D02*
D03*
X5372100Y10795000D02*
D03*
Y10642600D02*
D03*
Y10528300D02*
D03*
X7544918Y12664638D02*
D03*
Y12867838D02*
D03*
X7354418D02*
D03*
X7434580Y13610591D02*
D03*
X6380912Y10371003D02*
D03*
X6295002D02*
D03*
X5600700Y10759887D02*
D03*
X11503399Y11944924D02*
D03*
X6295002Y9536490D02*
D03*
X6230912D02*
D03*
X12497783Y4719937D02*
D03*
X12582209Y4589165D02*
D03*
X12828964Y4696025D02*
D03*
X12545494Y4644789D02*
D03*
X12743040Y4696025D02*
D03*
X12579447Y4719937D02*
D03*
X13073380Y5326380D02*
D03*
X8234680Y16193639D02*
D03*
X7997351Y16383437D02*
D03*
X8404860Y15925252D02*
D03*
Y15800252D02*
D03*
X9972040Y6158139D02*
D03*
X10175240D02*
D03*
X9768840D02*
D03*
X11191240Y6154420D02*
D03*
X11394440D02*
D03*
X10777220Y6158139D02*
D03*
X10988040Y6154420D02*
D03*
X10370820Y6158139D02*
D03*
X10574020D02*
D03*
X10868660Y6385560D02*
D03*
X11071860D02*
D03*
X11275060D02*
D03*
X10251440Y6389279D02*
D03*
X10454640D02*
D03*
X10657840D02*
D03*
X11805920Y5951220D02*
D03*
X11602720Y6154420D02*
D03*
X11805920D02*
D03*
X12009120D02*
D03*
Y5951220D02*
D03*
X11805951Y6759111D02*
D03*
Y6555911D02*
D03*
X12009151Y6759111D02*
D03*
Y6555911D02*
D03*
Y6352711D02*
D03*
X11805951D02*
D03*
X11275060Y6588760D02*
D03*
X11071860D02*
D03*
X10868660D02*
D03*
X10657840Y6592479D02*
D03*
X10454640D02*
D03*
X10251440D02*
D03*
X14724380Y12194540D02*
D03*
X14879729Y12391923D02*
D03*
X5670154Y5075590D02*
D03*
Y6294645D02*
D03*
Y6091445D02*
D03*
Y5888245D02*
D03*
Y5481845D02*
D03*
Y5278645D02*
D03*
X7981554Y7120145D02*
D03*
Y6916945D02*
D03*
X8184754D02*
D03*
X7981554Y6713745D02*
D03*
X8184754D02*
D03*
X8387954D02*
D03*
Y6916945D02*
D03*
X8184754Y7120145D02*
D03*
X8387954D02*
D03*
X7981554Y5900945D02*
D03*
Y5494545D02*
D03*
X8184754D02*
D03*
Y5900945D02*
D03*
X8387954Y5494545D02*
D03*
Y5900945D02*
D03*
X7981554Y5697745D02*
D03*
X5873354Y5888245D02*
D03*
X8184754Y5697745D02*
D03*
X5873354Y5481845D02*
D03*
X5670154Y5685045D02*
D03*
X5873354D02*
D03*
X8387954Y5697745D02*
D03*
X7981554Y6104145D02*
D03*
Y6510545D02*
D03*
Y6307345D02*
D03*
X8184754D02*
D03*
X8387954D02*
D03*
X8184754Y6510545D02*
D03*
X8387954D02*
D03*
X8184754Y6104145D02*
D03*
X8387954D02*
D03*
X7981554Y5088290D02*
D03*
Y5291345D02*
D03*
X8184754D02*
D03*
Y5088290D02*
D03*
X8387954D02*
D03*
Y5291345D02*
D03*
X5670154Y6497845D02*
D03*
Y6701045D02*
D03*
X5873354Y6497845D02*
D03*
Y6701045D02*
D03*
Y7107445D02*
D03*
Y6904245D02*
D03*
X5670154D02*
D03*
Y7107445D02*
D03*
X6076554Y6701045D02*
D03*
Y7107445D02*
D03*
Y6904245D02*
D03*
Y6497845D02*
D03*
X5873354Y6294645D02*
D03*
X6076554Y5481845D02*
D03*
Y5685045D02*
D03*
Y6294645D02*
D03*
Y5888245D02*
D03*
X5873354Y6091445D02*
D03*
X6076554D02*
D03*
X5873354Y5278645D02*
D03*
Y5075590D02*
D03*
X6076554D02*
D03*
Y5278645D02*
D03*
X5873354Y3043590D02*
D03*
Y3449990D02*
D03*
Y3246790D02*
D03*
Y2840390D02*
D03*
X5670154D02*
D03*
X8387954Y3665890D02*
D03*
X8184754D02*
D03*
X8387954Y4275490D02*
D03*
X7981554Y4681890D02*
D03*
Y3665890D02*
D03*
Y4275490D02*
D03*
Y4072290D02*
D03*
X8184754Y3869090D02*
D03*
Y4072290D02*
D03*
Y4478690D02*
D03*
Y4681890D02*
D03*
Y4275490D02*
D03*
X8387954Y3869090D02*
D03*
Y4072290D02*
D03*
Y4681890D02*
D03*
Y4478690D02*
D03*
X5670154Y4262790D02*
D03*
Y3856390D02*
D03*
Y3246790D02*
D03*
Y3449990D02*
D03*
Y3653190D02*
D03*
Y4872390D02*
D03*
Y4465990D02*
D03*
Y4059590D02*
D03*
Y4669190D02*
D03*
X8184754Y3462690D02*
D03*
X8387954Y3259490D02*
D03*
Y3056290D02*
D03*
Y3462690D02*
D03*
X8184754Y3056290D02*
D03*
X7981554D02*
D03*
X8184754Y3259490D02*
D03*
X7981554Y3462690D02*
D03*
Y3259490D02*
D03*
X5873354Y4872390D02*
D03*
X5670154Y3043590D02*
D03*
X6076554Y3246790D02*
D03*
Y3043590D02*
D03*
Y3449990D02*
D03*
Y2840390D02*
D03*
Y4872390D02*
D03*
X5873354Y3653190D02*
D03*
Y3856390D02*
D03*
Y4059590D02*
D03*
Y4262790D02*
D03*
Y4669190D02*
D03*
Y4465990D02*
D03*
X6076554Y3856390D02*
D03*
Y3653190D02*
D03*
Y4465990D02*
D03*
Y4669190D02*
D03*
Y4059590D02*
D03*
Y4262790D02*
D03*
X7981554Y3869090D02*
D03*
Y4478690D02*
D03*
Y4885090D02*
D03*
X8184754D02*
D03*
X8387954D02*
D03*
X8299296Y17251961D02*
D03*
X8786301Y17825337D02*
D03*
X16869511Y10575999D02*
D03*
X17104660Y11361659D02*
D03*
X17017999Y11363399D02*
D03*
X16776532D02*
D03*
X16666692D02*
D03*
X16539752D02*
D03*
X19075400Y12258652D02*
D03*
X12755631Y4993070D02*
D03*
X15326540Y14048006D02*
D03*
X9060990Y9490762D02*
D03*
X8637778Y9488434D02*
D03*
X9731064Y9388221D02*
D03*
X8520695Y11907587D02*
D03*
X8519264Y11492921D02*
D03*
X8725100Y12300002D02*
D03*
X8991010Y12416842D02*
D03*
X8759190D02*
D03*
X9652598Y12483363D02*
D03*
X10075103D02*
D03*
X10725100Y12482882D02*
D03*
X10297602D02*
D03*
X11440789Y11714788D02*
D03*
X11504506Y11872503D02*
D03*
Y11672503D02*
D03*
Y11272504D02*
D03*
X11505361Y10812847D02*
D03*
X11506601Y10427506D02*
D03*
Y10180372D02*
D03*
Y10267313D02*
D03*
X11510441Y9650002D02*
D03*
Y10072507D02*
D03*
X11063877Y9584243D02*
D03*
X9170780Y9498538D02*
D03*
X10825100Y11597692D02*
D03*
X9224901Y11600232D02*
D03*
X10525001Y9900002D02*
D03*
X10525100Y9700002D02*
D03*
X4280330Y10687101D02*
D03*
Y10864900D02*
D03*
X7151218Y12664638D02*
D03*
Y12867838D02*
D03*
X7354418Y12664638D02*
D03*
X6948018D02*
D03*
Y12867838D02*
D03*
X7748118Y12664638D02*
D03*
Y12867838D02*
D03*
X2743200Y12725254D02*
D03*
Y12522054D02*
D03*
Y12928600D02*
D03*
Y13335001D02*
D03*
Y13538200D02*
D03*
Y13131799D02*
D03*
Y13741400D02*
D03*
Y13944600D02*
D03*
X15201900Y14300200D02*
D03*
X15405099D02*
D03*
Y14503400D02*
D03*
X15201900D02*
D03*
X15608299D02*
D03*
X15811501D02*
D03*
Y14300200D02*
D03*
X15608299D02*
D03*
X17183099Y13893800D02*
D03*
X14833600Y15530302D02*
D03*
X14935201D02*
D03*
Y15428702D02*
D03*
X14833600D02*
D03*
X18834100Y19215100D02*
D03*
Y19418300D02*
D03*
Y19608800D02*
D03*
Y19812000D02*
D03*
X18224500D02*
D03*
X18427699D02*
D03*
X18630901D02*
D03*
Y19608800D02*
D03*
X18427699D02*
D03*
X18224500D02*
D03*
Y19418300D02*
D03*
X18427699D02*
D03*
X18630901D02*
D03*
Y19215100D02*
D03*
X18427699D02*
D03*
X18224500D02*
D03*
X14389101D02*
D03*
X14592300D02*
D03*
X14795500D02*
D03*
Y19418300D02*
D03*
X14592300D02*
D03*
X14389101D02*
D03*
Y19608800D02*
D03*
X14592300D02*
D03*
X14795500D02*
D03*
Y19812000D02*
D03*
X14592300D02*
D03*
X14389101D02*
D03*
X14998700D02*
D03*
X15201900D02*
D03*
X15405099D02*
D03*
Y19608800D02*
D03*
X15201900D02*
D03*
X14998700D02*
D03*
Y19418300D02*
D03*
X15201900D02*
D03*
X15405099D02*
D03*
Y19215100D02*
D03*
X15201900D02*
D03*
X14998700D02*
D03*
X15608299D02*
D03*
X15811501D02*
D03*
X16014700D02*
D03*
Y19418300D02*
D03*
X15811501D02*
D03*
X15608299D02*
D03*
Y19608800D02*
D03*
X15811501D02*
D03*
X16014700D02*
D03*
Y19812000D02*
D03*
X15811501D02*
D03*
X15608299D02*
D03*
X16611600D02*
D03*
X16814799D02*
D03*
X17017999D02*
D03*
Y19608800D02*
D03*
X16814799D02*
D03*
X16611600D02*
D03*
Y19418300D02*
D03*
X16814799D02*
D03*
X17017999D02*
D03*
X16611600Y19215100D02*
D03*
X16205200D02*
D03*
X16408400D02*
D03*
Y19418300D02*
D03*
X16205200D02*
D03*
Y19608800D02*
D03*
X16408400D02*
D03*
Y19812000D02*
D03*
X16205200D02*
D03*
X17208501D02*
D03*
X17411700D02*
D03*
Y19608800D02*
D03*
X17208501D02*
D03*
Y19418300D02*
D03*
X17411700D02*
D03*
Y19215100D02*
D03*
X17208501D02*
D03*
X17614900D02*
D03*
X17818100D02*
D03*
X18021300D02*
D03*
Y19418300D02*
D03*
X17818100D02*
D03*
X17614900D02*
D03*
Y19608800D02*
D03*
X17818100D02*
D03*
X18021300D02*
D03*
Y19812000D02*
D03*
X17818100D02*
D03*
X17614900D02*
D03*
X19843686Y13747263D02*
D03*
X19640488D02*
D03*
X19437286D02*
D03*
X19500482Y15029259D02*
D03*
X19703682D02*
D03*
Y15232458D02*
D03*
X19500482D02*
D03*
X19297282D02*
D03*
Y15029259D02*
D03*
X19316701Y16357600D02*
D03*
Y16560800D02*
D03*
X19519901D02*
D03*
X19723100D02*
D03*
Y16357600D02*
D03*
X19519901D02*
D03*
X17297400Y16738600D02*
D03*
X17500600D02*
D03*
X17703799D02*
D03*
Y16941800D02*
D03*
X17500600D02*
D03*
X17297400D02*
D03*
X17907001D02*
D03*
X18110201D02*
D03*
X18313400D02*
D03*
Y16738600D02*
D03*
X18110201D02*
D03*
X17907001D02*
D03*
X18719800D02*
D03*
X18516600Y16941800D02*
D03*
X19519901D02*
D03*
X19723100D02*
D03*
Y16738600D02*
D03*
X19519901D02*
D03*
X19113499D02*
D03*
X19316701D02*
D03*
Y16941800D02*
D03*
X19113499D02*
D03*
X13462000Y16738600D02*
D03*
X13665199D02*
D03*
X13868401D02*
D03*
Y16941800D02*
D03*
X13665199D02*
D03*
X13462000D02*
D03*
X14071600D02*
D03*
X14274800D02*
D03*
X14478000D02*
D03*
Y16738600D02*
D03*
X14274800D02*
D03*
X14071600D02*
D03*
X14681200D02*
D03*
X14884399D02*
D03*
X15087601D02*
D03*
Y16941800D02*
D03*
X14884399D02*
D03*
X14681200D02*
D03*
X15684500D02*
D03*
X15887700D02*
D03*
X16090900D02*
D03*
Y16738600D02*
D03*
X15887700D02*
D03*
X15684500D02*
D03*
X15278101D02*
D03*
X15481300D02*
D03*
Y16941800D02*
D03*
X15278101D02*
D03*
X16281400D02*
D03*
X16484599D02*
D03*
Y16738600D02*
D03*
X16281400D02*
D03*
X16687801D02*
D03*
X16891000D02*
D03*
X17094200D02*
D03*
Y16941800D02*
D03*
X16891000D02*
D03*
X16687801D02*
D03*
X16916400Y13627100D02*
D03*
Y13436600D02*
D03*
X17373599Y13309599D02*
D03*
X17183099D02*
D03*
X17843500Y13404388D02*
D03*
X17653000D02*
D03*
X4368800Y12280900D02*
D03*
Y12484100D02*
D03*
X4165600D02*
D03*
Y12280900D02*
D03*
X4775200D02*
D03*
Y12484100D02*
D03*
Y12687300D02*
D03*
X4572000D02*
D03*
Y12484100D02*
D03*
Y12280900D02*
D03*
Y12890500D02*
D03*
X4775200D02*
D03*
X14414500Y13462000D02*
D03*
X14617700D02*
D03*
X14808200D02*
D03*
X14211301D02*
D03*
X14008099D02*
D03*
X13817599D02*
D03*
X13614400D02*
D03*
X16256000Y13068300D02*
D03*
Y13271500D02*
D03*
Y13474699D02*
D03*
X16459200D02*
D03*
Y13271500D02*
D03*
Y13068300D02*
D03*
X16649699D02*
D03*
Y13271500D02*
D03*
Y13474699D02*
D03*
X16052800Y13068300D02*
D03*
Y13271500D02*
D03*
Y13474699D02*
D03*
X15849600D02*
D03*
Y13271500D02*
D03*
Y13068300D02*
D03*
X15659100D02*
D03*
Y13271500D02*
D03*
Y13474699D02*
D03*
X15455901D02*
D03*
Y13271500D02*
D03*
Y13068300D02*
D03*
X16992599Y12026900D02*
D03*
X17195799D02*
D03*
X17399001D02*
D03*
Y11823700D02*
D03*
X17195799D02*
D03*
X16992599D02*
D03*
Y11633200D02*
D03*
X17195799D02*
D03*
X17399001D02*
D03*
X16992599Y12230100D02*
D03*
X17195799D02*
D03*
X17399001D02*
D03*
Y12433300D02*
D03*
X17195799D02*
D03*
X16992599D02*
D03*
Y12623800D02*
D03*
X17195799D02*
D03*
X17399001D02*
D03*
Y12827000D02*
D03*
X17195799D02*
D03*
X16992599D02*
D03*
X17589500Y12026900D02*
D03*
Y11823700D02*
D03*
Y11633200D02*
D03*
Y12230100D02*
D03*
Y12433300D02*
D03*
Y12623800D02*
D03*
Y12827000D02*
D03*
X15875000Y11430000D02*
D03*
Y11633200D02*
D03*
X15671800D02*
D03*
Y11430000D02*
D03*
X13842999Y10363200D02*
D03*
Y10160000D02*
D03*
X13639799Y9956800D02*
D03*
X13233400D02*
D03*
X13436600D02*
D03*
X13030200D02*
D03*
Y9753600D02*
D03*
X13233400Y9550400D02*
D03*
X13436600D02*
D03*
Y9753600D02*
D03*
X13233400D02*
D03*
X13842999Y9956800D02*
D03*
X14452600Y9753600D02*
D03*
X13842999D02*
D03*
X13639799D02*
D03*
Y9550400D02*
D03*
X13842999D02*
D03*
X14046201D02*
D03*
X14249400D02*
D03*
Y9753600D02*
D03*
X14046201D02*
D03*
X14249400Y10363200D02*
D03*
X14046201D02*
D03*
X14249400Y10566400D02*
D03*
Y10160000D02*
D03*
X14046201D02*
D03*
Y9956800D02*
D03*
X14249400D02*
D03*
X14452600D02*
D03*
X14655800D02*
D03*
X14859000Y10160000D02*
D03*
X14655800D02*
D03*
X14452600D02*
D03*
Y10566400D02*
D03*
X14655800D02*
D03*
X14859000D02*
D03*
Y10363200D02*
D03*
X14655800D02*
D03*
X14452600D02*
D03*
Y10769600D02*
D03*
X14655800D02*
D03*
X14859000D02*
D03*
Y10972800D02*
D03*
X14655800D02*
D03*
X14452600D02*
D03*
Y11163300D02*
D03*
X14655800D02*
D03*
X14859000D02*
D03*
Y11366500D02*
D03*
X14655800D02*
D03*
X14452600D02*
D03*
X15062199D02*
D03*
Y11163300D02*
D03*
Y10972800D02*
D03*
Y10769600D02*
D03*
Y10363200D02*
D03*
Y10566400D02*
D03*
X12781084Y11836143D02*
D03*
X12577884D02*
D03*
Y11645643D02*
D03*
X12781084D02*
D03*
X10937690Y8966995D02*
D03*
X10734490D02*
D03*
Y8776495D02*
D03*
X10937690D02*
D03*
X10942858Y8611174D02*
D03*
X10739658D02*
D03*
Y8420674D02*
D03*
X10942858D02*
D03*
X12978603Y8260624D02*
D03*
X13181802D02*
D03*
X13385002D02*
D03*
Y8463824D02*
D03*
X13181802D02*
D03*
X12978603D02*
D03*
Y8654324D02*
D03*
X13181802D02*
D03*
X13385002D02*
D03*
Y8857524D02*
D03*
X13181802D02*
D03*
X12978603D02*
D03*
X13588202D02*
D03*
Y8654324D02*
D03*
Y8463824D02*
D03*
Y8260624D02*
D03*
X16710316Y9955931D02*
D03*
Y10159131D02*
D03*
X16507117D02*
D03*
Y9955931D02*
D03*
X16316617D02*
D03*
Y10159131D02*
D03*
X16113417D02*
D03*
Y9955931D02*
D03*
X15388223Y8705776D02*
D03*
X15591425D02*
D03*
Y8908976D02*
D03*
X15388223D02*
D03*
Y9099476D02*
D03*
X15591425D02*
D03*
Y9302676D02*
D03*
X15388223D02*
D03*
X14852403Y7463787D02*
D03*
X15055605D02*
D03*
X15258804D02*
D03*
X14852403Y7666987D02*
D03*
X15055605D02*
D03*
X15258804D02*
D03*
Y7870187D02*
D03*
X15055605D02*
D03*
X14852403D02*
D03*
Y8060687D02*
D03*
X15055605D02*
D03*
X15258804D02*
D03*
Y8263887D02*
D03*
X15055605D02*
D03*
X14852403D02*
D03*
X15462004D02*
D03*
X15665204D02*
D03*
Y8060687D02*
D03*
X15462004D02*
D03*
Y7870187D02*
D03*
X15665204D02*
D03*
Y7666987D02*
D03*
X15462004D02*
D03*
X15665204Y7463787D02*
D03*
X15462004D02*
D03*
X17447357Y9643941D02*
D03*
X17637857Y9847141D02*
D03*
Y9643941D02*
D03*
X8458200Y14363699D02*
D03*
X8661400D02*
D03*
Y14160500D02*
D03*
X8458200D02*
D03*
Y14566901D02*
D03*
X8661400D02*
D03*
Y14770100D02*
D03*
X8458200D02*
D03*
Y14960600D02*
D03*
X8661400D02*
D03*
X8255000D02*
D03*
X8051800D02*
D03*
X7848600D02*
D03*
Y14770100D02*
D03*
X8051800D02*
D03*
X8255000D02*
D03*
Y14566901D02*
D03*
X8051800D02*
D03*
X7848600D02*
D03*
Y14160500D02*
D03*
X8051800D02*
D03*
X8255000D02*
D03*
Y14363699D02*
D03*
X8051800D02*
D03*
X7848600D02*
D03*
X10706100Y12953999D02*
D03*
Y12750800D02*
D03*
X11303000D02*
D03*
X11112500D02*
D03*
Y12953999D02*
D03*
X10909300D02*
D03*
Y12750800D02*
D03*
X9906000Y12953999D02*
D03*
Y12750800D02*
D03*
X10502900Y12953999D02*
D03*
Y12750800D02*
D03*
X10312400D02*
D03*
Y12953999D02*
D03*
X10109200D02*
D03*
Y12750800D02*
D03*
X9105900Y12953999D02*
D03*
Y12750800D02*
D03*
X9702800Y12953999D02*
D03*
Y12750800D02*
D03*
X9512300D02*
D03*
Y12953999D02*
D03*
X9309100D02*
D03*
Y12750800D02*
D03*
X10942858Y8062012D02*
D03*
X10739658D02*
D03*
Y8252512D02*
D03*
X10942858D02*
D03*
X12090400Y9842500D02*
D03*
X12293600Y9639300D02*
D03*
X12090400D02*
D03*
X12293600Y9436100D02*
D03*
X12090400D02*
D03*
X12293600Y9842500D02*
D03*
Y10045700D02*
D03*
X12090400D02*
D03*
Y11252200D02*
D03*
X12293600D02*
D03*
Y11049000D02*
D03*
X12090400D02*
D03*
Y10858500D02*
D03*
X12293600D02*
D03*
Y10655300D02*
D03*
X12090400D02*
D03*
Y10248900D02*
D03*
X12293600D02*
D03*
Y10452100D02*
D03*
X12090400D02*
D03*
Y12458700D02*
D03*
X12293600D02*
D03*
Y12255500D02*
D03*
X12090400D02*
D03*
Y12065000D02*
D03*
X12293600D02*
D03*
Y11861800D02*
D03*
X12090400D02*
D03*
Y11455400D02*
D03*
X12293600D02*
D03*
Y11658600D02*
D03*
X12090400D02*
D03*
X10236200Y9258300D02*
D03*
X10033000D02*
D03*
X9469120Y8851900D02*
D03*
Y9055100D02*
D03*
X9639300D02*
D03*
Y8851900D02*
D03*
X9829800D02*
D03*
Y9055100D02*
D03*
X10033000D02*
D03*
Y8851900D02*
D03*
Y8242300D02*
D03*
Y8445500D02*
D03*
Y8648700D02*
D03*
X9829800D02*
D03*
Y8445500D02*
D03*
Y8242300D02*
D03*
X9639300D02*
D03*
Y8445500D02*
D03*
Y8648700D02*
D03*
X9469120D02*
D03*
Y8445500D02*
D03*
Y8242300D02*
D03*
Y8039100D02*
D03*
X9639300D02*
D03*
X9829800D02*
D03*
X10033000D02*
D03*
X4368800Y12687300D02*
D03*
Y12890500D02*
D03*
X3759200D02*
D03*
X3962400D02*
D03*
X4165600D02*
D03*
Y12687300D02*
D03*
X3962400D02*
D03*
X3759200D02*
D03*
Y13093700D02*
D03*
X3962400D02*
D03*
X4165600D02*
D03*
Y13296899D02*
D03*
X3962400D02*
D03*
X3759200D02*
D03*
X4368800D02*
D03*
X4572000D02*
D03*
X4775200D02*
D03*
Y13093700D02*
D03*
X4572000D02*
D03*
X4368800D02*
D03*
X4978400D02*
D03*
X5181600D02*
D03*
X5384800D02*
D03*
Y13296899D02*
D03*
X5181600D02*
D03*
X4978400D02*
D03*
X3556000Y13741400D02*
D03*
X3352800D02*
D03*
X3149600D02*
D03*
Y13944600D02*
D03*
X3352800D02*
D03*
X3556000D02*
D03*
X2946400D02*
D03*
Y13741400D02*
D03*
X4978400Y13944600D02*
D03*
X5181600D02*
D03*
X5384800D02*
D03*
Y13741400D02*
D03*
X5181600D02*
D03*
X4978400D02*
D03*
X4368800D02*
D03*
X4572000D02*
D03*
X4775200D02*
D03*
Y13944600D02*
D03*
X4572000D02*
D03*
X4368800D02*
D03*
X3759200D02*
D03*
X3962400D02*
D03*
X4165600D02*
D03*
Y13741400D02*
D03*
X3962400D02*
D03*
X3759200D02*
D03*
X10638224Y16624300D02*
D03*
X10828724D02*
D03*
X11031924D02*
D03*
Y16827499D02*
D03*
X10828724D02*
D03*
X10638224D02*
D03*
X10106982Y15748000D02*
D03*
X10310182D02*
D03*
X10500682D02*
D03*
X11899900D02*
D03*
X11709400D02*
D03*
X10718800Y15951199D02*
D03*
X10909300D02*
D03*
X11112500D02*
D03*
X11506200D02*
D03*
X11315700D02*
D03*
Y15748000D02*
D03*
X11506200D02*
D03*
X11112500D02*
D03*
X10909300D02*
D03*
X10718800D02*
D03*
X11709400Y16929100D02*
D03*
Y16725900D02*
D03*
Y16535400D02*
D03*
Y16332201D02*
D03*
Y15951199D02*
D03*
Y16128999D02*
D03*
X11912600D02*
D03*
Y15951199D02*
D03*
Y16332201D02*
D03*
Y16535400D02*
D03*
Y16725900D02*
D03*
Y16929100D02*
D03*
X3506901Y10014000D02*
D03*
X3862501D02*
D03*
X3684701D02*
D03*
X3862501Y10268000D02*
D03*
X3684701D02*
D03*
X3506901D02*
D03*
X3684701Y10522000D02*
D03*
X3862501D02*
D03*
X3506901D02*
D03*
X2783001Y10522002D02*
D03*
X2605201D02*
D03*
X3138601D02*
D03*
X2960801D02*
D03*
Y10014000D02*
D03*
X3138601D02*
D03*
X2960801Y10268000D02*
D03*
X3138601D02*
D03*
X2783001Y10014000D02*
D03*
X2605201D02*
D03*
Y10268000D02*
D03*
X2783001D02*
D03*
X13779500Y19812000D02*
D03*
X13982700D02*
D03*
X14185899D02*
D03*
Y19608800D02*
D03*
X13982700D02*
D03*
X13779500D02*
D03*
Y19418300D02*
D03*
X13982700D02*
D03*
X14185899D02*
D03*
Y19215100D02*
D03*
X13982700D02*
D03*
X13779500D02*
D03*
X13373100D02*
D03*
X13576300D02*
D03*
Y19418300D02*
D03*
X13373100D02*
D03*
Y19608800D02*
D03*
X13576300D02*
D03*
Y19812000D02*
D03*
X13373100D02*
D03*
X12369800D02*
D03*
X12573000D02*
D03*
Y19608800D02*
D03*
X12369800D02*
D03*
Y19418300D02*
D03*
X12573000D02*
D03*
Y19215100D02*
D03*
X12369800D02*
D03*
Y18414999D02*
D03*
X12573000D02*
D03*
Y18618201D02*
D03*
X12369800D02*
D03*
Y18808701D02*
D03*
X12573000D02*
D03*
Y19011900D02*
D03*
X12369800D02*
D03*
X12776200D02*
D03*
X12979401D02*
D03*
X13182600D02*
D03*
Y18808701D02*
D03*
X12979401D02*
D03*
X12776200D02*
D03*
Y18618201D02*
D03*
X12979401D02*
D03*
X13182600D02*
D03*
Y18414999D02*
D03*
X12979401D02*
D03*
X12776200D02*
D03*
Y19215100D02*
D03*
X12979401D02*
D03*
X13182600D02*
D03*
Y19418300D02*
D03*
X12979401D02*
D03*
X12776200D02*
D03*
Y19608800D02*
D03*
X12979401D02*
D03*
X13182600D02*
D03*
Y19812000D02*
D03*
X12979401D02*
D03*
X12776200D02*
D03*
X11772900D02*
D03*
X11976100D02*
D03*
X12179300D02*
D03*
Y19608800D02*
D03*
X11976100D02*
D03*
X11772900D02*
D03*
Y19418300D02*
D03*
X11976100D02*
D03*
X12179300D02*
D03*
Y19215100D02*
D03*
X11976100D02*
D03*
X11772900D02*
D03*
Y18414999D02*
D03*
X11976100D02*
D03*
X12179300D02*
D03*
Y18618201D02*
D03*
X11976100D02*
D03*
X11772900D02*
D03*
Y18808701D02*
D03*
X11976100D02*
D03*
X12179300D02*
D03*
Y19011900D02*
D03*
X11976100D02*
D03*
X11772900D02*
D03*
X11163300D02*
D03*
X11366500D02*
D03*
X11569700D02*
D03*
Y18808701D02*
D03*
X11366500D02*
D03*
X11163300D02*
D03*
Y18618201D02*
D03*
X11366500D02*
D03*
X11569700D02*
D03*
Y18414999D02*
D03*
X11366500D02*
D03*
X11163300D02*
D03*
Y19215100D02*
D03*
X11366500D02*
D03*
X11569700D02*
D03*
Y19418300D02*
D03*
X11366500D02*
D03*
X11163300D02*
D03*
Y19608800D02*
D03*
X11366500D02*
D03*
X11569700D02*
D03*
Y19812000D02*
D03*
X11366500D02*
D03*
X11163300D02*
D03*
X10553700D02*
D03*
X10756900D02*
D03*
X10960100D02*
D03*
Y19608800D02*
D03*
X10756900D02*
D03*
X10553700D02*
D03*
Y19418300D02*
D03*
X10756900D02*
D03*
X10960100D02*
D03*
Y19215100D02*
D03*
X10756900D02*
D03*
X10553700D02*
D03*
Y18414999D02*
D03*
X10756900D02*
D03*
X10960100D02*
D03*
Y18618201D02*
D03*
X10756900D02*
D03*
X10553700D02*
D03*
Y18808701D02*
D03*
X10756900D02*
D03*
X10960100D02*
D03*
Y19011900D02*
D03*
X10756900D02*
D03*
X10553700D02*
D03*
X7607300Y16637000D02*
D03*
X7200900Y18237199D02*
D03*
X7404100Y18034000D02*
D03*
Y18237199D02*
D03*
X7810500Y17437100D02*
D03*
X8013700D02*
D03*
Y17233900D02*
D03*
X7810500D02*
D03*
Y17043401D02*
D03*
X8013700D02*
D03*
Y16840199D02*
D03*
X7810500D02*
D03*
Y17640300D02*
D03*
X8013700D02*
D03*
Y17843500D02*
D03*
X7810500D02*
D03*
Y18034000D02*
D03*
X8013700D02*
D03*
Y18237199D02*
D03*
X7810500D02*
D03*
X7607300D02*
D03*
Y18034000D02*
D03*
Y17843500D02*
D03*
Y17640300D02*
D03*
Y16840199D02*
D03*
Y17043401D02*
D03*
Y17233900D02*
D03*
Y17437100D02*
D03*
X7200900Y19037300D02*
D03*
X7404100D02*
D03*
X7607300D02*
D03*
Y18834100D02*
D03*
X7404100D02*
D03*
X7200900D02*
D03*
Y18643600D02*
D03*
X7404100D02*
D03*
X7607300D02*
D03*
Y18440401D02*
D03*
X7404100D02*
D03*
X7200900D02*
D03*
Y19240500D02*
D03*
X7404100D02*
D03*
X7607300D02*
D03*
X8216900D02*
D03*
X8013700D02*
D03*
X7810500D02*
D03*
Y18440401D02*
D03*
X8013700D02*
D03*
X8216900D02*
D03*
Y18643600D02*
D03*
X8013700D02*
D03*
X7810500D02*
D03*
Y18834100D02*
D03*
X8013700D02*
D03*
X8216900D02*
D03*
Y19037300D02*
D03*
X8013700D02*
D03*
X7810500D02*
D03*
X19467162Y12258652D02*
D03*
X7630218Y15921773D02*
D03*
X7957726D02*
D03*
X8420100Y19037300D02*
D03*
X8623300D02*
D03*
X8826500D02*
D03*
Y18834100D02*
D03*
X8623300D02*
D03*
X8420100D02*
D03*
Y18643600D02*
D03*
X8623300D02*
D03*
X8826500D02*
D03*
Y18440401D02*
D03*
X8623300D02*
D03*
X8420100D02*
D03*
Y19240500D02*
D03*
X8623300D02*
D03*
X8826500D02*
D03*
X18823940Y17145000D02*
D03*
X13928406Y15113776D02*
D03*
X14030005D02*
D03*
Y15215375D02*
D03*
X13928406D02*
D03*
X14131606D02*
D03*
X14233205D02*
D03*
Y15113776D02*
D03*
X14131606D02*
D03*
X14538005D02*
D03*
X14639606D02*
D03*
Y15215375D02*
D03*
X14538005D02*
D03*
X14334805D02*
D03*
X14436404D02*
D03*
Y15113776D02*
D03*
X14334805D02*
D03*
X13866614Y17697107D02*
D03*
Y17595506D02*
D03*
X13765015D02*
D03*
X13866614Y17493907D02*
D03*
X13765015D02*
D03*
X14476215Y17290707D02*
D03*
X14577814D02*
D03*
Y17392307D02*
D03*
X14476215D02*
D03*
X14679414D02*
D03*
X14781013D02*
D03*
Y17290707D02*
D03*
X14679414D02*
D03*
X14882614Y17392307D02*
D03*
Y17290707D02*
D03*
X14069814D02*
D03*
X14171414D02*
D03*
Y17392307D02*
D03*
X14069814D02*
D03*
X14273013D02*
D03*
X14374614D02*
D03*
Y17290707D02*
D03*
X14273013D02*
D03*
X13866614D02*
D03*
X13968214D02*
D03*
Y17392307D02*
D03*
X13866614D02*
D03*
X13663414D02*
D03*
X13765015D02*
D03*
Y17290707D02*
D03*
X13663414D02*
D03*
X13794951Y14275580D02*
D03*
X13712154D02*
D03*
X13890401Y14382274D02*
D03*
Y14275580D02*
D03*
Y14168886D02*
D03*
X13712154Y14382274D02*
D03*
Y14168886D02*
D03*
X13794951D02*
D03*
Y14381494D02*
D03*
X17417377Y14053064D02*
D03*
Y14168129D02*
D03*
X17531677Y14053064D02*
D03*
Y14168129D02*
D03*
Y13920557D02*
D03*
X17417377D02*
D03*
X17303078D02*
D03*
X17322800Y14168129D02*
D03*
Y14053064D02*
D03*
X17880219Y16177539D02*
D03*
X18897600Y18675349D02*
D03*
X18033975Y15057120D02*
D03*
X18669000Y14655800D02*
D03*
X18580099D02*
D03*
X18313400D02*
D03*
X18491200D02*
D03*
X18402299Y14262100D02*
D03*
X18313400Y14528799D02*
D03*
X18402299Y14389101D02*
D03*
X18745200Y14503400D02*
D03*
X18834100D02*
D03*
X18669000D02*
D03*
X18491200D02*
D03*
X18580099D02*
D03*
X19340709Y12256880D02*
D03*
X19208751Y12258311D02*
D03*
X19041161Y12376859D02*
D03*
Y12312756D02*
D03*
X19404187Y12258660D02*
D03*
X19274654Y12258713D02*
D03*
X19146867Y12257909D02*
D03*
X16291560Y14004626D02*
D03*
X16538608Y14224001D02*
D03*
X14776205Y5508290D02*
D03*
X13860983Y5429336D02*
D03*
X13939624D02*
D03*
X14844901Y5510543D02*
D03*
X13939624Y5368079D02*
D03*
X14259438Y4536562D02*
D03*
X14262100Y5143500D02*
D03*
X14274800Y4610100D02*
D03*
X14262100Y4686300D02*
D03*
X13860983Y5500741D02*
D03*
X12650711Y4261962D02*
D03*
X12649235Y4197152D02*
D03*
X12313582Y4597016D02*
D03*
X12522769Y4828162D02*
D03*
X12261091Y4565334D02*
D03*
X12603458Y4993314D02*
D03*
X13126987Y5605450D02*
D03*
X13331709Y5719766D02*
D03*
X13392139Y5692033D02*
D03*
X14093794Y4311650D02*
D03*
X13391789Y4216712D02*
D03*
X13392078Y4155683D02*
D03*
X13204366Y4161311D02*
D03*
X13276562Y4181022D02*
D03*
X12528365Y4974551D02*
D03*
X12698223Y4946196D02*
D03*
X12880461Y4074862D02*
D03*
X12882076Y4141866D02*
D03*
X12910648Y5063735D02*
D03*
X12823483Y4924770D02*
D03*
X12899284Y4930122D02*
D03*
X14166286Y4311322D02*
D03*
X12497783Y4886233D02*
D03*
X10525001Y10300055D02*
D03*
X10325001D02*
D03*
X10025107Y10399904D02*
D03*
X9725147Y10200109D02*
D03*
X12962054Y5106995D02*
D03*
X6553418Y13697258D02*
D03*
X6622423Y13726859D02*
D03*
X6553418Y13765617D02*
D03*
Y13516515D02*
D03*
X6622423Y13665898D02*
D03*
Y13579538D02*
D03*
X6553418Y13579124D02*
D03*
X6622423Y13518578D02*
D03*
X13560083Y5721192D02*
D03*
X13472360Y5717373D02*
D03*
X13245384Y5540807D02*
D03*
X13289799Y5587999D02*
D03*
X13075121Y5563489D02*
D03*
X5695788Y10318625D02*
D03*
X5480595Y10325704D02*
D03*
X5602401Y10371003D02*
D03*
X5329351Y10317237D02*
D03*
X6375005Y9536500D02*
D03*
X5548163Y9528799D02*
D03*
X5687490Y9541591D02*
D03*
X5424601Y9531001D02*
D03*
X6063135Y9545681D02*
D03*
X6132972Y9544594D02*
D03*
X10325100Y10900002D02*
D03*
X10425100Y10700002D02*
D03*
X10325100D02*
D03*
Y10800002D02*
D03*
X10125100D02*
D03*
X10225100D02*
D03*
X10325100Y10600002D02*
D03*
X10125100D02*
D03*
Y10500002D02*
D03*
X10225100Y10700002D02*
D03*
X10325100Y10500004D02*
D03*
X10225100Y10600280D02*
D03*
X10125100Y10700002D02*
D03*
X10525100Y12000002D02*
D03*
X9524901Y12000002D02*
D03*
X9724901D02*
D03*
X9324901D02*
D03*
X9224901D02*
D03*
X10225001Y12000102D02*
D03*
X10425100Y12000002D02*
D03*
X10125001Y12000102D02*
D03*
X10325001Y12000102D02*
D03*
X9624901Y12000002D02*
D03*
X9124901D02*
D03*
X10525100Y11900002D02*
D03*
X9125100D02*
D03*
X9724901D02*
D03*
X9524901D02*
D03*
X9924901D02*
D03*
X10625100D02*
D03*
X10125001Y11900102D02*
D03*
X9324901Y11900002D02*
D03*
X10225001Y11900102D02*
D03*
X9824901Y10700002D02*
D03*
X9724901Y10800002D02*
D03*
Y10700002D02*
D03*
Y10900002D02*
D03*
X9724885Y10600280D02*
D03*
X9824901Y10500005D02*
D03*
X9724885Y10500007D02*
D03*
X9725001Y10399903D02*
D03*
X9824901Y10900002D02*
D03*
Y10800002D02*
D03*
X9625162Y10900068D02*
D03*
X9824901Y10600280D02*
D03*
X9825001Y10399903D02*
D03*
X10125100Y10900002D02*
D03*
X10225100D02*
D03*
X10525100Y10600002D02*
D03*
X10625100Y10900002D02*
D03*
X9924901Y10700002D02*
D03*
X9925001Y10200002D02*
D03*
X9924901Y10600002D02*
D03*
Y11200002D02*
D03*
Y11100002D02*
D03*
X9925004Y10399886D02*
D03*
X9925001Y10100002D02*
D03*
X9924901Y10900002D02*
D03*
Y10800002D02*
D03*
Y10500005D02*
D03*
X10525100Y11500002D02*
D03*
X10427099Y11499999D02*
D03*
X10425100Y11800003D02*
D03*
X10425001Y11400102D02*
D03*
X10427099Y11599999D02*
D03*
X10425100Y11700000D02*
D03*
Y11200002D02*
D03*
X10725100Y11800003D02*
D03*
Y11200002D02*
D03*
X10525100Y11800001D02*
D03*
Y11700003D02*
D03*
X10625100Y11500002D02*
D03*
Y11800003D02*
D03*
X9724901Y11100002D02*
D03*
X9824901Y11200002D02*
D03*
Y11100002D02*
D03*
X9724901Y11200002D02*
D03*
X10125100Y11100002D02*
D03*
X10325100Y11200002D02*
D03*
X10125100D02*
D03*
X10325100Y11100002D02*
D03*
X10225100Y11200002D02*
D03*
Y11100002D02*
D03*
X10725100Y12200003D02*
D03*
X10625100D02*
D03*
Y12100002D02*
D03*
X9824901D02*
D03*
X10725100D02*
D03*
X9924901Y12200003D02*
D03*
X10425100D02*
D03*
X9824901D02*
D03*
X10425100Y12100000D02*
D03*
X10125001Y12100102D02*
D03*
X10125100Y10000002D02*
D03*
X10325100Y10000006D02*
D03*
X10525100Y10000002D02*
D03*
X10625001D02*
D03*
X10125100Y9800002D02*
D03*
X10425100Y9900002D02*
D03*
X10325100D02*
D03*
X10725001D02*
D03*
X10525100Y9800002D02*
D03*
X10725100D02*
D03*
X10625100Y9900006D02*
D03*
X10725001Y10000002D02*
D03*
X10325100Y9800002D02*
D03*
X10225001Y12200102D02*
D03*
X9624902Y12299937D02*
D03*
X9224901Y12200003D02*
D03*
X9124901D02*
D03*
X9324901D02*
D03*
X9624902D02*
D03*
X9524901D02*
D03*
X9424901D02*
D03*
X9724901D02*
D03*
X10325001Y12200102D02*
D03*
X10325100Y10200002D02*
D03*
X10125100Y10400002D02*
D03*
X10225001Y10100002D02*
D03*
X10325100Y10100002D02*
D03*
X10225100Y10400002D02*
D03*
X10125100Y10100002D02*
D03*
X10425100Y10400002D02*
D03*
X10625001Y10200002D02*
D03*
X10225001D02*
D03*
X10425001D02*
D03*
X10725100Y10400002D02*
D03*
X10425100Y10300002D02*
D03*
X10625100D02*
D03*
X10725100Y10100002D02*
D03*
X9324901Y12100002D02*
D03*
X9724901Y12100002D02*
D03*
X9226034Y12100001D02*
D03*
X9624901Y12100002D02*
D03*
X9524901D02*
D03*
X9124901Y12100002D02*
D03*
X9825001Y10299903D02*
D03*
X9725001Y10100002D02*
D03*
X9725001Y10299903D02*
D03*
X9825001Y10200002D02*
D03*
Y10099903D02*
D03*
X6095001Y9720002D02*
D03*
X6175001Y9720001D02*
D03*
X5775001Y9720002D02*
D03*
X6015001D02*
D03*
X6255001D02*
D03*
X5935001D02*
D03*
X6335001D02*
D03*
X6015001Y9640002D02*
D03*
X5855001D02*
D03*
X5935001Y9800002D02*
D03*
X5855001D02*
D03*
X6175001Y9800000D02*
D03*
X6335001Y9800002D02*
D03*
X6095001D02*
D03*
X6015001D02*
D03*
X5775001Y10040002D02*
D03*
X5935001Y10040003D02*
D03*
X6175001Y10040002D02*
D03*
X6335001Y10120002D02*
D03*
X6095001Y10040002D02*
D03*
X2605201Y11030002D02*
D03*
Y11284002D02*
D03*
Y11538002D02*
D03*
X3506901Y9252002D02*
D03*
X3862501D02*
D03*
X3684701D02*
D03*
X3138601D02*
D03*
X2960801D02*
D03*
X2783001D02*
D03*
X4280330Y9264701D02*
D03*
Y9442501D02*
D03*
X4280201Y9353604D02*
D03*
X4280330Y9175547D02*
D03*
X5996101Y8998002D02*
D03*
X5805601D02*
D03*
X5894501Y8820202D02*
D03*
X5716701D02*
D03*
X5512748Y8651931D02*
D03*
X5690548D02*
D03*
X6554148Y8753531D02*
D03*
X6376348D02*
D03*
Y8982131D02*
D03*
X3684701Y11538002D02*
D03*
X3862501D02*
D03*
X2960801D02*
D03*
X2783001D02*
D03*
X4040301D02*
D03*
Y11792002D02*
D03*
X2783001Y9506002D02*
D03*
X6575001Y9640002D02*
D03*
X5855001Y9560002D02*
D03*
X6008801Y9379002D02*
D03*
X6059601Y9467902D02*
D03*
X6495001Y9640002D02*
D03*
X6415003Y9640005D02*
D03*
X5943600Y9118600D02*
D03*
Y9232900D02*
D03*
X5945301Y9467902D02*
D03*
X5881801Y9379002D02*
D03*
X5577001D02*
D03*
X5818301Y9467902D02*
D03*
X5513501Y9379002D02*
D03*
X2605201Y9506002D02*
D03*
Y9760002D02*
D03*
Y10776002D02*
D03*
Y9252002D02*
D03*
X8675101Y10750002D02*
D03*
X8825100Y11200006D02*
D03*
X8824901Y11400003D02*
D03*
X8825001Y10000002D02*
D03*
X8675101Y10350203D02*
D03*
X8605500Y10950005D02*
D03*
X8725001Y10599906D02*
D03*
X8825001Y10600002D02*
D03*
X8675101Y10450008D02*
D03*
X8825001Y10900002D02*
D03*
X6575001Y9720002D02*
D03*
X6495001Y10120002D02*
D03*
Y10280002D02*
D03*
X6575001D02*
D03*
X6495001Y9720002D02*
D03*
Y10200002D02*
D03*
X6575001Y9800000D02*
D03*
X9625001Y9799903D02*
D03*
X9725001Y9799904D02*
D03*
X9425001Y9799903D02*
D03*
X9025001D02*
D03*
X8725001Y9800002D02*
D03*
X8825096D02*
D03*
X9825001Y9799903D02*
D03*
X9025001Y9699903D02*
D03*
X8825100Y9700002D02*
D03*
X8925001Y9699903D02*
D03*
X9625001Y9699903D02*
D03*
X9725001Y9699903D02*
D03*
X5803900Y10871200D02*
D03*
X5935002Y10199997D02*
D03*
X5935001Y10120007D02*
D03*
X6175004Y10120008D02*
D03*
X6335001Y10200002D02*
D03*
X6055003Y10371003D02*
D03*
X5935005Y10280003D02*
D03*
X6215003Y10371003D02*
D03*
X6135002D02*
D03*
X5775006Y10280002D02*
D03*
X2783001Y10776002D02*
D03*
Y9760002D02*
D03*
Y11284002D02*
D03*
Y11030002D02*
D03*
X3138601Y10776002D02*
D03*
X2960801Y11030002D02*
D03*
Y11284002D02*
D03*
Y10776002D02*
D03*
X3684701D02*
D03*
X4040301Y11030002D02*
D03*
X3862501Y10776002D02*
D03*
Y11030002D02*
D03*
X3684701D02*
D03*
X3506901Y10776002D02*
D03*
Y9506002D02*
D03*
X4280330Y9531401D02*
D03*
X3684701Y9506002D02*
D03*
X3862501D02*
D03*
X3138601D02*
D03*
X4280330Y9620321D02*
D03*
X2960801Y9506002D02*
D03*
X5499100Y10896600D02*
D03*
X5372100D02*
D03*
X5664200D02*
D03*
X4040301Y11284002D02*
D03*
X3862501D02*
D03*
X3684701D02*
D03*
X5534226Y10039990D02*
D03*
X5614996Y10200002D02*
D03*
X5775001D02*
D03*
X5615001Y9720002D02*
D03*
X5695001Y10120002D02*
D03*
X5694996Y10039998D02*
D03*
X5695001Y10200005D02*
D03*
X5615001Y10120002D02*
D03*
X5775000Y10120008D02*
D03*
X5695001Y9720002D02*
D03*
X4280330Y10776001D02*
D03*
X9225003Y9899907D02*
D03*
X9425001Y9999903D02*
D03*
X9325001Y9899903D02*
D03*
X9225001Y9999903D02*
D03*
X9125100Y10300002D02*
D03*
X9325102Y10300006D02*
D03*
X9125100Y10200004D02*
D03*
X9425001Y10200002D02*
D03*
X9425100Y10300002D02*
D03*
X9625100Y11000003D02*
D03*
X9624901Y10700002D02*
D03*
X9625033Y11899435D02*
D03*
X9625001Y10199903D02*
D03*
X9625004Y9900252D02*
D03*
X9625006Y10300253D02*
D03*
X9625001Y10100002D02*
D03*
Y9999903D02*
D03*
X9625100Y10500002D02*
D03*
X9525097Y10900004D02*
D03*
X9425097Y10900003D02*
D03*
X9624997Y11100102D02*
D03*
X9525100Y11000003D02*
D03*
X9525001Y11200002D02*
D03*
Y10800002D02*
D03*
X9425100Y11000003D02*
D03*
X9425001Y10799903D02*
D03*
X9024901Y11300003D02*
D03*
Y11400003D02*
D03*
X9025100Y11100004D02*
D03*
X9024901Y11600002D02*
D03*
Y11800003D02*
D03*
X9125097Y11000004D02*
D03*
X9125100Y10800002D02*
D03*
Y10500002D02*
D03*
X9126376Y11300892D02*
D03*
X9125100Y10900002D02*
D03*
X9124901Y11200002D02*
D03*
X9225897Y10999207D02*
D03*
X9224901Y11800003D02*
D03*
Y11500002D02*
D03*
X9324901Y11200002D02*
D03*
X9224901Y11299998D02*
D03*
X9225096Y10400004D02*
D03*
X9325897Y10900004D02*
D03*
X9324700Y10800342D02*
D03*
X9225500Y10900803D02*
D03*
X9325491Y10700002D02*
D03*
X9325100Y11000003D02*
D03*
X9225100Y10700002D02*
D03*
X9325099Y10600002D02*
D03*
X9325100Y10500004D02*
D03*
X9324901Y11800003D02*
D03*
X8924795Y10900803D02*
D03*
X8925499Y10999207D02*
D03*
X9024701Y10800280D02*
D03*
X8925100Y11100006D02*
D03*
Y10700002D02*
D03*
X9025100Y10200002D02*
D03*
Y10400002D02*
D03*
X8924549Y9900002D02*
D03*
X8925093Y10300201D02*
D03*
X9025099Y10500007D02*
D03*
X8925102Y10000005D02*
D03*
X8925101Y10500003D02*
D03*
X8925001Y10600002D02*
D03*
X8925096Y10100153D02*
D03*
X10725100Y9700002D02*
D03*
X10925100Y11900002D02*
D03*
Y9700003D02*
D03*
X11025100Y11600002D02*
D03*
Y11400003D02*
D03*
X10925001Y11300102D02*
D03*
X11025001Y11800102D02*
D03*
X10925100Y11200002D02*
D03*
X11025100Y9700002D02*
D03*
X10925100Y9800002D02*
D03*
Y12100002D02*
D03*
Y12300003D02*
D03*
Y12200003D02*
D03*
X11125001Y12300102D02*
D03*
X10825100Y12100002D02*
D03*
X11325100Y9700002D02*
D03*
X11225100Y11200002D02*
D03*
X10825001Y12000102D02*
D03*
X10825100Y10500002D02*
D03*
Y11900002D02*
D03*
Y11500002D02*
D03*
Y11800003D02*
D03*
Y10200002D02*
D03*
X10425100Y12300002D02*
D03*
X10725100Y12300003D02*
D03*
X10625100D02*
D03*
X10825100Y12200003D02*
D03*
X9024901D02*
D03*
X9425032Y12300003D02*
D03*
X9024901D02*
D03*
X9724901D02*
D03*
X9324901D02*
D03*
X9224901Y12300001D02*
D03*
X10825100Y12300003D02*
D03*
X9824901Y12300903D02*
D03*
X11225100Y11600002D02*
D03*
X11325001Y12300102D02*
D03*
X11225001Y11800102D02*
D03*
X11225001Y12000102D02*
D03*
X11225100Y11400003D02*
D03*
X8924901Y12200003D02*
D03*
X8824901Y11800003D02*
D03*
X8925100Y11900002D02*
D03*
X8824901Y11600002D02*
D03*
X9124901Y12300003D02*
D03*
X8924901D02*
D03*
X9524901D02*
D03*
X10925100Y9900005D02*
D03*
X10825100Y10000002D02*
D03*
X11225100Y10500002D02*
D03*
Y9900002D02*
D03*
Y10300002D02*
D03*
X11025100Y10400002D02*
D03*
Y10300002D02*
D03*
Y10100002D02*
D03*
X11225100Y10900002D02*
D03*
Y10100002D02*
D03*
X10825100Y10700002D02*
D03*
X11025100Y10900002D02*
D03*
X11225100Y10700002D02*
D03*
X10227099Y11499999D02*
D03*
X10324901Y11400000D02*
D03*
X10225100Y11300003D02*
D03*
X10325100D02*
D03*
X10125100D02*
D03*
Y11500001D02*
D03*
X10325100Y11800003D02*
D03*
X10225100D02*
D03*
X9524901D02*
D03*
X9624901D02*
D03*
X9924901Y11800002D02*
D03*
X9724901Y11800003D02*
D03*
X9824901Y11700003D02*
D03*
X9624901Y11700002D02*
D03*
X9724901Y11600002D02*
D03*
X9524901Y11500002D02*
D03*
X9424901D02*
D03*
X9624901Y11300003D02*
D03*
X9724901Y11300002D02*
D03*
X9924901D02*
D03*
X9824901D02*
D03*
X9724901Y11400003D02*
D03*
X9924901D02*
D03*
X10325100Y11700000D02*
D03*
X10125100Y11700003D02*
D03*
X10125001Y11600102D02*
D03*
X10225100Y11700003D02*
D03*
X10324899Y11599999D02*
D03*
X3138601Y9760002D02*
D03*
X2960801D02*
D03*
X3684701D02*
D03*
X4280330Y10331501D02*
D03*
Y10597947D02*
D03*
Y9798101D02*
D03*
Y9708947D02*
D03*
X4280330Y10509301D02*
D03*
X4280330Y9886747D02*
D03*
Y10420147D02*
D03*
Y10242855D02*
D03*
Y9975901D02*
D03*
Y10064547D02*
D03*
Y10153701D02*
D03*
X5456352Y9640002D02*
D03*
X5454999Y10120008D02*
D03*
X5375475Y10120480D02*
D03*
X5291943Y9636005D02*
D03*
X5454998Y9720002D02*
D03*
X5375001Y9640002D02*
D03*
X5375002Y10200004D02*
D03*
X5454998Y9800002D02*
D03*
X5454997Y10200004D02*
D03*
X5295002Y10200007D02*
D03*
X5374998Y9720003D02*
D03*
X3862501Y9760002D02*
D03*
X3506901D02*
D03*
X8663136Y17640366D02*
D03*
Y17504071D02*
D03*
X16642081Y18394679D02*
D03*
X16979900Y18737579D02*
D03*
X16891000Y18742661D02*
D03*
X16878300Y10947400D02*
D03*
Y11049000D02*
D03*
X13975420Y4413250D02*
D03*
X14668500Y4267200D02*
D03*
X14770100Y4330700D02*
D03*
X15138400Y4318000D02*
D03*
Y4229100D02*
D03*
X15265401D02*
D03*
Y4318000D02*
D03*
X15392400Y4229100D02*
D03*
Y4318000D02*
D03*
X15519400D02*
D03*
Y4229100D02*
D03*
X15633701Y4318000D02*
D03*
Y4229100D02*
D03*
X16459200Y4279900D02*
D03*
Y4368800D02*
D03*
Y4457700D02*
D03*
X16548100Y4279900D02*
D03*
Y4368800D02*
D03*
Y4457700D02*
D03*
X16738600Y4279900D02*
D03*
Y4368800D02*
D03*
Y4457700D02*
D03*
X16827499Y4279900D02*
D03*
Y4368800D02*
D03*
Y4457700D02*
D03*
X16992599Y4279900D02*
D03*
Y4368800D02*
D03*
Y4457700D02*
D03*
X17081500Y4279900D02*
D03*
Y4368800D02*
D03*
Y4457700D02*
D03*
X13512801Y4991100D02*
D03*
X13970000Y5143500D02*
D03*
X15570200Y4470400D02*
D03*
X15659100D02*
D03*
X15824200Y5549900D02*
D03*
Y4914900D02*
D03*
X15925887Y5373385D02*
D03*
X15925888Y5106684D02*
D03*
X16281400Y5524500D02*
D03*
Y4912360D02*
D03*
Y4965700D02*
D03*
X16282463Y5580369D02*
D03*
X16992599Y4559300D02*
D03*
Y4648200D02*
D03*
Y4737100D02*
D03*
X17081500Y4559300D02*
D03*
Y4648200D02*
D03*
Y4737100D02*
D03*
X17373599Y4559300D02*
D03*
X17461230Y5600700D02*
D03*
X17514571D02*
D03*
X17602200Y4546600D02*
D03*
X17754601Y4737100D02*
D03*
Y4826000D02*
D03*
D98*
X17565590Y7980838D02*
D03*
X17675592D02*
D03*
X17785590D02*
D03*
X17565590Y7870836D02*
D03*
X17675592D02*
D03*
X17785590D02*
D03*
X17565590Y7760838D02*
D03*
X17675592D02*
D03*
X17785590D02*
D03*
X17565590Y7650836D02*
D03*
X17675592D02*
D03*
X17785590D02*
D03*
X17565590Y7540839D02*
D03*
X17675592D02*
D03*
X17785590D02*
D03*
X17565590Y7430837D02*
D03*
X17675592D02*
D03*
X17785590D02*
D03*
X17565590Y7320839D02*
D03*
X17675592D02*
D03*
X17785590D02*
D03*
X17565590Y7210837D02*
D03*
X17675592D02*
D03*
X17785590D02*
D03*
X17565590Y7100840D02*
D03*
X17675592D02*
D03*
X17785590D02*
D03*
X19055186Y11655758D02*
D03*
Y11733761D02*
D03*
Y11811759D02*
D03*
X19227190D02*
D03*
Y11733761D02*
D03*
Y11655758D02*
D03*
X6838622Y13686797D02*
D03*
X6896123Y13781798D02*
D03*
X6781122D02*
D03*
X6838622Y13876799D02*
D03*
X18028987Y14045331D02*
D03*
X18128987D02*
D03*
Y13845331D02*
D03*
X18228987D02*
D03*
Y14045331D02*
D03*
Y13945331D02*
D03*
X18128987D02*
D03*
X18028987Y13845331D02*
D03*
Y13945331D02*
D03*
X9788799Y14172484D02*
D03*
X9898801D02*
D03*
X10008798D02*
D03*
X10118801D02*
D03*
X10228803D02*
D03*
X9788799Y14062482D02*
D03*
X9898801D02*
D03*
X10008798D02*
D03*
X10118801D02*
D03*
X10228803D02*
D03*
X9788799Y13952486D02*
D03*
X9898801D02*
D03*
X10008798D02*
D03*
X10118801D02*
D03*
X10228803D02*
D03*
X9788799Y13842482D02*
D03*
X9898801D02*
D03*
X10008798D02*
D03*
X10118801D02*
D03*
X10228803D02*
D03*
X9788799Y13732480D02*
D03*
X9898801D02*
D03*
X10008798D02*
D03*
X10118801D02*
D03*
X10228803D02*
D03*
X16079628Y15872340D02*
D03*
Y15762338D02*
D03*
Y15652342D02*
D03*
Y15542339D02*
D03*
Y15432343D02*
D03*
X15969626Y15872340D02*
D03*
Y15762338D02*
D03*
Y15652342D02*
D03*
Y15542339D02*
D03*
Y15432343D02*
D03*
X15859628Y15872340D02*
D03*
Y15762338D02*
D03*
Y15652342D02*
D03*
Y15542339D02*
D03*
Y15432343D02*
D03*
X15749626Y15872340D02*
D03*
Y15762338D02*
D03*
Y15652342D02*
D03*
Y15542339D02*
D03*
Y15432343D02*
D03*
X15639629Y15872340D02*
D03*
Y15762338D02*
D03*
Y15652342D02*
D03*
Y15542339D02*
D03*
Y15432343D02*
D03*
X18077927Y15732741D02*
D03*
X18187927D02*
D03*
X18077927Y15622739D02*
D03*
X18187927D02*
D03*
X16550763Y17707283D02*
D03*
Y17817285D02*
D03*
Y17927283D02*
D03*
Y18037285D02*
D03*
Y18147282D02*
D03*
X16660767Y17707283D02*
D03*
Y17817285D02*
D03*
Y17927283D02*
D03*
Y18037285D02*
D03*
Y18147282D02*
D03*
X16770763Y17707283D02*
D03*
Y17817285D02*
D03*
Y17927283D02*
D03*
Y18037285D02*
D03*
Y18147282D02*
D03*
X16880765Y17707283D02*
D03*
Y17817285D02*
D03*
Y17927283D02*
D03*
Y18037285D02*
D03*
Y18147282D02*
D03*
X16990762Y17707283D02*
D03*
Y17817285D02*
D03*
Y17927283D02*
D03*
Y18037285D02*
D03*
Y18147282D02*
D03*
D99*
X7992727Y15450806D02*
D03*
Y15550806D02*
D03*
Y15650806D02*
D03*
X7892727D02*
D03*
Y15550806D02*
D03*
Y15450806D02*
D03*
X7792727D02*
D03*
Y15550806D02*
D03*
Y15650806D02*
D03*
X16815366Y14083066D02*
D03*
X16915366D02*
D03*
X17015366D02*
D03*
Y14183066D02*
D03*
X16915366D02*
D03*
X16815366D02*
D03*
Y14283066D02*
D03*
X16915366D02*
D03*
X17015366D02*
D03*
X15068103Y14146107D02*
D03*
X14968103D02*
D03*
X14868103D02*
D03*
Y14046107D02*
D03*
X14968103D02*
D03*
X15068103D02*
D03*
Y13946107D02*
D03*
X14968103D02*
D03*
X14868103D02*
D03*
D100*
X15939998Y10829999D02*
D03*
X15787598D02*
D03*
X15635197D02*
D03*
X16244798Y10677599D02*
D03*
X16168597Y10601399D02*
D03*
X16320998D02*
D03*
Y10753799D02*
D03*
Y10906199D02*
D03*
Y11058599D02*
D03*
X16244798Y10829999D02*
D03*
Y10982399D02*
D03*
X16168597Y10753799D02*
D03*
Y10906199D02*
D03*
Y11058599D02*
D03*
X16092398Y10677599D02*
D03*
Y10829999D02*
D03*
Y10982399D02*
D03*
X16016199Y10601399D02*
D03*
Y10753799D02*
D03*
Y10906199D02*
D03*
Y11058599D02*
D03*
X15939998Y10677599D02*
D03*
Y10982399D02*
D03*
X15863799Y10601399D02*
D03*
Y10753799D02*
D03*
Y10906199D02*
D03*
Y11058599D02*
D03*
X15787598Y10677599D02*
D03*
Y10982399D02*
D03*
X15711398Y10601399D02*
D03*
Y10753799D02*
D03*
Y10906199D02*
D03*
Y11058599D02*
D03*
X15635197Y10677599D02*
D03*
Y10982399D02*
D03*
X15558998Y11058599D02*
D03*
Y10906199D02*
D03*
Y10753799D02*
D03*
Y10601399D02*
D03*
%TF.MD5,9e50910b7d1606a3d3c3610ca4afac6b*%
M02*
