M48
;Layer_Color=9474304
;FILE_FORMAT=4:4
METRIC,LZ
;TYPE=PLATED
T01F00S00C0.1524
T02F00S00C0.2000
T03F00S00C0.2540
T04F00S00C0.3000
T05F00S00C0.3048
T06F00S00C0.3500
T07F00S00C0.8890
T08F00S00C0.9000
T09F00S00C1.3000
T10F00S00C1.6500
T11F00S00C1.8034
T12F00S00C2.3000
T13F00S00C3.2512
T14F00S00C3.3000
;TYPE=NON_PLATED
T15F00S00C2.9972
%
T01
X0040386Y0050165
Y0052197
Y0054102
Y0056134
X0042418
X004445
Y0054102
Y0052197
X0042418
Y0054102
Y0050165
X004445
X0046482
X0048514
X0050546
Y0052197
Y0054102
X0048514
Y0052197
X0046482
Y0054102
Y0056134
Y0058166
X004445
X0042418
X0040386
Y0060198
Y0062103
X0042418
Y0060198
X004445
Y0062103
Y0064135
X0042418
X0040386
X0046482
X0048514
X0050546
Y0062103
Y0060198
X0048514
Y0062103
X0046482
Y0060198
X0048514Y0058166
X0050546
Y0056134
X0048514
X0052578
X005461
X0056642
Y0054102
Y0052197
X005461
Y0054102
X0052578
Y0052197
Y0050165
X005461
X0056642
Y0058166
X005461
X0052578
Y0060198
Y0062103
X005461
Y0060198
X0056642
Y0062103
Y0064135
X005461
X0052578
X0058547
Y0062103
Y0060198
Y0058166
Y0056134
X0060579
X0062611
Y0058166
Y0060198
Y0062103
Y0064135
X0064643
X0066675
Y0062103
Y0060198
X0064643
Y0062103
Y0058166
X0066675
Y0056134
Y0054102
Y0052197
Y0050165
X0064643
X0062611
Y0052197
Y0054102
X0064643
Y0052197
Y0056134
X0060579Y0054102
Y0052197
X0058547
Y0054102
Y0050165
X0060579
Y0058166
Y0060198
Y0062103
Y0064135
X01307512Y00556349
X0131198Y0055977
X01325086Y00555594
X0132898Y005588
X01333171Y00571977
X01336461Y00576175
X01343003Y00568522
X01347236Y00571737
X0135128Y0049911
X0129589Y00509075
X01291065Y00506373
X01287135Y00496217
X01282348Y00492477
X01274674Y00496836
X01269822Y0049462
X01257533Y00500788
X01252837Y00497455
X01249778Y00488623
X01248278Y00482905
X01257945Y00471994
X0126238Y0047498
X01274304Y00469603
X01278691Y00472636
X01254952Y0046398
X01258221Y00458917
X01231358Y00459702
X01226109Y00456533
X01265071Y00426196
X01265008Y00420148
X01288173Y00420148
X01288208Y00414187
X01320437Y00416131
X01327139
X01341095Y00416067
X01339179Y00421671
X01397542Y00441325
X01409379Y00431165
X01416629Y00431132
X01425944Y00453656
X0142748Y0046101
X0142621Y0046863
Y0051435
X01397
X01393962Y00536808
X01400175Y00541682
X01386098Y00542934
X0138047Y00545836
X01477621Y00550829
X0148449Y00551054
X0158242Y0055499
X01592589Y00537338
X01592589Y00510668
X0158242Y0049149
X0162814Y00491236
Y0049657
Y0055245
X01628246Y00558037
X01746123Y0056007
X01751457
X0176022Y0045466
X0173736Y0045593
X0170815
X0169926
Y0046482
Y0047371
X0170815
Y0046482
Y0044577
X0169926
Y0043688
Y0042799
X0170815
Y0043688
X0168275
X0167386
Y0042799
X0168275
Y0044577
X0167386
X0165481
X0164592
Y0043688
Y0042799
X0165481
Y0043688
X0156337Y004318
Y0042291
X0155194
Y004318
X0153924
Y0042291
X0152654
Y004318
X0151384
Y0042291
X0147701Y0043307
X0146685Y0042672
X0155702Y0044704
X0156591
X0177546Y0047371
Y004826
X0182372Y0076073
Y0076708
X01763786Y00964394
Y00984714
X01744736Y00964394
X01671032Y00995593
Y01015913
X01650712
X01631662
Y00995593
X01650712
X01611342
Y01015913
X01686951Y010576
X0168783Y0109474
Y011049
X0150622Y0109728
Y0111633
X014859
Y0109728
Y0107696
Y0105664
X0146558
X0144526
X0142494
Y0103632
X0140462
X013843
Y01016
Y0099568
Y0097536
Y0095504
X0140462
X0142494
Y0097536
X0144526
Y0099568
X0142494
Y01016
X0140462
Y0099568
Y0097536
X0146558Y0099568
Y01016
X014859
Y0103632
X0146558
X0144526
Y01016
Y0107696
X0146558
Y0109728
Y0111633
X0144526
Y0109728
Y0113665
X0146558
X014859
X0150622
Y0107696
Y0105664
Y0103632
X01538822Y00930268
Y00909948
Y00890898
Y00870578
X01559142
Y00890898
Y00909948
Y00930268
X0156652Y00826389
X015462
X0152588
Y00806069
Y00787019
Y00766699
Y00746379
X0150556
X0148524
Y00766699
X0150556
Y00787019
Y00806069
X0148524
Y00787019
Y00826389
X0150556
X015462Y00806069
Y00787019
X0156652
Y00806069
Y00766699
X015462
Y00746379
X0156652
X0173609Y0074676
Y00762
X0135882Y00826062
X013385
X0131818
X0129786
Y00846382
Y00865432
X0131818
Y00846382
X013385
Y00865432
Y00885752
X0131818
X0129786
X0135882
Y00865432
Y00846382
X0136398Y0095504
X0134366
X0132334
Y0097536
Y0099568
X0134366
X0136398
Y0097536
X0134366
X0130302
Y0099568
X0122936Y0100457
Y0098425
X0120904
Y0096393
X0122936
Y0094361
X0120904
Y0100457
Y0102489
X0122936
Y0104521
Y0106553
Y0108585
Y011049
Y0112522
X0120904
Y011049
Y0108585
Y0106553
Y0104521
X0112251Y0105
Y0107
Y0109
X0110251
X0106251
X0103251
Y0108
Y0107
X0104251
X0103251Y0106
Y0105
X0101251Y0105
Y0106
Y0107
X0102251
Y01060028
Y0108
X0101251
Y0109
X0102251
Y0111
X0101251
Y0112
X0102251
X0103251
X0104251
X0103251Y0113
X0102251
X0101251
X0099249Y0113
Y0112
Y0111
X0098249
X0097249
Y0112
Y0113
X0098249
Y0112
Y0109
X0097249
Y0108
Y0107
X00972488Y01060028
X0098249
Y0107
Y0108
X0099249
Y0107
Y0106
Y01050001
X0098249
X00972488Y01050001
X009725Y0103999
X009825
X009825Y0102999
Y0102
X00972515Y01020011
X009725Y0102999
X009725Y0101
X009825Y0100999
X009925Y0101
X009925Y0102
X009925Y01039989
X01002511Y0103999
X0101251Y0104
X0102251
X010325Y01030005
X0103251Y0102
X010425
X0104251Y0103
X010525Y01030005
X0106251Y0103
X010625Y0102
Y01
X0105251
X010525Y0099
X0104251
X0103251
Y0098
X0101251
Y01
Y0101
X010225Y0101
Y0102
X0103251Y0101
Y01000001
X010725Y01
Y0099
X0106251Y00990001
X0107251Y0098
Y0097
X0105251
Y0098
X0109251
Y0097
X0110251Y0097
X0113251
X0112251Y0099
Y0101
X0110251
Y0103
Y0104
X0112251Y0103
X0108251Y0102
Y01
X0109251Y00990001
X0107251Y0101
Y0104
X0108251Y0105
Y0107
X0105251Y0106
X0104251Y0104
X0103251Y0111
X0103249Y0114
X010425Y0114001
X0107251Y0112
X0109251
X010925Y0113001
X0110251Y0114
X0112251
Y0112
X0099249Y0114
X0097249
X0099249Y0109
X009825Y0097999
X009725Y0097999
Y0096999
X010033Y0092583
X0102362
X010033Y0090551
X0098298
Y0088519
X010033
Y0086487
Y0084455
Y0082423
X0098298
Y0084455
Y0086487
Y0080391
X010033
X01073966Y00806201
Y00825251
Y00842067
Y00861117
X01073449Y0087765
Y008967
X01093769
Y0087765
X01094286Y00861117
Y00842067
Y00825251
Y00806201
X0096393Y0080391
Y0082423
Y0084455
Y0086487
Y0088519
X0094361
Y0090551
X0096393
X0094361Y0086487
Y0084455
Y0082423
Y0080391
X009425Y0097999
X009325Y0098999
X009225Y00989991
X009225Y0099999
X009425
X009625Y0099999
X009625Y00990025
X009625Y0097999
Y0096999
X009625Y0101
X009625Y0101999
X00962501Y01030025
X0096251Y0105
X0096249Y0107
X009525Y0108
X0095251Y0109
X0094251Y0109
X0093259Y0109
X0093251Y011
X0092259Y01099921
X0092255Y0109008
X0091251Y0109
Y0108
X0090247Y01080028
X0089251Y0107
X008925Y0106
X008825
X008725Y01059991
X0086751Y01045001
Y0103502
X00892509Y0103002
X0090251Y0104
X0090251Y01050001
X0089251Y0105
X0091251Y0105
X0092251Y0104
X0091251Y0103
Y0102
X0090251Y0102
X0089251Y01010015
X0089251Y01000001
X008825Y01
X00892455Y0099
X0088251Y0098
X0088251Y0097
X008925Y0096999
X009025
Y0097999
X008725Y0098
X0086751Y01075
X0086055Y01095001
X008825Y0109
X00892479Y0109008
X0089255Y01099921
X0089251Y01110001
X0090251Y0111
X0091249Y0112
X00912638Y01130089
X0092249Y0113
X0093249Y0112
X009525Y0112
X009625Y0111001
X0096251Y011
X00962516Y01090007
X0095251Y011
X0094251Y011
X009425Y0107999
X0093247Y01080034
X00932549Y0107
X0092251
X0093251Y0106
X0093251Y0105
X0093251Y01030001
X0094251Y0103
X009425Y0102
X0091251Y011
X0090249Y0113
Y0114
X0088249
X0088251Y01120001
X0096249Y0113
X006575Y01028
X006495
Y0102
Y01012
X006335
Y0102
X006175Y01012001
X006175Y01004
X006095
X005935Y01004
X005935Y01012001
X005935Y0102
X00593501Y01028
X00577501Y01028
X005775Y0102
X005775Y01012001
X005775Y01004
Y00972
X005855Y0098
X005935
Y00972
X006015
Y0098
X006095
Y00972
X006175Y00972
Y0098
X006255Y00972
X006335
Y0098
X006495Y00972
Y00964
X006415Y00964
X006375Y0095365
X0063175Y00953512
X00624715
X0062425Y00947
X00634837
X0063009Y009379
X0060088
X0058818
X0059453Y0094679
X0060596
X00606314Y00954568
X00613297Y00954459
X006015Y00964
X005855
X005855Y00956
X0058183Y0094679
X0059436Y0092329
Y0091186
X0059961Y008998
X0058056
X0058945Y0088202
X00637635Y00875353
X00655415
X00646525Y00898213
X00637635
X006575Y00964
Y00972
X006575Y0098
X006215Y010371
X006135
X006055
X0058039Y0108712
X0056642Y0108966
X0054991
X0053721Y0108585
Y0107569
Y0106426
Y0105283
X00532935Y01031724
X005295Y01020001
X005375Y0102
X005455Y0102
X005455Y01012001
X00537547Y01012048
X00553423Y01003999
X005695Y01004
X005695Y01012
X005615
X005615Y0102
X005695Y01020001
X00569579Y01031862
X0056024Y010371
X0054806Y0103257
X005455Y0098
Y00972
X005375Y00972
X005375Y00964
X00545635
X0054246Y009531
X00554816Y0095288
X00568749Y00954159
X005695Y00972
X005615
X005577Y009379
X0055135
X00529194Y009636
X00428033Y00962032
Y00970895
Y0097981
Y00988675
Y0099759
Y01006455
Y0101537
Y01024286
Y0103315
Y01042015
X00428033Y0105093
X00428033Y01059795
X00428033Y0106871
Y010776
Y0108649
X0040403Y01103
X0038625
X0036847
Y010776
X0038625
Y010522
X0036847
X0035069
Y010268
X0036847
X0038625
Y010014
X0036847
X0035069
Y00976
X0036847
X0038625
Y009506
X0036847
X0035069
Y009252
X0036847
X0038625
X00428033Y0092647
X0042802Y0093536
X00428033Y0094425
Y0095314
Y00917555
X0031386Y009252
X0029608
X002783
X0026052
Y009506
X002783
X0029608
X0031386
Y00976
X0029608
X002783
X0026052
Y010014
X002783
X0029608
X0031386
Y010268
X0029608
X002783
X0026052
Y010522
X002783
X0029608
X0031386
Y010776
X0029608
X002783
X0026052
Y01103
X002783
X0029608
Y011284
X002783
X0026052
X0036847
X0038625
X0040403
X0035069Y010776
X0056007Y0107569
X0057167Y0088202
X00569055Y00865193
X00551275
X0040403Y011538
X0038625
X0036847
X0040403Y011792
X0041656Y0122809
X0043688
Y0124841
X0041656
Y0126873
X0043688
X004572
X0047752
Y0124841
Y0122809
X004572
Y0124841
Y0128905
X0047752
Y0130937
Y0132969
X004572
X0043688
X0041656
Y0130937
Y0128905
X0043688
Y0130937
X004572
X0049784
X0051816
X0053848
Y0132969
X0051816
X0049784
Y0137414
Y0139446
X0051816
X0053848
Y0137414
X0051816
X0047752
X004572
X0043688
Y0139446
X004572
X0047752
X0041656
X0039624
X0037592
X003556
Y0137414
X0033528
X0031496
Y0139446
X0033528
X0029464
X0027432
Y0137414
Y0135382
Y013335
Y0131318
Y0129286
Y01272525
Y01252205
X002783Y011538
X0026052
X0029608
X0037592Y0126873
Y0128905
X0039624
Y0126873
Y0130937
X0037592
Y0132969
X0039624
Y0137414
X0041656
X0037592
X0029464
Y01414795
X0031496
Y01435115
Y01455435
Y01475755
Y01496075
Y01516395
Y01536715
X0029464
Y01516395
X0027432
Y01536715
Y01496075
Y01475755
Y01455435
Y01435115
X0029464
Y01455435
Y01475755
Y01496075
X0027432Y01414795
X0050546Y01477025
X0052578
X005461
Y01497345
Y01517665
Y01537985
X0052578
X0050546
Y01517665
Y01497345
X0052578
Y01517665
X00655342Y01376562
Y01369726
X00662242Y01372686
Y0136659
Y01357954
Y01351858
X00655342Y01351651
Y01357912
X00694802Y01286784
X00715122
Y01266464
X00735442
X00754492
Y01286784
X00735442
X00774812
Y01266464
X00694802
X0091059Y0127508
Y012954
X0093091
X0095123
Y0127508
X0093091
X0093249Y0123
Y0122
X0092249
Y0123
X0091249Y0123
Y0122
X0090249
Y0123
X0089249
Y0122
X0088251Y0122
X0091249Y0121
Y012
X0092249
X0093249
Y0121
X00922603Y0121
X0093249Y0119
Y0118
X0092249
X0091251Y0119
X0089251
X0090249Y0118
X0088249
Y0116
X0090249
X0092249Y0115
X0094249
X0095249
X0096249Y0117
X0096249Y0118
X00962503Y01189943
X0095249Y0119
Y0118
Y012
X0096249
Y0121
X0095249
X0095249Y0122
X0096249
Y01229994
X0095249Y0123
X00942503
X0094249Y0122
X0086614Y0141605
Y0143637
X0084582
Y0141605
X008255
X0080518
X0078486
Y0143637
Y0145669
Y0147701
Y0149606
X0080518
Y0147701
X008255
Y0149606
X0084582
Y0147701
Y0145669
X0086614
Y0147701
Y0149606
X008255Y0145669
X0080518
Y0143637
X008255
X0097028Y012954
X009906
Y0127508
X0101092
X0103124
X0105029
X0107061
Y012954
X0109093
X0111125
Y0127508
X011303
X0109093
X0109251Y0123
Y0122
Y0121
X0108251
X0107251
X0106251
Y0122
X0107251
Y0123
X0106251
X0108251
Y0122
X010825Y0120001
X0108251Y0119
Y0118
X0107251
X0106251
Y0119
X0105251
Y012
X0104251Y012
X0104251Y0121
X0104251Y0122
Y0123
X010325Y0122001
X010225
X010125Y0121001
X010125Y0120001
Y0119001
X010225Y0119001
Y0120001
X010325
X0103251Y0118
X0104251
X0105251Y0118
Y0117
X0104251Y0117
X0103251Y0117
X0102251Y0117
X0101251
X010125Y0116001
X0101251Y0115
X0102271Y0115
X0103249Y0116
X0104271Y0116
Y0115
X0105251Y0115
X0106251
X0108251
X0110251Y0116
X0112251
X011225Y0118001
X011025
X0109251Y0119
X011225Y0120001
X011125Y0123001
X011325Y0123001
X0120904Y0122555
Y012065
X0122936
Y0122555
Y0124587
X0120904
Y0118618
X0122936
Y0116586
Y0114554
X0120904
Y0116586
X01257788Y01164564
Y01183614
X01278108
Y01164564
X0136144Y013462
X0105029Y012954
X0103124
X0101092
X0097028Y0127508
X0097249Y0123
Y0122
X0098249
Y0121
X0097249
Y012
Y0119
Y0118
Y0116
X0098249Y0117
X0099249Y0118
Y0119
Y0122
Y0123
X0098249Y0123009
X0102251Y0118
X0138176Y013462
X0140081
X0142113
X0144145
X0146177
X0148082
X0154559Y0134747
X0156591
X0158496
X0160528
X016256
Y0132715
Y0130683
X0164592
X0166497
Y0132715
X0164592
Y0134747
X0166497
X0169164Y0134366
Y0136271
X0171831Y0138938
X01730308Y01392056
X01741738
X01753168
Y01405306
X01741738
X0173228
Y01416813
X01741738
X01753168
X0173736Y0133096
X0171831
X0171958Y012827
Y0126238
Y0124333
Y0122301
Y0120269
X0169926
Y0118237
Y0116332
X0171958
Y0118237
X017399
Y0116332
X0175895
Y0118237
Y0120269
X017399
Y0122301
X0175895
Y0124333
X017399
Y0126238
X0175895
Y012827
X017399
X0169926
Y0126238
Y0124333
Y0122301
X015875Y0116332
Y01143
X0156718
Y0116332
X0156591Y0130683
X0158496
X0160528
Y0132715
X0158496
X0156591
X0154559
Y0130683
X0154051Y0143002
X0152019
Y0145034
X0154051
X0156083
X0158115
Y0143002
X0156083
X01629156Y01400463
X01653861Y014224
X0138904Y01427558
X01379495
X01371215
Y01438227
X01379495Y01438149
X0138904Y01438227
Y01416889
X01379495
X01371215
X01392841Y01511378
X01403
Y01521537
X01392841
X01413161
X0142332
Y01511378
X01413161
X01433481
Y01521537
X0144364
X01453801
Y01511378
X01463961
Y01521537
X0144364Y01511378
X01803398Y01505712
X0183134Y0146558
Y0145288
X0184912Y0145034
X0185801
X018669
X0187452
X0188341
X018669Y0146558
X0185801
X0184912
X0184023Y0143891
Y0142621
X0178435Y01340439
X017653
X01943729Y01374726
X01964049
X01984369
X01970368Y01502926
X01950048
Y01523246
X01970368
X01929728
Y01502926
X0193167Y0122428
X0193929
X0194564Y0122809
X0192405Y0122428
X0191643
X0190881
X0190373Y0122809
Y0123571
Y0124333
X0193167Y0163576
Y0165608
Y0167386
X0195199
Y0165608
X0197231
Y0167386
Y0169418
X0195199
X0193167
X0191135
X018923
Y0167386
X0191135
X0187198
X0185166
X0183134
Y0169418
X0181102
X017907
X0177038
Y0167386
X017907
X0181102
X0185166Y0169418
X0187198
X01882394Y017145
X0195199Y0163576
X0197231
X01788022Y01617754
X0178181Y0192151
X0180213
X0182245
X0184277
X0186309
X0188341
X0188976Y01867535
X0176149Y0192151
X0174117
X0172085
X0166116
X0164084
X0162052
X0160147
X0158115
X0156083
X0154051
X0152019
X0149987
X0147955
X0145923
X0143891
X0141859
X0139827
X0137795
X01386661Y01769711
Y01759551
X01376501
Y01749391
X01386661
Y01739231
Y01729071
X01396821
X01406981
X01417141
Y01739231
X01406981
X01396821
X01376501
X01366341
Y01729071
X01376501
X0136652Y0169418
Y0167386
X0138684
Y0169418
X0140716
X0142748
X014478
Y0167386
X0142748
X0140716
X0146812
X0148844
X0150876
X0152781
X0154813
X0156845
Y0169418
X0158877
X0160909
X0162814
X0164846
Y0167386
X0162814
X0160909
X0158877
X0154813Y0169418
X0152781
X0150876
X0148844
X0146812
X01467941Y01729071
X01457781
X01447621
Y01739231
X01457781
X01467941
X01478101
Y01729071
X01488261
Y01739231
X01437461
X01427301
Y01729071
X01437461
X0148336Y0155303
X0149352
Y0154287
X0148336
X0166878Y0167386
X016891
X0170942
X0172974
X0175006
Y0169418
X0172974
X0170942
X016891
X0166878
X01664208Y01839468
X016891Y01874266
X0169799Y01873758
X0131826Y0188087
Y0186182
X0129794
Y0188087
Y0190119
X0127762
X012573
Y0192151
X0123698
X0121793
X0119761
X0117729
Y0190119
Y0188087
Y0186182
Y018415
X0119761
X0121793
X0123698
X012573
Y0186182
Y0188087
X0123698
Y0186182
X0121793
Y0188087
X0119761
Y0186182
Y0190119
X0121793
X0123698
X0127762Y0188087
Y0186182
Y018415
X0129794
X0131826
Y0190119
Y0192151
X0133731
X0135763
X0129794
X0127762
X0115697
Y0190119
X0113665
X0111633
Y0188087
Y0186182
X0113665
Y0188087
X0115697
Y0186182
Y018415
X0113665
X0111633
X0109601
X0107569
X0105537
Y0186182
Y0188087
X0107569
Y0186182
X0109601
Y0188087
Y0190119
Y0192151
X0111633
X0113665
X0107569
X0105537
Y0190119
X0107569
X01082872Y0168275
X01063822
Y0166243
X01082872
X01103192
Y0168275
X0117094Y0169291
Y0167259
Y0165354
Y0163322
Y016129
Y0159512
Y015748
X0118999
X0119126Y0159512
Y016129
Y0163322
Y0165354
Y0167259
Y0169291
X0115062Y0159512
X0113157
X0111125
X0109093
X0107188
Y015748
X0109093
X0111125
X0113157
X0115062
X01050068
X01031018
X01010698
X00984773Y01725007
X013462Y0169418
Y0167386
X00866314Y01725007
Y01750407
Y01764037
X0080137Y0176403
Y0174371
X0078105
Y0172339
Y0170434
X0080137
Y0172339
Y0168402
X0078105
X0076073
Y016637
Y0170434
Y0172339
Y0174371
Y0176403
X0078105
Y0178435
Y018034
X0080137
Y0178435
Y0182372
X0078105
X0076073
X0074041
X0072009
Y0184404
Y0186436
Y0188341
Y0190373
X0074041
X0076073
Y0188341
Y0186436
X0074041
Y0188341
Y0184404
X0076073
X0078105
X0080137
X0082169
Y0186436
Y0188341
X0080137
Y0186436
X0078105
Y0188341
Y0190373
Y0192405
X0076073
X0074041
X0072009
X0080137
X0082169
Y0190373
X0080137
X0084201
X0086233
X0088265
Y0188341
Y0186436
X0086233
Y0188341
X0084201
Y0186436
Y0184404
X0086233
X0088265
Y0192405
X0086233
X0084201
X0076073Y018034
Y0178435
X0074041Y018034
X00763022Y01592177
X00795773
X005461Y01598945
Y01619265
Y01639585
Y01659905
Y01680225
Y0170053
Y0172085
Y0174117
Y0176149
Y0178181
Y0180213
Y0182245
Y0184277
Y0186309
Y0188341
X0052578
Y0186309
X0050546
Y0184277
Y0182245
X0052578
Y0184277
Y0180213
Y0178181
Y0176149
X0050546
Y0178181
Y0180213
Y0174117
Y0172085
Y0170053
Y01680225
Y01659905
Y01639585
X0052578
Y01659905
Y01680225
Y0170053
Y0172085
Y0174117
Y01619265
Y01598945
Y01578625
X005461
Y01558305
X0052578
X0050546
Y01578625
Y01598945
Y01619265
X0031496Y01617995
Y01638315
Y01658635
Y01678955
Y0169926
Y0171958
Y017399
Y0176022
Y0178054
Y0180086
Y0182118
Y018415
Y0186182
Y0188214
X0029464
X0027432
Y0186182
X0029464
Y018415
Y0182118
Y0180086
X0027432
Y0178054
Y0176022
Y017399
X0029464
Y0171958
Y0169926
Y01678955
Y01658635
Y01638315
Y01617995
X0027432
Y01597675
Y01577355
Y01557035
X0029464
X0031496
Y01577355
Y01597675
X0029464
Y01577355
X0027432Y01638315
Y01658635
Y01678955
Y0169926
Y0171958
X0029464Y0176022
Y0178054
X0027432Y0182118
Y018415
X0050546Y0188341
X0072009Y0194437
Y0196342
X0074041
Y0194437
X0076073
Y0196342
Y0198374
X0074041
X0072009
X0078105
X0080137
X0082169
Y0196342
Y0194437
X0080137
Y0196342
X0078105
Y0194437
X0084201
Y0196342
X0086233
Y0194437
X0088265
Y0196342
X0090297
X0092329
Y0198374
X0090297
X0088265
X0086233
X0084201
X0105537Y019812
X0107569
X0109601
X0111633
Y0196088
Y0194183
X0113665
Y0196088
X0115697
Y0194183
X0117729
Y0196088
Y019812
X0119761
X0121793
X0123698
X012573
Y0196088
Y0194183
X0123698
Y0196088
X0121793
Y0194183
X0119761
Y0196088
X0115697Y019812
X0113665
X0109601Y0196088
Y0194183
X0107569
Y0196088
X0105537
Y0194183
X0127762
Y0196088
X0129794
Y0194183
X0131826
X0133731
Y0196088
X0131826
Y019812
X0133731
X0135763
Y0196088
Y0194183
X0129794Y019812
X0127762
X0137795
X0139827
X0141859
X0143891
Y0196088
Y0194183
X0145923
Y0196088
X0147955
Y0194183
X0149987
Y0196088
Y019812
X0147955
X0145923
X0152019
X0154051
Y0196088
Y0194183
X0152019
Y0196088
X0156083
Y0194183
X0158115
Y0196088
X0160147
Y0194183
X0162052
Y0196088
X0164084
Y0194183
X0166116
Y0196088
Y019812
X0168148
X017018
X0172085
X0174117
Y0196088
Y0194183
X0172085
X017018
Y0196088
X0172085
X0168148
Y0194183
X0164084Y019812
X0162052
X0160147
X0158115
X0156083
X0141859Y0196088
Y0194183
X0139827
Y0196088
X0137795
Y0194183
X0176149
Y0196088
Y019812
X0178181
Y0196088
Y0194183
X0180213
Y0196088
X0182245
Y0194183
X0184277
Y0196088
Y019812
X0182245
X0180213
X0186309
X0188341
Y0196088
Y0194183
X0186309
Y0196088
T02
X0176817Y007062
X0177917
Y007172
Y007282
X0176817
Y007172
Y007392
X0177917
X0179017
Y007282
Y007172
Y007062
Y007502
Y007612
Y007722
Y007832
Y007942
X0177917
X0176817
Y007832
X0177917
Y007722
X0176817
Y007612
X0177917
Y007502
X0176817
X00683862Y0136868
X00689612Y0137818
X00678112
X00683862Y0138768
X0097888Y01384248
Y01395249
Y01406248
Y01417248
X0098988
X0100088
X0101188
X0102288
Y01406248
Y01395249
X0101188
Y01406248
X0100088
X0098988
Y01395249
X0100088
Y01384248
X0098988
Y01373248
X0100088
X0101188
Y01384248
X0102288
Y01373248
X0097888
X01807793Y01562274
Y01573274
X01818793
Y01562274
X01607963Y01565234
Y01576234
Y01587234
X01596963
X01585963
Y01576234
X01596963
Y01565234
X01585963
Y01554234
X01596963
Y01543234
X01585963
X01574963
Y01554234
X01563963
Y01543234
Y01565234
X01574963
Y01576234
X01563963
Y01587234
X01574963
X01607963Y01554234
Y01543234
X01655076Y01770728
Y01781729
Y01792728
Y01803728
Y01814728
X01666077
Y01803728
X01677076
Y01814728
X01688076
Y01803728
X01699076
Y01814728
Y01792728
X01688076
Y01781729
X01699076
Y01770728
X01688076
X01677076
X01666077
Y01781729
Y01792728
X01677076
Y01781729
T03
X015559Y0106014
X0157114
X0158638
X0160162
X0161686
X0162448Y0106776
X016321Y0106014
Y0107538
Y0109062
Y0110586
X0162448Y0109824
Y01083
X0161686Y0107538
Y0109062
Y0110586
X0160924Y0109824
Y01083
X01594
X0157876
X0156352
X0157114Y0107538
X0158638
X0160162
X0160924Y0106776
X01594
X0157876
X0156352
X015559Y0107538
Y0109062
X0157114
X0158638
X0160162
Y0110586
X01594Y0109824
X0158638Y0110586
X0157876Y0109824
X0157114Y0110586
X0156352Y0109824
X015559Y0110586
T04
X01905519Y01165576
Y01173376
Y01181176
X01922719
Y01173376
Y01165576
X01822899Y01384533
X01812899
Y01394533
Y01404533
X01802899
Y01394533
Y01384533
X01822899Y01394533
Y01404533
T05
X0148681Y01394611
Y01404611
Y01414611
X0149681
X0150681
Y01404611
X0149681
Y01394611
X0150681
X01681537Y01408307
X01691537
X01701537
Y01418307
X01691537
X01681537
Y01428307
X01691537
X01701537
X00799273Y01545081
X00789273
X00779273
Y01555081
Y01565081
X00789273
Y01555081
X00799273
Y01565081
T06
X0137368Y0046617
Y0047687
Y0048757
X0138438
X0139508
Y0047687
X0138438
Y0046617
X0139508
T07
X0184254Y0045974
Y004826
X018908Y0049276
Y0051308
Y005334
Y0055372
X0190858Y0056388
Y0054356
Y0052324
Y0050292
X0184254Y0057404
Y005969
T08
X0183768Y002288
X0185768
Y002538
X0183768
T09
X0194056Y007128
Y007628
Y008128
Y008628
T10
X0192913Y01430887
X0195453Y01456287
X0192913Y01481687
X0197993
Y01430887
Y01547727
X0195453Y01573127
X0192913Y01598527
X0197993
X0192913Y01547727
X01927606Y01719326
X01978406
Y01770126
X01927606
X01953006Y01744726
Y01861566
X01927606Y01886966
X01978406
Y01836166
X01927606
T11
X0179732Y009828
Y010248
Y010668
X0185232
Y010248
Y009828
T12
X0188468Y001811
Y003015
T13
X0193398Y0046482
Y0059182
T14
X019558Y0004572
X0004572
X011744Y00924704
X008244Y01274704
X0004572Y019558
X019558
T15
X0192532Y009828
Y010668
M30
