M48
;Layer_Color=9474304
;FILE_FORMAT=4:4
METRIC,LZ
;TYPE=PLATED
T01F00S00C0.1524
T02F00S00C0.2000
T03F00S00C0.2540
T04F00S00C0.3000
T05F00S00C0.3048
T06F00S00C0.3500
T07F00S00C0.8890
T08F00S00C0.9000
T09F00S00C1.3000
T10F00S00C1.6500
T11F00S00C1.8034
T12F00S00C2.3000
T13F00S00C3.2512
T14F00S00C3.3000
;TYPE=NON_PLATED
T15F00S00C2.9972
%
T01
X01778Y000254
Y000508
Y000762
X01802978Y00076138
X018034Y000508
X018288
Y000254
X018034
X018288Y000762
X01752178Y00076138
X017272Y000762
Y000508
X017018
X016764
Y000254
X017018
X017272
X017526
Y000508
X01701378Y00076138
X016764Y000762
X01650578Y00076138
X016256Y000762
Y000508
X016002
Y000254
X015748
X015494
X01524
Y000508
Y000762
X01548978Y00076138
X015494Y000508
X015748
Y000762
X01599778Y00076138
X01651Y000508
Y000254
X016256
X014986
X014732
Y000508
Y000762
X01498178Y00076138
X014986Y000508
X014478
Y000254
X014224
X01397
Y000508
X013716
Y000762
X01396578Y00076138
X014224Y000762
X01447378Y00076138
X014224Y000508
X013716Y000254
X013462
X013208
Y000508
Y000762
X01345778Y00076138
X013462Y000508
X012954
Y000254
X0127
X012446
X012192
Y000508
Y000762
X01244178Y00076138
X012446Y000508
X0127
Y000762
X01294978Y00076138
X01193378
X011684Y000762
Y000508
Y000254
X011938
Y000508
X01143
Y000254
X011176
X010922
Y000508
Y000762
X01117178Y00076138
X01142578
X011176Y000508
X010668
Y000254
X010414
X01016
Y000508
X009906
Y000762
X01015578Y00076138
X010414Y000762
X01066378Y00076138
X010414Y000508
X009906Y000254
X009652
X009398
Y000508
Y000762
X00964778Y00076138
X009652Y000508
X009144
Y000254
X00889
X008636
X008382
Y000508
Y000762
X00863178Y00076138
X008636Y000508
X00889
Y000762
X00913978Y00076138
X00812378
X007874Y000762
Y000508
Y000254
X008128
Y000508
X00762
Y000254
X007366
X007112
Y000508
X006858
X006604
X00635
Y000254
X006604
X006858
Y000762
X00710778Y00076138
X007366Y000762
X00761578Y00076138
X007366Y000508
X00659978Y00076138
X00635Y000762
X00609178Y00076138
X005842Y000762
Y000508
Y000254
X006096
Y000508
X00607655Y00284039
X00587335
Y00304359
Y00324679
Y00344999
X00607655
Y00324679
Y00304359
X00798155Y00305629
X00818475
X00838795
Y00325949
Y00346269
X00818475
Y00325949
X00798155
Y00346269
X00567015Y00344999
Y00324679
Y00304359
Y00284039
X00558378Y00076138
X005334Y000762
Y000508
X00508
X004826
Y000254
X00508
X005334
X005588
Y000508
X00507578Y00076138
X004826Y000762
X00456778Y00076138
X004318Y000762
Y000508
X004064
Y000254
X00381
X003556
X003302
X003048
X002794
Y000508
Y000762
X00304378Y00076138
X003048Y000508
X003302
Y000762
X00355178Y00076138
X003556Y000508
X00381
Y000762
X00405978Y00076138
X004572Y000508
Y000254
X004318
X00254
Y000508
X002286
X002032
Y000254
X002286
Y000762
X00253578Y00076138
X00202778
X002032Y001016
Y00127
Y001524
Y001778
Y002032
Y002286
Y00254
Y002794
X001778
X00177738Y00254422
X001778Y002286
X00177738Y00203622
X00178407Y00178933
Y00153533
Y00128133
Y00102733
X00177985Y00077271
X00178407Y00051933
Y00026533
X00177738Y00305222
X001778Y003302
X002032
Y003048
X001524
Y002794
X00127
Y00254
X001524
Y002286
Y002032
Y001778
X00127
X001016
Y002032
X00127
Y002286
X001016
X000762
X00076138Y00203622
Y00178222
X000508Y001778
X000254
Y002032
Y002286
X000508
Y002032
Y00254
X000254
Y002794
X000508
X000762
X00076138Y00254422
X001016Y00254
Y002794
Y003048
X00127
Y003302
X001524
X001016
X000762
X00076138Y00305222
X000508Y003048
Y003302
X000254
Y003048
Y003556
X000508
Y00381
Y004064
X000254
Y004318
Y004572
Y004826
X000508
X000762
X00076138Y00457622
X000508Y004572
Y004318
X000762
X00076138Y00406822
X001016Y004064
Y004318
Y004572
Y004826
X00127
Y004572
Y004318
X001524
Y004064
X00127
Y00381
X001524
Y003556
X00127
X001016
Y00381
X000762
X00076138Y00356022
X000254Y00381
Y00508
X000508
Y005334
Y005588
Y005842
X000254
Y005588
Y005334
X000762
X00076138Y00508422
X001016Y00508
Y005334
Y005588
Y005842
X000762
X00076138Y00559222
Y00610022
X000762Y00635
X000508
X000254
Y006096
X000508
X001016
X00127
Y005842
Y005588
Y005334
X001524
Y00508
Y004826
Y004572
X00127Y00508
X001524Y005588
Y005842
Y006096
Y00635
Y006604
Y006858
Y007112
Y007366
X00127
X001016
Y007112
X00127
Y006858
Y006604
Y00635
X001016
Y006604
Y006858
X000762
X00076138Y00660822
X000508Y006604
X000254
Y006858
Y007112
X000508
Y007366
X000762
X00076138Y00711622
X000508Y006858
X000254Y007366
X001778
X00177738Y00711622
X002032Y007112
Y007366
Y006858
X001778
X00177738Y00660822
X002032Y006604
Y00635
Y006096
Y005842
Y005588
Y005334
X001778
X00177738Y00508422
X001778Y004826
X00177738Y00457622
X001778Y004318
X00177738Y00406822
X002032Y004064
Y004318
Y004572
Y004826
Y00508
X00177738Y00559222
X001778Y005842
X00177738Y00610022
X001778Y00635
Y00381
X00177738Y00356022
X002032Y003556
Y00381
X00567015Y00385639
Y00365319
Y00405959
Y00426279
Y00446599
Y00466919
Y00487239
Y00507559
Y00527864
Y00548185
Y00568504
Y00588825
Y00609145
Y00629464
Y00649784
Y00670105
Y00690424
Y00710744
X00587335
Y00690424
Y00670105
Y00649784
X00607655
Y00670105
Y00690424
Y00710744
Y00629464
X00587335
Y00609145
Y00588825
Y00568504
Y00548185
X00607655
Y00568504
Y00588825
Y00609145
Y00527864
Y00507559
X00587335
Y00527864
Y00487239
X00607655
Y00466919
X00587335
Y00446599
Y00426279
Y00405959
Y00385639
Y00365319
X00607655
Y00385639
Y00405959
Y00426279
Y00446599
X00798155Y00447869
Y00468189
X00818475
Y00447869
Y00427549
X00838795
Y00407229
X00818475
X00798155
Y00427549
Y00386909
Y00366589
X00818475
X00838795
Y00386909
X00818475
X00838795Y00447869
Y00468189
Y00488509
Y00508829
Y00529134
Y00549454
X00818475
X00798155
Y00569775
Y00590094
X00818475
X00838795
Y00569775
X00818475
Y00610415
X00798155
Y00630734
Y00651055
Y00671375
Y00691694
Y00712014
X00818475
Y00691694
Y00671375
X00838795
Y00691694
Y00712014
Y00651055
Y00630734
X00818475
Y00651055
X00838795Y00610415
X00818475Y00529134
Y00508829
X00798155
Y00529134
Y00488509
X00818475
X00976884Y00615814
X00997204
X01017524
X01037082
X01057402
X01077722
X01098804Y00615442
X01119124
X01139444
X01160272
X01180592
X01180595Y00635271
Y00655591
Y00675911
X01200915
Y00655591
Y00635271
X01200912Y00615442
Y00595122
X01180592
X01127506Y00638556
X01107186
X01086866
Y00658876
X01107186
X01127506
X01065784Y00659248
Y00638928
X01045464
X01025144
Y00659248
X01045464
X01307512Y00556349
X01312699Y00560545
X0132898Y005588
X01324538Y00554081
X01333171Y00571977
X01339214Y00569203
X01347236Y00571737
X01356008Y00572119
X0135128Y0049911
X01296205Y005107
X01291065Y00506373
X01289928Y00493012
X01282348Y00492477
X01275563Y00499307
X01269822Y0049462
X01260346Y00499331
X01252837Y00497455
X01249778Y00488623
X01252277Y00482816
X01249778Y00471994
X01257945
X01254549Y00464479
X01258221Y00458917
X01274304Y00469603
X01282896
X01288208Y00414187
X01288046Y00407486
X01264923Y00419715
X01265071Y00426196
X01320437Y00416131
X01327656Y00418102
X01339208Y00415568
X01339179Y00421671
X01307338Y00532638
X01231358Y00459702
X01226109Y00456533
X01397542Y00441325
X01409379Y00431165
X01416629Y00431132
X01425944Y00453656
X0142748Y0046101
X0142621Y0046863
Y0051435
X01397
X01393962Y00536808
Y00542934
X01386098
Y00550074
X01477621Y00550829
X0148449Y00551054
X0158242Y0055499
X01592589Y00537338
X01592589Y00510668
X0158242Y0049149
X0162814Y00491236
Y0049657
Y0055245
X01628246Y00558037
X01746123Y0056007
X01751457
X0176022Y0045466
X0173736Y0045593
X0170815
X0169926
Y0046482
Y0047371
X0170815
Y0046482
Y0044577
X0169926
Y0043688
Y0042799
X0170815
Y0043688
X0168275
X0167386
Y0042799
X0168275
Y0044577
X0167386
X0165481
X0164592
Y0043688
Y0042799
X0165481
Y0043688
X0156337Y004318
Y0042291
X0155194
Y004318
X0153924
Y0042291
X0152654
Y004318
X0151384
Y0042291
X0147701Y0043307
X0146685Y0042672
X0155702Y0044704
X0156591
X01566438Y00707956
X01546118
Y00728276
X01566438
X01586698Y00728123
Y00707803
X01607018
X01627338
Y00728123
X01607018
X01647658
X01667978
X01687292Y00728115
Y00707795
X01667978Y00707803
X01647658
X01723009Y00737204
Y00743554
X01525798Y00728276
X01505478
X01485158
Y00707956
X01505478
X01525798
X01810639Y00742284
X0177546Y004826
Y0047371
X01810639Y00757524
X01763786Y00964394
Y00984714
X01744736Y00964394
X01671032Y00995593
Y01015913
X01650712
X01631662
Y00995593
X01650712
X01611342
Y01015913
X01686951Y010576
X0168783Y0109474
Y011049
X01677653Y0113634
X01666669
X01653975
X017018
X01710466Y01136166
X0150622Y0113665
X014859
Y0111633
Y0109728
Y0107696
Y0105664
X0146558
X0144526
X0142494
Y0103632
X0140462
X013843
Y01016
Y0099568
Y0097536
Y0095504
X0140462
X0142494
Y0097536
X0144526
Y0099568
X0142494
Y01016
X0140462
Y0099568
Y0097536
X0146558Y0099568
Y01016
X014859
Y0103632
X0146558
X0144526
Y01016
Y0107696
X0146558
Y0109728
Y0111633
X0144526
Y0109728
Y0113665
X0146558
X0150622Y0111633
Y0109728
Y0107696
Y0105664
Y0103632
X01538822Y00930268
Y00909948
Y00890898
Y00870578
X01559142
Y00890898
Y00909948
Y00930268
X0156652Y00826389
X015462
X0152588
Y00806069
Y00787019
Y00766699
Y00746379
X0150556
X0148524
Y00766699
X0150556
Y00787019
Y00806069
X0148524
Y00787019
Y00826389
X0150556
X015462Y00806069
Y00787019
X0156652
Y00806069
X01586781Y00805916
Y00786866
X01607101
Y00805916
X01627421
Y00786866
X01647741
Y00805916
X01668061
Y00786866
X01687374Y00786857
Y00805907
Y00766537
X01668061Y00766546
Y00746226
X01687374Y00746217
X01647741Y00746226
Y00766546
X01627421
X01607101
X01586781
Y00746226
X01607101
X01627421
X0156652Y00746379
Y00766699
X015462
Y00746379
X0135882Y00826062
X013385
X0131818
X0129786
Y00846382
Y00865432
X0131818
Y00846382
X013385
Y00865432
Y00885752
X0131818
X0129786
X0135882
Y00865432
Y00846382
X0136398Y0095504
X0134366
X0132334
Y0097536
Y0099568
X0134366
X0136398
Y0097536
X0134366
X0130302
Y0099568
X0122936Y0100457
Y0098425
X0120904
Y0096393
X0122936
Y0094361
X0120904
Y0100457
Y0102489
X0122936
Y0104521
Y0106553
Y0108585
Y011049
Y0112522
X0120904
Y011049
Y0108585
Y0106553
Y0104521
X0115066Y01042751
Y01026731
Y01018037
X01151044Y01007251
X0112251Y0101
Y0099
X0113251Y0097
X01151044Y00965
X01106388Y00958424
X0110251Y0097
X0109251Y0097
Y0098
Y00990001
X0108251Y01
X010725
X010625
X0105251
X010525Y0099
X0104251
X0103251
Y0098
X0101251
Y01
Y0101
X010225Y0101
Y0102
X0103251
X010425
X0104251Y0103
X010525Y01030005
X0106251Y0103
X010625Y0102
X0107251Y0101
X0108251Y0102
X0107251Y0104
X0108251Y0105
Y0107
X0104251
X0103251
Y0108
Y0109
X0102251
X0101251
Y0108
X0102251
Y0107
Y01060028
X0101251Y0106
Y0105
Y0104
X0102251
X010325Y01030005
X0104251Y0104
X0103251Y0105
Y0106
X0105251
X0106251Y0109
X0107251Y0112
X0109251
X010925Y0113001
X0110251Y0114
X0112251
Y0112
Y0109
X0110251
X0112251Y0107
Y0105
Y0103
X0110251
Y0104
Y0101
X010725Y0099
X0106251Y00990001
X0107251Y0098
Y0097
X0105251
Y0098
X0103251Y01000001
Y0101
X009925Y0101
X009925Y0102
X009825
Y0102999
X009825Y0103999
X009725
X009725Y0102999
X00972515Y01020011
X009725Y0101
X009825Y0100999
Y0097999
X009725Y0097999
Y0096999
X00973106Y00938822
X010033Y0092583
X0102362
X010033Y0090551
X0098298
Y0088519
X010033
Y0086487
Y0084455
Y0082423
X0098298
Y0084455
Y0086487
Y0080391
X010033
X01073966Y00806201
Y00825251
Y00842067
Y00861117
X01073449Y0087765
Y008967
X01093769
Y0087765
X01094286Y00861117
Y00842067
Y00825251
Y00806201
X01002511Y0103999
X009925Y01039989
X0099249Y01050001
Y0106
Y0107
X0098249
Y01060028
X00972488
X0097249Y0107
Y0108
Y0109
X0098249
Y0108
X0099249
Y0109
Y0111
Y0112
Y0113
X0098249
Y0112
Y0111
X0097249
Y0112
Y0113
Y0114
X0099249
X0101251Y0113
X0102251
Y0112
X0101251
Y0111
X0102251
X0103251
Y0112
X0104251
X0103251Y0113
X0103249Y0114
X010425Y0114001
X0101251Y0107
X0098249Y01050001
X00972488Y01050001
X01150536Y01081285
X01150451Y0112725
X0096249Y0113
X009525Y0112
X009625Y0111001
X0096251Y011
X00962516Y01090007
X0095251Y0109
X0094251Y0109
X0093259Y0109
X0093251Y011
X0092259Y01099921
X0092255Y0109008
X0091251Y0109
Y0108
X0090247Y01080028
X0089251Y0107
X008925Y0106
X008825
X008725Y01059991
X0086751Y01045001
Y0103502
X00892509Y0103002
X0090251Y0104
X0090251Y01050001
X0089251Y0105
X0091251Y0105
X0092251Y0104
X0091251Y0103
Y0102
X0090251Y0102
X0089251Y01010015
X0089251Y01000001
X008825Y01
X00892455Y0099
X0088251Y0098
X0088251Y0097
X008925Y0096999
X009025
Y0097999
X009225Y00989991
X009225Y0099999
X009425
X009425Y0097999
X009325Y0098999
X009625Y00990025
X009625Y0099999
Y0101
X009625Y0101999
X00962501Y01030025
X0096251Y0105
X0096249Y0107
X009525Y0108
X009425Y0107999
X0093247Y01080034
X00932549Y0107
X0092251
X0093251Y0106
X0093251Y0105
X0093251Y01030001
X0094251Y0103
X009425Y0102
X009625Y0097999
Y0096999
X00917078Y00949854
X00906099Y00949076
X00863778Y00948843
X008725Y0098
X0086751Y01075
X0086055Y01095001
X008825Y0109
X00892479Y0109008
X0089255Y01099921
X0089251Y01110001
X0090251Y0111
X0091249Y0112
X00912638Y01130089
X0092249Y0113
X0093249Y0112
X0094251Y011
X0095251Y011
X0091251Y011
X0090249Y0113
Y0114
X0088249
X0088251Y01120001
X00946912Y0090551
X0096393
Y0088519
X00946912
Y0086487
X0096393
Y0084455
X00946912
Y0082423
X0096393
Y0080391
X00946912
X00781812Y00858466
X0077216
Y00870966
X00781812
X00655415Y00875353
X00637635
Y00898213
X0059961Y008998
X0059436Y0091186
Y0092329
X0058818Y009379
X0060088
X0060596Y0094679
X00606314Y00954568
X00613297Y00954459
X00623091Y00953649
X006295
X006375Y0095365
X006415Y00964
X006495Y00964
X006575
Y00972
X006575Y0098
X006495Y00972
X006335
Y0098
X006255Y00972
X006175Y00972
Y0098
X006095Y0098
Y00972
X006015
X005935
Y0098
X006015
Y00964
X005855
X005855Y00956
X0058183Y0094679
X0059453
X005775Y00972
X005855Y0098
X005775Y01004
X005775Y01012001
X005775Y0102
X00577501Y01028
X00593501Y01028
X005935Y0102
X005935Y01012001
X005935Y01004
X006095Y01004
X006175
X006175Y01012001
X006335Y01012
Y0102
X006495
Y01012
Y01028
X006575
X00638091Y010371
X006295
X006215
X006135
X006055
X0058039Y0108712
X0058056Y008998
X0058945Y0088202
X0057167
X00569055Y00865193
X00551275
X0055135Y009379
X005577
X00554816Y0095288
X0054246Y009531
X00545635Y00964
X005375
X005375Y00972
X005455Y00972
Y0098
X005615Y00972
X005695
X00568749Y00954159
X00529194Y009636
X005295Y01020001
X005375Y0102
X005455Y0102
X005455Y01012001
X00537547Y01012048
X00553423Y01003999
X005695Y01004
X005695Y01012
X005615
X005615Y0102
X005695Y01020001
X00569579Y01031862
X0056024Y010371
X0054806Y0103257
X00532935Y01031724
X0053721Y0105283
Y0106426
Y010795
Y0108966
X0054991
X0056642
X0056007Y01075989
X00428033Y010776
Y0108649
Y0106871
X00428033Y01059795
X00428033Y0105093
X00428033Y01042015
Y0103315
Y01024286
Y0101537
Y01006455
Y0099759
Y00988675
Y0097981
Y00970895
Y00962032
Y0095314
Y0094425
X0042802Y0093536
X00428033Y0092647
Y00917555
X0038625Y009252
X0036847
X0035069
Y009506
X0036847
X0038625
Y00976
X0036847
X0035069
Y010014
X0036847
X0038625
Y010268
X0036847
X0035069
Y010522
X0036847
X0038625
Y010776
X0036847
X0035069
X0031386
X0029608
X002783
X0026052
Y010522
X002783
X0029608
X0031386
Y010268
X0029608
X002783
X0026052
Y010014
X002783
X0029608
X0031386
Y00976
X0029608
X002783
X0026052
Y009506
X002783
X0029608
X0031386
Y009252
X0029608
X002783
X0026052
X002032Y009144
Y009398
Y009652
Y009906
Y01016
Y010414
X001778
X00177738Y01016422
X001778Y009906
X00177738Y00965622
X001778Y009398
X00177738Y00914822
X001778Y00889
X00177738Y00864022
X002032Y008636
Y00889
Y008382
Y008128
Y007874
Y00762
X00177738Y00762422
X001778Y007874
X00177738Y00813222
X001778Y008382
X00177738Y01067222
Y01092622
X001778Y011176
X002032
Y010922
Y010668
X0026052Y01103
X002783
X0029608
Y011284
X002783
X0026052
X0036847
X0038625
X0040403
Y01103
X0038625
X0036847
X001524Y010922
Y011176
X00127
X001016
Y010922
X00127
Y010668
X001016
Y010414
Y01016
X00127
Y010414
X001524
Y01016
Y009906
X00127
Y009652
X001524
Y009398
Y009144
X00127
Y009398
X001016
X000762
X00076138Y00914822
X000508Y009144
Y009398
X000254
Y009144
Y00889
Y008636
Y008382
X000508
X000762
X00076138Y00813222
X000508Y008128
Y007874
X000254
Y00762
X000508
X00076138Y00762422
X000762Y007874
X001016
Y00762
X00127
X001524
Y007874
X00127
Y008128
X001524
Y008382
Y008636
Y00889
X00127
Y008636
Y008382
X001016
Y008128
Y008636
Y00889
Y009144
Y009652
Y009906
X000762
X00076138Y00965622
X000508Y009652
X000254
Y009906
Y01016
X000508
Y010414
Y010668
Y010922
X000254
Y011176
X000508
X000762
X00076138Y01092622
Y01067222
X000762Y010414
X00076138Y01016422
X000508Y009906
X000254Y010414
Y010668
X001524
X000762Y00889
X00076138Y00864022
X000508Y008636
Y00889
X000254Y008128
Y01143
Y011684
X000508
X000762
X00076138Y01143422
X000508Y01143
X001016
Y011684
X00127
Y01143
X001524
Y011684
Y011938
X00127
Y012192
Y012446
Y0127
Y012954
X001524
Y013208
Y013462
Y013716
Y01397
Y014224
X00127
X001016
Y014478
Y014732
X000762
X00076138Y01448222
X000508Y014478
Y014732
X000254
Y014478
Y014224
Y01397
X000508
Y014224
X000762
X00076138Y01397422
X001016Y01397
X00127
Y013716
Y013462
Y013208
X001016
X000762
X00076138Y01295822
X000508Y012954
Y013208
X000254
Y012954
Y0127
Y012446
Y012192
X000508
X000762
X00076138Y01194222
X000508Y011938
X000254
X001016
Y012192
Y012446
Y0127
Y012954
Y013462
Y013716
X000762
X00076138Y01346622
X000508Y013462
X000254
Y013716
X000508
Y0127
Y012446
X00076138Y01245022
X000762Y0127
X001524
Y012446
Y012192
Y014478
X00127
Y014732
X001524
Y014986
X00127
Y01524
X001524
X001016
X000762
X00076138Y01499022
X000508Y014986
Y01524
X000254
Y014986
X001016
X00177738Y01499022
X001778Y01524
X002032
Y014986
Y014732
Y014478
Y014224
X001778
X00177738Y01397422
X002032Y01397
Y013716
X001778
X00177738Y01346622
X002032Y013462
Y013208
Y012954
Y0127
X001778
X00177738Y01245022
X002032Y012446
Y012192
Y011938
Y011684
Y01143
X00177738Y01143422
X001778Y011684
X00177738Y01194222
X001778Y012192
X00177738Y01295822
X001778Y013208
X0027432Y0131318
Y0129286
Y01272525
Y01252205
Y013335
Y0135382
Y0137414
Y0139446
X0029464
X0031496
Y0137414
X0033528
X003556
Y0139446
X0033528
X0037592
X0039624
X0041656
X0043688
Y0137414
X004572
X0047752
X0049784
Y0139446
X0051816
X0053848
Y0137414
X0051816
Y0132969
Y0130937
X0049784
X0047752
Y0128905
Y0126873
Y0124841
Y0122809
X004572
X0043688
Y0124841
X0041656
Y0122809
Y0126873
X0043688
X004572
Y0124841
Y0128905
X0043688
X0041656
X0039624
X0037592
Y0126873
X0039624
Y0130937
X0037592
Y0132969
X0039624
X0041656
Y0130937
X0043688
Y0132969
X004572
X0047752
X0049784
X0053848
Y0130937
X004572
Y0139446
X0047752
X0041656Y0137414
X0039624
X0037592
X0029464
X00177738Y01448222
X001778Y014732
X0026052Y011538
X002783
X0029608
X0036847
X0038625
X0040403
Y011792
X00694802Y01266464
X00715122
Y01286784
X00735442
X00754492
Y01266464
X00735442
X00774812
Y01286784
X00694802
X00662242Y01351858
Y01357954
X00655342Y01357912
Y01351651
Y01369726
Y01376562
X00662242Y01372686
Y0136659
X00743458Y01361059
X0078486Y0141605
X0080518
X008255
X0084582
Y0143637
X0086614
Y0141605
Y0145669
X0084582
Y0147701
Y0149606
X0086614
Y0147701
X008255
Y0149606
X0080518
Y0147701
X0078486
Y0149606
Y0145669
X0080518
X008255
Y0143637
X0080518
X0078486
X0091059Y012954
Y0127508
X0093091
X0095123
Y012954
X0093091
X0093249Y0123
Y0122
X0092249
Y0123
X0091249Y0123
Y0122
X0090249
Y0123
X0089249
Y0122
X00899101Y01241684
X00875919
X0087251Y0123
X00852069Y01190759
X0088249Y0118
X0090249
X0089251Y0119
X0091251
X0091249Y012
Y0121
X00922603Y0121
X0093249Y0121
Y012
X0092249
Y0118
X0093249
Y0119
X0095249Y0119
Y0118
X0096249
X00962503Y01189943
X0096249Y012
X0095249
Y0121
X0096249
X0096249Y0122
Y01229994
X0095249Y0123
X00942503
X0094249Y0122
X0095249
X0096526Y01248336
X0096249Y0117
X0095249Y0115
X0094249
X0092249
Y01160023
X0090249Y0116
X0088249
X00851926Y01149292
X0097249Y0116
Y0118
Y0119
Y012
Y0121
X0098249
Y0122
X0099249
X0097249
Y0123
X0098249Y0123009
X0100751Y01248336
X0102976Y01248288
X0103124Y0127508
X0105029
X0107061
Y012954
X0109093
X0111125
Y0127508
X011303
X0109093
X0107251Y01248288
Y0123
X0106251
Y0122
X0107251
Y0121
X0106251
X0108251
X0109251
Y0122
Y0123
X0108251
Y0122
X010825Y0120001
X0108251Y0119
Y0118
X0107251
X0106251
Y0119
X0105251
Y012
X0104251Y012
X0104251Y0121
X0104251Y0122
Y0123
X010325Y0122001
X010225
X010125Y0121001
X010125Y0120001
Y0119001
X010225Y0119001
Y0120001
X010325
X0103251Y0118
X0104251
X0105251Y0118
Y0117
X0104251Y0117
X0103251Y0117
X0102251Y0117
X0101251
X010125Y0116001
X0101251Y0115
X0102271Y0115
X0103249Y0116
X0104271Y0116
Y0115
X0105251Y0115
X0106251
X0108251
Y01159769
X0110251Y0116
X0112251
X011225Y0118001
X011025
X0109251Y0119
X011225Y0120001
X0115034Y01194492
X01150451Y0118725
Y0116725
X01144079Y01171479
X011325Y0123001
X011125Y0123001
X0120904Y0122555
Y012065
X0122936
Y0122555
Y0124587
X0120904
Y0118618
X0122936
Y0116586
Y0114554
X0120904
Y0116586
X01257788Y01164564
Y01183614
X01278108
Y01164564
X0136144Y013462
X0105029Y012954
X0103124
X0101092
X009906
Y0127508
X0101092
X0097028
Y012954
X0099249Y0119
Y0118
X0098249Y0117
X0102251Y0118
X01472438Y01219454
X01487973Y01239192
X0148082Y013462
X0146177
X0144145
X0142113
X0140081
X0138176
X01379495Y01416889
X01371215
Y01427558
X01379495
X0138904
Y01438227
X01379495Y01438149
X01371215Y01438227
X0138904Y01416889
X01392841Y01511378
X01403
Y01521537
X01392841
X01413161
X0142332
Y01511378
X01413161
X01433481
Y01521537
X0144364
X01453801
Y01511378
X01463961
Y01521537
X0144364Y01511378
X0152019Y0145034
Y0143002
X0154051
Y0145034
X0156083
X0158115
Y0143002
X0156083
X01532654Y01404801
X0154559Y0134747
X0156591
X0158496
X0160528
X016256
Y0132715
Y0130683
X0164592
X0166497
Y0132715
X0164592
Y0134747
X0166497
X0169164Y0134366
Y0136271
X0171831Y0138938
X01730308Y01392056
X01741738
X01753168
Y01405306
X01741738
X0173228
Y01416813
X01741738
X01753168
X0173736Y0133096
X0171831
X0171958Y012827
Y0126238
Y0124333
Y0122301
Y0120269
X0169926
Y0118237
Y0116332
X0171958
Y0118237
X017399
Y0116332
X0175895
Y0118237
Y0120269
X017399
Y0122301
X0175895
Y0124333
X017399
Y0126238
X0175895
Y012827
X017399
X0169926
Y0126238
Y0124333
Y0122301
X015875Y0116332
Y01143
X0156718
Y0116332
X0156591Y0130683
X0158496
X0160528
Y0132715
X0158496
X0156591
X0154559
Y0130683
X01629156Y01400463
X01653861Y014224
X0184023Y0142621
Y0143891
X0184912Y0145034
X0185801
X018669
X0187452
X0188341
X018669Y0146558
X0185801
X0184912
X0183134
Y0145288
X01803398Y01505712
X01929728Y01502926
X01950048
X01970368
Y01523246
X01950048
X01929728
X01943729Y01374726
X01964049
X01984369
X01946716Y01225865
X01940419Y01225866
X01934071Y01225688
X01927465Y01225871
X01920875Y01225831
X01914687Y01225791
X0190754Y01225865
X01904116Y01231276
Y01237686
X0178435Y01340439
X017653
X01788022Y01617754
X017907Y0167386
X0177038
Y0169418
X017907
X0181102
X0183134
Y0167386
X0181102
X0187198
X0191135
X0193167
Y0165608
Y0163576
X0195199
Y0165608
Y0167386
Y0169418
X0197231
Y0167386
Y0165608
Y0163576
X0193167Y0169418
X0191135
X01882394Y017145
X0185166Y0169418
X0188976Y01867535
X0188341Y0192151
X0186309
X0184277
X0182245
X0180213
X0178181
X0176149
X0174117
X0172085
X0166116
X0164084
X0162052
X0160147
X0158115
X0156083
X0154051
X0152019
X0149987
X0147955
X0145923
X0143891
X0141859
X0139827
X0137795
X01386661Y01769711
Y01759551
X01376501
Y01749391
X01386661
Y01739231
Y01729071
X01396821
X01406981
X01417141
Y01739231
X01406981
X01396821
X01376501
X01366341
Y01729071
X01376501
X0136652Y0169418
Y0167386
X0138684
Y0169418
X0140716
X0142748
X014478
Y0167386
X0142748
X0140716
X0146812
X0148844
X0150876
X0152781
X0154813
X0156845
Y0169418
X0158877
X0160909
X0162814
X0164846
Y0167386
X0162814
X0160909
X0158877
X0154813Y0169418
X0152781
X0150876
X0148844
X0146812
X01467941Y01729071
X01457781
X01447621
Y01739231
X01457781
X01467941
X01478101
Y01729071
X01488261
Y01739231
X01437461
X01427301
Y01729071
X01437461
X0148336Y0155303
X0149352
Y0154287
X0148336
X0166878Y0167386
X016891
X0170942
X0172974
X0175006
Y0169418
X0172974
X0170942
X016891
X0166878
X01664208Y01839468
X016891Y01874266
X0169799Y01873758
X0131826Y0188087
Y0186182
X0129794
Y0188087
Y0190119
X0127762
X012573
Y0192151
X0123698
X0121793
X0119761
X0117729
Y0190119
Y0188087
Y0186182
Y018415
X0119761
X0121793
X0123698
X012573
Y0186182
Y0188087
X0123698
Y0186182
X0121793
Y0188087
X0119761
Y0186182
Y0190119
X0121793
X0123698
X0127762Y0188087
Y0186182
Y018415
X0129794
X0131826
Y0190119
Y0192151
X0133731
X0135763
X0129794
X0127762
X0115697
Y0190119
X0113665
X0111633
Y0188087
Y0186182
X0113665
Y0188087
X0115697
Y0186182
Y018415
X0113665
X0111633
X0109601
X0107569
X0105537
Y0186182
Y0188087
X0107569
Y0186182
X0109601
Y0188087
Y0190119
Y0192151
X0111633
X0113665
X0107569
X0105537
Y0190119
X0107569
X01082872Y0168275
X01063822
Y0166243
X01082872
X01103192
Y0168275
X0117094Y0169291
Y0167259
Y0165354
Y0163322
Y016129
Y0159512
Y015748
X0118999
X0119126Y0159512
Y016129
Y0163322
Y0165354
Y0167259
Y0169291
X0115062Y0159512
X0113157
X0111125
X0109093
X0107188
Y015748
X0109093
X0111125
X0113157
X0115062
X01050068
X01031018
X01010698
X013462Y0167386
Y0169418
X00866314Y01750407
Y01764037
X0087863Y01782534
X0088265Y0184404
Y0186436
Y0188341
Y0190373
X0086233
X0084201
X0082169
Y0192405
X0080137
X0078105
X0076073
Y0190373
X0074041
X0072009
Y0188341
Y0186436
X0074041
Y0188341
X0076073
Y0186436
Y0184404
Y0182372
X0074041
X0072009
Y0184404
X0074041
Y018034
X0076073
Y0178435
X0078105
Y018034
X0080137
Y0178435
Y0176403
Y0174371
X0078105
Y0172339
Y0170434
X0080137
Y0172339
X0082993Y01725196
X0080137Y0168402
X0078105
X0076073
Y016637
Y0170434
Y0172339
Y0174371
Y0176403
X0078105
Y0182372
X0080137
Y0184404
X0078105
Y0186436
Y0188341
X0080137
Y0186436
X0082169
Y0188341
X0084201
Y0186436
X0086233
Y0188341
Y0184404
X0084201
X0082169
X0080137Y0190373
X0078105
X0074041Y0192405
X0072009
X0084201
X0086233
X0088265
X00823468Y01619364
X00799735Y01638344
X00795773Y01592177
X00763022
X00840486Y01592525
Y01580025
X002032Y015748
Y016002
Y016256
X001778
X00177738Y01600622
X001778Y015748
X00177738Y01549822
X002032Y015494
Y01651
Y016764
X001778
X00177738Y01651422
Y01702222
X001778Y017272
X002032
Y017018
Y017526
Y01778
X001778
X00177738Y01753022
Y01803822
X001778Y018288
X002032
Y018542
Y018796
Y01905
X001778
X00177738Y01880022
Y01854622
Y01930822
X002032Y019304
Y018034
X001524
Y01778
Y017526
Y017272
X00127
X001016
Y017526
Y01778
X000762
X00076138Y01753022
X000508Y017526
Y01778
X000254
Y017526
Y017272
Y017018
Y016764
X000508
X000762
X00076138Y01651422
X000508Y01651
X000254
Y016256
Y016002
X000508
Y016256
X000762
X00076138Y01600622
X001016Y016002
Y016256
Y01651
Y016764
X00127
Y01651
Y016256
X001524
Y016002
X00127
Y015748
X001524
Y015494
X00127
X001016
Y015748
X000762
X00076138Y01549822
X000508Y015494
X000254
Y015748
X000508
Y017018
Y017272
X000762
X00076138Y01702222
X001016Y017018
X00127
X001524
Y016764
Y01651
X00127Y017526
Y01778
Y018034
Y018288
X001524
X001016
X000762
X00076138Y01803822
X000508Y018034
Y018288
X000254
Y018034
X001016
X001778Y019558
X002032
Y019812
X001778
X002286
Y019558
X00254
X002794
Y019812
X00254
X003048
Y019558
X003302
X003556
Y019812
X00381
X004064
X004318
Y019558
X004064
X00381
X003302Y019812
X004572
Y019558
X004826
X00508
X005334
Y019812
X00508
X004826
X005588
Y019558
X005842
Y019812
X006096
Y019558
X00635
X006604
Y019812
X006858
X007112
X007366
Y019558
X007112
X006858
X00762
X007874
Y019812
X00762
X008128
Y019558
X008382
X008636
X00889
Y019812
X008636
X008382
X009144
Y019558
X009398
X009652
Y019812
X009398
X00635
X009906
X01016
Y019558
X009906
X0105537Y0196088
Y0194183
X0107569
Y0196088
Y019812
X0105537
X0109601
X0111633
Y0196088
Y0194183
X0113665
Y0196088
X0115697
Y0194183
X0117729
Y0196088
Y019812
X0119761
X0121793
X0123698
X012573
Y0196088
Y0194183
X0123698
Y0196088
X0121793
Y0194183
X0119761
Y0196088
X0115697Y019812
X0113665
X0109601Y0196088
Y0194183
X0127762
Y0196088
X0129794
Y0194183
X0131826
X0133731
Y0196088
X0131826
Y019812
X0133731
X0135763
Y0196088
Y0194183
X0129794Y019812
X0127762
X0137795
X0139827
X0141859
X0143891
Y0196088
Y0194183
X0145923
Y0196088
X0147955
Y0194183
X0149987
Y0196088
Y019812
X0147955
X0145923
X0152019
X0154051
Y0196088
Y0194183
X0152019
Y0196088
X0156083
Y0194183
X0158115
Y0196088
X0160147
Y0194183
X0162052
Y0196088
X0164084
Y0194183
X0166116
Y0196088
Y019812
X0168148
X017018
X0172085
X0174117
Y0196088
Y0194183
X0172085
X017018
Y0196088
X0172085
X0168148
Y0194183
X0164084Y019812
X0162052
X0160147
X0158115
X0156083
X0141859Y0196088
Y0194183
X0139827
Y0196088
X0137795
Y0194183
X0176149
Y0196088
Y019812
X0178181
Y0196088
Y0194183
X0180213
Y0196088
X0182245
Y0194183
X0184277
Y0196088
Y019812
X0182245
X0180213
X0186309
X0188341
Y0196088
Y0194183
X0186309
Y0196088
T02
X01756559Y00710084
Y00721084
Y00732084
Y00743084
X01767559
X01778559
Y00732084
X01767559
Y00721084
X01778559
Y00710084
X01767559
Y00754084
Y00765084
X01778559
Y00754084
Y00776084
Y00787084
X01767559
Y00776084
Y00798084
X01778559
X01756559
Y00787084
Y00776084
Y00765084
Y00754084
X00683862Y0136868
X00689612Y0137818
X00678112
X00683862Y0138768
X0097888Y01384248
Y01395249
Y01406248
Y01417248
X0098988
X0100088
X0101188
X0102288
Y01406248
Y01395249
X0101188
Y01406248
X0100088
X0098988
Y01395249
X0100088
Y01384248
X0098988
Y01373248
X0100088
X0101188
Y01384248
X0102288
Y01373248
X0097888
X01807793Y01562274
Y01573274
X01818793
Y01562274
X01607963Y01565234
Y01576234
Y01587234
X01596963
X01585963
Y01576234
X01596963
Y01565234
X01585963
Y01554234
X01596963
Y01543234
X01585963
X01574963
Y01554234
X01563963
Y01543234
Y01565234
X01574963
Y01576234
X01563963
Y01587234
X01574963
X01607963Y01554234
Y01543234
X01655076Y01770728
Y01781729
Y01792728
Y01803728
Y01814728
X01666077
Y01803728
X01677076
Y01814728
X01688076
Y01803728
X01699076
Y01814728
Y01792728
X01688076
Y01781729
X01699076
Y01770728
X01688076
X01677076
X01666077
Y01781729
Y01792728
X01677076
Y01781729
T03
X015559Y0106014
X0157114
X0158638
X0160162
X0161686
X0162448Y0106776
X016321Y0106014
Y0107538
Y0109062
Y0110586
X0162448Y0109824
Y01083
X0161686Y0107538
Y0109062
Y0110586
X0160924Y0109824
Y01083
X01594
X0157876
X0156352
X0157114Y0107538
X0158638
X0160162
X0160924Y0106776
X01594
X0157876
X0156352
X015559Y0107538
Y0109062
X0157114
X0158638
X0160162
Y0110586
X01594Y0109824
X0158638Y0110586
X0157876Y0109824
X0157114Y0110586
X0156352Y0109824
X015559Y0110586
T04
X01905519Y01165576
Y01173376
Y01181176
X01922719
Y01173376
Y01165576
X01822899Y01384533
X01812899
Y01394533
Y01404533
X01802899
Y01394533
Y01384533
X01822899Y01394533
Y01404533
T05
X0148681Y01394611
Y01404611
Y01414611
X0149681
X0150681
Y01404611
X0149681
Y01394611
X0150681
X01681537Y01408307
X01691537
X01701537
Y01418307
X01691537
X01681537
Y01428307
X01691537
X01701537
X00799273Y01545081
Y01555081
Y01565081
X00789273
Y01555081
Y01545081
X00779273
Y01555081
Y01565081
T06
X0137368Y0046617
Y0047687
Y0048757
X0138438
X0139508
Y0047687
X0138438
Y0046617
X0139508
T07
X0184254Y0045974
Y004826
X018908Y0049276
Y0051308
Y005334
Y0055372
X0190858Y0056388
Y0054356
Y0052324
Y0050292
X0184254Y0057404
Y005969
T08
X0183768Y002288
X0185768
Y002538
X0183768
T09
X0194056Y007128
Y007628
Y008128
Y008628
T10
X0192913Y01430887
X0195453Y01456287
X0192913Y01481687
X0197993
Y01430887
Y01547727
X0195453Y01573127
X0192913Y01598527
X0197993
X0192913Y01547727
X01927606Y01719326
X01978406
Y01770126
X01927606
X01953006Y01744726
Y01861566
X01927606Y01886966
X01978406
Y01836166
X01927606
T11
X0179732Y009828
Y010248
Y010668
X0185232
Y010248
Y009828
T12
X0188468Y001811
Y003015
T13
X0193398Y0046482
Y0059182
T14
X019558Y0004572
X0004572
X011744Y00924704
X008244Y01274704
X0004572Y019558
X019558
T15
X0192532Y009828
Y010668
M30
